<svg class="ui icon" xmlns="http://www.w3.org/2000/svg" viewBox="0 0 100 100"><path d="M28.52,16V26.76A4.69,4.69,0,0,1,27,30.47,5.07,5.07,0,0,1,23.24,32h-18a5.07,5.07,0,0,1-3.71-1.56A5.07,5.07,0,0,1,0,26.76V16A5.09,5.09,0,0,1,1.56,12.3a5.07,5.07,0,0,1,3.71-1.56h18A5.07,5.07,0,0,1,27,12.3,4.71,4.71,0,0,1,28.52,16Zm0,28.51V55.27A5.31,5.31,0,0,1,27,59.18a5.07,5.07,0,0,1-3.71,1.56h-18a5.07,5.07,0,0,1-3.71-1.56A6.25,6.25,0,0,1,0,55.27V44.53a5.07,5.07,0,0,1,1.56-3.71,5.07,5.07,0,0,1,3.71-1.56h18A5.07,5.07,0,0,1,27,40.82,4.69,4.69,0,0,1,28.52,44.53Zm0,28.71V83.79A3.94,3.94,0,0,1,27,87.7a5.07,5.07,0,0,1-3.71,1.56h-18A5.07,5.07,0,0,1,1.56,87.7,5.33,5.33,0,0,1,0,83.79V73.24a5.29,5.29,0,0,1,1.56-3.9,5.08,5.08,0,0,1,3.71-1.57h18A5.08,5.08,0,0,1,27,69.34,3.92,3.92,0,0,1,28.52,73.24ZM100,16V26.76A5.33,5.33,0,0,1,94.73,32H41a5.33,5.33,0,0,1-5.28-5.27V16A5.33,5.33,0,0,1,41,10.74H94.73A5.33,5.33,0,0,1,100,16Zm0,28.51V55.27a6.25,6.25,0,0,1-1.56,3.91,5.09,5.09,0,0,1-3.71,1.56H41a5.08,5.08,0,0,1-3.72-1.56,6.25,6.25,0,0,1-1.56-3.91V44.53A5.33,5.33,0,0,1,41,39.26H94.73A5.33,5.33,0,0,1,100,44.53Zm0,28.71V83.79a5.33,5.33,0,0,1-1.56,3.91,5.09,5.09,0,0,1-3.71,1.56H41A5.08,5.08,0,0,1,37.3,87.7a5.33,5.33,0,0,1-1.56-3.91V73.24a5.29,5.29,0,0,1,1.56-3.9A5.09,5.09,0,0,1,41,67.77H94.73a5.1,5.1,0,0,1,3.71,1.57A5.29,5.29,0,0,1,100,73.24Z"/></svg>