<svg class="ui icon" xmlns="http://www.w3.org/2000/svg" viewBox="0 0 100 100"><g id="charts"><path d="M78.32,70.5l13.09,7.42A49.06,49.06,0,0,1,73.44,94,49.6,49.6,0,0,1,50,99.8q-21.09.39-35.35-14.65Q-.4,70.9,0,49.8A45,45,0,0,1,13.48,16,46,46,0,0,1,46.29.19v15A32.06,32.06,0,0,0,24,26.56,32,32,0,0,0,15,50Q14.65,64.25,25.2,74.8T50,85Q68,85,78.32,70.5ZM86.52,16A45,45,0,0,1,100,49.8a49.77,49.77,0,0,1-5.08,21.87L82,64.25A35.81,35.81,0,0,0,85,50a32,32,0,0,0-9-23.44A32.06,32.06,0,0,0,53.71,15.23V.19A46,46,0,0,1,86.52,16Z"/></g></svg>