<svg class="ui icon" xmlns="http://www.w3.org/2000/svg" viewBox="0 0 100 100"><g id="colors"><path d="M32.42,5.27A4.89,4.89,0,0,1,34,8.79v82a5.35,5.35,0,0,1-5.07,5.08H5.08a6.33,6.33,0,0,1-3.52-1.56A4.89,4.89,0,0,1,0,90.82v-82A4.89,4.89,0,0,1,1.56,5.27,6.33,6.33,0,0,1,5.08,3.71H28.91A4.85,4.85,0,0,1,32.42,5.27Zm-8,73.25a4,4,0,0,0-4.88-.59A4.82,4.82,0,0,0,16,82.42a4.48,4.48,0,0,0,2.53,4.88,5.08,5.08,0,0,0,5.28.2,5.07,5.07,0,0,0,2.93-4.3A4.35,4.35,0,0,0,24.41,78.52ZM41.8,96.29c.65,0,2.11,0,4.39-.1s4.2-.1,5.76-.1H94.34l1.36-.78a7.54,7.54,0,0,0,2.35-1.56A6.53,6.53,0,0,0,99.8,90q.2-1.56.2-11.13V68.36l-1.56,1.37a8.74,8.74,0,0,1-2.74,2.15,29.53,29.53,0,0,0-4.29,1.75q-5.28,2.16-11.33,4.69c-1,.52-3.2,1.47-6.45,2.83s-5.73,2.44-7.42,3.23Q50.78,90.82,38.09,96.09Zm-2-40c0,2.22,0,4.72.1,7.52s.1,4.39.1,4.78l.19,3.33q0-1,10.75-25.59,10.14-25,10.15-27.15A3.91,3.91,0,0,0,60.55,16,4.71,4.71,0,0,0,58,13.28l-9.38-4.1Q45.51,8,44,7.23L40,5.47l-1.37-.39q-.39-.2-.39,0a3,3,0,0,0,.39,1.17,10.89,10.89,0,0,1,1,2.54v1.37c0,1,0,2.44.1,4.2s.09,3.87.09,6.34V56.25ZM58.59,71.68,54.1,76.17C52.28,78,51,79.36,50.2,80.27l-3.32,3.32c-.27.27-.56.59-.88,1s-.62.72-.88,1a3.41,3.41,0,0,1-.78.58,7.11,7.11,0,0,0-1.37,2l-.59.39,3.52-1.57c.26-.12,1.53-.68,3.81-1.66s4.26-1.78,5.95-2.44L68,77.73Q93.56,67.19,94.14,66.6a6.88,6.88,0,0,0,2.34-5.27q0-1.56-4.1-11.92L88.09,39.26l-.39,1.37a5.12,5.12,0,0,1-1.18,2.53Q85.35,44.93,63.67,66.6ZM45.31,77.54l6.84-7q2.93-2.73,9.76-10Q82,40.83,82.42,39.65a7.62,7.62,0,0,0,0-5.86q-.58-1.17-8.2-8.79L66.6,17.38v2.15a13.87,13.87,0,0,1-1,3.91Q65.22,24.81,53.91,52,42.57,79.9,42.58,80.08Z"/></g></svg>