<svg class="ui icon" id="grid" xmlns="http://www.w3.org/2000/svg" viewBox="0 0 100 100"><path d="M4.49,0h91A4.34,4.34,0,0,1,100,4.49v21.1a4.44,4.44,0,0,1-1.27,3.12,4.22,4.22,0,0,1-3.22,1.37h-91a4.2,4.2,0,0,1-3.22-1.37A4.44,4.44,0,0,1,0,25.59V4.49A4.34,4.34,0,0,1,4.49,0Zm0,35H42.58a4.69,4.69,0,0,1,4.49,4.49v21.1A4.69,4.69,0,0,1,42.58,65H4.49a4.2,4.2,0,0,1-3.22-1.37A4.44,4.44,0,0,1,0,60.55V39.45a4.44,4.44,0,0,1,1.27-3.12A4.2,4.2,0,0,1,4.49,35Zm0,35h21.1a4.69,4.69,0,0,1,4.49,4.49v21.1a4.22,4.22,0,0,1-1.37,3.22A4.44,4.44,0,0,1,25.59,100H4.49A4.34,4.34,0,0,1,0,95.51V74.41a4.44,4.44,0,0,1,1.27-3.12A4.2,4.2,0,0,1,4.49,69.92Zm35,0h21.1A4.69,4.69,0,0,1,65,74.41v21.1a4.22,4.22,0,0,1-1.37,3.22A4.44,4.44,0,0,1,60.55,100H39.45a4.44,4.44,0,0,1-3.12-1.27A4.22,4.22,0,0,1,35,95.51V74.41a4.69,4.69,0,0,1,4.49-4.49Zm18-35H95.51a4.22,4.22,0,0,1,3.22,1.37A4.44,4.44,0,0,1,100,39.45v21.1a4.44,4.44,0,0,1-1.27,3.12A4.22,4.22,0,0,1,95.51,65H57.42a4.69,4.69,0,0,1-4.49-4.49V39.45A4.69,4.69,0,0,1,57.42,35Zm17,35h21.1a4.22,4.22,0,0,1,3.22,1.37A4.44,4.44,0,0,1,100,74.41v21.1A4.34,4.34,0,0,1,95.51,100H74.41a4.44,4.44,0,0,1-3.12-1.27,4.22,4.22,0,0,1-1.37-3.22V74.41a4.69,4.69,0,0,1,4.49-4.49Z"/></svg>