<svg class="ui icon" xmlns="http://www.w3.org/2000/svg" viewBox="0 0 100 100"><g id="icons"><path d="M13.67,2.34A7.76,7.76,0,0,1,16,8a7.72,7.72,0,0,1-2.35,5.66A7.72,7.72,0,0,1,8,16a7.75,7.75,0,0,1-5.67-2.35A7.72,7.72,0,0,1,0,8,7.75,7.75,0,0,1,2.34,2.34,7.74,7.74,0,0,1,8,0,7.72,7.72,0,0,1,13.67,2.34Zm0,21A7.42,7.42,0,0,1,16,28.91a7.72,7.72,0,0,1-2.35,5.66A7.72,7.72,0,0,1,8,36.91a7.74,7.74,0,0,1-5.67-2.34A7.72,7.72,0,0,1,0,28.91a7.41,7.41,0,0,1,2.34-5.57A7.9,7.9,0,0,1,8,21.09,7.87,7.87,0,0,1,13.67,23.34Zm0,21a8,8,0,0,1,0,11.32A7.69,7.69,0,0,1,8,58a7.71,7.71,0,0,1-5.67-2.35,8,8,0,0,1,0-11.32A7.71,7.71,0,0,1,8,42,7.69,7.69,0,0,1,13.67,44.34Zm0,21.09A7.72,7.72,0,0,1,16,71.09a7.4,7.4,0,0,1-2.35,5.57A7.87,7.87,0,0,1,8,78.91a7.9,7.9,0,0,1-5.67-2.25A7.39,7.39,0,0,1,0,71.09a7.72,7.72,0,0,1,2.34-5.66A7.74,7.74,0,0,1,8,63.09,7.72,7.72,0,0,1,13.67,65.43Zm0,20.9a8,8,0,0,1,0,11.33A7.72,7.72,0,0,1,8,100a7.74,7.74,0,0,1-5.67-2.34,8,8,0,0,1,0-11.33A7.75,7.75,0,0,1,8,84,7.72,7.72,0,0,1,13.67,86.33Zm20.9-84A7.75,7.75,0,0,1,36.91,8a7.72,7.72,0,0,1-2.34,5.66A7.72,7.72,0,0,1,28.91,16a7.4,7.4,0,0,1-5.57-2.35A7.87,7.87,0,0,1,21.09,8a7.91,7.91,0,0,1,2.25-5.67A7.39,7.39,0,0,1,28.91,0,7.72,7.72,0,0,1,34.57,2.34Zm0,21a7.41,7.41,0,0,1,2.34,5.57,8,8,0,0,1-8,8,7.39,7.39,0,0,1-5.57-2.34,7.87,7.87,0,0,1-2.25-5.66,7.52,7.52,0,0,1,2.35-5.47,7.5,7.5,0,0,1,5.47-2.35A7.87,7.87,0,0,1,34.57,23.34Zm0,21A8,8,0,0,1,28.91,58a7.36,7.36,0,0,1-5.57-2.35,8.24,8.24,0,0,1,0-11.32A7.36,7.36,0,0,1,28.91,42,7.69,7.69,0,0,1,34.57,44.34Zm0,21.09a7.72,7.72,0,0,1,2.34,5.66,7.39,7.39,0,0,1-2.34,5.57,7.87,7.87,0,0,1-5.66,2.25,8,8,0,0,1-7.82-7.82,7.87,7.87,0,0,1,2.25-5.66,7.39,7.39,0,0,1,5.57-2.34A7.72,7.72,0,0,1,34.57,65.43Zm0,20.9A8,8,0,0,1,28.91,100a7.39,7.39,0,0,1-5.57-2.34,8.26,8.26,0,0,1,0-11.33A7.4,7.4,0,0,1,28.91,84,7.72,7.72,0,0,1,34.57,86.33Zm21.09-84A7.72,7.72,0,0,1,58,8a7.69,7.69,0,0,1-2.35,5.66,8,8,0,0,1-11.32,0A7.69,7.69,0,0,1,42,8a7.72,7.72,0,0,1,2.35-5.67,8,8,0,0,1,11.32,0Zm0,21A7.38,7.38,0,0,1,58,28.91a8,8,0,0,1-13.67,5.66A7.69,7.69,0,0,1,42,28.91a7.38,7.38,0,0,1,2.35-5.57,8.24,8.24,0,0,1,11.32,0Zm0,21A8,8,0,1,1,44.34,55.66,8,8,0,1,1,55.66,44.34Zm0,21.09A7.69,7.69,0,0,1,58,71.09a7.36,7.36,0,0,1-2.35,5.57,8.24,8.24,0,0,1-11.32,0A7.36,7.36,0,0,1,42,71.09a8,8,0,0,1,13.67-5.66Zm0,20.9A8,8,0,0,1,44.34,97.66,8,8,0,1,1,55.66,86.33Zm21-84A7.91,7.91,0,0,1,78.91,8a7.87,7.87,0,0,1-2.25,5.66A7.42,7.42,0,0,1,71.09,16a7.72,7.72,0,0,1-5.66-2.35A7.72,7.72,0,0,1,63.09,8a7.75,7.75,0,0,1,2.34-5.67A7.72,7.72,0,0,1,71.09,0,7.41,7.41,0,0,1,76.66,2.34Zm2.25,26.57a7.87,7.87,0,0,1-2.25,5.66,7.41,7.41,0,0,1-5.57,2.34,8,8,0,0,1-8-8,7.41,7.41,0,0,1,2.34-5.57,7.87,7.87,0,0,1,5.66-2.25,8,8,0,0,1,7.82,7.82ZM76.66,44.34a8.24,8.24,0,0,1,0,11.32A7.38,7.38,0,0,1,71.09,58a8,8,0,0,1-5.66-13.67A7.69,7.69,0,0,1,71.09,42,7.38,7.38,0,0,1,76.66,44.34Zm2.25,26.75a8,8,0,0,1-7.82,7.82,7.87,7.87,0,0,1-5.66-2.25,7.39,7.39,0,0,1-2.34-5.57,8,8,0,0,1,8-8,7.41,7.41,0,0,1,5.57,2.34A7.87,7.87,0,0,1,78.91,71.09ZM76.66,86.33a8.26,8.26,0,0,1,0,11.33A7.41,7.41,0,0,1,71.09,100a8,8,0,0,1,0-16A7.42,7.42,0,0,1,76.66,86.33Zm21-84A7.75,7.75,0,0,1,100,8a7.72,7.72,0,0,1-2.34,5.66,8,8,0,0,1-11.33,0A7.72,7.72,0,0,1,84,8a7.76,7.76,0,0,1,2.35-5.67,8,8,0,0,1,11.33,0Zm0,21A7.41,7.41,0,0,1,100,28.91a8,8,0,0,1-16,0,7.42,7.42,0,0,1,2.35-5.57,8.26,8.26,0,0,1,11.33,0Zm0,21A8,8,0,1,1,92,42,7.72,7.72,0,0,1,97.66,44.34Zm0,21.09A7.72,7.72,0,0,1,100,71.09a7.39,7.39,0,0,1-2.34,5.57,8.26,8.26,0,0,1-11.33,0A7.4,7.4,0,0,1,84,71.09a8,8,0,0,1,13.68-5.66Zm0,20.9A8,8,0,1,1,92,84,7.72,7.72,0,0,1,97.66,86.33Z"/></g></svg>