<svg class="ui icon" xmlns="http://www.w3.org/2000/svg" viewBox="0 0 100 100"><path d="M14.37,70a14.29,14.29,0,0,1-.08,28.58A14.29,14.29,0,1,1,14.37,70Zm-.13,22.84a8.58,8.58,0,1,0-8.51-8.66A8.64,8.64,0,0,0,14.24,92.87Z"/><path d="M28.57,15.75A14.29,14.29,0,1,1,14.38,1.4,14.25,14.25,0,0,1,28.57,15.75ZM5.73,15.67a8.64,8.64,0,0,0,8.57,8.62,8.58,8.58,0,1,0-8.57-8.62Z"/><path d="M28.57,50A14.29,14.29,0,1,1,14.48,35.71,14.29,14.29,0,0,1,28.57,50ZM14.32,41.45A8.55,8.55,0,1,0,22.89,50,8.56,8.56,0,0,0,14.32,41.45Z"/><path d="M70,47.12H96.67c2,0,3.24,1,3.32,2.69a2.74,2.74,0,0,1-2.19,2.94,7.26,7.26,0,0,1-1.55.12H43.83a6.88,6.88,0,0,1-1.76-.18,2.81,2.81,0,0,1,0-5.38,6.4,6.4,0,0,1,1.64-.18Z"/><path d="M69.92,18.54H43.24c-2,0-3.22-1.16-3.18-2.92a2.72,2.72,0,0,1,2.46-2.71,11.92,11.92,0,0,1,1.34-.05H96.2a11.92,11.92,0,0,1,1.34.05A2.74,2.74,0,0,1,100,15.73a2.77,2.77,0,0,1-2.52,2.78c-.4,0-.81,0-1.22,0Z"/><path d="M70,87.14H44a14,14,0,0,1-1.45,0,2.74,2.74,0,0,1-2.5-2.9,2.77,2.77,0,0,1,2.58-2.72c.26,0,.52,0,.78,0H96.66c2.22,0,3.47,1.17,3.32,3.09a2.7,2.7,0,0,1-2.4,2.53,11.71,11.71,0,0,1-1.45,0Z"/><path d="M14.26,90a5.7,5.7,0,0,1,.09-11.4A5.7,5.7,0,1,1,14.26,90Z"/></svg>