<svg class="ui icon" xmlns="http://www.w3.org/2000/svg" viewBox="0 0 100 100"><path d="M37.83,79.69H7.53A7.1,7.1,0,0,1,.11,72.27V15.14A7.1,7.1,0,0,1,7.43,7.81h79.1a7.09,7.09,0,0,1,7.33,7.31v27H87.61V16.06c0-1.59-.41-2-2-2H8.44c-1.69,0-2.08.39-2.08,2v46c0,1.54.43,2,2,2H68.81v15.6H56.12a7,7,0,0,0,4.12,6.45A18.27,18.27,0,0,0,64,87.27a1.87,1.87,0,0,1,1.71,2v1c0,1.38-.58,2-2,2H30.29c-1.52,0-2.05-.54-2.05-2,0-.29,0-.58,0-.87a1.77,1.77,0,0,1,1.69-2c2.57-.4,4.92-1.25,6.54-3.44A6.54,6.54,0,0,0,37.83,79.69Zm12.6-7.82A3.45,3.45,0,1,0,47,75.32,3.49,3.49,0,0,0,50.43,71.87Z"/><path d="M100.11,68.78V87.23a4.7,4.7,0,0,1-4.94,5H76.91A4.68,4.68,0,0,1,72,87.31V50.22a4.68,4.68,0,0,1,4.89-4.91H95.23a4.69,4.69,0,0,1,4.88,4.93Zm-25,0V81.54c0,1.21.06,1.27,1.27,1.27H95.71c1.22,0,1.28,0,1.28-1.27V56c0-1.21-.06-1.27-1.28-1.27H76.38c-1.22,0-1.27.05-1.27,1.27ZM86,51.56c1,0,2.08,0,3.11,0a1.55,1.55,0,1,0,0-3.1q-3.06,0-6.14,0a1.56,1.56,0,1,0,0,3.12C84,51.58,85,51.56,86,51.56ZM88.39,87.5A2.34,2.34,0,1,0,86,89.84,2.37,2.37,0,0,0,88.39,87.5Z"/></svg>