<svg class="ui icon" xmlns="http://www.w3.org/2000/svg" viewBox="0 0 100 100"><g id="modal"><path d="M98,2.05a6.78,6.78,0,0,1,2,5V93a7,7,0,0,1-7,7H7a6.78,6.78,0,0,1-5-2,6.78,6.78,0,0,1-2-5V7a6.78,6.78,0,0,1,2.05-5A6.78,6.78,0,0,1,7,0H93A6.78,6.78,0,0,1,98,2.05ZM97.07,18H2.93V91a5.84,5.84,0,0,0,1.76,4.29A5.84,5.84,0,0,0,9,97.07H91a6,6,0,0,0,6-6Zm-83,18H86.91V30.08H14.06Zm0,12.11H86.91V42H14.06Zm0,11.91H86.91V53.91H14.06Zm0,14.65V85.35c0,1.83.85,2.74,2.54,2.74H44.34a2.42,2.42,0,0,0,2.73-2.74V74.61c0-1.69-.91-2.54-2.73-2.54H16.6A2.25,2.25,0,0,0,14.06,74.61Zm39.85,0V85.35a2.42,2.42,0,0,0,2.73,2.74H84.38c1.69,0,2.53-.91,2.53-2.74V74.61a2.24,2.24,0,0,0-2.53-2.54H56.64C54.82,72.07,53.91,72.92,53.91,74.61ZM84,13.09h8v-8H84Z"/></g></svg>