<svg class="ui icon" xmlns="http://www.w3.org/2000/svg" viewBox="0 0 100 100"><g id="pbar"><path d="M99,7.63a3,3,0,0,1,1,2.93v16q0,4.49-4.5,4.49h-91c-3,0-4.49-1.5-4.49-4.49v-16C0,8,1.45,6.65,4.45,6.65H95.66A4.6,4.6,0,0,1,99,7.63Zm0,31.06a3.21,3.21,0,0,1,1,3.12V58.22q0,4.1-4.5,4.1h-91C1.45,62.32,0,61,0,58.22V41.81c0-2.73,1.49-4.1,4.49-4.1H95.66A4.51,4.51,0,0,1,99,38.69Zm1,34.37V89.27c0,2.74-1.5,4.1-4.5,4.1h-91C1.45,93.37,0,92,0,89.27V73.06c0-3,1.49-4.49,4.49-4.49H95.66C98.78,68.57,100.22,70.07,100,73.06ZM98,41.81c0-1.43-.84-2.15-2.54-2.15H29.25V60.37H95.46c1.7,0,2.54-.72,2.54-2.15Zm0-31.05c0-1.44-.84-2.15-2.54-2.15H75.35v20.9H95.46a3.8,3.8,0,0,0,2-.59A3.16,3.16,0,0,0,98,27Zm0,62.5a2.65,2.65,0,0,0-.78-2,2.38,2.38,0,0,0-1.76-.58H88.24v20.7h7.22c1.7,0,2.54-.71,2.54-2.15Z"/></g></svg>