<svg class="ui icon" xmlns="http://www.w3.org/2000/svg" viewBox="0 0 100 100"><path d="M41.73,0l2.39.17A57.21,57.21,0,0,1,71.43,9.39C73.21,10.55,75,11.77,76.79,13l-7.37,6.57c-1.61-1.08-3.18-2.16-4.76-3.2A43.37,43.37,0,0,0,46.77,9.54a38.94,38.94,0,0,0-20.62,2.3A24.42,24.42,0,0,0,11.33,28.08,42.54,42.54,0,0,0,9.77,43.91a50.08,50.08,0,0,0,3.08,14,39.86,39.86,0,0,0,10.34,15.2A56.1,56.1,0,0,0,40.31,83.77a77.9,77.9,0,0,0,16.63,4.86,45.77,45.77,0,0,0,12.69.64,24.9,24.9,0,0,0,6.43-1.52,4.61,4.61,0,0,0,3-4.54,17.81,17.81,0,0,0-1.16-6.12c-1.1-3.41-2.24-6.8-3.23-10.24A19.54,19.54,0,0,1,74,59.43,9.46,9.46,0,0,1,79,51.78c1.56-.88,3.2-1.59,4.73-2.5a16.1,16.1,0,0,0,3-2.22,6.2,6.2,0,0,0,1.64-6.74,15,15,0,0,0-3.31-6.18,5.4,5.4,0,0,1-.39-.47l6.64-7.16c.78.95,1.57,1.83,2.27,2.78C95,31.16,96.34,33.08,97.7,35a13.09,13.09,0,0,1,2.09,5.68l.21,1.2v2.34a1.61,1.61,0,0,0-.09.29,9.85,9.85,0,0,1-1.27,3.78,13.87,13.87,0,0,1-6,5.55c-1.7.89-3.42,1.75-5,2.75a8.51,8.51,0,0,0-4.48,7.62,20,20,0,0,0,1.31,6.72c1.51,4.2,3.11,8.37,4.68,12.55a14.78,14.78,0,0,1,1,6.9c-.44,3.72-2.29,6.36-5.91,7.63a36.44,36.44,0,0,1-9.37,1.83l-2.59.2h-4c-.22,0-.44-.07-.65-.08-1-.06-2-.08-3-.16a116.5,116.5,0,0,1-11.76-1.58,77.55,77.55,0,0,1-19.1-5.94,59.15,59.15,0,0,1-23-18.52A55,55,0,0,1,.2,45c-.07-.76-.13-1.52-.2-2.27v-4.6c.1-1.14.19-2.29.3-3.44A46.12,46.12,0,0,1,3.39,22,31.68,31.68,0,0,1,18.32,5.14,45.5,45.5,0,0,1,35.89.2L38.57,0Z"/><path d="M33.34,66.62a29.77,29.77,0,0,1,2.28-6.15A58.39,58.39,0,0,1,44.48,47.8a39.36,39.36,0,0,1,4.89-4.23Q68.11,28.33,86.48,12.66c1.57-1.33,3.15-2.65,4.71-4a1,1,0,0,1,.92-.25,4,4,0,0,1,3.69,4.11,1.06,1.06,0,0,1-.3.64Q89.26,19.62,83,26.07C76.21,33.05,69.36,40,62.6,47c-2.79,2.88-5.37,6-8.09,8.91a17.5,17.5,0,0,1-2.2,1.81A50.67,50.67,0,0,1,43,63.83a31.2,31.2,0,0,1-9.39,2.79Z"/><path d="M71.09,74.38a8.46,8.46,0,1,1-8.49-8.45A8.48,8.48,0,0,1,71.09,74.38Z"/><path d="M21.1,51.87a6.5,6.5,0,1,1,6.53-6.5A6.52,6.52,0,0,1,21.1,51.87Z"/><path d="M22.42,27.14a6,6,0,1,1,6,6A6,6,0,0,1,22.42,27.14Z"/><path d="M39.85,18.79a6,6,0,1,1,5.94,6A6,6,0,0,1,39.85,18.79Z"/></svg>