<svg class="ui icon" xmlns="http://www.w3.org/2000/svg" viewBox="0 0 100 100"><path d="M49.75,35c-14.65,0-29.31-.05-44,0-3.65,0-6-2.42-5.93-5.87C0,23-.1,16.7-.1,10.45A5.08,5.08,0,0,1,5.3,5C8.53,5,11.75,5,15,5H94q4.77,0,5.75,3.88a6.9,6.9,0,0,1,.14,1.57q0,9.5,0,19c0,3.5-2.1,5.6-5.65,5.6ZM4.93,10.08V29.93c.43,0,.78.07,1.14.07q31.28,0,62.56,0c1,0,1.31-.3,1.3-1.32-.05-5.83,0-11.67,0-17.51,0-.35,0-.71-.06-1.12ZM94.84,29.92V10.11H74.94V29.92Z"/><path d="M37.38,55H3.59c-.41,0-.82,0-1.22,0A2.42,2.42,0,0,1-.09,52.33c0-3.18,0-6.37,0-9.55A2.56,2.56,0,0,1,2.61,40H71.29c2.82,0,3.57.75,3.57,3.53s0,5.31,0,8S74.14,55,71.42,55Z"/><path d="M37.39,75H3C.75,75-.1,74.11-.1,71.85V63c0-2.11.88-3,2.94-3H71.9c2.06,0,3,.92,3,3q0,4.47,0,8.94c0,2.13-.9,3-3.07,3Z"/><path d="M37.37,80H71.53c2.58,0,3.33.76,3.33,3.36q0,4.35,0,8.69A2.61,2.61,0,0,1,72,95c-.24,0-.49,0-.73,0H3.47c-.32,0-.65,0-1,0A2.54,2.54,0,0,1-.09,92.22c0-2.9,0-5.8,0-8.7S.6,80,3.34,80q13,0,26,0Z"/><path d="M89.9,22.78H80l5-5.27Z"/></svg>