<svg class="ui icon" xmlns="http://www.w3.org/2000/svg" viewBox="0 0 100 100"><g id="table"><path d="M5.08,96.48A5.38,5.38,0,0,1,.39,92.19Q.39,92,0,50.39,0,9.19.2,9A3,3,0,0,1,.59,7.62a7.17,7.17,0,0,1,2-3.13A4.66,4.66,0,0,1,5.66,3.32q.2-.19,44.73-.2,43.55,0,44.73.4a4.33,4.33,0,0,1,4.29,4.29L99.8,9q.2,0,.2,40.82,0,40.05-.39,42a6.17,6.17,0,0,1-4.69,4.68q-1.56.4-45.12.4T5.08,96.48ZM31.25,31.05V21.68h-25V40.43h25Zm0,25.4V46.87h-25V66.21h25Zm0,24.6V71.68h-25V90.43h25ZM62.7,31.25V21.87H37.3V40.62H62.7Zm0,25.2V46.87H37.3V66.21H62.7Zm0,24.6V71.68H37.3V90.43H62.7Zm31.05-50V21.68h-25V40.43h25Zm0,25.4V46.87h-25V66.21h25Zm0,24.6V71.68h-25V90.43h25Z"/></g></svg>