<svg class="ui icon" xmlns="http://www.w3.org/2000/svg" viewBox="0 0 100 100"><g id="typography"><path d="M1.17,96.09H0l.2-4.68c2.47-.52,4.1-.85,4.88-1q5.46-1,6.44-2a15.59,15.59,0,0,0,2.93-4.1L28.71,47.27,45.51,3.91h7.62l.58,1.36L66.21,34q2,4.7,3.91,9.48T72.75,50a14.19,14.19,0,0,1,.69,2q.39.59,2.73,6.06,3.12,7.43,3.32,8a92.42,92.42,0,0,1,3.71,9.76q3.33,7.62,3.91,8.79a15.15,15.15,0,0,0,2.15,3.52,7.91,7.91,0,0,0,4.29,1.36,27.53,27.53,0,0,1,6.06,1.76,11.67,11.67,0,0,0,.1,1.56A9.07,9.07,0,0,0,99.9,94a2.39,2.39,0,0,1,.1.58,5.05,5.05,0,0,1-.2,1.56,90.4,90.4,0,0,1-11.32-.58q-10.16-.39-11.33-.39H69l-12.11,1H53.32a14.54,14.54,0,0,1,.2-2.54V91.41l8-1.76a18.6,18.6,0,0,0,4.11-1.37,2.29,2.29,0,0,0,.78-1.56A10.78,10.78,0,0,0,66,84.57l-2.74-6.64L57.62,64.26l-27-.2q-2.34,5.47-6.25,16.41-.39,1.36-.78,2.64c-.26.84-.46,1.46-.58,1.85l-.2.59A3.74,3.74,0,0,0,24,88.28q1.77,1.17,6.25,1.76h.78l1.76.59a11,11,0,0,1,2.54.39v3.32a6.27,6.27,0,0,1-.19,1.75q-1.17,0-20.9-1.36l-2.93.39A58.11,58.11,0,0,1,1.17,96.09ZM43.55,29.88,33.4,56.64c1.69,0,3.19.07,4.49.2h16.8q-.59-2-5.47-14.46Q46.09,34.76,43.55,29.88Z"/></g></svg>