<?xml version="1.0" encoding="utf-8"?>
<svg viewBox="653.32 375.476 56.64 5.764" width="156.64" height="11.764" xmlns="http://www.w3.org/2000/svg" style="position:absolute; margin-left: 902px; margin-top: 170px;">
  <defs>
    <style>.cls-1,.cls-3,.cls-5{fill:none;}.cls-2{clip-path:url(#clip-path);}.cls-3,.cls-5{stroke:#fff;stroke-linecap:round;}.cls-3{stroke-linejoin:round;stroke-width:0.72px;}.cls-4,.cls-6{fill:#fff;}.cls-5{stroke-miterlimit:10;stroke-width:0;}.cls-6{font-size:9.59px;font-family:ArialMT, Arial;}</style>
  </defs>
  <line class="cls-3" x1="688.957" y1="377.883" x2="663.476" y2="377.824" style=""/>
  <path class="cls-4" d="M 663.338 376.468 L 663.869 376.527 L 663.102 376.527 L 663.338 376.468 Z M 663.633 376.468 L 663.338 376.468 L 663.869 376.527 L 663.633 376.468 Z" style=""/>
  <path class="cls-5" d="M 663.338 376.468 L 663.869 376.527 L 663.102 376.527 L 663.338 376.468 Z M 663.633 376.468 L 663.338 376.468 L 663.869 376.527 L 663.633 376.468 Z" style=""/>
  <path class="cls-4" d="M 663.122 376.507 L 664.105 376.625 L 662.866 376.625 L 663.122 376.507 Z M 663.888 376.507 L 663.122 376.507 L 664.105 376.625 L 663.888 376.507 Z" style=""/>
  <path class="cls-5" d="M 663.122 376.507 L 664.105 376.625 L 662.866 376.625 L 663.122 376.507 Z M 663.888 376.507 L 663.122 376.507 L 664.105 376.625 L 663.888 376.507 Z" style=""/>
  <path class="cls-4" d="M 662.886 376.645 L 664.301 376.763 L 662.65 376.763 L 662.886 376.645 Z M 664.124 376.645 L 662.886 376.645 L 664.301 376.763 L 664.124 376.645 Z" style=""/>
  <path class="cls-5" d="M 662.886 376.645 L 664.301 376.763 L 662.65 376.763 L 662.886 376.645 Z M 664.124 376.645 L 662.886 376.645 L 664.301 376.763 L 664.124 376.645 Z" style=""/>
  <path class="cls-4" d="M 662.65 376.763 L 664.537 376.94 L 662.473 376.94 L 662.65 376.763 Z M 664.301 376.763 L 662.65 376.763 L 664.537 376.94 L 664.301 376.763 Z" style=""/>
  <path class="cls-5" d="M 662.65 376.763 L 664.537 376.94 L 662.473 376.94 L 662.65 376.763 Z M 664.301 376.763 L 662.65 376.763 L 664.537 376.94 L 664.301 376.763 Z" style=""/>
  <path class="cls-4" d="M 662.473 376.94 L 664.655 377.117 L 662.355 377.117 L 662.473 376.94 Z M 664.537 376.94 L 662.473 376.94 L 664.655 377.117 L 664.537 376.94 Z" style=""/>
  <path class="cls-5" d="M 662.473 376.94 L 664.655 377.117 L 662.355 377.117 L 662.473 376.94 Z M 664.537 376.94 L 662.473 376.94 L 664.655 377.117 L 664.537 376.94 Z" style=""/>
  <path class="cls-4" d="M 662.355 377.117 L 664.773 377.352 L 662.237 377.352 L 662.355 377.117 Z M 664.655 377.117 L 662.355 377.117 L 664.773 377.352 L 664.655 377.117 Z" style=""/>
  <path class="cls-5" d="M 662.355 377.117 L 664.773 377.352 L 662.237 377.352 L 662.355 377.117 Z M 664.655 377.117 L 662.355 377.117 L 664.773 377.352 L 664.655 377.117 Z" style=""/>
  <path class="cls-4" d="M 662.237 377.352 L 664.832 377.588 L 662.119 377.588 L 662.237 377.352 Z M 664.773 377.352 L 662.237 377.352 L 664.832 377.588 L 664.773 377.352 Z" style=""/>
  <path class="cls-5" d="M 662.237 377.352 L 664.832 377.588 L 662.119 377.588 L 662.237 377.352 Z M 664.773 377.352 L 662.237 377.352 L 664.832 377.588 L 664.773 377.352 Z" style=""/>
  <path class="cls-4" d="M 662.119 377.588 L 664.891 377.824 L 662.119 377.824 L 662.119 377.588 Z M 664.832 377.588 L 662.119 377.588 L 664.891 377.824 L 664.832 377.588 Z" style=""/>
  <path class="cls-5" d="M 662.119 377.588 L 664.891 377.824 L 662.119 377.824 L 662.119 377.588 Z M 664.832 377.588 L 662.119 377.588 L 664.891 377.824 L 664.832 377.588 Z" style=""/>
  <path class="cls-4" d="M 662.119 377.824 L 664.832 378.119 L 662.119 378.119 L 662.119 377.824 Z M 664.891 377.824 L 662.119 377.824 L 664.832 378.119 L 664.891 377.824 Z" style=""/>
  <path class="cls-5" d="M 662.119 377.824 L 664.832 378.119 L 662.119 378.119 L 662.119 377.824 Z M 664.891 377.824 L 662.119 377.824 L 664.832 378.119 L 664.891 377.824 Z" style=""/>
  <path class="cls-4" d="M 662.119 378.119 L 664.773 378.355 L 662.237 378.355 L 662.119 378.119 Z M 664.832 378.119 L 662.119 378.119 L 664.773 378.355 L 664.832 378.119 Z" style=""/>
  <path class="cls-5" d="M 662.119 378.119 L 664.773 378.355 L 662.237 378.355 L 662.119 378.119 Z M 664.832 378.119 L 662.119 378.119 L 664.773 378.355 L 664.832 378.119 Z" style=""/>
  <path class="cls-4" d="M 662.237 378.355 L 664.655 378.591 L 662.355 378.591 L 662.237 378.355 Z M 664.773 378.355 L 662.237 378.355 L 664.655 378.591 L 664.773 378.355 Z" style=""/>
  <path class="cls-5" d="M 662.237 378.355 L 664.655 378.591 L 662.355 378.591 L 662.237 378.355 Z M 664.773 378.355 L 662.237 378.355 L 664.655 378.591 L 664.773 378.355 Z" style=""/>
  <path class="cls-4" d="M 662.355 378.591 L 664.537 378.768 L 662.473 378.768 L 662.355 378.591 Z M 664.655 378.591 L 662.355 378.591 L 664.537 378.768 L 664.655 378.591 Z" style=""/>
  <path class="cls-5" d="M 662.355 378.591 L 664.537 378.768 L 662.473 378.768 L 662.355 378.591 Z M 664.655 378.591 L 662.355 378.591 L 664.537 378.768 L 664.655 378.591 Z" style=""/>
  <path class="cls-4" d="M 662.473 378.768 L 664.321 378.965 L 662.65 378.965 L 662.473 378.768 Z M 664.537 378.768 L 662.473 378.768 L 664.321 378.965 L 664.537 378.768 Z" style=""/>
  <path class="cls-5" d="M 662.473 378.768 L 664.321 378.965 L 662.65 378.965 L 662.473 378.768 Z M 664.537 378.768 L 662.473 378.768 L 664.321 378.965 L 664.537 378.768 Z" style=""/>
  <path class="cls-4" d="M 662.65 378.965 L 664.124 379.083 L 662.886 379.083 L 662.65 378.965 Z M 664.301 378.965 L 662.65 378.965 L 664.124 379.083 L 664.301 378.965 Z" style=""/>
  <path class="cls-5" d="M 662.65 378.965 L 664.124 379.083 L 662.886 379.083 L 662.65 378.965 Z M 664.301 378.965 L 662.65 378.965 L 664.124 379.083 L 664.301 378.965 Z" style=""/>
  <path class="cls-4" d="M 662.886 379.063 L 663.869 379.181 L 663.102 379.181 L 662.886 379.063 Z M 664.124 379.063 L 662.886 379.063 L 663.869 379.181 L 664.124 379.063 Z" style=""/>
  <path class="cls-5" d="M 662.886 379.063 L 663.869 379.181 L 663.102 379.181 L 662.886 379.063 Z M 664.124 379.063 L 662.886 379.063 L 663.869 379.181 L 664.124 379.063 Z" style=""/>
  <path class="cls-4" d="M 663.122 379.181 L 663.652 379.24 L 663.338 379.24 L 663.122 379.181 Z M 663.888 379.181 L 663.122 379.181 L 663.652 379.24 L 663.888 379.181 Z" style=""/>
  <path class="cls-5" d="M 663.122 379.181 L 663.652 379.24 L 663.338 379.24 L 663.122 379.181 Z M 663.888 379.181 L 663.122 379.181 L 663.652 379.24 L 663.888 379.181 Z" style=""/>
  <path class="cls-3" d="M 664.891 377.795 C 664.891 376.728 663.736 376.061 662.812 376.594 C 661.888 377.128 661.888 378.462 662.812 378.995 C 663.023 379.117 663.262 379.181 663.505 379.181 C 664.27 379.181 664.891 378.56 664.891 377.795" style=""/>
  <path class="cls-4" d="M 688.407 376.468 L 688.938 376.527 L 688.171 376.527 L 688.407 376.468 Z M 688.702 376.468 L 688.407 376.468 L 688.938 376.527 L 688.702 376.468 Z" style=""/>
  <path class="cls-5" d="M 688.407 376.468 L 688.938 376.527 L 688.171 376.527 L 688.407 376.468 Z M 688.702 376.468 L 688.407 376.468 L 688.938 376.527 L 688.702 376.468 Z" style=""/>
  <path class="cls-4" d="M 688.19 376.507 L 689.174 376.625 L 687.935 376.625 L 688.19 376.507 Z M 688.957 376.507 L 688.19 376.507 L 689.174 376.625 L 688.957 376.507 Z" style=""/>
  <path class="cls-5" d="M 688.19 376.507 L 689.174 376.625 L 687.935 376.625 L 688.19 376.507 Z M 688.957 376.507 L 688.19 376.507 L 689.174 376.625 L 688.957 376.507 Z" style=""/>
  <path class="cls-4" d="M 687.954 376.645 L 689.37 376.763 L 687.719 376.763 L 687.954 376.645 Z M 689.193 376.645 L 687.954 376.645 L 689.37 376.763 L 689.193 376.645 Z" style=""/>
  <path class="cls-5" d="M 687.954 376.645 L 689.37 376.763 L 687.719 376.763 L 687.954 376.645 Z M 689.193 376.645 L 687.954 376.645 L 689.37 376.763 L 689.193 376.645 Z" style=""/>
  <path class="cls-4" d="M 687.719 376.763 L 689.606 376.94 L 687.542 376.94 L 687.719 376.763 Z M 689.37 376.763 L 687.719 376.763 L 689.606 376.94 L 689.37 376.763 Z" style=""/>
  <path class="cls-5" d="M 687.719 376.763 L 689.606 376.94 L 687.542 376.94 L 687.719 376.763 Z M 689.37 376.763 L 687.719 376.763 L 689.606 376.94 L 689.37 376.763 Z" style=""/>
  <path class="cls-4" d="M 687.542 376.94 L 689.724 377.117 L 687.424 377.117 L 687.542 376.94 Z M 689.606 376.94 L 687.542 376.94 L 689.724 377.117 L 689.606 376.94 Z" style=""/>
  <path class="cls-5" d="M 687.542 376.94 L 689.724 377.117 L 687.424 377.117 L 687.542 376.94 Z M 689.606 376.94 L 687.542 376.94 L 689.724 377.117 L 689.606 376.94 Z" style=""/>
  <path class="cls-4" d="M 687.424 377.117 L 689.842 377.352 L 687.306 377.352 L 687.424 377.117 Z M 689.724 377.117 L 687.424 377.117 L 689.842 377.352 L 689.724 377.117 Z" style=""/>
  <path class="cls-5" d="M 687.424 377.117 L 689.842 377.352 L 687.306 377.352 L 687.424 377.117 Z M 689.724 377.117 L 687.424 377.117 L 689.842 377.352 L 689.724 377.117 Z" style=""/>
  <path class="cls-4" d="M 687.306 377.352 L 689.901 377.588 L 687.188 377.588 L 687.306 377.352 Z M 689.842 377.352 L 687.306 377.352 L 689.901 377.588 L 689.842 377.352 Z" style=""/>
  <path class="cls-5" d="M 687.306 377.352 L 689.901 377.588 L 687.188 377.588 L 687.306 377.352 Z M 689.842 377.352 L 687.306 377.352 L 689.901 377.588 L 689.842 377.352 Z" style=""/>
  <path class="cls-4" d="M 687.188 377.588 L 689.96 377.824 L 687.188 377.824 L 687.188 377.588 Z M 689.901 377.588 L 687.188 377.588 L 689.96 377.824 L 689.901 377.588 Z" style=""/>
  <path class="cls-5" d="M 687.188 377.588 L 689.96 377.824 L 687.188 377.824 L 687.188 377.588 Z M 689.901 377.588 L 687.188 377.588 L 689.96 377.824 L 689.901 377.588 Z" style=""/>
  <path class="cls-4" d="M 687.188 377.824 L 689.901 378.119 L 687.188 378.119 L 687.188 377.824 Z M 689.96 377.824 L 687.188 377.824 L 689.901 378.119 L 689.96 377.824 Z" style=""/>
  <path class="cls-5" d="M 687.188 377.824 L 689.901 378.119 L 687.188 378.119 L 687.188 377.824 Z M 689.96 377.824 L 687.188 377.824 L 689.901 378.119 L 689.96 377.824 Z" style=""/>
  <path class="cls-4" d="M 687.188 378.119 L 689.842 378.355 L 687.306 378.355 L 687.188 378.119 Z M 689.901 378.119 L 687.188 378.119 L 689.842 378.355 L 689.901 378.119 Z" style=""/>
  <path class="cls-5" d="M 687.188 378.119 L 689.842 378.355 L 687.306 378.355 L 687.188 378.119 Z M 689.901 378.119 L 687.188 378.119 L 689.842 378.355 L 689.901 378.119 Z" style=""/>
  <path class="cls-4" d="M 687.306 378.355 L 689.724 378.591 L 687.424 378.591 L 687.306 378.355 Z M 689.842 378.355 L 687.306 378.355 L 689.724 378.591 L 689.842 378.355 Z" style=""/>
  <path class="cls-5" d="M 687.306 378.355 L 689.724 378.591 L 687.424 378.591 L 687.306 378.355 Z M 689.842 378.355 L 687.306 378.355 L 689.724 378.591 L 689.842 378.355 Z" style=""/>
  <path class="cls-4" d="M 687.424 378.591 L 689.606 378.768 L 687.542 378.768 L 687.424 378.591 Z M 689.724 378.591 L 687.424 378.591 L 689.606 378.768 L 689.724 378.591 Z" style=""/>
  <path class="cls-5" d="M 687.424 378.591 L 689.606 378.768 L 687.542 378.768 L 687.424 378.591 Z M 689.724 378.591 L 687.424 378.591 L 689.606 378.768 L 689.724 378.591 Z" style=""/>
  <path class="cls-4" d="M 687.542 378.768 L 689.39 378.965 L 687.719 378.965 L 687.542 378.768 Z M 689.606 378.768 L 687.542 378.768 L 689.39 378.965 L 689.606 378.768 Z" style=""/>
  <path class="cls-5" d="M 687.542 378.768 L 689.39 378.965 L 687.719 378.965 L 687.542 378.768 Z M 689.606 378.768 L 687.542 378.768 L 689.39 378.965 L 689.606 378.768 Z" style=""/>
  <path class="cls-4" d="M 687.719 378.965 L 689.193 379.083 L 687.954 379.083 L 687.719 378.965 Z M 689.37 378.965 L 687.719 378.965 L 689.193 379.083 L 689.37 378.965 Z" style=""/>
  <path class="cls-5" d="M 687.719 378.965 L 689.193 379.083 L 687.954 379.083 L 687.719 378.965 Z M 689.37 378.965 L 687.719 378.965 L 689.193 379.083 L 689.37 378.965 Z" style=""/>
  <path class="cls-4" d="M 687.954 379.063 L 688.938 379.181 L 688.171 379.181 L 687.954 379.063 Z M 689.193 379.063 L 687.954 379.063 L 688.938 379.181 L 689.193 379.063 Z" style=""/>
  <path class="cls-5" d="M 687.954 379.063 L 688.938 379.181 L 688.171 379.181 L 687.954 379.063 Z M 689.193 379.063 L 687.954 379.063 L 688.938 379.181 L 689.193 379.063 Z" style=""/>
  <path class="cls-4" d="M 688.19 379.181 L 688.721 379.24 L 688.407 379.24 L 688.19 379.181 Z M 688.957 379.181 L 688.19 379.181 L 688.721 379.24 L 688.957 379.181 Z" style=""/>
  <path class="cls-5" d="M 688.19 379.181 L 688.721 379.24 L 688.407 379.24 L 688.19 379.181 Z M 688.957 379.181 L 688.19 379.181 L 688.721 379.24 L 688.957 379.181 Z" style=""/>
  <path class="cls-3" d="M 689.96 377.795 C 689.96 376.728 688.805 376.061 687.881 376.594 C 686.957 377.128 686.957 378.462 687.881 378.995 C 688.092 379.117 688.331 379.181 688.574 379.181 C 689.339 379.181 689.96 378.56 689.96 377.795" style=""/>
</svg>