<?xml version="1.0" encoding="utf-8"?>
<svg viewBox="15.36 330.359 326.16 98.04" width="425" height="1026.04" xmlns="http://www.w3.org/2000/svg" style="position:absolute; margin-left: 125px;">
  <clipPath id="SVGID_2_">
    <polyline points="0,459.72 1190.52,459.72 1190.52,0 0,0 0,459.72 &#9;&#9;" transform="matrix(1, 0, 0, 1, 0, 0)" overflow="visible"/>
  </clipPath>
  <line clip-path="url(#SVGID_2_)" fill="none" stroke="#FFFFFF" stroke-width="0.72" stroke-linecap="round" stroke-linejoin="round" stroke-miterlimit="10" x1="25.8" y1="332.76" x2="72.52" y2="332.76"/>
  <line clip-path="url(#SVGID_2_)" fill="none" stroke="#FFFFFF" stroke-width="0.72" stroke-linecap="round" stroke-linejoin="round" stroke-miterlimit="10" x1="15.36" y1="395.279" x2="36.36" y2="395.279"/>
  <line clip-path="url(#SVGID_2_)" fill="none" stroke="#FFFFFF" stroke-width="0.72" stroke-linecap="round" stroke-linejoin="round" stroke-miterlimit="10" x1="15.36" y1="350.399" x2="36.36" y2="350.399"/>
  <line clip-path="url(#SVGID_2_)" fill="none" stroke="#FFFFFF" stroke-width="0.72" stroke-linecap="round" stroke-linejoin="round" stroke-miterlimit="10" x1="25.8" y1="395.279" x2="25.8" y2="405.479"/>
  <line clip-path="url(#SVGID_2_)" fill="none" stroke="#FFFFFF" stroke-width="0.72" stroke-linecap="round" stroke-linejoin="round" stroke-miterlimit="10" x1="25.8" y1="417.6" x2="25.8" y2="428.399"/>
  <polyline clip-path="url(#SVGID_2_)" fill="none" stroke="#FFFFFF" stroke-width="0.72" stroke-linecap="round" stroke-linejoin="round" stroke-miterlimit="10" points="&#10;&#9;&#9;20.16,417.6 31.44,417.6 25.8,405.479 20.16,417.6 &#9;"/>
  <line clip-path="url(#SVGID_2_)" fill="none" stroke="#FFFFFF" stroke-width="0.72" stroke-linecap="round" stroke-linejoin="round" stroke-miterlimit="10" x1="25.8" y1="350.399" x2="25.8" y2="332.76"/>
  <line clip-path="url(#SVGID_2_)" fill="none" stroke="#FFFFFF" stroke-width="0.72" stroke-linecap="round" stroke-linejoin="round" stroke-miterlimit="10" x1="15.36" y1="350.399" x2="22.44" y2="365.64"/>
  <line clip-path="url(#SVGID_2_)" fill="none" stroke="#FFFFFF" stroke-width="0.72" stroke-linecap="round" stroke-linejoin="round" stroke-miterlimit="10" x1="29.16" y1="380.04" x2="36.36" y2="395.279"/>
  <line clip-path="url(#SVGID_2_)" fill="none" stroke="#FFFFFF" stroke-width="0.72" stroke-linecap="round" stroke-linejoin="round" stroke-miterlimit="10" x1="36.36" y1="350.399" x2="29.16" y2="365.64"/>
  <line clip-path="url(#SVGID_2_)" fill="none" stroke="#FFFFFF" stroke-width="0.72" stroke-linecap="round" stroke-linejoin="round" stroke-miterlimit="10" x1="22.44" y1="380.04" x2="15.36" y2="395.279"/>
  <path clip-path="url(#SVGID_6_)" fill="#FFFFFF" stroke="#FFFFFF" stroke-width="0.72" stroke-linecap="round" stroke-linejoin="round" stroke-miterlimit="10" d=" M74.04,332.7c0-1.293-1.048-2.341-2.34-2.341c-1.292,0-2.34,1.048-2.34,2.341c0,1.292,1.048,2.34,2.34,2.34 C72.992,335.04,74.04,333.992,74.04,332.7"/>
</svg>