<?xml version="1.0" encoding="utf-8"?>
<svg viewBox="653.32 375.476 56.64 5.764" width="261" height="11.764" xmlns="http://www.w3.org/2000/svg" style="position:absolute; margin-left: 1177px; margin-top: 430px;">
<defs>
  <style>.cls-1,.cls-3,.cls-5{fill:none;}.cls-2{clip-path:url(#clip-path);}.cls-3,.cls-5{stroke:#fff;stroke-linecap:round;}.cls-3{stroke-linejoin:round;stroke-width:0.72px;}.cls-4,.cls-6{fill:#fff;}.cls-5{stroke-miterlimit:10;stroke-width:0;}.cls-6{font-size:9.59px;font-family:ArialMT, Arial;}</style>
</defs>
<path class="cls-4" d="M 663.338 376.468 L 663.869 376.527 L 663.102 376.527 L 663.338 376.468 Z M 663.633 376.468 L 663.338 376.468 L 663.869 376.527 L 663.633 376.468 Z" style=""/>
<path class="cls-5" d="M 663.338 376.468 L 663.869 376.527 L 663.102 376.527 L 663.338 376.468 Z M 663.633 376.468 L 663.338 376.468 L 663.869 376.527 L 663.633 376.468 Z" style=""/>
<path class="cls-4" d="M 663.122 376.507 L 664.105 376.625 L 662.866 376.625 L 663.122 376.507 Z M 663.888 376.507 L 663.122 376.507 L 664.105 376.625 L 663.888 376.507 Z" style=""/>
<path class="cls-5" d="M 663.122 376.507 L 664.105 376.625 L 662.866 376.625 L 663.122 376.507 Z M 663.888 376.507 L 663.122 376.507 L 664.105 376.625 L 663.888 376.507 Z" style=""/>
<path class="cls-4" d="M 662.886 376.645 L 664.301 376.763 L 662.65 376.763 L 662.886 376.645 Z M 664.124 376.645 L 662.886 376.645 L 664.301 376.763 L 664.124 376.645 Z" style=""/>
<path class="cls-5" d="M 662.886 376.645 L 664.301 376.763 L 662.65 376.763 L 662.886 376.645 Z M 664.124 376.645 L 662.886 376.645 L 664.301 376.763 L 664.124 376.645 Z" style=""/>
<path class="cls-4" d="M 662.65 376.763 L 664.537 376.94 L 662.473 376.94 L 662.65 376.763 Z M 664.301 376.763 L 662.65 376.763 L 664.537 376.94 L 664.301 376.763 Z" style=""/>
<path class="cls-5" d="M 662.65 376.763 L 664.537 376.94 L 662.473 376.94 L 662.65 376.763 Z M 664.301 376.763 L 662.65 376.763 L 664.537 376.94 L 664.301 376.763 Z" style=""/>
<path class="cls-4" d="M 662.473 376.94 L 664.655 377.117 L 662.355 377.117 L 662.473 376.94 Z M 664.537 376.94 L 662.473 376.94 L 664.655 377.117 L 664.537 376.94 Z" style=""/>
<path class="cls-5" d="M 662.473 376.94 L 664.655 377.117 L 662.355 377.117 L 662.473 376.94 Z M 664.537 376.94 L 662.473 376.94 L 664.655 377.117 L 664.537 376.94 Z" style=""/>
<path class="cls-4" d="M 662.355 377.117 L 664.773 377.352 L 662.237 377.352 L 662.355 377.117 Z M 664.655 377.117 L 662.355 377.117 L 664.773 377.352 L 664.655 377.117 Z" style=""/>
<path class="cls-5" d="M 662.355 377.117 L 664.773 377.352 L 662.237 377.352 L 662.355 377.117 Z M 664.655 377.117 L 662.355 377.117 L 664.773 377.352 L 664.655 377.117 Z" style=""/>
<path class="cls-4" d="M 662.237 377.352 L 664.832 377.588 L 662.119 377.588 L 662.237 377.352 Z M 664.773 377.352 L 662.237 377.352 L 664.832 377.588 L 664.773 377.352 Z" style=""/>
<path class="cls-5" d="M 662.237 377.352 L 664.832 377.588 L 662.119 377.588 L 662.237 377.352 Z M 664.773 377.352 L 662.237 377.352 L 664.832 377.588 L 664.773 377.352 Z" style=""/>
<path class="cls-4" d="M 662.119 377.588 L 664.891 377.824 L 662.119 377.824 L 662.119 377.588 Z M 664.832 377.588 L 662.119 377.588 L 664.891 377.824 L 664.832 377.588 Z" style=""/>
<path class="cls-5" d="M 662.119 377.588 L 664.891 377.824 L 662.119 377.824 L 662.119 377.588 Z M 664.832 377.588 L 662.119 377.588 L 664.891 377.824 L 664.832 377.588 Z" style=""/>
<path class="cls-4" d="M 662.119 377.824 L 664.832 378.119 L 662.119 378.119 L 662.119 377.824 Z M 664.891 377.824 L 662.119 377.824 L 664.832 378.119 L 664.891 377.824 Z" style=""/>
<path class="cls-5" d="M 662.119 377.824 L 664.832 378.119 L 662.119 378.119 L 662.119 377.824 Z M 664.891 377.824 L 662.119 377.824 L 664.832 378.119 L 664.891 377.824 Z" style=""/>
<path class="cls-4" d="M 662.119 378.119 L 664.773 378.355 L 662.237 378.355 L 662.119 378.119 Z M 664.832 378.119 L 662.119 378.119 L 664.773 378.355 L 664.832 378.119 Z" style=""/>
<path class="cls-5" d="M 662.119 378.119 L 664.773 378.355 L 662.237 378.355 L 662.119 378.119 Z M 664.832 378.119 L 662.119 378.119 L 664.773 378.355 L 664.832 378.119 Z" style=""/>
<path class="cls-4" d="M 662.237 378.355 L 664.655 378.591 L 662.355 378.591 L 662.237 378.355 Z M 664.773 378.355 L 662.237 378.355 L 664.655 378.591 L 664.773 378.355 Z" style=""/>
<path class="cls-5" d="M 662.237 378.355 L 664.655 378.591 L 662.355 378.591 L 662.237 378.355 Z M 664.773 378.355 L 662.237 378.355 L 664.655 378.591 L 664.773 378.355 Z" style=""/>
<path class="cls-4" d="M 662.355 378.591 L 664.537 378.768 L 662.473 378.768 L 662.355 378.591 Z M 664.655 378.591 L 662.355 378.591 L 664.537 378.768 L 664.655 378.591 Z" style=""/>
<path class="cls-5" d="M 662.355 378.591 L 664.537 378.768 L 662.473 378.768 L 662.355 378.591 Z M 664.655 378.591 L 662.355 378.591 L 664.537 378.768 L 664.655 378.591 Z" style=""/>
<path class="cls-4" d="M 662.473 378.768 L 664.321 378.965 L 662.65 378.965 L 662.473 378.768 Z M 664.537 378.768 L 662.473 378.768 L 664.321 378.965 L 664.537 378.768 Z" style=""/>
<path class="cls-5" d="M 662.473 378.768 L 664.321 378.965 L 662.65 378.965 L 662.473 378.768 Z M 664.537 378.768 L 662.473 378.768 L 664.321 378.965 L 664.537 378.768 Z" style=""/>
<path class="cls-4" d="M 662.65 378.965 L 664.124 379.083 L 662.886 379.083 L 662.65 378.965 Z M 664.301 378.965 L 662.65 378.965 L 664.124 379.083 L 664.301 378.965 Z" style=""/>
<path class="cls-5" d="M 662.65 378.965 L 664.124 379.083 L 662.886 379.083 L 662.65 378.965 Z M 664.301 378.965 L 662.65 378.965 L 664.124 379.083 L 664.301 378.965 Z" style=""/>
<path class="cls-4" d="M 662.886 379.063 L 663.869 379.181 L 663.102 379.181 L 662.886 379.063 Z M 664.124 379.063 L 662.886 379.063 L 663.869 379.181 L 664.124 379.063 Z" style=""/>
<path class="cls-5" d="M 662.886 379.063 L 663.869 379.181 L 663.102 379.181 L 662.886 379.063 Z M 664.124 379.063 L 662.886 379.063 L 663.869 379.181 L 664.124 379.063 Z" style=""/>
<path class="cls-4" d="M 663.122 379.181 L 663.652 379.24 L 663.338 379.24 L 663.122 379.181 Z M 663.888 379.181 L 663.122 379.181 L 663.652 379.24 L 663.888 379.181 Z" style=""/>
<path class="cls-5" d="M 663.122 379.181 L 663.652 379.24 L 663.338 379.24 L 663.122 379.181 Z M 663.888 379.181 L 663.122 379.181 L 663.652 379.24 L 663.888 379.181 Z" style=""/>
<path class="cls-3" d="M 664.891 377.795 C 664.891 376.728 663.736 376.061 662.812 376.594 C 661.888 377.128 661.888 378.462 662.812 378.995 C 663.023 379.117 663.262 379.181 663.505 379.181 C 664.27 379.181 664.891 378.56 664.891 377.795" style=""/>
</svg>