<?xml version="1.0" encoding="utf-8"?>
<svg viewBox="435.6 330.359 744.48 98.04" width="970.48" height="1026.04" xmlns="http://www.w3.org/2000/svg" style="position: absolute; margin-left: 854px;">
  <clipPath id="SVGID_2_">
    <polyline points="0,459.72 1190.52,459.72 1190.52,0 0,0 0,459.72 &#9;&#9;" transform="matrix(1, 0, 0, 1, 0, 0)" overflow="visible"/>
  </clipPath>
  <line clip-path="url(#SVGID_2_)" fill="none" stroke="#FFFFFF" stroke-width="0.72" stroke-linecap="round" stroke-linejoin="round" stroke-miterlimit="10" x1="435.6" y1="332.76" x2="1169.52" y2="332.76"/>
  <line clip-path="url(#SVGID_2_)" fill="none" stroke="#FFFFFF" stroke-width="0.72" stroke-linecap="round" stroke-linejoin="round" stroke-miterlimit="10" x1="1113.24" y1="395.279" x2="1134.24" y2="395.279"/>
  <line clip-path="url(#SVGID_2_)" fill="none" stroke="#FFFFFF" stroke-width="0.72" stroke-linecap="round" stroke-linejoin="round" stroke-miterlimit="10" x1="1113.24" y1="350.399" x2="1134.24" y2="350.399"/>
  <line clip-path="url(#SVGID_2_)" fill="none" stroke="#FFFFFF" stroke-width="0.72" stroke-linecap="round" stroke-linejoin="round" stroke-miterlimit="10" x1="1123.68" y1="395.279" x2="1123.68" y2="405.479"/>
  <line clip-path="url(#SVGID_2_)" fill="none" stroke="#FFFFFF" stroke-width="0.72" stroke-linecap="round" stroke-linejoin="round" stroke-miterlimit="10" x1="1123.68" y1="417.6" x2="1123.68" y2="428.399"/>
  <polyline clip-path="url(#SVGID_2_)" fill="none" stroke="#FFFFFF" stroke-width="0.72" stroke-linecap="round" stroke-linejoin="round" stroke-miterlimit="10" points="&#10;&#9;&#9;1118.04,417.6 1129.439,417.6 1123.68,405.479 1118.04,417.6 &#9;"/>
  <line clip-path="url(#SVGID_2_)" fill="none" stroke="#FFFFFF" stroke-width="0.72" stroke-linecap="round" stroke-linejoin="round" stroke-miterlimit="10" x1="1123.68" y1="350.399" x2="1123.68" y2="332.76"/>
  <line clip-path="url(#SVGID_2_)" fill="none" stroke="#FFFFFF" stroke-width="0.72" stroke-linecap="round" stroke-linejoin="round" stroke-miterlimit="10" x1="1159.08" y1="395.279" x2="1180.08" y2="395.279"/>
  <line clip-path="url(#SVGID_2_)" fill="none" stroke="#FFFFFF" stroke-width="0.72" stroke-linecap="round" stroke-linejoin="round" stroke-miterlimit="10" x1="1159.08" y1="350.399" x2="1180.08" y2="350.399"/>
  <line clip-path="url(#SVGID_2_)" fill="none" stroke="#FFFFFF" stroke-width="0.72" stroke-linecap="round" stroke-linejoin="round" stroke-miterlimit="10" x1="1169.52" y1="395.279" x2="1169.52" y2="405.479"/>
  <line clip-path="url(#SVGID_2_)" fill="none" stroke="#FFFFFF" stroke-width="0.72" stroke-linecap="round" stroke-linejoin="round" stroke-miterlimit="10" x1="1169.52" y1="417.6" x2="1169.52" y2="428.399"/>
  <polyline clip-path="url(#SVGID_2_)" fill="none" stroke="#FFFFFF" stroke-width="0.72" stroke-linecap="round" stroke-linejoin="round" stroke-miterlimit="10" points="&#10;&#9;&#9;1163.88,417.6 1175.28,417.6 1169.52,405.479 1163.88,417.6 &#9;"/>
  <line clip-path="url(#SVGID_2_)" fill="none" stroke="#FFFFFF" stroke-width="0.72" stroke-linecap="round" stroke-linejoin="round" stroke-miterlimit="10" x1="1169.52" y1="350.399" x2="1169.52" y2="332.76"/>
  <line clip-path="url(#SVGID_2_)" fill="none" stroke="#FFFFFF" stroke-width="0.72" stroke-linecap="round" stroke-linejoin="round" stroke-miterlimit="10" x1="1113.24" y1="350.399" x2="1120.32" y2="365.64"/>
  <line clip-path="url(#SVGID_2_)" fill="none" stroke="#FFFFFF" stroke-width="0.72" stroke-linecap="round" stroke-linejoin="round" stroke-miterlimit="10" x1="1127.16" y1="380.04" x2="1134.24" y2="395.279"/>
  <line clip-path="url(#SVGID_2_)" fill="none" stroke="#FFFFFF" stroke-width="0.72" stroke-linecap="round" stroke-linejoin="round" stroke-miterlimit="10" x1="1134.24" y1="350.399" x2="1127.16" y2="365.64"/>
  <line clip-path="url(#SVGID_2_)" fill="none" stroke="#FFFFFF" stroke-width="0.72" stroke-linecap="round" stroke-linejoin="round" stroke-miterlimit="10" x1="1120.32" y1="380.04" x2="1113.24" y2="395.279"/>
  <line clip-path="url(#SVGID_2_)" fill="none" stroke="#FFFFFF" stroke-width="0.72" stroke-linecap="round" stroke-linejoin="round" stroke-miterlimit="10" x1="1159.08" y1="350.399" x2="1166.16" y2="365.64"/>
  <line clip-path="url(#SVGID_2_)" fill="none" stroke="#FFFFFF" stroke-width="0.72" stroke-linecap="round" stroke-linejoin="round" stroke-miterlimit="10" x1="1173" y1="380.04" x2="1180.08" y2="395.279"/>
  <line clip-path="url(#SVGID_2_)" fill="none" stroke="#FFFFFF" stroke-width="0.72" stroke-linecap="round" stroke-linejoin="round" stroke-miterlimit="10" x1="1180.08" y1="350.399" x2="1173" y2="365.64"/>
  <line clip-path="url(#SVGID_2_)" fill="none" stroke="#FFFFFF" stroke-width="0.72" stroke-linecap="round" stroke-linejoin="round" stroke-miterlimit="10" x1="1166.16" y1="380.04" x2="1159.08" y2="395.279"/>
  <path clip-path="url(#SVGID_6_)" fill="#FFFFFF" stroke="#FFFFFF" stroke-width="0.72" stroke-linecap="round" stroke-linejoin="round" stroke-miterlimit="10" d=" M1080.24,332.7c0-1.293-1.048-2.341-2.34-2.341c-1.293,0-2.341,1.048-2.341,2.341c0,1.292,1.048,2.34,2.341,2.34 C1079.192,335.04,1080.24,333.992,1080.24,332.7"/>
  <path clip-path="url(#SVGID_6_)" fill="#FFFFFF" stroke="#FFFFFF" stroke-width="0.72" stroke-linecap="round" stroke-linejoin="round" stroke-miterlimit="10" d=" M1126.08,332.7c0-1.293-1.048-2.341-2.34-2.341c-1.293,0-2.34,1.048-2.34,2.341c0,1.292,1.047,2.34,2.34,2.34 C1125.032,335.04,1126.08,333.992,1126.08,332.7"/>
</svg>