<svg version="1.2" xmlns="http://www.w3.org/2000/svg" viewBox="0 400 1920 380" height="300" width="900">

	<path id="Forma 1" style="fill: #6d92ab" d="m57.1 334.6l-0.2-3 96.3-5 0.1 3z"/>
	<path id="Forma 2" style="fill: #6d92ab" d="m152.5 329.4l-0.2-3 113-4.7 0.1 3z"/>
	<path id="Forma 3" style="fill: #6d92ab" d="m265.4 324.7l-0.1-3 50.9-1.7 0.1 3z"/>
	<path id="Forma 4" style="fill: #6d92ab" d="m316 322.8l-0.1-3 116.7-4.5 0.2 3z"/>
	<path id="Forma 5" style="fill: #6d92ab" d="m432.7 318.3v-3l79-1.9 0.1 3z"/>
	<path id="Forma 6" style="fill: #6d92ab" d="m511.3 316.2l-0.1-3 111.4-1.1v3z"/>
	<path id="Forma 7" style="fill: #6d92ab" d="m622.6 315.1v-3l109.7 0.7v3z"/>
	<path id="Forma 8" style="fill: #6d92ab" d="m732.3 315.8v-3l108.8 2.1-0.1 3z"/>
	<path id="Forma 9" style="fill: #6d92ab" d="m841 317.9l0.1-3 69.7 3.9-0.1 2.9z"/>
	<path id="Forma 10" style="fill: #6d92ab" d="m910.5 321.6l0.2-3 170.3 14.1-0.2 2.9z"/>
	<path id="Forma 11" style="fill: #6d92ab" d="m1079.6 335.6l0.4-2.9 92 12-0.4 2.9z"/>
	<path id="Forma 12" style="fill: #6d92ab" d="m1171.5 347.6l0.5-2.9 99.6 16.3-0.5 3z"/>
	<path id="Forma 13" style="fill: #6d92ab" d="m1271 363.9l0.6-2.9 87.8 17.6-0.6 2.9z"/>
	<path id="Forma 14" style="fill: #6d92ab" d="m1357.9 381.1l0.6-2.9 84.8 19.1-0.6 3z"/>
	<path id="Forma 15" style="fill: #6d92ab" d="m1442.3 400.3l0.7-3 78.2 19.2-0.7 2.9z"/>
	<path id="Forma 16" style="fill: #6d92ab" d="m1519.3 418.8l0.7-2.9 79.5 21.1-0.8 2.9z"/>
	<path id="Forma 17" style="fill: #6d92ab" d="m1598.7 439.9l0.8-2.9 95.2 25.7-0.8 2.9z"/>
	<path id="Forma 18" style="fill: #6d92ab" d="m1693.4 465.2l0.8-2.9 110.3 31.7-0.8 2.9z"/>
	<path id="Forma 19" style="fill: #6d92ab" d="m1803.7 496.8l0.9-2.8 55.7 16.8-0.8 2.9z"/>
	<path id="Forma 20" style="fill: #6d92ab" d="m1858.6 512.9l2.6-1.6 2.3 3.9-2.6 1.5z"/>
	<path id="Forma 21" style="fill: #6d92ab" d="m1860.7 516l3-0.1 0.1 8h-3z"/>
	<path id="Forma 22" style="fill: #6d92ab" d="m1861.3 522.8l2 2.2-4.3 3.9-2-2.3z"/>
	<path id="Forma 23" style="fill: #6d92ab" d="m1858.3 525.4l0.8 2.9-67.1 19.5-0.8-2.9z"/>
	<path id="Forma 24" style="fill: #6d92ab" d="m1792.4 544.5l0.8 2.9-113.4 32.2-0.9-2.9z"/>
	<path id="Forma 25" style="fill: #6d92ab" d="m1680.2 577l0.8 2.9-135.2 36-0.8-2.9z"/>
	<path id="Forma 26" style="fill: #6d92ab" d="m1546.2 613l0.7 2.9-121.6 29.2-0.7-2.9z"/>
	<path id="Forma 27" style="fill: #6d92ab" d="m1425.7 642l0.6 2.9-78.2 17.4-0.6-2.9z"/>
	<path id="Forma 28" style="fill: #6d92ab" d="m1347.5 659.4l0.6 2.9-84.3 16.4-0.6-3z"/>
	<path id="Forma 29" style="fill: #6d92ab" d="m1264.7 675.4l0.4 2.9-99.7 16.7-0.5-3z"/>
	<path id="Forma 30" style="fill: #6d92ab" d="m1165.5 691.9l0.4 2.9-78.2 10.1-0.4-3z"/>
	<path id="Forma 31" style="fill: #6d92ab" d="m1088.4 701.4l0.3 3-79.1 8.3-0.3-3z"/>
	<path id="Forma 32" style="fill: #6d92ab" d="m1009.3 709.7l0.3 3-79.6 5.9-0.2-2.9z"/>
	<path id="Forma 33" style="fill: #6d92ab" d="m932 715.8l0.2 3-84.8 4.4-0.2-3z"/>
	<path id="Forma 34" style="fill: #6d92ab" d="m849.7 720.3l0.1 3-95.8 2.5v-3z"/>
	<path id="Forma 35" style="fill: #6d92ab" d="m756.1 723.3v3l-99.9 0.3v-3z"/>
	<path id="Forma 36" style="fill: #6d92ab" d="m657.7 724v3l-83-0.5v-3z"/>
	<path id="Forma 37" style="fill: #6d92ab" d="m576.1 724l-0.1 3-92.4-2.1v-3z"/>
	<path id="Forma 38" style="fill: #6d92ab" d="m483.5 721.9l-0.1 3-117.1-3.5 0.1-3z"/>
	<path id="Forma 39" style="fill: #6d92ab" d="m368.5 718.4l-0.2 3-126.1-5.5 0.1-3z"/>
	<path id="Forma 40" style="fill: #6d92ab" d="m244.2 713l-0.1 3-100.6-3.8 0.1-3z"/>
	<path id="Forma 41" style="fill: #6d92ab" d="m145 709.4l-0.2 3-90.7-5.2 0.2-3z"/>
	<path id="Forma 42" style="fill: #6d92ab" d="m56.6 704.9l-1.6 2.6-7.3-4.7 1.6-2.6z"/>
	<path id="Forma 43" style="fill: #6d92ab" d="m49.5 700.4l-2 2.2-6.1-5.4 2-2.2z"/>
	<path id="Forma 44" style="fill: #6d92ab" d="m43.5 695.3l-2.5 1.7-3.7-5.2 2.5-1.8z"/>
	<path id="Forma 45" style="fill: #6d92ab" d="m39.7 690.2l-2.6 1.4-3.9-7.7 2.7-1.3z"/>
	<path id="Forma 46" style="fill: #6d92ab" d="m36 682.7l-2.8 1.1-3.1-7.8 2.7-1.1z"/>
	<path id="Forma 47" style="fill: #6d92ab" d="m32.9 675.1l-2.9 0.7-1.7-6.6 2.9-0.7z"/>
	<path id="Forma 48" style="fill: #6d92ab" d="m30.5 669l-2.9 0.7-4.2-19 2.9-0.6z"/>
	<path id="Forma 49" style="fill: #6d92ab" d="m26.3 650.2l-2.9 0.4-2.1-14 2.9-0.5z"/>
	<path id="Forma 50" style="fill: #6d92ab" d="m24.3 636l-3 0.3-2.6-27.8 3-0.3z"/>
	<path id="Forma 51" style="fill: #6d92ab" d="m21.3 608.5l-3 0.1-1.9-90.9 3-0.1z"/>
	<path id="Forma 52" style="fill: #6d92ab" d="m19.4 518.5h-3l1.4-89.5 3 0.1z"/>
	<path id="Forma 53" style="fill: #6d92ab" d="m20.4 429.8l-2.9-0.5 5.2-37.7 2.9 0.4z"/>
	<path id="Forma 54" style="fill: #6d92ab" d="m25.6 392.2l-2.9-0.7 8.2-30.8 2.9 0.8z"/>
	<path id="Forma 55" style="fill: #6d92ab" d="m33.7 361.7l-2.7-1.3 6.2-13.2 2.7 1.3z"/>
	<path id="Forma 56" style="fill: #6d92ab" d="m39.6 349l-2.1-2.2 7.5-7.1 2.1 2.1z"/>
	<path id="Forma 57" style="fill: #6d92ab" d="m46.7 342l-1.7-2.5 6.3-4.3 1.7 2.4z"/>
	<path id="Forma 58" style="fill: #6d92ab" d="m52.9 337.7l-1.5-2.6 6.7-4 1.6 2.6z"/>
	<path id="Forma 59" style="fill: #6d92ab" d="m383 425.2l0.1-3 112.2 0.7v3z"/>
	<path id="Forma 60" style="fill: #6d92ab" d="m491.9 422.9h3l0.2 68.3h-3z"/>
	<path id="Forma 61" style="fill: #6d92ab" d="m493.9 488.8v3h-111.9v-3z"/>
	<path id="Forma 62" style="fill: #6d92ab" d="m385.2 490.5h-3l-0.5-68.1h3z"/>
	<path id="Forma 63" style="fill: #6d92ab" d="m382.2 547.3h3l-0.3 67.6-3-0.1z"/>
	<path id="Forma 64" style="fill: #6d92ab" d="m383.6 616.3v-3l110.8-0.3v3z"/>
	<path id="Forma 65" style="fill: #6d92ab" d="m495.4 614.7h-3v-67.1h3z"/>
	<path id="Forma 66" style="fill: #6d92ab" d="m382.9 549.3v-3h112v3z"/>
	<path id="Forma 67" style="fill: #6d92ab" d="m382.7 500.7v-3h112.3v3z"/>
	<path id="Forma 68" style="fill: #6d92ab" d="m492.5 498h3v42h-3z"/>
	<path id="Forma 69" style="fill: #6d92ab" d="m495.1 537.3v3h-112.1v-3z"/>
	<path id="Forma 70" style="fill: #6d92ab" d="m385.5 539.4h-3v-41.4h3z"/>
	<path id="Forma 71" style="fill: #6d92ab" d="m624.2 384.5v-3h124.4v3z"/>
	<path id="Forma 72" style="fill: #6d92ab" d="m746.8 381.6h3v110.3h-3z"/>
	<path id="Forma 73" style="fill: #6d92ab" d="m750 490.1v3h-125.2v-3z"/>
	<path id="Forma 74" style="fill: #6d92ab" d="m627.2 492.3h-3v-111h3z"/>
	<path id="Forma 75" style="fill: #6d92ab" d="m752.3 384.4v-3h39v3z"/>
	<path id="Forma 76" style="fill: #6d92ab" d="m789.5 381.3h3v110.1h-3z"/>
	<path id="Forma 77" style="fill: #6d92ab" d="m792.9 489.4v3h-41.1v-3z"/>
	<path id="Forma 78" style="fill: #6d92ab" d="m754.5 490.7h-3v-109h3z"/>
	<path id="Forma 79" style="fill: #6d92ab" d="m624.9 548.8v-3h124.9v3z"/>
	<path id="Forma 80" style="fill: #6d92ab" d="m747.5 546.4h3v109.4h-3z"/>
	<path id="Forma 81" style="fill: #6d92ab" d="m750.3 653.9v3h-125.6v-3z"/>
	<path id="Forma 82" style="fill: #6d92ab" d="m626.7 655.4h-3v-109.2h3z"/>
	<path id="Forma 83" style="fill: #6d92ab" d="m752.3 548.8v-3h38.7v3z"/>
	<path id="Forma 84" style="fill: #6d92ab" d="m788.9 546.2h3v109.3h-3z"/>
	<path id="Forma 85" style="fill: #6d92ab" d="m791.5 653.5v3h-39.2v-3z"/>
	<path id="Forma 86" style="fill: #6d92ab" d="m754.7 655.6h-3v-109.4h3z"/>
	<path id="Forma 95" style="fill: #6d92ab" d="m798.9 493.6v-3h324.8v3z"/>
	<g id="Stbd AdBlue" onclick="tanks.tankHighlight('#adBlueTank', 1, $(this))">
		<path id="Forma 169" style="fill: #2e485a" d="m1263 645v8h-167v-8z"/>
		<path id="Forma 170" style="fill: #2e485a" d="m1191 652v13h-95v-13z"/>
		<path id="Forma 171" style="fill: #2e485a" d="m1153 664v7h-57v-7z"/>
		<path id="Forma 172" style="fill: #2e485a" d="m1215 653v8h-29v-8z"/>
		<path id="Forma 173" style="fill: #2e485a" d="m1239 653v4h-26v-4z"/>
		<path id="Forma 174" style="fill: #2e485a" d="m1251 653v2h-14v-2z"/>
		<path id="Forma 175" style="fill: #2e485a" d="m1257 652v2h-9v-2z"/>
		<path id="Forma 176" style="fill: #2e485a" d="m1244 655v1h-6v-1z"/>
		<path id="Forma 177" style="fill: #2e485a" d="m1231 657v1h-17v-1z"/>
		<path id="Forma 178" style="fill: #2e485a" d="m1202 660v3h-14v-3z"/>
		<path id="Forma 179" style="fill: #2e485a" d="m1207 660v2h-7v-2z"/>
		<path id="Forma 180" style="fill: #2e485a" d="m1219 657v3h-5v-3z"/>
		<path id="Forma 181" style="fill: #2e485a" d="m1227 656v3h-9v-3z"/>
		<path id="Forma 182" style="fill: #2e485a" d="m1175 664v3h-25v-3z"/>
		<path id="Forma 183" style="fill: #2e485a" d="m1183 663v4h-14v-4z"/>
		<path id="Forma 184" style="fill: #2e485a" d="m1163 665v5h-15v-5z"/>
		<path id="Forma 185" style="fill: #2e485a" d="m1171 666v2h-12v-2z"/>
		<path id="Forma 186" style="fill: #2e485a" d="m1121 665v11h-25v-11z"/>
		<path id="Forma 187" style="fill: #2e485a" d="m1127 670v5h-7v-5z"/>
		<path id="Forma 188" style="fill: #2e485a" d="m1134 668v7h-8v-7z"/>
		<path id="Forma 189" style="fill: #2e485a" d="m1141 668v5h-13v-5z"/>
		<path id="Forma 190" style="fill: #2e485a" d="m1146 667v5h-13v-5z"/>
		<path id="Forma 191" style="fill: #2e485a" d="m1115 671v6h-19v-6z"/>
		<path id="Forma 192" style="fill: #2e485a" d="m1109 666v12h-10v-12z"/>
		<path id="Forma 193" style="fill: #2e485a" d="m1103 659v20h-7v-20z"/>
	</g>
	<path id="Forma 96" style="fill: #6d92ab" d="m1122.2 490.5h3v54.5h-3z"/>
	<path id="Forma 97" style="fill: #6d92ab" d="m1125.2 543.8v3h-327.2v-3z"/>
	<path id="Forma 98" style="fill: #6d92ab" d="m801.1 545.9h-3v-55.4h3z"/>
	<path id="Forma 99" style="fill: #6d92ab" d="m1096.3 682.5h-3v-37.4h3z"/>
	<path id="Forma 100" style="fill: #6d92ab" d="m1093.4 645v-3h171.8v3z"/>
	<path id="Forma 101" style="fill: #6d92ab" d="m1262.9 642h3v13.7h-3z"/>
	<path id="Forma 102" style="fill: #6d92ab" d="m1265.2 652.3l0.4 3-172.4 27.8-0.5-3z"/>
	<path id="Forma 103" style="fill: #6d92ab" d="m1094.1 394.5v-3h171.9v3z"/>
	<path id="Forma 104" style="fill: #6d92ab" d="m1267.4 394.3h-3v-11.3h3z"/>
	<path id="Forma 105" style="fill: #6d92ab" d="m1095.5 394.6h-3v-37.8h3z"/>
	<path id="Forma 106" style="fill: #6d92ab" d="m1092.6 358.4l0.4-3 174.6 27.4-0.5 3z"/>
	<path id="Forma 107" style="fill: #6d92ab" d="m1094 398.4v-3h54.5v3z"/>
	<path id="Forma 108" style="fill: #6d92ab" d="m1145.9 396.6h3v26.5h-3z"/>
	<path id="Forma 109" style="fill: #6d92ab" d="m1148 421v3h-54v-3z"/>
	<path id="Forma 110" style="fill: #6d92ab" d="m1096.1 423h-3v-27.1h3z"/>
	<path id="Forma 111" style="fill: #6d92ab" d="m1150.3 398.4v-3h52.7v3z"/>
	<path id="Forma 112" style="fill: #6d92ab" d="m1201.4 395.4h3v27.3h-3z"/>
	<path id="Forma 113" style="fill: #6d92ab" d="m1149.8 396h3v27.8h-3z"/>
	<path id="Forma 114" style="fill: #6d92ab" d="m1151.5 424.5v-3h52.7v3z"/>
	<path id="Forma 115" style="fill: #6d92ab" d="m1412.3 494v-3h88.8v3z"/>
	<path id="Forma 116" style="fill: #6d92ab" d="m1499.3 491.4h3v54.7h-3z"/>
	<path id="Forma 117" style="fill: #6d92ab" d="m1410.3 491.2h3v55.2h-3z"/>
	<path id="Forma 118" style="fill: #6d92ab" d="m1410.5 546.9v-3h92v3z"/>
	<path id="Forma 168" style="fill: #6d92ab" d="m1267.1 547.3h3l0.3 57.6-3 0.1z"/>
	<path id="Forma 119" style="fill: #6d92ab" d="m1268.3 436.1v-3h89.7v3z"/>
	<path id="Forma 120" style="fill: #6d92ab" d="m1356.2 433.2h3v57.7h-3z"/>
	<path id="Forma 121" style="fill: #6d92ab" d="m1359.4 489.4v3h-91.3v-3z"/>
	<path id="Forma 122" style="fill: #6d92ab" d="m1269.7 490.6h-3v-57.4h3z"/>
	<path id="Forma 123" style="fill: #6d92ab" d="m1267.9 549.8v-3h90.4v3z"/>
	<path id="Forma 124" style="fill: #6d92ab" d="m1355.8 547.5h3v55.9h-3z"/>
	<path id="Forma 125" style="fill: #6d92ab" d="m1358.4 601.9v3h-90.2v-3z"/>
	<g id="Aft port water tank">
		<path id="Forma 194" style="fill: none" d="m492 425v64h-107v-64z"/>
	</g>
	<g id="Ecomar sewage system">
		<path id="Forma 206" style="fill: none" d="m1258 616v22h-32v-22z"/>
	</g>
	<g id="Chiller unit 1">
		<path id="Forma 207" style="fill: none" d="m1262 578v16h-33v-16z"/>
	</g>
	<g id="Chiller unit 2">
		<path id="Forma 208" style="fill: none" d="m1262 557v14h-33v-14z"/>
	</g>
	<g id="Fwd  port water tank">
		<path id="Forma 209" style="fill: none" d="m1356 436v53h-86v-53z"/>
	</g>
	<g id="Fwd stbd water tank">
		<path id="Forma 210" style="fill: none" d="m1356 550v52h-86v-52z"/>
	</g>
	<g id="Fwd Black Water">
		<path id="Forma 211" style="fill: none" d="m1499 494v50h-86v-50z"/>
	</g>
	<path id="Forma 195" style="fill: #6d92ab" d="m1222.8 615.8v-3h36.8v3z"/>
	<path id="Forma 196" style="fill: #6d92ab" d="m1258.3 612.9h3v27.9h-3z"/>
	<path id="Forma 197" style="fill: #6d92ab" d="m1261.1 637.9v3h-38.5v-3z"/>
	<path id="Forma 198" style="fill: #6d92ab" d="m1225.7 639.6h-3v-26.3h3z"/>
	<path id="Forma 199" style="fill: #6d92ab" d="m1226.9 578.4v-3h37.7v3zm34.9-3h3v21.3h-3z"/>
	<path id="Forma 200" style="fill: #6d92ab" d="m1264.4 593.8v3h-38v-3z"/>
	<path id="Forma 201" style="fill: #6d92ab" d="m1229.1 595.6h-3v-20.4h3z"/>
	<path id="Forma 202" style="fill: #6d92ab" d="m1262.1 554.9h3v18.9h-3z"/>
	<path id="Forma 203" style="fill: #6d92ab" d="m1264.3 571.2v3h-37.9v-3z"/>
	<path id="Forma 204" style="fill: #6d92ab" d="m1228.7 572.7h-3v-17.8h3z"/>
	<path id="Forma 205" style="fill: #6d92ab" d="m1226.4 556.8v-3h38.5v3z"/>
	<g id="Aft port fuel" onclick="tanks.tankHighlight('#fuelTank', 0, $(this))">
		<path id="Forma 130" style="fill: #2e485a" d="m747 385v105h-120v-105z"/>
	</g>
	<g id="Aft stbd fuel" onclick="tanks.tankHighlight('#fuelTank', 1, $(this))">
		<path id="Forma 132" style="fill: #2e485a" d="m748 549v105h-120v-105z"/>
	</g>
	<g id="Aft port fuel day tank" onclick="tanks.tankHighlight('#fuelTank', 2, $(this))">
		<path id="Forma 131" style="fill: #2e485a" d="m789 385v104h-35v-104z"/>
	</g>
	<g id="Aft stbd fuel day tank" onclick="tanks.tankHighlight('#fuelTank', 3, $(this))">
		<path id="Forma 133" style="fill: #2e485a" d="m789 550v104h-34v-104z"/>
	</g>
	<g id="Keel fuel tank" onclick="tanks.tankHighlight('#fuelTank', 4, $(this))">
		<path id="Forma 134" style="fill: #2e485a" d="m1122 494v50h-321v-50z"/>
	</g>
	<g id="WaterMakers">
		<path id="Forma 135" style="fill: none" d="m1146 398v23h-50v-23z"/>
	</g>
	<g id="WaterSystems">
		<path id="Forma 136" style="fill: none" d="m1201 398v23h-48v-23z"/>
	</g>
	<g id="Port  AdBlue" onclick="tanks.tankHighlight('#adBlueTank', 0, $(this))">
		<path id="Forma 137" style="fill: #2e485a" d="m1264 385v7h-169v-7z"/>
		<path id="Forma 138" style="fill: #2e485a" d="m1118 362v24h-23v-24z"/>
		<path id="Forma 139" style="fill: #2e485a" d="m1155 368v19h-41v-19z"/>
		<path id="Forma 140" style="fill: #2e485a" d="m1181 372v15h-29v-15z"/>
		<path id="Forma 141" style="fill: #2e485a" d="m1213 377v9h-35v-9z"/>
		<path id="Forma 142" style="fill: #2e485a" d="m1233 380v8h-25v-8z"/>
		<path id="Forma 143" style="fill: #2e485a" d="m1246 383v7h-18v-7z"/>
		<path id="Forma 144" style="fill: #2e485a" d="m1220 378v2h-10v-2z"/>
		<path id="Forma 145" style="fill: #2e485a" d="m1227 379v5h-9v-5z"/>
		<path id="Forma 146" style="fill: #2e485a" d="m1238 382v5h-7v-5z"/>
		<path id="Forma 147" style="fill: #2e485a" d="m1245 382v6h-16v-6z"/>
		<path id="Forma 149" style="fill: #2e485a" d="m1256 383v5h-13v-5z"/>
		<path id="Forma 166" style="fill: #2e485a" d="m1239 381v2h-9v-2z"/>
		<path id="Forma 150" style="fill: #2e485a" d="m1261 384v4h-24v-4z"/>
		<path id="Forma 151" style="fill: #2e485a" d="m1210 376v5h-32v-5z"/>
		<path id="Forma 152" style="fill: #2e485a" d="m1198 374v11h-21v-11z"/>
		<path id="Forma 153" style="fill: #2e485a" d="m1203 375v6h-8v-6z"/>
		<path id="Forma 154" style="fill: #2e485a" d="m1189 373v5h-12v-5z"/>
		<path id="Forma 155" style="fill: #2e485a" d="m1174 371v3h-21v-3z"/>
		<path id="Forma 156" style="fill: #2e485a" d="m1144 366v5h-30v-5z"/>
		<path id="Forma 157" style="fill: #2e485a" d="m1112 361v5h-17v-5z"/>
		<path id="Forma 158" style="fill: #2e485a" d="m1104 360v11h-9v-11z"/>
		<path id="Forma 159" style="fill: #2e485a" d="m1100 359v18h-5v-18z"/>
		<path id="Forma 160" style="fill: #2e485a" d="m1124 363v9h-8v-9z"/>
		<path id="Forma 161" style="fill: #2e485a" d="m1132 364v10h-9v-10z"/>
		<path id="Forma 162" style="fill: #2e485a" d="m1138 365v7h-7v-7z"/>
		<path id="Forma 163" style="fill: #2e485a" d="m1149 367v6h-6v-6z"/>
		<path id="Forma 164" style="fill: #2e485a" d="m1167 370v6h-16v-6z"/>
		<path id="Forma 167" style="fill: #2e485a" d="m1164 369v1h-10v-1z"/>
	</g>
	<g id="Aft black water">
		<path id="Forma 129" style="fill: none" d="m493 501v36h-108v-36z"/>
	</g>
	<g id="Aft stbd water tank">
		<path id="Forma 128" style="fill: none" d="m492 550v63h-107v-63z"/>
	</g>
</svg>