<?xml version="1.0" encoding="utf-8"?>
<!-- Generator: Adobe Illustrator 15.0.0, SVG Export Plug-In . SVG Version: 6.00 Build 0)  -->
<!DOCTYPE svg PUBLIC "-//W3C//DTD SVG 1.1//EN" "http://www.w3.org/Graphics/SVG/1.1/DTD/svg11.dtd">
<svg version="1.1" id="TankObjects" xmlns="http://www.w3.org/2000/svg" xmlns:xlink="http://www.w3.org/1999/xlink" x="0px"
	 y="0px" width="885px" height="191px" viewBox="0 0 885 191" enable-background="new 0 0 885 191" xml:space="preserve">

	<line id="LD10_x5F_05" class="tank"  x1="346.985" y1="95.499" x2="339.651" y2="95.499"/>
	<line id="LD08_x5F_10" class="tank"  x1="339.746" y1="75.116" x2="339.746" y2="95.499"/>
	<g id="Tanque07">
		<line class="tank"  x1="325.125" y1="141.7" x2="325.125" y2="158.748"/>
		<polyline class="tank"  points="368.987,158.748 368.987,141.7 325.125,141.7"/>
		<line class="tank"  x1="368.987" y1="158.748" x2="325.125" y2="158.748"/>
	</g>
	<g id="Tanque06">
		<line class="tank"  x1="325.125" y1="32.251" x2="368.987" y2="31.634"/>
		<polyline class="tank"  points="325.125,32.251 325.125,49.177 368.987,49.177
			368.987,31.634 	"/>
	</g>
	<g id="Tanque12">
		<polyline class="tank"  points="469.065,32.869 460.973,32.869 452.313,32.745 409.159,32.745 395.814,32.869 "/>
		<polyline class="tank"  points="469.065,58.565 469.065,32.871 "/>
		<line class="tank"  x1="396.099" y1="33.364" x2="395.949" y2="58.565"/>
	</g>
	<line id="LD13_x5F_14" class="tank"  x1="395.814" y1="132.435" x2="471.334" y2="132.435"/>
	<polyline id="Tanque10" class="tank"  points="339.746,75.116 346.985,75.116 346.985,95.499"/>
	<g id="Tanque14">
		<line class="tank"  x1="471.334" y1="158.006" x2="395.814" y2="158.006"/>
		<polyline class="tank"  points="471.334,132.435 471.334,158.006 "/>
		<line class="tank"  x1="395.814" y1="158.006" x2="395.814" y2="132.435"/>
	</g>
	<line id="LD11_x5F_12" class="tank"  x1="469.065" y1="58.565" x2="395.949" y2="58.565"/>
	<g id="Tanque11">
		<polyline class="tank"  points="483.684,80.8 483.684,58.565 "/>
		<line class="tank"  x1="469.084" y1="58.565" x2="483.684" y2="58.565"/>
		<line class="tank"  x1="396.086" y1="58.565" x2="395.949" y2="95.499"/>
		<line class="tank" x1="483.684" y1="80.8" x2="500.717" y2="80.8"/>
	</g>
	<g id="Contorno_2_">
		<g id="Contorno_1_">
			<path class="tank"  d="M872.492,99.441c1.725,0.114,3.383-0.62,4.285-1.903
			c0.906-1.285,0.91-2.902,0.008-4.189c-0.902-1.286-2.553-2.024-4.277-1.914"/>
			<g id="Contorno">
				<polyline class="tank"  points="56.834,151.83 74.01,152.447 98.14,153.189
					185.015,156.398 222.348,157.513 271.892,158.623 346.557,159.857 398.229,160.352 433.292,160.724 468.358,160.724
					482.264,160.598 496.174,160.352 510.088,159.981 524.141,159.487 537.908,158.748 551.823,157.759 565.733,156.769
					579.643,155.534 593.412,154.055 607.326,152.447 621.094,150.839 634.865,148.864 648.633,146.765 686.676,140.464
					699.311,138.116 719.041,134.41 758.221,126.506 772.985,123.539 787.465,120.328 806.908,115.882 840.981,107.854
					848.219,106.003 855.317,104.026 869.371,100.315 872.492,99.45 			"/>
				<polyline class="tank"  points="872.492,91.546 869.371,90.556 855.317,86.976
					848.219,85.001 840.981,83.146 806.908,74.993 787.465,70.671 772.985,67.46 758.221,64.494 719.041,56.589 699.311,52.884
					686.676,50.534 648.633,44.111 634.865,42.134 621.094,40.158 607.326,38.427 593.412,36.822 579.643,35.464 565.733,34.229
					551.823,33.117 537.908,32.251 524.141,31.511 510.088,30.895 496.174,30.522 482.264,30.276 468.358,30.276 433.292,30.276
					398.229,30.522 346.558,31.017 271.892,32.251 222.348,33.364 185.015,34.599 98.14,37.812 74.01,38.552 56.835,39.046
					56.408,42.63 56.267,46.087 55.981,49.671 55.698,53.253 55.555,56.835 55.414,60.417 55.13,63.876 54.987,67.46 54.847,71.041
					54.704,74.623 54.704,78.205 54.562,81.786 54.562,85.245 54.562,88.953 54.421,92.41 54.421,95.993 54.421,99.577
					54.562,103.159 54.562,106.74 54.562,110.324 54.704,113.78 54.704,117.364 54.847,120.947 54.987,124.528 55.13,128.11
					55.414,131.693 55.555,135.15 55.698,138.858 55.981,142.315 56.267,145.9 56.408,149.482 			"/>
		</g>
		</g>
		<line class="tank"  x1="56.408" y1="149.482" x2="56.834" y2="151.83"/>
	</g>
	<line id="LD11-13" class="tank"  x1="500.717" y1="95.499" x2="395.949" y2="95.499"/>
	<polyline id="LD21-11_x2F_13" class="tank"  points="500.717,110.2 500.717,80.8 "/>
	<g id="EmergencyTank">
		<line class="tank" x1="60" y1="122.095" x2="60" y2="143.694"/>
		<polyline class="tank" points="95,132.895 95,111.295 60,111.295 "/>
		<line class="tank" x1="95" y1="143.694" x2="60" y2="143.694"/>
		<line class="tank" x1="95" y1="132.895" x2="95" y2="143.694"/>
		<line class="tank" x1="60" y1="122.095" x2="60" y2="111.295"/>
	</g>
	<g id="Tanque13">
		<line class="tank"  x1="485.953" y1="110.2" x2="485.953" y2="132.435"/>
		<line class="tank"  x1="395.949" y1="132.435" x2="395.949" y2="95.499"/>
		<line class="tank"  x1="471.356" y1="132.435" x2="485.953" y2="132.435"/>
		<line class="tank"  x1="485.953" y1="110.2" x2="500.717" y2="110.2"/>
	</g>

	//Highlighting Implementation
	//Tank 11 Center Port
	<polyline onclick="tanks.tankHighlight('#fuelTank',0, $(this))" class="water" points="483.684,80.8 500.717,80.8 500.717,95.499 395.949,95.499 396.086,58.565 469.084,58.565 483.684,58.565 483.684,80.8"/>
	//Tank 12 Port
	<polyline onclick="tanks.tankHighlight('#fuelTank',1, $(this))" class="water" points="395.949,58.565 396.099,33.364 409.159,32.745 452.313,32.745 460.973,32.869 469.065,32.869 469.065,58.565 395.949,58.565"/>
	//Tank 13 Center STBD
	<polyline onclick="tanks.tankHighlight('#fuelTank',2, $(this))" class="water" points="485.953,110.2 485.953,132.435 471.356,132.435 395.814,132.435 395.949,95.499 500.717,95.499 500.717,110.2 485.953,110.2"/>
	//Tank 14 STBD
	<polyline onclick="tanks.tankHighlight('#fuelTank',3, $(this))" class="water" points="395.814,158.006 395.814,132.435 471.334,132.435 471.334,158.006 395.814,158.006"/>
	//Emergency Gen.
	<polyline onclick="tanks.tankHighlight('#fuelTank',4, $(this))" class="water" points="60,111.295 60,122.095 60,143.694 95,143.694 95,132.895 95,132.895 95,111.295 60,111.295"/>
	//Tank 10 Overflow
	<polyline onclick="tanks.tankHighlight('#fuelTank',7, $(this))" class="water" points="346.985,95.499 339.651,95.499 339.746,95.499 339.746,75.116 346.985,75.116 346.985,95.49"/>
	//Tank 6 Day Tank Port
	<polyline onclick="tanks.tankHighlight('#fuelTank',5, $(this))" class="water" points="325.125,32.251 325.125,49.177 368.987,49.177 368.987,31.634 325.125,32.251"/>
	//Tank 7 Day Tank STBD
	<polyline onclick="tanks.tankHighlight('#fuelTank',6, $(this))" class="water" points="325.125,141.7 325.125,158.748 368.987,158.748 368.987,141.7 325.125,141.7"/>
</svg>
