<?xml version="1.0" encoding="utf-8"?>
<!-- Generator: Adobe Illustrator 15.0.0, SVG Export Plug-In . SVG Version: 6.00 Build 0)  -->
<!DOCTYPE svg PUBLIC "-//W3C//DTD SVG 1.1//EN" "http://www.w3.org/Graphics/SVG/1.1/DTD/svg11.dtd">
<svg version="1.1" id="TankObjects" xmlns="http://www.w3.org/2000/svg" xmlns:xlink="http://www.w3.org/1999/xlink" x="0px"
	 y="0px" width="885px" height="191px" viewBox="0 0 885 191" enable-background="new 0 0 885 191" xml:space="preserve">
<line id="LD03_x5F_04" class="tank"  x1="288.09" y1="115.882" x2="288.09" y2="75.116"/>
<polyline id="Tanque04" class="tank"  points="288.501,115.882 295.741,115.882
	295.741,75.116 288.501,75.116 "/>
<polyline id="Tanque08" class="tank"  points="325.125,95.499 325.125,75.735
	325.407,75.735 325.692,75.735 326.119,75.611 326.543,75.611 327.68,75.488 328.247,75.364 328.673,75.364 328.957,75.24
	329.242,75.24 329.383,75.24 329.666,75.24 329.952,75.24 330.377,75.24 330.802,75.24 331.227,75.24 331.654,75.116
	331.938,75.116 332.222,75.116 332.365,75.116 339.746,75.116 "/>
<line id="LD08_x5F_10" class="tank"  x1="339.746" y1="75.116" x2="339.746" y2="95.499"/>
<line id="LD08_x5F_09" class="tank"  x1="325.125" y1="95.499" x2="339.651" y2="95.499"/>
<polyline id="Tanque09" class="tank"  points="325.125,95.499 325.125,115.265
	325.407,115.265 325.692,115.265 326.119,115.386 326.543,115.386 327.68,115.509 328.247,115.634 328.673,115.634 328.957,115.757 
	329.242,115.757 329.383,115.757 329.666,115.757 329.952,115.757 330.377,115.757 330.802,115.757 331.227,115.757 
	331.654,115.882 331.938,115.882 332.222,115.882 332.365,115.882 339.746,115.882 "/>
<g id="Contorno_2_">
	<g id="Contorno_1_">
		<path class="tank"  d="M872.492,99.441c1.725,0.114,3.383-0.62,4.285-1.903
			c0.906-1.285,0.91-2.902,0.008-4.189c-0.902-1.286-2.553-2.024-4.277-1.914"/>
		<g id="Contorno">
			<polyline class="tank"  points="56.834,151.83 74.01,152.447 98.14,153.189
				185.015,156.398 222.348,157.513 271.892,158.623 346.557,159.857 398.229,160.352 433.292,160.724 468.358,160.724 
				482.264,160.598 496.174,160.352 510.088,159.981 524.141,159.487 537.908,158.748 551.823,157.759 565.733,156.769 
				579.643,155.534 593.412,154.055 607.326,152.447 621.094,150.839 634.865,148.864 648.633,146.765 686.676,140.464 
				699.311,138.116 719.041,134.41 758.221,126.506 772.985,123.539 787.465,120.328 806.908,115.882 840.981,107.854 
				848.219,106.003 855.317,104.026 869.371,100.315 872.492,99.45 			"/>
			<polyline class="tank"  points="872.492,91.546 869.371,90.556 855.317,86.976
				848.219,85.001 840.981,83.146 806.908,74.993 787.465,70.671 772.985,67.46 758.221,64.494 719.041,56.589 699.311,52.884 
				686.676,50.534 648.633,44.111 634.865,42.134 621.094,40.158 607.326,38.427 593.412,36.822 579.643,35.464 565.733,34.229 
				551.823,33.117 537.908,32.251 524.141,31.511 510.088,30.895 496.174,30.522 482.264,30.276 468.358,30.276 433.292,30.276 
				398.229,30.522 346.558,31.017 271.892,32.251 222.348,33.364 185.015,34.599 98.14,37.812 74.01,38.552 56.835,39.046 
				56.408,42.63 56.267,46.087 55.981,49.671 55.698,53.253 55.555,56.835 55.414,60.417 55.13,63.876 54.987,67.46 54.847,71.041 
				54.704,74.623 54.704,78.205 54.562,81.786 54.562,85.245 54.562,88.953 54.421,92.41 54.421,95.993 54.421,99.577 
				54.562,103.159 54.562,106.74 54.562,110.324 54.704,113.78 54.704,117.364 54.847,120.947 54.987,124.528 55.13,128.11 
				55.414,131.693 55.555,135.15 55.698,138.858 55.981,142.315 56.267,145.9 56.408,149.482 			"/>
		</g>
	</g>
	<line class="tank"  x1="56.408" y1="149.482" x2="56.834" y2="151.83"/>
	<polyline id="LD09_x5F_05" class="tank"  points=" 339.746,95.499 339.746,99.005 339.746,115.884 "/>
</g>
	/Highlighting Implementation
	//Tank 4 Bilge
	<polyline onclick="tanks.tankHighlight('#oilTanks',0, $(this))" class="water" points="288.501,75.116 288.501,115.882 295.741,115.882 295.741,75.116 288.501,75.116"/>
	//Tank 8 Dirty Oil
	<polyline onclick="tanks.tankHighlight('#oilTanks',1, $(this))" class="water" points="339.651,95.499 325.125,95.499 325.125,75.735
	325.407,75.735 325.692,75.735 326.119,75.611 326.543,75.611 327.68,75.488 328.247,75.364 328.673,75.364 328.957,75.24
	329.242,75.24 329.383,75.24 329.666,75.24 329.952,75.24 330.377,75.24 330.802,75.24 331.227,75.24 331.654,75.116
	331.938,75.116 332.222,75.116 332.365,75.116 339.746,75.116  339.651,95.499"/>
	//Tank 9 Clean Oil
	<polyline onclick="tanks.tankHighlight('#oilTanks',2, $(this))" class="water" points="339.651,95.499 325.125,95.499 325.125,115.265
	325.407,115.265 325.692,115.265 326.119,115.386 326.543,115.386 327.68,115.509 328.247,115.634 328.673,115.634 328.957,115.757
	329.242,115.757 329.383,115.757 329.666,115.757 329.952,115.757 330.377,115.757 330.802,115.757 331.227,115.757
	331.654,115.882 331.938,115.882 332.222,115.882 332.365,115.882 339.746,115.882 339.651,95.499"/>
</svg>
