<svg version="1.1" id="TankObjects" xmlns="http://www.w3.org/2000/svg" xmlns:xlink="http://www.w3.org/1999/xlink" x="0px"
	 y="0px" viewBox="0 0 895 193.565" style="enable-background:new 0 0 895 193.565;" xml:space="preserve">
<line id="LD22_x5F_03" class="classTank0" x1="235.731" y1="123.57" x2="235.731" y2="72.617"/>
<line id="LD03_x5F_04" class="classTank0" x1="258.686" y1="123.57" x2="258.686" y2="72.617"/>
<polyline id="Tanque04" class="classTank0" points="259.125,123.57 266.874,123.57 266.874,72.617 259.125,72.617 "/>
<polyline id="Tanque08" class="classTank0" points="298.319,98.093 298.319,73.39 298.623,73.39 298.926,73.39 299.383,73.235 
	299.838,73.235 301.055,73.08 301.66,72.926 302.117,72.926 302.421,72.771 302.726,72.771 302.877,72.771 303.181,72.771 
	303.485,72.771 303.94,72.771 304.396,72.771 304.851,72.771 305.307,72.617 305.612,72.617 305.915,72.617 306.068,72.617 
	313.966,72.617 "/>
<line id="LD10_x5F_05" class="classTank0" x1="321.714" y1="98.093" x2="313.865" y2="98.093"/>
<polyline id="Tanque05" class="classTank0" points="313.863,123.57 329.613,123.57 329.613,98.093 321.714,98.093 "/>
<polyline id="LD09_x5F_05" class="classTank0" points="313.966,102.475 313.966,123.571 313.966,98.094 "/>
<line id="LD08_x5F_10" class="classTank0" x1="313.966" y1="72.617" x2="313.966" y2="98.095"/>
<g id="Tanque03">
	<line class="classTank0" x1="259.125" y1="123.57" x2="235.731" y2="123.57"/>
	<line class="classTank0" x1="235.731" y1="72.617" x2="259.125" y2="72.617"/>
</g>
<polyline id="Tanque18" class="classTank0" points="689.65,98.093 689.65,128.201 658.353,133.76 627.06,139.01 627.06,98.093 "/>
<g id="Tanque17">
	<polyline class="classTank0" points="627.06,98.093 627.06,57.177 627.06,98.093 	"/>
	<polyline class="classTank0" points="627.06,57.177 658.353,62.427 689.65,67.985 658.353,62.427 627.06,57.177 658.353,62.427 
		689.65,67.985 689.65,98.093 	"/>
</g>
<g id="Tanque07">
	<line class="classTank0" x1="298.319" y1="155.841" x2="298.319" y2="177.148"/>
	<polyline class="classTank0" points="345.26,177.148 345.26,155.841 298.319,155.841 	"/>
	<line class="classTank0" x1="345.26" y1="177.148" x2="298.319" y2="177.148"/>
</g>
<g id="Tanque06">
	<line class="classTank0" x1="298.319" y1="19.039" x2="345.26" y2="18.267"/>
	<polyline class="classTank0" points="298.319,19.039 298.319,40.193 345.26,40.193 345.26,18.267 	"/>
</g>
<g id="Tanque01">
	<line class="classTank0" x1="157.344" y1="36.641" x2="157.344" y2="21.51"/>
	<line class="classTank0" x1="180.89" y1="36.641" x2="157.345" y2="36.641"/>
	<line class="classTank0" x1="180.89" y1="61.192" x2="180.89" y2="36.641"/>
	<line class="classTank0" x1="141.697" y1="61.192" x2="180.89" y2="61.192"/>
</g>
<g id="Tanque19">
	<polyline class="classTank0" points="94.755,61.192 126.051,61.192 141.697,61.192 	"/>
	<line class="classTank0" x1="94.755" y1="39.883" x2="94.755" y2="61.192"/>
	<line class="classTank0" x1="110.402" y1="39.883" x2="94.755" y2="39.883"/>
	<line class="classTank0" x1="110.402" y1="23.672" x2="110.402" y2="39.883"/>
</g>
<line id="LD19_x5F_01" class="classTank0" x1="141.697" y1="61.192" x2="141.697" y2="22.128"/>
<polyline id="Tanque02" class="classTank0" points="141.985,135.612 180.89,135.612 180.89,160.164 164.187,160.164 164.187,174.523 "/>
<line id="LD20-02" class="classTank0" x1="141.697" y1="135.612" x2="141.697" y2="173.905"/>
<polyline id="Tanque22" class="classTank0" points="235.579,72.462 219.324,72.462 204.285,76.169 204.285,120.02 219.324,123.57 
	235.579,123.57 "/>
<g id="Tanque20">
	<polyline class="classTank0" points="141.697,135.612 94.755,135.612 136.229,135.612 141.697,135.612 	"/>
	<line class="classTank0" x1="94.755" y1="135.612" x2="94.755" y2="156.766"/>
	<line class="classTank0" x1="110.402" y1="156.766" x2="110.402" y2="172.515"/>
	<line class="classTank0" x1="110.402" y1="156.766" x2="94.755" y2="156.766"/>
</g>
<g id="Tanque15">
	<polyline class="classTank0" points="533.177,46.986 559.308,48.993 585.285,51.618 611.412,54.861 585.285,51.618 559.308,48.993 
		533.177,46.986 	"/>
	<line class="classTank0" x1="611.261" y1="54.861" x2="611.337" y2="98.094"/>
	<line class="classTank0" x1="533.177" y1="46.986" x2="533.177" y2="98.094"/>
</g>
<g id="Tanque12">
	<polyline class="classTank0" points="452.359,19.811 443.7,19.811 434.433,19.656 425.167,19.656 415.901,19.656 406.785,19.656 
		397.519,19.656 388.252,19.656 373.971,19.811 388.252,19.656 397.519,19.656 406.785,19.656 415.901,19.656 425.167,19.656 
		434.433,19.656 443.7,19.811 452.359,19.811 	"/>
	<polyline class="classTank0" points="452.359,51.927 452.359,19.812 452.359,51.927 	"/>
	<line class="classTank0" x1="374.275" y1="20.429" x2="374.115" y2="51.927"/>
</g>
<g id="Tanque16">
	<line class="classTank0" x1="533.177" y1="98.093" x2="533.177" y2="148.739"/>
	<polyline class="classTank0" points="611.413,141.326 585.285,144.414 559.308,147.04 533.177,149.046 559.308,147.04 585.285,144.414 
		611.413,141.326 	"/>
	<line class="classTank0" x1="611.337" y1="98.093" x2="611.413" y2="141.326"/>
</g>
<line id="LD15_x5F_16" class="classTank0" x1="533.177" y1="98.093" x2="611.261" y2="98.093"/>
<line id="LD17_x5F_18" class="classTank0" x1="627.06" y1="98.093" x2="689.65" y2="98.093"/>
<line id="LD13_x5F_14" class="classTank0" x1="373.971" y1="144.26" x2="454.79" y2="144.26"/>
<polyline id="Tanque10" class="classTank0" points="313.966,72.617 321.714,72.617 321.714,98.093 "/>
<g id="Tanque21">
	<polyline class="classTank0" points="486.235,79.72 523.302,79.72 486.235,79.72 	"/>
	<polyline class="classTank0" points="486.235,116.469 486.235,79.72 486.235,116.469 	"/>
	<line class="classTank0" x1="523.302" y1="116.469" x2="523.302" y2="79.72"/>
	<line class="classTank0" x1="486.235" y1="116.469" x2="523.302" y2="116.469"/>
</g>
<g id="Tanque14">
	<line class="classTank0" x1="454.79" y1="176.222" x2="373.971" y2="176.222"/>
	<polyline class="classTank0" points="454.79,144.26 454.79,176.222 454.79,144.26 	"/>
	<line class="classTank0" x1="373.971" y1="176.222" x2="373.971" y2="144.26"/>
</g>
<g id="Tanque13">
	<line class="classTank0" x1="470.437" y1="116.469" x2="373.972" y2="116.469"/>
	<line class="classTank0" x1="470.437" y1="116.469" x2="470.437" y2="144.26"/>
	<line class="classTank0" x1="373.971" y1="144.26" x2="373.971" y2="116.469"/>
	<line class="classTank0" x1="454.79" y1="144.26" x2="470.437" y2="144.26"/>
</g>
<line id="LD08_x5F_09" class="classTank0" x1="298.319" y1="98.093" x2="313.865" y2="98.093"/>
<polyline id="Tanque09" class="classTank0" points="298.319,98.093 298.319,122.797 298.623,122.797 298.926,122.797 299.383,122.952 
	299.838,122.952 301.055,123.107 301.66,123.261 302.117,123.261 302.421,123.415 302.726,123.415 302.877,123.415 303.181,123.415 
	303.485,123.415 303.94,123.415 304.396,123.415 304.851,123.415 305.307,123.569 305.612,123.569 305.915,123.569 306.068,123.569 
	313.966,123.569 "/>
<line id="LD11_x5F_12" class="classTank0" x1="452.359" y1="51.927" x2="374.115" y2="51.927"/>
<g id="Tanque11">
	<line class="classTank0" x1="374.115" y1="51.927" x2="373.971" y2="79.72"/>
	<g id="DieselOilCenterPort">
		<polyline class="classTank0" points="468.006,79.72 373.971,79.72 468.006,79.72 		"/>
		<polyline class="classTank0" points="468.006,79.72 468.006,51.927 468.006,79.72 		"/>
		<line class="classTank0" x1="452.359" y1="51.927" x2="468.006" y2="51.927"/>
	</g>
</g>
<g id="Contorno_2_">
	<g id="Contorno_1_">
		<path class="classTank0" d="M884.096,103.02c1.847,0.144,3.621-0.775,4.587-2.38c0.971-1.606,0.974-3.627,0.008-5.235
			c-0.965-1.609-2.731-2.532-4.578-2.393"/>
		<g id="Contorno">
			<polyline class="classTank0" points="11.203,168.502 29.585,169.273 55.41,170.201 148.38,174.213 188.333,175.603 241.352,176.993 
				321.257,178.536 376.555,179.154 414.078,179.618 451.601,179.618 466.487,179.462 481.374,179.154 496.263,178.691 
				511.301,178.073 526.037,177.148 540.926,175.912 555.812,174.675 570.7,173.133 585.435,171.282 600.323,169.273 
				615.056,167.264 629.793,164.796 644.529,162.171 685.242,154.295 698.763,151.362 719.879,146.73 761.806,136.849 
				777.605,133.142 793.102,129.128 813.911,123.57 850.373,113.534 858.119,111.22 865.714,108.75 880.755,104.115 
				884.096,103.033 			"/>
			<polyline class="classTank0" points="884.096,93.152 880.755,91.916 865.714,87.441 858.119,84.971 850.373,82.653 813.911,72.462 
				793.102,67.059 777.605,63.044 761.806,59.339 719.879,49.457 698.763,44.825 685.242,41.891 644.529,33.862 629.793,31.39 
				615.056,28.921 600.323,26.758 585.435,24.752 570.7,23.054 555.812,21.51 540.926,20.121 526.037,19.039 511.301,18.113 
				496.263,17.342 481.374,16.878 466.487,16.569 451.601,16.569 414.077,16.569 376.555,16.878 321.258,17.496 241.352,19.039 
				188.333,20.429 148.38,21.973 55.409,25.988 29.586,26.914 11.204,27.53 10.749,32.009 10.597,36.332 10.291,40.809 
				9.988,45.288 9.835,49.765 9.683,54.243 9.38,58.567 9.227,63.044 9.077,67.522 8.924,71.999 8.924,76.477 8.774,80.954 
				8.774,85.278 8.774,89.91 8.621,94.233 8.621,98.711 8.621,103.19 8.774,107.667 8.774,112.145 8.774,116.622 8.924,120.945 
				8.924,125.422 9.077,129.901 9.227,134.379 9.38,138.855 9.683,143.333 9.835,147.655 9.988,152.289 10.291,156.611 
				10.597,161.091 10.749,165.569 			"/>
		</g>
	</g>
	<line class="classTank0" x1="10.749" y1="165.569" x2="11.203" y2="168.502"/>
</g>
</svg>
