<?xml version="1.0" encoding="utf-8"?>
<!-- Generator: Adobe Illustrator 15.0.0, SVG Export Plug-In . SVG Version: 6.00 Build 0)  -->
<!DOCTYPE svg PUBLIC "-//W3C//DTD SVG 1.1//EN" "http://www.w3.org/Graphics/SVG/1.1/DTD/svg11.dtd">
<svg version="1.1" id="TankObjects" xmlns="http://www.w3.org/2000/svg" xmlns:xlink="http://www.w3.org/1999/xlink" x="0px"
	 y="0px" width="885px" height="191px" viewBox="0 0 885 191" enable-background="new 0 0 885 191" xml:space="preserve">
<line id="LD22_x5F_03" class="classTank0"  x1="266.638" y1="115.882" x2="266.638" y2="75.116"/>
<line id="LD03_x5F_04" class="classTank0"  x1="288.09" y1="115.882" x2="288.09" y2="75.116"/>
<polyline id="Tanque04" class="classTank0"  points="288.501,115.882 295.741,115.882
	295.741,75.116 288.501,75.116 "/>
<polyline id="Tanque08" class="classTank0"  points="325.125,95.499 325.125,75.735
	325.407,75.735 325.692,75.735 326.119,75.611 326.543,75.611 327.68,75.488 328.247,75.364 328.673,75.364 328.957,75.24 
	329.242,75.24 329.383,75.24 329.666,75.24 329.952,75.24 330.377,75.24 330.802,75.24 331.227,75.24 331.654,75.116 
	331.938,75.116 332.222,75.116 332.365,75.116 339.746,75.116 "/>
<line id="LD10_x5F_05" class="classTank0"  x1="346.985" y1="95.499" x2="339.651" y2="95.499"/>
<polyline id="Tanque05" class="classTank0"  points="339.649,115.882 354.366,115.882
	354.366,95.499 346.985,95.499 "/>
<polyline id="LD09_x5F_05" class="classTank0"  points=" 339.746,95.499 339.746,99.005 339.746,115.884 "/>
<line id="LD08_x5F_10" class="classTank0"  x1="339.746" y1="75.116" x2="339.746" y2="95.499"/>
<g id="Tanque03">
	<line class="classTank0"  x1="288.501" y1="115.882" x2="266.638" y2="115.882"/>
	<line class="classTank0"  x1="266.638" y1="75.116" x2="288.501" y2="75.116"/>
</g>
<polyline id="Tanque18" class="classTank0"  points="690.793,95.499 690.793,119.587 661.551,124.035 632.307,128.235 632.307,95.499 "/>
<g id="Tanque17" >
	<polyline class="classTank0"  points="632.307,95.499 632.307,62.765 661.551,66.964 690.793,71.411  690.793,95.499"/>
</g>
<g id="Tanque07">
	<line class="classTank0"  x1="325.125" y1="141.7" x2="325.125" y2="158.748"/>
	<polyline class="classTank0"  points="368.987,158.748 368.987,141.7 325.125,141.7 	"/>
	<line class="classTank0"  x1="368.987" y1="158.748" x2="325.125" y2="158.748"/>
</g>
<g id="Tanque06">
	<line class="classTank0"  x1="325.125" y1="32.251" x2="368.987" y2="31.634"/>
	<polyline class="classTank0"  points="325.125,32.251 325.125,49.177 368.987,49.177
		368.987,31.634 	"/>
</g>
<g id="Tanque01">
	<line class="classTank0"  x1="177.335" y1="47.396" x2="177.335" y2="33.364"/>
	<line class="classTank0"  x1="200.001" y1="47.396" x2="177.335" y2="47.396"/>
	<line class="classTank0"  x1="200.001" y1="70.164" x2="200.001" y2="47.396"/>
	<line class="classTank0"  x1="162.271" y1="70.164" x2="200.001" y2="70.164"/>
</g>
<g id="Tanque19">
	<polyline class="classTank0"  points="117.085,70.164 147.212,70.164 162.271,70.164 	"/>
	<line class="classTank0"  x1="117.085" y1="50.402" x2="117.085" y2="70.164"/>
	<line class="classTank0"  x1="132.145" y1="50.402" x2="117.085" y2="50.402"/>
	<line class="classTank0"  x1="132.145" y1="35.368" x2="132.145" y2="50.402"/>
</g>
<line id="LD19_x5F_01" class="classTank0"  x1="162.271" y1="70.164" x2="162.271" y2="33.937"/>
<polyline id="Tanque02" class="classTank0"  points="162.549,120.696 200.001,120.696
	200.001,143.465 183.922,143.465 183.922,156.782 "/>
<line id="LD20-02" class="classTank0"  x1="162.271" y1="120.696" x2="162.271" y2="156.21"/>
<polyline id="Tanque22" class="classTank0"  points="266.499,74.993 251.308,74.993
	237.257,77.957 237.257,113.044 251.308,115.882 266.499,115.882 "/>
<g id="Tanque20">
	<polyline class="classTank0"  points="162.271,120.696 157.01,120.696 117.085,120.696"/>
	<line class="classTank0" x1="117.085" y1="120.696" x2="117.085" y2="140.314"/>
	<line class="classTank0" x1="132.145" y1="140.314" x2="132.145" y2="154.922"/>
	<line class="classTank0" x1="132.145" y1="140.314" x2="117.085" y2="140.314"/>
</g>
<g id="Tanque15">
	<polyline class="classTank0"  points="544.582,54.611 568.998,56.218 593.276,58.317
		617.686,60.911  "/>
	<line class="classTank0"  x1="617.547" y1="60.911" x2="617.615" y2="95.499"/>
	<line class="classTank0"  x1="544.582" y1="54.611" x2="544.582" y2="95.499"/>
</g>
<g id="Tanque12">
	<polyline class="classTank0"  points="469.065,32.869 460.973,32.869 452.313,32.745
		443.655,32.745 434.997,32.745 426.477,32.745 417.819,32.745 409.159,32.745 395.814,32.869 "/>
	<polyline class="classTank0"  points="469.065,58.565 469.065,32.871 "/>
	<line class="classTank0"  x1="396.099" y1="33.364" x2="395.949" y2="58.565"/>
</g>
<g id="Tanque16">
	<line class="classTank0"  x1="544.582" y1="95.499" x2="544.582" y2="136.018"/>
	<polyline class="classTank0"  points="617.688,130.088 593.276,132.558 568.998,134.658
		544.582,136.265 "/>
	<line class="classTank0"  x1="617.615" y1="95.499" x2="617.688" y2="130.088"/>
</g>
<line id="LD15_x5F_16" class="classTank0"  x1="544.582" y1="95.499" x2="617.547" y2="95.499"/>
<line id="LD17_x5F_18" class="classTank0"  x1="632.307" y1="95.499" x2="690.793" y2="95.499"/>
<line id="LD13_x5F_14" class="classTank0"  x1="395.814" y1="132.435" x2="471.334" y2="132.435"/>
<polyline id="Tanque10" class="classTank0"  points="339.746,75.116 346.985,75.116
	346.985,95.499 "/>
<g id="Tanque21">
	<polyline class="classTank0"  points="500.717,80.8 535.356,80.8"/>
	<line class="classTank0"  x1="535.356" y1="110.2" x2="535.356" y2="80.8"/>
	<line class="classTank0"  x1="500.717" y1="110.2" x2="535.356" y2="110.2"/>
</g>
<g id="Tanque14">
	<line class="classTank0"  x1="471.334" y1="158.006" x2="395.814" y2="158.006"/>
	<polyline class="classTank0"  points="471.334,132.435 471.334,158.006 "/>
	<line class="classTank0"  x1="395.814" y1="158.006" x2="395.814" y2="132.435"/>
</g>
<g id="Tanque13">
	<line class="classTank0"  x1="485.953" y1="110.2" x2="485.953" y2="132.435"/>
	<line class="classTank0"  x1="395.949" y1="132.435" x2="395.949" y2="95.499"/>
	<line class="classTank0"  x1="471.356" y1="132.435" x2="485.953" y2="132.435"/>
	<line class="classTank0"  x1="485.953" y1="110.2" x2="500.717" y2="110.2"/>
</g>
<line id="LD08_x5F_09" class="classTank0"  x1="325.125" y1="95.499" x2="339.651" y2="95.499"/>
<polyline id="Tanque09" class="classTank0"  points="325.125,95.499 325.125,115.265
	325.407,115.265 325.692,115.265 326.119,115.386 326.543,115.386 327.68,115.509 328.247,115.634 328.673,115.634 328.957,115.757 
	329.242,115.757 329.383,115.757 329.666,115.757 329.952,115.757 330.377,115.757 330.802,115.757 331.227,115.757 
	331.654,115.882 331.938,115.882 332.222,115.882 332.365,115.882 339.746,115.882 "/>
<line id="LD11_x5F_12" class="classTank0"  x1="469.065" y1="58.565" x2="395.949" y2="58.565"/>
<g id="Tanque11">
	<polyline class="classTank0"  points="483.684,80.8 483.684,58.565 "/>
	<line class="classTank0"  x1="469.084" y1="58.565" x2="483.684" y2="58.565"/>
	<line class="classTank0"  x1="396.086" y1="58.565" x2="395.949" y2="95.499"/>
	<line class="classTank0" x1="483.684" y1="80.8" x2="500.717" y2="80.8"/>
</g>
<g id="Contorno_2_">
	<g id="Contorno_1_">
		<path class="classTank0"  d="M872.492,99.441c1.725,0.114,3.383-0.62,4.285-1.903
			c0.906-1.285,0.91-2.902,0.008-4.189c-0.902-1.286-2.553-2.024-4.277-1.914"/>
		<g id="Contorno">
			<polyline class="classTank0"  points="56.834,151.83 74.01,152.447 98.14,153.189
				185.015,156.398 222.348,157.513 271.892,158.623 346.557,159.857 398.229,160.352 433.292,160.724 468.358,160.724 
				482.264,160.598 496.174,160.352 510.088,159.981 524.141,159.487 537.908,158.748 551.823,157.759 565.733,156.769 
				579.643,155.534 593.412,154.055 607.326,152.447 621.094,150.839 634.865,148.864 648.633,146.765 686.676,140.464 
				699.311,138.116 719.041,134.41 758.221,126.506 772.985,123.539 787.465,120.328 806.908,115.882 840.981,107.854 
				848.219,106.003 855.317,104.026 869.371,100.315 872.492,99.45 			"/>
			<polyline class="classTank0"  points="872.492,91.546 869.371,90.556 855.317,86.976
				848.219,85.001 840.981,83.146 806.908,74.993 787.465,70.671 772.985,67.46 758.221,64.494 719.041,56.589 699.311,52.884 
				686.676,50.534 648.633,44.111 634.865,42.134 621.094,40.158 607.326,38.427 593.412,36.822 579.643,35.464 565.733,34.229 
				551.823,33.117 537.908,32.251 524.141,31.511 510.088,30.895 496.174,30.522 482.264,30.276 468.358,30.276 433.292,30.276 
				398.229,30.522 346.558,31.017 271.892,32.251 222.348,33.364 185.015,34.599 98.14,37.812 74.01,38.552 56.835,39.046 
				56.408,42.63 56.267,46.087 55.981,49.671 55.698,53.253 55.555,56.835 55.414,60.417 55.13,63.876 54.987,67.46 54.847,71.041 
				54.704,74.623 54.704,78.205 54.562,81.786 54.562,85.245 54.562,88.953 54.421,92.41 54.421,95.993 54.421,99.577 
				54.562,103.159 54.562,106.74 54.562,110.324 54.704,113.78 54.704,117.364 54.847,120.947 54.987,124.528 55.13,128.11 
				55.414,131.693 55.555,135.15 55.698,138.858 55.981,142.315 56.267,145.9 56.408,149.482 			"/>
		</g>
	</g>
	<line class="classTank0"  x1="56.408" y1="149.482" x2="56.834" y2="151.83"/>
</g>
<line id="LD11-13" class="classTank0"  x1="500.717" y1="95.499" x2="395.949" y2="95.499"/>
<polyline id="LD21-11_x2F_13" class="classTank0"  points="500.717,110.2 500.717,80.8 "/>
</svg>
