<?xml version="1.0" encoding="utf-8"?>
<!-- Generator: Adobe Illustrator 15.0.0, SVG Export Plug-In . SVG Version: 6.00 Build 0)  -->
<!DOCTYPE svg PUBLIC "-//W3C//DTD SVG 1.1//EN" "http://www.w3.org/Graphics/SVG/1.1/DTD/svg11.dtd">
<svg version="1.1" id="TankObjects" xmlns="http://www.w3.org/2000/svg" xmlns:xlink="http://www.w3.org/1999/xlink" x="0px"
	 y="0px" width="885px" height="191px" viewBox="0 0 885 191" enable-background="new 0 0 885 191" xml:space="preserve">
<line id="LD22_x5F_03" class="tank"  x1="266.638" y1="115.882" x2="266.638" y2="75.116"/>
<polyline id="Tanque18" class="tank"  points="690.793,95.499 690.793,119.587 661.551,124.035 632.307,128.235 632.307,95.499 "/>
<g id="Tanque17" >
	<polyline class="tank"  points="632.307,95.499 632.307,62.765 661.551,66.964 690.793,71.411  690.793,95.499"/>
</g>

<g id="Tanque01">
	<line class="tank"  x1="177.335" y1="47.396" x2="177.335" y2="33.364"/>
	<line class="tank"  x1="200.001" y1="47.396" x2="177.335" y2="47.396"/>
	<line class="tank"  x1="200.001" y1="70.164" x2="200.001" y2="47.396"/>
	<line class="tank"  x1="162.271" y1="70.164" x2="200.001" y2="70.164"/>
</g>
<g id="Tanque19">
	<polyline class="tank"  points="117.085,70.164 147.212,70.164 162.271,70.164 	"/>
	<line class="tank"  x1="117.085" y1="50.402" x2="117.085" y2="70.164"/>
	<line class="tank"  x1="132.145" y1="50.402" x2="117.085" y2="50.402"/>
	<line class="tank"  x1="132.145" y1="35.368" x2="132.145" y2="50.402"/>
</g>
<line id="LD19_x5F_01" class="tank"  x1="162.271" y1="70.164" x2="162.271" y2="33.937"/>
<polyline id="Tanque02" class="tank"  points="162.549,120.696 200.001,120.696
	200.001,143.465 183.922,143.465 183.922,156.782 "/>
<line id="LD20-02" class="tank"  x1="162.271" y1="120.696" x2="162.271" y2="156.21"/>
	<polyline id="Tanque22" class="tank"  points="266.499,74.993 251.308,74.993
	237.257,77.957 237.257,113.044 251.308,115.882 266.499,115.882 "/>
<g id="Tanque20">
	<polyline class="tank"  points="162.271,120.696 157.01,120.696 117.085,120.696"/>
	<line class="tank" x1="117.085" y1="120.696" x2="117.085" y2="140.314"/>
	<line class="tank" x1="132.145" y1="140.314" x2="132.145" y2="154.922"/>
	<line class="tank" x1="132.145" y1="140.314" x2="117.085" y2="140.314"/>
</g>
<line id="LD17_x5F_18" class="tank"  x1="632.307" y1="95.499" x2="690.793" y2="95.499"/>
<g id="Tanque21">
	<polyline class="tank"  points="500.717,80.8 535.356,80.8"/>
	<line class="tank"  x1="535.356" y1="110.2" x2="535.356" y2="80.8"/>
	<line class="tank"  x1="500.717" y1="110.2" x2="535.356" y2="110.2"/>
</g>
<g id="Contorno_2_">
	<g id="Contorno_1_">
		<path class="tank"  d="M872.492,99.441c1.725,0.114,3.383-0.62,4.285-1.903
			c0.906-1.285,0.91-2.902,0.008-4.189c-0.902-1.286-2.553-2.024-4.277-1.914"/>
		<g id="Contorno">
			<polyline class="tank"  points="56.834,151.83 74.01,152.447 98.14,153.189
				185.015,156.398 222.348,157.513 271.892,158.623 346.557,159.857 398.229,160.352 433.292,160.724 468.358,160.724 
				482.264,160.598 496.174,160.352 510.088,159.981 524.141,159.487 537.908,158.748 551.823,157.759 565.733,156.769 
				579.643,155.534 593.412,154.055 607.326,152.447 621.094,150.839 634.865,148.864 648.633,146.765 686.676,140.464 
				699.311,138.116 719.041,134.41 758.221,126.506 772.985,123.539 787.465,120.328 806.908,115.882 840.981,107.854 
				848.219,106.003 855.317,104.026 869.371,100.315 872.492,99.45 			"/>
			<polyline class="tank"  points="872.492,91.546 869.371,90.556 855.317,86.976
				848.219,85.001 840.981,83.146 806.908,74.993 787.465,70.671 772.985,67.46 758.221,64.494 719.041,56.589 699.311,52.884 
				686.676,50.534 648.633,44.111 634.865,42.134 621.094,40.158 607.326,38.427 593.412,36.822 579.643,35.464 565.733,34.229 
				551.823,33.117 537.908,32.251 524.141,31.511 510.088,30.895 496.174,30.522 482.264,30.276 468.358,30.276 433.292,30.276 
				398.229,30.522 346.558,31.017 271.892,32.251 222.348,33.364 185.015,34.599 98.14,37.812 74.01,38.552 56.835,39.046 
				56.408,42.63 56.267,46.087 55.981,49.671 55.698,53.253 55.555,56.835 55.414,60.417 55.13,63.876 54.987,67.46 54.847,71.041 
				54.704,74.623 54.704,78.205 54.562,81.786 54.562,85.245 54.562,88.953 54.421,92.41 54.421,95.993 54.421,99.577 
				54.562,103.159 54.562,106.74 54.562,110.324 54.704,113.78 54.704,117.364 54.847,120.947 54.987,124.528 55.13,128.11 
				55.414,131.693 55.555,135.15 55.698,138.858 55.981,142.315 56.267,145.9 56.408,149.482 			"/>
		</g>
	</g>
	<line class="tank"  x1="56.408" y1="149.482" x2="56.834" y2="151.83"/>
</g>
<polyline id="LD21-11_x2F_13" class="tank"  points="500.717,110.2 500.717,80.8 "/>

	//Highlighting Implementation
	//Tank 1 Aft Port
	<polyline onclick="tanks.tankHighlight('#waterTanks',0, $(this))" class="water" points="162.271,33.937 162.271,70.164 200.001,70.164 200.001,47.396 177.335,47.396 177.335,33.364 162.271,33.937"/>
	//Tank 2 Aft STBD
	<polyline onclick="tanks.tankHighlight('#waterTanks',1, $(this))" class="water" points="162.271,156.21 162.271,120.696 200.001,120.696 200.001,143.465 183.922,143.465 183.922,156.782 162.271,156.21"/>
	//Tank 17 FWD Port
	<polyline onclick="tanks.tankHighlight('#waterTanks',2, $(this))" class="water" points="632.307,95.499 632.307,62.765 661.551,66.964 690.793,71.411  690.793,95.499"/>
	//Tank 18 FWD STBD
	<polyline onclick="tanks.tankHighlight('#waterTanks',3, $(this))" class="water" points="690.793,95.499 690.793,119.587 661.551,124.035 632.307,128.235 632.307,95.499 690.793,95.499"/>
	//Tank 19 Mist Port
	<polyline onclick="tanks.tankHighlight('#waterTanks',4, $(this))" class="water" points="162.271,33.937 162.271,70.164 147.212,70.164 117.085,70.164 117.085,50.402 132.145,50.402 132.145,35.368 162.271,33.937"/>
	//Tank 20 Mist Port
	<polyline onclick="tanks.tankHighlight('#waterTanks',5, $(this))" class="water" points="162.271,156.21 162.271,120.696 157.01,120.696 117.085,120.696 117.085,140.314 132.145,140.314 132.145,154.922 162.271,156.21"/>
	//Tank 21 Pool
	<polyline onclick="tanks.tankHighlight('#waterTanks',7, $(this))" class="water" points="500.717,80.8 535.356,80.8 535.356,110.2 500.717,110.2 500.717,80.8"/>
	//Tank 22 HiFog
	<polyline onclick="tanks.tankHighlight('#waterTanks',6, $(this))" class="water" points="266.499,74.993 251.308,74.993 237.257,77.957 237.257,113.044 251.308,115.882 266.499,115.882 266.638,75.116 266.499,74.993"/>
</svg>
