<svg version="1.2" xmlns="http://www.w3.org/2000/svg" viewBox="-220 0 1250 260">
	<title>lowerDeck</title>
	
	<path id="Forma 1" style="fill: #6d92ab" d="m26.8 30.3l-0.1-1.4 45.1-2.4 0.1 1.4z"/>
	<path id="Forma 2" style="fill: #6d92ab" d="m71.5 27.8l-0.1-1.4 53-2.2v1.4z"/>
	<path id="Forma 3" style="fill: #6d92ab" d="m124.4 25.6v-1.4l23.8-0.8 0.1 1.4z"/>
	<path id="Forma 4" style="fill: #6d92ab" d="m148.1 24.8v-1.5l54.7-2.1 0.1 1.4z"/>
	<path id="Forma 5" style="fill: #6d92ab" d="m202.8 22.6v-1.4l37.1-0.9v1.4z"/>
	<path id="Forma 6" style="fill: #6d92ab" d="m239.7 21.7l-0.1-1.4 52.2-0.6v1.4z"/>
	<path id="Forma 7" style="fill: #6d92ab" d="m291.8 21.1v-1.4l51.5 0.4v1.4z"/>
	<path id="Forma 8" style="fill: #6d92ab" d="m343.3 21.5v-1.4l51 0.9-0.1 1.5z"/>
	<path id="Forma 9" style="fill: #6d92ab" d="m394.2 22.5l0.1-1.5 32.6 1.9v1.3z"/>
	<path id="Forma 10" style="fill: #6d92ab" d="m426.8 24.2l0.1-1.4 79.8 6.6-0.1 1.4z"/>
	<path id="Forma 11" style="fill: #6d92ab" d="m506.1 30.7l0.1-1.3 43.2 5.6-0.2 1.4z"/>
	<path id="Forma 12" style="fill: #6d92ab" d="m549.1 36.4l0.3-1.4 46.7 7.7-0.3 1.4z"/>
	<path id="Forma 13" style="fill: #6d92ab" d="m595.8 44l0.3-1.3 41.1 8.2-0.3 1.4z"/>
	<path id="Forma 14" style="fill: #6d92ab" d="m636.5 52.1l0.3-1.4 39.7 9-0.2 1.4z"/>
	<path id="Forma 15" style="fill: #6d92ab" d="m676.1 61.1l0.3-1.4 36.7 9-0.4 1.3z"/>
	<path id="Forma 16" style="fill: #6d92ab" d="m712.2 69.8l0.3-1.4 37.3 9.9-0.4 1.3z"/>
	<path id="Forma 17" style="fill: #6d92ab" d="m749.4 79.6l0.4-1.3 44.6 12-0.4 1.4z"/>
	<path id="Forma 18" style="fill: #6d92ab" d="m793.8 91.5l0.4-1.4 51.7 14.9-0.4 1.4z"/>
	<path id="Forma 19" style="fill: #6d92ab" d="m845.5 106.3l0.4-1.3 26.1 7.9-0.4 1.3z"/>
	<path id="Forma 20" style="fill: #6d92ab" d="m871.2 113.9l1.2-0.8 1.1 1.8-1.2 0.7z"/>
	<path id="Forma 21" style="fill: #6d92ab" d="m872.2 115.3h1.4l0.1 3.7h-1.5z"/>
	<path id="Forma 22" style="fill: #6d92ab" d="m872.5 118.5l0.9 1-2 1.9-0.9-1.1z"/>
	<path id="Forma 23" style="fill: #6d92ab" d="m871.1 119.7l0.4 1.4-31.5 9.1-0.4-1.3z"/>
	<path id="Forma 24" style="fill: #6d92ab" d="m840.2 128.7l0.4 1.3-53.2 15.1-0.4-1.3z"/>
	<path id="Forma 25" style="fill: #6d92ab" d="m787.6 143.9l0.4 1.4-63.4 16.8-0.4-1.3z"/>
	<path id="Forma 26" style="fill: #6d92ab" d="m724.8 160.8l0.3 1.3-57 13.7-0.3-1.3z"/>
	<path id="Forma 27" style="fill: #6d92ab" d="m668.3 174.4l0.3 1.3-36.7 8.2-0.3-1.4z"/>
	<path id="Forma 28" style="fill: #6d92ab" d="m631.6 182.5l0.3 1.4-39.5 7.7-0.3-1.4z"/>
	<path id="Forma 29" style="fill: #6d92ab" d="m592.8 190l0.2 1.4-46.7 7.8-0.3-1.4z"/>
	<path id="Forma 30" style="fill: #6d92ab" d="m546.3 197.8l0.2 1.3-36.6 4.8-0.2-1.4z"/>
	<path id="Forma 31" style="fill: #6d92ab" d="m510.2 202.2l0.1 1.4-37 3.9-0.2-1.4z"/>
	<path id="Forma 32" style="fill: #6d92ab" d="m473.1 206.1l0.1 1.4-37.3 2.8-0.1-1.4z"/>
	<path id="Forma 33" style="fill: #6d92ab" d="m436.9 209l0.1 1.4-39.8 2-0.1-1.4z"/>
	<path id="Forma 34" style="fill: #6d92ab" d="m398.3 211.1v1.4l-44.9 1.2v-1.4z"/>
	<path id="Forma 35" style="fill: #6d92ab" d="m354.4 212.5v1.4l-46.8 0.1v-1.4z"/>
	<path id="Forma 36" style="fill: #6d92ab" d="m308.3 212.8v1.4l-38.9-0.2v-1.4z"/>
	<path id="Forma 37" style="fill: #6d92ab" d="m270 212.8v1.4l-43.3-1v-1.4z"/>
	<path id="Forma 38" style="fill: #6d92ab" d="m226.6 211.8v1.4l-54.9-1.6 0.1-1.4z"/>
	<path id="Forma 39" style="fill: #6d92ab" d="m172.7 210.2l-0.1 1.4-59.1-2.6 0.1-1.4z"/>
	<path id="Forma 40" style="fill: #6d92ab" d="m114.5 207.7l-0.1 1.4-47.1-1.8v-1.4z"/>
	<path id="Forma 41" style="fill: #6d92ab" d="m68 206l-0.1 1.4-42.5-2.5 0.1-1.4z"/>
	<path id="Forma 42" style="fill: #6d92ab" d="m26.5 203.9l-0.7 1.2-3.4-2.2 0.7-1.2z"/>
	<path id="Forma 43" style="fill: #6d92ab" d="m23.2 201.8l-0.9 1-2.9-2.6 0.9-1z"/>
	<path id="Forma 44" style="fill: #6d92ab" d="m20.4 199.4l-1.2 0.8-1.7-2.5 1.2-0.8z"/>
	<path id="Forma 45" style="fill: #6d92ab" d="m18.6 197l-1.2 0.6-1.8-3.6 1.2-0.6z"/>
	<path id="Forma 46" style="fill: #6d92ab" d="m16.9 193.5l-1.3 0.5-1.5-3.7 1.3-0.5z"/>
	<path id="Forma 47" style="fill: #6d92ab" d="m15.4 189.9l-1.3 0.3-0.8-3.1 1.3-0.3z"/>
	<path id="Forma 48" style="fill: #6d92ab" d="m14.3 187l-1.4 0.4-1.9-8.9 1.3-0.3z"/>
	<path id="Forma 49" style="fill: #6d92ab" d="m12.3 178.2l-1.3 0.2-1-6.6 1.3-0.2z"/>
	<path id="Forma 50" style="fill: #6d92ab" d="m11.4 171.6l-1.4 0.1-1.2-13 1.4-0.2z"/>
	<path id="Forma 51" style="fill: #6d92ab" d="m10 158.7h-1.4l-0.9-42.6h1.4z"/>
	<path id="Forma 52" style="fill: #6d92ab" d="m9.1 116.5h-1.4l0.6-42 1.4 0.1z"/>
	<path id="Forma 53" style="fill: #6d92ab" d="m9.6 74.9l-1.4-0.2 2.4-17.7 1.4 0.2z"/>
	<path id="Forma 54" style="fill: #6d92ab" d="m12 57.3l-1.4-0.3 3.9-14.5 1.3 0.4z"/>
	<path id="Forma 55" style="fill: #6d92ab" d="m15.8 43l-1.3-0.6 2.9-6.2 1.3 0.6z"/>
	<path id="Forma 56" style="fill: #6d92ab" d="m18.6 37l-1-1 3.5-3.3 1 1z"/>
	<path id="Forma 59" style="fill: #6d92ab" d="m107.8 207.3h-1v-181.1h1zm74.5 4h-1v-188.4h1z"/>
	<path id="Forma 60" fill-rule="evenodd" style="fill: #6d92ab" d="m247.8 213.3h-1v-192.6h1z"/>
	<path id="Forma 61" fill-rule="evenodd" style="fill: #6d92ab" d="m302.3 213.3h-1v-192.6h1z"/>
	<path id="Forma 62" fill-rule="evenodd" style="fill: #6d92ab" d="m419.8 22.8h1v186.9h-1z"/>
	<path id="Forma 63" fill-rule="evenodd" style="fill: #6d92ab" d="m523.8 32.3h1v168.4h-1z"/>
	<path id="Forma 64" fill-rule="evenodd" style="fill: #6d92ab" d="m601.3 45.3h1v142.7h-1z"/>
	<path id="Forma 65" fill-rule="evenodd" style="fill: #6d92ab" d="m638.8 52.3h1v129.1h-1z"/>
	<path id="Forma 66" fill-rule="evenodd" style="fill: #6d92ab" d="m665.8 175.8h-1v-118.1h1z"/>
	<path id="Forma 67" fill-rule="evenodd" style="fill: #6d92ab" d="m716.3 163.3h-1v-93.5h1z"/>
	<path id="Forma 68" fill-rule="evenodd" style="fill: #6d92ab" d="m734.8 158.8h-1v-83.3h1z"/>
	<path id="Forma 69" fill-rule="evenodd" style="fill: #6d92ab" d="m772.8 150h-1v-65.1h1z"/>
	<path id="Forma 70" fill-rule="evenodd" style="fill: #6d92ab" d="m824.8 133.3h-1v-33.5h1z"/>
	<path id="Forma 71" fill-rule="evenodd" style="fill: #6d92ab" d="m733.3 103.8v1h-626v-1z"/>
	<path id="Forma 72" fill-rule="evenodd" style="fill: #6d92ab" d="m733.8 128.8v1h-626.7v-1z"/>
	<path id="Forma 57" style="fill: #6d92ab" d="m21.9 33.8l-0.8-1.2 2.9-2 0.8 1.1z"/>
	<path id="Forma 58" style="fill: #6d92ab" d="m24.8 31.7l-0.7-1.2 3.1-1.9 0.8 1.3z"/>
</svg>