<svg version="1.2" xmlns="http://www.w3.org/2000/svg" viewBox="270 520 1850 400">
	<path id="Forma 1" style="fill: #6d92ab" d="m512.5 549.2l0.8 1.9-25.8 11.1-0.8-1.9z"/>
	<path id="Forma 2" style="fill: #6d92ab" d="m486.5 560.5l1.3 1.5-11.8 10.5-1.3-1.5z"/>
	<path id="Forma 3" style="fill: #6d92ab" d="m474.4 571.3l1.8 0.9-6.5 12.3-1.7-1z"/>
	<path id="Forma 4" style="fill: #6d92ab" d="m467.9 583.7l1.9 0.6-6.2 20.4-1.9-0.6z"/>
	<path id="Forma 5" style="fill: #6d92ab" d="m461.7 603.8l2 0.2-2.5 25.3-2-0.2z"/>
	<path id="Forma 6" style="fill: #6d92ab" d="m459.2 629.2h2l-1.3 34-2-0.1z"/>
	<path id="Forma 7" style="fill: #6d92ab" d="m457.9 663.2h2v90.8h-2z"/>
	<path id="Forma 8" style="fill: #6d92ab" d="m457.6 753.6h2l0.5 40.5h-2z"/>
	<path id="Forma 9" style="fill: #6d92ab" d="m458.4 794.2l2-0.2 2.1 29.2-2 0.2z"/>
	<path id="Forma 10" style="fill: #6d92ab" d="m460.6 823.5l1.9-0.4 5.4 25.7-1.9 0.4z"/>
	<path id="Forma 11" style="fill: #6d92ab" d="m466 849.1l1.8-0.9 4.3 8.8-1.8 0.9z"/>
	<path id="Forma 12" style="fill: #6d92ab" d="m470.4 858l1.7-1.1 8.3 11.7-1.6 1.1z"/>
	<path id="Forma 13" style="fill: #6d92ab" d="m479 869.9l1.2-1.6 9 6.7-1.2 1.6z"/>
	<path id="Forma 14" style="fill: #6d92ab" d="m488.2 876.7l0.8-1.8 10.2 5.1-0.9 1.8z"/>
	<path id="Forma 15" style="fill: #6d92ab" d="m498.4 881.8l0.7-1.9 13.8 5.3-0.7 1.8z"/>
	<path id="Forma 16" style="fill: #6d92ab" d="m512.5 887.1l0.1-2 19.9 0.9-0.1 2z"/>
	<path id="Forma 17" style="fill: #6d92ab" d="m532.4 888l0.1-2 28.2 1.2-0.1 2z"/>
	<path id="Forma 18" style="fill: #6d92ab" d="m560.3 889.2l0.1-2 163.7 7.2v2z"/>
	<path id="Forma 19" style="fill: #6d92ab" d="m722.9 896.2l0.1-2 150.3 4.9-0.1 2z"/>
	<path id="Forma 20" style="fill: #6d92ab" d="m871.8 900.8v-2l94.3 2.4v2z"/>
	<path id="Forma 21" style="fill: #6d92ab" d="m965.1 903.3l-0.1-2 110.3-0.4v2z"/>
	<path id="Forma 22" style="fill: #6d92ab" d="m1074 903v-2l76.6-1.7 0.1 2z"/>
	<path id="Forma 23" style="fill: #6d92ab" d="m1150.7 901.3l-0.1-2 73.6-3.9 0.1 2z"/>
	<path id="Forma 24" style="fill: #6d92ab" d="m1223.4 897.5l-0.1-2 87.5-5.9 0.1 2z"/>
	<path id="Forma 25" style="fill: #6d92ab" d="m1309.6 891.6l-0.2-2 119.2-12.8 0.2 2z"/>
	<path id="Forma 26" style="fill: #6d92ab" d="m1428.9 878.7l-0.3-2 55.6-8 0.3 2z"/>
	<path id="Forma 27" style="fill: #6d92ab" d="m1483.8 871.1l-0.4-2 90.4-15.3 0.3 2z"/>
	<path id="Forma 28" style="fill: #6d92ab" d="m1574.2 855.8l-0.4-2 51.1-9.8 0.4 2z"/>
	<path id="Forma 29" style="fill: #6d92ab" d="m1625 846.3l-0.4-2 73.6-15.6 0.4 2z"/>
	<path id="Forma 30" style="fill: #6d92ab" d="m1698.6 830.7l-0.4-1.9 55.6-12.8 0.5 1.9z"/>
	<path id="Forma 31" style="fill: #6d92ab" d="m1753.4 818.2l-0.5-1.9 56.1-14.1 0.5 2z"/>
	<path id="Forma 32" style="fill: #6d92ab" d="m1809.5 804.2l-0.5-2 52.3-13.9 0.5 1.9z"/>
	<path id="Forma 33" style="fill: #6d92ab" d="m1860.9 790.5l-0.5-1.9 46.7-12.3 0.5 1.9z"/>
	<path id="Forma 34" style="fill: #6d92ab" d="m1907.7 778.2l-0.6-1.9 41.9-11.7 0.5 2z"/>
	<path id="Forma 35" style="fill: #6d92ab" d="m1949.6 766.6l-0.6-2 40.6-11.6 0.5 1.9z"/>
	<path id="Forma 36" style="fill: #6d92ab" d="m1989.6 755.1l-0.5-1.9 42.6-11.8 0.5 1.9z"/>
	<path id="Forma 37" style="fill: #6d92ab" d="m2031.7 743.4l-0.5-2 45.6-13.1 0.5 1.9z"/>
	<path id="Forma 38" style="fill: #6d92ab" d="m2077.4 730.2l-0.7-1.9 15.5-5.6 0.7 1.9z"/>
	<path id="Forma 39" style="fill: #6d92ab" d="m2093.7 724.5h-2l-0.2-11.3h2z"/>
	<path id="Forma 40" style="fill: #6d92ab" d="m512.4 551.2v-2l205.6-8.8 0.1 2z"/>
	<path id="Forma 41" style="fill: #6d92ab" d="m717 542.4v-2l170.5-5.5 0.1 2z"/>
	<path id="Forma 42" style="fill: #6d92ab" d="m885.9 536.9v-2l163.3-1.1v2z"/>
	<path id="Forma 43" style="fill: #6d92ab" d="m1047.8 535.8v-2l116.9 2.1v2z"/>
	<path id="Forma 44" style="fill: #6d92ab" d="m1162.9 537.7l0.1-2 103.4 6.1-0.1 2z"/>
	<path id="Forma 45" style="fill: #6d92ab" d="m1264.5 543.4l0.2-2 117.5 11.3-0.2 2z"/>
	<path id="Forma 46" style="fill: #6d92ab" d="m1380.9 554.7l0.2-2 87.5 11.1-0.2 2z"/>
	<path id="Forma 47" style="fill: #6d92ab" d="m1468.3 565.6l0.4-1.9 92.6 15.2-0.4 1.9z"/>
	<path id="Forma 48" style="fill: #6d92ab" d="m1559.8 580.6l0.4-2 98.2 18.9-0.4 2z"/>
	<path id="Forma 49" style="fill: #6d92ab" d="m1656.8 599.4l0.5-2 111 25.3-0.4 1.9z"/>
	<path id="Forma 50" style="fill: #6d92ab" d="m1767.6 624.6l0.5-1.9 82.2 20.5-0.4 2z"/>
	<path id="Forma 51" style="fill: #6d92ab" d="m1849.2 645.3l0.5-1.9 76.8 20.4-0.5 1.9z"/>
	<path id="Forma 52" style="fill: #6d92ab" d="m1925 665.4l0.5-1.9 115.4 32.8-0.5 1.9z"/>
	<path id="Forma 53" style="fill: #6d92ab" d="m2040.4 698.2l0.5-1.9 39.7 11.8-0.5 1.9z"/>
	<path id="Forma 54" style="fill: #6d92ab" d="m2080 710l0.7-1.9 12.9 4.9-0.7 1.8z"/>
	<path id="Forma 55" style="fill: #6d92ab" d="m895.1 606.4v-2h24.6v2z"/>
	<path id="Forma 56" style="fill: #6d92ab" d="m919.2 605.6h-2v-4.6h2z"/>
	<path id="Forma 57" style="fill: #6d92ab" d="m917.8 603v-2h26.8v2z"/>
	<path id="Forma 58" style="fill: #6d92ab" d="m943 602.6l0.6-1.9 50.9 16.5-0.7 1.9zm51.2 16.5v-2h13v2z"/>
	<path id="Forma 59" style="fill: #6d92ab" d="m896 604l1.5 1.4-2.3 2.5-1.5-1.4z"/>
	<path id="Forma 60" style="fill: #6d92ab" d="m893.4 607.3l0.8-1.8 5.8 2.5-0.8 1.9z"/>
	<path id="Forma 61" style="fill: #6d92ab" d="m898.1 609.5l0.4-2 11.6 2.4-0.4 2z"/>
	<path id="Forma 62" style="fill: #6d92ab" d="m907.8 609.5h2v7.5h-2z"/>
	<path id="Forma 63" style="fill: #6d92ab" d="m907.5 616.3l0.8-1.8 16.3 7.2-0.9 1.8z"/>
	<path id="Forma 64" style="fill: #6d92ab" d="m908.3 630.9l-0.8-1.9 23.6-10.4 0.8 1.8z"/>
	<path id="Forma 65" style="fill: #6d92ab" d="m930.6 620.7v-2h172.4v2z"/>
	<path id="Forma 66" style="fill: #6d92ab" d="m1101.5 618.6h2v7.2h-2z"/>
	<path id="Forma 67" style="fill: #6d92ab" d="m1101.3 626.4v-2h81.6v2z"/>
	<path id="Forma 68" style="fill: #6d92ab" d="m1181.9 624.3h2v61.2h-2z"/>
	<path id="Forma 69" style="fill: #6d92ab" d="m1184.1 684.6v2h-35.9v-2z"/>
	<path id="Forma 70" style="fill: #6d92ab" d="m1147.2 684.4h2v40.5h-2z"/>
	<path id="Forma 71" style="fill: #6d92ab" d="m1147.2 725.6v-2h49.5v2z"/>
	<path id="Forma 72" style="fill: #6d92ab" d="m1196.9 725.9l-0.8-1.8 3-1.4 0.9 1.8z"/>
	<path id="Forma 73" style="fill: #6d92ab" d="m1200.6 723.8l-2-0.4 0.5-3.1 2 0.4z"/>
	<path id="Forma 74" style="fill: #6d92ab" d="m1201.2 720.1l-1.9 0.4-0.5-2.2 2-0.4z"/>
	<path id="Forma 75" style="fill: #6d92ab" d="m1200 716.7l-1 1.7-2.9-1.6 0.9-1.7z"/>
	<path id="Forma 76" style="fill: #6d92ab" d="m1196.7 715v2h-45.5v-2z"/>
	<path id="Forma 77" style="fill: #6d92ab" d="m1150.6 687.1h2v30h-2z"/>
	<path id="Forma 78" style="fill: #6d92ab" d="m1159.4 686.2h2v29.9h-2z"/>
	<path id="Forma 79" style="fill: #6d92ab" d="m1168.5 685.6h2v31.1h-2z"/>
	<path id="Forma 80" style="fill: #6d92ab" d="m1177.5 685.9h2v29.6h-2z"/>
	<path id="Forma 81" style="fill: #6d92ab" d="m1185.5 687.2h2v28.7h-2z"/>
	<path id="Forma 82" style="fill: #6d92ab" d="m1194.6 687.1h2v28.8h-2z"/>
	<path id="Forma 83" style="fill: #6d92ab" d="m1151.5 688.4v-2l45.5-0.1v2z"/>
	<path id="Forma 84" style="fill: #6d92ab" d="m1156.1 753.5v-2h28.9v2z"/>
	<path id="Forma 85" style="fill: #6d92ab" d="m1183 753.3l1.4-1.4 2 1.9-1.4 1.5z"/>
	<path id="Forma 86" style="fill: #6d92ab" d="m1184.8 755.5v-2h6.2v2z"/>
	<path id="Forma 87" style="fill: #6d92ab" d="m1192.1 755.4h-2v-30.8h2z"/>
	<path id="Forma 88" style="fill: #6d92ab" d="m1182.8 752.1h-2v-27.5h2z"/>
	<path id="Forma 89" style="fill: #6d92ab" d="m1174.6 752.5h-2v-28h2z"/>
	<path id="Forma 90" style="fill: #6d92ab" d="m1166.6 752.5h-2v-28h2z"/>
	<path id="Forma 91" style="fill: #6d92ab" d="m1157.5 752.3h-2v-27.4h2z"/>
	<path id="Forma 92" style="fill: #6d92ab" d="m1186.5 686.7h-2v-49.2h2z"/>
	<path id="Forma 93" style="fill: #6d92ab" d="m1185.2 639.6v-2h102v2z"/>
	<path id="Forma 94" style="fill: #6d92ab" d="m1285.3 638.9l1.5-1.3 6.4 6.8-1.5 1.4z"/>
	<path id="Forma 95" style="fill: #6d92ab" d="m1290.5 644.4l1.8-0.9 6.8 13.7-1.7 0.9z"/>
	<path id="Forma 96" style="fill: #6d92ab" d="m1297.3 657.9l1.9-0.6 4.8 15-1.9 0.6z"/>
	<path id="Forma 97" style="fill: #6d92ab" d="m1302.1 672.8l2-0.4 4 18.4-1.9 0.4z"/>
	<path id="Forma 98" style="fill: #6d92ab" d="m1306.2 691.1l2-0.2 2.2 17.9-2 0.3z"/>
	<path id="Forma 99" style="fill: #6d92ab" d="m1308.4 708.1h2v24h-2z"/>
	<path id="Forma 100" style="fill: #6d92ab" d="m1308.9 731l1.9 0.4-2.6 15.4-2-0.4z"/>
	<path id="Forma 101" style="fill: #6d92ab" d="m1306.6 745l1.9 0.4-4.2 18.7-1.9-0.5z"/>
	<path id="Forma 102" style="fill: #6d92ab" d="m1302.7 762.5l1.9 0.6-6 17.5-1.9-0.7z"/>
	<path id="Forma 103" style="fill: #6d92ab" d="m1297.5 778.6l1.7 1.1-12.2 19.7-1.7-1.1z"/>
	<path id="Forma 104" style="fill: #6d92ab" d="m1184.7 754.1h2v57.1h-2z"/>
	<path id="Forma 105" style="fill: #6d92ab" d="m1185.5 798.9v-2h102.2v2z"/>
	<path id="Forma 106" style="fill: #6d92ab" d="m1186.1 808.9v2h-83.4v-2z"/>
	<path id="Forma 107" style="fill: #6d92ab" d="m1102.4 809h2v7.9h-2z"/>
	<path id="Forma 108" style="fill: #6d92ab" d="m1104.2 815.7v2h-142.5v-2z"/>
	<path id="Forma 109" style="fill: #6d92ab" d="m962.6 815.6l-0.4 1.9-4.5-1.1 0.4-1.9z"/>
	<path id="Forma 110" style="fill: #6d92ab" d="m959.5 814.6l-0.7 1.9-4.5-1.6 0.7-1.9z"/>
	<path id="Forma 111" style="fill: #6d92ab" d="m956.1 813.6l-1.3 1.5-3.7-3 1.3-1.6z"/>
	<path id="Forma 112" style="fill: #6d92ab" d="m952.8 810.7l-1.5 1.3-3.1-3.2 1.5-1.4z"/>
	<path id="Forma 113" style="fill: #6d92ab" d="m950.4 807.9l-1.6 1.1-2.5-3.4 1.6-1.2z"/>
	<path id="Forma 114" style="fill: #6d92ab" d="m948.6 805.4l-1.9 0.8-1.7-4.2 1.9-0.7z"/>
	<path id="Forma 115" style="fill: #6d92ab" d="m947.3 801.7l-1.9 0.6-1.1-3.8 1.9-0.6z"/>
	<path id="Forma 116" style="fill: #6d92ab" d="m946.3 798.9h-2v-61.9h2z"/>
	<path id="Forma 117" style="fill: #6d92ab" d="m934.6 738.4v-2h19.9v2z"/>
	<path id="Forma 118" style="fill: #6d92ab" d="m955.3 738.9l-1.7-1.1 2.1-3 1.6 1.1z"/>
	<path id="Forma 119" style="fill: #6d92ab" d="m957.6 736.2h-2v-35h2z"/>
	<path id="Forma 120" style="fill: #6d92ab" d="m957.2 701.3l-1.7 1.2-1.7-2.4 1.6-1.2z"/>
	<path id="Forma 121" style="fill: #6d92ab" d="m934.3 700.4v-2h22.5v2z"/>
	<path id="Forma 122" style="fill: #6d92ab" d="m946.3 699.6h2v37.8h-2z"/>
	<path id="Forma 123" style="fill: #6d92ab" d="m937.9 699.6h2v38.2h-2z"/>
	<path id="Forma 124" style="fill: #6d92ab" d="m933.3 698.4h2v40h-2z"/>
	<path id="Forma 125" style="fill: #6d92ab" d="m907.9 628.9l1.6 1.2-3.4 4.4-1.6-1.2z"/>
	<path id="Forma 126" style="fill: #6d92ab" d="m904.5 632.9l1.9 0.6-1.8 6.3-1.9-0.5z"/>
	<path id="Forma 127" style="fill: #6d92ab" d="m902.7 638.4l2 0.3-1.2 7.5-1.9-0.3z"/>
	<path id="Forma 128" style="fill: #6d92ab" d="m901.5 645.6h2v45.3h-2z"/>
	<path id="Forma 129" style="fill: #6d92ab" d="m901.8 690.6l1.3-1.5 2.1 1.9-1.3 1.5z"/>
	<path id="Forma 130" style="fill: #6d92ab" d="m903.8 692.4v-2h29.2v2z"/>
	<path id="Forma 131" style="fill: #6d92ab" d="m930.6 691.9l1.3-1.5 3.7 3-1.3 1.5z"/>
	<path id="Forma 132" style="fill: #6d92ab" d="m933.6 693.2h2v6.2h-2z"/>
	<path id="Forma 133" style="fill: #6d92ab" d="m933.5 736.9h2v7.2h-2z"/>
	<path id="Forma 134" style="fill: #6d92ab" d="m934 742.1l1.3 1.5-3.2 2.9-1.3-1.5z"/>
	<path id="Forma 135" style="fill: #6d92ab" d="m932.2 744.4v2h-29.3v-2z"/>
	<path id="Forma 136" style="fill: #6d92ab" d="m903.5 744.5l1.4 1.4-1.9 2-1.5-1.4z"/>
	<path id="Forma 137" style="fill: #6d92ab" d="m901.6 746.3h2v48h-2z"/>
	<path id="Forma 138" style="fill: #6d92ab" d="m901.5 793.5l2-0.5 1.9 7.3-1.9 0.5z"/>
	<path id="Forma 139" style="fill: #6d92ab" d="m903.3 800l1.9-0.8 2.4 5.9-1.9 0.8z"/>
	<path id="Forma 140" style="fill: #6d92ab" d="m905.7 805.6l1.5-1.4 2.9 3.2-1.5 1.4z"/>
	<path id="Forma 141" style="fill: #6d92ab" d="m908.3 808.3l0.8-1.8 22 9.4-0.8 1.9z"/>
	<path id="Forma 142" style="fill: #6d92ab" d="m930 818.1v-2h76.7v2z"/>
	<path id="Forma 143" style="fill: #6d92ab" d="m923.2 813.2l0.8 1.8-14.2 6.1-0.8-1.9z"/>
	<path id="Forma 144" style="fill: #6d92ab" d="m909.5 819.1l1.1 1.7-1.8 1.2-1-1.7z"/>
	<path id="Forma 145" style="fill: #6d92ab" d="m907.8 820.4h2v6h-2z"/>
	<path id="Forma 146" style="fill: #6d92ab" d="m908.6 825.3l0.4 1.9-13.8 2.8-0.4-2z"/>
	<path id="Forma 147" style="fill: #6d92ab" d="m894.8 827.8l1.8 0.9-1.2 2.4-1.8-0.9z"/>
	<path id="Forma 148" style="fill: #6d92ab" d="m893.5 830.8l1.1-1.7 2.3 1.5-1.1 1.7z"/>
	<path id="Forma 149" style="fill: #6d92ab" d="m895.7 832.6v-2h24.3v2z"/>
	<path id="Forma 150" style="fill: #6d92ab" d="m917.7 831.7l2-0.1 0.1 2.3h-2z"/>
	<path id="Forma 151" style="fill: #6d92ab" d="m918 832.3l1.5 1.4-2.2 2.4-1.5-1.3z"/>
	<path id="Forma 152" style="fill: #6d92ab" d="m916.5 836.4v-2h28.5v2z"/>
	<path id="Forma 153" style="fill: #6d92ab" d="m944.6 836.5l-0.6-1.9 54.3-18.4 0.6 1.9z"/>
	<path id="Forma 154" style="fill: #6d92ab" d="m946.4 697.9h-2v-62.5h2z"/>
	<path id="Forma 155" style="fill: #6d92ab" d="m945.9 636.7l-1.8-0.9 3.8-7.4 1.8 0.9z"/>
	<path id="Forma 156" style="fill: #6d92ab" d="m949.5 629.5l-1.5-1.3 4.8-5.3 1.5 1.3z"/>
	<path id="Forma 157" style="fill: #6d92ab" d="m953.9 624.5l-0.7-1.9 8.6-3.4 0.7 1.9z"/>
	<path id="Forma 158" style="fill: #6d92ab" d="m1101.4 625.3h2v71.8h-2z"/>
	<path id="Forma 159" style="fill: #6d92ab" d="m1101.8 697.1l1.4-1.5 2 1.9-1.3 1.5z"/>
	<path id="Forma 160" style="fill: #6d92ab" d="m1103.7 699.4v-2h16.4v2z"/>
	<path id="Forma 161" style="fill: #6d92ab" d="m1120.5 699.6l-1.6-1.3 2.3-2.7 1.5 1.3z"/>
	<path id="Forma 162" style="fill: #6d92ab" d="m1123.1 696.4h-2v-55.4h2z"/>
	<path id="Forma 163" style="fill: #6d92ab" d="m1122.1 642v-2h35v2z"/>
	<path id="Forma 164" style="fill: #6d92ab" d="m1155.7 639.9h2v45.9h-2z"/>
	<path id="Forma 165" style="fill: #6d92ab" d="m1154.9 751.9h2v47.1h-2z"/>
	<path id="Forma 166" style="fill: #6d92ab" d="m1156.8 797.4v2h-30.9v-2z"/>
	<path id="Forma 167" style="fill: #6d92ab" d="m1127.2 798.2h-2v-49.3h2z"/>
	<path id="Forma 168" style="fill: #6d92ab" d="m1091 816.4l-0.8-1.8 7-3.1 0.8 1.8z"/>
	<path id="Forma 169" style="fill: #6d92ab" d="m1098.2 813.1l-1.5-1.3 4.1-4.8 1.5 1.3z"/>
	<path id="Forma 170" style="fill: #6d92ab" d="m1102.4 808.1l-1.8-0.8 2.8-6.7 1.9 0.7z"/>
	<path id="Forma 171" style="fill: #6d92ab" d="m1105.3 801h-2v-53.3h2z"/>
	<path id="Forma 172" style="fill: #6d92ab" d="m1104.2 748.7v-2h23.1v2z"/>
	<path id="Forma 173" style="fill: #6d92ab" d="m971.6 611.5v-2h169.4v2z"/>
	<path id="Forma 174" style="fill: #6d92ab" d="m1137.8 612.2v-2l78.4 2.1-0.1 2z"/>
	<path id="Forma 175" style="fill: #6d92ab" d="m1216.1 614.3l0.1-2 22.5 1.1-0.1 2z"/>
	<path id="Forma 176" style="fill: #6d92ab" d="m1238.5 615.4l0.3-2 20.5 3-0.3 2z"/>
	<path id="Forma 177" style="fill: #6d92ab" d="m1256 618.6l-0.1-2 12.2-0.9 0.1 2z"/>
	<path id="Forma 178" style="fill: #6d92ab" d="m1266.5 616.7l0.8-1.8 15.5 6.8-0.8 1.8z"/>
	<path id="Forma 179" style="fill: #6d92ab" d="m1280.7 622.6l1.2-1.6 11.6 9.4-1.3 1.6z"/>
	<path id="Forma 180" style="fill: #6d92ab" d="m1292.9 629.4l0.7 1.9-6 2.2-0.7-1.9z"/>
	<path id="Forma 181" style="fill: #6d92ab" d="m1286.4 632.8l1.5-1.3 9.1 10.3-1.5 1.4z"/>
	<path id="Forma 182" style="fill: #6d92ab" d="m1295.1 642.1l1.8-0.9 6.1 12.7-1.8 0.8z"/>
	<path id="Forma 183" style="fill: #6d92ab" d="m1301.1 654.6l1.9-0.6 5.1 14.8-1.9 0.7z"/>
	<path id="Forma 184" style="fill: #6d92ab" d="m1305.8 668.9l2-0.5 4.6 17.8-1.9 0.5z"/>
	<path id="Forma 185" style="fill: #6d92ab" d="m1310.5 686.4l2-0.2 1.4 12.1-1.9 0.3z"/>
	<path id="Forma 186" style="fill: #6d92ab" d="m1312 698.5l2-0.2 1.4 13-2 0.2z"/>
	<path id="Forma 187" style="fill: #6d92ab" d="m1313.6 711h2l-0.3 22.7-2-0.1z"/>
	<path id="Forma 188" style="fill: #6d92ab" d="m1313.4 733.5l2 0.3-2.7 16.4-2-0.3z"/>
	<path id="Forma 189" style="fill: #6d92ab" d="m1310.5 749l2 0.5-4.7 19.6-1.9-0.4z"/>
	<path id="Forma 190" style="fill: #6d92ab" d="m1306.3 767.5l1.9 0.7-6.9 19.6-1.9-0.6z"/>
	<path id="Forma 191" style="fill: #6d92ab" d="m1299.8 786.3l1.7 1.1-6.7 11.2-1.7-1z"/>
	<path id="Forma 192" style="fill: #6d92ab" d="m1294.4 796.3l1.4 1.4-7.8 7.7-1.4-1.4z"/>
	<path id="Forma 193" style="fill: #6d92ab" d="m1286.8 805.6l0.4-2 6.4 1.5-0.5 2z"/>
	<path id="Forma 194" style="fill: #6d92ab" d="m1293.1 804.5l1.2 1.6-9.7 7.5-1.2-1.6z"/>
	<path id="Forma 195" style="fill: #6d92ab" d="m1285.1 811l0.9 1.8-15.2 8.1-1-1.8z"/>
	<path id="Forma 196" style="fill: #6d92ab" d="m1270.9 818.2l0.2 2-8.4 1-0.2-2z"/>
	<path id="Forma 197" style="fill: #6d92ab" d="m1262.8 819.4v2l-13.8 0.1v-2z"/>
	<path id="Forma 198" style="fill: #6d92ab" d="m1249.9 819.9l0.2 2-23.8 2.6-0.2-2z"/>
	<path id="Forma 199" style="fill: #6d92ab" d="m1227 822.5v2l-78.1 2.4-0.1-2z"/>
	<path id="Forma 200" style="fill: #6d92ab" d="m1150.5 824.6l0.1 2-85.4 1.5-0.1-2z"/>
	<path id="Forma 201" style="fill: #6d92ab" d="m1066 826.2v2h-97.8v-2z"/>
	<path id="Forma 202" style="fill: #6d92ab" d="m959.3 831.1v-2l170.4-0.2v2z"/>
	<path id="Forma 203" style="fill: #6d92ab" d="m1128 830.8l-0.1-2 97.1-2.5 0.1 2z"/>
	<path id="Forma 204" style="fill: #6d92ab" d="m1225.1 828.3l-0.1-2 80.5-4.5 0.1 2z"/>
	<path id="Forma 205" style="fill: #6d92ab" d="m1305.1 823.9l-0.2-2 75.4-6.1 0.2 1.9z"/>
	<path id="Forma 206" style="fill: #6d92ab" d="m1380.5 817.7l-0.2-1.9 72.6-7.5 0.2 2z"/>
	<path id="Forma 207" style="fill: #6d92ab" d="m1452.3 810.4l-0.3-2 39.9-5.5 0.3 2z"/>
	<path id="Forma 208" style="fill: #6d92ab" d="m1492.4 804.8l-1-1.8 11.2-6.3 1 1.7z"/>
	<path id="Forma 209" style="fill: #6d92ab" d="m1503.8 798.2l-1.4-1.4 9-9.5 1.4 1.4z"/>
	<path id="Forma 210" style="fill: #6d92ab" d="m1512.7 789l-1.7-1.1 6.9-11.4 1.7 1z"/>
	<path id="Forma 211" style="fill: #6d92ab" d="m1519.8 777.4l-1.9-0.7 7.9-19.6 1.9 0.7z"/>
	<path id="Forma 212" style="fill: #6d92ab" d="m1527.7 757.8l-1.9-0.4 4.5-19.5 1.9 0.5z"/>
	<path id="Forma 213" style="fill: #6d92ab" d="m1532.3 738.6l-2-0.3 1.2-8.8 2 0.2z"/>
	<path id="Forma 214" style="fill: #6d92ab" d="m1533.5 729.7h-2v-24.7h2z"/>
	<path id="Forma 215" style="fill: #6d92ab" d="m1533.7 705l-2 0.4-5-22.9 2-0.4z"/>
	<path id="Forma 216" style="fill: #6d92ab" d="m1529 682.3l-1.8 0.8-8.5-20.8 1.8-0.8z"/>
	<path id="Forma 217" style="fill: #6d92ab" d="m1520.9 661.6l-1.7 1.1-12.8-18.7 1.7-1.2z"/>
	<path id="Forma 218" style="fill: #6d92ab" d="m1507.9 642.6l-1.2 1.6-10.8-8.3 1.2-1.6z"/>
	<path id="Forma 219" style="fill: #6d92ab" d="m1497.3 634.2l-0.6 1.9-9.5-3.2 0.7-1.9z"/>
	<path id="Forma 220" style="fill: #6d92ab" d="m1488.1 631.1l-0.2 2-64.5-7.7 0.3-2z"/>
	<path id="Forma 221" style="fill: #6d92ab" d="m1425.7 623.6l-0.2 2-64.1-6.2 0.2-2z"/>
	<path id="Forma 222" style="fill: #6d92ab" d="m1362.2 617.4l-0.1 2-82.9-5.9 0.1-2z"/>
	<path id="Forma 223" style="fill: #6d92ab" d="m1280.4 611.5v1.9l-87.5-3.8 0.1-2z"/>
	<path id="Forma 224" style="fill: #6d92ab" d="m1194.3 607.7v2l-92.7-2.1v-2z"/>
	<path id="Forma 225" style="fill: #6d92ab" d="m1101.8 605.4v2l-80.1-0.1v-2z"/>
	<path id="Forma 226" style="fill: #6d92ab" d="m1023.9 605.1v2l-66.9-0.3v-2z"/>
	<path id="Forma 227" style="fill: #6d92ab" d="m1364 713.4h2v10.4h-2z"/>
	<path id="Forma 228" style="fill: #6d92ab" d="m1364.2 723.6l1.4-1.5 4.7 4.2-1.3 1.5z"/>
	<path id="Forma 229" style="fill: #6d92ab" d="m1368.6 727.4l0.6-1.9 5.7 1.8-0.6 1.9z"/>
	<path id="Forma 230" style="fill: #6d92ab" d="m1373.6 728.9l0.5-1.9 4 1.1-0.5 1.9z"/>
	<path id="Forma 231" style="fill: #6d92ab" d="m1377.3 729.9v-2h9.8v2z"/>
	<path id="Forma 232" style="fill: #6d92ab" d="m1387 730.1l-0.6-1.9 7.7-2.4 0.6 1.9z"/>
	<path id="Forma 233" style="fill: #6d92ab" d="m1394.7 727.7l-1-1.7 4.6-2.8 1 1.7z"/>
	<path id="Forma 234" style="fill: #6d92ab" d="m1399.3 725l-1.7-1.1 2.4-3.9 1.7 1.1z"/>
	<path id="Forma 235" style="fill: #6d92ab" d="m1401.9 720.6h-2v-4.8h2z"/>
	<path id="Forma 236" style="fill: #6d92ab" d="m1401.8 715.9l-1.7 1.2-3.6-5.1 1.6-1.2z"/>
	<path id="Forma 237" style="fill: #6d92ab" d="m1398 710.9l-0.8 1.8-5.3-2.5 0.8-1.8z"/>
	<path id="Forma 238" style="fill: #6d92ab" d="m1393.3 708.3l-0.3 1.9-6.9-1.3 0.4-2z"/>
	<path id="Forma 239" style="fill: #6d92ab" d="m1387.4 707v2h-11.9v-2z"/>
	<path id="Forma 240" style="fill: #6d92ab" d="m1376.3 707l0.5 1.9-5.9 1.7-0.5-2z"/>
	<path id="Forma 241" style="fill: #6d92ab" d="m1371 708.5l0.9 1.8-3.3 1.6-0.8-1.8z"/>
	<path id="Forma 242" style="fill: #6d92ab" d="m1368.6 709.7l1.1 1.7-3.2 2.1-1.1-1.7z"/>
	<path id="Forma 243" style="fill: #6d92ab" d="m1366.3 711.2l1.3 1.5-2.1 1.8-1.3-1.5z"/>
	<path id="Forma 244" style="fill: #6d92ab" d="m1360.1 773.4v-2h35.5v2z"/>
	<path id="Forma 245" style="fill: #6d92ab" d="m1394 772.9l1.5-1.4 3.2 3.4-1.5 1.4z"/>
	<path id="Forma 246" style="fill: #6d92ab" d="m1360.2 771.1l1.5 1.3-2.9 3.4-1.5-1.3z"/>
	<path id="Forma 247" style="fill: #6d92ab" d="m1357.3 774.3h2v27.9h-2z"/>
	<path id="Forma 248" style="fill: #6d92ab" d="m1357.2 801.6l1.5-1.3 2.7 3.4-1.6 1.3z"/>
	<path id="Forma 249" style="fill: #6d92ab" d="m1396.6 774.4h2v28.6h-2z"/>
	<path id="Forma 250" style="fill: #6d92ab" d="m1359.9 804.4v-2l36.7-0.1 0.1 2z"/>
	<path id="Forma 251" style="fill: #6d92ab" d="m1396.1 804.6l-1.1-1.7 2.9-1.9 1.1 1.7z"/>
	<path id="Forma 252" style="fill: #6d92ab" d="m1441.2 760.6l1.4 1.4-2.9 2.8-1.4-1.5z"/>
	<path id="Forma 253" style="fill: #6d92ab" d="m1441.3 762.6v-2h28.3v2z"/>
	<path id="Forma 254" style="fill: #6d92ab" d="m1467.8 762l1.3-1.5 3.2 2.8-1.3 1.5z"/>
	<path id="Forma 255" style="fill: #6d92ab" d="m1470.5 763.5h2v27.7h-2z"/>
	<path id="Forma 256" style="fill: #6d92ab" d="m1470.7 789.7l1.8 0.9-1.8 3.5-1.8-0.9z"/>
	<path id="Forma 257" style="fill: #6d92ab" d="m1470.3 792.3v2h-30v-2z"/>
	<path id="Forma 258" style="fill: #6d92ab" d="m1442.6 792.9l-1.3 1.5-3-2.7 1.4-1.5z"/>
	<path id="Forma 259" style="fill: #6d92ab" d="m1440.6 791.8h-2v-28.8h2z"/>
	<path id="Forma 260" style="fill: #6d92ab" d="m1440.8 644.6v-2h29.2v2z"/>
	<path id="Forma 261" style="fill: #6d92ab" d="m1468.4 643.9l1.4-1.3 2.5 2.6-1.5 1.3z"/>
	<path id="Forma 262" style="fill: #6d92ab" d="m1441.1 642.6l1.4 1.5-2.9 2.7-1.4-1.5z"/>
	<path id="Forma 263" style="fill: #6d92ab" d="m1438.5 645.3h2v28.9h-2z"/>
	<path id="Forma 264" style="fill: #6d92ab" d="m1438.6 673.8l1.5-1.3 2.4 2.8-1.5 1.3z"/>
	<path id="Forma 265" style="fill: #6d92ab" d="m1441.2 676.5v-2h28.9v2z"/>
	<path id="Forma 266" style="fill: #6d92ab" d="m1469.9 676.2l-1.4-1.5 2.9-2.7 1.4 1.4z"/>
	<path id="Forma 267" style="fill: #6d92ab" d="m1472.5 673.5h-2v-29.2h2z"/>
	<path id="Forma 268" style="fill: #6d92ab" d="m1360 634.4v-2h36v2z"/>
	<path id="Forma 269" style="fill: #6d92ab" d="m1394.6 633.7l1.2-1.6 3.2 2.2-1.1 1.7z"/>
	<path id="Forma 270" style="fill: #6d92ab" d="m1396.6 634.5h2v28.5h-2z"/>
	<path id="Forma 271" style="fill: #6d92ab" d="m1360 632.1l1.5 1.3-2.7 3.1-1.5-1.3z"/>
	<path id="Forma 272" style="fill: #6d92ab" d="m1357.4 634.8h2v27.3h-2z"/>
	<path id="Forma 273" style="fill: #6d92ab" d="m1357 662.2l1.5-1.4 3.1 3.4-1.5 1.4z"/>
	<path id="Forma 274" style="fill: #6d92ab" d="m1360.2 665.4v-2h35.5v2z"/>
	<path id="Forma 275" style="fill: #6d92ab" d="m1395.7 665.9l-1.3-1.4 3.1-3 1.4 1.5z"/>
	<path id="Forma 276" style="fill: #6d92ab" d="m1421.9 636.1v2l-3.7 0.1v-2z"/>
	<path id="Forma 277" style="fill: #6d92ab" d="m1417.9 636.2l1 1.8-2.5 1.3-1-1.7z"/>
	<path id="Forma 278" style="fill: #6d92ab" d="m1415.2 637.8l1.5 1.3-1.6 1.8-1.5-1.4z"/>
	<path id="Forma 279" style="fill: #6d92ab" d="m1413.5 639.6l1.6 1.2-1.1 1.5-1.6-1.2z"/>
	<path id="Forma 280" style="fill: #6d92ab" d="m1412.3 641.3l1.8 0.8-0.9 1.9-1.8-0.8z"/>
	<path id="Forma 281" style="fill: #6d92ab" d="m1411.3 643.5l2 0.3-0.3 2.2-2-0.2z"/>
	<path id="Forma 282" style="fill: #6d92ab" d="m1411.1 646l1.9-0.2 0.3 2.2-2 0.2z"/>
	<path id="Forma 283" style="fill: #6d92ab" d="m1411.5 648.8l1.6-1.3 1.7 2.2-1.5 1.2z"/>
	<path id="Forma 284" style="fill: #6d92ab" d="m1413.3 651l1.5-1.4 1.2 1.4-1.5 1.3z"/>
	<path id="Forma 285" style="fill: #6d92ab" d="m1414.6 652.4l1.3-1.5 1.6 1.3-1.2 1.5z"/>
	<path id="Forma 286" style="fill: #6d92ab" d="m1416.6 653.9l0.8-1.8 2.2 1-0.8 1.8z"/>
	<path id="Forma 287" style="fill: #6d92ab" d="m1419.4 654.8l-0.2-2 2.6-0.2 0.1 2z"/>
	<path id="Forma 288" style="fill: #6d92ab" d="m1422.2 654.6l-0.6-2 2.2-0.6 0.5 1.9z"/>
	<path id="Forma 289" style="fill: #6d92ab" d="m1424.9 653.4l-1.5-1.2 1.7-2.1 1.5 1.3z"/>
	<path id="Forma 290" style="fill: #6d92ab" d="m1426.6 651.4l-1.5-1.3 1.6-1.8 1.5 1.4z"/>
	<path id="Forma 291" style="fill: #6d92ab" d="m1428.3 649.4l-1.8-0.8 1.1-2.2 1.8 0.8z"/>
	<path id="Forma 292" style="fill: #6d92ab" d="m1429.5 646.7l-2 0.1-0.2-4.6 2-0.1z"/>
	<path id="Forma 293" style="fill: #6d92ab" d="m1429 641.5l-1.4 1.4-2-1.9 1.4-1.5z"/>
	<path id="Forma 294" style="fill: #6d92ab" d="m1427 639.5l-1.5 1.4-1.8-1.8 1.4-1.5z"/>
	<path id="Forma 295" style="fill: #6d92ab" d="m1424.8 637.4l-0.7 1.9-1.9-0.7 0.7-1.9z"/>
	<path id="Forma 296" style="fill: #6d92ab" d="m1422.5 636.6l-0.4 1.9-1-0.2 0.3-1.9z"/>
	<path id="Forma 297" style="fill: #6d92ab" d="m1418.4 784.3l-0.1-2 3.3-0.2 0.1 2z"/>
	<path id="Forma 298" style="fill: #6d92ab" d="m1421 784.1l0.9-1.7 2.6 1.4-0.9 1.7z"/>
	<path id="Forma 299" style="fill: #6d92ab" d="m1423.4 785.4l1.1-1.7 2.5 1.8-1.1 1.6z"/>
	<path id="Forma 300" style="fill: #6d92ab" d="m1425.6 786.8l1.7-1.1 1.1 1.7-1.7 1.1z"/>
	<path id="Forma 301" style="fill: #6d92ab" d="m1426.6 788.4l2-0.5 0.3 1.6-1.9 0.5z"/>
	<path id="Forma 302" style="fill: #6d92ab" d="m1427.1 790.2l2-0.2 0.1 1.7-2 0.1z"/>
	<path id="Forma 303" style="fill: #6d92ab" d="m1427.3 791.5l2 0.2-0.2 3.2-2-0.1z"/>
	<path id="Forma 304" style="fill: #6d92ab" d="m1427.1 793.8l1.7 1-1.5 2.6-1.7-1z"/>
	<path id="Forma 305" style="fill: #6d92ab" d="m1426 795.8l1.3 1.5-1.9 1.6-1.3-1.5z"/>
	<path id="Forma 306" style="fill: #6d92ab" d="m1424.6 797l0.9 1.8-2.5 1.1-0.9-1.8z"/>
	<path id="Forma 307" style="fill: #6d92ab" d="m1422.4 797.9l0.7 1.9-2.7 1-0.7-1.9z"/>
	<path id="Forma 308" style="fill: #6d92ab" d="m1420.6 798.7l-0.2 2-2.5-0.2 0.1-2z"/>
	<path id="Forma 309" style="fill: #6d92ab" d="m1418.4 798.5l-0.8 1.8-2-0.8 0.7-1.9z"/>
	<path id="Forma 310" style="fill: #6d92ab" d="m1417.1 797.8l-1.3 1.5-1.6-1.3 1.3-1.5z"/>
	<path id="Forma 311" style="fill: #6d92ab" d="m1416.2 796.9l-1.4 1.4-2.1-2.2 1.5-1.3z"/>
	<path id="Forma 312" style="fill: #6d92ab" d="m1414.6 794.9l-1.7 1.1-1.5-2.5 1.6-1.1z"/>
	<path id="Forma 313" style="fill: #6d92ab" d="m1413.6 793l-2 0.1-0.2-2.9 2-0.1z"/>
	<path id="Forma 314" style="fill: #6d92ab" d="m1413.6 790.4l-2 0.1-0.1-2.3 2-0.1z"/>
	<path id="Forma 315" style="fill: #6d92ab" d="m1413.3 789.1l-1.5-1.4 2.1-2.4 1.5 1.3z"/>
	<path id="Forma 316" style="fill: #6d92ab" d="m1415.1 786.8l-1.2-1.7 2-1.3 1.1 1.6z"/>
	<path id="Forma 317" style="fill: #6d92ab" d="m1416.8 785.6l-1-1.8 2.4-1.3 1 1.8z"/>
	<path id="Forma 318" style="fill: #6d92ab" d="m1418.3 785l-0.2-2 3.8-0.3 0.1 2z"/>
</svg>