<?xml version="1.0" standalone="no"?>
<!DOCTYPE svg PUBLIC "-//W3C//DTD SVG 1.1//EN" "http://www.w3.org/Graphics/SVG/1.1/DTD/svg11.dtd" >
<svg xmlns="http://www.w3.org/2000/svg" xmlns:xlink="http://www.w3.org/1999/xlink" version="1.1">
<metadata></metadata>
<defs>
<font id="polarlight" horiz-adv-x="1232" >
<font-face units-per-em="2048" ascent="1638" descent="-410" />
<missing-glyph horiz-adv-x="661" />
<glyph unicode="&#xfb01;" horiz-adv-x="1212" d="M113 1036v66q0 14 14 14h117q39 0 49 -10q-8 12 -8 49v182q0 129 86 218.5t217 89.5h405q14 0 15 -15v-67q0 -14 -15 -15h-377q-111 0 -169 -59t-58 -170v-164q0 -37 -8 -49q10 10 51 10h576q12 0 12 -12v-1079q0 -14 -12 -15h-80q-14 0 -15 15v997h-483q-37 0 -49 12 q8 -16 8 -49v-960q0 -14 -12 -15h-80q-12 0 -12 15v960q0 33 8 49q-12 -12 -49 -12h-117q-14 0 -14 14z" />
<glyph unicode="&#xfb02;" horiz-adv-x="1300" d="M113 1036v66q0 14 14 14h117q39 0 49 -10q-8 12 -8 49v182q0 129 86 217t217 91h45h2h463q10 0 10 -13v-6v-1601q0 -14 -12 -15h-80q-12 0 -12 15v1523h-388q-111 0 -169 -59t-58 -170v-164q0 -37 -8 -49q10 10 51 10h213q12 0 12 -14v-66q0 -14 -12 -14h-215 q-37 0 -49 12q8 -16 8 -49v-960q0 -14 -12 -15h-80q-12 0 -12 15v960q0 33 8 49q-12 -12 -49 -12h-117q-14 0 -14 14z" />
<glyph horiz-adv-x="0" />
<glyph horiz-adv-x="682" />
<glyph unicode="&#x9;" horiz-adv-x="661" />
<glyph unicode=" "  horiz-adv-x="661" />
<glyph unicode="&#x09;" horiz-adv-x="661" />
<glyph unicode="&#xa0;" horiz-adv-x="661" />
<glyph unicode="!" horiz-adv-x="641" d="M266 1481q0 12 15 12h77q14 0 15 -12l-4 -1149q0 -14 -15 -15h-67q-14 0 -15 15zM272 14v150q0 12 15 12h67q12 0 13 -12v-150q0 -14 -13 -14h-67q-14 0 -15 14z" />
<glyph unicode="&#x22;" horiz-adv-x="694" d="M102 1528q-2 14 15 14h90q14 0 14 -14l-22 -277q-2 -14 -15 -14h-45q-12 0 -14 14zM399 1524q-2 14 15 14h90q14 0 14 -14l-24 -277q0 -14 -13 -14h-45q-12 0 -14 14z" />
<glyph unicode="#" horiz-adv-x="1761" d="M188 414v59q0 12 19 12h311l76 484h-320q-20 0 -20 14v57q0 14 20 15h334l66 411q2 12 14 13h64q14 0 14 -17l-66 -407h463l66 411q2 12 14 13h64q14 0 14 -17l-66 -407h306q18 0 18 -15v-57q0 -14 -18 -14h-320l-78 -484h330q20 0 20 -12v-59q0 -12 -20 -13h-344 l-70 -426q-2 -10 -12 -10h-59q-16 0 -17 15l68 421h-465l-70 -426q-2 -10 -12 -10h-59q-16 0 -17 15l68 421h-297q-18 0 -19 13zM608 485h465l76 484h-463z" />
<glyph unicode="$" horiz-adv-x="1118" d="M125 285v143q0 14 14 14h80q16 0 17 -14v-141q0 -82 55 -137.5t137 -55.5h274q76 0 128.5 56.5t52.5 136.5v149q0 117 -127 176l-455 207q-80 35 -126 101.5t-46 140.5v65q0 117 86 199t207 82h84v235q0 14 12 15h70q12 0 12 -15v-235h78q123 0 207 -84t84 -205v-67 q0 -16 -15 -17h-80q-16 0 -16 17v75q0 76 -55 129.5t-133 53.5h-246q-76 0 -131 -54.5t-55 -130.5v-55q0 -57 32.5 -103t87.5 -71l467 -213q80 -35 124 -102.5t44 -153.5v-141q0 -119 -86 -203t-209 -84h-100v-203q0 -14 -14 -14h-68q-14 0 -14 14v203h-84q-121 0 -207 84 t-86 203z" />
<glyph unicode="%" horiz-adv-x="2293" d="M180 770v541q0 109 64 184q66 80 164 80h149q94 0 162 -78q66 -78 65 -186v-541q0 -106 -65 -184q-66 -78 -162 -78h-149q-96 0 -164 78q-63 78 -64 184zM276 786q0 -88 37 -137q41 -51 117 -51h102q76 0 117 51q39 49 39 137v510q0 86 -39 136q-41 51 -117 51h-102 q-76 0 -117 -51q-37 -49 -37 -136v-510zM872 172l441 938q6 12 14 12h64q18 0 10 -16l-440 -936q-6 -12 -17 -12h-61q-18 0 -11 14zM1509 57v543q0 106 64 184q68 80 164 80h149q96 0 162 -80q66 -76 66 -184v-543q0 -106 -64 -182q-68 -80 -164 -80h-149q-96 0 -162 80 q-66 76 -66 182zM1606 74q0 -86 39 -135q38 -52 116 -52h103q76 0 114 52q39 49 39 135v510q0 88 -39 137q-39 51 -114 51h-103q-78 0 -116 -51q-39 -49 -39 -137v-510z" />
<glyph unicode="&#x26;" horiz-adv-x="1478" d="M225 305v227q0 139 105 228q12 10 12 25.5t-12 25.5q-100 86 -101 227v152q0 127 88.5 215t214.5 88h164q125 0 214 -88t89 -215v-39q0 -12 -14 -12h-80q-12 0 -12 12v18q0 109 -59.5 169.5t-169.5 60.5h-101q-109 0 -169 -60.5t-60 -169.5v-118q0 -106 59.5 -165 t169.5 -59h791q12 0 12 -12v-61q0 -12 -12 -13h-172v-438q0 -127 -89 -216t-216 -89h-347q-127 0 -216 90t-89 217zM332 324q0 -111 58 -171.5t169 -60.5h289q111 0 169 59.5t58 170.5v419h-514q-111 0 -170 -60t-59 -173v-184z" />
<glyph unicode="'" horiz-adv-x="397" d="M139 1524q0 14 15 14h90q16 0 14 -14l-22 -277q-2 -14 -15 -14h-45q-12 0 -12 14z" />
<glyph unicode="(" horiz-adv-x="671" d="M219 -133v1397q0 121 74 206.5t190 102.5q14 2 15 -12v-62q0 -12 -15 -14q-82 -18 -127 -80t-45 -164v-1358q0 -205 172 -239q14 -2 15 -15v-61q-1 -14 -15 -12q-117 16 -190.5 103t-73.5 208z" />
<glyph unicode=")" horiz-adv-x="671" d="M174 -371q0 12 12 15q172 35 172 239v1358q0 102 -44 163.5t-128 80.5q-12 2 -12 14v62q0 14 14 12q117 -16 191 -102.5t74 -206.5v-1397q0 -121 -74 -208t-191 -103q-14 -2 -14 12v61z" />
<glyph unicode="*" horiz-adv-x="1177" d="M223 985q-8 12 4 21l248 172l51 24q-41 18 -51 27l-248 172q-12 6 -4 18l33 54q8 12 18 2l222 -156l61 -49q-10 61 -10 73v275q0 14 12 14h59q14 0 15 -14v-275l-10 -73q47 41 59 49l221 158q10 8 19 -4l32 -52q8 -12 -2 -20l-250 -172l-53 -27q43 -18 53 -24l250 -172 q10 -8 2 -21l-32 -51q-6 -12 -19 -4l-221 155l-59 50q10 -61 10 -74v-273q0 -14 -15 -14h-59q-12 0 -12 14v273q0 6 2 24.5t4 34.5l2 15l-13 -11q-12 -10 -26 -22t-20 -17l-222 -155q-10 -8 -18 4z" />
<glyph unicode="+" horiz-adv-x="1146" d="M135 670v65q0 12 12 13h381v374q0 12 13 13h63q14 0 14 -13v-374h379q12 0 13 -13v-65q0 -14 -13 -15h-379v-403q0 -12 -14 -12h-63q-12 0 -13 12v403h-381q-12 0 -12 15z" />
<glyph unicode="," horiz-adv-x="481" d="M178 -180q0 6 8 6l4 2q29 8 40.5 28.5t11.5 73.5v70h-43q-12 0 -13 14v138q0 14 13 14h92q12 0 12 -14v-138v-4v-4v-92q0 -119 -104 -141h-13q-8 -2 -8 6v41z" />
<glyph unicode="-" horiz-adv-x="956" d="M190 563v60q0 14 13 14h549q14 0 14 -14v-60q0 -14 -14 -14h-549q-12 0 -13 14z" />
<glyph unicode="." horiz-adv-x="473" d="M176 14v138q0 14 14 14h91q14 0 14 -14v-138q0 -14 -14 -14h-91q-14 0 -14 14z" />
<glyph unicode="/" horiz-adv-x="557" d="M-25 12l498 1389q4 10 16 10h80q14 0 13 -14l-502 -1389q-4 -12 -17 -12h-75q-14 0 -13 16z" />
<glyph unicode="0" horiz-adv-x="1189" d="M180 338v725q0 139 89 239.5t220 100.5h213q129 0 218.5 -100.5t89.5 -239.5v-725q0 -139 -89.5 -239.5t-218.5 -100.5h-213q-131 0 -220 100.5t-89 239.5zM285 358q0 -123 60 -194.5t177 -71.5h146q117 0 177 72t60 194v684q0 123 -60.5 196t-176.5 73h-146 q-117 0 -177 -73t-60 -196v-684z" />
<glyph unicode="1" horiz-adv-x="741" d="M37 1319v70q0 12 14 12h371q14 0 14 -12l-2 -1262q0 -29 -10 -47q23 12 55 12h191q14 0 14 -14v-66q0 -12 -14 -12h-559q-14 0 -15 12v66q0 14 15 14h180q33 0 53 -12q-10 18 -10 47v1145q0 27 10 47q-25 -12 -53 -12h-240q-14 0 -14 12z" />
<glyph unicode="2" horiz-adv-x="1015" d="M57 14v150q0 43 16.5 73.5t59.5 61.5l574 477q39 37 57 67.5t18 82.5v123q0 119 -59 190.5t-170 71.5h-166q-162 0 -213 -142l-2 -8q0 -10 -12 -10h-86q-10 0 -8 12l2 8q29 102 106.5 167t183.5 65h217q133 0 222.5 -100.5t89.5 -237.5v-139q0 -135 -127 -230l-567 -467 q-31 -25 -31 -55v-47q0 -27 -10 -45q23 10 51 10h684q14 0 14 -14v-66q0 -12 -14 -12h-815q-14 0 -15 14z" />
<glyph unicode="3" horiz-adv-x="1042" d="M55 240q-2 14 8 14h87q12 0 12 -10l2 -13q23 -66 78 -102.5t135 -36.5h211q117 0 177 72t60 194v97q0 123 -60 194.5t-177 71.5h-211q-12 0 -12 10v64q0 8 12 8h188q113 0 174.5 65.5t61.5 155.5v39q0 119 -59.5 183.5t-176.5 64.5h-172q-164 0 -213 -142l-2 -8 q-2 -10 -14 -10h-84q-12 0 -8 12l2 8q29 102 105.5 167t182.5 65h234q135 0 223 -91t88 -229v-71q0 -55 -29.5 -113.5t-78.5 -99.5q-31 -27 -51 -33q20 0 51 -23q59 -43 95 -115.5t36 -152.5v-139q0 -139 -89 -238.5t-223 -99.5h-270q-106 0 -184 65.5t-107 167.5z" />
<glyph unicode="4" horiz-adv-x="1112" d="M47 342l2 76q0 8 4 14l682 963q4 6 13 6h110q8 0 8 -6v-942q0 -29 -10 -43q18 8 47 8h154q14 0 14 -12v-62q0 -14 -14 -14h-154q-29 0 -47 10q10 -16 10 -45v-283q0 -12 -14 -12h-80q-12 0 -12 12v285q0 27 8 43q-16 -10 -47 -10h-662q-12 0 -12 12zM133 408q33 10 78 10 h510q31 0 47 -8q-8 14 -8 43v778q0 31 6 53q-10 -27 -27 -47l-555 -774q-23 -33 -51 -55z" />
<glyph unicode="5" horiz-adv-x="1028" d="M78 231v9q-4 14 8 14h84q12 0 14 -10v-13q25 -66 79 -102.5t134 -36.5h219q113 0 171.5 72t58.5 188v142q0 119 -58.5 190.5t-171.5 71.5h-241q-18 0 -35 -6l-66 -27q-18 -6 -28 -6h-72q-18 0 -18 20v652q0 12 14 12h702q12 0 13 -12v-68q0 -14 -13 -14h-571 q-29 0 -51 10q12 -20 12 -45v-445q0 -12 -8 -26q18 10 27 12l57 23q20 6 39 6h264q131 0 221 -100.5t90 -237.5v-166q0 -139 -90 -239.5t-221 -100.5h-272q-106 0 -184.5 65.5t-106.5 167.5z" />
<glyph unicode="6" horiz-adv-x="1122" d="M180 338v743q0 137 89 230.5t223 93.5l210 -2q106 0 185.5 -64.5t105.5 -167.5l2 -8q2 -12 -8 -12h-84q-12 0 -14 10l-2 8q-47 139 -211 142h-162q-113 0 -171 -63.5t-58 -180.5v-252q0 -14 -9 -29q16 10 27 15l57 20q20 6 39 6h318q133 0 222 -100t89 -240v-149 q0 -139 -89 -239.5t-222 -100.5h-228q-135 0 -222 100.5t-87 239.5zM279 707q6 -10 6 -19v-336q0 -119 60 -189.5t173 -70.5h176q113 0 171.5 72t58.5 188v127q0 119 -59.5 189.5t-172.5 70.5h-289q-20 0 -36 -6l-62 -24q-12 -2 -26 -2z" />
<glyph unicode="7" horiz-adv-x="872" d="M37 1321v68q0 12 14 12h754q10 0 10 -12v-84q0 -8 -6 -21l-444 -1274q-4 -10 -15 -10h-78q-16 0 -10 14l432 1237q16 49 43 72q-39 -16 -73 -16h-613q-14 0 -14 14z" />
<glyph unicode="8" horiz-adv-x="1110" d="M113 336v137q0 86 35.5 161t97.5 111q37 18 63 23q-29 6 -65 31q-51 31 -79 91t-28 122v71q0 135 87 227.5t222 92.5h218q135 0 222 -92t87 -228v-71q0 -61 -27.5 -122t-79.5 -91q-43 -29 -69 -29q24 -2 67 -25q61 -37 97 -111.5t36 -160.5v-137q0 -139 -89 -238.5 t-222 -99.5h-262q-131 0 -221 99.5t-90 238.5zM219 358q0 -123 60.5 -194.5t175.5 -71.5h200q115 0 176.5 71.5t61.5 194.5v97q0 123 -61.5 194.5t-176.5 71.5h-200q-115 0 -175.5 -71.5t-60.5 -194.5v-97zM242 1024q0 -90 62.5 -155.5t174.5 -65.5h154q111 0 173 65.5 t62 155.5v39q0 117 -59 181.5t-176 64.5h-154q-119 0 -178 -64.5t-59 -181.5v-39z" />
<glyph unicode="9" horiz-adv-x="1122" d="M94 911v154q0 139 89 239.5t223 100.5h229q133 0 221 -100.5t88 -239.5v-746q0 -135 -89 -228t-222 -93h-219q-106 2 -184 66.5t-107 166.5l-2 7q-2 12 8 12h86q10 0 12 -8l2 -11q49 -137 211 -139h168q115 0 172.5 63.5t57.5 180.5v248q0 14 8 28q-16 -10 -27 -12 l-59 -22q-16 -4 -35 -5h-319q-133 0 -222.5 100.5t-89.5 237.5zM199 922q0 -119 59 -191t172 -72h289q18 0 35 7l63 24q10 4 27 2q-6 10 -6 19v340q0 119 -59.5 189.5t-174.5 70.5h-176q-111 0 -170 -72t-59 -188v-129z" />
<glyph unicode=":" horiz-adv-x="473" d="M176 14v138q0 14 14 14h91q14 0 14 -14v-138q0 -14 -14 -14h-91q-14 0 -14 14zM176 682v137q0 14 14 15h91q14 0 14 -15v-137q0 -14 -14 -14h-91q-14 0 -14 14z" />
<glyph unicode=";" horiz-adv-x="481" d="M176 682v137q0 14 14 15h91q14 0 14 -15v-137q0 -14 -14 -14h-91q-14 0 -14 14zM178 -180q0 6 8 6l4 2q29 8 40.5 28.5t11.5 73.5v70h-43q-12 0 -13 14v138q0 14 13 14h92q12 0 12 -14v-138v-4v-4v-92q0 -119 -104 -141h-13q-8 -2 -8 6v41z" />
<glyph unicode="&#x3c;" horiz-adv-x="1110" d="M141 700q-14 6 0 15l820 471q14 8 14 -10v-82q0 -11 -8 -15l-586 -338q-43 -27 -100 -34q57 -8 100 -33l586 -338q8 -4 8 -14v-82q0 -18 -14 -11z" />
<glyph unicode="=" horiz-adv-x="1153" d="M135 385v61q0 14 12 15h857q14 0 14 -15v-61q0 -12 -14 -12h-857q-12 0 -12 12zM135 762v63q0 12 12 13h857q14 0 14 -13v-63q0 -12 -14 -12h-857q-12 0 -12 12z" />
<glyph unicode="&#x3e;" horiz-adv-x="1110" d="M135 240v82q0 10 8 14l586 338q43 25 100 33q-57 8 -100 34l-586 338q-8 4 -8 15v82q0 18 17 10l817 -471q14 -8 0 -15l-817 -471q-16 -8 -17 11z" />
<glyph unicode="?" horiz-adv-x="1144" d="M180 1049v141q0 127 87 215t216 88h176q127 0 216.5 -88t89.5 -215v-156q0 -90 -43 -163.5t-121 -108.5l-125 -64q-57 -29 -92 -78t-35 -110l-2 -178q0 -14 -12 -15h-70q-14 0 -14 15v194q2 86 48 152.5t128 107.5l123 62q106 53 106 184v162q0 80 -54 138.5t-134 62.5 h-183q-84 0 -143 -58.5t-59 -142.5v-145q0 -14 -15 -15h-73q-14 0 -15 15zM453 14v142q0 14 14 14h68q14 0 14 -14v-142q0 -14 -14 -14h-68q-14 0 -14 14z" />
<glyph unicode="@" horiz-adv-x="1918" d="M186 557q0 367 215 598t574 231q352 0 555 -216.5t203 -583.5q0 -80 -16.5 -166t-50.5 -167t-95.5 -132t-140.5 -51q-123 0 -168 133q-35 -49 -62 -66q-76 -68 -180 -67h-141q-127 0 -216.5 89t-89.5 218v356q0 127 89.5 217t211.5 90h134q78 0 168 -57q41 -27 61 -61 q-6 35 -6 86v10q0 10 14 10h76q12 0 12 -14v-727q0 -127 111 -127q53 0 95 46t62.5 116.5t29.5 134t9 116.5q0 334 -173 529.5t-492 195.5q-324 0 -511.5 -204.5t-187.5 -536.5t187.5 -537.5t511.5 -205.5q188 0 330 77q8 4 10 -2l37 -63q4 -6 -2 -10q-156 -90 -375 -90 q-352 0 -570.5 232t-218.5 599zM680 389q0 -113 58.5 -169t170.5 -56h88q111 0 170.5 57t59.5 168v332q0 111 -59.5 168t-170.5 57h-88q-113 0 -171 -57.5t-58 -167.5v-332z" />
<glyph unicode="A" horiz-adv-x="1165" d="M90 14l344 1381q2 10 17 10h266q12 0 14 -10l344 -1379q6 -16 -12 -16h-82q-14 0 -16 10l-95 400q-2 6 -4 34q-14 -6 -35 -6h-497q-20 0 -35 6q-2 -29 -2 -34l-96 -400q-2 -10 -17 -10h-84q-14 0 -10 14zM309 524q23 6 41 6h465q18 0 41 -6q-20 27 -27 49l-170 703 q-4 20 7 37q-6 -6 -23 -6h-121q-16 0 -22 6q12 -16 6 -37l-170 -703q-6 -23 -27 -49z" />
<glyph unicode="B" horiz-adv-x="1173" d="M205 14v1377q0 14 16 14h561q123 0 208 -84t85 -205v-135q0 -61 -26.5 -118.5t-73.5 -96.5q-16 -12 -31 -23q14 -8 31 -22q47 -39 75.5 -96.5t28.5 -116.5v-219q0 -119 -87 -204t-210 -85h-561q-16 0 -16 14zM307 86q35 8 45 8h398q100 0 158.5 55.5t58.5 151.5v188 q0 100 -56.5 155.5t-158.5 55.5h-400q-23 0 -45 11q6 -25 6 -43v-539q0 -12 -6 -43zM307 776q20 10 45 10h400q102 0 158.5 55.5t56.5 155.5v101q0 102 -56.5 156.5t-158.5 54.5h-400q-18 0 -45 10q6 -23 6 -43v-457q0 -18 -6 -43z" />
<glyph unicode="C" horiz-adv-x="1163" d="M180 289v827q0 121 86 206t207 85h285q121 0 207 -85t86 -206v-90q0 -14 -15 -14h-80q-14 0 -14 14v74q0 98 -58.5 154.5t-158.5 56.5h-219q-102 0 -159.5 -56.5t-57.5 -154.5v-795q0 -98 57 -154.5t160 -56.5h219q100 0 158.5 56.5t58.5 154.5v90q0 14 14 15h80 q14 0 15 -15v-106q0 -121 -86 -206t-207 -85h-285q-121 0 -207 85t-86 206z" />
<glyph unicode="D" horiz-adv-x="1261" d="M205 14v1377q0 14 14 14h567q123 0 209 -85t86 -206v-823q0 -121 -86 -206t-209 -85h-567q-14 0 -14 14zM307 88q23 10 45 10h404q100 0 158.5 55.5t58.5 149.5v799q0 94 -58.5 149.5t-158.5 55.5h-404q-25 0 -45 10q6 -20 6 -43v-1143q0 -23 -6 -43z" />
<glyph unicode="E" horiz-adv-x="1038" d="M205 14v1377q0 14 16 14h699q12 0 12 -14v-70q0 -14 -12 -14h-568q-23 0 -45 10q6 -20 6 -43v-438q0 -23 -6 -43q23 10 45 10h514q14 0 15 -15v-63q0 -14 -15 -14h-514q-23 0 -47 8q8 -18 8 -41v-547q0 -25 -6 -43q23 10 45 10h613q14 0 14 -14v-70q0 -14 -14 -14h-744 q-16 0 -16 14z" />
<glyph unicode="F" horiz-adv-x="954" d="M205 14v1377q0 14 16 14h699q12 0 12 -14v-70q0 -14 -12 -14h-568q-23 0 -47 10q8 -18 8 -43v-453q0 -23 -6 -41q20 8 45 8h471q14 0 15 -14v-63q0 -14 -15 -15h-471q-23 0 -45 11q6 -20 6 -43v-650q0 -14 -14 -14h-80q-14 0 -14 14z" />
<glyph unicode="G" horiz-adv-x="1193" d="M180 289v827q0 121 86 206t209 85h266q123 0 209 -85t86 -204v-49q0 -14 -14 -14h-80q-14 0 -14 14v35q0 96 -57.5 151.5t-159.5 55.5h-205q-102 0 -159.5 -56.5t-57.5 -152.5v-797q0 -98 57 -154.5t160 -56.5h205q100 0 158.5 55.5t58.5 153.5v311q0 23 8 45 q-23 -10 -45 -10h-213q-14 0 -14 15l2 57q0 14 12 14h346q12 0 12 -14v-432q0 -121 -86 -206t-209 -85h-266q-123 0 -209 85t-86 206z" />
<glyph unicode="H" horiz-adv-x="1282" d="M193 14v1377q0 14 14 14h80q14 0 14 -14v-588q0 -23 -6 -41q20 8 43 8h604q23 0 45 -8q-8 18 -8 41v588q0 14 14 14h80q14 0 14 -14v-1377q0 -14 -14 -14h-80q-14 0 -14 14v631q0 25 8 43q-23 -8 -45 -8h-604q-23 0 -43 8q6 -20 6 -43v-631q0 -14 -14 -14h-80 q-14 0 -14 14z" />
<glyph unicode="I" horiz-adv-x="520" d="M205 14v1377q0 14 14 14h80q14 0 14 -14v-1377q0 -14 -14 -14h-80q-14 0 -14 14z" />
<glyph unicode="J" horiz-adv-x="573" d="M-6 23q0 16 14 16h47q100 0 158.5 53t58.5 150v1149q0 14 17 14h78q14 0 14 -14v-1153q0 -121 -86 -206t-209 -85h-78q-14 0 -14 14v62z" />
<glyph unicode="K" horiz-adv-x="1148" d="M205 14v1377q0 14 14 14h80q14 0 14 -14v-668q0 -68 -10 -123q27 47 70 102l557 695q6 8 16 8h101q10 0 12 -5t-4 -14l-404 -499q-14 -16 -24 -19q14 -14 20 -24l496 -828q10 -16 -10 -16h-91q-10 0 -16 8l-438 737q-14 25 -19 56q-12 -25 -32 -51l-197 -246 q-10 -12 -35 -29q2 -2 4 -7t3 -11t1 -13v-430q0 -14 -14 -14h-80q-14 0 -14 14z" />
<glyph unicode="L" horiz-adv-x="880" d="M207 14v1377q0 14 14 14h78q16 0 16 -14v-1258q0 -25 -8 -45q20 10 45 10h520q14 0 15 -16v-68q0 -14 -15 -14h-651q-14 0 -14 14z" />
<glyph unicode="M" horiz-adv-x="1689" d="M205 14v1377q0 14 16 14h103q12 0 16 -12l473 -1143q23 -53 31 -103q10 51 30 105l476 1141q4 12 16 12h102q14 0 15 -14v-1377q0 -14 -15 -14h-77q-16 0 -17 14v1057q0 82 12 180q-18 -66 -63 -174l-438 -1061q-4 -12 -15 -12h-51q-10 0 -16 12l-436 1059 q-45 106 -66 174q12 -96 12 -180v-1055q0 -14 -14 -14h-78q-16 0 -16 14z" />
<glyph unicode="N" horiz-adv-x="1363" d="M205 14v1377q0 14 16 14h84q12 0 19 -10l677 -1125q39 -66 58 -110q-10 78 -10 125v1106q0 14 16 14h78q14 0 14 -14v-1377q0 -14 -14 -14h-82q-12 0 -19 10l-680 1131q-41 68 -59 110q10 -76 10 -123v-1114q0 -14 -14 -14h-78q-16 0 -16 14z" />
<glyph unicode="O" d="M180 289v827q0 121 86 206t207 85h287q121 0 207 -85t86 -206v-827q0 -121 -86 -206t-207 -85h-287q-121 0 -207 85t-86 206zM289 305q0 -98 57.5 -154.5t159.5 -56.5h221q100 0 158.5 56.5t58.5 154.5v795q0 98 -58.5 154.5t-158.5 56.5h-221q-102 0 -159.5 -56.5 t-57.5 -154.5v-795z" />
<glyph unicode="P" horiz-adv-x="1105" d="M193 14v1377q0 14 16 14h526q123 0 210 -84t87 -205v-248q0 -121 -87 -204.5t-210 -83.5h-393q-27 0 -47 10q6 -20 6 -45v-531q0 -14 -14 -14h-78q-16 0 -16 14zM293 1317q8 -20 8 -45v-563q0 -23 -6 -43q20 10 43 10h369q100 0 157.5 55.5t57.5 149.5l2 221 q0 94 -58.5 149.5t-158.5 55.5h-369q-20 0 -45 10z" />
<glyph unicode="Q" d="M180 289v827q0 121 86 206t207 85h287q121 0 207 -85t86 -206v-827q0 -119 -85 -204t-204 -87h-68q-23 0 -41 8q6 -18 7 -43v-190q0 -14 -15 -15h-59q-16 0 -17 15v190q0 25 9 43q-20 -8 -41 -8h-70q-119 2 -204 87t-85 204zM289 305q0 -98 57.5 -154.5t159.5 -56.5h221 q100 0 158.5 56.5t58.5 154.5v795q0 98 -58.5 154.5t-158.5 56.5h-221q-102 0 -159.5 -56.5t-57.5 -154.5v-795z" />
<glyph unicode="R" horiz-adv-x="1167" d="M205 14v1377q0 14 16 14h529q123 0 208.5 -84t85.5 -205v-168q0 -111 -76.5 -191.5t-187.5 -88.5q-39 0 -71 8q25 -29 43 -62l329 -596q4 -8 0 -13t-12 -5h-82q-12 0 -18 10l-340 621q-10 16 -17 39q-14 -10 -34 -11h-230q-23 0 -41 9q6 -18 6 -41v-613q0 -14 -14 -14 h-78q-16 0 -16 14zM307 743q20 8 45 9h367q100 0 158.5 55t58.5 151v144q0 96 -58.5 150.5t-160.5 54.5h-365q-23 0 -45 10q6 -20 6 -43v-488q0 -23 -6 -43z" />
<glyph unicode="S" horiz-adv-x="1081" d="M125 289v139q0 14 14 14h78q16 0 16 -14v-123q0 -98 57.5 -154.5t160.5 -56.5h180q100 0 158.5 56.5t58.5 154.5v127q0 115 -129 178l-418 205q-80 39 -126 103.5t-46 138.5v59q0 121 87 206t208 85h217q125 0 209 -85t84 -206v-65q0 -14 -14 -15h-78q-16 0 -17 15v57 q0 92 -57 147.5t-156 55.5h-163q-98 0 -154.5 -55.5t-56.5 -149.5v-37q0 -115 120 -174l433 -213q166 -80 165 -256v-137q0 -121 -87 -206t-210 -85h-239q-123 0 -209 85t-86 206z" />
<glyph unicode="T" horiz-adv-x="847" d="M-39 1323v68q0 14 16 14h893q16 0 17 -14v-68q0 -16 -17 -16h-354q-23 0 -45 10q6 -18 6 -43v-1260q0 -14 -14 -14h-78q-14 0 -14 14v1260q0 25 8 43q-27 -10 -47 -10h-355q-16 0 -16 16z" />
<glyph unicode="U" horiz-adv-x="1245" d="M186 291v1100q0 14 15 14h78q16 0 16 -14v-1086q0 -98 58.5 -154.5t158.5 -56.5h221q102 0 159.5 56.5t57.5 154.5v1086q0 14 17 14h77q14 0 15 -14v-1100q0 -121 -86 -207t-209 -86h-283q-123 0 -209 86t-86 207z" />
<glyph unicode="V" horiz-adv-x="1161" d="M45 1386q-6 18 12 19h82q12 0 17 -12l401 -1133q14 -45 25 -100q8 55 24 98l400 1135q4 12 18 12h82q18 0 12 -19l-493 -1374q-4 -12 -19 -12h-51q-14 0 -18 12z" />
<glyph unicode="W" horiz-adv-x="1624" d="M12 1389q-4 16 13 16h81q12 0 17 -12l289 -1151q16 -61 22 -129q8 68 25 129l293 1151q4 12 16 12h88q14 0 16 -12l293 -1153q16 -61 25 -129q6 70 22 131l289 1151q4 12 17 12h81q16 0 13 -16l-359 -1377q-4 -12 -16 -12h-92q-12 0 -17 12l-292 1131q-16 63 -23 129 q-8 -63 -25 -127l-292 -1133q-4 -12 -17 -12h-92q-12 0 -16 12z" />
<glyph unicode="X" horiz-adv-x="1087" d="M29 18l440 701q8 12 20 20q-12 8 -20 19l-410 628q-6 8 -3 13.5t14 5.5h94q10 0 16 -8l334 -518q16 -27 29 -66q10 35 28 61l336 523q6 8 17 8h94q10 0 13 -5t-3 -14l-410 -628q-8 -10 -22 -19q14 -10 22 -20l441 -701q6 -8 2 -13t-12 -5h-93q-12 0 -18 8l-367 588 q-20 33 -28 59q-10 -33 -29 -63l-364 -584q-6 -8 -19 -8h-92q-23 0 -10 18z" />
<glyph unicode="Y" horiz-adv-x="1042" d="M-12 1386q-10 18 10 19h86q12 0 18 -10l392 -688q18 -33 26 -72q10 39 29 72l391 688q4 10 16 10h86q20 0 11 -19l-467 -823q-6 -8 -13 -14v-4q2 -4 2 -8v-523q0 -14 -16 -14h-78q-16 0 -16 14v523q0 2 1 7l1 5q-6 6 -10 14z" />
<glyph unicode="Z" horiz-adv-x="921" d="M35 16v58q0 18 10 35l643 1148q8 16 45 60q-29 -10 -71 -10h-551q-16 0 -17 16v68q0 14 17 14h716q10 0 11 -16v-60q0 -16 -9 -33l-645 -1149q-12 -25 -47 -61q31 12 78 12h668q14 0 14 -16v-68q0 -14 -14 -14h-838q-10 0 -10 16z" />
<glyph unicode="[" horiz-adv-x="677" d="M233 -436v1999q0 14 13 14h243q14 0 15 -14v-60q0 -12 -15 -12h-163v-1853h163q14 0 15 -15v-59q0 -14 -15 -15h-243q-12 0 -13 15z" />
<glyph unicode="\" horiz-adv-x="557" d="M-25 1397q-2 14 13 14h80q12 0 16 -10l498 -1389q2 -16 -13 -16h-75q-12 0 -17 12z" />
<glyph unicode="]" horiz-adv-x="677" d="M174 -377q0 14 14 15h164v1851h-164q-14 0 -14 14v60q0 14 14 14h242q14 0 14 -14v-1999q0 -14 -14 -15h-242q-14 0 -14 15v59z" />
<glyph unicode="^" horiz-adv-x="1409" d="M96 926l471 817q8 14 15 0l471 -817q8 -16 -11 -17h-81q-10 0 -15 9l-338 585q-25 43 -35 101q-8 -57 -32 -101l-338 -585q-4 -8 -17 -9h-82q-16 0 -8 17z" />
<glyph unicode="_" horiz-adv-x="1107" d="M266 12v68q0 12 15 12h548q12 0 13 -12v-68q0 -12 -13 -12h-548q-14 0 -15 12z" />
<glyph unicode="`" horiz-adv-x="598" d="M151 1527q3 5 11 5h71q10 0 17 -8l168 -242q10 -14 -8 -14h-58q-8 0 -14 8l-184 240q-6 6 -3 11z" />
<glyph unicode="a" horiz-adv-x="1097" d="M113 287v63q0 123 86 204t213 81h360q29 0 45 -8q-6 16 -6 37v153q0 102 -57.5 159.5t-163.5 57.5h-119q-102 0 -156.5 -56t-54.5 -161v-6q0 -12 -12 -12h-80q-12 0 -12 14v25q0 119 85 204.5t205 85.5h175q121 0 209 -88t88 -211v-806q0 -12 -15 -13h-74q-14 0 -14 13 v20q0 27 10 78q-18 -35 -63 -68q-74 -55 -170 -55h-184q-121 0 -208 84t-87 205zM219 309q0 -106 57.5 -161.5t167.5 -55.5h146q106 0 163.5 55.5t57.5 159.5v219q0 12 4 35q-16 -10 -43 -10h-332q-106 0 -163.5 -57.5t-57.5 -163.5v-21z" />
<glyph unicode="b" horiz-adv-x="1140" d="M193 25v1605q0 14 12 15h80q14 0 14 -15v-549q0 -25 -8 -73q18 35 61 65q74 55 172 55h156q131 0 213 -86t82 -219v-518q0 -135 -83 -221t-214 -86h-160q-90 0 -168 59q-41 29 -61 64q6 -33 6 -64v-32q0 -14 -14 -15h-76q-12 0 -12 15zM299 313q0 -221 207 -221h147 q217 1 217 232v479q0 231 -217 231h-147q-207 0 -207 -221v-500z" />
<glyph unicode="c" horiz-adv-x="1064" d="M170 307v512q0 135 84 222t217 87h158q135 0 218 -88t83 -215v-39q0 -14 -12 -14h-80q-14 0 -15 14v23q0 225 -215 225h-116q-217 0 -218 -231v-479q0 -231 218 -232h116q215 0 215 225v25q0 12 15 12h80q12 0 12 -12v-41q0 -127 -83 -215t-218 -88h-158q-133 0 -217 88 t-84 221z" />
<glyph unicode="d" horiz-adv-x="1142" d="M164 305v518q0 133 83 219t212 86h157q98 0 172 -55q45 -31 64 -65q-8 49 -8 73v549q0 14 12 15h80q12 0 12 -15v-1605q0 -14 -12 -15h-76q-12 0 -12 15v32q0 31 4 64q-18 -35 -61 -64q-78 -59 -168 -59h-162q-131 0 -214 86t-83 221zM270 324q0 -232 215 -232h150 q209 0 209 221v500q0 221 -209 221h-150q-215 0 -215 -231v-479z" />
<glyph unicode="e" horiz-adv-x="1091" d="M164 305v516q0 127 89 217t216 90h193q117 0 211 -83.5t94 -202.5v-271q0 -12 -13 -12h-643q-35 0 -51 10q10 -16 10 -47v-205q0 -106 57.5 -165.5t166.5 -59.5h139q102 0 157.5 56.5t55.5 160.5v6q0 12 12 13h80q12 0 12 -13v-24q-4 -121 -91 -207t-206 -86h-184 q-127 0 -216 90t-89 217zM262 633q16 10 49 10h510q33 0 49 -10q-8 18 -8 47v141q0 102 -57 157.5t-164 55.5h-149q-106 0 -164 -55t-58 -158v-141q0 -29 -8 -47z" />
<glyph unicode="f" horiz-adv-x="720" d="M113 1036v66q0 14 14 14h117q39 0 49 -10q-8 12 -8 49v182q0 129 86 217t217 91h45q12 0 12 -15v-67q0 -14 -14 -15h-15q-111 0 -169 -59t-58 -170v-164q0 -37 -8 -49q10 10 51 10h213q12 0 12 -14v-66q0 -14 -12 -14h-215q-37 0 -49 12q8 -16 8 -49v-960q0 -14 -12 -15 h-80q-12 0 -12 15v960q0 33 8 49q-12 -12 -49 -12h-117q-14 0 -14 14z" />
<glyph unicode="g" horiz-adv-x="1093" d="M94 -154q0 80 42 146.5t110 99.5q-47 23 -71.5 59.5t-24.5 75.5v47q0 45 31.5 86t94.5 62q-127 82 -126 252v153q2 135 85.5 218t217.5 83h180q92 0 166 -43q10 -6 16 -12q2 6 10 10q70 45 154 45h115q12 0 12 -14v-67q0 -12 -12 -13h-97q-68 0 -114 -20h-9.5t-6.5 1 l-3 1q20 -18 21 -29q49 -66 49 -160v-153q0 -135 -85 -218t-216 -83h-189q-197 0 -196 -105v-37q0 -102 201 -102h251h6q121 0 204 -80q85 -82 85 -205v-65q0 -123 -90 -206t-215 -83h-297q-125 0 -212 82t-87 207v67zM190 -168v-33q0 -102 62.5 -159.5t171.5 -57.5h242 q102 0 167.5 56.5t65.5 152.5v41q0 98 -62 153.5t-171 55.5h-273q-76 0 -139.5 -54.5t-63.5 -154.5zM256 688q0 -221 209 -221h153q209 0 209 221v125q0 221 -209 221h-153q-209 0 -209 -221v-125z" />
<glyph unicode="h" horiz-adv-x="1120" d="M193 25v1605q0 14 12 15h80q14 0 14 -15v-549q0 -25 -8 -73q18 35 61 65q76 55 172 55h123q131 0 213 -86t82 -219v-798q0 -14 -12 -15h-80q-12 0 -12 15v778q0 231 -217 231h-105q-217 0 -217 -233v-776q0 -14 -14 -15h-80q-12 0 -12 15z" />
<glyph unicode="i" horiz-adv-x="487" d="M190 25v1079q0 12 15 12h80q12 0 12 -12v-1079q0 -14 -12 -15h-80q-14 0 -15 15zM190 1315v145q0 12 15 13h80q12 0 12 -13v-145q0 -12 -12 -12h-80q-14 0 -15 12z" />
<glyph unicode="j" horiz-adv-x="503" d="M-70 -424q0 12 13 12h47q104 2 160.5 61.5t56.5 170.5v1284q0 12 12 12h80q14 0 14 -12v-1307q0 -127 -90 -217t-217 -90h-61q-14 0 -15 12v74zM209 1315v145q0 12 14 13h80q12 0 12 -13v-145q0 -12 -12 -12h-80q-14 0 -14 12z" />
<glyph unicode="k" horiz-adv-x="999" d="M193 25v1611q0 14 12 15h80q14 0 14 -13v-995q0 -88 -16 -156q29 61 84 134l415 526q6 8 17 8h96q8 0 10 -5t-4 -13l-321 -402q-12 -18 -25 -22q12 -6 23 -25l391 -659q8 -16 -11 -17h-86q-12 0 -18 11l-330 565q-20 35 -26 65q-4 -27 -33 -63l-158 -199q-6 -8 -12 -8 l2 -5t2 -11v-342q0 -14 -14 -15h-80q-12 0 -12 15z" />
<glyph unicode="l" horiz-adv-x="491" d="M193 25v1601q0 12 12 12h80q14 0 14 -12v-1601q0 -14 -14 -15h-80q-12 0 -12 15z" />
<glyph unicode="m" horiz-adv-x="1806" d="M190 25v1079q0 12 15 12h74q12 0 12 -10v-16q0 -4 1 -11q0 -23 -5 -82q18 47 59 76q74 55 170 55h160q141 0 229 -110q20 -25 25 -55q4 20 35 57q90 108 224 108h7h135q123 0 210 -88t87 -215v-800q0 -14 -12 -15h-80q-14 0 -14 15v778q0 115 -57.5 173t-166.5 58h-102 q-106 0 -163.5 -57t-57.5 -162v-790q0 -14 -14 -15h-80q-12 0 -13 15v778q0 115 -57 173t-166 58h-127q-106 0 -163.5 -57t-57.5 -162v-790q0 -14 -14 -15h-78q-14 0 -15 15z" />
<glyph unicode="n" horiz-adv-x="1159" d="M190 25v1079q0 12 15 12h74q12 0 12 -10v-16q0 -16 -1 -35t-3 -36.5t-2 -23.5q20 49 61 78q74 55 170 55h166q123 0 211 -88t88 -215v-800q0 -14 -12 -15h-80q-14 0 -15 15v778q0 115 -57 173t-166 58h-133q-106 0 -163.5 -57t-57.5 -162v-790q0 -14 -14 -15h-78 q-14 0 -15 15z" />
<glyph unicode="o" horiz-adv-x="1112" d="M164 307v512q0 135 85 222t218 87h178q135 0 219 -87t84 -222v-512q0 -135 -84 -222t-217 -87h-182q-133 0 -217 87t-84 222zM270 324q0 -231 215 -232h142q215 0 215 232v479q0 231 -215 231h-142q-215 0 -215 -231v-479z" />
<glyph unicode="p" horiz-adv-x="1140" d="M193 -504v1608q0 12 12 12h76q14 0 14 -12v-35q0 -29 -6 -61q20 33 61 63q78 57 168 57h162q131 0 214 -86t83 -219v-518q0 -135 -82 -221t-213 -86h-158q-98 0 -172 57q-43 31 -61 64q8 -49 8 -74v-549q0 -12 -14 -12h-80q-12 0 -12 12zM299 315q0 -223 207 -223h149 q217 0 217 232v481q0 231 -217 231h-149q-207 0 -207 -221v-500z" />
<glyph unicode="q" horiz-adv-x="1140" d="M164 305v518q0 133 83 219t214 86h162q88 0 168 -57q41 -31 59 -63q-4 33 -4 61v35q0 12 12 12h78q12 0 12 -12v-1608q0 -12 -12 -12h-82q-12 0 -12 12v549q0 25 8 74q-18 -33 -62 -64q-76 -57 -174 -57h-155q-129 0 -212 86t-83 221zM270 324q0 -232 215 -232h148 q209 0 209 223v500q0 221 -209 221h-148q-215 0 -215 -231v-481z" />
<glyph unicode="r" horiz-adv-x="700" d="M193 25v1079q0 12 12 12h76q12 0 12 -10v-16q0 -16 -1 -34t-2 -35t-3 -24q20 47 61 76q74 55 170 55h119q14 0 14 -12v-69q0 -12 -14 -13h-117q-104 0 -162.5 -57t-58.5 -164v-788q0 -14 -14 -15h-80q-12 0 -12 15z" />
<glyph unicode="s" horiz-adv-x="987" d="M111 231v107q0 14 14 14h76q12 0 14 -12v-113q0 -57 41 -96t100 -39h291q55 0 93 41t38 96v146q0 43 -24.5 76.5t-65.5 46.5l-387 110q-78 20 -126 76.5t-48 134.5v76q0 96 67.5 164.5t165.5 68.5h269q98 0 166.5 -68.5t70.5 -164.5v-51q0 -14 -14 -15h-76q-14 0 -14 13 v59q-2 55 -43 94t-98 39h-267q-53 0 -91 -40t-38 -97v-86q0 -41 30 -71.5t75 -45.5l385 -110q76 -18 119 -78t43 -133v-140q0 -98 -68 -166.5t-166 -68.5h-295q-98 0 -166.5 68.5t-70.5 164.5z" />
<glyph unicode="t" horiz-adv-x="817" d="M94 1036v66q0 14 15 14h198q33 0 49 -8q-8 16 -8 47v291q0 8 14 14l76 35q14 6 15 -8v-332q0 -37 -9 -49q10 10 52 10h213q14 0 14 -14v-66q0 -14 -14 -14h-215q-35 0 -50 10q8 -14 9 -47v-960q0 -14 -13 -15h-80q-12 0 -12 15v960q0 29 8 45q-16 -8 -49 -8h-198 q-14 0 -15 14z" />
<glyph unicode="u" horiz-adv-x="1146" d="M184 303v801q0 12 15 12h80q12 0 12 -12v-780q0 -113 57.5 -172.5t165.5 -59.5h115q106 0 163.5 58.5t57.5 162.5v791q0 12 12 12h80q14 0 14 -12v-1079q0 -14 -14 -15h-74q-14 0 -14 13v14q0 16 2 34.5t3 36t3 23.5q-20 -47 -61 -78q-74 -55 -170 -55h-148 q-123 0 -211 89t-88 216z" />
<glyph unicode="v" horiz-adv-x="1054" d="M90 1112q-6 16 10 16h76q12 0 17 -12l303 -860q25 -76 32 -141q6 66 31 141l303 860q4 12 17 12h75q16 0 11 -16l-390 -1100q-4 -12 -16 -12h-63q-12 0 -17 12z" />
<glyph unicode="w" horiz-adv-x="1656" d="M90 1112q-6 16 10 16h76q12 0 17 -12l272 -858q20 -61 27 -125q6 68 24 129l266 844q4 12 15 12h63q10 0 14 -12l267 -844q18 -59 24 -129q6 63 27 125l272 858q4 12 17 12h75q16 0 11 -16l-357 -1100q-4 -12 -16 -12h-57q-12 0 -17 12l-280 903q-6 20 -13 54 q-4 -37 -10 -56l-282 -901q-2 -12 -15 -12h-57q-12 0 -17 12z" />
<glyph unicode="x" horiz-adv-x="952" d="M20 16l379 562q8 14 23 22q-14 8 -23 21l-331 489q-4 6 -2 12t12 6h86q12 0 16 -10l266 -397q25 -39 29 -68q6 29 31 70l264 395q4 10 16 10h86q10 0 12.5 -6t-1.5 -12l-330 -489q-10 -12 -23 -21q12 -8 23 -22l379 -562q10 -16 -10 -16h-86q-12 0 -17 8l-313 467 q-25 37 -31 66q-4 -29 -29 -66l-313 -467q-6 -8 -16 -8h-88q-20 0 -9 16z" />
<glyph unicode="y" horiz-adv-x="991" d="M43 1112q-6 16 10 16h76q12 0 16 -12l328 -930q14 -45 16 -75q4 31 21 77l326 928q4 10 14 10l78 2q16 0 12 -16l-473 -1331q-49 -139 -116.5 -215t-180.5 -76h-68q-14 0 -14 14v72q0 14 14 14h60q41 0 72.5 11.5t50 25t38 48t28.5 58t28 74.5l65 185q0 2 6 7l5 5 q-18 -6 -23 6z" />
<glyph unicode="z" horiz-adv-x="903" d="M43 29v69q0 2 2 6l627 869q35 47 84 67q-39 -8 -115 -8h-491q-14 0 -15 15v67q0 14 15 14h681q10 0 11 -18v-63q0 -6 -4 -11l-627 -870q-33 -47 -78 -70q37 10 111 10h604q14 0 14 -14v-67q0 -14 -14 -15h-795q-10 0 -10 19z" />
<glyph unicode="{" horiz-adv-x="917" d="M170 526v66q0 12 14 12h19q233 2 233 254v481q0 123 88 205t207 82h90q14 0 15 -12v-62q0 -14 -15 -14h-69q-109 0 -165.5 -57.5t-56.5 -167.5v-498q0 -68 -30.5 -128t-85.5 -101q-27 -20 -49 -29q23 -10 47 -33q102 -88 102 -221v-500q0 -109 57.5 -166t163.5 -57h86 q14 0 15 -14v-60q0 -14 -15 -14h-104q-121 0 -209 83t-88 206v481q0 252 -225 252h-11q-14 0 -14 12z" />
<glyph unicode="|" horiz-adv-x="493" d="M193 -500v1983q0 12 12 12h82q14 0 14 -12v-1983q0 -12 -14 -12h-82q-12 0 -12 12z" />
<glyph unicode="}" horiz-adv-x="917" d="M82 -434q0 14 14 14h86q106 0 163.5 57.5t57.5 165.5v500q0 133 103 221q27 23 47 33q-23 8 -49 29q-55 41 -86 101.5t-31 127.5v498q0 111 -56.5 168t-164.5 57h-70q-14 0 -14 14v62q0 12 14 12h90q121 0 208 -82t87 -205v-481q0 -252 234 -254h18q14 0 15 -12v-66 q0 -12 -15 -12h-10q-225 -2 -225 -252v-481q0 -123 -88 -206t-209 -83h-105q-14 0 -14 14v60z" />
<glyph unicode="~" horiz-adv-x="1183" d="M258 451q6 84 59.5 140t135.5 56q31 0 60.5 -10t44.5 -19.5t52 -33.5q72 -55 115 -56q47 0 78 33t35 80q2 10 12 10h63q14 0 13 -12q-6 -84 -60.5 -140.5t-134.5 -56.5q-70 0 -158 64q-76 55 -114 55q-47 0 -78 -32.5t-35 -77.5q-2 -12 -14 -13h-62q-14 0 -12 13z" />
<glyph unicode="&#xa1;" horiz-adv-x="641" d="M266 -344l6 1149q0 14 15 14h67q14 0 15 -14l4 -1149q0 -14 -15 -14h-77q-14 0 -15 14zM272 1008v112q0 14 15 15h67q12 0 13 -15v-112q0 -14 -13 -15h-67q-14 0 -15 15z" />
<glyph unicode="&#xa2;" horiz-adv-x="1064" d="M170 307v512q0 135 84 222t217 87h47v232q0 12 14 12h66q14 0 14 -12v-232h17q135 0 218 -88t83 -215v-39q0 -14 -12 -14h-80q-14 0 -15 14v23q0 225 -215 225h-116q-217 0 -218 -231v-479q0 -231 218 -232h116q215 0 215 225v25q0 12 15 12h80q12 0 12 -12v-41 q0 -127 -83 -215t-218 -88h-17v-277q0 -14 -14 -14h-66q-14 0 -14 14v277h-47q-133 0 -217 88t-84 221z" />
<glyph unicode="&#xa3;" horiz-adv-x="1318" d="M117 10v70q0 12 12 12h21q111 0 170 60.5t59 175.5v336h-248q-12 0 -12 12v65q0 12 12 13h248v346q0 127 89 217t214 90h221q125 0 214 -89t89 -216v-45q0 -12 -12 -13h-84q-12 0 -12 13v18q0 113 -59.5 172.5t-170.5 59.5h-147q-113 0 -173.5 -59.5t-60.5 -172.5v-321 h437q12 0 12 -13v-65q0 -12 -12 -12h-437v-357q0 -127 -98 -209h477q113 0 172.5 57.5t59.5 168.5v22q0 12 12 12h82q12 0 12 -12v-41q0 -127 -89 -217t-212 -90h-774q-12 0 -12 12z" />
<glyph unicode="&#xa4;" horiz-adv-x="1751" d="M262 2l178 184q-139 160 -139 388.5t139 386.5l-178 186q-10 10 0 18l45 47q8 8 17 0l180 -186q156 127 372 127t371 -127l180 186q8 8 19 0l45 -47q8 -8 0 -18l-180 -186q141 -158 141 -386.5t-141 -388.5l178 -184q8 -8 0 -18l-45 -45q-10 -10 -19 0l-178 184 q-156 -129 -372 -129t-371 129l-178 -184q-9 -10 -19 0l-45 45q-8 10 0 18zM399 574.5q0 -209.5 133.5 -345t343 -135.5t343 135.5t133.5 345t-133.5 344t-343 134.5t-343 -134.5t-133.5 -344z" />
<glyph unicode="&#xa5;" horiz-adv-x="1042" d="M-12 1386q-10 18 10 19h86q12 0 18 -10l392 -688q12 -20 20 -48h12q10 25 23 48l391 688q4 10 16 10h86q20 0 11 -19l-414 -727h346q12 0 12 -14v-63q0 -14 -12 -15h-397l-2 -4q-6 -8 -13 -14v-4q2 -4 2 -8v-156h410q12 0 12 -14v-64q0 -14 -12 -14h-410v-275 q0 -14 -16 -14h-78q-16 0 -16 14v275h-408q-14 0 -14 14v64q0 14 14 14h408v156q0 2 1 7l1 5q-6 6 -10 14l-2 4h-398q-14 0 -14 15v63q0 14 14 14h344z" />
<glyph unicode="&#xa6;" horiz-adv-x="493" d="M193 303q0 12 12 12h82q14 0 14 -12v-803q0 -12 -14 -12h-82q-12 0 -12 12v803zM193 680v803q0 12 12 12h82q14 0 14 -12v-803q0 -12 -14 -12h-82q-12 0 -12 12z" />
<glyph unicode="&#xa7;" horiz-adv-x="1409" d="M252 -53q0 14 14 14h82q14 0 14 -14v-150q0 -88 58.5 -147.5t144.5 -59.5h289q82 0 137.5 60.5t55.5 146.5v176q0 125 -136 189l-475 221q-80 35 -129 104.5t-49 149.5v51q0 74 34 135.5t91 100.5q-57 39 -91 97t-34 124v51q0 125 89 211t214 86h250q127 0 214 -89 t87 -216v-74q0 -12 -12 -12h-82q-14 0 -14 12v82q0 82 -58.5 139.5t-142.5 57.5h-240q-82 0 -139 -58.5t-57 -140.5v-41q0 -61 33.5 -110.5t91.5 -75.5l489 -228q84 -37 129 -107.5t45 -162.5v-168q0 -92 -51 -168q51 -74 51 -172v-168q0 -125 -89 -214t-214 -89h-295 q-127 0 -216 90t-89 215v152zM367 647q0 -61 33.5 -111.5t91.5 -76.5l466 -219q33 -14 62 -39q27 47 27 102v176q0 125 -136 191l-426 198q-53 -23 -85.5 -71.5t-32.5 -108.5v-41z" />
<glyph unicode="&#xa8;" horiz-adv-x="718" d="M152 1300v142q0 12 14 12h65q14 0 15 -12v-142q0 -14 -15 -14h-65q-14 0 -14 14zM473 1300v142q0 12 12 12h68q14 0 14 -12v-142q0 -14 -14 -14h-68q-12 0 -12 14z" />
<glyph unicode="&#xa9;" horiz-adv-x="1693" d="M246 878.5q0 262.5 171 434.5t430 172t430 -172t171 -434.5t-171 -434.5t-430 -172t-430 172t-171 434.5zM305 878.5q0 -239.5 150.5 -394t390 -154.5t391.5 154.5t152 394t-152 393t-391.5 153.5t-390 -153.5t-150.5 -393zM563 692v367q0 90 62.5 153.5t152.5 63.5h111 q70 0 126 -42t77 -106q4 -12 -9 -12h-57q-8 0 -10 8q-12 37 -50 61.5t-100 24.5h-73q-158 0 -158 -166v-339q0 -80 41 -122t117 -42h73q59 0 97 22.5t51 57.5q4 8 10 8h57q12 0 9 -11q-23 -63 -77.5 -103t-123.5 -40h-111q-90 0 -152.5 63.5t-62.5 153.5z" />
<glyph unicode="&#xaa;" horiz-adv-x="862" d="M113 891v45q0 86 61.5 143.5t151.5 57.5h254q20 0 32 -7q-4 12 -4 27v109q0 74 -41 113.5t-116 39.5h-84q-72 0 -111 -40t-39 -113v-4q0 -8 -8 -9h-57q-8 0 -9 9v18q0 84 60.5 145.5t146.5 61.5h123q86 0 147.5 -62.5t61.5 -150.5v-569q0 -10 -8 -11h-53q-10 0 -11 8v17 q0 18 6 53q-12 -25 -43 -47q-53 -39 -120 -39h-131q-86 0 -147.5 59.5t-61.5 145.5zM156 516v43q0 8 6 8h471q8 0 8 -8v-43q0 -10 -8 -10h-471q-6 0 -6 10zM188 905q0 -154 160 -153h103q76 0 116.5 39.5t40.5 113.5v156q0 8 2 22q-12 -6 -30 -6h-236q-74 0 -115 -41 t-41 -114v-17z" />
<glyph unicode="&#xab;" horiz-adv-x="1046" d="M174 553v63q0 8 10 19l222 223q6 4 11 1t5 -9v-72q0 -8 -8 -16l-140 -150q-14 -14 -14 -26.5t14 -28.5l140 -149q8 -8 8 -17v-72q0 -8 -5 -11t-11 3l-222 226q-10 8 -10 16zM621 553v63q0 8 10 19l223 223q4 4 9 1t5 -9v-72q0 -8 -8 -16l-139 -150q-14 -14 -14 -26.5 t14 -28.5l139 -149q8 -8 8 -17v-72q0 -8 -5 -11t-9 3l-223 226q-10 8 -10 16z" />
<glyph unicode="&#xac;" horiz-adv-x="1509" d="M246 733v68q0 14 14 14h954q12 0 13 -14v-430q0 -14 -13 -15h-69q-14 0 -15 15v344q0 6 -4 6h-866q-14 0 -14 12z" />
<glyph unicode="&#xad;" horiz-adv-x="845" d="M135 563v60q0 14 12 14h549q14 0 15 -14v-60q0 -14 -15 -14h-549q-12 0 -12 14z" />
<glyph unicode="&#xae;" horiz-adv-x="1304" d="M250 1326q0 175 114.5 291t287.5 116t288 -116t115 -291t-115 -289.5t-288 -114.5t-287.5 114.5t-114.5 289.5zM295 1327q0 -158 100.5 -260t258 -102t257 102t99.5 260t-99.5 259.5t-257 101.5t-258 -101.5t-100.5 -259.5zM504 1079v467q0 4 4 4h199q41 0 68.5 -28.5 t27.5 -69.5v-57q0 -37 -24.5 -63.5t-61.5 -31.5q-18 0 -10 -18l110 -201q2 -6 -4 -6h-39q-4 0 -6 4l-113 211q-6 8 -16 8h-74q-10 0 -10 -10v-209q0 -4 -12 -4h-35q-4 0 -4 4zM553 1352q0 -10 10 -11h127q63 0 64 62v39q-1 63 -64 63h-127q-10 0 -10 -8v-145z" />
<glyph unicode="&#xaf;" horiz-adv-x="970" d="M190 1282v53q0 14 15 15h563q12 0 12 -15v-53q0 -14 -12 -14h-563q-14 0 -15 14z" />
<glyph unicode="&#xb0;" horiz-adv-x="833" d="M137 1257v132q0 100 71 171.5t169 71.5h80q100 0 170.5 -71.5t70.5 -171.5v-132q0 -100 -70.5 -170.5t-170.5 -70.5h-80q-98 0 -169 70.5t-71 170.5zM213 1278q0 -88 48 -137t134 -49h49q86 0 132.5 48t46.5 138v88q0 90 -46.5 138t-132.5 48h-49q-86 0 -134 -49 t-48 -135v-90z" />
<glyph unicode="&#xb1;" horiz-adv-x="1159" d="M135 854v66q0 12 12 12h381v375q0 14 13 14h63q14 0 14 -14v-375h379q12 0 13 -12v-66q0 -12 -13 -12h-379v-406q0 -12 -14 -12h-63q-12 0 -13 12v406h-381q-12 0 -12 12zM141 246v63q0 12 13 13h856q12 0 12 -13v-63q0 -12 -12 -13h-856q-12 0 -13 13z" />
<glyph unicode="&#xb2;" horiz-adv-x="784" d="M57 530v113q0 66 58 109l401 356q27 27 37 48.5t10 53.5v93q0 84 -37 131q-39 51 -112 51h-115q-104 0 -137 -96l-2 -7q-2 -16 -21 -16h-59q-8 0 -12 6q-6 8 -5 19l3 4q20 80 75 129q59 53 138 53h151q98 0 166 -80q63 -76 63 -182v-105q0 -106 -94 -180l-395 -346 q-12 -10 -18 -12q2 -8 2 -21v-35q0 -12 -2 -18q6 2 18 2h479q20 0 21 -20v-50q0 -20 -21 -20h-571q-20 0 -21 20z" />
<glyph unicode="&#xb3;" horiz-adv-x="802" d="M55 696q-2 8 3 15.5t16 7.5h59q16 0 19 -17l2 -8q33 -96 137 -96h151q76 0 114 51t38 133v80q0 82 -39 132t-113 50h-151q-18 0 -19 19v43q0 20 19 20h135q74 0 113 45.5t39 104.5v37q0 80 -38 125t-114 45h-123q-106 0 -139 -97v-6q-4 -16 -21 -16h-59q-23 0 -16 22v7 q20 80 75 129q59 53 140 53h163q98 0 162 -72q66 -72 66 -178v-53q0 -92 -76 -164q-10 -10 -10 -16q0 -7 8 -13q43 -35 68.5 -90t25.5 -117v-104q0 -106 -65.5 -184t-163.5 -78h-189q-80 0 -137 51t-78 131z" />
<glyph unicode="&#xb4;" horiz-adv-x="600" d="M186 1282l166 242q6 8 17 8h73q6 0 9.5 -5t-0.5 -11l-185 -240q-8 -8 -16 -8h-55q-18 0 -9 14z" />
<glyph unicode="&#xb5;" horiz-adv-x="1175" d="M193 -494v1608q0 12 14 12h78q14 0 14 -12v-790q0 -113 59.5 -172.5t169.5 -59.5h119q111 0 170.5 59.5t59.5 172.5v790q0 12 14 12h78q14 0 14 -12v-1098q0 -14 -14 -14h-78q-14 0 -14 12q0 59 8 109q-16 -41 -58 -70q-70 -53 -163 -55h-166q-90 2 -150 49 q-41 33 -59 68q10 -45 10 -101v-508q0 -14 -14 -14h-78q-14 0 -14 14z" />
<glyph unicode="&#xb6;" horiz-adv-x="1486" d="M240 899v315q0 117 83 199t197 82h664q14 0 14 -14v-1975q0 -14 -14 -14h-66q-14 0 -14 14v1885h-232v-1885q0 -14 -14 -14h-65q-14 0 -15 14v1112h-258q-115 0 -197.5 83t-82.5 198z" />
<glyph unicode="&#xb7;" horiz-adv-x="473" d="M176 627v137q0 14 14 14h91q14 0 14 -14v-137q0 -14 -14 -15h-91q-14 0 -14 15z" />
<glyph unicode="&#xb8;" horiz-adv-x="671" d="M152 -453q0 12 12 13h143q59 0 97 44t38 111q0 63 -37.5 102.5t-97.5 39.5h-78q-8 0 -12 4t0 8l82 137q8 12 12 12h56q6 0 11 -4t1 -8l-57 -88h14q72 0 125 -58.5t53 -133.5v-29q0 -78 -51 -140.5t-127 -62.5h-172q-12 0 -12 14v39z" />
<glyph unicode="&#xb9;" horiz-adv-x="686" d="M37 532v50q0 20 22 20h209q14 0 21 -4q-2 8 -2 23v843q0 16 4 27q-8 -6 -25 -6h-209q-18 0 -18 20v54q0 18 18 18h303q20 0 21 -21v-933q0 -16 -2 -25q8 4 22 4h205q20 0 21 -20v-50q0 -20 -21 -20h-547q-23 0 -22 20z" />
<glyph unicode="&#xba;" horiz-adv-x="882" d="M164 905v363q0 94 59.5 156.5t155.5 62.5h127q94 0 153.5 -62.5t59.5 -156.5v-363q0 -96 -59.5 -157.5t-153.5 -61.5h-129q-94 0 -153.5 61.5t-59.5 157.5zM205 516v43q0 8 6 8h469q8 0 8 -8v-43q0 -10 -8 -10h-469q-6 0 -6 10zM240 915q0 -164 153 -163h99 q154 0 153 163v340q1 164 -153 164h-99q-154 0 -153 -164v-340z" />
<glyph unicode="&#xbb;" horiz-adv-x="1153" d="M174 319v72q0 8 8 17l140 149q14 16 14 28.5t-14 26.5l-140 150q-8 8 -8 16v72q0 6 5 9t9 -1l224 -223q10 -10 10 -19v-63q0 -8 -10 -16l-224 -226q-4 -6 -9 -3t-5 11zM729 319v72q0 8 8 17l137 149q14 16 14.5 28.5t-14.5 26.5l-137 150q-8 8 -8 16v72q0 6 4 9t10 -1 l224 -223q8 -10 8 -19v-63q0 -8 -8 -16l-224 -226q-6 -6 -10 -3t-4 11z" />
<glyph unicode="&#xbc;" horiz-adv-x="1980" d="M43 532v50q0 20 20 20h209q14 0 23 -4q-2 8 -2 23v843q0 16 4 27q-8 -6 -25 -6h-209q-20 0 -20 20v54q0 18 20 18h304q20 0 20 -21v-933q0 -14 -2 -25q8 4 23 4h204q20 0 21 -20v-50q0 -20 -21 -20h-549q-20 0 -20 20zM731 172l440 938q6 12 17 12h61q18 0 13 -16 l-443 -936q-6 -12 -14 -12h-62q-18 0 -12 14zM1202 61v56q0 10 6 18l478 717q6 10 18 10h78q16 0 16 -18v-697q0 -14 -4 -20q8 2 23 2h104q20 0 21 -20v-48q0 -20 -21 -20h-104q-14 0 -21 4q2 -8 2 -20v-209q0 -20 -20 -21h-56q-20 0 -20 21v209q0 12 2 20q-8 -4 -21 -4 h-460q-20 0 -21 20zM1300 125q14 4 33 4h350q12 0 21 -2q-2 6 -2 18v547v23q-2 -8 -8 -19l-371 -546q-12 -16 -23 -25z" />
<glyph unicode="&#xbd;" horiz-adv-x="1961" d="M43 532v50q0 20 20 20h209q14 0 23 -4q-2 8 -2 23v843q0 16 4 27q-8 -6 -25 -6h-209q-20 0 -20 20v54q0 18 20 18h304q20 0 20 -21v-933q0 -14 -2 -25q8 4 23 4h204q20 0 21 -20v-50q0 -20 -21 -20h-549q-20 0 -20 20zM731 172l440 938q6 12 17 12h61q18 0 13 -16 l-443 -936q-6 -12 -14 -12h-62q-18 0 -12 14zM1309 -72q0 66 57 109l401 356q27 27 38.5 47.5t11.5 55.5v92q0 84 -39 131q-39 51 -113 51h-115q-104 0 -137 -96l-2 -6q-2 -16 -20 -17h-60q-8 0 -12 6q-6 8 -4 17l2 6q20 80 76 129q59 53 137 53h153q96 0 164 -80 q63 -76 64 -182v-104q0 -106 -92 -181l-398 -346q-10 -10 -18 -12q2 -8 2 -20v-35q0 -12 -2 -19q6 2 18 2h480q20 0 20 -20v-49q0 -20 -20 -21h-572q-20 0 -20 21v112z" />
<glyph unicode="&#xbe;" horiz-adv-x="2189" d="M66 696q-2 8 3 15.5t13 7.5h59q18 0 21 -17l2 -8q33 -96 137 -96h152q76 0 113.5 51t37.5 133v80q0 82 -39 132t-112 50h-152q-18 0 -18 19v43q0 20 18 20h135q72 0 112 45.5t40 104.5v37q0 80 -38 125t-114 45h-125q-104 0 -137 -97l-2 -6q-2 -16 -20 -16h-60 q-20 0 -16 22l2 7q20 80 76 129q59 53 137 53h164q98 0 163 -72q66 -72 66 -178v-53q0 -92 -76 -164q-12 -10 -12 -16q0 -7 10 -13q43 -35 68.5 -90t25.5 -117v-104q0 -106 -65.5 -184t-163.5 -78h-190q-78 0 -135.5 51t-77.5 131zM860 172l440 938q6 12 17 12h61 q18 0 13 -16l-443 -936q-4 -12 -14 -12h-62q-18 0 -12 14zM1331 61l2 56q0 10 4 18l478 717q6 10 18 10h78q16 0 16 -18v-697q0 -14 -2 -20q6 2 21 2h104q20 0 21 -20v-48q0 -20 -21 -20h-104q-14 0 -21 4q2 -8 2 -20v-209q0 -20 -20 -21h-56q-20 0 -20 21v209q0 12 2 20 q-8 -4 -21 -4h-460q-20 0 -21 20zM1430 125q14 4 32 4h350q12 0 21 -2q-2 6 -2 18v547v23q-2 -8 -8 -19l-371 -546q-12 -16 -22 -25z" />
<glyph unicode="&#xbf;" horiz-adv-x="1144" d="M180 18v158q0 88 43 163t121 110l125 61q57 29 92 79t35 109l2 181q0 14 14 14h68q14 0 14 -14v-195q-2 -86 -48 -153.5t-128 -108.5l-121 -62q-109 -53 -108 -184v-160q0 -82 54 -139t134 -61h182q86 0 145.5 58t59.5 140v146q0 14 13 14h75q12 0 13 -14v-140 q0 -129 -87 -217t-216 -88h-177q-127 0 -216 89.5t-89 213.5zM598 1055v141q0 12 12 12h68q14 0 14 -12v-141q0 -14 -14 -15h-68q-12 0 -12 15z" />
<glyph unicode="&#xc0;" horiz-adv-x="1165" d="M90 14l344 1381q2 10 17 10h266q12 0 14 -10l344 -1379q6 -16 -12 -16h-82q-14 0 -16 10l-95 400q-2 6 -4 34q-14 -6 -35 -6h-497q-20 0 -35 6q-2 -29 -2 -34l-96 -400q-2 -10 -17 -10h-84q-14 0 -10 14zM309 524q23 6 41 6h465q18 0 41 -6q-20 27 -27 49l-170 703 q-4 20 7 37q-6 -6 -23 -6h-121q-16 0 -22 6q12 -16 6 -37l-170 -703q-6 -23 -27 -49zM432 1775.5q2 4.5 10 4.5h72q10 0 16 -8l158 -226q10 -14 -8 -14h-53q-8 0 -15 8l-178 225q-4 6 -2 10.5z" />
<glyph unicode="&#xc1;" horiz-adv-x="1165" d="M90 14l344 1381q2 10 17 10h266q12 0 14 -10l344 -1379q6 -16 -12 -16h-82q-14 0 -16 10l-95 400q-2 6 -4 34q-14 -6 -35 -6h-497q-20 0 -35 6q-2 -29 -2 -34l-96 -400q-2 -10 -17 -10h-84q-14 0 -10 14zM309 524q23 6 41 6h465q18 0 41 -6q-20 27 -27 49l-170 703 q-4 20 7 37q-6 -6 -23 -6h-121q-16 0 -22 6q12 -16 6 -37l-170 -703q-6 -23 -27 -49zM502 1546l160 226q6 8 16 8h70q8 0 10 -4t-2 -11l-176 -225q-6 -8 -17 -8h-53q-18 0 -8 14z" />
<glyph unicode="&#xc2;" horiz-adv-x="1165" d="M90 14l344 1381q2 10 17 10h266q12 0 14 -10l344 -1379q6 -16 -12 -16h-82q-14 0 -16 10l-95 400q-2 6 -4 34q-14 -6 -35 -6h-497q-20 0 -35 6q-2 -29 -2 -34l-96 -400q-2 -10 -17 -10h-84q-14 0 -10 14zM309 524q23 6 41 6h465q18 0 41 -6q-20 27 -27 49l-170 703 q-4 20 7 37q-6 -6 -23 -6h-121q-16 0 -22 6q12 -16 6 -37l-170 -703q-6 -23 -27 -49zM341 1520q-3 4 1 10l205 209q8 8 14 8h66q8 0 16 -8l203 -209q4 -6 2 -10t-10 -4h-60q-6 0 -14 8l-143 129q-20 20 -25 35h-2q-4 -14 -27 -35l-141 -129q-8 -8 -16 -8h-60q-6 0 -9 4z" />
<glyph unicode="&#xc3;" horiz-adv-x="1165" d="M90 14l344 1381q2 10 17 10h266q12 0 14 -10l344 -1379q6 -16 -12 -16h-82q-14 0 -16 10l-95 400q-2 6 -4 34q-14 -6 -35 -6h-497q-20 0 -35 6q-2 -29 -2 -34l-96 -400q-2 -10 -17 -10h-84q-14 0 -10 14zM291 1524q6 70 51 116t111 46q63 0 131 -56q61 -47 96 -47 q41 0 66.5 27.5t29.5 66.5q2 10 12 11h48q12 0 10 -11q-4 -70 -50 -115.5t-112 -45.5q-63 0 -131 55q-61 47 -96 47q-41 0 -66.5 -28.5t-30.5 -67.5q-2 -10 -12 -11h-47q-12 0 -10 13zM309 524q23 6 41 6h465q18 0 41 -6q-20 27 -27 49l-170 703q-4 20 7 37q-6 -6 -23 -6 h-121q-16 0 -22 6q12 -16 6 -37l-170 -703q-6 -23 -27 -49z" />
<glyph unicode="&#xc4;" horiz-adv-x="1165" d="M90 14l344 1381q2 10 17 10h266q12 0 14 -10l344 -1379q6 -16 -12 -16h-82q-14 0 -16 10l-95 400q-2 6 -4 34q-14 -6 -35 -6h-497q-20 0 -35 6q-2 -29 -2 -34l-96 -400q-2 -10 -17 -10h-84q-14 0 -10 14zM309 524q23 6 41 6h465q18 0 41 -6q-20 27 -27 49l-170 703 q-4 20 7 37q-6 -6 -23 -6h-121q-16 0 -22 6q12 -16 6 -37l-170 -703q-6 -23 -27 -49zM391 1526v133q0 12 12 12h66q14 0 14 -12v-133q0 -12 -14 -13h-66q-12 0 -12 13zM698 1526v133q0 12 15 12h65q12 0 13 -12v-133q0 -12 -13 -13h-65q-14 0 -15 13z" />
<glyph unicode="&#xc5;" horiz-adv-x="1165" d="M90 14l344 1381q2 10 17 10h8q-61 53 -62 133v25q0 74 53.5 127t129.5 53h8q76 0 130 -53.5t54 -126.5v-25q0 -80 -63 -133h8q12 0 14 -10l344 -1379q6 -16 -12 -16h-82q-14 0 -16 10l-95 400q-2 6 -4 34q-14 -6 -35 -6h-497q-20 0 -35 6q-2 -29 -2 -34l-96 -400 q-2 -10 -17 -10h-84q-14 0 -10 14zM309 524q23 6 41 6h465q18 0 41 -6q-20 27 -27 49l-170 703q-4 20 7 37q-6 -6 -23 -6h-121q-16 0 -22 6q12 -16 6 -37l-170 -703q-6 -23 -27 -49zM467 1542q0 -53 34 -89t81 -36h4q47 0 80.5 36t33.5 89v17q0 53 -33.5 88.5t-80.5 35.5h-4 q-47 0 -81 -35.5t-34 -88.5v-17z" />
<glyph unicode="&#xc6;" horiz-adv-x="1642" d="M6 16l641 1379q6 10 19 10h858q14 0 14 -14v-70q0 -14 -14 -14h-492q-23 0 -45 10q8 -20 8 -43v-438q0 -23 -8 -43q23 10 45 10h438q14 0 15 -15v-63q0 -14 -15 -14h-438q-20 0 -45 8q8 -18 8 -41v-547q0 -23 -8 -43q25 10 45 10h537q14 0 14 -14v-70q0 -14 -14 -14h-670 q-12 0 -12 10l2 400q0 4 8 34q-16 -6 -37 -6h-522q-20 0 -35 6q-6 -29 -8 -34l-180 -400q-6 -10 -19 -10h-80q-18 0 -10 16zM338 524q20 6 41 6h481q21 0 39 -6q-10 25 -10 49l2 703q0 18 16 37q-8 -6 -22 -6h-174q-14 0 -21 6q8 -16 0 -37l-321 -703q-10 -25 -31 -49z" />
<glyph unicode="&#xc7;" horiz-adv-x="1163" d="M180 289v827q0 121 86 206t207 85h285q121 0 207 -85t86 -206v-90q0 -14 -15 -14h-80q-14 0 -14 14v74q0 98 -58.5 154.5t-158.5 56.5h-219q-102 0 -159.5 -56.5t-57.5 -154.5v-795q0 -98 57 -154.5t160 -56.5h219q100 0 158.5 56.5t58.5 154.5v90q0 14 14 15h80 q14 0 15 -15v-106q0 -121 -86 -206t-207 -85h-115l-49 -76h12q70 0 120 -54t50 -126v-27q0 -74 -48 -132t-122 -58h-164q-14 0 -14 12v37q0 12 14 12h138q55 0 91 42t38 106q0 59 -37 95t-92 36h-76q-6 0 -11.5 4t-0.5 8l75 121h-94q-121 0 -207 85t-86 206z" />
<glyph unicode="&#xc8;" horiz-adv-x="1038" d="M205 14v1377q0 14 16 14h699q12 0 12 -14v-70q0 -14 -12 -14h-568q-23 0 -45 10q6 -20 6 -43v-438q0 -23 -6 -43q23 10 45 10h514q14 0 15 -15v-63q0 -14 -15 -14h-514q-23 0 -47 8q8 -18 8 -41v-547q0 -25 -6 -43q23 10 45 10h613q14 0 14 -14v-70q0 -14 -14 -14h-744 q-16 0 -16 14zM416 1778.5q2 5.5 10 5.5h72q8 0 14 -8l160 -228q10 -14 -8 -14h-54q-10 0 -16 8l-176 225q-4 6 -2 11.5z" />
<glyph unicode="&#xc9;" horiz-adv-x="1038" d="M205 14v1377q0 14 16 14h699q12 0 12 -14v-70q0 -14 -12 -14h-568q-23 0 -45 10q6 -20 6 -43v-438q0 -23 -6 -43q23 10 45 10h514q14 0 15 -15v-63q0 -14 -15 -14h-514q-23 0 -47 8q8 -18 8 -41v-547q0 -25 -6 -43q23 10 45 10h613q14 0 14 -14v-70q0 -14 -14 -14h-744 q-16 0 -16 14zM485 1548l160 228q6 8 14 8h72q8 0 10 -5t-2 -12l-176 -225q-6 -8 -16 -8h-53q-18 0 -9 14z" />
<glyph unicode="&#xca;" horiz-adv-x="1038" d="M205 14v1377q0 14 16 14h699q12 0 12 -14v-70q0 -14 -12 -14h-568q-23 0 -45 10q6 -20 6 -43v-438q0 -23 -6 -43q23 10 45 10h514q14 0 15 -15v-63q0 -14 -15 -14h-514q-23 0 -47 8q8 -18 8 -41v-547q0 -25 -6 -43q23 10 45 10h613q14 0 14 -14v-70q0 -14 -14 -14h-744 q-16 0 -16 14zM324 1523q-2 5 2 9l204 209q8 10 15 10h65q6 0 15 -10l204 -209q4 -4 1 -9t-9 -5h-59q-8 0 -17 8l-141 129q-20 20 -26 35q-6 -14 -27 -35l-143 -129q-8 -8 -15 -8h-59q-8 0 -10 5z" />
<glyph unicode="&#xcb;" horiz-adv-x="1038" d="M205 14v1377q0 14 16 14h699q12 0 12 -14v-70q0 -14 -12 -14h-568q-23 0 -45 10q6 -20 6 -43v-438q0 -23 -6 -43q23 10 45 10h514q14 0 15 -15v-63q0 -14 -15 -14h-514q-23 0 -47 8q8 -18 8 -41v-547q0 -25 -6 -43q23 10 45 10h613q14 0 14 -14v-70q0 -14 -14 -14h-744 q-16 0 -16 14zM375 1530v131q0 14 12 14h66q14 0 14 -14v-131q0 -14 -14 -14h-66q-12 0 -12 14zM682 1530v131q0 14 14 14h64q14 0 14 -14v-131q0 -14 -14 -14h-64q-14 0 -14 14z" />
<glyph unicode="&#xcc;" horiz-adv-x="520" d="M99 1778.5q3 5.5 10 5.5h71q10 0 17 -8l159 -228q8 -14 -8 -14h-55q-8 0 -14 8l-179 225q-4 6 -1 11.5zM205 14v1377q0 14 14 14h80q14 0 14 -14v-1377q0 -14 -14 -14h-80q-14 0 -14 14z" />
<glyph unicode="&#xcd;" horiz-adv-x="520" d="M168 1548l160 228q6 8 16 8h72q6 0 9 -5t-3 -12l-176 -225q-6 -8 -15 -8h-55q-18 0 -8 14zM205 14v1377q0 14 14 14h80q14 0 14 -14v-1377q0 -14 -14 -14h-80q-14 0 -14 14z" />
<glyph unicode="&#xce;" horiz-adv-x="520" d="M7 1523q-3 5 1 9l205 209q8 10 16 10h64q8 0 16 -10l203 -209q4 -4 2 -9t-10 -5h-60q-6 0 -14 8l-141 129q-23 20 -27 35h-2q-4 -14 -27 -35l-141 -129q-8 -8 -16 -8h-60q-6 0 -9 5zM205 14v1377q0 14 14 14h80q14 0 14 -14v-1377q0 -14 -14 -14h-80q-14 0 -14 14z" />
<glyph unicode="&#xcf;" horiz-adv-x="520" d="M57 1530v131q0 14 15 14h63q14 0 15 -14v-131q0 -14 -15 -14h-63q-14 0 -15 14zM205 14v1377q0 14 14 14h80q14 0 14 -14v-1377q0 -14 -14 -14h-80q-14 0 -14 14zM365 1530v131q0 14 14 14h65q12 0 13 -14v-131q0 -14 -13 -14h-65q-14 0 -14 14z" />
<glyph unicode="&#xd0;" horiz-adv-x="1239" d="M207 14v1377q0 14 12 14h545q123 0 209 -85t86 -206v-823q0 -121 -86 -206t-209 -85h-545q-12 0 -12 14zM303 666q12 -16 12 -45v-490q0 -23 -8 -43q23 10 45 10h381q106 0 161.5 53.5t55.5 151.5v793q0 100 -56 155.5t-161 55.5h-381q-23 0 -45 10q8 -20 8 -43v-494 q0 -31 -10 -51q18 10 47 10h418q12 0 12 -12v-57q0 -12 -12 -13h-418q-29 0 -49 9z" />
<glyph unicode="&#xd1;" horiz-adv-x="1363" d="M205 14v1377q0 14 16 14h84q12 0 19 -10l677 -1125q39 -66 58 -110q-10 78 -10 125v1106q0 14 16 14h78q14 0 14 -14v-1377q0 -14 -14 -14h-82q-12 0 -19 10l-680 1131q-41 68 -59 110q10 -76 10 -123v-1114q0 -14 -14 -14h-78q-16 0 -16 14zM391 1526q6 70 52 116 t112 46q63 0 131 -56q59 -47 96 -47q39 0 65.5 28.5t31.5 65.5q0 12 10 13h47q12 0 12 -13q-6 -70 -52 -115.5t-112 -45.5q-63 0 -131 55q-59 47 -96 47q-39 0 -65.5 -27.5t-28.5 -66.5q-2 -12 -12 -13h-48q-12 0 -12 13z" />
<glyph unicode="&#xd2;" d="M180 289v827q0 121 86 206t207 85h287q121 0 207 -85t86 -206v-827q0 -121 -86 -206t-207 -85h-287q-121 0 -207 85t-86 206zM289 305q0 -98 57.5 -154.5t159.5 -56.5h221q100 0 158.5 56.5t58.5 154.5v795q0 98 -58.5 154.5t-158.5 56.5h-221q-102 0 -159.5 -56.5 t-57.5 -154.5v-795zM459 1778.5q2 5.5 10 5.5h72q10 0 14 -8l160 -228q10 -14 -8 -14h-54q-8 0 -14 8l-178 225q-4 6 -2 11.5z" />
<glyph unicode="&#xd3;" d="M180 289v827q0 121 86 206t207 85h287q121 0 207 -85t86 -206v-827q0 -121 -86 -206t-207 -85h-287q-121 0 -207 85t-86 206zM289 305q0 -98 57.5 -154.5t159.5 -56.5h221q100 0 158.5 56.5t58.5 154.5v795q0 98 -58.5 154.5t-158.5 56.5h-221q-102 0 -159.5 -56.5 t-57.5 -154.5v-795zM528 1548l160 228q6 8 17 8h69q8 0 10 -5t-2 -12l-176 -225q-6 -8 -16 -8h-53q-18 0 -9 14z" />
<glyph unicode="&#xd4;" d="M180 289v827q0 121 86 206t207 85h287q121 0 207 -85t86 -206v-827q0 -121 -86 -206t-207 -85h-287q-121 0 -207 85t-86 206zM289 305q0 -98 57.5 -154.5t159.5 -56.5h221q100 0 158.5 56.5t58.5 154.5v795q0 98 -58.5 154.5t-158.5 56.5h-221q-102 0 -159.5 -56.5 t-57.5 -154.5v-795zM367 1523q-2 5 2 9l204 209q8 10 15 10h65q8 0 17 -10l202 -209q4 -4 2 -9t-10 -5h-59q-6 0 -17 8l-141 129q-20 20 -24 35h-2q-4 -14 -27 -35l-141 -129q-10 -8 -17 -8h-59q-8 0 -10 5z" />
<glyph unicode="&#xd5;" d="M180 289v827q0 121 86 206t207 85h287q121 0 207 -85t86 -206v-827q0 -121 -86 -206t-207 -85h-287q-121 0 -207 85t-86 206zM289 305q0 -98 57.5 -154.5t159.5 -56.5h221q100 0 158.5 56.5t58.5 154.5v795q0 98 -58.5 154.5t-158.5 56.5h-221q-102 0 -159.5 -56.5 t-57.5 -154.5v-795zM317 1526q4 70 50.5 116t111.5 46q63 0 131 -56q61 -47 97 -47q41 0 66.5 28.5t29.5 65.5q2 12 12 13h47q12 0 10 -13q-6 -70 -51 -115.5t-110 -45.5q-63 0 -131 55q-61 47 -97 47q-41 0 -66.5 -27.5t-29.5 -66.5q-2 -12 -12 -13h-47q-12 0 -11 13z" />
<glyph unicode="&#xd6;" d="M180 289v827q0 121 86 206t207 85h287q121 0 207 -85t86 -206v-827q0 -121 -86 -206t-207 -85h-287q-121 0 -207 85t-86 206zM289 305q0 -98 57.5 -154.5t159.5 -56.5h221q100 0 158.5 56.5t58.5 154.5v795q0 98 -58.5 154.5t-158.5 56.5h-221q-102 0 -159.5 -56.5 t-57.5 -154.5v-795zM418 1530v131q0 14 12 14h66q14 0 14 -14v-131q0 -14 -14 -14h-66q-12 0 -12 14zM725 1530v131q0 14 14 14h66q12 0 12 -14v-131q0 -14 -12 -14h-66q-14 0 -14 14z" />
<glyph unicode="&#xd7;" horiz-adv-x="944" d="M139 414q-8 8 0 18l269 270l-269 271q-8 8 0 18l45 45q10 10 19 0l268 -270l270 270q8 10 17 0l45 -45q10 -10 0 -18l-268 -271l268 -270q10 -10 0 -18l-45 -47q-8 -8 -17 0l-270 270l-268 -270q-8 -8 -19 0z" />
<glyph unicode="&#xd8;" d="M180 289v827q0 121 86 206t207 85h272q51 0 70 -12q0 20 4 30l66 197q4 10 16 10h62q14 0 12 -14l-74 -215q-6 -16 -16 -31q16 0 30 -10q63 -39 101.5 -104.5t38.5 -141.5v-827q0 -121 -86 -206t-207 -85h-264q-23 0 -33 10q-2 -25 -4 -33l-74 -211q-4 -10 -14 -10h-58 q-16 0 -12 15l74 219q6 16 16 30q-18 -2 -37 7q-80 37 -128 107.5t-48 156.5zM289 305q0 -102 55 -156.5t162 -54.5h223q104 0 160.5 54.5t56.5 156.5v789q0 104 -57.5 160.5t-159.5 56.5h-223q-104 0 -160.5 -56.5t-56.5 -160.5v-789z" />
<glyph unicode="&#xd9;" horiz-adv-x="1245" d="M186 291v1100q0 14 15 14h78q16 0 16 -14v-1086q0 -98 58.5 -154.5t158.5 -56.5h221q102 0 159.5 56.5t57.5 154.5v1086q0 14 17 14h77q14 0 15 -14v-1100q0 -121 -86 -207t-209 -86h-283q-123 0 -209 86t-86 207zM459 1778.5q2 5.5 10 5.5h72q8 0 14 -8l160 -228 q10 -14 -8 -14h-54q-8 0 -16 8l-176 225q-4 6 -2 11.5z" />
<glyph unicode="&#xda;" horiz-adv-x="1245" d="M186 291v1100q0 14 15 14h78q16 0 16 -14v-1086q0 -98 58.5 -154.5t158.5 -56.5h221q102 0 159.5 56.5t57.5 154.5v1086q0 14 17 14h77q14 0 15 -14v-1100q0 -121 -86 -207t-209 -86h-283q-123 0 -209 86t-86 207zM528 1548l160 228q6 8 14 8h72q8 0 10 -5t-2 -12 l-176 -225q-6 -8 -16 -8h-53q-18 0 -9 14z" />
<glyph unicode="&#xdb;" horiz-adv-x="1245" d="M186 291v1100q0 14 15 14h78q16 0 16 -14v-1086q0 -98 58.5 -154.5t158.5 -56.5h221q102 0 159.5 56.5t57.5 154.5v1086q0 14 17 14h77q14 0 15 -14v-1100q0 -121 -86 -207t-209 -86h-283q-123 0 -209 86t-86 207zM367 1523q-2 5 2 9l204 209q8 10 15 10h65q6 0 15 -10 l204 -209q4 -4 1 -9t-9 -5h-59q-8 0 -17 8l-141 129q-20 20 -26 35q-4 -14 -27 -35l-143 -129q-8 -8 -15 -8h-59q-8 0 -10 5z" />
<glyph unicode="&#xdc;" horiz-adv-x="1245" d="M186 291v1100q0 14 15 14h78q16 0 16 -14v-1086q0 -98 58.5 -154.5t158.5 -56.5h221q102 0 159.5 56.5t57.5 154.5v1086q0 14 17 14h77q14 0 15 -14v-1100q0 -121 -86 -207t-209 -86h-283q-123 0 -209 86t-86 207zM418 1530v131q0 14 12 14h66q14 0 14 -14v-131 q0 -14 -14 -14h-66q-12 0 -12 14zM725 1530v131q0 14 14 14h64q14 0 14 -14v-131q0 -14 -14 -14h-64q-14 0 -14 14z" />
<glyph unicode="&#xdd;" horiz-adv-x="1042" d="M-12 1386q-10 18 10 19h86q12 0 18 -10l392 -688q18 -33 26 -70q10 37 29 70l391 688q4 10 16 10h86q20 0 11 -19l-467 -823q-6 -8 -13 -14v-4q2 -4 2 -8v-523q0 -14 -16 -14h-78q-16 0 -16 14v523q0 2 1 7l1 5q-6 6 -10 14zM426 1548l160 228q6 8 16 8h72q6 0 9 -5 t-1 -12l-178 -225q-6 -8 -15 -8h-55q-16 0 -8 14z" />
<glyph unicode="&#xde;" horiz-adv-x="1165" d="M207 12v1377q0 12 14 12h78q14 0 14 -12v-420q0 -27 -4 -41q14 6 41 6h406q119 0 202.5 -84t83.5 -201v-108q0 -119 -86 -202t-206 -83h-396q-31 0 -47 8q6 -16 6 -45v-207q0 -12 -14 -12h-78q-14 0 -14 12zM307 340q16 8 47 8h365q104 0 160.5 53.5t56.5 153.5v72 q0 102 -56.5 157.5t-160.5 55.5h-365q-31 0 -45 10q4 -18 4 -47v-418q0 -29 -6 -45z" />
<glyph unicode="&#xdf;" horiz-adv-x="1187" d="M205 16v1303q0 119 86 204t207 85h264q121 0 207 -85t86 -206v-234q0 -51 -3 -80.5t-18.5 -67.5t-44.5 -67q-10 -8 -33 -22q16 -8 33 -23q47 -39 76 -96t29 -117v-321q0 -121 -87 -205t-208 -84h-236q-14 0 -14 16v64q0 14 14 14h201q104 0 160.5 53.5t56.5 153.5v291 q0 100 -56.5 155.5t-160.5 55.5h-203q-14 0 -14 14v57q0 14 14 15h203q102 0 142 40t40 140v231q0 100 -56 155.5t-161 55.5h-199q-102 0 -159.5 -55t-57.5 -156v-1284q0 -16 -16 -16h-76q-16 0 -16 16z" />
<glyph unicode="&#xe0;" horiz-adv-x="1097" d="M113 287v63q0 123 86 204t213 81h360q29 0 45 -8q-6 16 -6 37v153q0 102 -57.5 159.5t-163.5 57.5h-119q-102 0 -156.5 -56t-54.5 -161v-6q0 -12 -12 -12h-80q-12 0 -12 14v25q0 119 85 204.5t205 85.5h175q121 0 209 -88t88 -211v-806q0 -12 -15 -13h-74q-14 0 -14 13 v20q0 27 10 78q-18 -35 -63 -68q-74 -55 -170 -55h-184q-121 0 -208 84t-87 205zM219 309q0 -106 57.5 -161.5t167.5 -55.5h146q106 0 163.5 55.5t57.5 159.5v219q0 12 4 35q-16 -10 -43 -10h-332q-106 0 -163.5 -57.5t-57.5 -163.5v-21zM372 1547q3 5 9 5h74q10 0 16 -10 l166 -239q10 -14 -8 -15h-56q-8 0 -16 8l-184 240q-4 6 -1 11z" />
<glyph unicode="&#xe1;" horiz-adv-x="1097" d="M113 287v63q0 123 86 204t213 81h360q29 0 45 -8q-6 16 -6 37v153q0 102 -57.5 159.5t-163.5 57.5h-119q-102 0 -156.5 -56t-54.5 -161v-6q0 -12 -12 -12h-80q-12 0 -12 14v25q0 119 85 204.5t205 85.5h175q121 0 209 -88t88 -211v-806q0 -12 -15 -13h-74q-14 0 -14 13 v20q0 27 10 78q-18 -35 -63 -68q-74 -55 -170 -55h-184q-121 0 -208 84t-87 205zM219 309q0 -106 57.5 -161.5t167.5 -55.5h146q106 0 163.5 55.5t57.5 159.5v219q0 12 4 35q-16 -10 -43 -10h-332q-106 0 -163.5 -57.5t-57.5 -163.5v-21zM442 1303l168 239q6 10 17 10h71 q8 0 11.5 -5t-2.5 -11l-185 -240q-6 -8 -14 -8h-57q-18 0 -9 15z" />
<glyph unicode="&#xe2;" horiz-adv-x="1097" d="M113 287v63q0 123 86 204t213 81h360q29 0 45 -8q-6 16 -6 37v153q0 102 -57.5 159.5t-163.5 57.5h-119q-102 0 -156.5 -56t-54.5 -161v-6q0 -12 -12 -12h-80q-12 0 -12 14v25q0 119 85 204.5t205 85.5h175q121 0 209 -88t88 -211v-806q0 -12 -15 -13h-74q-14 0 -14 13 v20q0 27 10 78q-18 -35 -63 -68q-74 -55 -170 -55h-184q-121 0 -208 84t-87 205zM219 309q0 -106 57.5 -161.5t167.5 -55.5h146q106 0 163.5 55.5t57.5 159.5v219q0 12 4 35q-16 -10 -43 -10h-332q-106 0 -163.5 -57.5t-57.5 -163.5v-21zM274.5 1275q-2.5 5 1.5 9l213 223 q10 10 17 11h67q6 0 15 -11l213 -223q6 -4 3 -9t-11 -5h-62q-6 0 -16 8l-148 137q-23 23 -26 37h-2q-4 -14 -29 -35l-148 -139q-10 -8 -16 -8h-61q-8 0 -10.5 5z" />
<glyph unicode="&#xe3;" horiz-adv-x="1097" d="M113 287v63q0 123 86 204t213 81h360q29 0 45 -8q-6 16 -6 37v153q0 102 -57.5 159.5t-163.5 57.5h-119q-102 0 -156.5 -56t-54.5 -161v-6q0 -12 -12 -12h-80q-12 0 -12 14v25q0 119 85 204.5t205 85.5h175q121 0 209 -88t88 -211v-806q0 -12 -15 -13h-74q-14 0 -14 13 v20q0 27 10 78q-18 -35 -63 -68q-74 -55 -170 -55h-184q-121 0 -208 84t-87 205zM219 309q0 -106 57.5 -161.5t167.5 -55.5h146q106 0 163.5 55.5t57.5 159.5v219q0 12 4 35q-16 -10 -43 -10h-332q-106 0 -163.5 -57.5t-57.5 -163.5v-21zM221 1278q6 74 54.5 123t115.5 49 q66 0 137 -59q63 -49 101 -50q43 0 69.5 30t30.5 71q2 12 12 12h50q12 0 12 -12q-6 -74 -54.5 -123t-115.5 -49q-68 0 -137 59q-63 49 -101 49q-43 0 -70.5 -29.5t-29.5 -70.5q-2 -12 -12 -12h-50q-12 0 -12 12z" />
<glyph unicode="&#xe4;" horiz-adv-x="1097" d="M113 287v63q0 123 86 204t213 81h360q29 0 45 -8q-6 16 -6 37v153q0 102 -57.5 159.5t-163.5 57.5h-119q-102 0 -156.5 -56t-54.5 -161v-6q0 -12 -12 -12h-80q-12 0 -12 14v25q0 119 85 204.5t205 85.5h175q121 0 209 -88t88 -211v-806q0 -12 -15 -13h-74q-14 0 -14 13 v20q0 27 10 78q-18 -35 -63 -68q-74 -55 -170 -55h-184q-121 0 -208 84t-87 205zM219 309q0 -106 57.5 -161.5t167.5 -55.5h146q106 0 163.5 55.5t57.5 159.5v219q0 12 4 35q-16 -10 -43 -10h-332q-106 0 -163.5 -57.5t-57.5 -163.5v-21zM328 1282v141q0 12 14 13h66 q14 0 14 -13v-141q0 -14 -14 -14h-66q-14 0 -14 14zM649 1282v141q0 12 13 13h67q14 0 14 -13v-141q0 -14 -14 -14h-67q-12 0 -13 14z" />
<glyph unicode="&#xe5;" horiz-adv-x="1097" d="M113 287v63q0 123 86 204t213 81h360q29 0 45 -10q-6 18 -6 39v153q0 102 -57.5 159.5t-163.5 57.5h-119q-102 0 -156.5 -56t-54.5 -161v-6q0 -12 -12 -12h-80q-12 0 -12 14v25q0 104 68.5 186t170.5 100q-57 57 -57 136v26q0 78 56.5 134.5t135.5 56.5h9q78 0 134 -56.5 t56 -134.5v-26q0 -79 -57 -136q104 -18 175 -102t71 -193v-806q0 -12 -15 -13h-74q-14 0 -14 13v20q0 27 10 78q-18 -35 -63 -68q-74 -55 -170 -55h-184q-121 0 -208 84t-87 205zM219 309q0 -106 57.5 -161.5t167.5 -55.5h146q106 0 163.5 55.5t57.5 159.5v219q0 12 4 35 q-16 -10 -43 -10h-332q-106 0 -163.5 -57.5t-57.5 -163.5v-21zM412 1264q0 -55 35.5 -94.5t84.5 -39.5h5q49 0 83.5 39t34.5 95v18q0 55 -34.5 94t-83.5 39h-5q-49 0 -84.5 -39t-35.5 -94v-18z" />
<glyph unicode="&#xe6;" horiz-adv-x="1738" d="M113 287v71q0 121 86 202t213 81h360q29 0 45 -8q-6 18 -6 37v145q0 104 -57.5 161.5t-163.5 57.5h-119q-102 0 -156.5 -56t-54.5 -161v-6q0 -12 -12 -12h-80q-12 0 -12 14v25q0 119 85 204.5t205 85.5h175q78 0 143 -38.5t102 -106.5q39 68 105.5 106.5t146.5 38.5h193 q117 0 211 -83.5t94 -202.5v-271q0 -12 -14 -12h-644q-35 0 -49 10q8 -16 9 -47v-203q0 -109 58 -168t167 -59h137q102 0 157.5 56.5t55.5 160.5v6q2 12 14 13h78q14 0 12 -15v-22q-2 -121 -89 -207t-208 -86h-174q-84 0 -154.5 42t-107.5 112q-37 -76 -101.5 -115 t-141.5 -39h-213q-121 0 -208 84t-87 205zM219 309q0 -106 57 -161.5t168 -55.5h146q106 0 163.5 55.5t57.5 159.5v225q0 14 4 35q-16 -8 -43 -8h-332q-106 0 -163.5 -58.5t-57.5 -162.5v-29zM909 633q16 10 49 10h510q33 0 50 -10q-8 18 -9 47v141q0 102 -57 157.5 t-164 55.5h-149q-106 0 -163.5 -55t-57.5 -158v-141q-1 -29 -9 -47z" />
<glyph unicode="&#xe7;" horiz-adv-x="1064" d="M170 307v512q0 135 84 222t217 87h158q135 0 218 -88t83 -215v-39q0 -14 -12 -14h-80q-14 0 -15 14v23q0 225 -215 225h-116q-217 0 -218 -231v-479q0 -231 218 -232h116q215 0 215 225v25q0 12 15 12h80q12 0 12 -12v-41q0 -127 -83 -215t-218 -88h-15l-53 -80h14 q74 0 126.5 -58.5t52.5 -133.5v-29q0 -78 -51.5 -140.5t-127.5 -62.5h-172q-12 0 -12 14v39q0 12 12 13h146q57 0 95 44t38 111q2 63 -37 102.5t-96 39.5h-80q-6 0 -10 4t-2 8l78 129h-64q-133 0 -217 88t-84 221z" />
<glyph unicode="&#xe8;" horiz-adv-x="1091" d="M164 305v516q0 127 89 217t216 90h193q117 0 211 -83.5t94 -202.5v-271q0 -12 -13 -12h-643q-35 0 -51 10q10 -16 10 -47v-205q0 -106 57.5 -165.5t166.5 -59.5h139q102 0 157.5 56.5t55.5 160.5v6q0 12 12 13h80q12 0 12 -13v-24q-4 -121 -91 -207t-206 -86h-184 q-127 0 -216 90t-89 217zM262 633q16 10 49 10h510q33 0 49 -10q-8 18 -8 47v141q0 102 -57 157.5t-164 55.5h-149q-106 0 -164 -55t-58 -158v-141q0 -29 -8 -47zM404 1547q2 5 10 5h73q10 0 17 -8l166 -241q10 -14 -8 -15h-56q-10 0 -16 8l-184 240q-4 6 -2 11z" />
<glyph unicode="&#xe9;" horiz-adv-x="1091" d="M164 305v516q0 127 89 217t216 90h193q117 0 211 -83.5t94 -202.5v-271q0 -12 -13 -12h-643q-35 0 -51 10q10 -16 10 -47v-205q0 -106 57.5 -165.5t166.5 -59.5h139q102 0 157.5 56.5t55.5 160.5v6q0 12 12 13h80q12 0 12 -13v-24q-4 -121 -91 -207t-206 -86h-184 q-127 0 -216 90t-89 217zM262 633q16 10 49 10h510q33 0 49 -10q-8 18 -8 47v141q0 102 -57 157.5t-164 55.5h-149q-106 0 -164 -55t-58 -158v-141q0 -29 -8 -47zM475 1303l166 241q6 8 16 8h74q8 0 10 -5t-2 -11l-184 -240q-6 -8 -16 -8h-56q-18 0 -8 15z" />
<glyph unicode="&#xea;" horiz-adv-x="1091" d="M164 305v516q0 127 89 217t216 90h193q117 0 211 -83.5t94 -202.5v-271q0 -12 -13 -12h-643q-35 0 -51 10q10 -16 10 -47v-205q0 -106 57.5 -165.5t166.5 -59.5h139q102 0 157.5 56.5t55.5 160.5v6q0 12 12 13h80q12 0 12 -13v-24q-4 -121 -91 -207t-206 -86h-184 q-127 0 -216 90t-89 217zM262 633q16 10 49 10h510q33 0 49 -10q-8 18 -8 47v141q0 102 -57 157.5t-164 55.5h-149q-106 0 -164 -55t-58 -158v-141q0 -29 -8 -47zM306 1275q-3 5 3 11l213 221q8 10 17 11h65q8 0 17 -11l213 -221q4 -6 0.5 -11t-9.5 -5h-61q-8 0 -16 8 l-148 139q-23 20 -29 37q-6 -16 -28 -37l-150 -139q-8 -8 -14 -8h-62q-8 0 -11 5z" />
<glyph unicode="&#xeb;" horiz-adv-x="1091" d="M164 305v516q0 127 89 217t216 90h193q117 0 211 -83.5t94 -202.5v-271q0 -12 -13 -12h-643q-35 0 -51 10q10 -16 10 -47v-205q0 -106 57.5 -165.5t166.5 -59.5h139q102 0 157.5 56.5t55.5 160.5v6q0 12 12 13h80q12 0 12 -13v-24q-4 -121 -91 -207t-206 -86h-184 q-127 0 -216 90t-89 217zM262 633q16 10 49 10h510q33 0 49 -10q-8 18 -8 47v141q0 102 -57 157.5t-164 55.5h-149q-106 0 -164 -55t-58 -158v-141q0 -29 -8 -47zM360 1282v141q0 14 13 15h67q14 0 15 -15v-141q0 -14 -15 -14h-67q-12 0 -13 14zM680 1282v141q0 14 14 15h68 q14 0 14 -15v-141q0 -14 -14 -14h-68q-14 0 -14 14z" />
<glyph unicode="&#xec;" horiz-adv-x="491" d="M81 1547q3 5 11 5h72q10 0 16 -8l168 -241q10 -14 -10 -15h-55q-8 0 -15 8l-184 240q-6 6 -3 11zM193 25v1079q0 12 12 12h80q14 0 14 -12v-1079q0 -14 -14 -15h-80q-12 0 -12 15z" />
<glyph unicode="&#xed;" horiz-adv-x="491" d="M154 1303l165 241q6 8 17 8h74q6 0 9 -5t-1 -11l-185 -240q-8 -8 -16 -8h-55q-18 0 -8 15zM193 25v1079q0 12 12 12h80q14 0 14 -12v-1079q0 -14 -14 -15h-80q-12 0 -12 15z" />
<glyph unicode="&#xee;" horiz-adv-x="491" d="M-15 1275q-3 5 1 11l215 221q8 10 16 11h66q6 0 16 -11l213 -221q4 -6 1 -11t-9 -5h-62q-8 0 -16 8l-147 139q-25 20 -29 37q-6 -16 -29 -37l-149 -139q-8 -8 -17 -8h-61q-6 0 -9 5zM193 25v1079q0 12 12 12h80q14 0 14 -12v-1079q0 -14 -14 -15h-80q-12 0 -12 15z" />
<glyph unicode="&#xef;" horiz-adv-x="491" d="M37 1282v141q0 14 14 15h68q14 0 14 -15v-141q0 -14 -14 -14h-68q-14 0 -14 14zM193 25v1079q0 12 12 12h80q14 0 14 -12v-1079q0 -14 -14 -15h-80q-12 0 -12 15zM358 1282v141q0 14 15 15h67q12 0 13 -15v-141q0 -14 -13 -14h-67q-14 0 -15 14z" />
<glyph unicode="&#xf0;" horiz-adv-x="1134" d="M150 346v229q0 131 98 241t223 110h254l-135 293l-154 -95q-14 -8 -14 11v45q0 10 8 16l133 80l-94 203q-6 14 10 14h82q10 0 14 -10l72 -154l184 113q16 8 17 -10v-46q0 -10 -8 -16l-166 -100l264 -570q6 -12 18.5 -39.5t19.5 -47t7 -38.5v-229q0 -129 -99.5 -238.5 t-221.5 -109.5h-191q-125 0 -223 109.5t-98 238.5zM254 358q0 -113 69.5 -189.5t178.5 -76.5h127q111 0 179.5 76.5t68.5 189.5v201q0 16 -5.5 33.5t-15.5 38t-14 33.5q-41 88 -88 167h-252q-109 0 -178.5 -78.5t-69.5 -193.5v-201z" />
<glyph unicode="&#xf1;" horiz-adv-x="1161" d="M193 25v1079q0 12 12 12h74q14 0 14 -10v-16q0 -16 -1 -35t-3 -36.5t-2 -23.5q20 49 59 78q74 55 172 55h166q123 0 211 -88t88 -215v-800q0 -14 -14 -15h-80q-12 0 -12 15v778q0 115 -57.5 173t-166.5 58h-133q-106 0 -163.5 -57t-57.5 -162v-790q0 -14 -14 -15h-80 q-12 0 -12 15zM295 1278q6 74 54 123t116 49t137 -57q63 -51 100 -52q43 0 70 30t31 71q2 12 12 12h49q12 0 13 -12q-6 -74 -54.5 -123t-115.5 -49q-68 0 -138 59q-63 49 -100 49q-43 0 -70.5 -29.5t-29.5 -70.5q-2 -12 -13 -12h-49q-12 0 -12 12z" />
<glyph unicode="&#xf2;" horiz-adv-x="1112" d="M164 307v512q0 135 85 222t218 87h178q135 0 219 -87t84 -222v-512q0 -135 -84 -222t-217 -87h-182q-133 0 -217 87t-84 222zM270 324q0 -231 215 -232h142q215 0 215 232v479q0 231 -215 231h-142q-215 0 -215 -231v-479zM390 1547q3 5 9 5h74q10 0 16 -8l166 -241 q10 -14 -8 -15h-55q-8 0 -17 8l-184 240q-4 6 -1 11z" />
<glyph unicode="&#xf3;" horiz-adv-x="1112" d="M164 307v512q0 135 85 222t218 87h178q135 0 219 -87t84 -222v-512q0 -135 -84 -222t-217 -87h-182q-133 0 -217 87t-84 222zM270 324q0 -231 215 -232h142q215 0 215 232v479q0 231 -215 231h-142q-215 0 -215 -231v-479zM461 1303l168 241q6 8 16 8h72q8 0 11 -5 t-3 -11l-184 -240q-6 -8 -17 -8h-55q-18 0 -8 15z" />
<glyph unicode="&#xf4;" horiz-adv-x="1112" d="M164 307v512q0 135 85 222t218 87h178q135 0 219 -87t84 -222v-512q0 -135 -84 -222t-217 -87h-182q-133 0 -217 87t-84 222zM270 324q0 -231 215 -232h142q215 0 215 232v479q0 231 -215 231h-142q-215 0 -215 -231v-479zM293 1275q-2 5 2 11l213 221q10 10 16 11h68 q6 0 14 -11l213 -221q6 -6 3 -11t-11 -5h-61q-6 0 -17 8l-147 139q-23 20 -27 37h-2q-4 -16 -29 -37l-147 -139q-10 -8 -16 -8h-62q-8 0 -10 5z" />
<glyph unicode="&#xf5;" horiz-adv-x="1112" d="M164 307v512q0 135 85 222t218 87h178q135 0 219 -87t84 -222v-512q0 -135 -84 -222t-217 -87h-182q-133 0 -217 87t-84 222zM240 1278q6 74 54 123t116 49q66 0 137 -57q63 -51 100 -52q43 0 69.5 30t31.5 71q2 12 12 12h49q12 0 12 -12q-6 -74 -54 -123t-116 -49 t-137 59q-63 49 -100 49q-43 0 -71 -29.5t-30 -70.5q-2 -12 -12 -12h-49q-12 0 -12 12zM270 324q0 -231 215 -232h142q215 0 215 232v479q0 231 -215 231h-142q-215 0 -215 -231v-479z" />
<glyph unicode="&#xf6;" horiz-adv-x="1112" d="M164 307v512q0 135 85 222t218 87h178q135 0 219 -87t84 -222v-512q0 -135 -84 -222t-217 -87h-182q-133 0 -217 87t-84 222zM270 324q0 -231 215 -232h142q215 0 215 232v479q0 231 -215 231h-142q-215 0 -215 -231v-479zM346 1282v141q0 14 14 15h66q14 0 14 -15v-141 q0 -14 -14 -14h-66q-14 0 -14 14zM668 1282v141q0 14 12 15h68q14 0 14 -15v-141q0 -14 -14 -14h-68q-12 0 -12 14z" />
<glyph unicode="&#xf7;" horiz-adv-x="1153" d="M135 668v65q0 14 12 15h859q12 0 12 -15v-65q0 -12 -12 -13h-859q-12 0 -12 13zM518 174v135q0 14 14 15h89q14 0 14 -15v-135q0 -14 -14 -14h-89q-14 0 -14 14zM518 1065v133q0 14 14 14h89q14 0 14 -14v-133q0 -14 -14 -14h-89q-14 0 -14 14z" />
<glyph unicode="&#xf8;" horiz-adv-x="1112" d="M164 305v516q0 127 89 217t216 90h168q25 0 43 -2q10 -2 20 -8q-2 14 0 23l82 239q4 10 17 11h61q16 0 12 -15l-88 -264q-4 -8 -12 -18q12 -2 19 -4q72 -35 114.5 -109t42.5 -160v-516q0 -127 -89 -217t-216 -90h-158q-29 0 -57 6q-10 2 -22 10q2 -16 -3 -24l-84 -250 q-4 -10 -16 -10h-59q-16 0 -13 14l91 268q6 16 14 25q-12 -2 -27 6q-66 41 -105.5 110.5t-39.5 151.5zM270 324q0 -115 57.5 -173.5t166.5 -58.5h124q109 0 166.5 58.5t57.5 173.5v477q0 115 -57.5 174t-166.5 59h-124q-109 0 -166.5 -59.5t-57.5 -173.5v-477z" />
<glyph unicode="&#xf9;" horiz-adv-x="1148" d="M184 303v801q0 12 15 12h80q12 0 12 -12v-780q0 -113 57.5 -172.5t165.5 -59.5h115q106 0 163.5 58.5t57.5 162.5v791q0 12 12 12h80q14 0 14 -12v-1079q0 -14 -14 -15h-74q-14 0 -14 13v14q0 16 2 34.5t3 36t3 23.5q-20 -47 -61 -78q-74 -55 -170 -55h-148 q-123 0 -211 89t-88 216zM408 1547q2 5 10 5h74q10 0 16 -8l166 -241q10 -14 -8 -15h-56q-10 0 -16 8l-184 240q-4 6 -2 11z" />
<glyph unicode="&#xfa;" horiz-adv-x="1148" d="M184 303v801q0 12 15 12h80q12 0 12 -12v-780q0 -113 57.5 -172.5t165.5 -59.5h115q106 0 163.5 58.5t57.5 162.5v791q0 12 12 12h80q14 0 14 -12v-1079q0 -14 -14 -15h-74q-14 0 -14 13v14q0 16 2 34.5t3 36t3 23.5q-20 -47 -61 -78q-74 -55 -170 -55h-148 q-123 0 -211 89t-88 216zM479 1303l166 241q6 8 17 8h73q8 0 10.5 -5t-2.5 -11l-184 -240q-6 -8 -16 -8h-56q-18 0 -8 15z" />
<glyph unicode="&#xfb;" horiz-adv-x="1148" d="M184 303v801q0 12 15 12h80q12 0 12 -12v-780q0 -113 57.5 -172.5t165.5 -59.5h115q106 0 163.5 58.5t57.5 162.5v791q0 12 12 12h80q14 0 14 -12v-1079q0 -14 -14 -15h-74q-14 0 -14 13v14q0 16 2 34.5t3 36t3 23.5q-20 -47 -61 -78q-74 -55 -170 -55h-148 q-123 0 -211 89t-88 216zM310.5 1275q-3.5 5 2.5 11l213 221q8 10 17 11h65q8 0 17 -11l213 -221q4 -6 2 -11t-11 -5h-61q-8 0 -16 8l-148 139q-23 20 -29 37q-6 -16 -28 -37l-150 -139q-8 -8 -14 -8h-61q-8 0 -11.5 5z" />
<glyph unicode="&#xfc;" horiz-adv-x="1148" d="M184 303v801q0 12 15 12h80q12 0 12 -12v-780q0 -113 57.5 -172.5t165.5 -59.5h115q106 0 163.5 58.5t57.5 162.5v791q0 12 12 12h80q14 0 14 -12v-1079q0 -14 -14 -15h-74q-14 0 -14 13v14q0 16 2 34.5t3 36t3 23.5q-20 -47 -61 -78q-74 -55 -170 -55h-148 q-123 0 -211 89t-88 216zM365 1282v141q0 14 14 15h65q14 0 15 -15v-141q0 -14 -15 -14h-65q-14 0 -14 14zM684 1282v141q0 14 14 15h68q14 0 14 -15v-141q0 -14 -14 -14h-68q-14 0 -14 14z" />
<glyph unicode="&#xfd;" horiz-adv-x="991" d="M43 1112q-6 16 10 16h76q12 0 16 -12l328 -930q14 -45 16 -75q4 31 21 77l326 928q4 10 14 10l78 2q16 0 12 -16l-473 -1331q-49 -139 -116.5 -215t-180.5 -76h-68q-14 0 -14 14v72q0 14 14 14h60q41 0 72.5 11.5t50 25t38 48t28.5 58t28 74.5l65 185q0 2 6 7l5 5 q-18 -6 -23 6zM397 1303l168 241q6 8 15 8h73q8 0 10.5 -5t-1.5 -11l-185 -240q-6 -8 -16 -8h-55q-18 0 -9 15z" />
<glyph unicode="&#xfe;" horiz-adv-x="1130" d="M193 -504v2134q0 14 12 15h82q12 0 12 -15v-549q0 -25 -8 -73q18 35 61 65q76 55 174 55h136q125 0 212 -89t87 -214v-522q0 -127 -87.5 -216t-211.5 -89h-136q-98 0 -174 55q-43 33 -61 66q8 -49 8 -74v-549q0 -12 -12 -12h-82q-12 0 -12 12zM299 315q0 -109 55.5 -166 t159.5 -57h113q109 0 169 60.5t60 171.5v479q0 113 -60.5 172t-168.5 59h-113q-104 0 -159.5 -57t-55.5 -166v-496z" />
<glyph unicode="&#xff;" horiz-adv-x="991" d="M43 1112q-6 16 10 16h76q12 0 16 -12l328 -930q14 -45 16 -75q4 31 21 77l326 928q4 10 14 10l78 2q16 0 12 -16l-473 -1331q-49 -139 -116.5 -215t-180.5 -76h-68q-14 0 -14 14v72q0 14 14 14h60q41 0 72.5 11.5t50 25t38 48t28.5 58t28 74.5l65 185q0 2 6 7l5 5 q-18 -6 -23 6zM283 1282v141q0 14 14 15h65q14 0 15 -15v-141q0 -14 -15 -14h-65q-14 0 -14 14zM604 1282v141q0 14 12 15h68q14 0 14 -15v-141q0 -14 -14 -14h-68q-12 0 -12 14z" />
<glyph unicode="&#x152;" horiz-adv-x="1777" d="M180 291v823q0 121 86 206t207 85h1184q14 0 14 -14v-70q0 -14 -14 -14h-567q-20 0 -46 10q8 -20 9 -43v-438q0 -23 -9 -43q23 10 46 10h516q12 0 12 -15v-63q0 -14 -12 -14h-516q-20 0 -46 8q8 -18 9 -41v-547q0 -23 -9 -43q25 10 46 10h612q14 0 14 -14v-70 q0 -14 -14 -14h-1229q-121 0 -207 85t-86 206zM289 307q0 -98 57.5 -153.5t159.5 -55.5h397q41 0 41 37v1141q0 33 -31 33h-407q-102 0 -159.5 -56.5t-57.5 -154.5v-791z" />
<glyph unicode="&#x153;" horiz-adv-x="1779" d="M164 307v512q0 135 85 222t218 87h178q86 0 152.5 -36.5t105.5 -102.5q41 66 108.5 102.5t147.5 36.5h193q117 0 211 -83.5t94 -202.5v-271q0 -12 -15 -12h-643q-35 0 -49 10q8 -16 8 -47v-205q0 -106 58.5 -165.5t167.5 -59.5h137q102 0 157.5 56.5t55.5 160.5v6 q0 12 12 13h80q14 0 12 -13v-24q-2 -121 -89 -207t-208 -86h-182q-80 0 -147.5 37t-108.5 102q-39 -66 -105.5 -102.5t-150.5 -36.5h-182q-133 0 -217 87t-84 222zM270 324q0 -231 215 -232h142q215 1 215 232v479q0 231 -215 231h-142q-215 0 -215 -231v-479zM950 633 q16 10 49 10h510q33 0 50 -10q-8 18 -9 47v141q0 102 -57 157.5t-164 55.5h-149q-106 0 -164 -55t-58 -158v-141q0 -29 -8 -47z" />
<glyph unicode="&#x178;" horiz-adv-x="1042" d="M-12 1386q-10 18 10 19h86q12 0 18 -10l392 -688q18 -33 26 -72q10 39 29 72l391 688q4 10 16 10h86q20 0 11 -19l-467 -823q-6 -8 -13 -14v-4q2 -4 2 -8v-523q0 -14 -16 -14h-78q-16 0 -16 14v523q0 2 1 7l1 5q-6 6 -10 14zM315 1530v131q0 14 15 14h65q12 0 13 -14 v-131q0 -14 -13 -14h-65q-14 0 -15 14zM625 1530v131q0 14 12 14h65q14 0 15 -14v-131q0 -14 -15 -14h-65q-12 0 -12 14z" />
<glyph unicode="&#x2c6;" horiz-adv-x="813" d="M142.5 1275q-3.5 5 2.5 9l213 223q8 10 17 11h65q8 0 17 -11l213 -223q4 -4 1 -9t-9 -5h-62q-8 0 -16 8l-148 139q-23 20 -28 35q-6 -14 -29 -35l-150 -139q-8 -8 -16 -8h-59q-8 0 -11.5 5z" />
<glyph unicode="&#x2dc;" horiz-adv-x="956" d="M188 1284q6 74 53.5 123t116.5 49q66 0 138 -59q61 -49 100 -49q41 0 68.5 29.5t31.5 70.5q2 12 13 12h49q12 0 10 -12q-4 -74 -52 -123t-116 -49t-137 59q-63 49 -103 49q-41 0 -68.5 -29.5t-31.5 -70.5q0 -12 -12 -12h-47q-14 0 -13 12z" />
<glyph unicode="&#x2000;" horiz-adv-x="892" />
<glyph unicode="&#x2001;" horiz-adv-x="1784" />
<glyph unicode="&#x2002;" horiz-adv-x="892" />
<glyph unicode="&#x2003;" horiz-adv-x="1784" />
<glyph unicode="&#x2004;" horiz-adv-x="594" />
<glyph unicode="&#x2005;" horiz-adv-x="446" />
<glyph unicode="&#x2006;" horiz-adv-x="297" />
<glyph unicode="&#x2007;" horiz-adv-x="297" />
<glyph unicode="&#x2008;" horiz-adv-x="223" />
<glyph unicode="&#x2009;" horiz-adv-x="356" />
<glyph unicode="&#x200a;" horiz-adv-x="99" />
<glyph unicode="&#x2010;" horiz-adv-x="956" d="M190 563v60q0 14 13 14h549q14 0 14 -14v-60q0 -14 -14 -14h-549q-12 0 -13 14z" />
<glyph unicode="&#x2011;" horiz-adv-x="956" d="M190 563v60q0 14 13 14h549q14 0 14 -14v-60q0 -14 -14 -14h-549q-12 0 -13 14z" />
<glyph unicode="&#x2012;" horiz-adv-x="956" d="M190 563v60q0 14 13 14h549q14 0 14 -14v-60q0 -14 -14 -14h-549q-12 0 -13 14z" />
<glyph unicode="&#x2013;" horiz-adv-x="1327" d="M186 563v64q0 14 15 14h927q12 0 13 -14v-64q0 -14 -13 -14h-927q-14 0 -15 14z" />
<glyph unicode="&#x2014;" horiz-adv-x="1554" d="M186 563v64q0 14 15 14h1153q12 0 12 -14v-64q0 -14 -12 -14h-1153q-14 0 -15 14z" />
<glyph unicode="&#x2018;" horiz-adv-x="405" d="M139 1212v138v4v4v92q0 119 105 141h14q6 2 6 -6v-41q0 -6 -6 -8h-6q-27 -8 -38 -28.5t-11 -73.5v-70h41q14 0 14 -14v-138q0 -14 -14 -14h-90q-14 0 -15 14z" />
<glyph unicode="&#x2019;" horiz-adv-x="397" d="M143 1204v41q0 6 9 8h4q29 8 40 29t11 74v69h-43q-12 0 -12 15v137q0 14 12 14h92q12 0 12 -14v-137v-4v-4v-93q0 -119 -104 -141h-12q-8 -2 -9 6z" />
<glyph unicode="&#x201a;" horiz-adv-x="405" d="M141 -180q0 6 6 6l7 2q29 8 40 28.5t11 73.5v70h-43q-14 0 -15 14v138q0 14 15 14h92q12 0 12 -14v-138v-4v-4v-92q0 -119 -104 -141h-12q-8 -2 -9 6v41z" />
<glyph unicode="&#x201c;" horiz-adv-x="694" d="M176 1210v140q0 2 2 4l-2 2v94q0 119 107 141h12q6 2 6 -6v-41q0 -6 -6 -8h-4q-29 -8 -40 -28.5t-11 -73.5v-72h41q14 0 14 -12v-140q0 -12 -14 -12h-91q-14 0 -14 12zM465 1210v140v4v2v94q0 119 104 141h15q6 2 6 -6v-41q0 -6 -6 -8h-6q-27 -8 -38.5 -28.5t-11.5 -73.5 v-72h41q14 0 15 -12v-140q0 -12 -15 -12h-90q-14 0 -14 12z" />
<glyph unicode="&#x201d;" horiz-adv-x="694" d="M104 1204v41q0 6 7 6l6 2q27 8 39 29t12 74v69h-43q-14 0 -14 15v137q0 14 14 14h90q14 0 14 -14v-137v-4v-4v-93q0 -119 -104 -141h-12q-8 -2 -9 6zM393 1204v41q0 6 6 6l7 2q27 8 39 29t12 74v69h-43q-14 0 -15 15v137q0 14 15 14h90q14 0 14 -14v-137v-4v-4v-93 q0 -119 -104 -141h-13q-8 -2 -8 6z" />
<glyph unicode="&#x201e;" horiz-adv-x="679" d="M141 -180q0 6 6 8h7q29 8 40 28.5t11 73.5v70h-43q-14 0 -15 14v138q0 14 15 14h92q12 0 12 -14v-138v-4v-4v-92q0 -119 -104 -141h-12q-8 -2 -9 6v41zM416 -180q0 6 6 8h4q29 8 40 28.5t11 73.5v70h-41q-14 0 -14 14v138q0 14 14 14h90q14 0 15 -14v-138q0 -2 -2 -4 q2 -2 2 -4v-92q0 -119 -107 -141h-12q-6 -2 -6 6v41z" />
<glyph unicode="&#x2022;" horiz-adv-x="942" d="M236 635q0 98 68.5 168.5t164.5 70.5q98 0 168 -70.5t70 -168.5t-70 -168t-168 -70q-96 0 -164.5 70t-68.5 168z" />
<glyph unicode="&#x2026;" horiz-adv-x="1288" d="M176 14v138q0 14 14 14h91q14 0 14 -14v-138q0 -14 -14 -14h-91q-14 0 -14 14zM582 14v138q0 14 14 14h90q14 0 14 -14v-138q0 -14 -14 -14h-90q-14 0 -14 14zM993 14v138q0 14 15 14h90q14 0 14 -14v-138q0 -14 -14 -14h-90q-14 0 -15 14z" />
<glyph unicode="&#x202f;" horiz-adv-x="356" />
<glyph unicode="&#x2039;" horiz-adv-x="600" d="M174 553v63q0 8 10 19l222 223q6 4 11 1t5 -9v-72q0 -8 -8 -16l-140 -150q-14 -14 -14 -26.5t14 -28.5l140 -149q8 -8 8 -17v-72q0 -8 -5 -11t-11 3l-222 226q-10 8 -10 16z" />
<glyph unicode="&#x203a;" horiz-adv-x="600" d="M174 319v72q0 8 8 17l140 149q14 16 14 28.5t-14 26.5l-140 150q-8 8 -8 16v72q0 6 5 9t9 -1l224 -223q10 -10 10 -19v-63q0 -8 -10 -16l-224 -226q-4 -6 -9 -3t-5 11z" />
<glyph unicode="&#x205f;" horiz-adv-x="446" />
<glyph unicode="&#x20ac;" horiz-adv-x="1183" d="M-4 547v57q0 12 12 12h191v179h-191q-12 0 -12 14v57q0 12 12 13h191v237q0 121 86 206t207 85h286q121 0 207 -85t86 -206v-90q0 -14 -14 -14h-82q-14 0 -14 14v74q0 98 -57.5 154.5t-160.5 56.5h-217q-102 0 -160.5 -56.5t-58.5 -154.5v-221h457q12 0 12 -13v-57 q0 -14 -12 -14h-457v-179h457q12 0 12 -12v-57q0 -12 -12 -12h-457v-230q0 -98 58.5 -154.5t160.5 -56.5h217q102 0 161 56.5t59 154.5v90q0 14 14 15h80q14 0 14 -15v-106q0 -121 -86 -206t-207 -85h-286q-121 0 -207 85t-86 206v246h-191q-12 0 -12 12z" />
<glyph unicode="&#x2122;" horiz-adv-x="1775" d="M94 1395v39q0 14 17 14h505q16 0 17 -14v-39q0 -12 -17 -13h-200h-15q2 -6 2 -14v-711q0 -14 -18 -14h-43q-18 0 -18 14v711q0 8 2 14h-15h-200q-16 0 -17 13zM760 657v777q0 14 16 14h58q14 0 18 -10l266 -645q6 -12 10 -25q4 12 11 25l266 645q4 10 18 10h58 q16 0 16 -14v-777q0 -14 -16 -14h-45q-16 0 -17 14v596q0 18 2 37q-8 -16 -16 -35l-246 -600q-4 -8 -16 -8h-29q-12 0 -16 8l-248 598q-6 18 -14 37q2 -20 2 -37v-596q0 -14 -19 -14h-43q-16 0 -16 14z" />
<glyph unicode="&#x25fc;" horiz-adv-x="1130" d="M0 0v1130h1130v-1130h-1130z" />
</font>
</defs>
</svg>
