<?xml version="1.0" standalone="no"?>
<!DOCTYPE svg PUBLIC "-//W3C//DTD SVG 1.1//EN" "http://www.w3.org/Graphics/SVG/1.1/DTD/svg11.dtd" >
<svg xmlns="http://www.w3.org/2000/svg" xmlns:xlink="http://www.w3.org/1999/xlink" version="1.1">
<metadata></metadata>
<defs>
<font id="polarlight_italic" horiz-adv-x="1165" >
<font-face units-per-em="2048" ascent="1638" descent="-410" />
<missing-glyph horiz-adv-x="661" />
<glyph unicode="&#xfb01;" horiz-adv-x="1212" d="M268 25l168 960q6 33 19 49q-14 -12 -52 -12h-116q-14 0 -13 14l13 66q2 14 16 14h117q39 0 47 -10q-6 12 0 49l33 182q23 129 125 218.5t231 89.5h408q12 0 10 -15l-12 -67q-2 -14 -17 -15h-375q-113 0 -181 -59t-87 -170l-29 -164q-6 -37 -18 -49q14 10 53 10h576 q12 0 10 -12l-190 -1079q-2 -14 -15 -15h-80q-14 0 -10 15l174 997h-483q-37 0 -47 12q6 -16 0 -49l-170 -960q-2 -14 -15 -15h-79q-12 0 -11 15z" />
<glyph unicode="&#xfb02;" horiz-adv-x="1300" d="M268 25l168 960q6 33 19 49q-14 -12 -52 -12h-116q-14 0 -13 14l13 66q2 14 16 14h117q39 0 47 -10q-6 12 0 49l33 182q23 129 125 217t231 91h45h2h465q10 0 8 -13l-2 -6l-282 -1601q-2 -14 -15 -15h-80q-12 0 -10 15l268 1523h-385h-2q-111 0 -179 -59t-87 -170 l-29 -164q-6 -37 -18 -49q14 10 53 10h213q12 0 10 -14l-10 -66q-4 -14 -16 -14h-215q-37 0 -47 12q6 -16 0 -49l-170 -960q-2 -14 -15 -15h-79q-12 0 -11 15z" />
<glyph horiz-adv-x="0" />
<glyph horiz-adv-x="682" />
<glyph unicode="&#x9;" horiz-adv-x="661" />
<glyph unicode=" "  horiz-adv-x="661" />
<glyph unicode="&#x09;" horiz-adv-x="661" />
<glyph unicode="&#xa0;" horiz-adv-x="661" />
<glyph unicode="!" horiz-adv-x="641" d="M256 14l25 150q4 12 16 12h68q14 0 12 -12l-27 -150q-2 -14 -16 -14h-68q-14 0 -10 14zM309 332l199 1149q2 12 16 12h78q14 0 12 -12l-208 -1149q-2 -14 -17 -15h-67q-14 0 -13 15z" />
<glyph unicode="&#x22;" horiz-adv-x="694" d="M326 1251l26 277q0 14 17 14h90q14 0 10 -14l-72 -277q-4 -14 -16 -14h-43q-14 0 -12 14zM623 1247l24 277q2 14 17 14h90q16 0 12 -14l-72 -277q-4 -14 -16 -14h-45q-12 0 -10 14z" />
<glyph unicode="#" horiz-adv-x="1761" d="M240 414l10 59q2 12 20 12h312l163 484h-321q-8 0 -13 4t-3 10l10 57q2 14 20 15h336l137 411q6 12 17 13h63q16 0 13 -17l-140 -407h465l139 411q4 12 15 13h63q16 0 13 -17l-138 -407h305q8 0 13.5 -4t3.5 -11l-10 -57q-2 -14 -21 -14h-319l-164 -484h330q10 0 14 -3 t2 -9l-10 -59q-2 -12 -21 -13h-344l-145 -426q-4 -10 -15 -10h-59q-16 0 -12 15l141 421h-465l-145 -426q-4 -10 -17 -10h-57q-16 0 -14 15l141 421h-297q-8 0 -12 3.5t-4 9.5zM672 485h465l163 484h-464z" />
<glyph unicode="$" horiz-adv-x="1116" d="M156 285l24 143q2 14 17 14h82q14 0 12 -14l-25 -141q-16 -82 31 -137.5t127 -55.5h274q76 0 138.5 56.5t76.5 136.5l27 149q20 117 -96 176l-418 207q-74 35 -107.5 101.5t-21.5 140.5l12 65q20 117 120.5 199t221.5 82h82l41 235q2 14 17 15h69q12 0 10 -15l-41 -235 h78q123 0 191.5 -84t48.5 -205l-12 -67q-2 -16 -19 -17h-80q-14 0 -12 17l14 75q12 76 -34 129.5t-123 53.5h-246q-76 0 -140.5 -54.5t-78.5 -130.5l-8 -55q-10 -57 13 -103t75 -71l430 -213q74 -35 105.5 -102.5t17.5 -153.5l-25 -141q-20 -119 -121.5 -203t-222.5 -84 h-102l-35 -203q-2 -14 -17 -14h-67q-14 0 -13 14l35 203h-84q-121 0 -192.5 84t-48.5 203z" />
<glyph unicode="%" horiz-adv-x="2019" d="M129 770l94 541q20 109 99 184q80 80 176 80h149q96 0 148 -78q53 -78 32 -186l-94 -541q-18 -106 -96 -184q-82 -78 -178 -78h-150q-96 0 -149 78q-49 78 -31 184zM227 786q-14 -88 15 -137q30 -51 108 -51h103q76 0 125 51q47 49 61 137l90 510q16 86 -14 136 q-31 51 -107 51h-102q-76 0 -125 -51q-47 -49 -64 -136zM707 172l606 938q8 12 18 12h62q18 0 8 -16l-606 -936q-8 -12 -19 -12h-59q-20 0 -10 14zM1317 57l94 543q20 106 96 184q82 80 179 80h149q96 0 147 -80q53 -76 33 -184l-94 -543q-18 -106 -96 -182 q-82 -80 -178 -80h-150q-96 0 -149 80q-49 76 -31 182zM1415 74q-14 -86 15 -135q30 -52 106 -52h104q76 0 125 52q47 49 62 135l90 510q16 88 -14 137q-31 51 -107 51h-102q-78 0 -125 -51q-49 -49 -64 -137z" />
<glyph unicode="&#x26;" horiz-adv-x="1478" d="M258 305l41 227q25 139 143 228q14 10 17.5 25.5t-6.5 25.5q-86 86 -62 227l27 152q23 127 127 215t229 88h164q127 0 199.5 -88t50.5 -215l-6 -39q-2 -12 -17 -12h-80q-12 0 -10 12l4 18q18 109 -31 169.5t-157 60.5h-103q-109 0 -179 -60.5t-89 -169.5l-20 -118 q-20 -106 29 -165t159 -59h791q12 0 10 -12l-10 -61q-2 -12 -17 -13h-170l-78 -438q-23 -127 -127 -216t-231 -89h-346q-127 0 -200.5 90t-51.5 217zM367 324q-18 -111 29.5 -171.5t158.5 -60.5h289q111 0 180.5 59.5t87.5 170.5l74 419h-516q-109 0 -179.5 -60t-91.5 -173z " />
<glyph unicode="'" horiz-adv-x="397" d="M362 1247l25 277q2 14 16 14h93q14 0 10 -14l-72 -277q-4 -14 -16 -14h-43q-14 0 -13 14z" />
<glyph unicode="(" horiz-adv-x="671" d="M174 -133l248 1397q20 121 109.5 206.5t207.5 102.5q6 2 10.5 -2t2.5 -10l-11 -62q-2 -14 -16 -14q-86 -18 -141.5 -80t-73.5 -164l-240 -1358q-35 -205 131 -239q12 -2 11 -15l-11 -61q-4 -14 -18 -12q-113 16 -171 103t-38 208z" />
<glyph unicode=")" horiz-adv-x="671" d="M78 -432l10 61q2 12 16 15q178 35 213 239l240 1358q18 102 -15.5 163.5t-113.5 80.5q-12 2 -10 14l10 62q4 14 18 12q113 -16 171.5 -102.5t37.5 -206.5l-247 -1397q-20 -121 -109.5 -208t-208.5 -103q-6 -2 -10 2t-2 10z" />
<glyph unicode="*" horiz-adv-x="1177" d="M377 985q-6 12 6 21l281 172l53 24q-35 18 -45 27l-219 172q-10 6 0 18l43 54q10 12 18 2l195 -156l51 -49q0 61 2 73l49 275q2 14 16 14h58q14 0 12 -14l-49 -275l-23 -73q55 41 68 49l250 158q12 8 18 -4l25 -52q6 -12 -8 -20l-279 -172l-59 -27q41 -18 49 -24 l219 -172q10 -8 0 -21l-41 -51q-10 -12 -20 -4l-195 155l-49 50q-2 -61 -4 -74l-49 -273q-2 -14 -17 -14h-57q-14 0 -10 14l47 273q2 6 7 24.5t10 34.5l5 15l-14 -11q-14 -10 -30.5 -22t-22.5 -17l-250 -155q-12 -8 -19 4z" />
<glyph unicode="+" horiz-adv-x="1146" d="M233 670l11 65q2 12 16 13h379l68 374q2 12 14 13h63q12 0 11 -13l-66 -374h381q12 0 10 -13l-12 -65q-2 -14 -14 -15h-381l-72 -403q-2 -12 -14 -12h-64q-12 0 -10 12l70 403h-379q-12 0 -11 15z" />
<glyph unicode="," horiz-adv-x="432" d="M123 -221l6 41q2 6 8 6l6 2q29 8 44.5 28.5t23.5 73.5l12 70h-41q-14 0 -12 14l25 138q2 14 16 14h90q14 0 12 -14l-24 -138q0 -2 -2 -4v-4l-17 -92q-20 -119 -129 -141h-12q-4 -2 -6 0t0 6z" />
<glyph unicode="-" horiz-adv-x="956" d="M268 563l13 60q2 14 14 14h549q14 0 10 -14l-10 -60q-2 -14 -15 -14h-548q-14 0 -13 14z" />
<glyph unicode="." horiz-adv-x="385" d="M123 14l22 138q4 14 17 14h92q14 0 10 -14l-24 -138q-2 -14 -15 -14h-92q-14 0 -10 14z" />
<glyph unicode="/" horiz-adv-x="557" d="M-43 12l743 1389q6 10 17 10h80q16 0 10 -14l-746 -1389q-6 -12 -18 -12h-76q-16 0 -10 16z" />
<glyph unicode="0" horiz-adv-x="1093" d="M129 338l129 725q25 139 131.5 239.5t237.5 100.5h213q131 0 202.5 -100.5t47.5 -239.5l-129 -725q-25 -139 -131.5 -239.5t-237.5 -100.5h-213q-131 0 -203 100.5t-47 239.5zM240 358q-23 -123 25 -194.5t163 -71.5h147q115 0 189 72t96 194l119 684q23 123 -25.5 196 t-162.5 73h-148q-115 0 -188.5 -73t-96.5 -196z" />
<glyph unicode="1" horiz-adv-x="741" d="M78 12l12 66q2 14 14 14h183q33 0 51 -12q-8 18 -4 47l203 1145q4 27 18 47q-27 -12 -55 -12h-240q-12 0 -10 12l12 70q2 12 14 12h371q14 0 12 -12l-223 -1262q-4 -29 -18 -47q25 12 57 12h191q14 0 12 -14l-12 -66q-2 -12 -17 -12h-559q-14 0 -12 12z" />
<glyph unicode="2" horiz-adv-x="1099" d="M82 14l27 150q8 43 29.5 73.5t70.5 61.5l657 477q45 37 68.5 67.5t34.5 82.5l20 123q20 119 -25.5 190.5t-158.5 71.5h-164q-164 0 -238 -142l-4 -8q-2 -10 -14 -10h-86q-10 0 -4 12l2 8q47 102 136 167t196 65h217q131 0 203.5 -100.5t48.5 -237.5l-25 -139 q-25 -135 -170 -230l-647 -467q-35 -25 -41 -55l-8 -47q-4 -27 -19 -45q25 10 54 10h684q12 0 10 -14l-10 -66q-4 -12 -17 -12h-815q-14 0 -12 14z" />
<glyph unicode="3" horiz-adv-x="1079" d="M78 231v9q0 14 10 14h86q10 0 10 -10v-13q12 -66 60.5 -102.5t128.5 -36.5h211q117 0 189.5 72t94.5 194l17 97q23 123 -25.5 194.5t-165.5 71.5h-211q-10 0 -10 10l12 64q2 8 13 8h188q113 0 186.5 65.5t88.5 155.5l8 39q20 119 -28 183.5t-165 64.5h-174 q-162 0 -237 -142l-3 -8q-4 -10 -16 -10h-84q-10 0 -6 12l2 8q47 102 136 167t196 65h233q135 0 207 -91t47 -229l-12 -71q-10 -55 -50 -113.5t-95 -99.5q-37 -27 -58 -33q20 0 47 -23q51 -43 75 -115.5t9 -152.5l-24 -139q-25 -139 -131.5 -238.5t-239.5 -99.5h-270 q-106 0 -173 65.5t-77 167.5z" />
<glyph unicode="4" horiz-adv-x="1042" d="M16 342l15 76q2 8 6 14l852 963q6 6 14 6h111q8 0 6 -6l-166 -942q-4 -29 -16 -43q18 8 47 8h155q12 0 11 -12l-11 -62q-2 -14 -16 -14h-154q-31 0 -45 10q6 -16 0 -45l-49 -283q-2 -12 -14 -12h-80q-14 0 -10 12l49 285q4 27 16 43q-18 -10 -49 -10h-661q-12 0 -11 12z M113 408q35 10 82 10h507q31 0 48 -8q-6 14 -2 43l137 778q6 29 16 53q-14 -25 -35 -47l-690 -774q-31 -33 -63 -55z" />
<glyph unicode="5" horiz-adv-x="1028" d="M98 231v9q0 14 11 14h86q12 0 10 -10v-13q12 -66 60 -102.5t128 -36.5h219q113 0 184.5 72t92.5 188l24 142q20 119 -25.5 190.5t-158.5 71.5h-242q-18 0 -34 -6l-72 -27q-18 -6 -31 -6h-69q-18 0 -15 20l115 652q2 12 16 12h701q14 0 12 -12l-12 -68q-2 -14 -17 -14 h-569q-29 0 -49 10q6 -20 2 -45l-78 -445q-2 -12 -12 -26q20 10 28 12l62 23q20 6 41 6h262q133 0 204.5 -100.5t47.5 -237.5l-29 -166q-25 -139 -132 -239.5t-238 -100.5h-273q-106 0 -172.5 65.5t-77.5 167.5z" />
<glyph unicode="6" horiz-adv-x="1019" d="M117 338l131 743q23 137 128 230.5t238 93.5l213 -2q106 0 173 -64.5t77 -167.5v-8q0 -12 -10 -12h-86q-10 0 -10 10v8q-25 139 -187 142h-161q-115 0 -183.5 -63.5t-89.5 -180.5l-45 -252q-2 -14 -12 -29q16 10 29 15l61 20q18 6 39 6h317q133 0 205 -100t47 -240 l-26 -149q-25 -139 -132.5 -239.5t-238.5 -100.5h-229q-133 0 -203 100.5t-45 239.5zM223 352q-20 -119 27 -189.5t162 -70.5h176q111 0 182.5 72t91.5 188l23 127q20 119 -26 189.5t-161 70.5h-288q-18 0 -37 -6l-66 -24q-12 -2 -26 -2q4 -10 2 -19z" />
<glyph unicode="7" horiz-adv-x="858" d="M152 14l651 1237q25 49 55 72q-43 -16 -78 -16h-612q-12 0 -10 14l12 68q2 12 16 12h752q10 0 8 -12l-14 -84q-2 -8 -8 -21l-670 -1274q-6 -10 -16 -10h-78q-16 0 -8 14z" />
<glyph unicode="8" horiz-adv-x="1093" d="M98 336l25 137q14 86 63.5 162t116.5 110q41 18 68 23q-27 6 -60 31q-45 31 -62.5 91t-6.5 122l12 71q25 135 128 227.5t239 92.5h217q135 0 205.5 -92t48.5 -228l-15 -71q-10 -61 -49 -122t-94 -91q-47 -29 -74 -29q23 -2 62 -25q55 -35 77.5 -110.5t8.5 -161.5 l-25 -137q-25 -139 -132.5 -238.5t-238.5 -99.5h-262q-131 0 -203.5 99.5t-48.5 238.5zM207 358q-20 -123 28 -194.5t162 -71.5h201q115 0 188.5 72t96.5 194l16 97q20 123 -27 194.5t-163 71.5h-199q-117 0 -190.5 -71.5t-94.5 -194.5zM348 1024q-14 -90 36 -155.5 t163 -65.5h153q113 0 187 65.5t88 155.5l8 39q20 117 -28 181.5t-167 64.5h-153q-117 0 -187.5 -64.5t-91.5 -181.5z" />
<glyph unicode="9" horiz-adv-x="1116" d="M143 231v7q0 12 11 12h84q12 0 12 -8v-11q25 -137 186 -139h168q115 0 183.5 63.5t89.5 180.5l45 248q2 14 12 28q-18 -10 -31 -12l-61 -22q-18 -4 -37 -5h-320q-131 0 -202.5 100.5t-49.5 237.5l29 154q25 139 131.5 239.5t239.5 100.5h229q133 0 203 -100.5t45 -239.5 l-131 -746q-25 -135 -129.5 -228t-239.5 -93h-217q-106 2 -172.5 66.5t-77.5 166.5zM340 922q-20 -119 27 -191t159 -72h289q18 0 37 7l66 24q10 4 28 2q-4 10 -4 19l62 340q20 119 -28 189.5t-161 70.5h-176q-113 0 -183.5 -72t-90.5 -188z" />
<glyph unicode=":" horiz-adv-x="501" d="M123 14l22 138q4 14 17 14h92q14 0 10 -14l-24 -138q-2 -14 -15 -14h-92q-14 0 -10 14zM240 682l24 137q2 14 17 15h90q14 0 12 -15l-25 -137q-2 -14 -16 -14h-90q-14 0 -12 14z" />
<glyph unicode=";" horiz-adv-x="542" d="M123 -221l6 41q2 6 8 6l6 2q29 8 44.5 28.5t23.5 73.5l12 70h-41q-14 0 -12 14l25 138q2 14 16 14h90q14 0 12 -14l-24 -138q0 -2 -2 -4v-4l-17 -92q-20 -119 -129 -141h-12q-4 -2 -6 0t0 6zM279 682l24 137q2 14 16 15h91q14 0 12 -15l-25 -137q-2 -14 -16 -14h-90 q-14 0 -12 14z" />
<glyph unicode="&#x3c;" horiz-adv-x="1181" d="M238 700q-12 6 2 15l901 471q8 4 12 1t2 -11l-14 -82q-3 -11 -13 -15l-643 -338q-49 -27 -106 -34q55 -8 94 -33l524 -338q8 -4 7 -14l-15 -82q-2 -18 -16 -11z" />
<glyph unicode="=" horiz-adv-x="1218" d="M233 385l11 61q2 14 14 15h858q12 0 10 -15l-12 -61q-2 -12 -14 -12h-856q-12 0 -11 12zM299 762l10 63q4 12 17 13h856q12 0 10 -13l-10 -63q-2 -12 -17 -12h-856q-12 0 -10 12z" />
<glyph unicode="&#x3e;" horiz-adv-x="1181" d="M233 240l15 82q2 10 10 14l645 338q47 25 107 33q-55 8 -95 34l-526 338q-8 4 -6 15l14 82q4 18 19 10l735 -471q12 -8 -4 -15l-901 -471q-6 -4 -10.5 -1t-2.5 12z" />
<glyph unicode="?" horiz-adv-x="1019" d="M207 1049l24 141q23 127 125.5 215t231.5 88h176q127 0 200.5 -88t53.5 -215l-29 -156q-16 -90 -72.5 -163.5t-140.5 -108.5l-135 -64q-63 -29 -107.5 -78t-54.5 -110l-33 -178q-2 -14 -16 -15h-68q-14 0 -12 15l35 194q16 86 74.5 152.5t146.5 107.5l133 62 q117 53 142 184l26 162q14 80 -29.5 138.5t-123.5 62.5h-183q-84 0 -153.5 -58.5t-83.5 -142.5l-25 -145q-4 -14 -16 -15h-76q-14 0 -10 15zM297 14l25 142q4 14 16 14h68q14 0 12 -14l-27 -142q-2 -14 -16 -14h-66q-14 0 -12 14z" />
<glyph unicode="@" horiz-adv-x="1918" d="M262 557q66 367 322 598t616 231q350 0 515 -216.5t102 -583.5q-14 -80 -47 -166t-81.5 -167t-118 -132t-149.5 -51q-123 0 -143 133q-45 -49 -76 -66q-86 -68 -190 -67h-142q-127 0 -199.5 89t-49.5 218l61 356q23 127 127 217t229 90h131q80 0 158 -57q37 -27 51 -61 q2 35 11 86l2 10q2 10 14 10h76q14 0 12 -14l-129 -727q-23 -127 88 -127q53 0 102.5 46t83 116.5t54 134t30.5 116.5q59 334 -80 529.5t-458 195.5q-324 0 -547 -204.5t-282.5 -536.5t92 -537.5t475.5 -205.5q188 0 344 77q8 4 10 -2l24 -63q2 -6 -4 -10q-172 -90 -389 -90 q-233 0 -395 106.5t-226.5 294.5t-23.5 430zM727 389q-18 -113 30 -169t161 -56h88q111 0 180.5 57t89.5 168l57 332q20 111 -30 168t-160 57h-88q-111 0 -180.5 -57.5t-88.5 -167.5z" />
<glyph unicode="A" d="M74 14l585 1381q4 10 17 10h268q12 0 12 -10l101 -1379q4 -16 -15 -16h-81q-14 0 -15 10l-24 400q0 6 2 34q-16 -6 -35 -6h-498q-20 0 -35 6q-6 -29 -8 -34l-166 -400q-4 -10 -18 -10h-84q-14 0 -6 14zM383 524q20 6 41 6h465q18 0 39 -6q-16 27 -19 49l-45 703 q-2 20 13 37q-8 -6 -23 -6h-123q-14 0 -20 6q8 -16 0 -37l-295 -703q-8 -23 -33 -49z" />
<glyph unicode="B" horiz-adv-x="1173" d="M188 14l242 1377q2 14 19 14h561q124 0 194 -84q53 -63 53 -148q0 -28 -6 -57l-22 -135q-12 -61 -49 -118.5t-90 -96.5q-18 -12 -35 -23q12 -8 26 -22q41 -39 59 -97q11 -35 12 -70q0 -23 -5 -46l-37 -219q-23 -119 -124 -204t-224 -85h-561q-16 0 -13 14zM301 86 q37 8 47 8h397q102 0 170 55.5t84 151.5l33 188q5 28 5 52q0 63 -34 103q-47 56 -149 56h-399q-23 0 -43 11q2 -25 0 -43l-97 -539q-2 -12 -14 -43zM424 776q23 10 45 10h399q104 0 170 55.5t84 155.5l19 101q4 26 4 49q0 67 -34 107q-46 54 -150 55h-400q-18 0 -43 10 q4 -23 0 -43l-80 -457q-4 -18 -14 -43z" />
<glyph unicode="C" horiz-adv-x="1163" d="M211 289l145 827q20 121 122 206t222 85h285q121 0 193 -85q55 -65 54 -151q0 -26 -5 -55l-15 -90q-4 -14 -18 -14h-80q-14 0 -12 14l14 74q4 24 4 46q0 66 -36 108q-48 56 -150 57h-217q-102 0 -170 -56.5t-86 -154.5l-139 -795q-4 -25 -4 -47q0 -66 36 -108 q48 -56 148 -56h219q102 0 169.5 56.5t84.5 154.5l16 90q2 14 17 15h79q14 0 13 -15l-19 -106q-20 -121 -121.5 -206t-222.5 -85h-284q-121 0 -193 85q-55 64 -55 150q0 27 6 56z" />
<glyph unicode="D" horiz-adv-x="1261" d="M188 14l242 1377q2 14 16 14h568q124 0 194 -85q54 -65 54 -152q0 -26 -5 -54l-145 -823q-20 -121 -121.5 -206t-224.5 -85h-567q-14 0 -11 14zM301 88q25 10 47 10h406q100 0 167.5 55.5t84.5 149.5l141 799q4 24 4 45q0 63 -36 105q-48 56 -148 55h-406q-23 0 -43 10 q4 -20 0 -43l-201 -1143q-4 -23 -16 -43z" />
<glyph unicode="E" horiz-adv-x="1038" d="M188 14l242 1377q2 14 19 14h696q14 0 12 -14l-12 -70q-2 -14 -17 -14h-567q-23 0 -43 10q4 -20 0 -43l-78 -438q-4 -23 -14 -43q25 10 47 10h514q14 0 10 -15l-10 -63q-2 -14 -16 -14h-514q-23 0 -45 8q6 -18 2 -41l-97 -547q-4 -23 -16 -43q27 10 47 10h613 q14 0 12 -14l-12 -70q-4 -14 -17 -14h-743q-16 0 -13 14z" />
<glyph unicode="F" horiz-adv-x="954" d="M188 14l242 1377q2 14 19 14h698q12 0 10 -14l-12 -70q-2 -14 -17 -14h-567q-20 0 -43 10q4 -18 0 -43l-80 -453q-4 -23 -14 -41q23 8 45 8h473q14 0 12 -14l-10 -63q-4 -14 -18 -15h-471q-23 0 -43 11q2 -20 0 -43l-115 -650q-4 -14 -18 -14h-80q-14 0 -11 14z" />
<glyph unicode="G" horiz-adv-x="1193" d="M211 289l145 827q20 121 122 206t224 85h267q123 0 195 -85q55 -66 55 -152q0 -25 -5 -52l-10 -49q-2 -14 -16 -14h-80q-14 0 -12 14l6 35q5 26 5 49q0 62 -36 103q-49 55 -149 55h-207q-100 0 -168 -56.5t-84 -152.5l-141 -797q-5 -27 -5 -50q0 -63 35 -105 q49 -56 150 -56h205q102 0 169.5 55.5t84.5 153.5l55 311q4 23 16 45q-25 -10 -47 -10h-213q-14 0 -10 15l10 57q2 14 16 14h345q14 0 12 -14l-78 -432q-20 -121 -121.5 -206t-224.5 -85h-266q-123 0 -195 85q-55 64 -55 150q0 27 6 56z" />
<glyph unicode="H" horiz-adv-x="1282" d="M176 14l244 1377q2 14 16 14h80q14 0 12 -14l-104 -588q-4 -23 -14 -41q23 8 45 8h604q23 0 43 -8q-4 18 0 41l104 588q2 14 17 14h80q14 0 12 -14l-244 -1377q-2 -14 -16 -14h-80q-14 0 -12 14l112 631q4 25 15 43q-25 -8 -48 -8h-602q-25 0 -43 8q2 -20 -2 -43 l-110 -631q-2 -14 -17 -14h-80q-14 0 -12 14z" />
<glyph unicode="I" horiz-adv-x="520" d="M188 14l242 1377q2 14 16 14h80q14 0 13 -14l-244 -1377q-2 -14 -16 -14h-80q-14 0 -11 14z" />
<glyph unicode="J" horiz-adv-x="573" d="M-35 -39l12 62q2 16 17 16h49q98 0 167 53t85 150l203 1149q2 14 18 14h78q14 0 12 -14l-203 -1153q-23 -121 -124 -206t-224 -85h-75q-16 0 -15 14z" />
<glyph unicode="K" horiz-adv-x="1148" d="M188 14l242 1377q2 14 16 14h80q14 0 13 -14l-119 -668q-10 -68 -31 -123q35 49 88 102l678 695q8 8 19 8h100q10 0 11 -5t-5 -14l-494 -499q-14 -16 -26 -19q12 -14 16 -24l350 -828q6 -16 -14 -16h-90q-10 0 -14 8l-310 737q-10 25 -8 56q-16 -25 -43 -51l-239 -246 q-10 -12 -39 -29q0 -2 2 -8t2 -10t-2 -13l-76 -430q-2 -14 -16 -14h-80q-14 0 -11 14z" />
<glyph unicode="L" horiz-adv-x="880" d="M188 14l242 1377q4 14 19 14h77q16 0 13 -14l-222 -1258q-4 -25 -14 -45q20 10 45 10h520q16 0 13 -16l-11 -68q-4 -14 -18 -14h-651q-14 0 -13 14z" />
<glyph unicode="M" horiz-adv-x="1689" d="M188 14l242 1377q2 14 19 14h102q12 0 14 -12l273 -1143q12 -53 12 -103q18 51 49 105l674 1141q8 12 20 12h103q14 0 12 -14l-242 -1377q-4 -14 -18 -14h-78q-16 0 -12 14l186 1057q14 82 43 180q-33 -68 -96 -174l-623 -1061q-6 -12 -18 -12h-49q-12 0 -15 12 l-249 1059q-27 106 -35 174q-4 -96 -21 -180l-184 -1055q-4 -14 -18 -14h-78q-16 0 -13 14z" />
<glyph unicode="N" horiz-adv-x="1363" d="M188 14l242 1377q2 14 19 14h83q12 0 17 -10l479 -1125q27 -66 39 -110q4 78 12 125l195 1106q2 14 16 14h78q16 0 14 -14l-243 -1377q-2 -14 -17 -14h-82q-12 0 -16 10l-481 1131q-29 68 -39 110q-4 -76 -12 -123l-197 -1114q-2 -14 -16 -14h-78q-16 0 -13 14z" />
<glyph unicode="O" horiz-adv-x="1232" d="M211 289l145 827q20 121 122 206t222 85h287q121 0 193 -85q55 -65 54 -151q0 -26 -5 -55l-146 -827q-20 -121 -121.5 -206t-222.5 -85h-286q-121 0 -193 85q-55 64 -55 150q0 27 6 56zM322 305q-4 -24 -4 -46q0 -67 36 -109q48 -56 148 -56h221q102 0 170 56.5t84 154.5 l141 795q4 24 4 46q0 66 -36 108q-48 56 -148 57h-221q-102 0 -170 -56.5t-86 -154.5z" />
<glyph unicode="P" horiz-adv-x="1105" d="M176 14l242 1377q4 14 18 14h529q123 0 195 -84q54 -64 54 -148q0 -27 -6 -57l-43 -248q-20 -121 -121.5 -204.5t-224.5 -83.5h-395q-25 0 -45 10q4 -20 0 -45l-94 -531q-2 -14 -19 -14h-78q-14 0 -12 14zM393 666q23 10 45 10h367q100 0 169 55.5t85 149.5l39 221 q4 24 4 45q0 63 -36 105q-48 56 -148 55h-367q-23 0 -45 10q4 -20 0 -45l-98 -563q-4 -23 -15 -43z" />
<glyph unicode="Q" horiz-adv-x="1232" d="M211 289l145 827q20 121 122 206t222 85h287q121 0 193 -85q54 -65 54 -151q0 -27 -5 -55l-146 -827q-20 -119 -120.5 -204t-219.5 -87h-67q-23 0 -41 8q4 -18 0 -43l-33 -190q-4 -14 -18 -15h-60q-14 0 -12 15l33 190q4 25 16 43q-23 -8 -43 -8h-69q-119 2 -190 87 q-54 64 -54 148q0 27 6 56zM322 305q-4 -25 -4 -46q0 -66 36 -109q48 -56 148 -56h221q102 0 170 56.5t84 154.5l141 795q4 24 4 46q0 66 -36 108q-48 57 -148 57h-221q-102 0 -170 -56.5t-86 -154.5z" />
<glyph unicode="R" horiz-adv-x="1167" d="M188 14l242 1377q2 14 19 14h526q125 0 195 -84q55 -65 56 -153q0 -25 -5 -52l-29 -168q-20 -111 -111.5 -191.5t-203.5 -88.5q-39 0 -70 8q20 -29 33 -62l223 -596q4 -8 -1 -13t-13 -5h-82q-12 0 -17 10l-231 621q-6 16 -8 39q-16 -10 -37 -11h-230q-23 0 -38 9 q2 -18 -3 -41l-106 -613q-4 -14 -18 -14h-78q-16 0 -13 14zM418 743q23 8 45 9h366q102 0 170 55t84 151l25 144q5 26 5 49q0 61 -36 101q-49 54 -151 55h-365q-23 0 -43 10q4 -20 0 -43l-86 -488q-4 -23 -14 -43z" />
<glyph unicode="S" horiz-adv-x="1081" d="M156 289l22 139q4 14 19 14h77q16 0 15 -14l-23 -123q-5 -26 -5 -50q0 -65 36 -105q49 -56 149 -56h181q100 0 168.5 56.5t85.5 154.5l22 127q3 17 3 33q0 92 -99 145l-383 205q-72 39 -106 103q-26 48 -26 101q0 18 3 38l10 59q23 121 124 206t224 85h215q125 0 195 -85 q53 -64 53 -148q0 -28 -6 -58l-10 -65q-4 -14 -19 -15h-77q-16 0 -13 15l10 57q4 23 4 44q1 62 -35 104q-48 56 -147 55h-164q-98 0 -163.5 -55.5t-83.5 -149.5l-6 -37q-3 -18 -3 -34q0 -90 93 -140l393 -213q127 -66 127 -197q0 -28 -6 -59l-23 -137q-23 -121 -124 -206 t-224 -85h-240q-123 0 -195 85q-54 64 -54 149q0 28 6 57z" />
<glyph unicode="T" horiz-adv-x="847" d="M174 1323l12 68q2 14 19 14h893q16 0 12 -14l-10 -68q-4 -16 -19 -16h-354q-23 0 -45 10q4 -18 0 -43l-221 -1260q-4 -14 -19 -14h-77q-14 0 -13 14l221 1260q4 25 17 43q-29 -10 -49 -10h-355q-14 0 -12 16z" />
<glyph unicode="U" horiz-adv-x="1245" d="M217 291l195 1100q2 14 16 14h78q16 0 14 -14l-192 -1086q-4 -24 -4 -46q0 -67 36 -109q48 -56 148 -56h221q102 0 170 56.5t84 154.5l193 1086q2 14 18 14h78q14 0 12 -14l-194 -1100q-20 -121 -122 -207t-225 -86h-282q-123 0 -195 86q-55 66 -54 152q0 27 5 55z" />
<glyph unicode="V" horiz-adv-x="1161" d="M268 1386q-2 18 17 19h82q12 0 14 -12l201 -1133q8 -45 8 -100q18 55 41 98l600 1135q6 12 20 12h82q18 0 8 -19l-735 -1374q-6 -12 -20 -12h-51q-14 0 -17 12z" />
<glyph unicode="W" horiz-adv-x="1624" d="M236 1389q0 16 16 16h82q12 0 14 -12l86 -1151q2 -30 2 -62.5t-2 -66.5q18 66 45 129l498 1151q6 12 18 12h88q14 0 15 -12l90 -1153q2 -30 2 -62.5t-2 -66.5q20 70 47 131l491 1151q6 12 19 12h82q16 0 10 -16l-602 -1377q-6 -12 -18 -12h-93q-12 0 -14 12l-92 1131 q-4 38 -4 77q0 26 2 52q-18 -63 -45 -127l-494 -1133q-6 -12 -18 -12h-92q-12 0 -15 12z" />
<glyph unicode="X" horiz-adv-x="1087" d="M12 18l563 701q10 12 25 20q-12 8 -18 19l-299 628q-4 8 0 13.5t12 5.5h94q12 0 17 -8l243 -518q10 -27 17 -66q16 35 39 61l428 523q8 8 18 8h94q10 0 12.5 -5t-4.5 -14l-522 -628q-10 -10 -24 -19q12 -10 18 -20l317 -701q4 -8 0 -13t-14 -5h-92q-12 0 -16 8l-265 588 q-14 33 -18 59q-14 -33 -39 -63l-467 -584q-8 -8 -20 -8h-93q-23 0 -6 18z" />
<glyph unicode="Y" horiz-adv-x="1042" d="M211 1386q-6 18 14 19h86q12 0 17 -10l268 -688q14 -33 16 -72q16 39 41 72l512 688q6 10 19 10h86q20 0 8 -19l-614 -823q-6 -8 -15 -14v-6v-6l-92 -523q-2 -14 -18 -14h-78q-16 0 -12 14l92 523q0 2 2 7l2 5q-6 6 -10 14z" />
<glyph unicode="Z" horiz-adv-x="921" d="M16 16l11 58q4 18 16 35l846 1148q12 14 57 60q-31 -10 -74 -10h-553q-14 0 -12 16l12 68q2 14 19 14h717q10 0 8 -16l-10 -60q-4 -16 -15 -33l-848 -1149q-18 -25 -57 -61q33 12 78 12h668q14 0 12 -16l-12 -68q-2 -14 -17 -14h-837q-10 0 -9 16z" />
<glyph unicode="[" horiz-adv-x="677" d="M135 -436l352 1999q2 14 17 14h244q12 0 10 -14l-10 -60q-2 -12 -17 -12h-164l-325 -1853h164q14 0 10 -15l-10 -59q-2 -14 -17 -15h-242q-14 0 -12 15z" />
<glyph unicode="\" horiz-adv-x="557" d="M203 1397q-2 14 14 14h80q10 0 14 -10l252 -1389q0 -16 -16 -16h-76q-10 0 -14 12z" />
<glyph unicode="]" horiz-adv-x="677" d="M78 -436l10 59q2 14 16 15h164l326 1851h-164q-14 0 -10 14l10 60q2 14 16 14h242q14 0 12 -14l-352 -1999q-2 -14 -16 -15h-244q-14 0 -10 15z" />
<glyph unicode="^" horiz-adv-x="1409" d="M240 926l614 817q10 14 14 0l326 -817q6 -16 -10 -17h-84q-10 0 -13 9l-235 585q-16 43 -14 101q-18 -57 -52 -101l-442 -585q-6 -8 -16 -9h-82q-18 0 -6 17z" />
<glyph unicode="_" horiz-adv-x="1107" d="M250 12l10 68q2 12 16 12h549q12 0 11 -12l-13 -68q-2 -12 -14 -12h-549q-14 0 -10 12z" />
<glyph unicode="`" horiz-adv-x="598" d="M399 1516q-4 6 0 11t13 5h71q10 0 15 -8l125 -242q8 -14 -11 -14h-55q-10 0 -14 8z" />
<glyph unicode="a" horiz-adv-x="1058" d="M203 303l92 522q23 127 126 215t228 88h131q90 0 158 -57q37 -29 47 -78q6 59 12 92l2 21q2 10 17 10h76q14 0 12 -12l-191 -1079q-2 -14 -16 -15h-76q-6 0 -9 3t-3 10l4 20q6 33 21 90q-29 -47 -74 -76q-90 -59 -178 -59h-133q-123 0 -196 89q-56 68 -56 157q0 29 6 59z M309 317q-5 -30 -5 -56q0 -71 36 -112q49 -57 160 -57h96q106 0 174 57.5t86 163.5l88 502q5 29 5 54q0 65 -34 107q-47 58 -153 58h-96q-111 0 -180.5 -57t-88.5 -168z" />
<glyph unicode="b" horiz-adv-x="1140" d="M176 25l283 1605q4 14 16 15h80q12 0 10 -15l-96 -549q-4 -25 -20 -73q23 35 71 65q86 55 185 55h153q130 0 198 -86q50 -63 51 -152q0 -32 -7 -67l-90 -518q-25 -135 -123.5 -221t-229.5 -86h-159q-90 0 -158 59q-37 29 -49 64q-2 -33 -6 -64l-6 -32q-2 -14 -17 -15h-76 q-12 0 -10 15zM334 313q-6 -35 -6 -65q0 -156 174 -156h147q217 1 258 232l84 479q7 37 7 68q0 163 -183 163h-145q-209 0 -248 -221z" />
<glyph unicode="c" horiz-adv-x="1064" d="M203 307l90 512q25 135 124 222t232 87h158q135 0 203 -88q51 -66 50 -155q0 -29 -5 -60l-6 -39q-2 -14 -17 -14h-80q-12 0 -10 14l4 23q6 35 6 64q0 161 -182 161h-117q-215 0 -256 -231l-86 -479q-7 -37 -7 -68q0 -164 183 -164h117q215 0 256 225l4 25q2 12 15 12h79 q14 0 11 -12l-6 -41q-23 -127 -122.5 -215t-232.5 -88h-157q-133 0 -202 88q-52 66 -52 157q0 31 6 64z" />
<glyph unicode="d" horiz-adv-x="1142" d="M199 305l90 518q25 133 122 219t228 86h156q98 0 163 -55q39 -31 52 -65q0 49 4 73l96 549q4 14 16 15h80q12 0 11 -15l-283 -1605q-2 -14 -16 -15h-76q-12 0 -11 15l7 32q6 31 16 64q-25 -35 -72 -64q-90 -59 -180 -59h-162q-130 0 -198 86q-50 63 -50 152q0 33 7 69z M307 324q-7 -37 -7 -68q0 -164 183 -164h148q209 0 248 221l88 500q6 35 6 64q0 157 -176 157h-148q-217 0 -258 -231z" />
<glyph unicode="e" horiz-adv-x="1089" d="M197 305l92 516q23 127 127 217t231 90h193q116 0 196 -84q62 -65 63 -152q0 -24 -5 -50l-47 -271q-2 -12 -15 -12h-643q-35 0 -49 10q6 -16 2 -47l-37 -205q-5 -29 -5 -55q0 -66 34 -110q47 -60 155 -60h138q104 0 168.5 56.5t83.5 160.5l2 6q2 12 14 13h80q12 0 10 -13 l-4 -24q-25 -121 -127 -207t-223 -86h-182q-127 0 -201 90q-56 69 -56 159q0 28 5 58zM352 633q18 10 51 10h510q33 0 48 -10q-4 18 0 47l24 141q5 28 5 53q0 64 -34 104q-47 56 -153 56h-150q-106 0 -173.5 -55t-86.5 -158l-24 -141q-4 -29 -17 -47z" />
<glyph unicode="f" horiz-adv-x="720" d="M268 25l168 960q6 33 19 49q-14 -12 -52 -12h-116q-14 0 -13 14l13 66q2 14 16 14h117q39 0 47 -10q-6 12 0 49l33 182q23 129 125 217t231 91h45q12 0 10 -15l-12 -67q-2 -14 -16 -15h-13q-113 0 -181 -59t-87 -170l-29 -164q-6 -37 -18 -49q14 10 53 10h213 q12 0 10 -14l-10 -66q-4 -14 -16 -14h-215q-37 0 -47 12q6 -16 0 -49l-170 -960q-2 -14 -15 -15h-79q-12 0 -11 15z" />
<glyph unicode="g" horiz-adv-x="1093" d="M33 -221l12 67q14 80 68.5 146.5t128.5 99.5q-45 23 -62 60q-13 25 -13 51q0 12 3 24l8 47q8 45 46 86t108 62q-91 65 -91 184q0 32 7 68l28 153q23 135 122.5 218t232.5 83h180q92 0 158 -43q10 -6 14 -12q4 6 14 10q76 45 162 45h113q12 0 10 -14l-12 -67 q-2 -12 -15 -13h-96q-68 0 -119 -20h-8t-6 1l-4 1q16 -18 16 -29q26 -46 26 -106q0 -26 -5 -54l-27 -153q-25 -135 -124 -218t-230 -83h-189q-197 0 -215 -105l-6 -37q-2 -9 -2 -18q0 -38 36 -59q44 -25 149 -25h251h6q121 0 190 -80q54 -62 54 -147q0 -28 -6 -58l-10 -65 q-23 -123 -127 -206t-229 -83h-297q-125 0 -198 82q-57 64 -57 153q0 26 5 54zM135 -201q-5 -26 -5 -50q0 -67 39 -109q52 -58 161 -58h241q102 0 178 56.5t93 152.5l6 41q5 25 5 47q0 65 -41 107q-53 55 -159 55h-272q-76 0 -149.5 -54.5t-90.5 -154.5zM356 688 q-6 -35 -6 -64q0 -157 176 -157h156q209 0 246 221l22 125q6 35 6 64q0 157 -176 157h-153q-209 0 -248 -221z" />
<glyph unicode="h" horiz-adv-x="1120" d="M176 25l283 1605q4 14 16 15h80q12 0 10 -15l-96 -549q-4 -25 -20 -73q25 35 71 65q86 55 185 55h122q129 0 197 -86q50 -63 50 -151q0 -32 -7 -68l-141 -798q-2 -14 -17 -15h-78q-14 0 -10 15l137 778q7 37 7 68q0 163 -183 163h-104q-217 0 -258 -233l-137 -776 q-2 -14 -17 -15h-80q-12 0 -10 15z" />
<glyph unicode="i" horiz-adv-x="491" d="M176 25l191 1079q2 12 16 12h78q14 0 12 -12l-190 -1079q-2 -14 -17 -15h-80q-12 0 -10 15zM403 1315l25 145q4 12 16 13h80q12 0 11 -13l-25 -145q-2 -12 -16 -12h-80q-12 0 -11 12z" />
<glyph unicode="j" horiz-adv-x="503" d="M-178 -498l14 74q2 12 14 12h48q104 2 170.5 61.5t85.5 170.5l227 1284q2 12 16 12h78q14 0 12 -12l-231 -1307q-23 -127 -128 -217t-232 -90h-62q-14 0 -12 12zM422 1315l24 145q2 12 15 13h80q14 0 12 -13l-27 -145q-2 -12 -14 -12h-80q-14 0 -10 12z" />
<glyph unicode="k" horiz-adv-x="999" d="M176 25l285 1611q2 14 16 15h78q14 0 12 -13l-176 -995q-16 -88 -43 -156q39 61 107 134l510 526q6 8 18 8h94q8 0 10.5 -5t-6.5 -13l-391 -402q-16 -18 -31 -22q10 -6 19 -25l274 -659q8 -16 -12 -17h-86q-12 0 -16 11l-232 565q-12 31 -12 57v8q-10 -27 -45 -63 l-195 -199q-6 -8 -12 -8l1 -6t-1 -10l-59 -342q-2 -14 -17 -15h-80q-12 0 -10 15z" />
<glyph unicode="l" horiz-adv-x="491" d="M176 25l283 1601q2 12 16 12h78q14 0 12 -12l-282 -1601q-2 -14 -17 -15h-80q-12 0 -10 15z" />
<glyph unicode="m" horiz-adv-x="1808" d="M176 25l191 1079q2 12 16 12h74q6 0 9 -3t1 -7l-2 -16q-2 -14 -23 -93q29 47 74 76q84 55 180 55h160q68 0 123 -28.5t86 -81.5q16 -25 16 -55q6 20 45 57q108 108 243 108h7h135q123 0 195 -88q55 -67 55 -156q0 -28 -6 -59l-141 -800q-2 -14 -17 -15h-77q-14 0 -13 15 l138 778q6 34 6 64q0 69 -33 109q-47 58 -156 58h-102q-106 0 -174 -57t-86 -162l-142 -790q-2 -14 -14 -15h-80q-12 0 -10 15l137 778q6 35 6 64q-1 68 -33 109q-46 58 -155 58h-127q-106 0 -174 -57t-86 -162l-139 -790q-2 -14 -17 -15h-80q-12 0 -10 15z" />
<glyph unicode="n" horiz-adv-x="1161" d="M176 25l191 1079q2 12 16 12h74q6 0 9 -2t1 -8l-2 -16q-2 -16 -7 -35t-9.5 -36.5t-6.5 -23.5q29 49 74 78q84 55 180 55h166q124 0 196 -88q56 -68 55 -158q0 -27 -5 -57l-141 -800q-2 -14 -17 -15h-78q-14 0 -12 15l137 778q6 35 6 64q-1 68 -33 109q-46 58 -155 58 h-133q-106 0 -174 -57t-86 -162l-139 -790q-2 -14 -17 -15h-80q-12 0 -10 15z" />
<glyph unicode="o" horiz-adv-x="1112" d="M199 307l90 512q23 135 123 222t233 87h180q133 0 202 -87q51 -64 50 -154q0 -33 -6 -68l-90 -512q-23 -135 -123 -222t-231 -87h-183q-134 0 -202 87q-50 64 -50 153q0 33 7 69zM307 324q-7 -37 -7 -68q0 -163 181 -164h142q215 0 256 232l84 479q6 36 6 67 q0 164 -181 164h-139q-217 0 -258 -231z" />
<glyph unicode="p" horiz-adv-x="1212" d="M154 -504l282 1608q2 12 17 12h75q12 0 11 -12l-7 -35q-4 -29 -16 -61q27 33 74 63q88 57 178 57h162q131 0 198 -86q50 -63 50 -151q0 -32 -7 -68l-90 -518q-25 -135 -122 -221t-228 -86h-156q-98 0 -163 57q-39 31 -52 64q0 -47 -4 -74l-96 -549q-2 -12 -16 -12h-80 q-12 0 -10 12zM403 315q-6 -35 -6 -65q0 -158 176 -158h148q217 0 258 232l84 481q7 37 7 68q0 163 -181 163h-150q-209 0 -247 -221z" />
<glyph unicode="q" horiz-adv-x="1050" d="M199 305l90 518q25 133 123 219t229 86h160q90 0 157 -57q37 -31 50 -63q2 33 6 61l6 35q2 12 16 12h76q14 0 12 -12l-284 -1608q-2 -12 -15 -12h-82q-12 0 -10 12l96 549q4 25 21 74q-23 -33 -72 -64q-86 -57 -184 -57h-156q-129 0 -196 86q-50 63 -50 152q0 33 7 69z M307 324q-7 -37 -7 -68q0 -164 183 -164h146q209 0 248 223l88 500q6 35 6 65q0 156 -174 156h-148q-217 0 -258 -231z" />
<glyph unicode="r" horiz-adv-x="700" d="M176 25l191 1079q2 12 16 12h74q6 0 9 -3t1 -7l-2 -16q-2 -16 -6 -34t-9.5 -35t-7.5 -24q29 47 74 76q84 55 180 55h121q12 0 10 -12l-12 -69q-2 -12 -16 -13h-117q-104 0 -173 -57t-87 -164l-139 -788q-2 -14 -17 -15h-80q-12 0 -10 15z" />
<glyph unicode="s" horiz-adv-x="987" d="M131 231l19 107q2 14 16 14h76q14 0 12 -12l-18 -113q-2 -13 -2 -25q0 -41 26 -71q34 -39 92 -39h291q53 0 98 41t56 96l26 146q2 13 2 26q0 29 -12 51q-18 34 -57 46l-369 110q-75 20 -113 76q-28 41 -28 95q0 19 4 40l14 76q16 96 97 164.5t180 68.5h266q99 0 155 -68 q45 -55 45 -128q0 -18 -3 -37l-11 -51q-2 -14 -14 -15h-76q-14 0 -14 13l10 59q2 12 2 24q-1 40 -27 70q-34 39 -92 39h-266q-53 0 -98 -40t-56 -97l-14 -86q-2 -10 -2 -20q0 -29 18 -51q24 -30 66 -46l367 -110q73 -18 105 -78q23 -43 23 -94q0 -19 -3 -39l-25 -140 q-18 -98 -98 -166.5t-176 -68.5h-297q-96 0 -154 68q-45 54 -44 125q0 19 3 40z" />
<glyph unicode="t" horiz-adv-x="806" d="M246 1036l12 66q2 14 16 14h197q35 0 51 -8q-8 16 -2 47l51 291q0 8 17 14l84 35q6 4 10 2t2 -10l-59 -332q-6 -37 -17 -49q12 10 54 10h212q14 0 11 -14l-11 -66q-4 -14 -16 -14h-215q-35 0 -49 10q8 -14 2 -47l-170 -960q-2 -14 -16 -15h-78q-14 0 -13 15l170 960 q6 29 19 45q-20 -8 -53 -8h-197q-14 0 -12 14z" />
<glyph unicode="u" horiz-adv-x="1085" d="M217 303l141 801q2 12 17 12h80q12 0 10 -12l-137 -780q-6 -34 -6 -63q0 -67 32 -109q46 -60 156 -60h115q106 0 173.5 58.5t86.5 162.5l139 791q2 12 16 12h78q14 0 12 -12l-190 -1079q-2 -14 -16 -15h-74q-6 0 -9 3t-3 10l4 14q2 16 6 34.5t9 36t7 23.5 q-29 -47 -73 -78q-84 -55 -181 -55h-147q-123 0 -195 89q-56 68 -56 159q0 27 5 57z" />
<glyph unicode="v" horiz-adv-x="1054" d="M264 1112q-2 16 15 16h75q12 0 15 -12l151 -860q9 -57 9 -108q0 -17 -1 -33q16 66 56 141l454 860q6 12 19 12h76q16 0 8 -16l-584 -1100q-6 -12 -18 -12h-64q-12 0 -14 12z" />
<glyph unicode="w" horiz-adv-x="1656" d="M264 1112q-2 16 15 16h75q12 0 15 -12l120 -858q7 -41 7 -83q0 -21 -2 -42q18 68 49 129l413 844q6 12 19 12h61q10 0 13 -12l116 -844q5 -34 5 -71q0 -28 -3 -58q18 63 50 125l423 858q6 12 19 12h76q16 0 8 -16l-551 -1100q-6 -12 -18 -12h-58q-12 0 -14 12l-121 903 q-4 20 -2 54q-12 -37 -21 -56l-442 -901q-4 -12 -16 -12h-58q-12 0 -14 12z" />
<glyph unicode="x" horiz-adv-x="952" d="M2 16l479 562q10 14 27 22q-12 8 -19 21l-245 489q-4 6 0 12t12 6h86q12 0 16 -10l195 -397q18 -39 18 -68q8 29 41 70l334 395q8 10 19 10h86q10 0 11 -6t-5 -12l-416 -489q-10 -12 -27 -21q12 -8 19 -22l280 -562q8 -16 -12 -16h-86q-12 0 -16 8l-230 467 q-18 37 -18 66q-10 -29 -41 -66l-395 -467q-8 -8 -19 -8h-88q-20 0 -6 16z" />
<glyph unicode="y" horiz-adv-x="991" d="M-18 -496l12 72q2 14 14 14h62q41 0 73.5 11.5t55 25t47 48t38 58t42.5 74.5l96 185l7 7l5 5q-18 -6 -20 6l-197 1102q-2 16 14 16h76q12 0 15 -12l163 -930q5 -34 5 -59q0 -9 -1 -16q8 33 33 77l490 928q6 10 16 10l78 2q16 0 8 -16l-706 -1331q-74 -139 -154 -215 t-195 -76h-67q-12 0 -10 14z" />
<glyph unicode="z" horiz-adv-x="903" d="M27 29l12 69q0 2 4 6l780 869q43 47 97 67q-41 -8 -117 -8h-492q-14 0 -12 15l12 67q2 14 17 14h682q10 0 8 -18l-12 -63q-2 -6 -7 -11l-778 -870q-43 -47 -92 -70q39 10 113 10h604q14 0 12 -14l-12 -67q-2 -14 -17 -15h-794q-12 0 -8 19z" />
<glyph unicode="{" horiz-adv-x="917" d="M244 526l10 66q2 12 16 12h19q233 2 278 254l84 481q23 123 125.5 205t222.5 82h88q14 0 13 -12l-13 -62q-2 -14 -16 -14h-70q-106 0 -173.5 -57.5t-86.5 -167.5l-88 -498q-12 -68 -53 -128t-102 -101q-33 -20 -56 -29q20 -10 41 -33q88 -88 64 -221l-88 -500 q-18 -109 29 -166t153 -57h86q14 0 10 -14l-10 -60q-2 -14 -16 -14h-105q-121 0 -193.5 83t-52.5 206l86 481q45 252 -182 252h-10q-14 0 -10 12z" />
<glyph unicode="|" horiz-adv-x="559" d="M176 -500l350 1983q2 12 15 12h82q12 0 10 -12l-348 -1983q-2 -12 -17 -12h-82q-12 0 -10 12z" />
<glyph unicode="}" horiz-adv-x="917" d="M-25 -494l11 60q2 14 16 14h86q106 0 174 57.5t86 165.5l88 500q23 133 142 221q31 23 53 33q-20 8 -45 29q-47 41 -66.5 101.5t-7.5 127.5l88 498q18 111 -29 168t-153 57h-70q-14 0 -12 14l10 62q4 12 16 12h91q121 0 193.5 -82t51.5 -205l-86 -481q-45 -252 189 -254 h18q14 0 12 -12l-12 -66q-2 -12 -16 -12h-8q-227 -2 -273 -252l-84 -481q-23 -123 -125 -206t-223 -83h-104q-12 0 -11 14z" />
<glyph unicode="~" horiz-adv-x="1183" d="M317 451q20 84 84 140t146 56q31 0 58.5 -10t42 -19.5t44.5 -33.5q63 -55 105 -56q49 0 85 33t48 80q4 10 16 10h62q14 0 10 -12q-20 -84 -84 -140.5t-146 -56.5q-70 0 -145 64q-66 55 -106 55q-47 0 -84 -32.5t-50 -77.5q-4 -12 -14 -13h-61q-14 0 -11 13z" />
<glyph unicode="&#xa1;" horiz-adv-x="641" d="M186 -344l207 1149q4 14 17 14h67q14 0 12 -14l-196 -1149q-4 -14 -17 -14h-79q-12 0 -11 14zM430 1008l21 112q2 14 16 15h65q14 0 13 -15l-21 -112q-2 -14 -16 -15h-66q-14 0 -12 15z" />
<glyph unicode="&#xa2;" horiz-adv-x="1064" d="M203 307l90 512q25 135 124 222t232 87h49l39 232q4 12 17 12h65q14 0 12 -12l-40 -232h16q135 0 202.5 -88t45.5 -215l-6 -39q-2 -14 -17 -14h-80q-12 0 -10 14l4 23q39 225 -176 225h-117q-215 0 -256 -231l-86 -479q-41 -231 176 -232h117q215 0 256 225l4 25 q2 12 15 12h79q14 0 11 -12l-6 -41q-23 -127 -122.5 -215t-232.5 -88h-16l-49 -277q-2 -14 -17 -14h-65q-14 0 -12 14l49 277h-47q-133 0 -202 88t-46 221z" />
<glyph unicode="&#xa3;" horiz-adv-x="1316" d="M98 10l13 70q2 12 14 12h20q111 0 181.5 60.5t91.5 175.5l57 336h-248q-12 0 -10 12l12 65q2 12 15 13h248l61 346q23 127 127 217t229 90h221q125 0 199 -89t51 -216l-8 -45q-2 -12 -14 -13h-84q-12 0 -10 13l4 18q18 113 -31 172.5t-158 59.5h-149q-111 0 -182.5 -59.5 t-90.5 -172.5l-57 -321h436q12 0 11 -13l-13 -65q-2 -12 -14 -12h-436l-64 -357q-23 -127 -133 -209h477q111 0 180.5 57.5t88.5 168.5l4 22q2 12 16 12h82q12 0 10 -12l-8 -41q-20 -127 -125.5 -217t-230.5 -90h-772q-12 0 -11 12z" />
<glyph unicode="&#xa4;" horiz-adv-x="1751" d="M240 -16q-8 10 2 18l211 184q-113 160 -72 388.5t209 386.5l-148 186q-6 10 4 18l54 47q10 8 18 0l146 -186q178 127 395 127t348 -127l213 186q10 8 18 0l37 -47q8 -8 -4 -18l-211 -186q113 -158 72 -386.5t-209 -388.5l145 -184q8 -8 -2 -18l-53 -45q-12 -10 -18 0 l-146 184q-178 -129 -395 -129t-348 129l-211 -184q-11 -10 -19 0zM480 574.5q-38 -209.5 72 -345t319.5 -135.5t366.5 135.5t194.5 345t-72 344t-319.5 134.5t-366.5 -134.5t-194.5 -344z" />
<glyph unicode="&#xa5;" horiz-adv-x="1175" d="M211 303l12 64q2 14 15 14h409l27 156q2 2 3 7l1 5q-4 6 -8 14l-2 4h-398q-12 0 -10 15l12 63q2 14 15 14h346l-287 727q-6 18 14 19h86q12 0 17 -10l268 -688q8 -23 12 -48h15q12 25 28 48l512 688q8 10 21 10h86q20 0 6 -19l-543 -727h346q12 0 11 -14l-11 -63 q-4 -14 -16 -15h-397l-2 -4q-6 -8 -15 -14v-6v-6l-28 -156h409q12 0 11 -14l-11 -64q-4 -14 -16 -14h-410l-47 -275q-4 -14 -18 -14h-78q-16 0 -14 14l49 275h-410q-12 0 -10 14z" />
<glyph unicode="&#xa6;" horiz-adv-x="559" d="M176 -500l141 803q2 12 15 12h84q12 0 10 -12l-141 -803q-2 -12 -17 -12h-82q-12 0 -10 12zM385 680l141 803q2 12 15 12h82q12 0 10 -12l-141 -803q-2 -12 -15 -12h-82q-12 0 -10 12z" />
<glyph unicode="&#xa7;" horiz-adv-x="1409" d="M197 -205l26 152q2 14 17 14h82q12 0 10 -14l-27 -150q-14 -88 34 -147.5t134 -59.5h289q80 0 146.5 60.5t80.5 146.5l31 176q23 125 -100 189l-437 221q-74 35 -110.5 104.5t-22.5 149.5l8 51q14 74 58.5 135.5t109.5 100.5q-51 39 -74.5 97t-11.5 124l9 51 q23 125 126 211t230 86h250q127 0 198.5 -89t49.5 -216l-15 -74q-2 -12 -16 -12h-82q-12 0 -10 12l14 82q14 82 -34 139.5t-132 57.5h-240q-82 0 -150.5 -58.5t-82.5 -140.5l-6 -41q-10 -61 14.5 -110.5t77.5 -75.5l451 -228q76 -37 109.5 -107.5t17.5 -162.5l-31 -168 q-16 -92 -80 -168q37 -74 20 -172l-28 -168q-23 -125 -128.5 -214t-230.5 -89h-295q-127 0 -199.5 90t-49.5 215zM459 647q-10 -61 15.5 -111.5t78.5 -76.5l426 -219q30 -14 55 -39q35 47 45 102l31 176q23 125 -102 191l-390 198q-57 -23 -99 -71.5t-52 -108.5z" />
<glyph unicode="&#xa8;" horiz-adv-x="718" d="M360 1300l25 142q2 12 16 12h68q12 0 10 -12l-24 -142q-2 -14 -17 -14h-67q-12 0 -11 14zM680 1300l27 142q2 12 16 12h65q14 0 13 -12l-25 -142q-4 -14 -16 -14h-68q-14 0 -12 14z" />
<glyph unicode="&#xa9;" horiz-adv-x="1693" d="M380 878.5q46 262.5 246.5 434.5t461 172t400.5 -172t94 -434.5t-246.5 -434.5t-461 -172t-400.5 172t-94 434.5zM439 878.5q-42 -239.5 82 -394t363.5 -154.5t418 154.5t220.5 394t-82 393t-363.5 153.5t-418 -153.5t-220.5 -393zM664 692l65 367q16 90 90 153.5 t164 63.5h111q70 0 119 -42t57 -106q2 -12 -10 -12h-58q-8 0 -8 8q-6 37 -40 61.5t-93 24.5h-74q-160 0 -188 -166l-62 -339q-14 -80 20 -122t111 -42h74q117 0 162 80q4 8 12 8h55q12 0 7 -11q-33 -63 -95.5 -103t-130.5 -40h-110q-90 0 -141.5 63.5t-36.5 153.5z" />
<glyph unicode="&#xaa;" horiz-adv-x="858" d="M199 516l6 43q2 8 10 8h471q8 0 6 -8l-8 -43q-2 -10 -8 -10h-471q-8 0 -6 10zM264 901l66 371q16 90 89 152.5t161 62.5h94q63 0 110 -41q27 -20 33 -55q6 43 10 65l2 14q2 8 11 9h55q8 0 8 -11l-135 -763q-2 -10 -12 -11h-54q-4 0 -6 2t-2 6l2 15q4 25 15 65 q-18 -35 -52 -55q-63 -41 -127 -41h-94q-88 0 -139 62.5t-35 152.5zM340 911q-12 -78 21.5 -118.5t113.5 -40.5h68q76 0 124 41t60 116l64 355q12 76 -22 115.5t-107 39.5h-70q-162 0 -191 -159z" />
<glyph unicode="&#xab;" horiz-adv-x="1046" d="M252 553l10 63q2 8 12 19l263 223q6 4 10 1t4 -9l-12 -72q-2 -8 -13 -16l-164 -150q-18 -14 -20 -26.5t10 -28.5l113 -149q6 -8 4 -17l-12 -72q0 -8 -6.5 -11t-10.5 3l-182 226q-8 8 -6 16zM698 553l11 63q2 8 12 19l262 223q6 4 11 1t3 -9l-12 -72q-2 -8 -12 -16 l-164 -150q-16 -14 -19.5 -26.5t9.5 -28.5l112 -149q6 -8 4 -17l-12 -72q0 -8 -6 -11t-10 3l-182 226q-8 8 -7 16z" />
<glyph unicode="&#xac;" horiz-adv-x="1509" d="M356 733l11 68q4 14 16 14h954q14 0 11 -14l-76 -430q-2 -14 -17 -15h-67q-14 0 -12 15l61 344q0 6 -4 6h-866q-14 0 -11 12z" />
<glyph unicode="&#xad;" horiz-adv-x="845" d="M233 563l11 60q2 14 14 14h549q14 0 12 -14l-12 -60q-2 -14 -14 -14h-549q-12 0 -11 14z" />
<glyph unicode="&#xae;" horiz-adv-x="1114" d="M258 1326q31 175 165 291t308 116t268.5 -116t63.5 -291t-166 -289.5t-308 -114.5t-267.5 114.5t-63.5 289.5zM302 1327q-28 -158 54 -260t240 -102t275.5 102t146.5 260t-53 259.5t-241 101.5t-276.5 -101.5t-145.5 -259.5zM467 1079l84 467q0 4 4 4h199 q41 0 63.5 -28.5t16.5 -69.5l-11 -57q-6 -37 -36.5 -63.5t-67.5 -31.5q-18 0 -12 -18l73 -201q2 -6 -4 -6h-39q-4 0 -4 4l-78 211q-4 8 -14 8h-74q-10 0 -12 -10l-37 -209q0 -4 -12 -4h-35q-4 0 -4 4zM565 1352q-2 -10 8 -11h127q63 0 76 62l6 39q10 63 -53 63h-127 q-10 0 -12 -8z" />
<glyph unicode="&#xaf;" horiz-adv-x="970" d="M395 1282l11 53q2 14 16 15h563q14 0 10 -15l-8 -53q-2 -14 -16 -14h-563q-14 0 -13 14z" />
<glyph unicode="&#xb0;" horiz-adv-x="833" d="M338 1257l24 132q16 100 99.5 171.5t183.5 71.5h80q100 0 157.5 -71.5t39.5 -171.5l-23 -132q-18 -100 -100 -170.5t-183 -70.5h-79q-100 0 -157.5 70.5t-41.5 170.5zM416 1278q-14 -88 25.5 -137t125.5 -49h49q86 0 141.5 48t69.5 138l17 88q16 90 -23 138t-125 48h-47 q-88 0 -144 -49t-73 -135z" />
<glyph unicode="&#xb1;" horiz-adv-x="1247" d="M233 246l11 63q2 12 14 13h858q12 0 10 -13l-12 -63q-2 -12 -14 -13h-856q-12 0 -11 13zM334 854l12 66q2 12 14 12h381l66 375q2 14 14 14h66q12 0 10 -14l-68 -375h381q12 0 11 -12l-11 -66q-4 -12 -16 -12h-379l-72 -406q-2 -12 -16 -12h-63q-12 0 -11 12l72 406h-381 q-12 0 -10 12z" />
<glyph unicode="&#xb2;" horiz-adv-x="823" d="M82 530l20 113q12 66 76 109l465 356q31 27 45 48.5t21 53.5l16 93q14 84 -14 131q-31 51 -105 51h-114q-104 0 -154 -96l-2 -7q-6 -16 -25 -16h-59q-8 0 -12 6q-4 8 0 19l2 4q35 80 100 129q68 53 147 53h152q99 0 150 -80q51 -76 32 -182l-18 -105q-18 -106 -125 -180 l-459 -346q-12 -10 -18 -12q0 -8 -2 -21l-6 -35q-2 -12 -7 -18q6 2 21 2h477q20 0 16 -20l-8 -50q-4 -20 -24 -20h-572q-20 0 -16 20z" />
<glyph unicode="&#xb3;" horiz-adv-x="806" d="M78 688v8q0 8 6 15.5t14 7.5h60q16 0 16 -17v-8q16 -96 121 -96h151q76 0 123 51t62 133l14 80q14 82 -15.5 132t-103.5 50h-151q-18 0 -17 19l9 43q4 20 22 20h135q72 0 119 45.5t57 104.5l9 37q14 80 -16.5 125t-106.5 45h-123q-104 0 -156 -97l-2 -6q-6 -16 -22 -16 h-60q-23 0 -12 22l2 7q35 80 98 129q68 53 148 53h164q98 0 149 -72q53 -72 35 -178l-10 -53q-16 -92 -105 -164q-12 -10 -14 -16q0 -7 6 -13q37 -35 53.5 -90t5.5 -117l-18 -104q-18 -106 -98 -184t-178 -78h-189q-78 0 -127 51t-55 131z" />
<glyph unicode="&#xb4;" horiz-adv-x="600" d="M391 1282l209 242q8 8 18 8h72q8 0 10 -5t-4 -11l-227 -240q-6 -8 -16 -8h-56q-18 0 -6 14z" />
<glyph unicode="&#xb5;" horiz-adv-x="1175" d="M86 -494l283 1608q2 12 16 12h78q14 0 10 -12l-139 -790q-18 -113 31 -172.5t159 -59.5h119q111 0 180.5 59.5t89.5 172.5l140 790q2 12 16 12h78q14 0 12 -12l-194 -1098q-2 -14 -17 -14h-78q-14 0 -12 12q10 59 29 109q-25 -41 -70 -70q-80 -53 -174 -55h-166 q-90 2 -141 49q-35 33 -47 68q0 -45 -8 -101l-91 -508q-2 -14 -16 -14h-78q-14 0 -10 14z" />
<glyph unicode="&#xb6;" horiz-adv-x="1486" d="M379 899l55 315q20 117 116.5 199t213.5 82h663q14 0 11 -14l-348 -1975q-2 -14 -17 -14h-65q-12 0 -11 14l332 1885h-231l-334 -1885q-2 -14 -16 -14h-66q-14 0 -10 14l194 1112h-258q-115 0 -182.5 83t-46.5 198z" />
<glyph unicode="&#xb7;" horiz-adv-x="385" d="M123 627l22 137q4 14 17 14h92q14 0 10 -14l-24 -137q-2 -14 -15 -15h-92q-14 0 -10 15z" />
<glyph unicode="&#xb8;" horiz-adv-x="671" d="M43 -492l8 39q2 12 15 13h145q57 0 102 44t60 111q10 63 -20.5 102.5t-90.5 39.5h-80q-6 0 -10 4t0 8l109 137q10 12 14 12h55q6 0 10.5 -4t-0.5 -8l-73 -88h14q72 0 115 -58.5t28 -133.5l-4 -29q-14 -78 -76.5 -140.5t-138.5 -62.5h-172q-12 0 -10 14z" />
<glyph unicode="&#xb9;" horiz-adv-x="741" d="M78 532l8 50q4 20 25 20h208q14 0 23 -4q-2 8 2 23l148 843q4 16 8 27q-8 -6 -25 -6h-209q-20 0 -16 20l8 54q4 18 25 18h303q20 0 16 -21l-164 -933q-4 -14 -8 -25q10 4 25 4h204q20 0 17 -20l-8 -50q-4 -20 -25 -20h-549q-20 0 -16 20z" />
<glyph unicode="&#xba;" horiz-adv-x="878" d="M193 516l8 43q0 8 8 8h467q8 0 6 -8l-6 -43q-2 -10 -10 -10h-467q-8 0 -6 10zM221 905l64 363q16 94 86.5 156.5t165.5 62.5h127q96 0 144 -62.5t32 -156.5l-64 -363q-16 -96 -87 -157.5t-165 -61.5h-129q-94 0 -142 61.5t-32 157.5zM297 915q-29 -164 125 -163h98 q154 0 182 163l60 340q29 164 -123 164h-100q-152 0 -181 -164z" />
<glyph unicode="&#xbb;" horiz-adv-x="1046" d="M252 319l12 72q2 8 10 17l166 149q16 16 18.5 28.5t-7.5 26.5l-113 150q-6 8 -6 16l14 72q0 6 5 9t9 -1l185 -223q8 -10 6 -19l-12 -63q0 -8 -11 -16l-264 -226q-6 -6 -10 -3t-2 11zM698 319l13 72q2 8 12 17l164 149q18 16 20 28.5t-10 26.5l-113 150q-6 8 -4 16l13 72 q2 6 7 9t9 -1l182 -223q8 -10 6 -19l-10 -63q-2 -8 -12 -16l-262 -226q-6 -6 -10.5 -3t-4.5 11z" />
<glyph unicode="&#xbc;" horiz-adv-x="1896" d="M117 532l8 50q4 20 25 20h208q14 0 23 -4q-2 8 2 23l147 843q4 16 9 27q-8 -6 -25 -6h-209q-20 0 -16 20l8 54q4 18 25 18h303q20 0 16 -21l-164 -933q-4 -16 -8 -25q10 4 25 4h204q20 0 17 -20l-8 -50q-4 -20 -25 -20h-549q-20 0 -16 20zM741 172l607 938q8 12 18 12h61 q18 0 9 -16l-607 -936q-8 -12 -18 -12h-61q-18 0 -9 14zM1194 61l10 56q0 10 6 18l605 717q8 10 20 10h78q16 0 14 -18l-125 -697q-2 -14 -6 -20q8 2 23 2h104q20 0 16 -20l-8 -48q-2 -20 -24 -20h-105q-12 0 -18 4q0 -8 -2 -20l-37 -209q-4 -20 -25 -21h-55q-20 0 -16 21 l37 209q2 12 6 20q-8 -4 -23 -4h-461q-18 0 -14 20zM1303 125q14 4 32 4h351q12 0 20 -2q-2 6 0 18l96 547q4 12 6 23q-6 -8 -12 -19l-467 -546q-14 -16 -26 -25z" />
<glyph unicode="&#xbd;" horiz-adv-x="1957" d="M117 532l8 50q4 20 25 20h208q14 0 23 -4q-2 8 2 23l147 843q4 16 9 27q-8 -6 -25 -6h-209q-20 0 -16 20l8 54q4 18 25 18h303q20 0 16 -21l-164 -933q-4 -16 -8 -25q10 4 25 4h204q20 0 17 -20l-8 -50q-4 -20 -25 -20h-549q-20 0 -16 20zM741 172l607 938q8 12 18 12h61 q18 0 9 -16l-607 -936q-8 -12 -18 -12h-61q-18 0 -9 14zM1255 -184l21 112q12 66 76 109l465 356q31 27 45 47.5t20 55.5l16 92q14 84 -14 131q-31 51 -104 51h-115q-104 0 -154 -96l-2 -6q-6 -16 -22 -17h-62q-8 0 -12 6q-4 8 0 17l2 6q35 80 101 129q68 53 147 53h152 q98 0 149 -80q51 -76 33 -182l-19 -104q-18 -106 -125 -181l-458 -346q-12 -10 -19 -12q0 -8 -2 -20l-6 -35q-2 -12 -6 -19q6 2 20 2h478q20 0 16 -20l-8 -49q-4 -20 -25 -21h-569q-23 0 -19 21z" />
<glyph unicode="&#xbe;" horiz-adv-x="1988" d="M168 688v8q0 8 6 15.5t14 7.5h60q18 0 18 -17v-8q14 -96 119 -96h152q78 0 124 51t60 133l14 80q14 82 -15.5 132t-103.5 50h-151q-18 0 -16 19l8 43q4 20 22 20h135q72 0 119 45.5t60 104.5l6 37q14 80 -16.5 125t-106.5 45h-123q-104 0 -156 -97l-2 -6q-6 -16 -22 -16 h-60q-20 0 -12 22l2 7q35 80 98 129q70 53 148 53h164q98 0 149 -72q53 -72 35 -178l-10 -53q-16 -92 -105 -164q-12 -10 -14 -16q0 -7 8 -13q37 -35 52.5 -90t5.5 -117l-19 -104q-18 -106 -98 -184t-178 -78h-189q-78 0 -127 51t-55 131zM870 172l607 938q8 12 18 12h61 q18 0 9 -16l-607 -936q-8 -12 -18 -12h-61q-18 0 -9 14zM1323 61l10 56q0 10 6 18l605 717q8 10 20 10h78q16 0 14 -18l-125 -697q-2 -14 -6 -20q8 2 23 2h104q20 0 16 -20l-6 -48q-4 -20 -26 -20h-105q-12 0 -18 4q0 -8 -2 -20l-37 -209q-4 -20 -25 -21h-55q-20 0 -16 21 l37 209q2 12 6 20q-8 -4 -23 -4h-461q-18 0 -14 20zM1432 125q14 4 32 4h351q12 0 20 -2q-2 6 0 18l96 547q4 12 6 23q-4 -8 -12 -19l-467 -546q-14 -16 -26 -25z" />
<glyph unicode="&#xbf;" horiz-adv-x="1019" d="M211 18l27 158q16 88 72.5 162t140.5 111l135 61q63 29 107 79t55 109l32 181q2 14 17 14h69q12 0 11 -14l-33 -195q-18 -86 -76.5 -153.5t-146.5 -108.5l-134 -62q-117 -53 -139 -184l-29 -160q-14 -82 30 -139t124 -61h182q84 0 154 58t84 140l27 146q2 14 16 14h74 q14 0 12 -14l-25 -140q-23 -129 -126 -217t-232 -88h-176q-127 0 -201 89.5t-51 213.5zM811 1055l25 141q2 12 16 12h68q12 0 10 -12l-25 -141q-2 -14 -16 -15h-68q-12 0 -10 15z" />
<glyph unicode="&#xc0;" d="M74 14l585 1381q4 10 17 10h268q12 0 12 -10l101 -1379q4 -16 -15 -16h-81q-14 0 -15 10l-24 400q0 6 2 34q-16 -6 -35 -6h-498q-20 0 -35 6q-6 -29 -8 -34l-166 -400q-4 -10 -18 -10h-84q-14 0 -6 14zM383 524q20 6 41 6h465q18 0 39 -6q-16 27 -19 49l-45 703 q-2 20 13 37q-8 -6 -23 -6h-123q-14 0 -20 6q8 -16 0 -37l-295 -703q-8 -23 -33 -49zM725 1765q-2 6 1 10.5t9 4.5h72q10 0 14 -8l119 -226q8 -14 -10 -14h-53q-8 0 -15 8z" />
<glyph unicode="&#xc1;" d="M74 14l585 1381q4 10 17 10h268q12 0 12 -10l101 -1379q4 -16 -15 -16h-81q-14 0 -15 10l-24 400q0 6 2 34q-16 -6 -35 -6h-498q-20 0 -35 6q-6 -29 -8 -34l-166 -400q-4 -10 -18 -10h-84q-14 0 -6 14zM383 524q20 6 41 6h465q18 0 39 -6q-16 27 -19 49l-45 703 q-2 20 13 37q-8 -6 -23 -6h-123q-14 0 -20 6q8 -16 0 -37l-295 -703q-8 -23 -33 -49zM754 1546l200 226q6 8 17 8h71q6 0 8.5 -4t-3.5 -11l-218 -225q-6 -8 -16 -8h-53q-18 0 -6 14z" />
<glyph unicode="&#xc2;" d="M74 14l585 1381q4 10 17 10h268q12 0 12 -10l101 -1379q4 -16 -15 -16h-81q-14 0 -15 10l-24 400q0 6 2 34q-16 -6 -35 -6h-498q-20 0 -35 6q-6 -29 -8 -34l-166 -400q-4 -10 -18 -10h-84q-14 0 -6 14zM383 524q20 6 41 6h465q18 0 39 -6q-16 27 -19 49l-45 703 q-2 20 13 37q-8 -6 -23 -6h-123q-14 0 -20 6q8 -16 0 -37l-295 -703q-8 -23 -33 -49zM588 1520q-2 4 4 10l242 209q8 8 16 8h65q6 0 13 -8l168 -209q2 -6 -1 -10t-10 -4h-59q-8 0 -14 8l-119 129q-18 20 -21 35q-8 -14 -34 -35l-164 -129q-10 -8 -17 -8h-59q-8 0 -10 4z" />
<glyph unicode="&#xc3;" d="M74 14l585 1381q4 10 17 10h268q12 0 12 -10l101 -1379q4 -16 -15 -16h-81q-14 0 -15 10l-24 400q0 6 2 34q-16 -6 -35 -6h-498q-20 0 -35 6q-6 -29 -8 -34l-166 -400q-4 -10 -18 -10h-84q-14 0 -6 14zM383 524q20 6 41 6h465q18 0 39 -6q-16 27 -19 49l-45 703 q-2 20 13 37q-8 -6 -23 -6h-123q-14 0 -20 6q8 -16 0 -37l-295 -703q-8 -23 -33 -49zM539 1524q18 70 71.5 116t118.5 46q63 0 123 -56q51 -47 88 -47q39 0 69.5 27.5t41.5 66.5q4 10 14 11h47q12 0 10 -11q-18 -70 -72.5 -115.5t-119.5 -45.5q-63 0 -121 55q-51 47 -88 47 q-41 0 -72 -28.5t-41 -67.5q-4 -10 -14 -11h-47q-12 0 -8 13z" />
<glyph unicode="&#xc4;" d="M74 14l585 1381q4 10 17 10h268q12 0 12 -10l101 -1379q4 -16 -15 -16h-81q-14 0 -15 10l-24 400q0 6 2 34q-16 -6 -35 -6h-498q-20 0 -35 6q-6 -29 -8 -34l-166 -400q-4 -10 -18 -10h-84q-14 0 -6 14zM383 524q20 6 41 6h465q18 0 39 -6q-16 27 -19 49l-45 703 q-2 20 13 37q-8 -6 -23 -6h-123q-14 0 -20 6q8 -16 0 -37l-295 -703q-8 -23 -33 -49zM639 1526l25 133q2 12 14 12h65q14 0 13 -12l-25 -133q-2 -12 -16 -13h-64q-14 0 -12 13zM948 1526l23 133q2 12 16 12h66q12 0 10 -12l-23 -133q-2 -12 -16 -13h-66q-12 0 -10 13z" />
<glyph unicode="&#xc5;" d="M74 14l585 1381q4 10 17 10h10q-53 53 -39 133l4 25q12 74 76 127t139 53h8q76 0 121 -53.5t31 -126.5l-4 -25q-14 -80 -86 -133h8q12 0 12 -10l101 -1379q4 -16 -15 -16h-81q-14 0 -15 10l-24 400q0 6 2 34q-16 -6 -35 -6h-498q-20 0 -35 6q-6 -29 -8 -34l-166 -400 q-4 -10 -18 -10h-84q-14 0 -6 14zM383 524q20 6 41 6h465q18 0 39 -6q-16 27 -19 49l-45 703q-2 20 13 37q-8 -6 -23 -6h-123q-14 0 -20 6q8 -16 0 -37l-295 -703q-8 -23 -33 -49zM719 1542q-8 -53 18.5 -89t73.5 -36h4q47 0 87 36t48 89l4 17q8 53 -18.5 88.5t-73.5 35.5 h-4q-47 0 -87 -35.5t-48 -88.5z" />
<glyph unicode="&#xc6;" horiz-adv-x="1642" d="M-10 16l882 1379q8 10 21 10h858q12 0 10 -14l-12 -70q-2 -14 -16 -14h-492q-20 0 -43 10q4 -20 0 -43l-76 -438q-4 -23 -16 -43q25 10 47 10h438q14 0 13 -15l-13 -63q-2 -14 -16 -14h-438q-20 0 -43 8q4 -18 0 -41l-97 -547q-4 -23 -16 -43q27 10 47 10h537 q14 0 12 -14l-12 -70q-2 -14 -17 -14h-669q-12 0 -11 10l74 400q0 4 12 34q-18 -6 -39 -6h-520q-20 0 -35 6q-10 -31 -12 -34l-252 -400q-8 -10 -20 -10h-80q-18 0 -6 16zM410 524q23 6 41 6h483q19 0 37 -6q-6 25 -2 49l127 703q4 18 22 37q-10 -6 -24 -6h-172q-16 0 -21 6 q6 -16 -6 -37l-444 -703q-16 -25 -41 -49z" />
<glyph unicode="&#xc7;" horiz-adv-x="1163" d="M211 289l145 827q20 121 122 206t222 85h285q121 0 192.5 -85t49.5 -206l-15 -90q-4 -14 -18 -14h-80q-14 0 -12 14l14 74q16 98 -32 154.5t-150 56.5h-217q-102 0 -170 -56.5t-86 -154.5l-139 -795q-16 -98 31.5 -154.5t148.5 -56.5h219q102 0 169.5 56.5t84.5 154.5 l16 90q2 14 17 15h79q14 0 13 -15l-19 -106q-20 -121 -121.5 -206t-222.5 -85h-114l-64 -76h12q70 0 111 -54t29 -126l-4 -27q-12 -74 -72 -132t-133 -58h-164q-12 0 -10 12l6 37q2 12 14 12h139q55 0 98.5 42t55.5 106q10 59 -19.5 95t-84.5 36h-78q-6 0 -10.5 4t0.5 8 l98 121h-94q-121 0 -193 85t-49 206z" />
<glyph unicode="&#xc8;" horiz-adv-x="1038" d="M188 14l242 1377q2 14 19 14h696q14 0 12 -14l-12 -70q-2 -14 -17 -14h-567q-23 0 -43 10q4 -20 0 -43l-78 -438q-4 -23 -14 -43q25 10 47 10h514q14 0 12 -15l-12 -63q-2 -14 -16 -14h-514q-20 0 -45 8q6 -18 2 -41l-97 -547q-4 -23 -16 -43q27 10 47 10h613 q14 0 12 -14l-12 -70q-2 -14 -17 -14h-743q-16 0 -13 14zM709 1767q-4 6 0 11.5t10 5.5h72q10 0 14 -8l119 -228q8 -14 -11 -14h-53q-8 0 -14 8z" />
<glyph unicode="&#xc9;" horiz-adv-x="1038" d="M188 14l242 1377q2 14 19 14h696q14 0 12 -14l-12 -70q-2 -14 -17 -14h-567q-23 0 -43 10q4 -20 0 -43l-78 -438q-4 -23 -14 -43q25 10 47 10h514q14 0 12 -15l-12 -63q-2 -14 -16 -14h-514q-20 0 -45 8q6 -18 2 -41l-97 -547q-4 -23 -16 -43q27 10 47 10h613 q14 0 12 -14l-12 -70q-2 -14 -17 -14h-743q-16 0 -13 14zM737 1548l201 228q6 8 16 8h72q6 0 8 -5t-4 -12l-217 -225q-6 -8 -16 -8h-54q-18 0 -6 14z" />
<glyph unicode="&#xca;" horiz-adv-x="1038" d="M188 14l242 1377q2 14 19 14h696q14 0 12 -14l-12 -70q-2 -14 -17 -14h-567q-23 0 -43 10q4 -20 0 -43l-78 -438q-4 -23 -14 -43q25 10 47 10h514q14 0 12 -15l-12 -63q-2 -14 -16 -14h-514q-20 0 -45 8q6 -18 2 -41l-97 -547q-4 -23 -16 -43q27 10 47 10h613 q14 0 12 -14l-12 -70q-2 -14 -17 -14h-743q-16 0 -13 14zM571.5 1523q-2.5 5 3.5 9l242 209q8 10 17 10h65q6 0 12 -10l168 -209q2 -4 -1 -9t-9 -5h-59q-8 0 -15 8l-118 129q-18 20 -21 35q-8 -14 -35 -35l-164 -129q-10 -8 -16 -8h-59q-8 0 -10.5 5z" />
<glyph unicode="&#xcb;" horiz-adv-x="1038" d="M188 14l242 1377q2 14 19 14h696q14 0 12 -14l-12 -70q-2 -14 -17 -14h-567q-23 0 -43 10q4 -20 0 -43l-78 -438q-4 -23 -14 -43q25 10 47 10h514q14 0 12 -15l-12 -63q-2 -14 -16 -14h-514q-20 0 -45 8q6 -18 2 -41l-97 -547q-4 -23 -16 -43q27 10 47 10h613 q14 0 12 -14l-12 -70q-2 -14 -17 -14h-743q-16 0 -13 14zM623 1530l24 131q2 14 15 14h65q14 0 12 -14l-24 -131q-2 -14 -17 -14h-63q-14 0 -12 14zM932 1530l22 131q2 14 17 14h65q12 0 11 -14l-23 -131q-4 -14 -16 -14h-66q-12 0 -10 14z" />
<glyph unicode="&#xcc;" horiz-adv-x="520" d="M188 14l242 1377q2 14 16 14h80q14 0 13 -14l-244 -1377q-2 -14 -16 -14h-80q-14 0 -11 14zM392 1778.5q3 5.5 11 5.5h72q8 0 12 -8l121 -228q6 -14 -10 -14h-55q-8 0 -13 8l-137 225q-4 6 -1 11.5z" />
<glyph unicode="&#xcd;" horiz-adv-x="520" d="M188 14l242 1377q2 14 16 14h80q14 0 13 -14l-244 -1377q-2 -14 -16 -14h-80q-14 0 -11 14zM422 1548l199 228q8 8 16 8h72q8 0 9 -5t-3 -12l-217 -225q-8 -8 -17 -8h-55q-16 0 -4 14z" />
<glyph unicode="&#xce;" horiz-adv-x="520" d="M188 14l242 1377q2 14 16 14h80q14 0 13 -14l-244 -1377q-2 -14 -16 -14h-80q-14 0 -11 14zM255 1523q-1 5 3 9l242 209q10 10 16 10h66q6 0 14 -10l166 -209q4 -4 0 -9t-10 -5h-60q-8 0 -14 8l-119 129q-18 20 -20 35q-8 -14 -33 -35l-166 -129q-10 -8 -16 -8h-60 q-8 0 -9 5z" />
<glyph unicode="&#xcf;" horiz-adv-x="520" d="M188 14l242 1377q2 14 16 14h80q14 0 13 -14l-244 -1377q-2 -14 -16 -14h-80q-14 0 -11 14zM307 1530l23 131q2 14 16 14h66q12 0 10 -14l-23 -131q-4 -14 -16 -14h-66q-14 0 -10 14zM614 1530l25 131q2 14 14 14h66q14 0 10 -14l-22 -131q-2 -14 -17 -14h-63 q-14 0 -13 14z" />
<glyph unicode="&#xd0;" horiz-adv-x="1239" d="M188 14l242 1377q4 14 16 14h545q123 0 194.5 -85t49.5 -206l-145 -823q-20 -121 -122 -206t-225 -85h-544q-12 0 -11 14zM301 88q25 10 47 10h383q104 0 170 53.5t82 151.5l139 793q18 100 -28.5 155.5t-149.5 55.5h-383q-23 0 -43 10q4 -20 0 -43l-86 -494 q-6 -31 -20 -51q23 10 51 10h418q12 0 10 -12l-10 -57q-2 -12 -17 -13h-415q-29 0 -48 9q6 -16 2 -45l-86 -490q-4 -23 -16 -43z" />
<glyph unicode="&#xd1;" horiz-adv-x="1363" d="M188 14l242 1377q2 14 19 14h83q12 0 17 -10l479 -1125q29 -66 39 -110q4 78 12 125l195 1106q2 14 18 14h76q16 0 14 -14l-243 -1377q-2 -14 -17 -14h-82q-12 0 -16 10l-481 1131q-29 68 -39 110q-2 -76 -12 -123l-195 -1114q-4 -14 -18 -14h-78q-16 0 -13 14zM641 1526 q16 70 70.5 116t119.5 46q63 0 121 -56q53 -47 88 -47q41 0 72 28.5t41 65.5q4 12 14 13h47q12 0 9 -13q-16 -70 -70.5 -115.5t-120.5 -45.5q-63 0 -121 55q-51 47 -88 47q-41 0 -71.5 -27.5t-40.5 -66.5q-4 -12 -15 -13h-47q-12 0 -8 13z" />
<glyph unicode="&#xd2;" horiz-adv-x="1232" d="M211 289l145 827q20 121 122 206t222 85h287q121 0 192.5 -85t49.5 -206l-146 -827q-20 -121 -121.5 -206t-222.5 -85h-286q-121 0 -193 85t-49 206zM322 305q-16 -98 32 -154.5t148 -56.5h221q102 0 170 56.5t84 154.5l141 795q16 98 -32 154.5t-148 56.5h-221 q-102 0 -170 -56.5t-86 -154.5zM752 1767q-2 6 1 11.5t11 5.5h70q10 0 14 -8l121 -228q6 -14 -11 -14h-55q-8 0 -14 8z" />
<glyph unicode="&#xd3;" horiz-adv-x="1232" d="M211 289l145 827q20 121 122 206t222 85h287q121 0 192.5 -85t49.5 -206l-146 -827q-20 -121 -121.5 -206t-222.5 -85h-286q-121 0 -193 85t-49 206zM322 305q-16 -98 32 -154.5t148 -56.5h221q102 0 170 56.5t84 154.5l141 795q16 98 -32 154.5t-148 56.5h-221 q-102 0 -170 -56.5t-86 -154.5zM780 1548l201 228q6 8 16 8h72q8 0 9 -5t-5 -12l-215 -225q-8 -8 -18 -8h-54q-18 0 -6 14z" />
<glyph unicode="&#xd4;" horiz-adv-x="1232" d="M211 289l145 827q20 121 122 206t222 85h287q121 0 192.5 -85t49.5 -206l-146 -827q-20 -121 -121.5 -206t-222.5 -85h-286q-121 0 -193 85t-49 206zM322 305q-16 -98 32 -154.5t148 -56.5h221q102 0 170 56.5t84 154.5l141 795q16 98 -32 154.5t-148 56.5h-221 q-102 0 -170 -56.5t-86 -154.5zM614.5 1523q-2.5 5 3.5 9l242 209q10 10 17 10h65q6 0 12 -10l168 -209q4 -4 0 -9t-10 -5h-59q-8 0 -15 8l-118 129q-18 20 -21 35q-8 -14 -33 -35l-166 -129q-10 -8 -16 -8h-59q-8 0 -10.5 5z" />
<glyph unicode="&#xd5;" horiz-adv-x="1232" d="M211 289l145 827q20 121 122 206t222 85h287q121 0 192.5 -85t49.5 -206l-146 -827q-20 -121 -121.5 -206t-222.5 -85h-286q-121 0 -193 85t-49 206zM322 305q-16 -98 32 -154.5t148 -56.5h221q102 0 170 56.5t84 154.5l141 795q16 98 -32 154.5t-148 56.5h-221 q-102 0 -170 -56.5t-86 -154.5zM565 1526q18 70 71.5 116t119.5 46q63 0 123 -56q51 -47 88 -47q39 0 70.5 28.5t41.5 65.5q2 12 13 13h47q12 0 10 -13q-18 -70 -72.5 -115.5t-118.5 -45.5q-66 0 -122 55q-51 47 -88 47q-39 0 -71 -27.5t-42 -66.5q-2 -12 -12 -13h-48 q-12 0 -10 13z" />
<glyph unicode="&#xd6;" horiz-adv-x="1232" d="M211 289l145 827q20 121 122 206t222 85h287q121 0 192.5 -85t49.5 -206l-146 -827q-20 -121 -121.5 -206t-222.5 -85h-286q-121 0 -193 85t-49 206zM322 305q-16 -98 32 -154.5t148 -56.5h221q102 0 170 56.5t84 154.5l141 795q16 98 -32 154.5t-148 56.5h-221 q-102 0 -170 -56.5t-86 -154.5zM666 1530l24 131q2 14 17 14h63q14 0 12 -14l-24 -131q-2 -14 -15 -14h-65q-14 0 -12 14zM975 1530l22 131q2 14 17 14h65q12 0 11 -14l-23 -131q-2 -14 -16 -14h-66q-12 0 -10 14z" />
<glyph unicode="&#xd7;" horiz-adv-x="1030" d="M236 414q-8 8 4 18l315 270l-221 271q-8 8 4 18l53 45q10 10 17 0l221 -270l317 270q10 10 19 0l36 -45q6 -10 -4 -18l-315 -271l221 -270q6 -10 -4 -18l-53 -47q-10 -8 -19 0l-221 270l-315 -270q-10 -8 -19 0z" />
<glyph unicode="&#xd8;" horiz-adv-x="1243" d="M211 289l145 827q20 121 122 206t222 85h273q51 0 67 -12q4 20 9 30l102 197q6 10 18 10h60q16 0 10 -14l-113 -215q-6 -14 -20 -31q17 0 31 -10q55 -39 80.5 -104.5t13.5 -141.5l-148 -827q-20 -121 -120.5 -206t-221.5 -85h-264q-23 0 -31 10q-6 -25 -10 -33l-110 -211 q-6 -10 -17 -10h-57q-16 0 -10 15l112 219q8 16 23 30q-20 -2 -37 7q-72 37 -108.5 107.5t-20.5 156.5zM322 305q-18 -102 28.5 -156.5t151.5 -54.5h223q104 0 170 54.5t84 156.5l139 789q18 104 -29 160.5t-151 56.5h-221q-104 0 -171 -56.5t-85 -160.5z" />
<glyph unicode="&#xd9;" horiz-adv-x="1245" d="M217 291l195 1100q2 14 16 14h78q16 0 14 -14l-192 -1086q-16 -98 32 -154.5t148 -56.5h221q102 0 170 56.5t84 154.5l193 1086q2 14 18 14h78q14 0 12 -14l-194 -1100q-20 -121 -122 -207t-225 -86h-282q-123 0 -194.5 86t-49.5 207zM752 1767q-2 6 1 11.5t9 5.5h72 q10 0 14 -8l119 -228q8 -14 -11 -14h-53q-8 0 -14 8z" />
<glyph unicode="&#xda;" horiz-adv-x="1245" d="M217 291l195 1100q2 14 16 14h78q16 0 14 -14l-192 -1086q-16 -98 32 -154.5t148 -56.5h221q102 0 170 56.5t84 154.5l193 1086q2 14 18 14h78q14 0 12 -14l-194 -1100q-20 -121 -122 -207t-225 -86h-282q-123 0 -194.5 86t-49.5 207zM780 1548l201 228q6 8 16 8h72 q6 0 8 -5t-4 -12l-217 -225q-6 -8 -16 -8h-54q-18 0 -6 14z" />
<glyph unicode="&#xdb;" horiz-adv-x="1245" d="M217 291l193 1100q4 14 18 14h78q16 0 14 -14l-192 -1086q-16 -98 32 -154.5t148 -56.5h221q102 0 170 56.5t84 154.5l193 1086q2 14 18 14h78q14 0 12 -14l-194 -1100q-20 -121 -122 -207t-225 -86h-282q-123 0 -194.5 86t-49.5 207zM614.5 1523q-2.5 5 3.5 9l242 209 q10 10 17 10h65q6 0 12 -10l168 -209q4 -4 0 -9t-10 -5h-59q-8 0 -15 8l-118 129q-18 20 -21 35q-8 -14 -35 -35l-164 -129q-10 -8 -16 -8h-59q-8 0 -10.5 5z" />
<glyph unicode="&#xdc;" horiz-adv-x="1245" d="M217 291l195 1100q2 14 16 14h78q16 0 14 -14l-192 -1086q-16 -98 32 -154.5t148 -56.5h221q102 0 170 56.5t84 154.5l193 1086q2 14 18 14h78q14 0 12 -14l-194 -1100q-20 -121 -122 -207t-225 -86h-282q-123 0 -194.5 86t-49.5 207zM666 1530l24 131q2 14 15 14h65 q14 0 12 -14l-24 -131q-2 -14 -15 -14h-65q-14 0 -12 14zM975 1530l22 131q2 14 17 14h65q12 0 11 -14l-23 -131q-2 -14 -16 -14h-66q-12 0 -10 14z" />
<glyph unicode="&#xdd;" horiz-adv-x="1042" d="M211 1386q-6 18 14 19h86q12 0 17 -10l268 -688q14 -33 16 -70q16 37 41 70l512 688q6 10 19 10h86q20 0 8 -19l-614 -823q-6 -8 -15 -14v-6v-6l-92 -523q-2 -14 -18 -14h-78q-16 0 -12 14l92 523q0 2 2 7l2 5q-6 6 -10 14zM680 1548l199 228q8 8 16 8h72q8 0 9 -5 t-3 -12l-217 -225q-8 -8 -17 -8h-53q-18 0 -6 14z" />
<glyph unicode="&#xde;" d="M190 12l242 1377q2 12 17 12h77q12 0 11 -12l-74 -420q-4 -27 -12 -41q16 6 43 6h407q117 0 186.5 -84t49.5 -201l-21 -108q-20 -119 -120.5 -202t-221.5 -83h-395q-31 0 -45 8q2 -16 -2 -45l-37 -207q-2 -12 -16 -12h-78q-14 0 -11 12zM346 340q18 8 49 8h365 q104 0 169.5 53.5t84.5 153.5l12 72q18 102 -29 157.5t-151 55.5h-365q-29 0 -43 10q0 -18 -4 -47l-74 -418q-6 -29 -14 -45z" />
<glyph unicode="&#xdf;" horiz-adv-x="1187" d="M188 16l230 1303q20 119 120.5 204t223.5 85h262q121 0 191.5 -85t50.5 -206l-41 -234q-10 -51 -17.5 -80.5t-30 -67.5t-55.5 -67q-12 -8 -37 -22q14 -8 29 -23q41 -39 58.5 -96t7.5 -117l-58 -321q-20 -121 -121.5 -205t-224.5 -84h-233q-16 0 -13 16l11 64q4 14 18 14 h201q106 0 170.5 53.5t83.5 153.5l51 291q16 100 -30 155.5t-150 55.5h-203q-14 0 -12 14l10 57q4 14 16 15h205q102 0 148.5 40t64.5 140l41 231q16 100 -30 155.5t-150 55.5h-199q-102 0 -168.5 -55t-85.5 -156l-227 -1284q-2 -16 -19 -16h-75q-16 0 -13 16z" />
<glyph unicode="&#xe0;" horiz-adv-x="1122" d="M203 303l92 522q23 127 126 215t228 88h131q90 0 158 -57q37 -29 47 -78q6 59 12 92l2 21q2 10 17 10h76q14 0 12 -12l-191 -1079q-2 -14 -16 -15h-76q-6 0 -9 3t-3 10l4 20q6 33 21 90q-29 -47 -74 -76q-90 -59 -178 -59h-133q-123 0 -196 89t-50 216zM309 317 q-18 -111 31 -168t160 -57h96q106 0 174 57.5t86 163.5l88 502q18 104 -29 161.5t-153 57.5h-96q-111 0 -180.5 -57t-88.5 -168zM666 1536q-2 6 1 11t11 5h72q10 0 14 -8l125 -241q8 -14 -10 -15h-56q-10 0 -14 8z" />
<glyph unicode="&#xe1;" horiz-adv-x="1122" d="M203 303l92 522q23 127 126 215t228 88h131q90 0 158 -57q37 -29 47 -78q6 59 12 92l2 21q2 10 17 10h76q14 0 12 -12l-191 -1079q-2 -14 -16 -15h-76q-6 0 -9 3t-3 10l4 20q6 33 21 90q-29 -47 -74 -76q-90 -59 -178 -59h-133q-123 0 -196 89t-50 216zM309 317 q-18 -111 31 -168t160 -57h96q106 0 174 57.5t86 163.5l88 502q18 104 -29 161.5t-153 57.5h-96q-111 0 -180.5 -57t-88.5 -168zM694 1303l209 241q8 8 19 8h73q6 0 8.5 -5t-4.5 -11l-227 -240q-6 -8 -16 -8h-56q-18 0 -6 15z" />
<glyph unicode="&#xe2;" horiz-adv-x="1122" d="M203 303l92 522q23 127 126 215t228 88h131q90 0 158 -57q37 -29 47 -78q6 59 12 92l2 21q2 10 17 10h76q14 0 12 -12l-191 -1081q-2 -12 -16 -13h-76q-6 0 -9 3t-3 10l4 20q6 33 21 90q-29 -47 -74 -78q-90 -57 -178 -57h-133q-123 0 -196 89t-50 216zM309 317 q-18 -111 31 -168t160 -57h96q106 0 174 57.5t86 163.5l88 502q18 104 -29 161.5t-153 57.5h-96q-111 0 -180.5 -57t-88.5 -168zM521 1275q-1 5 3 11l254 221q10 10 17 11h67q6 0 15 -11l174 -221q2 -6 -1 -11t-12 -5h-61q-6 0 -14 8l-123 139q-18 20 -23 37q-8 -16 -35 -37 l-174 -139q-8 -8 -16 -8h-62q-8 0 -9 5z" />
<glyph unicode="&#xe3;" horiz-adv-x="1122" d="M203 303l92 522q23 127 126 215t228 88h131q90 0 158 -57q37 -29 47 -78q6 59 12 92l2 21q2 10 17 10h76q14 0 12 -12l-191 -1079q-2 -14 -16 -15h-76q-6 0 -9 3t-3 10l4 20q6 33 21 90q-29 -47 -74 -76q-90 -59 -178 -59h-133q-123 0 -196 89t-50 216zM309 317 q-18 -111 31 -168t160 -57h96q106 0 174 57.5t86 163.5l88 502q18 104 -29 161.5t-153 57.5h-96q-111 0 -180.5 -57t-88.5 -168zM469 1278q18 74 74.5 123t126.5 49q66 0 125 -57q55 -51 92 -52q43 0 75.5 30t43.5 71q4 12 14 12h49q12 0 8 -12q-18 -74 -74.5 -123 t-123.5 -49q-68 0 -127 59q-53 49 -93 49q-41 0 -73.5 -29.5t-44.5 -70.5q-2 -12 -15 -12h-47q-14 0 -10 12z" />
<glyph unicode="&#xe4;" horiz-adv-x="1122" d="M203 303l92 522q23 127 126 215t228 88h131q90 0 158 -57q37 -29 47 -78q6 59 12 92l2 21q2 10 17 10h76q14 0 12 -12l-191 -1079q-2 -14 -16 -15h-76q-6 0 -9 3t-3 10l4 20q6 33 21 90q-29 -47 -74 -76q-90 -59 -178 -59h-133q-123 0 -196 89t-50 216zM309 317 q-18 -111 31 -168t160 -57h96q106 0 174 57.5t86 163.5l88 502q18 104 -29 161.5t-153 57.5h-96q-111 0 -180.5 -57t-88.5 -168zM575 1282l25 141q2 14 16 15h68q14 0 10 -15l-24 -141q-2 -14 -17 -14h-65q-14 0 -13 14zM897 1282l25 141q2 14 16 15h68q12 0 10 -15 l-25 -141q-2 -14 -16 -14h-68q-12 0 -10 14z" />
<glyph unicode="&#xe5;" horiz-adv-x="1058" d="M203 303l92 522q18 106 98 189.5t185 105.5q-51 57 -37 140l4 26q14 78 79.5 134.5t145.5 56.5h8q78 0 125 -56.5t33 -134.5l-4 -26q-14 -82 -86 -140q51 -14 92 -49q37 -29 47 -78q6 59 12 92l2 21q2 10 17 10h76q14 0 12 -12l-191 -1079q-2 -14 -16 -15h-76q-6 0 -9 3 t-3 10l4 20q6 33 21 90q-29 -47 -74 -76q-90 -59 -178 -59h-133q-123 0 -196 89t-50 216zM309 317q-18 -111 31 -168t160 -57h96q106 0 174 57.5t86 163.5l88 502q18 104 -29 161.5t-153 57.5h-96q-111 0 -180.5 -57t-88.5 -168zM614 1264q-10 -55 19 -94.5t78 -39.5h4 q49 0 91 39t52 95l4 18q8 55 -19.5 94t-76.5 39h-6q-49 0 -91 -39t-51 -94z" />
<glyph unicode="&#xe6;" horiz-adv-x="1796" d="M203 287l12 71q20 121 120.5 202t227.5 81h361q27 0 43 -8q-4 18 0 37l26 145q18 104 -30 161.5t-154 57.5h-117q-104 0 -168.5 -56t-83.5 -161v-6q-2 -12 -14 -12h-78q-14 0 -12 14l4 25q23 119 123 204.5t221 85.5h174q78 0 136.5 -38.5t84.5 -106.5q49 68 123 106.5 t152 38.5h192q117 0 197 -83.5t59 -202.5l-49 -271q-2 -12 -14 -12h-643q-35 0 -49 10q6 -16 2 -47l-37 -203q-18 -109 28.5 -168t155.5 -59h137q104 0 169 56.5t83 160.5l2 6q2 12 15 13h79q12 0 11 -15l-4 -22q-25 -121 -127.5 -207t-221.5 -86h-176q-82 0 -145.5 42 t-89.5 112q-47 -76 -119 -115t-152 -39h-213q-121 0 -192.5 84t-48.5 205zM311 309q-18 -106 29 -161.5t160 -55.5h143q106 0 174 55.5t86 159.5l39 225q2 14 10 35q-16 -8 -43 -8h-334q-104 0 -171.5 -58.5t-88.5 -162.5zM1059 633q18 10 51 10h510q33 0 47 -10q-4 18 0 47 l25 141q18 102 -29 157.5t-154 55.5h-149q-106 0 -174 -55t-86 -158l-25 -141q-4 -29 -16 -47z" />
<glyph unicode="&#xe7;" horiz-adv-x="1064" d="M203 307l90 512q25 135 124 222t232 87h158q135 0 202.5 -88t45.5 -215l-6 -39q-2 -14 -17 -14h-80q-12 0 -10 14l4 23q39 225 -176 225h-117q-215 0 -256 -231l-86 -479q-41 -231 176 -232h117q215 0 256 225l4 25q2 12 15 12h79q14 0 11 -12l-6 -41 q-23 -127 -122.5 -215t-232.5 -88h-14l-68 -80h15q74 0 115.5 -58.5t29.5 -133.5l-6 -29q-12 -78 -74.5 -140.5t-138.5 -62.5h-172q-12 0 -10 14l6 39q2 12 14 13h146q57 0 103 44t58 111q12 63 -19.5 102.5t-88.5 39.5h-80q-6 0 -10 4t0 8l100 129h-63q-133 0 -202 88 t-46 221z" />
<glyph unicode="&#xe8;" horiz-adv-x="1091" d="M197 305l92 516q23 127 128 217t232 90h191q119 0 197.5 -83.5t58.5 -202.5l-47 -271q-4 -12 -17 -12h-643q-35 0 -49 10q6 -16 2 -47l-37 -205q-18 -106 29 -165.5t155 -59.5h140q102 0 166.5 56.5t83.5 160.5l2 6q2 12 14 13h80q14 0 10 -13l-4 -24q-25 -121 -127 -207 t-221 -86h-184q-127 0 -201 90t-51 217zM352 633q18 10 51 10h510q33 0 48 -10q-4 18 0 47l26 141q16 102 -31 157.5t-153 55.5h-150q-106 0 -173.5 -55t-84.5 -158l-26 -141q-4 -29 -17 -47zM655 1536q-2 6 1 11t12 5h71q10 0 15 -8l125 -241q8 -14 -11 -15h-55 q-10 0 -14 8z" />
<glyph unicode="&#xe9;" horiz-adv-x="1091" d="M197 305l92 516q23 127 128 217t232 90h191q119 0 197.5 -83.5t58.5 -202.5l-47 -271q-4 -12 -17 -12h-643q-35 0 -49 10q6 -16 2 -47l-37 -205q-18 -106 29 -165.5t155 -59.5h140q102 0 166.5 56.5t83.5 160.5l2 6q2 12 14 13h80q14 0 10 -13l-4 -24q-25 -121 -127 -207 t-221 -86h-184q-127 0 -201 90t-51 217zM352 633q18 10 51 10h510q33 0 48 -10q-4 18 0 47l26 141q16 102 -31 157.5t-153 55.5h-150q-106 0 -173.5 -55t-84.5 -158l-26 -141q-4 -29 -17 -47zM684 1303l209 241q8 8 18 8h74q6 0 8 -5t-4 -11l-227 -240q-6 -8 -17 -8h-55 q-18 0 -6 15z" />
<glyph unicode="&#xea;" horiz-adv-x="1091" d="M197 305l92 516q23 127 128 217t232 90h191q119 0 197.5 -83.5t58.5 -202.5l-47 -271q-4 -12 -17 -12h-643q-35 0 -49 10q6 -16 2 -47l-37 -205q-18 -106 29 -165.5t155 -59.5h140q102 0 166.5 56.5t83.5 160.5l2 6q2 12 14 13h80q14 0 10 -13l-4 -24q-25 -121 -127 -207 t-221 -86h-184q-127 0 -201 90t-51 217zM352 633q18 10 51 10h510q33 0 48 -10q-4 18 0 47l26 141q16 102 -31 157.5t-153 55.5h-150q-106 0 -173.5 -55t-84.5 -158l-26 -141q-4 -29 -17 -47zM510 1275q-2 5 4 11l254 221q10 10 16 11h68q6 0 14 -11l172 -221q4 -6 1 -11 t-11 -5h-61q-6 0 -15 8l-123 139q-18 20 -22 37q-8 -16 -35 -37l-174 -139q-10 -8 -16 -8h-62q-8 0 -10 5z" />
<glyph unicode="&#xeb;" horiz-adv-x="1091" d="M197 305l92 516q23 127 128 217t232 90h191q119 0 197.5 -83.5t58.5 -202.5l-47 -271q-4 -12 -17 -12h-643q-35 0 -49 10q6 -16 2 -47l-37 -205q-18 -106 29 -165.5t155 -59.5h140q102 0 166.5 56.5t83.5 160.5l2 6q2 12 14 13h80q14 0 10 -13l-4 -24q-25 -121 -127 -207 t-221 -86h-184q-127 0 -201 90t-51 217zM352 633q18 10 51 10h510q33 0 48 -10q-4 18 0 47l26 141q16 102 -31 157.5t-153 55.5h-150q-106 0 -173.5 -55t-84.5 -158l-26 -141q-4 -29 -17 -47zM565 1282l25 141q2 14 16 15h68q14 0 10 -15l-25 -141q-2 -14 -16 -14h-65 q-14 0 -13 14zM887 1282l24 141q2 14 17 15h67q12 0 11 -15l-25 -141q-2 -14 -16 -14h-68q-12 0 -10 14z" />
<glyph unicode="&#xec;" horiz-adv-x="491" d="M176 25l191 1079q2 12 16 12h78q14 0 12 -12l-190 -1079q-2 -14 -17 -15h-80q-12 0 -10 15zM334 1536q-4 6 0 11t10 5h74q10 0 14 -8l125 -241q6 -14 -12 -15h-56q-8 0 -14 8z" />
<glyph unicode="&#xed;" horiz-adv-x="491" d="M176 25l191 1079q2 12 16 12h78q14 0 12 -12l-190 -1079q-2 -14 -17 -15h-80q-12 0 -10 15zM362 1303l209 241q8 8 19 8h72q8 0 10 -5t-4 -11l-228 -240q-8 -8 -16 -8h-55q-18 0 -7 15z" />
<glyph unicode="&#xee;" horiz-adv-x="491" d="M176 25l191 1079q2 12 16 12h78q14 0 12 -12l-190 -1079q-2 -14 -17 -15h-80q-12 0 -10 15zM188.5 1275q-2.5 5 4.5 11l253 221q10 10 17 11h67q6 0 13 -11l174 -221q4 -6 1 -11t-11 -5h-62q-8 0 -14 8l-123 139q-20 20 -23 37q-8 -16 -34 -37l-175 -139q-10 -8 -16 -8 h-61q-8 0 -10.5 5z" />
<glyph unicode="&#xef;" horiz-adv-x="491" d="M176 25l191 1079q2 12 16 12h78q14 0 12 -12l-190 -1079q-2 -14 -17 -15h-80q-12 0 -10 15zM244 1282l24 141q2 14 17 15h67q12 0 10 -15l-24 -141q-2 -14 -16 -14h-68q-12 0 -10 14zM563 1282l27 141q2 14 16 15h66q14 0 12 -15l-25 -141q-4 -14 -16 -14h-68 q-14 0 -12 14z" />
<glyph unicode="&#xf0;" horiz-adv-x="1134" d="M190 346l41 229q23 131 140.5 241t240.5 110h254l-84 293l-168 -95q-8 -4 -11 -1t-3 12l8 45q2 10 13 16l145 80l-57 203q-4 14 12 14h84q8 0 12 -10l45 -154l203 113q8 4 12 1t2 -11l-8 -46q-2 -10 -10 -16l-182 -100l163 -570q2 -12 10.5 -39.5t11.5 -47t-1 -38.5 l-41 -229q-23 -129 -140.5 -238.5t-240.5 -109.5h-190q-125 0 -204 109.5t-57 238.5zM297 358q-18 -113 37 -189.5t164 -76.5h127q109 0 191.5 77t103.5 189l34 201q4 16 1 33.5t-9 38.5t-8 33q-25 88 -57 167h-252q-109 0 -193 -78.5t-102 -193.5z" />
<glyph unicode="&#xf1;" horiz-adv-x="1161" d="M176 25l191 1079q2 12 14 12h74q8 0 11 -2t1 -8l-2 -16q-4 -16 -8 -35t-9.5 -36.5t-5.5 -23.5q29 49 74 78q82 55 180 55h166q123 0 195.5 -88t50.5 -215l-141 -800q-2 -14 -17 -15h-80q-12 0 -10 15l137 778q20 115 -26.5 173t-155.5 58h-133q-106 0 -174 -57t-86 -162 l-139 -790q-4 -14 -17 -15h-80q-12 0 -10 15zM500 1278q20 74 76.5 123t123.5 49q66 0 127 -57q53 -51 93 -52q41 0 73.5 30t42.5 71q4 12 15 12h49q14 0 10 -12q-18 -74 -74.5 -123t-126.5 -49q-66 0 -127 59q-53 49 -92 49q-41 0 -73.5 -29.5t-43.5 -70.5q-4 -12 -14 -12 h-49q-12 0 -10 12z" />
<glyph unicode="&#xf2;" horiz-adv-x="1112" d="M199 307l90 512q23 135 123 222t233 87h180q133 0 202 -87t44 -222l-90 -512q-23 -135 -123 -222t-231 -87h-183q-133 0 -201.5 87t-43.5 222zM307 324q-41 -231 174 -232h142q215 0 256 232l84 479q40 231 -175 231h-139q-217 0 -258 -231zM642 1547q3 5 11 5h74 q10 0 14 -8l123 -241q8 -14 -10 -15h-55q-10 0 -15 8l-141 240q-4 6 -1 11z" />
<glyph unicode="&#xf3;" horiz-adv-x="1112" d="M199 307l90 512q23 135 123 222t233 87h180q133 0 202 -87t44 -222l-90 -512q-23 -135 -123 -222t-231 -87h-183q-133 0 -201.5 87t-43.5 222zM307 324q-41 -231 174 -232h142q215 0 256 232l84 479q40 231 -175 231h-139q-217 0 -258 -231zM672 1303l209 241q6 8 16 8 h74q8 0 9 -5t-5 -11l-225 -240q-8 -8 -19 -8h-55q-18 0 -4 15z" />
<glyph unicode="&#xf4;" horiz-adv-x="1112" d="M199 307l90 512q23 135 123 222t233 87h180q133 0 202 -87t44 -222l-90 -512q-23 -135 -123 -222t-231 -87h-183q-133 0 -201.5 87t-43.5 222zM307 324q-41 -231 174 -232h142q215 0 256 232l84 479q40 231 -175 231h-139q-217 0 -258 -231zM498 1275q-2 5 4 11l252 221 q10 10 18 11h66q8 0 14 -11l174 -221q4 -6 0 -11t-12 -5h-60q-8 0 -14 8l-125 139q-18 20 -20 37h-2q-8 -16 -35 -37l-172 -139q-10 -8 -19 -8h-61q-6 0 -8 5z" />
<glyph unicode="&#xf5;" horiz-adv-x="1112" d="M199 307l90 512q23 135 123 222t233 87h180q133 0 202 -87t44 -222l-90 -512q-23 -135 -123 -222t-231 -87h-183q-133 0 -201.5 87t-43.5 222zM307 324q-41 -231 174 -232h142q215 0 256 232l84 479q40 231 -175 231h-139q-217 0 -258 -231zM444 1278q18 74 74.5 123 t126.5 49q66 0 127 -57q53 -51 92 -52q41 0 74 30t43 71q4 12 14 12h49q12 0 11 -12q-18 -74 -74.5 -123t-126.5 -49q-66 0 -127 59q-53 49 -92 49q-41 0 -74 -29.5t-43 -70.5q-4 -12 -14 -12h-49q-12 0 -11 12z" />
<glyph unicode="&#xf6;" horiz-adv-x="1112" d="M199 307l90 512q23 135 123 222t233 87h180q133 0 202 -87t44 -222l-90 -512q-23 -135 -123 -222t-231 -87h-183q-133 0 -201.5 87t-43.5 222zM307 324q-41 -231 174 -232h142q215 0 256 232l84 479q40 231 -175 231h-139q-217 0 -258 -231zM551 1282l27 141q2 14 14 15 h67q14 0 13 -15l-25 -141q-4 -14 -16 -14h-68q-14 0 -12 14zM872 1282l25 141q2 14 16 15h68q14 0 10 -15l-24 -141q-2 -14 -17 -14h-65q-14 0 -13 14z" />
<glyph unicode="&#xf7;" horiz-adv-x="1155" d="M233 668l11 65q2 14 16 15h856q12 0 10 -15l-10 -65q-2 -12 -16 -13h-856q-12 0 -11 13zM528 174l25 135q2 14 16 15h88q14 0 11 -15l-23 -135q-2 -14 -16 -14h-88q-14 0 -13 14zM686 1065l23 133q4 14 16 14h90q12 0 10 -14l-22 -133q-4 -14 -17 -14h-90q-12 0 -10 14z " />
<glyph unicode="&#xf8;" horiz-adv-x="1169" d="M203 -256l139 268q8 16 16 25q-12 -2 -24 6q-59 41 -86 110.5t-12 151.5l90 516q23 127 128 217t232 90h166q25 0 43 -2q10 -2 18 -8q2 14 5 23l124 239q6 10 19 11h61q16 0 11 -15l-136 -264q-6 -8 -16 -18q12 -2 18 -4q66 -35 95.5 -109t15.5 -160l-90 -516 q-23 -127 -128.5 -217t-232.5 -90h-157q-29 0 -58 6q-8 2 -20 10q0 -16 -4 -24l-129 -250q-6 -10 -19 -10h-59q-16 0 -10 14zM344 324q-20 -115 27 -173.5t155 -58.5h125q109 0 177.5 58.5t86.5 173.5l86 477q18 115 -27.5 174t-154.5 59h-127q-109 0 -176 -59.5t-88 -173.5 z" />
<glyph unicode="&#xf9;" horiz-adv-x="1148" d="M217 303l141 801q2 12 17 12h80q12 0 10 -12l-137 -780q-20 -113 26.5 -172.5t155.5 -59.5h115q106 0 173.5 58.5t86.5 162.5l139 791q2 12 16 12h78q14 0 12 -12l-190 -1079q-2 -14 -16 -15h-74q-6 0 -9 3t-3 10l4 14q2 16 6 34.5t9 36t7 23.5q-29 -47 -73 -78 q-84 -55 -181 -55h-147q-123 0 -195.5 89t-50.5 216zM659 1536q-2 6 1.5 11t11.5 5h71q10 0 17 -8l123 -241q8 -14 -11 -15h-55q-10 0 -14 8z" />
<glyph unicode="&#xfa;" horiz-adv-x="1148" d="M217 303l141 801q2 12 17 12h80q12 0 10 -12l-137 -780q-20 -113 26.5 -172.5t155.5 -59.5h115q106 0 173.5 58.5t86.5 162.5l139 791q2 12 16 12h78q14 0 12 -12l-190 -1079q-2 -14 -16 -15h-74q-6 0 -9 3t-3 10l4 14q2 16 6 34.5t9 36t7 23.5q-29 -47 -73 -78 q-84 -55 -181 -55h-147q-123 0 -195.5 89t-50.5 216zM688 1303l209 241q8 8 18 8h74q6 0 8 -5t-4 -11l-225 -240q-8 -8 -18 -8h-56q-18 0 -6 15z" />
<glyph unicode="&#xfb;" horiz-adv-x="1148" d="M217 303l141 801q2 12 17 12h80q12 0 10 -12l-137 -780q-20 -113 26.5 -172.5t155.5 -59.5h115q106 0 173.5 58.5t86.5 162.5l139 791q2 12 16 12h78q14 0 12 -12l-190 -1079q-2 -14 -16 -15h-74q-6 0 -9 3t-3 10l4 14q2 16 6 34.5t9 36t7 23.5q-29 -47 -73 -78 q-84 -55 -181 -55h-147q-123 0 -195.5 89t-50.5 216zM515 1275q-1 5 3 11l254 221q10 10 19 11h65q6 0 14 -11l174 -221q2 -6 -1 -11t-11 -5h-61q-6 0 -15 8l-122 139q-18 20 -21 37h-2q-8 -16 -35 -37l-172 -139q-10 -8 -18 -8h-62q-8 0 -9 5z" />
<glyph unicode="&#xfc;" horiz-adv-x="1148" d="M217 303l141 801q2 12 17 12h80q12 0 10 -12l-137 -780q-20 -113 26.5 -172.5t155.5 -59.5h115q106 0 173.5 58.5t86.5 162.5l139 791q2 12 16 12h78q14 0 12 -12l-190 -1079q-2 -14 -16 -15h-74q-6 0 -9 3t-3 10l4 14q2 16 6 34.5t9 36t7 23.5q-29 -47 -73 -78 q-84 -55 -181 -55h-147q-123 0 -195.5 89t-50.5 216zM569 1282l25 141q4 14 16 15h68q14 0 12 -15l-26 -141q-2 -14 -17 -14h-65q-14 0 -13 14zM891 1282l24 141q2 14 17 15h67q12 0 11 -15l-25 -141q-2 -14 -16 -14h-68q-12 0 -10 14z" />
<glyph unicode="&#xfd;" horiz-adv-x="991" d="M-18 -496l12 72q2 14 14 14h62q41 0 73.5 11.5t55 25t47 48t38 58t42.5 74.5l96 185l7 7l5 5q-18 -6 -20 6l-197 1102q-2 16 14 16h76q12 0 15 -12l163 -930q6 -45 4 -75q8 33 33 77l490 928q6 10 16 10l78 2q16 0 8 -16l-706 -1331q-74 -139 -154 -215t-195 -76h-67 q-12 0 -10 14zM606 1303l209 241q8 8 19 8h73q6 0 8.5 -5t-4.5 -11l-225 -240q-8 -8 -18 -8h-56q-18 0 -6 15z" />
<glyph unicode="&#xfe;" horiz-adv-x="1130" d="M82 -504l377 2134q2 14 16 15h80q14 0 10 -15l-96 -549q-4 -25 -20 -73q25 35 73 65q84 55 183 55h135q125 0 196.5 -89t48.5 -214l-92 -522q-23 -127 -125 -216t-227 -89h-135q-98 0 -164 55q-39 33 -51 66q0 -49 -4 -74l-97 -549q-2 -12 -16 -12h-82q-12 0 -10 12z M334 315q-18 -109 27 -166t149 -57h113q109 0 179 60.5t91 171.5l84 479q18 113 -31 172t-158 59h-112q-104 0 -170 -57t-84 -166z" />
<glyph unicode="&#xff;" horiz-adv-x="991" d="M-18 -496l12 72q2 14 14 14h62q41 0 73.5 11.5t55 25t47 48t38 58t42.5 74.5l96 185l7 7l5 5q-18 -6 -20 6l-197 1102q-2 16 14 16h76q12 0 15 -12l163 -930q6 -45 4 -75q8 33 33 77l490 928q6 10 16 10l78 2q16 0 8 -16l-706 -1331q-74 -139 -154 -215t-195 -76h-67 q-12 0 -10 14zM487 1282l25 141q4 14 16 15h68q14 0 12 -15l-26 -141q-2 -14 -17 -14h-65q-14 0 -13 14zM809 1282l25 141q2 14 16 15h68q12 0 10 -15l-25 -141q-2 -14 -16 -14h-68q-12 0 -10 14z" />
<glyph unicode="&#x152;" horiz-adv-x="1777" d="M211 291l143 823q23 121 124.5 206t221.5 85h1184q14 0 12 -14l-12 -70q-2 -14 -16 -14h-568q-23 0 -43 10q4 -20 0 -43l-77 -438q-4 -23 -15 -43q23 10 45 10h514q14 0 13 -15l-11 -63q-4 -14 -16 -14h-516q-20 0 -43 8q4 -18 0 -41l-96 -547q-4 -23 -15 -43 q25 10 47 10h613q14 0 10 -14l-12 -70q-2 -14 -17 -14h-1228q-121 0 -193 85t-49 206zM322 307q-16 -98 32 -153.5t148 -55.5h397q41 0 47 37l203 1141q4 33 -27 33h-405q-102 0 -170 -56.5t-86 -154.5z" />
<glyph unicode="&#x153;" horiz-adv-x="1779" d="M199 307l90 512q23 135 123 222t233 87h180q84 0 144.5 -36.5t87.5 -102.5q53 66 126.5 102.5t153.5 36.5h193q117 0 195.5 -83.5t58.5 -202.5l-47 -271q-2 -12 -15 -12h-645q-35 0 -47 10q6 -16 0 -47l-37 -205q-18 -106 30 -165.5t155 -59.5h139q102 0 167.5 56.5 t84.5 160.5v6q4 12 16 13h78q14 0 10 -13l-4 -24q-25 -121 -126 -207t-222 -86h-182q-80 0 -141.5 37t-90.5 102q-109 -139 -280 -139h-183q-133 0 -201.5 87t-43.5 222zM307 324q-41 -231 174 -232h142q215 0 256 232l84 479q41 231 -175 231h-139q-217 0 -258 -231z M1042 633q18 10 52 10h508q33 0 49 -10q-6 18 0 47l24 141q18 102 -30 157.5t-154 55.5h-150q-106 0 -172.5 -55t-85.5 -158l-24 -141q-6 -29 -17 -47z" />
<glyph unicode="&#x178;" horiz-adv-x="1042" d="M211 1386q-6 18 14 19h86q12 0 17 -10l268 -688q14 -33 16 -72q16 39 41 72l512 688q6 10 19 10h86q20 0 8 -19l-614 -823q-6 -8 -15 -14v-6v-6l-92 -523q-2 -14 -18 -14h-78q-16 0 -12 14l92 523q0 2 2 7l2 5q-6 6 -10 14zM565 1530l23 131q2 14 16 14h66q12 0 10 -14 l-23 -131q-2 -14 -16 -14h-66q-12 0 -10 14zM872 1530l25 131q2 14 14 14h66q14 0 12 -14l-24 -131q-2 -14 -15 -14h-65q-14 0 -13 14z" />
<glyph unicode="&#x2c6;" horiz-adv-x="813" d="M346 1275q-2 5 4 9l254 223q10 10 17 11h67q6 0 14 -11l172 -223q4 -4 1 -9t-11 -5h-61q-6 0 -15 8l-122 139q-20 20 -23 35q-8 -14 -35 -35l-174 -139q-10 -8 -16 -8h-62q-8 0 -10 5z" />
<glyph unicode="&#x2dc;" horiz-adv-x="956" d="M393 1284q20 74 76.5 123t124.5 49t127 -59q53 -49 92 -49q41 0 74 29.5t43 70.5q4 12 16 12h47q14 0 11 -12q-18 -74 -75 -123t-126 -49q-66 0 -127 59q-53 49 -90 49q-43 0 -76 -29.5t-43 -70.5q-4 -12 -14 -12h-50q-12 0 -10 12z" />
<glyph unicode="&#x2000;" horiz-adv-x="892" />
<glyph unicode="&#x2001;" horiz-adv-x="1784" />
<glyph unicode="&#x2002;" horiz-adv-x="892" />
<glyph unicode="&#x2003;" horiz-adv-x="1784" />
<glyph unicode="&#x2004;" horiz-adv-x="594" />
<glyph unicode="&#x2005;" horiz-adv-x="446" />
<glyph unicode="&#x2006;" horiz-adv-x="297" />
<glyph unicode="&#x2007;" horiz-adv-x="297" />
<glyph unicode="&#x2008;" horiz-adv-x="223" />
<glyph unicode="&#x2009;" horiz-adv-x="356" />
<glyph unicode="&#x200a;" horiz-adv-x="99" />
<glyph unicode="&#x2010;" horiz-adv-x="956" d="M268 563l13 60q2 14 14 14h549q14 0 10 -14l-10 -60q-2 -14 -15 -14h-548q-14 0 -13 14z" />
<glyph unicode="&#x2011;" horiz-adv-x="956" d="M268 563l13 60q2 14 14 14h549q14 0 10 -14l-10 -60q-2 -14 -15 -14h-548q-14 0 -13 14z" />
<glyph unicode="&#x2012;" horiz-adv-x="956" d="M268 563l13 60q2 14 14 14h549q14 0 10 -14l-10 -60q-2 -14 -15 -14h-548q-14 0 -13 14z" />
<glyph unicode="&#x2013;" horiz-adv-x="1327" d="M266 563l10 64q2 14 17 14h928q12 0 10 -14l-12 -64q-2 -14 -15 -14h-928q-12 0 -10 14z" />
<glyph unicode="&#x2014;" horiz-adv-x="1554" d="M266 563l10 64q2 14 17 14h1153q14 0 10 -14l-10 -64q-2 -14 -16 -14h-1154q-12 0 -10 14z" />
<glyph unicode="&#x2018;" horiz-adv-x="405" d="M334 1212l22 138q2 2 2 4v4l17 92q20 119 129 141h14q2 2 4 0t2 -6l-8 -41q0 -6 -8 -8h-4q-31 -8 -46.5 -28.5t-23.5 -73.5l-12 -70h43q12 0 10 -14l-24 -138q-2 -14 -17 -14h-90q-14 0 -10 14z" />
<glyph unicode="&#x2019;" horiz-adv-x="378" d="M317 1204l7 41q2 6 8 8h6q29 8 44 29t24 74l14 69h-43q-14 0 -12 15l24 137q2 14 17 14h90q14 0 12 -14l-25 -137q0 -2 -2 -4q2 -2 0 -4l-16 -93q-20 -119 -129 -141h-12q-4 0 -6.5 1t-0.5 5z" />
<glyph unicode="&#x201a;" horiz-adv-x="405" d="M82 -221l8 41q0 6 6 6l6 2q29 8 44.5 28.5t25.5 73.5l12 70h-43q-14 0 -10 14l25 138q2 14 16 14h90q14 0 10 -14l-22 -138q-2 -2 -2 -4v-4l-17 -92q-20 -119 -131 -141h-12q-2 -2 -4 0t-2 6z" />
<glyph unicode="&#x201c;" horiz-adv-x="694" d="M371 1210l22 140q2 2 2 4v2l17 94q20 119 131 141h12q2 0 4 -1t2 -5l-8 -41q0 -6 -6 -8h-6q-29 -8 -44.5 -28.5t-25.5 -73.5l-12 -72h43q14 0 10 -12l-23 -140q-4 -12 -16 -12h-92q-14 0 -10 12zM657 1210l25 140q2 2 2 4v2l16 94q20 119 129 141h15q2 0 4 -1t2 -5 l-8 -41q0 -6 -8 -8h-5q-31 -8 -46 -28.5t-23 -73.5l-12 -72h43q12 0 10 -12l-25 -140q-2 -12 -16 -12h-90q-14 0 -13 12z" />
<glyph unicode="&#x201d;" horiz-adv-x="667" d="M317 1204l7 41q2 6 8 6l6 2q29 8 44 29t24 74l14 69h-43q-14 0 -12 15l24 137q2 14 17 14h90q14 0 12 -14l-25 -137q0 -2 -2 -4q2 -2 0 -4l-16 -93q-20 -119 -129 -141h-12q-4 -2 -6.5 0t-0.5 6zM604 1204l8 41q2 6 9 6l6 2q29 8 44 29t23 74l13 69h-41q-14 0 -13 15 l25 137q2 14 16 14h90q14 0 13 -14l-25 -137q0 -2 -2 -4v-4l-16 -93q-20 -119 -129 -141h-13q-4 -2 -6 0t-2 6z" />
<glyph unicode="&#x201e;" horiz-adv-x="679" d="M82 -221l8 41q0 6 8 8h4q31 8 45.5 28.5t24.5 73.5l12 70h-43q-12 0 -10 14l25 138q2 14 16 14h90q14 0 10 -14l-22 -138q-2 -2 -2 -4v-4l-17 -92q-20 -119 -131 -141h-12q-2 -2 -4 0t-2 6zM356 -221l6 41q2 6 9 8h6q29 8 44 28.5t23 73.5l13 70h-41q-14 0 -13 14l25 138 q2 14 16 14h91q14 0 12 -14l-25 -138q0 -2 -2 -4v-4l-16 -92q-20 -119 -129 -141h-13q-4 -2 -6 0t0 6z" />
<glyph unicode="&#x2022;" horiz-adv-x="942" d="M326 635q18 98 99 168.5t177 70.5q98 0 155.5 -70.5t41.5 -168.5q-18 -98 -100.5 -168t-180.5 -70q-96 0 -152.5 70t-39.5 168z" />
<glyph unicode="&#x2026;" horiz-adv-x="1202" d="M123 14l22 138q4 14 17 14h92q14 0 10 -14l-24 -138q-2 -14 -15 -14h-92q-14 0 -10 14zM526 14l25 138q2 14 16 14h90q14 0 13 -14l-25 -138q-2 -14 -16 -14h-90q-14 0 -13 14zM938 14l25 138q2 14 16 14h92q12 0 10 -14l-24 -138q-2 -14 -17 -14h-90q-14 0 -12 14z" />
<glyph unicode="&#x202f;" horiz-adv-x="356" />
<glyph unicode="&#x2039;" horiz-adv-x="600" d="M252 553l10 63q2 8 12 19l263 223q6 4 10 1t4 -9l-12 -72q-2 -8 -13 -16l-164 -150q-18 -14 -20 -26.5t10 -28.5l113 -149q6 -8 4 -17l-12 -72q0 -8 -6.5 -11t-10.5 3l-182 226q-8 8 -6 16z" />
<glyph unicode="&#x203a;" horiz-adv-x="600" d="M252 319l12 72q2 8 10 17l166 149q16 16 18.5 28.5t-7.5 26.5l-113 150q-6 8 -6 16l14 72q0 6 5 9t9 -1l185 -223q8 -10 6 -19l-12 -63q0 -8 -11 -16l-264 -226q-6 -6 -10 -3t-2 11z" />
<glyph unicode="&#x205f;" horiz-adv-x="446" />
<glyph unicode="&#x20ac;" horiz-adv-x="1183" d="M72 547l10 57q2 12 14 12h191l32 179h-192q-12 0 -10 14l10 57q2 12 16 13h191l41 237q23 121 124 206t220 85h287q121 0 191.5 -85t49.5 -206l-16 -90q-2 -14 -17 -14h-79q-14 0 -13 14l13 74q18 98 -30 154.5t-151 56.5h-219q-100 0 -168.5 -56.5t-85.5 -154.5 l-39 -221h457q12 0 10 -13l-10 -57q-2 -14 -14 -14h-457l-33 -179h457q12 0 10 -12l-10 -57q-2 -12 -14 -12h-457l-39 -230q-18 -98 30 -154.5t150 -56.5h219q100 0 168 56.5t86 154.5l17 90q2 14 16 15h80q14 0 12 -15l-18 -106q-23 -121 -124 -206t-222 -85h-285 q-121 0 -191.5 85t-50.5 206l43 246h-190q-12 0 -10 12z" />
<glyph unicode="&#x2122;" horiz-adv-x="1775" d="M319 1395l7 39q4 14 20 14h504q8 0 12 -4t2 -10l-6 -39q-2 -12 -18 -13h-201h-14q0 -6 -2 -14l-125 -711q-2 -14 -19 -14h-45q-6 0 -11 4t-3 10l125 711q2 8 4 14h-14h-201q-6 0 -10.5 3.5t-4.5 9.5zM854 657l137 777q2 14 21 14h57q14 0 16 -10l154 -645q2 -12 4 -25 q6 12 14 25l381 645q6 10 19 10h59q6 0 10.5 -4t4.5 -10l-138 -777q-2 -14 -20 -14h-43q-8 0 -12.5 4t-1.5 10l104 596q2 16 8 37q-10 -16 -22 -35l-351 -600q-6 -8 -18 -8h-29q-14 0 -16 8l-141 598q-4 18 -9 37q-2 -20 -4 -37l-106 -596q-2 -14 -19 -14h-45q-6 0 -10 4 t-4 10z" />
<glyph unicode="&#x25fc;" horiz-adv-x="1130" d="M0 0v1130h1130v-1130h-1130z" />
</font>
</defs>
</svg>
