<?xml version="1.0" standalone="no"?>
<!DOCTYPE svg PUBLIC "-//W3C//DTD SVG 1.1//EN" "http://www.w3.org/Graphics/SVG/1.1/DTD/svg11.dtd" >
<svg xmlns="http://www.w3.org/2000/svg" xmlns:xlink="http://www.w3.org/1999/xlink" version="1.1">
<metadata></metadata>
<defs>
<font id="polarblack" horiz-adv-x="1118" >
<font-face units-per-em="2048" ascent="1638" descent="-410" />
<missing-glyph horiz-adv-x="636" />
<glyph unicode="&#xfb01;" horiz-adv-x="1388" d="M-12 870v228q0 35 32 35h109q55 0 72 -17q-16 23 -17 55v72q0 184 104.5 302t301.5 118h600q27 0 27 -27v-235q0 -35 -33 -35h-506q-154 0 -154 -127v-65q0 -35 -14 -58q14 16 76 17h655q12 0 20.5 -8.5t8.5 -20.5v-1075q0 -10 -8.5 -18.5t-20.5 -8.5h-283q-12 0 -20 8 t-8 19v807h-350q-18 0 -36 4t-26 7t-8 5q14 -29 14 -49v-774q0 -10 -8 -18.5t-20 -8.5h-283q-12 0 -20.5 8t-8.5 19v774q0 20 17 49q-2 -2 -9.5 -5t-26 -7t-36.5 -4h-109q-33 0 -32 34z" />
<glyph unicode="&#xfb02;" horiz-adv-x="1404" d="M-12 870v228q0 35 32 35h109q55 0 72 -17q-16 23 -17 55v72q0 184 104.5 301t301.5 119h117h2h10h2h555q10 0 10 -10v-279v-1345q0 -10 -8 -18.5t-21 -8.5h-282q-12 0 -20.5 8t-8.5 19v1337h-231h-4h-33q-154 2 -154 -127v-65q0 -35 -14 -58q14 16 76 17h180q33 0 33 -35 v-228q0 -35 -33 -34h-186q-18 0 -36 4t-26 7t-8 5q14 -29 14 -49v-774q0 -10 -8 -18.5t-20 -8.5h-283q-12 0 -20.5 8t-8.5 19v774q0 20 17 49q-2 -2 -9.5 -5t-26 -7t-36.5 -4h-109q-33 0 -32 34z" />
<glyph horiz-adv-x="0" />
<glyph horiz-adv-x="682" />
<glyph unicode="&#x9;" horiz-adv-x="636" />
<glyph unicode=" "  horiz-adv-x="636" />
<glyph unicode="&#x09;" horiz-adv-x="636" />
<glyph unicode="&#xa0;" horiz-adv-x="636" />
<glyph unicode="!" horiz-adv-x="628" d="M145 1497q-2 35 31 35h277q33 0 32 -35l-30 -1020q-2 -35 -33 -35h-213q-33 0 -33 35zM180 37v209q0 35 33 35h205q33 0 33 -35v-209q0 -33 -33 -33h-205q-33 0 -33 33z" />
<glyph unicode="&#x22;" horiz-adv-x="989" d="M125 1649q-4 33 33 32h223q35 0 33 -32l-37 -490q-4 -35 -33 -35h-149q-31 0 -33 35zM563 1649q-4 33 33 32h223q35 0 33 -32l-37 -490q-4 -35 -33 -35h-149q-31 0 -33 35z" />
<glyph unicode="#" horiz-adv-x="1558" d="M98 350v193q0 27 37 26h238l45 316h-217q-39 0 -39 26v195q0 27 39 27h252l39 262q6 23 34 22h181q33 0 38 -35l-38 -249h313l37 262q8 23 35 22h182q33 0 39 -35l-41 -249h188q37 0 37 -27v-195q0 -27 -37 -26h-227l-49 -314h211q39 0 39 -28v-193q0 -27 -39 -26h-250 l-43 -271q-8 -25 -35 -24h-160q-33 0 -39 34l37 261h-327l-43 -271q-6 -25 -35 -24h-160q-33 0 -39 34l37 261h-203q-37 0 -37 26zM616 571h324l45 314h-317z" />
<glyph unicode="$" horiz-adv-x="1193" d="M61 395v82q0 33 33 33h287q33 0 33 -33v-51q-2 -72 30.5 -101.5t96.5 -29.5h125q55 0 87.5 30.5t32.5 100.5v39q0 74 -90 102l-397 127q-113 33 -175.5 123t-62.5 189v28q0 162 119 280t285 122v235q0 35 33 35h213q33 0 32 -35v-237q166 -10 266.5 -126t100.5 -282v-27 q0 -33 -33 -32h-286q-33 0 -33 32v45q0 35 -30 58.5t-75 23.5h-159q-35 0 -57.5 -26.5t-22.5 -61.5v-14q0 -76 78 -102l399 -127q135 -47 190.5 -120t55.5 -206v-80q0 -166 -119 -282.5t-291 -120.5v-193q0 -33 -33 -33h-213q-33 0 -32 33v193q-164 10 -276 127.5 t-112 281.5z" />
<glyph unicode="%" horiz-adv-x="2402" d="M92 836v456q0 135 88 236q92 102 221 102h164q119 0 209 -90q100 -102 100 -248v-456q0 -137 -91 -236.5t-218 -99.5h-164q-127 0 -218 99t-91 237zM391 862q0 -47 17 -65q14 -17 53 -17h45q39 0 53 17q16 18 16 65v404q0 47 -16 65q-14 16 -53 17h-45q-39 0 -53 -17 q-16 -18 -17 -65v-404zM870 272l373 836q2 2 4 6q10 27 29 27h203q18 0 28.5 -10.5t3.5 -24.5l-372 -834q-2 -2 -4 -6q-10 -27 -31 -26h-203q-16 0 -27.5 9t-3.5 23zM1528 123v457q0 135 88 235q92 104 221 105h164q119 0 209 -93q100 -102 100 -247v-457q0 -137 -91 -236.5 t-218 -99.5h-164q-127 0 -218 99.5t-91 236.5zM1827 150q0 -47 16 -66q14 -14 53 -14h46q39 0 53 14q14 18 14 66v403q0 47 -14 65q-14 16 -53 17h-46q-39 0 -53 -17q-16 -18 -16 -65v-403z" />
<glyph unicode="&#x26;" horiz-adv-x="1552" d="M121 410v118q0 147 76 246q4 2 4 6t-4 8q-55 78 -56 240v78q0 180 117 300t289 120h158q174 0 290.5 -120t116.5 -300v-29q0 -27 -27 -26h-284q-25 0 -25 26v37q0 53 -33.5 84t-97.5 31h-39q-61 0 -95 -31t-34 -84v-104q0 -53 33 -84t96 -31h867q25 0 24 -27v-188 q0 -29 -24 -29h-181v-241q0 -178 -121.5 -300t-296.5 -122h-335q-174 0 -296 121.5t-122 300.5zM457 420q0 -72 31 -102.5t92 -32.5h251q61 2 92 32.5t31 102.5v231h-364q-68 0 -100.5 -31.5t-32.5 -111.5v-88z" />
<glyph unicode="'" horiz-adv-x="550" d="M131 1649q-2 33 33 32h223q37 0 33 -32l-37 -490q-2 -35 -33 -35h-149q-29 0 -33 35z" />
<glyph unicode="(" horiz-adv-x="630" d="M111 0v1073q0 217 117.5 347t322.5 132q14 0 23.5 -9t9.5 -23v-156q0 -14 -9.5 -23.5t-23.5 -9.5q-86 -4 -132 -69.5t-46 -188.5v-1073q0 -123 46 -187.5t132 -68.5q14 0 23.5 -9t9.5 -26v-153q0 -14 -9.5 -23.5t-23.5 -9.5q-205 2 -322.5 132t-117.5 345z" />
<glyph unicode=")" horiz-adv-x="630" d="M47 -291q0 16 9.5 25.5t23.5 9.5q86 4 133 68.5t47 187.5v1073q0 123 -47 188.5t-133 69.5q-14 0 -23.5 9.5t-9.5 23.5v156q0 14 9.5 23t25.5 9q205 -2 321.5 -132t116.5 -347v-1073q0 -215 -116.5 -345t-321.5 -132q-16 0 -25.5 9t-9.5 24v153z" />
<glyph unicode="*" horiz-adv-x="989" d="M102 1020q-20 33 11 47l127 74q10 4 25.5 9t25.5 7l12 2q-45 8 -65 19l-125 73q-29 16 -11 49l99 170q20 33 45 13l84 -66l57 -57q-14 59 -14 76v116q0 35 33 35h178q33 0 32 -35v-116l-14 -76q35 39 57 57l84 68q25 23 45 -12l99 -173q18 -31 -10 -47l-125 -75 q-8 -4 -24.5 -9.5t-29.5 -7.5l-12 -2q43 -8 64 -18l127 -74q31 -14 10 -47l-99 -172q-18 -31 -45 -10l-84 61l-57 57q14 -59 14 -75v-117q0 -33 -32 -33h-178q-33 0 -33 33v117q0 8 4 27.5t7 33.5l3 14l-9 -10q-9 -10 -24.5 -24.5t-25.5 -22.5l-82 -61q-27 -20 -45 10z" />
<glyph unicode="+" horiz-adv-x="1046" d="M92 590v194q0 29 27 29h287v287q0 29 24 28h184q27 0 27 -28v-287h287q27 0 26 -29v-194q0 -27 -26 -27h-287v-293q0 -29 -27 -28h-184q-25 0 -24 28v293h-287q-27 0 -27 27z" />
<glyph unicode="," horiz-adv-x="567" d="M139 37v223q0 35 33 35h225q31 0 31 -35v-223v-96q0 -98 -56.5 -159t-148.5 -63h-53q-18 0 -18 19v106q0 14 14 15h18q31 2 43.5 19.5t12.5 64.5v61h-68q-33 0 -33 33z" />
<glyph unicode="-" horiz-adv-x="790" d="M117 506v192q0 29 26 29h504q27 0 27 -29v-192q0 -27 -27 -27h-504q-27 0 -26 27z" />
<glyph unicode="." horiz-adv-x="565" d="M137 37v223q0 35 33 35h225q33 0 33 -35v-223q0 -33 -33 -33h-225q-33 0 -33 33z" />
<glyph unicode="/" horiz-adv-x="894" d="M-25 14l588 1428q10 23 39 22h285q33 0 33 -34l-611 -1426q-10 -25 -39 -24h-262q-33 0 -33 34z" />
<glyph unicode="0" horiz-adv-x="1224" d="M92 403v615q0 170 120 294t284 124h233q164 0 284 -124t120 -294v-615q0 -172 -120 -292.5t-284 -120.5h-233q-164 0 -284 120.5t-120 292.5zM442 438q0 -78 34 -110.5t104 -32.5h65q70 0 103.5 32.5t33.5 110.5v543q0 80 -33.5 112.5t-103.5 32.5h-65q-70 0 -104 -32.5 t-34 -112.5v-543z" />
<glyph unicode="1" horiz-adv-x="868" d="M20 1137v260q0 25 25 24h541q33 0 32 -32v-1047q0 -39 -26 -76q0 2 13 7.5t23.5 9.5t28 8t33.5 4h105q33 0 32 -33v-229q0 -33 -32 -33h-701q-33 0 -33 33v229q0 33 33 33h123q35 0 98 -27q-31 45 -30 74v739q0 14 28 66l-19 -11q-20 -10 -39 -17t-38 -7h-168 q-29 0 -29 25z" />
<glyph unicode="2" horiz-adv-x="1173" d="M29 1020v16q6 170 114.5 285t286.5 115h260q172 0 295 -122t123 -292v-68q0 -92 -61.5 -175t-167.5 -134l-451 -248q-35 -18 -35 -41v-22q0 -35 -20 -66q0 2 9 8.5t23.5 11.5t30.5 5h623q16 0 25.5 -9.5t9.5 -23.5v-227q0 -33 -35 -33h-987q-35 0 -35 33l2 286 q0 115 50 185.5t177 132.5l420 235q37 20 54.5 42t17.5 57v53q0 43 -23.5 72.5t-66.5 29.5h-179q-43 0 -73.5 -20.5t-34.5 -52.5v-33q0 -33 -33 -33h-287q-33 0 -32 33z" />
<glyph unicode="3" horiz-adv-x="1169" d="M27 389v25q0 33 32 32h287q33 0 33 -30v-47q4 -35 34.5 -55.5t73.5 -20.5h134q68 0 101.5 33.5t33.5 111.5v45q0 80 -33 112t-102 32h-99q-12 0 -12 12v211q0 10 12 10l78 2q63 0 97 30t34 79v41q0 53 -32.5 83.5t-98.5 30.5h-111q-43 0 -72.5 -19.5t-33.5 -53.5l-2 -33 q0 -31 -33 -31h-287q-33 0 -30 31v16q4 170 113.5 285t287.5 115h244q174 0 290.5 -115t116.5 -287v-43q0 -61 -25.5 -128.5t-60.5 -98.5q-6 -6 -14 -10q8 -3 14 -9q43 -39 77 -107.5t34 -131.5v-113q0 -170 -122 -286.5t-298 -116.5h-260q-178 0 -286.5 113.5t-114.5 285.5 z" />
<glyph unicode="4" horiz-adv-x="1226" d="M43 330v235q0 12 6 23l483 815q10 18 35 18h453q25 0 24 -24v-781q0 -27 -18 -59l8 5t20.5 9t26.5 4h88q33 0 33 -32v-207q0 -33 -33 -33h-82q-27 0 -57 19q16 -37 17 -60v-235q0 -27 -27 -27h-299q-27 0 -27 27v233q0 27 19 68q-37 -25 -62 -25h-583q-25 0 -25 27z M332 559q65 16 90 16h229q12 0 58 -18q-14 37 -15 55v435q0 23 11 81q-2 -2 -6.5 -17t-10.5 -30.5t-14 -27.5l-277 -439q-16 -27 -65 -55z" />
<glyph unicode="5" horiz-adv-x="1179" d="M47 389v25q0 33 33 32h287q33 0 32 -30v-43q4 -35 35 -55.5t74 -20.5h184q43 0 66.5 29.5t23.5 72.5v170q0 45 -23.5 74t-66.5 29l-145 2q-27 0 -47 -6l-49 -13q-39 -10 -60 -10h-241q-29 0 -29 35l-2 709q0 33 35 32h870q33 0 33 -32v-244q0 -12 -9.5 -22.5t-23.5 -10.5 h-508q-12 0 -26.5 4t-22.5 8t-16.5 10.5t-10.5 6.5l10 -11q9 -12 15 -27.5t6 -29.5v-125q0 -8 -5 -19t-12 -21l-8 -11l10 7q9 7 20 13.5t24 8.5l18 6q35 8 68 8h129q172 -2 295 -123t123 -291v-125q0 -168 -123 -289.5t-295 -121.5h-266q-178 0 -287 113.5t-115 285.5z" />
<glyph unicode="6" horiz-adv-x="1222" d="M92 410v616q0 168 123 289t295 121h217q178 0 286.5 -115t114.5 -285v-16q0 -31 -32 -31h-287q-33 0 -33 31v33q-8 74 -92 73h-152q-90 0 -90 -98v-110q0 -10 -3 -21.5t-6 -18t-8 -13.5l-5 -7q2 0 9 5t17.5 10.5t24.5 7.5l18 4q29 2 58 2h207q174 0 297 -122t123 -292 v-72q0 -168 -123 -289.5t-297 -121.5h-258q-182 0 -293 119.5t-111 300.5zM420 629q0 -2 5 -8.5t8 -11.5t7 -15t4 -21v-178q0 -45 31 -71.5t80 -26.5h178q43 0 65.5 29.5t22.5 72.5v113q0 102 -100 102h-170h-64l-22 -4q-10 0 -20.5 4t-16.5 8.5t-8 6.5z" />
<glyph unicode="7" horiz-adv-x="991" d="M20 1145v244q0 33 33 32h873q27 0 26 -24l-2 -226q0 -12 -6 -24l-438 -1127q-8 -20 -29 -20h-301q-12 0 -17 9t1 24l438 1036q6 16 32.5 48t37.5 42q-4 -2 -22.5 -13t-39 -22.5t-33.5 -11.5h-520q-33 0 -33 33z" />
<glyph unicode="8" horiz-adv-x="1226" d="M63 393v113q0 66 35 135.5t76 106.5q12 6 19 6q-6 2 -19 8q-35 27 -60.5 95.5t-25.5 133.5v43q-2 170 113.5 286t290.5 116h243q174 0 290 -116t114 -286v-43q0 -66 -26 -134.5t-60 -94.5q-8 -6 -17 -8q9 -2 17 -6q41 -37 75.5 -107t34.5 -135v-113q0 -170 -121.5 -286.5 t-296.5 -116.5h-264q-174 0 -296 116.5t-122 286.5zM414 438q0 -80 33.5 -112.5t101.5 -32.5h129q68 0 101.5 32.5t33.5 112.5v45q0 78 -34 111t-101 33h-129q-68 0 -101.5 -33t-33.5 -111v-45zM438 971q0 -49 34 -80t97 -31h88q63 0 97 31t34 80v41q0 53 -32.5 83.5 t-98.5 30.5h-88q-63 0 -97 -30.5t-34 -83.5v-41z" />
<glyph unicode="9" horiz-adv-x="1222" d="M51 930v92q0 170 123 292t295 122h258q182 0 292.5 -121t110.5 -299l3 -617q0 -170 -123 -289.5t-297 -119.5h-254q-178 0 -287 113.5t-115 285.5v6q0 33 31 33h289q33 0 33 -33v-22q8 -74 92 -76h190q88 0 88 100v90q0 14 29 66l-23 -13q-22 -14 -34 -18l-25 -4h-51 h-207q-172 0 -295 122t-123 290zM401 891q0 -102 101 -103h170q25 0 49 3l27 4q10 0 22 -4.5t23.5 -9.5t13.5 -5q-2 0 -6 7.5t-9.5 14.5t-8.5 16t-3 15v201q0 43 -31.5 69.5t-80.5 26.5h-176q-43 0 -67 -29.5t-24 -72.5v-133z" />
<glyph unicode=":" horiz-adv-x="565" d="M137 37v223q0 33 33 33h225q33 0 33 -33v-223q0 -33 -33 -33h-225q-33 0 -33 33zM137 766v223q0 35 33 35h225q33 0 33 -35v-223q0 -33 -33 -33h-225q-33 0 -33 33z" />
<glyph unicode=";" horiz-adv-x="567" d="M137 766v223q0 33 33 33h225q33 0 33 -33v-223q0 -33 -33 -33h-225q-33 0 -33 33zM139 37v223q0 35 33 35h225q31 0 31 -35v-223v-96q0 -98 -56.5 -159t-148.5 -63h-53q-18 0 -18 19v106q0 14 14 15h18q31 2 43.5 19.5t12.5 64.5v61h-68q-33 0 -33 33z" />
<glyph unicode="&#x3c;" horiz-adv-x="1077" d="M98 678q-16 10 0 20l854 541q14 8 23.5 3t9.5 -21v-258q0 -23 -16 -33l-365 -215q-16 -10 -35.5 -16.5t-35 -8.5t-17.5 -2q2 0 17.5 -2t35 -8t35.5 -16l365 -209q16 -8 16 -33v-258q0 -16 -9 -21.5t-24 2.5z" />
<glyph unicode="=" horiz-adv-x="1091" d="M92 379v194q0 27 27 27h856q25 0 24 -27v-194q0 -27 -24 -27h-856q-27 0 -27 27zM92 799v194q0 27 27 27h856q25 0 24 -27v-194q0 -27 -24 -27h-856q-27 0 -27 27z" />
<glyph unicode="&#x3e;" horiz-adv-x="1077" d="M92 162v258q0 25 17 33l362 209q18 10 37.5 16t35.5 8l15 2l-15 2q-16 2 -35.5 8.5t-37.5 16.5l-362 215q-16 10 -17 33v258q0 16 9.5 21t21.5 -3l854 -541q18 -10 0 -20l-854 -535q-12 -8 -21.5 -3t-9.5 22z" />
<glyph unicode="?" horiz-adv-x="1185" d="M92 1081v41q0 182 109.5 293t294.5 111h180q176 0 297 -111.5t121 -284.5v-65q0 -102 -62.5 -196.5t-173.5 -137.5l-133 -53q-90 -39 -90 -111l-6 -92q-2 -35 -33 -35h-207q-31 0 -33 35l-6 103q-6 129 45 214t170 136l103 45q76 35 75 110v52q0 39 -21.5 66.5 t-59.5 29.5h-158q-43 0 -75 -25.5t-32 -64.5v-60q0 -35 -32 -34h-240q-33 0 -33 34zM362 35v207q0 33 33 32h205q31 0 31 -32v-207q0 -35 -31 -35h-205q-33 0 -33 35z" />
<glyph unicode="@" horiz-adv-x="2058" d="M84 586q0 465 257 737t718 272q203 0 370.5 -63.5t289.5 -183t188.5 -302t66.5 -409.5q0 -170 -59.5 -317.5t-156.5 -232.5t-206 -85q-180 0 -211 168q-12 -16 -16 -20q-20 -53 -97 -100.5t-173 -47.5h-119q-170 0 -293 127t-123 305v264q0 176 118 302t273 126h64 q104 0 201 -90q18 -18 41 -47q-8 33 -13 66v32q0 12 9.5 19.5t23.5 7.5h260q33 0 33 -33v-725q0 -51 13 -73.5t44 -22.5q47 0 83 66.5t52.5 148.5t16.5 150q0 373 -175 558t-505 185q-346 0 -544 -210t-198 -572q0 -365 198 -576t544 -211q242 0 422 117q20 14 32 -4 l97 -150q14 -23 -6 -34q-227 -154 -541 -154q-209 0 -389 70.5t-310.5 199.5t-205 319.5t-74.5 422.5zM858 436q0 -80 33 -111.5t100 -31.5h56q68 0 100.5 31.5t32.5 111.5v250q0 82 -33 113.5t-100 31.5h-56q-68 0 -100.5 -31.5t-32.5 -113.5v-250z" />
<glyph unicode="A" horiz-adv-x="1398" d="M27 31l426 1370q6 20 28 20h434q25 0 31 -20l424 -1370q10 -31 -20 -31h-314q-25 0 -30 20l-60 244q-4 12 -4 24.5t2 26t2 17.5q-47 -18 -74 -19h-346q-27 0 -73 19q0 -4 1 -17.5t1 -26t-2 -24.5l-62 -244q-4 -20 -31 -20h-313q-29 0 -20 31zM510 571q55 14 82 15h215 q27 0 82 -15q-33 41 -41 70l-111 387q-6 27 -3 53.5t14 38.5q-18 -16 -31 -16h-35q-12 0 -31 16q8 -12 12.5 -38.5t-4.5 -53.5l-110 -387q-8 -29 -39 -70z" />
<glyph unicode="B" horiz-adv-x="1277" d="M135 33v1356q0 33 33 32h631q172 0 287.5 -112.5t115.5 -282.5v-39q0 -66 -25.5 -134.5t-60.5 -96.5q-4 -2 -8 -6q4 -2 8 -7q41 -37 74 -103.5t33 -127.5v-117q0 -168 -121 -281.5t-295 -113.5h-639q-33 0 -33 33zM467 266l4 3q4 3 11 7.5t16.5 8.5t19.5 6t21 2h184 q61 0 95 28.5t34 79.5v115q0 51 -33 79t-96 28h-184q-8 0 -15.5 2t-14.5 4t-13.5 5t-11.5 6t-8 5l-6 4l-3 2l2 -4l5 -10t5 -13.5t4 -15.5t2 -14v-270q0 -6 -2 -14.5t-4 -15.5t-5 -13.5t-4 -8.5zM467 834l3 1t6 3t8 5t11.5 6t13.5 5t14 3t16 1h184q63 0 96 28.5t33 80.5v53 q0 51 -33 79.5t-96 28.5h-184q-10 0 -20.5 2.5t-20 6.5t-15.5 8t-11 7l-5 3l2 -4l5 -10t5 -13.5t4 -15.5t2 -14v-211q0 -6 -2 -14.5t-4 -15.5t-5 -12t-4 -7z" />
<glyph unicode="C" horiz-adv-x="1200" d="M92 393v633q0 168 120 289t282 121h254q162 0 280.5 -121t118.5 -289v-74q0 -25 -27 -24h-299q-27 0 -26 24v39q0 76 -34 105.5t-99 29.5h-87q-66 0 -98.5 -29.5t-32.5 -105.5v-563q0 -74 33 -103.5t98 -29.5h89q66 0 99.5 29.5t33.5 103.5v39q0 27 26 27h297 q27 0 27 -27v-74q0 -166 -119 -284.5t-280 -118.5h-254q-164 0 -283 118.5t-119 284.5z" />
<glyph unicode="D" horiz-adv-x="1302" d="M135 27v1368q0 27 27 26h633q172 0 294.5 -119.5t122.5 -287.5v-604q0 -170 -122.5 -290t-294.5 -120h-633q-27 0 -27 27zM467 285l2 1l6 3t9 5t11.5 5t13.5 5t14 4t16 1h192q61 0 94 29t33 78v590q0 49 -32.5 77.5t-94.5 28.5h-192q-8 0 -15.5 2t-14.5 4t-13.5 5 t-11.5 6.5t-9 5.5t-6 4l-2 2l1 -2q1 -2 3 -6.5t4 -8.5t4 -9t3 -10t2 -11.5t1 -10.5v-745q0 -12 -18 -53z" />
<glyph unicode="E" d="M135 33v1356q0 33 33 32h833q27 0 27 -24v-258q0 -27 -27 -27h-462q-8 0 -15.5 2t-14.5 4t-13.5 5t-11.5 6.5t-9 5.5t-6 4l-2 2l1 -2q1 -2 3 -6.5t4 -8.5t4 -9t3 -10t2 -11.5t1 -10.5v-178q0 -4 -1 -10t-2 -11t-3 -10.5t-4 -8.5l-4 -6t-3 -5l-1 -2l2 1l6 3t9 5t11.5 6 t13.5 5t14 3.5t16 1.5h409q27 0 27 -27v-219q0 -27 -27 -27h-409q-8 0 -15.5 1t-14.5 4t-13.5 6t-11.5 6.5t-9 5.5l-6 3l-2 1q18 -41 18 -58v-235q0 -12 -18 -57l2 2q2 2 6 4t9 5t11.5 6t13.5 5l14 4t16 2h497q27 0 27 -26v-256q0 -27 -27 -27h-868q-33 0 -33 33z" />
<glyph unicode="F" horiz-adv-x="1017" d="M135 27v1362q0 33 33 32h833q27 0 27 -24v-258q0 -25 -27 -25h-462q-8 0 -15.5 1t-14.5 4t-13.5 5t-11.5 5.5t-9 6.5t-6 4l-2 1q18 -43 18 -58v-180q0 -6 -1 -11l-2 -10t-3 -10.5t-4 -9.5t-4 -7t-3 -4t-1 -2t2 1t6 4t9 5t11.5 5t13.5 5t14 4t16 1l368 -2q27 0 27 -24 v-219q0 -27 -27 -27h-368q-8 0 -15.5 1t-14.5 4t-13.5 5t-11.5 5.5t-9 6.5t-6 4l-2 1l1 -2q1 -2 3 -5.5t4 -7.5t4 -10t3 -11l2 -10t1 -12v-544q0 -27 -26 -27h-297q-27 0 -27 27z" />
<glyph unicode="G" horiz-adv-x="1249" d="M92 393v633q0 170 122 290t294 120h244q170 0 291.5 -118t121.5 -271v-41q0 -27 -26 -27h-297q-27 0 -27 27v16q0 104 -129 104h-117q-61 0 -94 -31.5t-33 -88.5v-578q0 -74 34 -103.5t99 -29.5h109q68 0 100.5 29.5t32.5 103.5v80q0 6 2 14t6 15.5t7.5 13.5t5.5 11l2 5 l-2 -2q-2 -2 -6.5 -4t-9.5 -5t-11 -6t-13 -5t-14.5 -4t-13.5 -2h-74q-27 0 -26 26v191q0 25 26 24h447q25 0 24 -24v-363q0 -168 -121.5 -287.5t-293.5 -119.5h-244q-172 0 -294 119.5t-122 287.5z" />
<glyph unicode="H" horiz-adv-x="1361" d="M131 27v1370q0 25 27 24h299q27 0 26 -24v-498q0 -4 -1 -10t-3 -11.5t-3 -10.5t-3 -8l-4 -6t-3 -5l-1 -2l2 1l6 3t9 5t11.5 6t12.5 5t14 3t17 1h290q6 0 14.5 -1t15.5 -3t13.5 -5t11.5 -6t8 -5t6 -3l3 -1l-2 2q-2 2 -3 5t-3 6t-4 8t-3 10.5t-2 11.5t-1 10v498q0 25 24 24 h299q27 0 27 -24v-1370q0 -27 -27 -27h-299q-25 0 -24 27v540q0 12 18 60l-3 -2t-6 -4.5t-8 -5.5t-11.5 -6t-13.5 -5t-15 -4t-15 -2h-290q-8 0 -15.5 2t-14.5 4t-13.5 5t-11.5 6t-9 5.5t-6 4.5l-2 2l1 -2q1 -2 3 -6.5t4 -8.5t3 -9t3 -10t3 -11.5t1 -12.5v-540q0 -27 -26 -27 h-299q-27 0 -27 27z" />
<glyph unicode="I" horiz-adv-x="618" d="M135 27v1370q0 10 8.5 17t20.5 7h291q12 0 21 -7t9 -17v-1370q0 -12 -9 -19.5t-21 -7.5h-291q-12 0 -20.5 7t-8.5 20z" />
<glyph unicode="J" horiz-adv-x="638" d="M8 -90q0 31 31 31h12q125 0 125 100v1352q0 33 33 32h287q33 0 32 -32v-1317q0 -170 -121.5 -290t-293.5 -120h-70q-35 0 -35 33v211z" />
<glyph unicode="K" horiz-adv-x="1239" d="M135 27v1370q0 25 27 24h295q27 0 26 -24v-361q0 -43 -14 -118q33 61 70 106l317 383q12 14 31 14h370q16 0 21.5 -9t-4.5 -21l-469 -545q-16 -18 -51 -31l3 -2t9 -5t11 -6t11.5 -8.5t8.5 -11.5l493 -751q8 -12 3 -21.5t-21 -9.5h-328q-20 0 -31 16l-344 531q-4 4 -5 13 t-1 16.5v14.5v7q-20 -43 -26 -51l-41 -51q-4 -4 -15.5 -6.5t-21.5 -1.5t-10 0t3 -2t9 -4t11 -6t8 -8t3 -9v-432q0 -27 -26 -27h-295q-27 0 -27 27z" />
<glyph unicode="L" horiz-adv-x="942" d="M135 33v1356q0 33 33 32h283q35 0 34 -32v-1039q0 -12 -18 -63q51 22 70 22h2h364q33 0 33 -30v-246q0 -33 -33 -33h-735q-33 0 -33 33z" />
<glyph unicode="M" horiz-adv-x="1732" d="M135 33v1356q0 33 33 32h330q29 0 39 -24l309 -783q8 -20 20 -96q12 78 21 96l309 783q10 25 37 24h332q33 0 32 -32v-1356q0 -33 -32 -33h-285q-33 0 -33 33l-2 649q0 12 3 34.5t7.5 43t8.5 38t4 19.5q0 -2 -9.5 -23.5t-21.5 -50t-16 -45.5l-248 -675q-8 -23 -31 -23 h-151q-25 0 -31 23l-248 675q-6 16 -17.5 45t-20.5 50.5t-9 23.5l5 -27q5 -28 11 -61t4 -49v-647q0 -33 -34 -33h-283q-33 0 -33 33z" />
<glyph unicode="N" horiz-adv-x="1409" d="M135 33v1356q0 33 33 32h274q27 0 41 -22l414 -717q6 -10 18.5 -30.5t22.5 -35t10 -16.5l-6 22q-6 21 -12 45.5t-6 34.5v687q0 33 32 32h283q35 0 35 -32v-1356q0 -33 -33 -33h-254q-27 0 -39 23l-438 765q-4 10 -17.5 31t-22.5 36t-11 17q0 -2 7 -22.5t13 -45t6 -34.5 v-737q0 -33 -34 -33h-283q-33 0 -33 33z" />
<glyph unicode="O" horiz-adv-x="1261" d="M92 393v633q0 168 120 289t282 121h276q162 0 281.5 -121t119.5 -289v-633q0 -166 -119.5 -284.5t-281.5 -118.5h-276q-164 0 -283 118.5t-119 284.5zM444 428q0 -74 32.5 -103.5t98.5 -29.5h111q68 0 100.5 29.5t32.5 103.5v563q0 76 -32.5 105.5t-100.5 29.5h-111 q-66 0 -98.5 -29.5t-32.5 -105.5v-563z" />
<glyph unicode="P" horiz-adv-x="1200" d="M131 33v1356q0 33 35 32h620q174 0 295 -113.5t121 -281.5v-145q0 -168 -120.5 -282t-295.5 -114h-235q-25 0 -86 29q18 -51 18 -72v-409q0 -33 -32 -33h-285q-35 0 -35 33zM465 754l2 1q2 1 6 4t9 5t11.5 5t13.5 6t14 4t16 1h184q61 0 94 29t33 78v119q0 49 -33 77.5 t-94 28.5h-184q-8 0 -15.5 2t-14.5 4t-13.5 5t-11.5 6.5t-9 5.5t-6 4l-2 2q18 -45 18 -60v-270q0 -6 -1 -11t-3 -11.5t-3 -11.5t-3 -9t-4 -7t-3 -5z" />
<glyph unicode="Q" horiz-adv-x="1263" d="M92 393v633q0 168 120 289t282 121h276q162 0 281.5 -121t119.5 -289v-633q0 -160 -111.5 -277.5t-264.5 -125.5h-17q-8 0 -18 4t-19.5 9t-9.5 7q18 -33 19 -53v-154q0 -33 -33 -32h-170q-33 0 -33 32v154q0 20 18 53q-2 -2 -11 -7t-19 -9t-19 -4h-14 q-156 10 -266.5 126.5t-110.5 276.5zM444 428q0 -74 32.5 -103.5t98.5 -29.5h111q68 0 100.5 29.5t32.5 103.5v563q0 76 -32.5 105.5t-100.5 29.5h-111q-66 0 -98.5 -29.5t-32.5 -105.5v-563z" />
<glyph unicode="R" horiz-adv-x="1263" d="M135 33v1356q0 33 33 32h620q174 0 295 -113.5t121 -281.5v-113q0 -113 -58.5 -204t-156.5 -136q-10 -4 -49 7l8 -8q8 -7 16.5 -15t12.5 -12l252 -506q8 -18 1 -28.5t-26 -10.5h-291q-27 0 -39 25l-219 462q-4 4 -5 11.5t-2 14.5t-2 14.5t-1 11.5v4l-2 -3q-2 -3 -4 -6.5 t-6 -6.5t-11.5 -5t-13.5 -2h-84q-4 0 -10 1t-11 2t-9.5 3t-8.5 4t-6 4.5t-4 3.5l-2 1q12 -41 12 -54v-452q0 -33 -32 -33h-285q-33 0 -33 33zM467 772l3 1q3 1 6 4t8 6t11.5 5.5t13.5 5.5t14 4t16 1h184q61 0 94 28.5t33 79.5v99q0 49 -33 77.5t-94 28.5h-184q-8 0 -15.5 2 t-14.5 4t-13.5 5t-11.5 6.5t-9 5.5t-6 4l-2 2q18 -47 18 -58v-254q0 -6 -1 -11l-2 -10t-3 -11t-4 -10.5t-4 -7.5t-3 -4z" />
<glyph unicode="S" horiz-adv-x="1185" d="M61 395v82q0 33 33 33h287q33 0 33 -33v-49v-8q0 -68 32 -96q34 -30 99 -29h108q127 0 127 133v35q0 74 -90 104l-391 127q-113 33 -175.5 123t-62.5 187v28q0 166 123 285t293 119h225q182 0 292 -118t110 -292v-27q0 -33 -33 -32h-287q-33 0 -32 32v41q0 39 -31 62.5 t-78 23.5h-145q-39 0 -61.5 -26.5t-22.5 -65.5v-10q0 -76 78 -102l393 -127q135 -47 190 -120t55 -206v-80q0 -168 -123.5 -285.5t-297.5 -117.5h-232q-172 0 -294 119.5t-122 289.5z" />
<glyph unicode="T" horiz-adv-x="952" d="M-25 1145v244q0 33 35 32h932q35 0 35 -32v-244q0 -33 -35 -33h-233q-6 0 -14.5 2t-15.5 4t-14.5 5t-12.5 6.5t-9 6.5t-6 4l-2 1q16 -41 16 -54v-1054q0 -33 -33 -33h-284q-33 0 -33 33v1054q0 16 18 54q-2 0 -4 -2t-6 -4t-9 -5.5t-12 -6.5t-14.5 -5t-15.5 -4t-14 -2 h-234q-35 0 -35 33z" />
<glyph unicode="U" horiz-adv-x="1298" d="M111 397v992q0 33 32 32h287q33 0 33 -32l-2 -961q0 -74 33.5 -103.5t99.5 -29.5h111q66 0 98.5 29.5t32.5 103.5v961q0 33 32 32h287q33 0 33 -32v-992q0 -168 -122 -287.5t-294 -119.5h-246q-172 0 -293.5 119.5t-121.5 287.5z" />
<glyph unicode="V" horiz-adv-x="1236" d="M-53 1384q-14 37 26 37h301q29 0 37 -24l281 -860q4 -10 7 -26.5t6 -32t5 -32t4 -28.5t3 -20l1 -9l2 9q1 8 2 20t4 28.5t5 32t6 31.5t6 27l281 860q8 25 39 24h301q39 0 26 -37l-489 -1357q-10 -27 -43 -27h-279q-35 0 -43 27z" />
<glyph unicode="W" horiz-adv-x="1910" d="M-49 1384q-10 37 29 37h301q31 0 36 -26l209 -858q6 -23 19 -150q12 129 18 150l217 858q6 27 37 26h277q31 0 36 -26l220 -860q4 -16 16 -148q14 131 18 148l209 860q6 27 37 26h301q39 0 29 -37l-418 -1357q-8 -27 -37 -27h-256q-29 0 -37 27l-237 804q-8 25 -19 134 q-12 -106 -20 -134l-238 -804q-8 -27 -36 -27h-256q-29 0 -37 27z" />
<glyph unicode="X" horiz-adv-x="1310" d="M-55 11.5q-6 11.5 6 27.5l477 688q2 2 6 5t9.5 6t9.5 5t7 3l3 2l-3 2q-3 2 -7 4t-9.5 4t-9.5 5t-6 5l-451 614q-12 16 -6 27.5t29 11.5h348q25 0 39 -20l238 -342q4 -6 8 -14.5t7 -16.5t5 -16t4 -15.5t3 -12.5t2 -9l1 -4l1 4q1 4 2 9t3.5 12.5t5.5 15.5t5 16t6 15.5 t8 13.5l238 344q14 20 41 20h348q20 0 26.5 -11t-6.5 -28l-450 -614q-2 -2 -6.5 -5t-10.5 -5t-10 -4l-8 -4l-4 -2l4 -2q4 -1 8 -3l10 -5t10.5 -6t6.5 -5l477 -688q12 -16 6 -27.5t-27 -11.5h-346q-27 0 -41 20l-266 388q-4 6 -8 14t-6 16t-5 16.5t-5.5 15.5t-3.5 13t-2 11 l-1 4l-1 -6q-1 -5 -3 -12t-4 -17t-6 -19.5t-8 -19.5t-8 -16l-267 -388q-14 -20 -41 -20h-346q-20 0 -26 11.5z" />
<glyph unicode="Y" horiz-adv-x="1107" d="M-78 1410.5q6 10.5 27 10.5h303q27 0 39 -22l235 -492q4 -8 7.5 -19t6.5 -22.5l6 -23t4 -19.5t2 -14l1 -6l1 6q1 6 3 14t4 19.5t5 21.5t6 21.5t8 19.5l237 494q10 23 39 22h303q18 0 25.5 -10t-0.5 -29l-434 -837q-6 -10 -29 -33l2 -2q8 -18 8 -29v-448q0 -33 -33 -33 h-290q-33 0 -33 33v448q0 10 10 29v2q-25 27 -27 33l-434 837q-8 18 -2 28.5z" />
<glyph unicode="Z" horiz-adv-x="1089" d="M10 39v215q0 25 15 45l583 768q8 12 27.5 24.5t34.5 21.5l16 9q-29 -10 -84 -10h-485q-33 0 -33 33v244q0 33 33 32h903q16 0 20 -7t4 -30l-2 -217q0 -23 -18 -51l-578 -758q-6 -8 -17 -18t-22.5 -18.5t-21.5 -15.5t-17 -11l-8 -4q2 2 19.5 5t44.5 8t45 5h567 q33 0 33 -33v-243q0 -14 -9 -23.5t-24 -9.5h-999q-18 0 -22.5 8t-4.5 31z" />
<glyph unicode="[" horiz-adv-x="616" d="M143 -444v1964q0 14 9.5 23t23.5 9h361q14 0 23 -9t9 -23v-154q0 -16 -9 -25.5t-23 -9.5h-134v-1589h134q14 0 23 -9t9 -24v-153q0 -16 -9 -25.5t-23 -9.5h-361q-14 0 -23.5 9t-9.5 26z" />
<glyph unicode="\" horiz-adv-x="894" d="M-25 1430q0 35 33 34h285q27 0 39 -22l588 -1428q0 -35 -33 -34h-264q-27 0 -39 24z" />
<glyph unicode="]" horiz-adv-x="616" d="M47 -291q0 14 9.5 23.5t23.5 9.5h133v1589h-133q-14 0 -23.5 9.5t-9.5 25.5v154q0 14 9.5 23t23.5 9h360q16 0 25.5 -9t9.5 -23v-1964q0 -16 -9 -25.5t-26 -9.5h-360q-14 0 -23.5 9t-9.5 26v153z" />
<glyph unicode="^" horiz-adv-x="1189" d="M-23.5 909.5q-5.5 8.5 5.5 22.5l538 854q12 16 23 0l532 -854q10 -14 5 -22.5t-21 -8.5h-258q-25 0 -35 14l-209 365q-10 18 -15 36.5t-7.5 34t-2.5 17.5q-2 -2 -4 -17.5t-7 -34t-15 -36.5l-215 -365q-10 -14 -35 -14h-258q-16 0 -21.5 8.5z" />
<glyph unicode="_" horiz-adv-x="884" d="M166 27v225q0 29 27 29h503q25 0 25 -29v-225q0 -27 -25 -27h-503q-27 0 -27 27z" />
<glyph unicode="`" horiz-adv-x="567" d="M34 1574.5q5 12.5 21 12.5h244q23 0 37 -22l180 -273q8 -10 2 -18t-18 -8h-168q-18 0 -33 14l-260 270q-10 12 -5 24.5z" />
<glyph unicode="a" horiz-adv-x="1134" d="M43 305v78q0 145 102.5 225t284.5 80h246q23 0 51 -14q-14 43 -14 51v49q0 78 -84 78h-148q-61 0 -61 -59v-13q0 -18 -23 -18h-276q-12 0 -20.5 8t-8.5 18v23q0 131 101.5 232.5t238.5 101.5h262q143 0 251 -112.5t108 -276.5v-727q0 -12 -8.5 -19.5t-20.5 -7.5h-248 q-33 0 -33 29v6q0 6 6.5 24.5t13.5 34.5l7 15q-4 -6 -43 -43q-31 -31 -95.5 -54.5t-119.5 -23.5h-121q-139 0 -243.5 89t-104.5 226zM381 371q0 -47 21.5 -68.5t89.5 -21.5h137q84 0 84 79v76q0 4 1 11.5t3 12.5l4 10t3 8l1 3q-25 -14 -49 -14h-213q-39 0 -60.5 -22.5 t-21.5 -57.5v-16z" />
<glyph unicode="b" horiz-adv-x="1187" d="M119 29v1609q0 10 8 18.5t20 8.5h283q12 0 20.5 -8t8.5 -19v-524q0 -10 -3 -22.5t-6.5 -23.5t-7.5 -21.5t-7 -17.5l-3 -7q4 8 43 45q31 31 97.5 54.5t132.5 23.5h47q158 0 267 -118t109 -296v-328q0 -176 -114.5 -294.5t-272.5 -118.5h-77q-104 0 -199 90q-29 27 -41 49 l1 -7t3 -14.5t4 -18.5t2 -21v-39q0 -10 -8 -18.5t-20 -8.5h-259q-12 0 -20 8t-8 19zM457 362q0 -81 80 -81h2h120q68 0 101 31.5t33 115.5v279q0 82 -33 113.5t-101 31.5h-118q-84 0 -84 -80v-410z" />
<glyph unicode="c" horiz-adv-x="1101" d="M59 424v285q0 182 122 309t296 127h166q94 0 176 -40t132 -100.5t78 -128t28 -128.5v-23q0 -10 -8.5 -18.5t-20.5 -8.5h-280q-12 0 -20.5 8.5t-8.5 18.5v14q0 47 -31 78t-98 31h-60q-66 0 -97.5 -32t-31.5 -114v-272q0 -82 32 -113.5t97 -31.5h60q68 0 98.5 30.5 t30.5 77.5v15q0 10 8 18t21 8h280q12 0 20.5 -8t8.5 -18v-23q0 -59 -28 -128t-78 -129t-132 -100t-176 -40h-166q-174 0 -296 127t-122 309z" />
<glyph unicode="d" horiz-adv-x="1189" d="M59 403v328q0 178 110 296t267 118h47q68 0 133.5 -23.5t96.5 -54.5q39 -37 45 -45q-2 0 -4 7t-6.5 17.5t-8.5 21.5t-6 23.5t-2 22.5v524q0 10 8.5 18.5t20.5 8.5h282q12 0 20.5 -8t8.5 -19v-1609q0 -10 -8 -18.5t-21 -8.5h-258q-12 0 -20 8t-8 19v39q0 10 1 21t3 18.5 t4 14.5l2 7q-12 -23 -41 -49q-94 -90 -199 -90h-80q-158 0 -272.5 118.5t-114.5 294.5zM397 428q0 -84 31.5 -115.5t99.5 -31.5h123q80 0 80 81v410q0 80 -82 80h-121q-68 0 -99.5 -32t-31.5 -113v-279z" />
<glyph unicode="e" d="M59 418v291q0 180 123 308t295 128h172q176 0 297 -129t121 -311v-209q0 -27 -27 -27l-585 -2q-47 0 -70 16q12 -25 12 -43v-47q0 -112 101 -112h2h141q68 0 70 55v12q2 20 26 21h283q29 0 22 -29v-8q-23 -141 -126 -242.5t-238 -101.5h-201q-174 0 -296 126t-122 304z M383 676q27 14 72 14h219q45 0 71 -14q-14 35 -14 55v43q0 37 -23.5 57.5t-62.5 20.5h-162q-39 0 -61.5 -20.5t-22.5 -57.5v-43q0 -20 -16 -55z" />
<glyph unicode="f" horiz-adv-x="811" d="M-12 870v228q0 35 32 35h109q55 0 72 -17q-16 23 -17 55v72q0 184 104.5 301t301.5 119h129q27 0 26 -27v-235q0 -37 -32 -35h-35h-5q-149 0 -149 -127v-65q0 -35 -14 -58q14 16 76 17h180q33 0 33 -35v-228q0 -35 -33 -34h-186q-18 0 -36 4t-26 7t-8 5q14 -29 14 -49 v-774q0 -10 -8 -18.5t-20 -8.5h-283q-12 0 -20.5 8t-8.5 19v774q0 20 17 49q-2 -2 -9.5 -5t-26 -7t-36.5 -4h-109q-33 0 -32 34z" />
<glyph unicode="g" horiz-adv-x="1175" d="M25 -88q0 68 33.5 132.5t80.5 88.5q-33 14 -57.5 54t-24.5 79v23q0 104 107 160q-107 98 -107 251v11v53q2 180 124 280.5t292 100.5h170q137 0 242 -64q12 -6 28 -26q8 18 19 24q86 55 194 56h39q12 0 20.5 -8.5t8.5 -20.5v-232q0 -10 -8 -18t-21 -8h-24q-31 0 -68 -4 q-6 0 -13 2t-13.5 4t-10.5 5t-7 5l-3 2q6 -6 15.5 -24.5t11.5 -28.5q8 -18 8 -45v-53q-4 -176 -126 -278.5t-292 -102.5h-217q-80 0 -80 -47v-13q-2 -47 80 -47l322 2q162 0 262 -84t100 -235v-84q0 -152 -115.5 -239t-281.5 -87h-305q-166 0 -274.5 82t-108.5 234v100z M311 -121v-10q0 -90 90 -90h340q43 0 66.5 24.5t23.5 67.5v10q0 88 -90 88h-344q-86 0 -86 -90zM395 707q0 -39 22.5 -59.5t61.5 -20.5h160q37 0 59.5 20.5t22.5 59.5v61q0 39 -22.5 59.5t-61.5 20.5h-160q-37 0 -59.5 -20.5t-22.5 -59.5v-61z" />
<glyph unicode="h" horiz-adv-x="1218" d="M119 29v1609q0 10 8 18.5t20 8.5h285q10 0 19.5 -8t9.5 -19l-2 -524q0 -10 -2 -22.5t-6.5 -23.5t-8.5 -21.5t-6 -17.5l-2 -7q6 12 43 45q31 31 96.5 54.5t133.5 23.5h47q158 0 265 -118t107 -296v-694q0 -35 -32 -35h-275q-35 0 -35 35l2 670q0 82 -32.5 113.5 t-100.5 31.5h-61q-68 0 -100.5 -32t-32.5 -113v-678q0 -10 -8.5 -18.5t-20.5 -8.5h-283q-12 0 -20 8t-8 19z" />
<glyph unicode="i" horiz-adv-x="577" d="M119 29v1075q0 12 8 20.5t20 8.5h283q12 0 20.5 -8.5t8.5 -20.5v-1075q0 -10 -8.5 -18.5t-20.5 -8.5h-283q-12 0 -20 8t-8 19zM119 1260v219q0 12 8 20t20 8h283q12 0 20.5 -8t8.5 -20v-219q0 -12 -8.5 -20.5t-20.5 -8.5h-283q-12 0 -20 8t-8 21z" />
<glyph unicode="j" horiz-adv-x="561" d="M-25 -231q0 20 27 26h10q92 12 92 142v1167q0 12 8.5 20.5t20.5 8.5h283q12 0 20 -8.5t8 -20.5v-1174q0 -178 -123.5 -306t-297.5 -128h-15q-33 0 -33 33v240zM104 1260v219q0 12 8.5 20t20.5 8h283q12 0 20 -8t8 -20v-219q0 -12 -8 -20.5t-20 -8.5h-283q-12 0 -20.5 8 t-8.5 21z" />
<glyph unicode="k" horiz-adv-x="1054" d="M119 29v1577q0 12 8 20t20 8h283q12 0 20.5 -8t8.5 -18v-697q0 -47 -25 -151q37 84 80 139l170 219q16 20 41 21h326q20 0 25 -13.5t-7 -29.5l-338 -402q-20 -23 -45 -32q27 -14 41 -35l358 -584q10 -16 3 -28.5t-27 -12.5h-299q-27 0 -41 25l-207 366q-2 6 -4 14.5 t-2 15.5v13v6q-4 -20 -16 -34l-31 -39q-4 -8 -21 -9h2q16 -4 17 -12v-319q0 -10 -8.5 -18.5t-20.5 -8.5h-283q-12 0 -20 8t-8 19z" />
<glyph unicode="l" horiz-adv-x="577" d="M119 29v1575q0 12 8 20t20 8h283q12 0 20.5 -8t8.5 -20v-1575q0 -10 -8.5 -18.5t-20.5 -8.5h-283q-12 0 -20 8t-8 19z" />
<glyph unicode="m" horiz-adv-x="1884" d="M119 29v1075q0 12 8 20.5t20 8.5h248q33 0 33 -29v-4q0 -10 -13.5 -44t-13.5 -36q14 20 43 47q31 31 95.5 54.5t119.5 23.5h91q74 0 143.5 -33t120.5 -80q4 -6 7 -12t2 -13.5t-2 -12.5t-2 -9l-1 -4q0 2 8 12.5t20.5 24.5t22.5 20q51 45 128 77q72 30 149 30h10h59 q158 -2 267.5 -119t109.5 -295v-702q0 -10 -8 -18.5t-21 -8.5h-282q-12 0 -20.5 8t-8.5 19v678q0 82 -34 113.5t-101 31.5h-105q-84 0 -84 -80l-2 -743q0 -10 -8 -18.5t-20 -8.5h-283q-12 0 -20.5 8t-8.5 19l2 678q0 82 -33.5 113.5t-101.5 31.5h-110q-84 0 -84 -80v-743 q0 -10 -8.5 -18.5t-20.5 -8.5h-283q-12 0 -20 8t-8 19z" />
<glyph unicode="n" horiz-adv-x="1220" d="M119 29v1075q0 12 8 20.5t20 8.5h248q33 0 33 -29v-4q0 -10 -7 -29.5t-13.5 -34t-6.5 -16.5q14 20 43 47q31 31 95.5 54.5t119.5 23.5h91q158 0 268 -117t110 -291v-708q0 -10 -8 -18.5t-20 -8.5h-283q-12 0 -20.5 8t-8.5 19v678q0 82 -32.5 113.5t-100.5 31.5h-112 q-84 0 -84 -80v-743q0 -10 -8.5 -18.5t-20.5 -8.5h-283q-12 0 -20 8t-8 19z" />
<glyph unicode="o" horiz-adv-x="1122" d="M59 420v289q0 182 122 309t296 127h168q174 0 296 -127t122 -309v-289q0 -180 -121 -306t-293 -126h-176q-172 0 -293 126t-121 306zM399 424q0 -82 32 -112.5t99 -30.5h62q68 0 99.5 30.5t31.5 112.5v278q0 82 -31.5 114t-99.5 32h-62q-68 0 -99.5 -32t-31.5 -114v-278z " />
<glyph unicode="p" horiz-adv-x="1189" d="M119 -504v1610q0 10 8 18.5t20 8.5h259q12 0 20 -8.5t8 -20.5v-39q0 -8 -2 -19.5t-4 -19.5t-3 -14l-1 -6q12 23 41 47q94 90 199 90h77q160 0 274.5 -118t114.5 -294v-328q0 -178 -110.5 -295.5t-265.5 -117.5h-49q-66 0 -132.5 22.5t-97.5 55.5q-39 35 -43 43l3 -7 q3 -6 7 -16t7.5 -22.5t6.5 -24.5t3 -21v-524q0 -12 -8.5 -20t-20.5 -8h-283q-12 0 -20 8t-8 20zM457 360q0 -79 84 -79h121q66 0 98.5 31.5t32.5 115.5v279q0 82 -33 113.5t-98 31.5h-123q-82 0 -82 -80v-412z" />
<glyph unicode="q" horiz-adv-x="1189" d="M59 403v328q0 176 115 294t272 118h70q104 0 199 -90q29 -25 41 -47l-2 6t-3 14t-3.5 19.5t-2.5 19.5v39q0 12 8.5 20.5t20.5 8.5h268q12 0 20.5 -8.5t8.5 -18.5v-1610q0 -12 -8 -20t-21 -8h-292q-12 0 -20.5 8t-8.5 20v524q0 8 3 20.5l6 25t7 22.5t7 16l4 7 q-4 -8 -46 -43q-29 -33 -95 -55.5t-132 -22.5h-39q-158 0 -267.5 117.5t-109.5 295.5zM397 428q0 -84 31.5 -115.5t99.5 -31.5h111q82 0 82 79v412q0 80 -80 80h-113q-68 0 -99.5 -32t-31.5 -113v-279z" />
<glyph unicode="r" horiz-adv-x="763" d="M119 29v1075q0 12 8 20.5t20 8.5h248q33 0 33 -29v-4q0 -8 -6 -26.5t-13.5 -35t-7.5 -18.5q16 20 43 47q31 31 95.5 54.5t119.5 23.5h82q12 0 20.5 -8.5t8.5 -20.5v-239q0 -12 -8 -19.5t-21 -7.5h-198q-84 0 -84 -80v-741q0 -10 -8.5 -18.5t-20.5 -8.5h-283q-12 0 -20 8 t-8 19z" />
<glyph unicode="s" horiz-adv-x="1056" d="M49 311v37q0 12 8.5 20.5t20.5 8.5h258q33 0 39 -23l4 -37q6 -36 60 -36h3h213q59 0 60 53v33q0 47 -43 59l-320 45q-143 14 -218 98t-75 213v33q0 139 95.5 234.5t238.5 95.5h252q139 0 236.5 -96.5t103.5 -227.5v-26q0 -12 -8 -19.5t-21 -7.5h-258q-33 0 -39 20l-4 27 q-4 37 -63 37h-178q-59 0 -60 -53v-23q0 -39 45 -51l320 -47q143 -16 216 -97t73 -208v-54q0 -139 -94.5 -235t-237.5 -96h-285q-139 0 -237.5 96t-104.5 227z" />
<glyph unicode="t" horiz-adv-x="1001" d="M57 872v226q0 35 33 35h184q41 0 72 -17q-16 25 -16 55v191q0 8 2 12t6 8t7 5.5t11.5 5.5t10.5 6l272 123q31 14 31 -21v-327q0 -37 -15 -58q16 16 76 17h180q33 0 33 -35v-226q0 -37 -33 -36h-186q-47 0 -70 16q14 -25 17 -49v-774q0 -10 -9.5 -18.5t-19.5 -8.5h-285 q-12 0 -20 8t-8 19v774q0 23 16 49q-31 -16 -72 -16h-184q-33 0 -33 36z" />
<glyph unicode="u" horiz-adv-x="1216" d="M92 397v707q0 12 8.5 20.5t20.5 8.5h282q12 0 20.5 -8.5t8.5 -20.5v-674q0 -82 33 -113.5t100 -31.5h109q86 0 86 80l-2 739q0 12 9 20.5t19 8.5h285q12 0 20.5 -8.5t8.5 -20.5v-1073q0 -12 -8.5 -20.5t-20.5 -8.5h-250q-33 0 -30 29v4q0 8 6 26.5t12 34.5l6 17 q-14 -18 -43 -45q-29 -31 -93.5 -54.5t-121.5 -23.5h-86q-156 0 -267.5 115.5t-111.5 291.5z" />
<glyph unicode="v" horiz-adv-x="968" d="M-35 1094q-6 16 1 28.5t26 12.5h260q29 0 37 -29l176 -569q6 -14 18 -150q12 127 19 150l178 569q8 29 37 29h260q18 0 25.5 -12.5t1.5 -28.5l-371 -1067q-8 -27 -35 -27h-227q-27 0 -35 27z" />
<glyph unicode="w" horiz-adv-x="1769" d="M-35 1094q-6 16 1 28.5t26 12.5h260q27 0 35 -27l186 -602q8 -27 14 -98q6 61 19 98l215 602q10 27 37 27h252q27 0 37 -27l215 -602q14 -35 18 -98q8 72 16 98l185 602q8 27 37 27h260q18 0 25 -12.5t-1 -28.5l-375 -1067q-10 -27 -36 -27h-224q-27 0 -37 27l-237 718 q-2 4 -8 52q-8 -51 -8 -52l-240 -718q-8 -27 -37 -27h-221q-29 0 -37 27z" />
<glyph unicode="x" horiz-adv-x="1030" d="M-50.5 12.5q-4.5 12.5 5.5 30.5l356 545q4 4 10.5 8t11.5 6l10 4l5 2l-8 3t-16.5 8.5t-12.5 11.5l-307 461q-12 16 -6 29.5t29 13.5h288q31 0 41 -23l136 -242q16 -31 24 -77q6 47 23 77l135 242q12 23 41 23h291q20 0 26 -13.5t-4 -29.5l-309 -461q-4 -6 -11.5 -11.5 t-16.5 -8.5l-9 -3l6 -2q6 -2 11.5 -4t11.5 -6t8 -8l356 -545q12 -18 6 -30.5t-26 -12.5h-293q-27 0 -41 23l-186 313q-12 23 -19 65q-8 -43 -20 -65l-187 -313q-12 -23 -41 -23h-291q-23 0 -27.5 12.5z" />
<glyph unicode="y" horiz-adv-x="1024" d="M-10 1094q-6 16 1 28.5t25 12.5h260q29 0 37 -29l174 -559q18 -55 23 -123q8 70 25 125l174 557q8 27 36 29h261q18 0 25 -12.5t1 -28.5l-444 -1280q-57 -168 -151.5 -243t-239.5 -75h-54q-31 0 -30 33v238q0 27 24 26h103q39 0 56 21.5t32 66.5l32 107q0 2 20 16l21 14 q-37 -6 -39 5z" />
<glyph unicode="z" horiz-adv-x="997" d="M47 43v231q0 6 4 13l434 489q33 33 109 70q-45 -8 -139 -8h-299q-33 0 -33 32v230q0 35 33 35h741q37 0 37 -41l-4 -207q0 -10 -6 -19l-422 -508q-31 -35 -105 -69q43 8 133 8h394q33 0 32 -35v-227q0 -35 -32 -35h-840q-37 0 -37 41z" />
<glyph unicode="{" horiz-adv-x="708" d="M33 446v179q0 16 9 25t24 9h16q100 2 130 56.5t30 187.5v381q0 72 30.5 128t79.5 88t104.5 47.5t112.5 15.5h76q14 0 23.5 -10.5t9.5 -24.5v-154q0 -16 -9.5 -25.5t-23.5 -9.5h-57q-88 0 -88 -75l2 -484q0 -131 -99 -215q-27 -23 -47 -28q20 -8 47 -31q96 -86 97 -213 l-2 -483q0 -78 86 -78h61q14 0 23.5 -9.5t9.5 -23.5v-156q0 -14 -9.5 -23t-23.5 -9h-78q-59 0 -114.5 15t-104.5 47t-78.5 87t-29.5 129v381q0 131 -30 186.5t-130 55.5h-14q-14 2 -23.5 11t-9.5 23z" />
<glyph unicode="|" horiz-adv-x="587" d="M119 -485v1996q0 25 26 25h299q25 0 25 -25v-1996q0 -27 -25 -27h-299q-27 0 -26 27z" />
<glyph unicode="}" horiz-adv-x="704" d="M33 -301q0 14 10 23.5t25 9.5h59q86 0 86 78v483q0 127 96 213q25 23 45 31q-20 6 -47 28q-98 84 -98 215l2 484q0 76 -88 75h-55q-14 0 -24.5 9.5t-10.5 25.5v154q0 14 10 24.5t25 10.5h73q57 0 112.5 -15.5t106 -47.5t80 -88t29.5 -128v-381q0 -133 29.5 -187 t132.5 -57h14q14 0 23.5 -9t9.5 -25v-179q0 -14 -9.5 -23t-23.5 -11h-14q-100 0 -130 -55.5t-30 -186.5v-381q0 -74 -29.5 -130t-79 -87t-105 -46t-114.5 -15h-75q-14 0 -24.5 9t-10.5 23v156z" />
<glyph unicode="~" horiz-adv-x="1140" d="M127 430q20 141 91 222t194 81q35 0 65.5 -11t120.5 -54q82 -41 113 -41q57 0 82 63q8 18 26 19h170q29 0 25 -29q-20 -139 -91 -220t-194 -81q-16 0 -34.5 3t-31 7t-35 13.5t-29.5 12.5t-31 15l-25 12q-84 43 -115 43q-57 0 -80 -63q-8 -18 -29 -19h-167q-29 0 -25 27z " />
<glyph unicode="&#xa1;" horiz-adv-x="628" d="M145 -313l31 1020q0 35 33 34h213q31 0 33 -34l30 -1020q0 -35 -32 -35h-277q-33 0 -31 35zM180 944v201q0 35 33 35h205q33 0 33 -35v-201q0 -35 -33 -35h-205q-33 0 -33 35z" />
<glyph unicode="&#xa2;" horiz-adv-x="1101" d="M59 424v285q0 174 112 297.5t275 136.5v243q0 14 9.5 24.5t23.5 10.5l195 -2q16 0 25.5 -9t9.5 -24v-245q104 -18 187 -86t122 -150t39 -157v-23q0 -10 -8.5 -18.5t-20.5 -8.5h-280q-12 0 -20.5 8.5t-8.5 18.5v14q0 47 -31 78t-98 31h-60q-66 0 -97.5 -32t-31.5 -114 v-272q0 -82 32 -113.5t97 -31.5h60q68 0 98.5 30.5t30.5 77.5v15q0 10 8 18t21 8h280q12 0 20.5 -8t8.5 -18v-23q0 -76 -39 -158t-122 -149.5t-187 -83.5v-283q0 -14 -9.5 -24.5t-25.5 -10.5h-195q-14 0 -23.5 9.5t-9.5 25.5v279q-164 12 -275.5 136t-111.5 298z" />
<glyph unicode="&#xa3;" horiz-adv-x="1384" d="M96 16v205q0 27 27 27h67q68 0 101 32.5t33 112.5v170h-191q-27 0 -27 27v194q0 29 27 29h191v191q0 178 119.5 306t283.5 128h203q164 0 282.5 -120t118.5 -296v-76q0 -27 -24 -26h-301q-25 0 -25 26v35q0 82 -34 114.5t-101 32.5h-35q-68 0 -101.5 -32.5t-33.5 -114.5 v-168h174q27 0 27 -29v-194q0 -27 -27 -27h-174v-160q0 -57 -25 -106h187q68 0 101.5 30.5t33.5 112.5v19q0 27 24 26h301q25 0 25 -26v-41q0 -176 -120 -303t-281 -127h-799q-27 0 -27 28z" />
<glyph unicode="&#xa4;" horiz-adv-x="1488" d="M121 1051q-18 18 0 39l131 137q18 18 37 0l143 -152q137 90 311.5 90t313.5 -90l141 152q20 18 39 0l129 -137q18 -20 0 -39l-143 -152q90 -145 90 -330q0 -184 -88 -327l133 -140q18 -18 0 -39l-129 -137q-18 -18 -37 0l-133 140q-139 -92 -315.5 -92.5t-313.5 92.5 l-133 -140q-19 -18 -37 0l-131 137q-18 20 0 39l133 140q-88 143 -88 327t90 330zM467 569q0 -127 78 -207.5t199.5 -80.5t198.5 80.5t77 207.5t-77 208t-198.5 81t-199.5 -81t-78 -208z" />
<glyph unicode="&#xa5;" horiz-adv-x="1107" d="M-78 1410.5q6 10.5 27 10.5h303q27 0 39 -22l235 -492q12 -27 23 -84h8q10 57 23 82l237 494q10 23 39 22h303q18 0 25.5 -10t-0.5 -29l-291 -559h94q27 0 27 -26v-195q0 -27 -27 -27h-223l-14 -30q-6 -10 -29 -33l2 -2q8 -18 8 -29v-37h256q27 0 27 -26v-195 q0 -27 -27 -26h-256v-164q0 -33 -33 -33h-290q-33 0 -33 33v164h-256q-27 0 -27 26v195q0 27 27 26h256v37q0 10 10 29v2q-25 27 -27 33l-16 30h-223q-27 0 -27 27v195q0 27 27 26h94l-289 559q-8 18 -2 28.5z" />
<glyph unicode="&#xa6;" horiz-adv-x="587" d="M119 297q0 27 26 27h299q25 0 25 -27v-782q0 -27 -25 -27h-299q-27 0 -26 27v782zM119 729v782q0 27 26 27h299q25 0 25 -27v-782q0 -27 -25 -27h-299q-27 0 -26 27z" />
<glyph unicode="&#xa7;" horiz-adv-x="1335" d="M127 27q0 35 33 34h286q33 0 33 -34v-56q-2 -76 32 -107.5t97 -31.5h129q55 0 89 34t34 105v45q0 80 -92 111l-401 135q-113 35 -176.5 131t-63.5 199v29q0 131 80 237q-80 98 -80 215v27q0 176 123 301t295 125h231q182 0 293 -125t111 -309v-29q0 -35 -33 -35h-287 q-33 0 -33 35v47q0 39 -30.5 63.5t-75.5 24.5h-160q-37 0 -59.5 -27.5t-22.5 -66.5v-10q0 -82 80 -111l404 -135q135 -49 191 -127t56 -219v-88q0 -102 -45 -191q45 -76 45 -200v-89q0 -180 -124.5 -305t-299.5 -125h-241q-174 0 -296 127t-122 308v88zM479 612 q0 -82 80 -108l256 -92q19 -7 37 -15q8 25 8 56v45q0 78 -92 110l-256 88q-33 -27 -33 -71v-13z" />
<glyph unicode="&#xa8;" horiz-adv-x="917" d="M96 1303v206q0 35 33 35h205q31 0 31 -35v-206q0 -33 -31 -33h-205q-33 0 -33 33zM553 1303v206q0 35 31 35h204q33 0 33 -35v-206q0 -33 -33 -33h-204q-31 0 -31 33z" />
<glyph unicode="&#xa9;" horiz-adv-x="1449" d="M104 876.5q0 280.5 176.5 465t444.5 184.5t444.5 -184.5t176.5 -465t-176.5 -465t-444.5 -184.5t-444.5 184.5t-176.5 465zM221 876.5q0 -231.5 140.5 -380t363.5 -148.5t363.5 148.5t140.5 380t-140.5 380t-363.5 148.5t-363.5 -148.5t-140.5 -380zM387 776v197 q0 121 82 206t199 85h110q106 0 185 -75t92 -183q4 -25 -21 -25h-184q-18 0 -23 23q-12 63 -86 63h-39q-45 0 -67.5 -22.5t-22.5 -77.5v-187q0 -55 22.5 -76.5t67.5 -21.5h39q39 0 58.5 13.5t27.5 43.5q4 25 23 25h184q25 0 21 -25q-14 -109 -92 -180.5t-187 -71.5h-110 q-117 0 -198 84t-81 205z" />
<glyph unicode="&#xaa;" horiz-adv-x="839" d="M43 903v55q0 102 72.5 160t201.5 58h175q16 0 36 -13q-10 31 -10 37v35q0 55 -61 55h-105q-43 0 -43 -43v-8q0 -12 -14 -12h-197q-20 0 -20 18v17q0 92 71.5 163.5t169.5 71.5h185q102 0 178 -80t76 -194v-516q0 -18 -21 -19h-176q-23 0 -22 21v4q0 4 5 17t9 24.5t6 11.5 q-4 -4 -33 -31q-20 -23 -66 -39t-85 -16h-86q-98 0 -172 63.5t-74 159.5zM63 446v134q0 20 21 20h633q20 0 20 -20v-134q0 -18 -20 -18h-633q-20 0 -21 18zM283 950q0 -33 15 -48t64 -15h97q59 0 59 55v53q0 4 1 9.5t2 8.5t2 7t2 6l1 2q-16 -10 -34 -10h-152 q-27 0 -42 -15.5t-15 -41.5v-11z" />
<glyph unicode="&#xab;" horiz-adv-x="1103" d="M135 479v236q0 23 21 43l270 256q8 8 17.5 2t9.5 -21v-239q0 -16 -17 -35l-110 -113q-6 -6 -6.5 -12t6.5 -12l110 -113q16 -18 17 -35v-239q0 -14 -9.5 -20.5t-17.5 1.5l-270 256q-20 20 -21 45zM668 479v236q0 23 22 43l268 256q10 8 19.5 2t9.5 -21v-239q0 -16 -18 -35 l-111 -113q-6 -6 -6 -12t6 -12l111 -113q16 -18 16 -35v-239q0 -14 -8 -20.5t-19 1.5l-268 256q-23 20 -22 45z" />
<glyph unicode="&#xac;" horiz-adv-x="1349" d="M133 641v207q0 35 33 35h1026q33 0 33 -35v-559q0 -35 -33 -35h-213q-33 0 -33 35v309q0 8 -8 8h-772q-33 0 -33 35z" />
<glyph unicode="&#xad;" horiz-adv-x="741" d="M92 506v192q0 29 27 29h504q27 0 26 -29v-192q0 -27 -26 -27h-504q-27 0 -27 27z" />
<glyph unicode="&#xae;" horiz-adv-x="1077" d="M117 1278.5q0 191.5 119.5 317.5t302 126t302.5 -126t120 -317.5t-120 -316t-302.5 -124.5t-302 124.5t-119.5 316zM197 1279q0 -157 95 -257t245.5 -100t246 100t95.5 257t-95.5 258t-246 101t-245.5 -101t-95 -258zM367 1047v460q0 10 10 11h203q55 0 94 -39t39 -95 v-38q0 -84 -72 -117q-4 -2 -2 -6l82 -174q6 -12 -8 -13h-95q-8 0 -12 8l-76 164q0 4 -4 4h-41q-4 0 -4 -6v-159q0 -10 -12 -11h-92q-10 0 -10 11zM481 1313q0 -4 4 -4h72q41 0 41 43v14q0 45 -41 45h-72q-4 0 -4 -6v-92z" />
<glyph unicode="&#xaf;" horiz-adv-x="886" d="M115 1303v143q0 35 32 35h592q33 0 33 -35v-143q0 -33 -33 -33h-592q-33 0 -32 33z" />
<glyph unicode="&#xb0;" horiz-adv-x="806" d="M104 1225v59q0 123 84 210t203 87h25q119 0 201.5 -87t82.5 -210v-59q0 -123 -82.5 -210t-201.5 -87h-25q-119 0 -203 87t-84 210zM311 1243q0 -43 23.5 -69.5t62.5 -26.5h11q39 0 62.5 26.5t23.5 69.5v23q0 41 -23.5 67.5t-62.5 26.5h-11q-39 0 -62.5 -26.5t-23.5 -67.5 v-23z" />
<glyph unicode="&#xb1;" horiz-adv-x="1126" d="M92 934v194q0 27 27 27h287v289q0 27 24 26h184q27 0 27 -26v-289h287q27 0 26 -27v-194q0 -27 -26 -27h-287v-295q0 -27 -27 -26h-184q-25 0 -24 26v295h-287q-27 0 -27 27zM127 211v195q0 27 27 26h856q25 0 24 -26v-195q0 -27 -24 -27h-856q-27 0 -27 27z" />
<glyph unicode="&#xb2;" horiz-adv-x="903" d="M29 1296v13q4 137 86 227q86 96 221 96h182q131 0 225 -100q94 -98 95 -234v-53q0 -78 -49 -145.5t-127 -108.5l-316 -184q-6 -4 -8 -4v-6v-9v-8q2 2 6 2h432q23 0 37 -15t14 -36v-170q0 -25 -14 -39t-37 -14l-692 2q-23 0 -36 13.5t-13 37.5v213q0 94 41 152.5 t133 107.5l295 176q35 20 35 50v38q0 23 -11 37q-12 12 -32 13h-125q-35 0 -41 -33v-21q-2 -23 -15.5 -36t-35.5 -13h-201q-25 0 -39 17q-10 14 -10 34z" />
<glyph unicode="&#xb3;" horiz-adv-x="899" d="M27 823v21q0 23 13 37t36 14h200q23 0 37.5 -14.5t14.5 -36.5v-25q6 -39 43 -39h118q47 0 48 56v84q0 55 -48 55h-88q-16 0 -26 10t-10 25v139q0 16 10 26.5t26 10.5h74q23 0 34 13t11 32v65q0 49 -47 50h-94q-43 0 -49 -41v-11q0 -23 -14.5 -37t-36.5 -14h-201 q-23 0 -36 14.5t-13 36.5v13q4 137 86 227q86 96 223 96h170q131 0 221 -90q92 -94 92 -235l-2 -31q0 -98 -51 -170q-4 -6 -4 -8t4 -4q70 -84 70 -181v-84q0 -137 -93.5 -232t-228.5 -95h-180q-137 0 -221 93t-88 230z" />
<glyph unicode="&#xb4;" horiz-adv-x="569" d="M52.5 1274q-5.5 8 0.5 18l183 273q14 23 34 22h244q16 0 22.5 -12t-6.5 -25l-258 -270q-14 -14 -34 -14h-166q-14 0 -19.5 8z" />
<glyph unicode="&#xb5;" horiz-adv-x="1245" d="M119 -455v1555q0 33 33 33h270q35 0 35 -33v-676q0 -82 32.5 -113.5t100.5 -31.5h61q70 0 102.5 31.5t32.5 113.5v676q0 18 6.5 25.5t26.5 7.5h275q33 0 32 -33v-1065q0 -16 -9 -25.5t-23 -9.5h-275q-33 0 -33 27q0 10 4.5 23t8.5 23.5t4 12.5q-27 -37 -37 -45 q-55 -53 -156 -53h-57q-43 2 -68.5 19.5t-44.5 43.5q0 -2 4.5 -13t8.5 -25.5t4 -26.5v-441q0 -18 -7.5 -25t-25.5 -7h-272q-33 0 -33 32z" />
<glyph unicode="&#xb6;" horiz-adv-x="1480" d="M96 825v441q0 113 77 192.5t183 79.5h914q14 0 23.5 -9t9.5 -26v-1960q0 -14 -9.5 -23t-23.5 -9h-197q-14 0 -23.5 9t-9.5 23v1667h-188v-1667q0 -14 -10.5 -23t-24.5 -9h-194q-14 0 -23.5 9t-9.5 23v1010h-234q-106 0 -183 80t-77 192z" />
<glyph unicode="&#xb7;" horiz-adv-x="565" d="M137 428v223q0 33 33 33h225q33 0 33 -33v-223q0 -33 -33 -33h-225q-33 0 -33 33z" />
<glyph unicode="&#xb8;" horiz-adv-x="616" d="M100 -168l90 160q2 2 6.5 9t5.5 10t5 5t10 2h129q12 0 22.5 -8t2.5 -18l-41 -64h41q72 0 123 -53t51 -129v-47q0 -76 -51.5 -133.5t-122.5 -57.5h-242q-27 0 -27 29v94q0 27 27 27h160q31 0 46 13.5t18 27.5t3 41q-2 63 -67 63h-162q-14 0 -23.5 8.5t-3.5 20.5z" />
<glyph unicode="&#xb9;" horiz-adv-x="796" d="M20 563v170q0 23 13.5 37t36.5 14h151q23 0 33 -4q-4 10 -4 33v492q0 31 4 45q-12 -10 -43 -11h-141q-47 0 -47 47v193q0 18 12 31.5t33 13.5h419q23 0 37.5 -14.5t14.5 -36.5v-758q0 -23 -9 -35q12 4 39 4h138q23 0 36 -14t13 -37v-170q0 -23 -13.5 -37t-35.5 -14h-637 q-23 0 -36.5 14.5t-13.5 36.5z" />
<glyph unicode="&#xba;" horiz-adv-x="829" d="M59 983v207q0 127 86 217t209 90h121q123 0 209 -90t86 -217v-207q0 -127 -86 -215t-207 -88h-125q-121 0 -207 88t-86 215zM100 446v134q0 20 21 20h612q18 0 19 -20v-134q0 -18 -19 -18h-612q-20 0 -21 18zM301 987q0 -57 21.5 -79.5t70.5 -22.5h43q49 0 70.5 22.5 t21.5 79.5v197q0 59 -21.5 81.5t-70.5 22.5h-43q-49 0 -70.5 -22.5t-21.5 -81.5v-197z" />
<glyph unicode="&#xbb;" horiz-adv-x="1124" d="M135 197v239q0 16 17 35l110 113q8 6 8 12t-8 12l-110 113q-16 18 -17 35v239q0 14 9.5 20.5t17.5 -1.5l270 -256q20 -20 21 -43v-236q0 -25 -21 -45l-270 -256q-8 -8 -17.5 -1.5t-9.5 20.5zM688 197v239q0 16 19 35l110 113q6 6 6 12t-6 12l-110 113q-18 18 -19 35v239 q0 14 9.5 20.5t19.5 -1.5l268 -256q23 -20 23 -43v-236q0 -25 -23 -45l-268 -256q-10 -8 -19.5 -1.5t-9.5 20.5z" />
<glyph unicode="&#xbc;" horiz-adv-x="2211" d="M25 563v170q0 23 14 37t37 14h149q23 0 33 -4q-4 10 -4 33v492q0 31 6 45q-14 -10 -43 -11h-143q-47 0 -47 47v193q0 18 13 31.5t32 13.5h420q23 0 37 -14.5t14 -36.5v-758q0 -23 -8 -35q14 4 38 4h138q23 0 36 -14t13 -37v-170q0 -23 -13.5 -37t-35.5 -14h-635 q-23 0 -37 14.5t-14 36.5zM821 272l375 836q0 2 2 6q12 27 31 27h203q18 0 28 -10.5t4 -24.5l-374 -834q0 -2 -3 -6q-12 -27 -30 -26h-203q-16 0 -27.5 9t-5.5 23zM1331 68v176q0 14 8 30l338 607q14 27 47 26h318q20 0 32.5 -12t12.5 -33v-565q0 -16 -4 -23q8 4 22 5h41 q23 0 37.5 -14.5t14.5 -37.5v-155q0 -23 -14.5 -37.5t-37.5 -14.5h-43q-12 0 -18 3q2 -4 2 -17v-164q0 -20 -12.5 -33.5t-32.5 -13.5h-209q-20 0 -32.5 13.5t-12.5 33.5v164q0 12 2 19q-8 -4 -18 -5h-396q-20 0 -32.5 13.5t-12.5 34.5zM1628 274q8 4 25 5h114q14 0 23 -5 q-2 8 -2 21v203v39q-6 -16 -16 -37l-125 -201q-10 -16 -19 -25z" />
<glyph unicode="&#xbd;" horiz-adv-x="2336" d="M25 563v170q0 23 14 37t37 14h149q23 0 33 -4q-4 10 -4 33v492q0 31 6 45q-14 -10 -43 -11h-143q-47 0 -47 47v193q0 18 13 31.5t32 13.5h420q23 0 37 -14.5t14 -36.5v-758q0 -23 -8 -35q14 4 38 4h138q23 0 36 -14t13 -37v-170q0 -23 -13.5 -37t-35.5 -14h-635 q-23 0 -37 14.5t-14 36.5zM821 272l375 836q0 2 2 6q12 27 31 27h203q18 0 28 -10.5t4 -24.5l-374 -834q0 -2 -3 -6q-12 -27 -30 -26h-203q-16 0 -27.5 9t-5.5 23zM1509 582v12q4 137 86 227q86 96 222 97h182q133 0 227 -101q92 -98 92 -233v-54q0 -78 -49 -145.5 t-125 -108.5l-317 -184q-6 -4 -8 -4v-6v-8v-8q2 2 8 2h432q20 0 34.5 -15.5t14.5 -36.5v-172q0 -23 -13.5 -37t-35.5 -14l-692 2q-23 0 -37 13.5t-14 37.5v213q0 94 40.5 152.5t133.5 107.5l295 177q35 20 34 49v39q0 23 -10 37q-12 12 -33 12h-125q-35 0 -41 -35v-18 q0 -23 -14 -36.5t-37 -13.5h-200q-25 0 -37 17q-12 14 -13 35z" />
<glyph unicode="&#xbe;" horiz-adv-x="2412" d="M29 823v21q0 23 13 37t36 14h201q23 0 37 -14.5t14 -36.5v-25q6 -39 43 -39h119q47 0 47 56v84q0 55 -47 55h-89q-16 0 -26 10t-10 25v139q0 16 10 26.5t26 10.5h74q20 0 32.5 13t12.5 32v65q0 49 -47 50h-94q-43 0 -49 -41v-11q0 -23 -14.5 -37t-36.5 -14h-201 q-23 0 -36 14.5t-13 36.5v13q4 137 86 227q86 96 223 96h170q131 0 221 -90q92 -94 90 -235v-31q0 -98 -51 -170q-4 -6 -4 -8t4 -4q70 -84 70 -181v-84q0 -137 -93.5 -232t-228.5 -95h-180q-137 0 -221 93t-88 230zM961 272l372 836q2 2 4 6q10 27 29 27h203 q18 0 28.5 -10.5t4.5 -24.5l-375 -834q0 -2 -2 -6q-12 -27 -31 -26h-203q-16 0 -27.5 9t-2.5 23zM1468 68v176q0 14 9 28l338 609q14 27 47 26h317q20 0 32.5 -12t12.5 -33v-565q0 -16 -2 -23q6 4 23 5h41q20 0 34.5 -14.5t14.5 -37.5v-155q0 -23 -13.5 -37.5t-35.5 -14.5 h-45q-12 0 -19 3q2 -4 2 -17v-164q0 -20 -12 -33.5t-33 -13.5h-209q-20 0 -32.5 13.5t-12.5 33.5v164q0 12 2 19q-6 -4 -18 -5h-396q-20 0 -32.5 13.5t-12.5 34.5zM1765 274q10 4 25 5h117q12 0 20 -5q-2 8 -2 21v203q0 20 2 39q-8 -16 -18 -37l-125 -201q-10 -16 -19 -25z " />
<glyph unicode="&#xbf;" horiz-adv-x="1185" d="M92 80v65q0 102 62.5 196.5t173.5 137.5l133 53q92 37 92 111l4 90q2 35 33 35h207q31 0 32 -35l7 -100q6 -129 -44.5 -214t-170.5 -138l-103 -45q-76 -35 -76 -109v-53q0 -37 22.5 -65.5t59.5 -28.5h158q45 0 75.5 24.5t30.5 63.5v59q0 35 33 35h240q33 0 33 -35v-41 q0 -182 -108.5 -292.5t-295.5 -110.5h-180q-176 0 -297 111.5t-121 285.5zM555 969v207q0 33 31 32h205q33 0 32 -32v-207q0 -35 -32 -35h-205q-31 0 -31 35z" />
<glyph unicode="&#xc0;" horiz-adv-x="1398" d="M27 31l426 1370q6 20 28 20h434q25 0 31 -20l424 -1370q10 -31 -20 -31h-314q-25 0 -30 20l-60 244q-4 12 -4 24.5t2 26t2 17.5q-47 -18 -74 -19h-346q-27 0 -73 19q0 -4 1 -17.5t1 -26t-2 -24.5l-62 -244q-4 -20 -31 -20h-313q-29 0 -20 31zM387 1809.5q6 11.5 21 11.5 h243q23 0 37 -21l180 -256q6 -10 1 -18t-19 -8h-166q-18 0 -35 14l-258 256q-10 10 -4 21.5zM510 571q55 14 82 15h215q27 0 82 -15q-33 41 -41 70l-111 387q-6 27 -3 53.5t14 38.5q-18 -16 -31 -16h-35q-12 0 -31 16q8 -12 12.5 -38.5t-4.5 -53.5l-110 -387q-8 -29 -39 -70 z" />
<glyph unicode="&#xc1;" horiz-adv-x="1398" d="M27 31l426 1370q6 20 28 20h434q25 0 31 -20l424 -1370q10 -31 -20 -31h-314q-25 0 -30 20l-60 244q-4 12 -4 24.5t2 26t2 15.5q-47 -16 -74 -17h-346q-27 0 -73 17q0 -2 1 -15.5t1 -26t-2 -24.5l-62 -244q-4 -20 -31 -20h-313q-29 0 -20 31zM510 571q55 14 82 15h215 q27 0 82 -15q-33 41 -41 70l-111 387q-6 27 -3 53.5t14 38.5q-18 -16 -31 -16h-35q-12 0 -31 16q8 -12 12.5 -38.5t-4.5 -53.5l-110 -387q-8 -29 -39 -70zM536.5 1526q-6.5 8 2.5 18l178 256q14 20 37 21h243q16 0 21.5 -11.5t-4.5 -21.5l-258 -256q-14 -14 -33 -14h-168 q-12 0 -18.5 8z" />
<glyph unicode="&#xc2;" horiz-adv-x="1398" d="M27 31l426 1370q6 20 28 20h434q25 0 31 -20l424 -1370q10 -31 -20 -31h-314q-25 0 -30 20l-60 244q-4 12 -4 24.5t2 26t2 17.5q-47 -18 -74 -19h-346q-27 0 -73 19q0 -4 1 -17.5t1 -26t-2 -24.5l-62 -244q-4 -20 -31 -20h-313q-29 0 -20 31zM354.5 1524q-6.5 8 1.5 18 l185 248q18 25 32 25h258q14 0 33 -25l185 -248q6 -10 0.5 -18t-17.5 -8h-172q-16 0 -35 16l-110 104q-10 10 -13 17q-2 -6 -12 -17l-110 -104q-18 -16 -37 -16h-170q-12 0 -18.5 8zM510 571q55 14 82 15h215q27 0 82 -15q-33 41 -41 70l-111 387q-6 27 -3 53.5t14 38.5 q-18 -16 -31 -16h-35q-12 0 -31 16q8 -12 12.5 -38.5t-4.5 -53.5l-110 -387q-8 -29 -39 -70z" />
<glyph unicode="&#xc3;" horiz-adv-x="1398" d="M27 31l426 1370q6 20 28 20h434q25 0 31 -20l424 -1370q10 -31 -20 -31h-314q-25 0 -30 20l-60 244q-4 12 -4 24.5t2 26t2 17.5q-47 -18 -74 -19h-346q-27 0 -73 19q0 -4 1 -17.5t1 -26t-2 -24.5l-62 -244q-4 -20 -31 -20h-313q-29 0 -20 31zM369 1552q18 109 77.5 167.5 t137.5 58.5q68 0 141 -60q2 -2 8 -6q43 -33 72 -33q23 0 40 15.5t21 38.5q8 23 29 22h104q31 0 27 -26q-18 -109 -77.5 -167.5t-137.5 -58.5q-70 0 -141 60q-4 2 -8 6q-43 33 -72 33q-23 0 -40.5 -15.5t-23.5 -38.5t-26 -22h-107q-29 0 -24 26zM510 571q55 14 82 15h215 q27 0 82 -15q-33 41 -41 70l-111 387q-6 27 -3 53.5t14 38.5q-18 -16 -31 -16h-35q-12 0 -31 16q8 -12 12.5 -38.5t-4.5 -53.5l-110 -387q-8 -29 -39 -70z" />
<glyph unicode="&#xc4;" horiz-adv-x="1398" d="M27 31l426 1370q6 20 28 20h434q25 0 31 -20l424 -1370q10 -31 -20 -31h-314q-25 0 -30 20l-60 244q-4 12 -4 24.5t2 26t2 17.5q-47 -18 -74 -19h-346q-27 0 -73 19q0 -4 1 -17.5t1 -26t-2 -24.5l-62 -244q-4 -20 -31 -20h-313q-29 0 -20 31zM338 1540v195q0 33 33 32 h204q31 0 31 -32v-195q0 -33 -31 -33h-204q-33 0 -33 33zM510 571q55 14 82 15h215q27 0 82 -15q-33 41 -41 70l-111 387q-6 27 -3 53.5t14 38.5q-18 -16 -31 -16h-35q-12 0 -31 16q8 -12 12.5 -38.5t-4.5 -53.5l-110 -387q-8 -29 -39 -70zM793 1540v195q0 33 30 32h205 q33 0 33 -32v-195q0 -33 -33 -33h-205q-31 0 -30 33z" />
<glyph unicode="&#xc5;" horiz-adv-x="1398" d="M27 31l426 1370q4 18 22 20q-57 70 -57 154v22q0 102 81 179t193 77h10q113 0 195 -76.5t82 -179.5v-22q0 -84 -59 -154q20 -2 26 -20l424 -1370q10 -31 -20 -31h-314q-25 0 -30 20l-60 244q-4 12 -4 24.5t2 26t2 15.5q-47 -16 -74 -17h-346q-27 0 -73 17q0 -2 1 -15.5 t1 -26t-2 -24.5l-62 -244q-4 -20 -31 -20h-313q-29 0 -20 31zM510 571q55 14 82 15h215q27 0 82 -15q-33 41 -41 70l-111 387q-6 27 -3 53.5t14 38.5q-18 -16 -31 -16h-35q-12 0 -31 16q8 -12 12.5 -38.5t-4.5 -53.5l-110 -387q-8 -29 -39 -70zM604 1577q0 -41 26.5 -69.5 t63.5 -28.5h4q37 0 63.5 28.5t26.5 69.5v10q0 41 -26.5 71t-63.5 30h-4q-37 0 -63.5 -30t-26.5 -71v-10z" />
<glyph unicode="&#xc6;" horiz-adv-x="1910" d="M31 31l674 1370q10 20 32 20h1055q27 0 27 -24v-258q0 -27 -27 -27h-414q-8 0 -15 2t-14.5 4t-13.5 5t-11 6.5t-9 5.5t-6 4l-2 2l1 -2q1 -2 3 -6.5t4 -8.5t3 -9t3 -10t3 -11.5t1 -10.5v-178q0 -4 -1 -10t-3 -11t-3 -10.5t-3 -8.5l-4 -6t-3 -5l-1 -2l2 1l6 3t9 5t11 6 t13.5 5t14.5 3.5t15 1.5h361q27 0 26 -27v-219q0 -27 -26 -27h-361q-8 0 -15 1t-14.5 4t-13.5 6t-11 6.5t-9 5.5l-6 3l-2 1q18 -43 18 -58v-235q0 -12 -18 -57l2 2q2 2 6 4t9 5t11 6t13.5 5t14.5 4t15 2h451q27 0 26 -26v-256q0 -27 -26 -27h-817q-25 0 -25 20l4 244 q0 12 4 24.5t9.5 26t7.5 17.5q-51 -18 -78 -19h-354q-27 0 -72 19v-17.5t-2 -26t-6 -24.5l-107 -244q-10 -20 -33 -20h-313q-33 0 -16 31zM614 571q57 14 84 15h238q27 -1 78 -15q-20 41 -21 70l4 387q0 20 12.5 50t24.5 42q-25 -16 -35 -16h-135q-10 0 -26 16 q8 -10 7 -39.5t-11 -52.5l-168 -387q-12 -27 -52 -70z" />
<glyph unicode="&#xc7;" horiz-adv-x="1200" d="M92 393v633q0 168 120 289t282 121h254q162 0 280.5 -121t118.5 -289v-74q0 -25 -27 -24h-299q-27 0 -26 24v39q0 76 -34 105.5t-99 29.5h-87q-66 0 -98.5 -29.5t-32.5 -105.5v-563q0 -74 33 -103.5t98 -29.5h89q66 0 99.5 29.5t33.5 103.5v39q0 27 26 27h297 q27 0 27 -27v-74q0 -166 -119 -284.5t-280 -118.5h-21l-39 -58h41q70 0 120 -50t50 -122v-43q0 -72 -50 -125t-120 -53h-242q-27 0 -26 25v88q0 27 26 26h158q43 0 54.5 19.5t13.5 56.5q0 16 -3 27.5t-19.5 23t-45.5 11.5h-160q-14 0 -23 8t-3 16l88 150h-53 q-164 0 -283 118.5t-119 284.5z" />
<glyph unicode="&#xc8;" d="M135 33v1356q0 33 33 32h833q27 0 27 -24v-258q0 -27 -27 -27h-462q-8 0 -15.5 2t-14.5 4t-13.5 5t-11.5 6.5t-9 5.5t-6 4l-2 2l1 -2q1 -2 3 -6.5t4 -8.5t4 -9t3 -10t2 -11.5t1 -10.5v-178q0 -4 -1 -10t-2 -11t-3 -10.5t-4 -8.5l-4 -6t-3 -5l-1 -2l2 1l6 3t9 5t11.5 6 t13.5 5t14 3.5t16 1.5h409q27 0 27 -27v-219q0 -27 -27 -27h-409q-8 0 -15.5 1t-14.5 4t-13.5 6t-11.5 6.5t-9 5.5l-6 3l-2 1q18 -41 18 -58v-235q0 -12 -18 -57l2 2q2 2 6 4t9 5t11.5 6t13.5 5l14 4t16 2h497q27 0 27 -26v-256q0 -27 -27 -27h-868q-33 0 -33 33z M277 1816.5q6 12.5 22 12.5h242q23 0 37 -21l180 -256q6 -10 1 -18t-20 -8h-166q-18 0 -34 14l-256 254q-12 10 -6 22.5z" />
<glyph unicode="&#xc9;" d="M135 33v1356q0 33 33 32h833q27 0 27 -24v-258q0 -27 -27 -27h-462q-8 0 -15.5 2t-14.5 4t-13.5 5t-11.5 6.5t-9 5.5t-6 4l-2 2l1 -2q1 -2 3 -6.5t4 -8.5t4 -9t3 -10t2 -11.5t1 -10.5v-178q0 -4 -1 -10t-2 -11t-3 -10.5t-4 -8.5l-4 -6t-3 -5l-1 -2l2 1l6 3t9 5t11.5 6 t13.5 5t14 3.5t16 1.5h409q27 0 27 -27v-219q0 -27 -27 -27h-409q-8 0 -15.5 1t-14.5 4t-13.5 6t-11.5 6.5t-9 5.5l-6 3l-2 1q18 -41 18 -58v-235q0 -12 -18 -57l2 2q2 2 6 4t9 5t11.5 6t13.5 5l14 4t16 2h497q27 0 27 -26v-256q0 -27 -27 -27h-868q-33 0 -33 33zM426 1534 q-6 8 2 18l178 256q14 20 37 21h244q16 0 21 -12.5t-5 -22.5l-258 -254q-14 -14 -33 -14h-168q-12 0 -18 8z" />
<glyph unicode="&#xca;" d="M135 33v1356q0 33 33 32h833q27 0 27 -24v-258q0 -27 -27 -27h-462q-8 0 -15.5 2t-14.5 4t-13.5 5t-11.5 6.5t-9 5.5t-6 4l-2 2l1 -2q1 -2 3 -6.5t4 -8.5t4 -9t3 -10t2 -11.5t1 -10.5v-178q0 -4 -1 -10t-2 -11t-3 -10.5t-4 -8.5l-4 -6t-3 -5l-1 -2l2 1l6 3t9 5t11.5 6 t13.5 5t14 3.5t16 1.5h409q27 0 27 -27v-219q0 -27 -27 -27h-409q-8 0 -15.5 1t-14.5 4t-13.5 6t-11.5 6.5t-9 5.5l-6 3l-2 1q18 -41 18 -58v-235q0 -12 -18 -57l2 2q2 2 6 4t9 5t11.5 6t13.5 5l14 4t16 2h497q27 0 27 -26v-256q0 -27 -27 -27h-868q-33 0 -33 33zM244 1532 q-6 8 2 18l184 248q18 25 33 25h258q14 0 33 -25l184 -248q8 -10 2 -18t-18 -8h-172q-16 0 -35 16l-111 105q-10 8 -12 14q-2 -6 -12 -14l-111 -105q-18 -16 -37 -16h-170q-12 0 -18 8z" />
<glyph unicode="&#xcb;" d="M135 33v1356q0 33 33 32h833q27 0 27 -24v-258q0 -27 -27 -27h-462q-8 0 -15.5 2t-14.5 4t-13.5 5t-11.5 6.5t-9 5.5t-6 4l-2 2l1 -2q1 -2 3 -6.5t4 -8.5t4 -9t3 -10t2 -11.5t1 -10.5v-178q0 -4 -1 -10t-2 -11t-3 -10.5t-4 -8.5l-4 -6t-3 -5l-1 -2l2 1l6 3t9 5t11.5 6 t13.5 5t14 3.5t16 1.5h409q27 0 27 -27v-219q0 -27 -27 -27h-409q-8 0 -15.5 1t-14.5 4t-13.5 6t-11.5 6.5t-9 5.5l-6 3l-2 1q18 -41 18 -58v-235q0 -12 -18 -57l2 2q2 2 6 4t9 5t11.5 6t13.5 5l14 4t16 2h497q27 0 27 -26v-256q0 -27 -27 -27h-868q-33 0 -33 33zM227 1548 v195q0 31 33 31h205q33 0 33 -31v-195q0 -33 -33 -32h-205q-33 0 -33 32zM682 1548v195q0 31 33 31h203q33 0 32 -31v-195q0 -33 -32 -32h-203q-33 0 -33 32z" />
<glyph unicode="&#xcc;" horiz-adv-x="618" d="M-14 1816.5q6 12.5 22 12.5h242q23 0 37 -21l180 -256q6 -10 1 -18t-19 -8h-166q-18 0 -35 14l-256 254q-12 10 -6 22.5zM135 27v1370q0 10 8.5 17t20.5 7h291q12 0 21 -7t9 -17v-1370q0 -12 -9 -19.5t-21 -7.5h-291q-12 0 -20.5 7t-8.5 20z" />
<glyph unicode="&#xcd;" horiz-adv-x="618" d="M135 27v1370q0 10 8.5 17t20.5 7h291q12 0 21 -7t9 -17v-1370q0 -12 -9 -19.5t-21 -7.5h-291q-12 0 -20.5 7t-8.5 20zM135.5 1534q-6.5 8 1.5 18l178 256q14 20 37 21h244q16 0 21.5 -12.5t-5.5 -22.5l-258 -254q-14 -14 -32 -14h-168q-12 0 -18.5 8z" />
<glyph unicode="&#xce;" horiz-adv-x="618" d="M-47 1532q-6 8 2 18l184 248q18 25 33 25h258q14 0 33 -25l184 -248q8 -10 2 -18t-18 -8h-172q-16 0 -35 16l-111 105q-10 8 -12 14q-2 -6 -12 -14l-111 -105q-18 -16 -37 -16h-170q-12 0 -18 8zM135 27v1370q0 10 8.5 17t20.5 7h291q12 0 21 -7t9 -17v-1370 q0 -12 -9 -19.5t-21 -7.5h-291q-12 0 -20.5 7t-8.5 20z" />
<glyph unicode="&#xcf;" horiz-adv-x="618" d="M-63 1548v195q0 31 32 31h205q31 0 31 -31v-195q0 -33 -31 -32h-205q-33 0 -32 32zM135 27v1370q0 10 8.5 17t20.5 7h291q12 0 21 -7t9 -17v-1370q0 -12 -9 -19.5t-21 -7.5h-291q-12 0 -20.5 7t-8.5 20zM391 1548v195q0 31 33 31h203q33 0 32 -31v-195q0 -33 -32 -32 h-203q-33 0 -33 32z" />
<glyph unicode="&#xd0;" horiz-adv-x="1275" d="M135 27v1368q0 27 27 26h612q172 0 294 -119.5t122 -287.5v-604q0 -170 -122 -290t-294 -120h-612q-27 0 -27 27zM461 623q25 -37 24 -72v-213q0 -6 -1 -11t-2 -10.5t-3 -10.5t-4 -9t-4 -6t-3 -4l-1 -2l2 1l6 3t9 5t11.5 5t13.5 5t14 4t16 1h172q61 0 94 28t33 79v588 q0 51 -33 79.5t-94 28.5h-172q-8 0 -15.5 2t-14.5 4t-13.5 5t-11.5 6.5t-8 5.5l-6 4l-3 2q18 -51 18 -66v-186q0 -31 -24 -76l9 4t17.5 7t21.5 6.5t23 3.5h168q27 0 27 -25v-182q0 -27 -27 -27h-168q-14 0 -29.5 5t-28.5 11z" />
<glyph unicode="&#xd1;" horiz-adv-x="1409" d="M135 33v1356q0 33 33 32h274q27 0 41 -22l414 -717q6 -10 18.5 -30.5t22.5 -35t10 -16.5l-6 22q-6 21 -12 45.5t-6 34.5v687q0 33 32 32h283q35 0 35 -32v-1356q0 -33 -33 -33h-254q-27 0 -39 23l-438 765q-4 10 -17.5 31t-22.5 36t-11 17q0 -2 7 -22.5t13 -45t6 -34.5 v-737q0 -33 -34 -33h-283q-33 0 -33 33zM385 1561q18 109 77.5 167t137.5 58q70 0 141 -60q2 -2 9 -6q43 -33 71 -32q23 0 40.5 15t23.5 36q6 25 26 24h107q29 0 24 -26q-18 -109 -77.5 -167.5t-137.5 -58.5q-68 0 -141 58q-2 2 -8 6q-43 35 -72 35q-23 0 -40 -16.5 t-21 -37.5q-8 -23 -29 -22h-106q-29 0 -25 27z" />
<glyph unicode="&#xd2;" horiz-adv-x="1261" d="M92 393v633q0 168 120 289t282 121h276q162 0 281.5 -121t119.5 -289v-633q0 -166 -119.5 -284.5t-281.5 -118.5h-276q-164 0 -283 118.5t-119 284.5zM340 1816.5q6 12.5 20 12.5h244q23 0 37 -21l180 -256q6 -10 1 -18t-19 -8h-166q-18 0 -35 14l-258 254 q-10 10 -4 22.5zM444 428q0 -74 32.5 -103.5t98.5 -29.5h111q68 0 100.5 29.5t32.5 103.5v563q0 76 -32.5 105.5t-100.5 29.5h-111q-66 0 -98.5 -29.5t-32.5 -105.5v-563z" />
<glyph unicode="&#xd3;" horiz-adv-x="1261" d="M92 393v633q0 168 120 289t282 121h276q162 0 281.5 -121t119.5 -289v-633q0 -166 -119.5 -284.5t-281.5 -118.5h-276q-164 0 -283 118.5t-119 284.5zM444 428q0 -74 32.5 -103.5t98.5 -29.5h111q68 0 100.5 29.5t32.5 103.5v563q0 76 -32.5 105.5t-100.5 29.5h-111 q-66 0 -98.5 -29.5t-32.5 -105.5v-563zM489.5 1534q-6.5 8 2.5 18l178 256q14 20 37 21h243q16 0 21.5 -12.5t-4.5 -22.5l-258 -254q-14 -14 -33 -14h-168q-12 0 -18.5 8z" />
<glyph unicode="&#xd4;" horiz-adv-x="1261" d="M92 393v633q0 168 120 289t282 121h276q162 0 281.5 -121t119.5 -289v-633q0 -166 -119.5 -284.5t-281.5 -118.5h-276q-164 0 -283 118.5t-119 284.5zM307.5 1532q-6.5 8 1.5 18l185 248q18 25 32 25h258q14 0 33 -25l184 -248q6 -10 1 -18t-17 -8h-172q-16 0 -35 16 l-110 105q-10 8 -13 14q-4 -6 -12 -14l-111 -105q-18 -16 -36 -16h-170q-12 0 -18.5 8zM444 428q0 -74 33 -103.5t98 -29.5h111q68 0 100.5 29.5t32.5 103.5v563q0 76 -32.5 105.5t-100.5 29.5h-111q-66 0 -98.5 -29.5t-32.5 -105.5v-563z" />
<glyph unicode="&#xd5;" horiz-adv-x="1261" d="M92 393v633q0 168 120 289t282 121h276q162 0 281.5 -121t119.5 -289v-633q0 -166 -119.5 -284.5t-281.5 -118.5h-276q-164 0 -283 118.5t-119 284.5zM322 1561q18 109 77.5 167t137.5 58q68 0 141 -60q2 -2 8 -6q43 -33 72 -32q23 0 40 15t21 36q8 25 29 24h104 q31 0 27 -26q-18 -109 -77.5 -167.5t-137.5 -58.5q-70 0 -141 58q-4 2 -9 6q-43 35 -71 35q-23 0 -40.5 -16.5t-23.5 -37.5q-6 -23 -26 -22h-107q-29 0 -24 27zM444 428q0 -74 32.5 -103.5t98.5 -29.5h111q68 0 100.5 29.5t32.5 103.5v563q0 76 -32.5 105.5t-100.5 29.5 h-111q-66 0 -98.5 -29.5t-32.5 -105.5v-563z" />
<glyph unicode="&#xd6;" horiz-adv-x="1261" d="M92 393v633q0 168 120 289t282 121h276q162 0 281.5 -121t119.5 -289v-633q0 -166 -119.5 -284.5t-281.5 -118.5h-276q-164 0 -283 118.5t-119 284.5zM291 1548v195q0 31 33 31h204q31 0 31 -31v-195q0 -33 -31 -32h-204q-33 0 -33 32zM444 428q0 -74 32.5 -103.5 t98.5 -29.5h111q68 0 100.5 29.5t32.5 103.5v563q0 76 -32.5 105.5t-100.5 29.5h-111q-66 0 -98.5 -29.5t-32.5 -105.5v-563zM745 1548v195q0 31 31 31h205q33 0 33 -31v-195q0 -33 -33 -32h-205q-31 0 -31 32z" />
<glyph unicode="&#xd7;" horiz-adv-x="942" d="M100 438q-18 18 0 39l203 211l-203 211q-18 20 0 39l131 137q18 20 37 0l203 -211l203 211q18 20 37 0l131 -137q18 -18 0 -39l-203 -211l203 -211q18 -20 0 -39l-131 -137q-18 -20 -37 0l-203 211l-203 -211q-18 -20 -37 0z" />
<glyph unicode="&#xd8;" horiz-adv-x="1263" d="M92 393v633q0 168 120 289t282 121h178q41 0 88 -25l-3 8q-3 8 -5 16.5t-2 23t4 30.5l47 135q10 23 39 23h180q33 0 33 -33l-62 -182q-6 -16 -13 -31t-12 -23t-12 -15l-6 -7q27 4 42.5 1.5t33.5 -18.5q68 -57 107.5 -139t39.5 -174v-633q0 -166 -119.5 -284.5 t-281.5 -118.5h-166q-49 0 -80 26l4 -16t4 -29.5t-4 -33.5l-51 -144q-12 -23 -39 -22h-159q-33 0 -33 32l63 189q6 23 37 59q-25 -2 -45 0t-39 17q-78 55 -124 141t-46 184zM444 428q0 -74 32 -103.5t99 -29.5h111q68 0 100.5 29.5t32.5 103.5v561q0 78 -32.5 107.5 t-100.5 29.5h-111q-66 0 -98.5 -29.5t-32.5 -107.5v-561z" />
<glyph unicode="&#xd9;" horiz-adv-x="1298" d="M111 397v992q0 33 32 32h287q33 0 33 -32l-2 -961q0 -74 33.5 -103.5t99.5 -29.5h111q66 0 98.5 29.5t32.5 103.5v961q0 33 32 32h287q33 0 33 -32v-992q0 -168 -122 -287.5t-294 -119.5h-246q-172 0 -293.5 119.5t-121.5 287.5zM336 1816.5q6 12.5 22 12.5h242 q23 0 37 -21l180 -256q6 -10 1 -18t-19 -8h-166q-18 0 -35 14l-256 254q-12 10 -6 22.5z" />
<glyph unicode="&#xda;" horiz-adv-x="1298" d="M111 397v992q0 33 32 32h287q33 0 33 -32l-2 -961q0 -74 33.5 -103.5t99.5 -29.5h111q66 0 98.5 29.5t32.5 103.5v961q0 33 32 32h287q33 0 33 -32v-992q0 -168 -122 -287.5t-294 -119.5h-246q-172 0 -293.5 119.5t-121.5 287.5zM485.5 1534q-6.5 8 1.5 18l179 256 q14 20 36 21h244q16 0 21.5 -12.5t-4.5 -22.5l-258 -254q-14 -14 -33 -14h-168q-12 0 -18.5 8z" />
<glyph unicode="&#xdb;" horiz-adv-x="1298" d="M111 397v992q0 33 32 32h287q33 0 33 -32l-2 -961q0 -74 33.5 -103.5t99.5 -29.5h111q66 0 98.5 29.5t32.5 103.5v961q0 33 32 32h287q33 0 33 -32v-992q0 -168 -122 -287.5t-294 -119.5h-246q-172 0 -293.5 119.5t-121.5 287.5zM303.5 1532q-6.5 8 1.5 18l184 248 q18 25 33 25h258q14 0 33 -25l184 -248q8 -10 2 -18t-18 -8h-172q-16 0 -35 16l-110 105q-10 8 -13 14q-2 -6 -12 -14l-111 -105q-18 -16 -36 -16h-170q-12 0 -18.5 8z" />
<glyph unicode="&#xdc;" horiz-adv-x="1298" d="M111 397v992q0 33 32 32h287q33 0 33 -32l-2 -961q0 -74 33.5 -103.5t99.5 -29.5h111q66 0 98.5 29.5t32.5 103.5v961q0 33 32 32h287q33 0 33 -32v-992q0 -168 -122 -287.5t-294 -119.5h-246q-172 0 -293.5 119.5t-121.5 287.5zM287 1548v195q0 31 32 31h205 q33 0 33 -31v-195q0 -33 -33 -32h-205q-33 0 -32 32zM741 1548v195q0 31 33 31h203q33 0 33 -31v-195q0 -33 -33 -32h-203q-33 0 -33 32z" />
<glyph unicode="&#xdd;" horiz-adv-x="1107" d="M-78 1410.5q6 10.5 27 10.5h303q27 0 39 -22l235 -492q4 -8 7.5 -19t6.5 -22.5l6 -23t4 -19.5t2 -14l1 -6l1 6q1 6 3 14t4 19.5t5 21.5t6 21.5t8 19.5l237 494q10 23 39 22h303q18 0 25.5 -10t-0.5 -29l-434 -837q-6 -10 -29 -33l2 -2q8 -18 8 -29v-448q0 -33 -33 -33 h-290q-33 0 -33 33v448q0 10 10 29v2q-25 27 -27 33l-434 837q-8 18 -2 28.5zM394.5 1534q-5.5 8 0.5 18l180 256q14 20 35 21h244q16 0 21.5 -12.5t-5.5 -22.5l-258 -254q-14 -14 -32 -14h-168q-12 0 -17.5 8z" />
<glyph unicode="&#xde;" horiz-adv-x="1226" d="M135 33v1356q0 33 33 32h285q33 0 32 -32v-252q0 -18 -2 -35q20 6 49 6h259q172 0 292.5 -113.5t120.5 -281.5v-119q0 -168 -120.5 -281.5t-295.5 -113.5h-235q-45 0 -72 10q4 -20 4 -53v-123q0 -33 -32 -33h-285q-33 0 -33 33zM479 485q29 8 74 9h170q61 0 94 28.5 t33 77.5v90q0 51 -33 80t-94 29h-170q-45 0 -72 10q4 -20 4 -51v-221q0 -31 -6 -52z" />
<glyph unicode="&#xdf;" horiz-adv-x="1280" d="M135 37v1180q0 168 116 280.5t288 112.5h254q172 0 288.5 -114t116.5 -282v-124q0 -68 -23.5 -135.5t-56.5 -96.5q-2 -2 -8 -6q4 -2 8 -6q39 -37 73 -103.5t34 -128.5v-219q0 -168 -121 -281.5t-295 -113.5h-125q-33 0 -33 37v229q0 12 8.5 19.5t20.5 7.5h45 q61 0 94 28.5t33 79.5v217q0 51 -33 79t-94 28h-53q-23 0 -23 27v184q0 25 23 25h53q121 0 121 102v143q0 51 -33 80t-94 29h-105q-63 0 -96 -29t-33 -80l-6 -1165q0 -41 -37 -41h-270q-16 0 -26.5 10t-10.5 27z" />
<glyph unicode="&#xe0;" horiz-adv-x="1134" d="M43 305v78q0 145 102.5 225t284.5 80h246q23 0 51 -14q-14 43 -14 51v49q0 78 -84 78h-148q-61 0 -61 -59v-13q0 -18 -23 -18h-276q-12 0 -20.5 7t-8.5 19v23q0 131 101.5 232.5t238.5 101.5h262q143 0 251 -112.5t108 -276.5v-727q0 -12 -8.5 -19.5t-20.5 -7.5h-248 q-33 0 -33 29v6q0 6 6.5 24.5t13.5 34.5l7 15q-4 -6 -43 -43q-31 -31 -95.5 -54.5t-119.5 -23.5h-121q-139 0 -243.5 89t-104.5 226zM248 1544q6 12 20 12h244q23 0 37 -20l180 -272q8 -12 2 -20.5t-18 -8.5h-168q-18 0 -33 16l-260 271q-10 10 -4 22zM381 371 q0 -47 21.5 -68.5t89.5 -21.5h137q84 0 84 79v76q0 4 1 11.5t3 12.5l4 10t3 8l1 3q-25 -14 -49 -14h-213q-39 0 -60.5 -22.5t-21.5 -57.5v-16z" />
<glyph unicode="&#xe1;" horiz-adv-x="1134" d="M43 305v78q0 145 102.5 225t284.5 80h246q23 0 51 -14q-14 43 -14 51v49q0 78 -84 78h-148q-61 0 -61 -59v-13q0 -18 -23 -18h-276q-12 0 -20.5 8t-8.5 18v23q0 131 101.5 232.5t238.5 101.5h262q143 0 251 -112.5t108 -276.5v-727q0 -12 -8.5 -19.5t-20.5 -7.5h-248 q-33 0 -33 29v6q0 6 6.5 24.5t13.5 34.5l7 15q-4 -6 -43 -43q-31 -31 -95.5 -54.5t-119.5 -23.5h-121q-139 0 -243.5 89t-104.5 226zM381 371q0 -47 21.5 -68.5t89.5 -21.5h137q84 0 84 79v76q0 4 1 11.5t3 12.5l4 10t3 8l1 3q-25 -14 -49 -14h-213q-39 0 -60.5 -22.5 t-21.5 -57.5v-16zM397.5 1243q-6.5 8 1.5 21l181 272q14 20 36 20h244q14 0 20.5 -12t-3.5 -22l-261 -271q-14 -16 -32 -16h-168q-12 0 -18.5 8z" />
<glyph unicode="&#xe2;" horiz-adv-x="1134" d="M43 305v78q0 145 102.5 225t284.5 80h246q23 0 51 -14q-14 43 -14 51v49q0 78 -84 78h-148q-61 0 -61 -59v-13q0 -18 -23 -18h-276q-12 0 -20.5 7t-8.5 19v23q0 131 101.5 232.5t238.5 101.5h262q143 0 251 -112.5t108 -276.5v-727q0 -12 -8.5 -19.5t-20.5 -7.5h-248 q-33 0 -33 29v6q0 6 6.5 24.5t13.5 34.5l7 15q-4 -6 -43 -43q-31 -31 -95.5 -54.5t-119.5 -23.5h-121q-139 0 -243.5 89t-104.5 226zM214 1241q-5 8 1 21l186 262q18 27 33 26h258q16 0 33 -26l186 -262q8 -12 2 -20.5t-18 -8.5h-172q-16 0 -35 18l-113 111q-8 8 -12 16 q-2 -8 -12 -16l-113 -111q-16 -18 -35 -18h-170q-14 0 -19 8zM381 371q0 -47 21.5 -68.5t89.5 -21.5h137q84 0 84 79v76q0 4 1 11.5t3 12.5l4 10t3 8l1 3q-25 -14 -49 -14h-213q-39 0 -60.5 -22.5t-21.5 -57.5v-16z" />
<glyph unicode="&#xe3;" horiz-adv-x="1134" d="M43 305v78q0 145 102.5 225t284.5 80h246q23 0 51 -14q-14 43 -14 51v49q0 78 -84 78h-148q-61 0 -61 -59v-13q0 -18 -23 -18h-276q-12 0 -20.5 8t-8.5 18v23q0 131 101.5 232.5t238.5 101.5h262q143 0 251 -112.5t108 -276.5v-727q0 -12 -8.5 -19.5t-20.5 -7.5h-248 q-33 0 -33 29v6q0 6 6.5 24.5t13.5 34.5l7 15q-4 -6 -43 -43q-31 -31 -95.5 -54.5t-119.5 -23.5h-121q-139 0 -243.5 89t-104.5 226zM227 1272q18 115 79 177t138 62q68 0 142 -61q4 -4 8 -6q43 -37 74 -37q23 0 40 16.5t23 38.5q6 25 27 25h106q29 0 25 -27 q-16 -117 -76.5 -179t-138.5 -62q-70 0 -144 63q-2 2 -8 6q-43 37 -71 37q-25 0 -42.5 -17.5t-21.5 -39.5q-8 -25 -29 -25h-104q-31 0 -27 29zM381 371q0 -47 21.5 -68.5t89.5 -21.5h137q84 0 84 79v76q0 4 1 11.5t3 12.5l4 10t3 8l1 3q-25 -14 -49 -14h-213 q-39 0 -60.5 -22.5t-21.5 -57.5v-16z" />
<glyph unicode="&#xe4;" horiz-adv-x="1134" d="M43 305v78q0 145 102.5 225t284.5 80h246q23 0 51 -14q-14 43 -14 51v49q0 78 -84 78h-148q-61 0 -61 -59v-13q0 -18 -23 -18h-276q-12 0 -20.5 8t-8.5 18v23q0 131 101.5 232.5t238.5 101.5h262q143 0 251 -112.5t108 -276.5v-727q0 -12 -8.5 -19.5t-20.5 -7.5h-248 q-33 0 -33 29v6q0 6 6.5 24.5t13.5 34.5l7 15q-4 -6 -43 -43q-31 -31 -95.5 -54.5t-119.5 -23.5h-121q-139 0 -243.5 89t-104.5 226zM199 1257v209q0 33 32 33h203q33 0 33 -33v-209q0 -33 -33 -32h-203q-33 0 -32 32zM381 371q0 -47 21.5 -68.5t89.5 -21.5h137q84 0 84 79 v76q0 4 1 11.5t3 12.5l4 10t3 8l1 3q-25 -14 -49 -14h-213q-39 0 -60.5 -22.5t-21.5 -57.5v-16zM653 1257v209q0 33 33 33h205q33 0 33 -33v-209q0 -33 -33 -32h-205q-33 0 -33 32z" />
<glyph unicode="&#xe5;" horiz-adv-x="1134" d="M43 305v78q0 145 102.5 225t284.5 80h246q23 0 51 -14q-14 43 -14 51v49q0 78 -84 78h-148q-61 0 -61 -59v-13q0 -18 -23 -18h-276q-12 0 -20.5 8t-8.5 18v23q0 102 66.5 191.5t167.5 123.5q-33 59 -33 125v25q0 106 82 188t194 82h13q113 0 193.5 -82t80.5 -188v-25 q0 -70 -37 -133q102 -41 168 -139t66 -223v-727q0 -12 -8.5 -19.5t-20.5 -7.5h-248q-33 0 -33 29v6q0 6 6.5 24.5t13.5 34.5l7 15q-4 -6 -43 -43q-31 -31 -95.5 -54.5t-119.5 -23.5h-121q-139 0 -243.5 89t-104.5 226zM381 371q0 -47 21.5 -68.5t89.5 -21.5h137q84 0 84 79 v76q0 4 1 11.5t3 12.5l4 10t3 8l1 3q-25 -14 -49 -14h-213q-39 0 -60.5 -22.5t-21.5 -57.5v-16zM481 1253q0 -43 27 -73.5t63 -30.5h4q39 0 66 30.5t27 73.5v13q0 43 -27 73.5t-66 30.5h-4q-37 0 -63.5 -30.5t-26.5 -73.5v-13z" />
<glyph unicode="&#xe6;" horiz-adv-x="1773" d="M43 305v80q0 143 102.5 224t284.5 81h246q23 0 51 -14q-14 43 -14 51v43q0 80 -84 80l-148 -2q-61 0 -61 -60v-8q0 -18 -23 -18h-276q-12 0 -20.5 7t-8.5 19v23q0 131 101.5 232.5t238.5 101.5h262q117 0 207 -82q100 82 232 82h172q174 0 295.5 -129t121.5 -311v-209 q0 -27 -26 -27l-586 -2q-47 0 -72 16q14 -25 15 -43v-43q0 -113 102 -112h141q66 0 68 55l2 8q4 20 27 21h282q29 0 23 -29v-8q-23 -141 -127.5 -242.5t-239.5 -101.5h-166q-150 0 -268 98q-33 -41 -101.5 -68.5t-129.5 -27.5h-275q-139 0 -243.5 89t-104.5 226zM381 371 q0 -47 21.5 -68.5t89.5 -21.5h137q84 0 84 79v76q0 6 1 12.5t3 12.5t4 10t3 7l1 3q-25 -12 -49 -12h-213q-39 0 -60.5 -22.5t-21.5 -57.5v-18zM1038 676q27 14 72 14h219q45 0 72 -14q-14 37 -15 55v39q0 37 -23.5 57.5t-62.5 20.5h-161q-39 0 -62.5 -20.5t-23.5 -57.5v-39 q-1 -20 -15 -55z" />
<glyph unicode="&#xe7;" horiz-adv-x="1101" d="M59 424v285q0 182 122 309t296 127h166q94 0 175 -40t132 -100.5t79 -128t28 -128.5v-23q0 -10 -8.5 -18.5t-20.5 -8.5h-280q-12 0 -20.5 8.5t-8.5 18.5v14q0 47 -31 78t-98 31h-60q-66 0 -97.5 -32t-31.5 -114v-272q0 -82 32 -113.5t97 -31.5h60q68 0 98.5 30.5 t30.5 77.5v15q0 10 8 18t21 8h280q12 0 20.5 -8t8.5 -18v-23q0 -59 -26.5 -125.5t-75 -126t-126 -100.5t-170.5 -45l-38 -60h41q72 0 122 -53t50 -129v-47q0 -76 -50.5 -133.5t-121.5 -57.5h-242q-27 0 -27 29v94q0 27 27 27h160q29 0 44 13.5t18 27.5t5 41q-2 63 -67 63 h-162q-14 0 -23.5 8.5t-3.5 20.5l88 156h-2q-174 0 -296 127t-122 309z" />
<glyph unicode="&#xe8;" d="M59 418v291q0 180 123 308t295 128h172q176 0 297 -129t121 -311v-209q0 -27 -27 -27l-585 -2q-47 0 -70 16q12 -25 12 -43v-47q0 -113 103 -112h141q68 0 70 55v12q2 20 26 21h283q29 0 22 -29v-8q-23 -141 -126 -242.5t-238 -101.5h-201q-174 0 -296 126t-122 304z M258 1544q6 12 23 12h243q20 0 35 -20l182 -272q6 -12 1 -20.5t-19 -8.5h-168q-18 0 -33 16l-258 271q-12 10 -6 22zM383 676q27 14 72 14h219q45 0 71 -14q-14 35 -14 55v43q0 37 -23.5 57.5t-62.5 20.5h-162q-39 0 -61.5 -20.5t-22.5 -57.5v-43q0 -20 -16 -55z" />
<glyph unicode="&#xe9;" d="M59 418v291q0 180 123 308t295 128h172q176 0 297 -129t121 -311v-209q0 -27 -27 -27l-585 -2q-47 0 -70 16q12 -25 12 -43v-47q0 -113 103 -112h141q68 0 70 55v12q2 20 26 21h283q29 0 22 -29v-8q-23 -141 -126 -242.5t-238 -101.5h-201q-174 0 -296 126t-122 304z M383 676q27 14 72 14h219q45 0 71 -14q-14 35 -14 55v43q0 37 -23.5 57.5t-62.5 20.5h-162q-39 0 -61.5 -20.5t-22.5 -57.5v-43q0 -20 -16 -55zM408.5 1243q-5.5 8 1.5 21l180 272q14 20 37 20h243q16 0 21.5 -12t-4.5 -22l-258 -271q-16 -16 -35 -16h-166q-14 0 -19.5 8z " />
<glyph unicode="&#xea;" d="M59 418v291q0 180 123 308t295 128h172q176 0 297 -129t121 -311v-209q0 -27 -27 -27l-585 -2q-47 0 -70 16q12 -25 12 -43v-47q0 -113 103 -112h141q68 0 70 55v12q2 20 26 21h283q29 0 22 -29v-8q-23 -141 -126 -242.5t-238 -101.5h-201q-174 0 -296 126t-122 304z M224.5 1241q-5.5 8 0.5 21l187 262q18 29 34 28h256q16 0 35 -28l187 -262q6 -12 1 -20.5t-20 -8.5h-170q-18 0 -35 18l-112 111q-10 8 -15 16q-2 -8 -12 -16l-112 -111q-16 -18 -35 -18h-170q-14 0 -19.5 8zM383 676q27 14 72 14h219q45 0 71 -14q-14 35 -14 55v43 q0 37 -23.5 57.5t-62.5 20.5h-162q-39 0 -61.5 -20.5t-22.5 -57.5v-43q0 -20 -16 -55z" />
<glyph unicode="&#xeb;" d="M59 418v291q0 180 123 308t295 128h172q176 0 297 -129t121 -311v-209q0 -27 -27 -27l-585 -2q-47 0 -70 16q12 -25 12 -43v-47q0 -113 103 -112h141q68 0 70 55v12q2 20 26 21h283q29 0 22 -29v-8q-23 -141 -126 -242.5t-238 -101.5h-201q-174 0 -296 126t-122 304z M209 1257v209q0 33 33 33h204q33 0 33 -33v-209q0 -33 -33 -32h-204q-33 0 -33 32zM383 676q27 14 72 14h219q45 0 71 -14q-14 35 -14 55v43q0 37 -23.5 57.5t-62.5 20.5h-162q-39 0 -61.5 -20.5t-22.5 -57.5v-43q0 -20 -16 -55zM666 1257v209q0 33 32 33h203q33 0 33 -33 v-209q0 -33 -33 -32h-203q-33 0 -32 32z" />
<glyph unicode="&#xec;" horiz-adv-x="577" d="M-25 1544q5 12 21 12h244q23 0 36 -20l181 -272q8 -12 2 -20.5t-19 -8.5h-168q-18 0 -32 16l-260 271q-10 10 -5 22zM119 29v1075q0 12 8 20.5t20 8.5h283q12 0 20.5 -8.5t8.5 -20.5v-1075q0 -10 -8.5 -18.5t-20.5 -8.5h-283q-12 0 -20 8t-8 19z" />
<glyph unicode="&#xed;" horiz-adv-x="577" d="M119 29v1075q0 12 8 20.5t20 8.5h283q12 0 20.5 -8.5t8.5 -20.5v-1075q0 -10 -8.5 -18.5t-20.5 -8.5h-283q-12 0 -20 8t-8 19zM125 1243q-6 8 2 21l180 272q14 20 37 20h244q14 0 20 -12t-4 -22l-260 -271q-14 -16 -33 -16h-168q-12 0 -18 8z" />
<glyph unicode="&#xee;" horiz-adv-x="577" d="M-59.5 1241q-6.5 8 2.5 21l186 262q18 29 33 28h258q14 0 33 -28l186 -262q8 -12 2 -20.5t-18 -8.5h-172q-16 0 -35 18l-113 111q-10 8 -12 16q-2 -8 -12 -16l-113 -111q-18 -18 -35 -18h-172q-12 0 -18.5 8zM119 29v1075q0 12 8 20.5t20 8.5h283q12 0 20.5 -8.5 t8.5 -20.5v-1075q0 -10 -8.5 -18.5t-20.5 -8.5h-283q-12 0 -20 8t-8 19z" />
<glyph unicode="&#xef;" horiz-adv-x="577" d="M-76 1257v209q0 33 33 33h205q33 0 33 -33v-209q0 -33 -33 -32h-205q-33 0 -33 32zM119 29v1075q0 12 8 20.5t20 8.5h283q12 0 20.5 -8.5t8.5 -20.5v-1075q0 -10 -8.5 -18.5t-20.5 -8.5h-283q-12 0 -20 8t-8 19zM381 1257v209q0 33 33 33h204q33 0 33 -33v-209 q0 -33 -33 -32h-204q-33 0 -33 32z" />
<glyph unicode="&#xf0;" horiz-adv-x="1093" d="M12 459v76q0 182 123 328.5t283 146.5h137l-59 139l-103 -66q-14 -8 -23.5 -3t-9.5 22v135q0 23 19 33l51 33l-82 190q-6 14 0 24.5t19 10.5h284q18 0 29 -23l14 -35l109 68q14 8 22.5 3t8.5 -21v-136q0 -20 -17 -32l-57 -35l244 -580q49 -106 49 -202v-76 q0 -182 -123 -326.5t-283 -144.5h-229q-160 0 -283 144t-123 327zM348 463q0 -84 37 -133t100 -49h93q66 0 102.5 49t36.5 133v65q0 45 -19 95q-29 76 -96 92h-117q-63 0 -100 -50.5t-37 -136.5v-65z" />
<glyph unicode="&#xf1;" horiz-adv-x="1220" d="M119 29v1075q0 12 8 20.5t20 8.5h248q33 0 33 -29v-4q0 -10 -7 -29.5t-13.5 -34t-6.5 -16.5q16 20 43 47q31 31 95.5 54.5t119.5 23.5h91q158 0 268 -117t110 -291v-708q0 -10 -8 -18.5t-20 -8.5h-283q-12 0 -20.5 8t-8.5 19v678q0 82 -32.5 113.5t-100.5 31.5h-112 q-84 0 -84 -80v-743q0 -10 -8.5 -18.5t-20.5 -8.5h-283q-12 0 -20 8t-8 19zM307 1272q16 117 76.5 178t138.5 61q70 0 144 -61q2 -2 8 -6q43 -37 71 -37q25 0 42.5 16.5t21.5 38.5q8 25 29 25h104q31 0 27 -27q-18 -117 -79 -179t-138 -62q-70 0 -142 63q-4 2 -8 6 q-43 37 -74 37q-23 0 -40 -17.5t-23 -39.5q-6 -25 -27 -25h-106q-29 0 -25 29z" />
<glyph unicode="&#xf2;" horiz-adv-x="1122" d="M59 420v289q0 182 122 309t296 127h168q174 0 296 -127t122 -309v-289q0 -180 -121 -306t-293 -126h-176q-172 0 -293 126t-121 306zM267 1544q5 12 22 12h243q23 0 37 -20l181 -272q6 -12 0.5 -20.5t-17.5 -8.5h-168q-18 0 -33 16l-260 271q-10 10 -5 22zM399 424 q0 -82 32 -112.5t99 -30.5h62q68 0 99.5 30.5t31.5 112.5v278q0 82 -31.5 114t-99.5 32h-62q-68 0 -99.5 -32t-31.5 -114v-278z" />
<glyph unicode="&#xf3;" horiz-adv-x="1122" d="M59 420v289q0 182 122 309t296 127h168q174 0 296 -127t122 -309v-289q0 -180 -121 -306t-293 -126h-176q-172 0 -293 126t-121 306zM399 424q0 -82 32 -112.5t99 -30.5h62q68 0 99.5 30.5t31.5 112.5v278q0 82 -31.5 114t-99.5 32h-62q-68 0 -99.5 -32t-31.5 -114v-278z M417 1243q-5 8 1 21l182 272q14 20 35 20h244q16 0 22 -12t-6 -22l-258 -271q-14 -16 -33 -16h-168q-14 0 -19 8z" />
<glyph unicode="&#xf4;" horiz-adv-x="1122" d="M59 420v289q0 182 122 309t296 127h168q174 0 296 -127t122 -309v-289q0 -180 -121 -306t-293 -126h-176q-172 0 -293 126t-121 306zM233.5 1241q-6.5 8 2.5 21l186 262q18 29 33 28h258q14 0 32 -28l187 -262q6 -12 1 -20.5t-20 -8.5h-170q-18 0 -34 18l-113 111 q-10 8 -12 16q-4 -8 -13 -16l-112 -111q-18 -18 -35 -18h-172q-12 0 -18.5 8zM399 424q0 -82 32 -112.5t99 -30.5h62q68 0 99.5 30.5t31.5 112.5v278q0 82 -32 114t-99 32h-62q-68 0 -99.5 -32t-31.5 -114v-278z" />
<glyph unicode="&#xf5;" horiz-adv-x="1122" d="M59 420v289q0 182 122 309t296 127h168q174 0 296 -127t122 -309v-289q0 -180 -121 -306t-293 -126h-176q-172 0 -293 126t-121 306zM248 1272q16 117 76.5 178t138.5 61q70 0 143 -61q2 -2 8 -6q43 -37 72 -37q25 0 42 16.5t22 38.5q8 25 28 25h105q31 0 26 -27 q-18 -117 -78.5 -179t-138.5 -62q-70 0 -141 63q-4 2 -8 6q-43 37 -74 37q-23 0 -40 -17.5t-23 -39.5q-6 -25 -27 -25h-107q-29 0 -24 29zM399 424q0 -82 32 -112.5t99 -30.5h62q68 0 99.5 30.5t31.5 112.5v278q0 82 -31.5 114t-99.5 32h-62q-68 0 -99.5 -32t-31.5 -114 v-278z" />
<glyph unicode="&#xf6;" horiz-adv-x="1122" d="M59 420v289q0 182 122 309t296 127h168q174 0 296 -127t122 -309v-289q0 -180 -121 -306t-293 -126h-176q-172 0 -293 126t-121 306zM217 1257v209q0 33 33 33h205q33 0 32 -33v-209q0 -33 -32 -32h-205q-33 0 -33 32zM399 424q0 -82 32 -112.5t99 -30.5h62 q68 0 99.5 30.5t31.5 112.5v278q0 82 -31.5 114t-99.5 32h-62q-68 0 -99.5 -32t-31.5 -114v-278zM674 1257v209q0 33 33 33h204q33 0 33 -33v-209q0 -33 -33 -32h-204q-33 0 -33 32z" />
<glyph unicode="&#xf7;" horiz-adv-x="1091" d="M92 590v194q0 27 27 27h856q27 0 26 -27v-194q0 -27 -26 -27h-856q-27 0 -27 27zM410 152v204q0 35 32 35h209q31 0 31 -35v-204q0 -35 -31 -35h-209q-33 0 -32 35zM410 1022v205q0 35 32 35h209q31 0 31 -35v-205q0 -35 -31 -35h-209q-33 0 -32 35z" />
<glyph unicode="&#xf8;" horiz-adv-x="1122" d="M59 418v293q0 178 123 306t295 128h127q16 0 31 -4q10 -2 19.5 -6.5t15.5 -8.5t8 -4q-18 41 -10 62l57 180q10 25 39 25h180q33 0 33 -35l-82 -248q-4 -16 -18.5 -30.5t-20.5 -18.5h8h14.5t14.5 -3t14 -7q74 -57 115 -146.5t41 -189.5v-293q0 -178 -122 -304t-292 -126 h-71q-10 0 -21 2q-6 2 -13 5t-12.5 6t-9.5 6l-4 3l4 -9t6 -18.5t0 -21.5l-71 -217q-12 -23 -39 -23h-160q-33 0 -33 35l76 242q6 18 31 45q-35 -12 -51 -4q-100 55 -161 156.5t-61 222.5zM399 424q0 -80 33 -111.5t98 -31.5h62q68 0 99.5 31.5t31.5 111.5v278q0 82 -32 114 t-99 32h-62q-66 0 -98.5 -32t-32.5 -114v-278z" />
<glyph unicode="&#xf9;" horiz-adv-x="1216" d="M92 397v707q0 12 8.5 20.5t20.5 8.5h282q12 0 20.5 -8.5t8.5 -20.5v-674q0 -82 33 -113.5t100 -31.5h109q86 0 86 80l-2 739q0 12 9 20.5t19 8.5h285q12 0 20.5 -8.5t8.5 -20.5v-1073q0 -12 -8.5 -20.5t-20.5 -8.5h-250q-33 0 -30 29v4q0 8 6 26.5t12 34.5l6 17 q-14 -18 -43 -45q-29 -31 -93.5 -54.5t-121.5 -23.5h-86q-156 0 -267.5 115.5t-111.5 291.5zM288 1544q5 12 21 12h244q23 0 37 -20l180 -272q8 -12 2 -20.5t-18 -8.5h-168q-18 0 -33 16l-260 271q-10 10 -5 22z" />
<glyph unicode="&#xfa;" horiz-adv-x="1216" d="M92 397v707q0 12 8.5 20.5t20.5 8.5h282q12 0 20.5 -8.5t8.5 -20.5v-674q0 -82 33 -113.5t100 -31.5h109q86 0 86 80l-2 739q0 12 9 20.5t19 8.5h285q12 0 20.5 -8.5t8.5 -20.5v-1073q0 -12 -8.5 -20.5t-20.5 -8.5h-250q-33 0 -30 29v4q0 8 6 26.5t12 34.5l6 17 q-14 -18 -43 -45q-29 -31 -93.5 -54.5t-121.5 -23.5h-86q-156 0 -267.5 115.5t-111.5 291.5zM437.5 1243q-5.5 8 0.5 21l183 272q14 20 36 20h244q14 0 20.5 -12t-3.5 -22l-261 -271q-14 -16 -32 -16h-168q-14 0 -19.5 8z" />
<glyph unicode="&#xfb;" horiz-adv-x="1216" d="M92 397v707q0 12 8.5 20.5t20.5 8.5h282q12 0 20.5 -8.5t8.5 -20.5v-674q0 -82 33 -113.5t100 -31.5h109q84 0 84 80v739q0 12 9 20.5t19 8.5h285q10 0 19.5 -8.5t9.5 -20.5v-1073q0 -12 -8.5 -20.5t-20.5 -8.5h-250q-33 0 -30 29v4q0 8 6 26.5t12 34.5l6 17 q-14 -18 -43 -45q-29 -31 -93.5 -54.5t-121.5 -23.5h-86q-156 0 -267.5 115.5t-111.5 291.5zM254 1241q-6 8 2 21l186 262q18 29 33 28h258q14 0 33 -28l186 -262q8 -12 2 -20.5t-18 -8.5h-172q-18 0 -35 18l-113 111q-10 8 -12 16q-2 -8 -12 -16l-113 -111q-18 -18 -35 -18 h-172q-12 0 -18 8z" />
<glyph unicode="&#xfc;" horiz-adv-x="1216" d="M92 397v707q0 12 8.5 20.5t20.5 8.5h282q12 0 20.5 -8.5t8.5 -20.5v-674q0 -82 33 -113.5t100 -31.5h109q86 0 86 80l-2 739q0 12 9 20.5t19 8.5h285q12 0 20.5 -8.5t8.5 -20.5v-1073q0 -12 -8.5 -20.5t-20.5 -8.5h-250q-33 0 -30 29v4q0 8 6 26.5t12 34.5l6 17 q-14 -18 -43 -45q-29 -31 -93.5 -54.5t-121.5 -23.5h-86q-156 0 -267.5 115.5t-111.5 291.5zM238 1257v209q0 33 32 33h205q33 0 33 -33v-209q0 -33 -33 -32h-205q-33 0 -32 32zM694 1257v209q0 33 33 33h205q33 0 33 -33v-209q0 -33 -33 -32h-205q-33 0 -33 32z" />
<glyph unicode="&#xfd;" horiz-adv-x="1024" d="M-10 1094q-6 16 1 28.5t25 12.5h260q29 0 37 -29l174 -559q18 -55 23 -123q8 70 25 125l174 557q8 27 36 29h261q18 0 25 -12.5t1 -28.5l-444 -1280q-57 -168 -151.5 -243t-239.5 -75h-54q-31 0 -30 33v238q0 27 24 26h103q39 0 56 21.5t32 66.5l32 107q0 2 20 16l21 14 q-37 -6 -39 5zM356.5 1243q-6.5 8 1.5 21l181 272q14 20 36 20h244q16 0 21.5 -12t-4.5 -22l-261 -271q-14 -16 -32 -16h-168q-12 0 -18.5 8z" />
<glyph unicode="&#xfe;" horiz-adv-x="1183" d="M113 -504v2142q0 10 8 18.5t20 8.5h293q10 0 19.5 -8t9.5 -19l-2 -524q0 -10 -2 -22.5t-6 -23.5t-8.5 -21.5t-6.5 -17.5l-2 -7q4 8 43 45q31 31 96.5 54.5t133.5 23.5h34q156 0 266.5 -119t110.5 -295v-330q0 -176 -110.5 -293.5t-266.5 -117.5h-34q-68 0 -133.5 22.5 t-96.5 55.5q-39 35 -43 43l2 -7q2 -6 6.5 -16t8.5 -22.5t6 -24.5t2 -21l2 -524q0 -12 -9.5 -20t-19.5 -8h-293q-12 0 -20 8t-8 20zM461 365q0 -80 84 -80h104q68 0 100.5 31.5t32.5 113.5v272q0 82 -32.5 114t-100.5 32h-104q-84 0 -84 -80v-403z" />
<glyph unicode="&#xff;" horiz-adv-x="1024" d="M-10 1094q-6 16 1 28.5t25 12.5h260q29 0 37 -29l174 -559q18 -55 23 -123q8 70 25 125l174 557q8 27 36 29h261q18 0 25 -12.5t1 -28.5l-444 -1280q-57 -168 -151.5 -243t-239.5 -75h-54q-31 0 -30 33v238q0 27 24 26h103q39 0 56 21.5t32 66.5l32 107q0 2 20 16l21 14 q-37 -6 -39 5zM158 1257v209q0 33 32 33h203q33 0 33 -33v-209q0 -33 -33 -32h-203q-33 0 -32 32zM612 1257v209q0 33 33 33h205q33 0 33 -33v-209q0 -33 -33 -32h-205q-33 0 -33 32z" />
<glyph unicode="&#x152;" horiz-adv-x="1804" d="M92 403v611q0 168 120 287.5t282 119.5h1194q27 0 26 -24v-258q0 -27 -26 -27h-463q-6 0 -14.5 2t-15.5 4t-13 5t-11.5 6.5t-8.5 5.5t-5 4t-3 2t1 -2t3 -6.5t3 -8.5t4 -9t3 -10t2 -11.5t1 -10.5v-178q0 -4 -1 -10t-2 -11t-3 -10.5t-4 -8.5t-3 -6t-3 -5l-2 -2l3 1q3 1 6 3 t8.5 5t11.5 6t13 5t15.5 3.5t14.5 1.5h409q27 0 27 -27v-219q0 -27 -27 -27h-409q-6 0 -14.5 1t-15.5 4t-13 6t-11.5 6.5t-8.5 5.5t-6 3l-3 1q18 -41 18 -58v-235q0 -12 -18 -57l3 2l6 4t8.5 5t11.5 6t13 5t15.5 4t14.5 2h497q27 0 27 -26v-256q0 -27 -27 -27h-1228 q-164 0 -283 119t-119 284zM444 442q0 -74 32.5 -103.5t98.5 -29.5h144q51 0 75.5 20.5t24.5 80.5v602q0 59 -23.5 80.5t-74.5 21.5h-146q-66 0 -98.5 -30.5t-32.5 -106.5v-535z" />
<glyph unicode="&#x153;" horiz-adv-x="1798" d="M59 420v289q0 182 122 309t296 127h168q145 0 258 -90q113 90 254 90h172q176 0 297 -129t121 -311v-209q0 -27 -27 -27l-585 -2q-47 0 -70 16q14 -25 14 -43v-47q-2 -113 101 -112h141q68 0 70 55v12q4 20 26 21h283q29 0 24 -29l-2 -8q-23 -141 -126 -242.5 t-238 -101.5h-201q-143 0 -254 90q-113 -90 -254 -90h-176q-172 0 -293 126t-121 306zM399 424q0 -82 32 -112.5t99 -30.5h62q68 0 99.5 30.5t31.5 112.5v278q0 82 -32 114t-99 32h-62q-68 0 -99.5 -32t-31.5 -114v-278zM1063 676q27 14 72 14h219q45 0 71 -14 q-14 35 -14 55v43q0 37 -23.5 57.5t-62.5 20.5h-162q-39 0 -61.5 -20.5t-22.5 -57.5v-43q0 -25 -16 -55z" />
<glyph unicode="&#x178;" horiz-adv-x="1107" d="M-78 1410.5q6 10.5 27 10.5h303q27 0 39 -22l235 -492q4 -8 7.5 -19t6.5 -22.5l6 -23t4 -19.5t2 -14l1 -6l1 6q1 6 3 14t4 19.5t5 21.5t6 21.5t8 19.5l237 494q10 23 39 22h303q18 0 25.5 -10t-0.5 -29l-434 -837q-6 -10 -29 -33l2 -2q8 -18 8 -29v-448q0 -33 -33 -33 h-290q-33 0 -33 33v448q0 10 10 29v2q-25 27 -27 33l-434 837q-8 18 -2 28.5zM195 1548v195q0 31 32 31h205q33 0 33 -31v-195q0 -33 -33 -32h-205q-33 0 -32 32zM649 1548v195q0 31 33 31h203q33 0 33 -31v-195q0 -33 -33 -32h-203q-33 0 -33 32z" />
<glyph unicode="&#x2c6;" horiz-adv-x="782" d="M41 1289q-6 9 2 20l186 264q18 27 33 26h258q14 0 33 -26l186 -264q8 -10 2 -19.5t-20 -9.5h-170q-18 0 -35 18l-113 111q-10 10 -12 16q-2 -6 -12 -16l-113 -111q-18 -18 -35 -18h-172q-12 0 -18 9z" />
<glyph unicode="&#x2dc;" horiz-adv-x="821" d="M80 1305q18 117 78.5 178t138.5 61q70 0 141 -61q4 -4 8 -6q43 -37 74 -37q23 0 40.5 16.5t23.5 38.5q6 25 26 25h107q29 0 24 -27q-16 -117 -76.5 -179.5t-138.5 -62.5q-70 0 -143 64q-2 2 -8 6q-43 37 -72 37q-25 0 -42 -17.5t-21 -40.5q-8 -25 -29 -24h-105 q-31 0 -26 29z" />
<glyph unicode="&#x2000;" horiz-adv-x="926" />
<glyph unicode="&#x2001;" horiz-adv-x="1853" />
<glyph unicode="&#x2002;" horiz-adv-x="926" />
<glyph unicode="&#x2003;" horiz-adv-x="1853" />
<glyph unicode="&#x2004;" horiz-adv-x="617" />
<glyph unicode="&#x2005;" horiz-adv-x="463" />
<glyph unicode="&#x2006;" horiz-adv-x="308" />
<glyph unicode="&#x2007;" horiz-adv-x="308" />
<glyph unicode="&#x2008;" horiz-adv-x="231" />
<glyph unicode="&#x2009;" horiz-adv-x="370" />
<glyph unicode="&#x200a;" horiz-adv-x="102" />
<glyph unicode="&#x2010;" horiz-adv-x="790" d="M117 506v192q0 29 26 29h504q27 0 27 -29v-192q0 -27 -27 -27h-504q-27 0 -26 27z" />
<glyph unicode="&#x2011;" horiz-adv-x="790" d="M117 506v192q0 29 26 29h504q27 0 27 -29v-192q0 -27 -27 -27h-504q-27 0 -26 27z" />
<glyph unicode="&#x2012;" horiz-adv-x="790" d="M117 506v192q0 29 26 29h504q27 0 27 -29v-192q0 -27 -27 -27h-504q-27 0 -26 27z" />
<glyph unicode="&#x2013;" horiz-adv-x="1155" d="M117 506v194q0 27 24 27h873q25 0 24 -27v-194q0 -27 -24 -27h-873q-25 0 -24 27z" />
<glyph unicode="&#x2014;" horiz-adv-x="1374" d="M117 506v194q0 27 24 27h1090q27 0 26 -27v-194q0 -27 -26 -27h-1090q-25 0 -24 27z" />
<glyph unicode="&#x2018;" horiz-adv-x="552" d="M131 1153v223v97q0 98 57.5 158.5t147.5 62.5h55q18 0 19 -19v-106q0 -14 -15 -15h-20q-31 -2 -42 -19t-11 -65v-61h65q33 0 33 -33v-223q0 -33 -33 -33h-223q-33 0 -33 33z" />
<glyph unicode="&#x2019;" horiz-adv-x="501" d="M147 1438v223q0 33 33 33h226q33 0 32 -33v-223v-2v-97q0 -98 -57 -157.5t-150 -61.5h-53q-18 0 -18 19v104q0 14 14 14l19 3q31 0 43 18t12 65v60h-68q-33 0 -33 35z" />
<glyph unicode="&#x201a;" horiz-adv-x="552" d="M133 37v223q0 35 33 35h223q33 0 33 -35v-223v-96q0 -98 -57.5 -159t-147.5 -63h-55q-18 0 -19 19v106q0 14 15 15h20q31 2 42 19.5t11 64.5v61h-65q-33 0 -33 33z" />
<glyph unicode="&#x201c;" horiz-adv-x="956" d="M137 1151v223v2v97q0 98 57.5 157.5t149.5 61.5h53q18 0 19 -19v-104q0 -14 -15 -17h-18q-31 0 -43 -18t-12 -66v-59h67q33 0 33 -35v-223q0 -33 -33 -33h-225q-33 0 -33 33zM541 1151v223v2v97q0 98 57 157.5t150 61.5h53q18 0 18 -19v-104q0 -14 -14 -17h-19 q-31 0 -43 -18t-12 -66v-59h68q33 0 32 -35v-223q0 -33 -32 -33h-226q-33 0 -32 33z" />
<glyph unicode="&#x201d;" horiz-adv-x="956" d="M125 1436v221q0 35 33 35h225q33 0 33 -35v-221v-2v-97q0 -98 -57.5 -157.5t-149.5 -61.5h-53q-18 0 -19 19v104q0 14 15 14h18q31 2 43 20.5t12 65.5v60h-67q-33 0 -33 35zM528 1436v221q0 35 33 35h225q33 0 33 -35v-221v-2v-97q0 -98 -57 -157.5t-150 -61.5h-53 q-18 0 -18 19v104q0 14 14 14h18q31 2 43.5 20.5t12.5 65.5v60h-68q-33 0 -33 35z" />
<glyph unicode="&#x201e;" horiz-adv-x="954" d="M133 39v221q0 35 33 35h223q33 0 33 -35v-221v-2v-96q0 -98 -57.5 -157.5t-147.5 -62.5h-55q-18 0 -19 19v104q0 14 15 15h20q31 2 42 20.5t11 65.5v59h-65q-33 0 -33 35zM532 39v221q0 35 33 35h226q33 0 32 -35v-221v-2v-96q0 -98 -57 -157.5t-150 -62.5h-53 q-18 0 -18 19v104q0 14 14 15h19q31 2 43 20.5t12 65.5v59h-68q-33 0 -33 35z" />
<glyph unicode="&#x2022;" horiz-adv-x="925" d="M104 774q0 156 105 266.5t252 110.5q150 0 255 -110.5t105 -266.5q0 -152 -105.5 -261.5t-254.5 -109.5q-147 0 -252 110t-105 261z" />
<glyph unicode="&#x2026;" horiz-adv-x="1568" d="M137 37v223q0 33 33 33h225q33 0 33 -33v-223q0 -33 -33 -33h-225q-33 0 -33 33zM643 37v223q0 33 33 33h223q33 0 33 -33v-223q0 -33 -33 -33h-223q-33 0 -33 33zM1143 37v223q0 33 33 33h223q33 0 33 -33v-223q0 -33 -33 -33h-223q-33 0 -33 33z" />
<glyph unicode="&#x202f;" horiz-adv-x="370" />
<glyph unicode="&#x2039;" horiz-adv-x="569" d="M135 479v236q0 23 21 43l270 256q8 8 17.5 2t9.5 -21v-239q0 -16 -17 -35l-110 -113q-6 -6 -6.5 -12t6.5 -12l110 -113q16 -18 17 -35v-239q0 -14 -9.5 -20.5t-17.5 1.5l-270 256q-20 20 -21 45z" />
<glyph unicode="&#x203a;" horiz-adv-x="569" d="M135 197v239q0 16 17 35l110 113q8 6 8 12t-8 12l-110 113q-16 18 -17 35v239q0 14 9.5 20.5t17.5 -1.5l270 -256q20 -20 21 -43v-236q0 -25 -21 -45l-270 -256q-8 -8 -17.5 -1.5t-9.5 20.5z" />
<glyph unicode="&#x205f;" horiz-adv-x="463" />
<glyph unicode="&#x20ac;" horiz-adv-x="1320" d="M119 500v143q0 29 24 29h70v78h-70q-25 0 -24 26v144q0 27 24 26h70v80q0 168 119 289t280 121h254q162 0 282 -121t120 -289v-74q0 -25 -27 -24h-299q-27 0 -27 24v39q0 76 -33.5 105.5t-99.5 29.5h-86q-68 0 -100.5 -29.5t-30.5 -105.5v-45h234q25 0 24 -26v-144 q0 -27 -24 -26h-234v-78h234q25 0 24 -29v-143q0 -27 -24 -27h-234v-45q0 -74 33 -103.5t98 -29.5h88q66 0 98.5 29.5t32.5 103.5v39q0 27 27 27h299q27 0 27 -27v-74q0 -166 -119 -284.5t-283 -118.5h-254q-162 0 -280.5 118.5t-118.5 284.5v80h-70q-25 0 -24 27z" />
<glyph unicode="&#x2122;" horiz-adv-x="1716" d="M74 1296v138q0 18 28 18h527q29 0 28 -18v-138q0 -20 -28 -20h-133q-12 0 -27 6q4 -12 4 -18v-596q0 -18 -29 -19h-159q-29 0 -29 19v596q0 6 6 18q-16 -6 -29 -6h-131q-29 0 -28 20zM743 668v766q0 18 29 18h186q25 0 31 -14l174 -441l4 -8q0 4 2 8l174 441q6 14 31 14 h187q29 0 28 -18v-766q0 -18 -28 -19h-160q-29 0 -29 19l-2 362l-135 -368q-4 -12 -25 -13h-86q-23 0 -26 13l-135 368l-2 -362q0 -18 -29 -19h-160q-29 0 -29 19z" />
<glyph unicode="&#x25fc;" horiz-adv-x="1135" d="M0 0v1135h1135v-1135h-1135z" />
</font>
</defs>
</svg>
