<svg version="1.1" class="ui header-logo" xmlns="http://www.w3.org/2000/svg" xmlns:xlink="http://www.w3.org/1999/xlink" x="0px" y="0px" viewBox="0 0 100 22.1" xml:space="preserve">
	<g>
		<path d="M35.4,22.1c-0.2,0-0.4,0-0.6-0.1c-5.3-0.1-10.5-1.1-15.5-2.9c-3-1-6-2.3-8.8-3.8c-1.8-1-3.6-2.1-5.5-3.1
			c-0.1,0-0.2-0.1-0.2-0.2c0.4,0.2,0.9,0.4,1.3,0.7c4.6,2.4,9.4,4.2,14.5,5.2c1.8,0.4,3.6,0.6,5.4,0.8c2,0.3,4.1,0.4,6.1,0.3
			c1.9-0.1,3.8-0.2,5.7-0.3c3.3-0.3,6.6-0.9,9.8-1.5c2.7-0.5,5.4-1.1,8.2-1.6c2.7-0.5,5.4-1,8.2-1.4c3.3-0.5,6.6-0.7,10-0.6
			c5.1,0.1,10.1,1.1,14.9,2.7c3.6,1.3,7.1,2.9,10.4,4.8c0.3,0.1,0.5,0.3,0.8,0.4c0,0.1,0,0.3,0,0.4c-1.5-0.7-3-1.4-4.6-2
			c-3.2-1.3-6.4-2.1-9.8-2.7c-3.6-0.6-7.2-0.8-10.8-0.6c-2.4,0.2-4.8,0.3-7.2,0.7c-3.3,0.5-6.6,1.1-9.8,1.8
			c-4.3,0.9-8.6,1.8-12.9,2.3c-2.2,0.3-4.3,0.4-6.5,0.5c-0.3,0-0.6,0-0.9,0.1C36.9,22.1,36.1,22.1,35.4,22.1z"/>
		<path d="M22.7,0c0.2,0.1,0.5,0.1,0.7,0.2c0.7,0.2,0.9,0.7,0.6,1.4c-0.3,0.5-0.5,1-0.9,1.4c-0.2,0.3-0.5,0.4-0.8,0.7
			c0.3,0.3,0.2,0.7,0,1c-0.4,0.6-0.6,1.3-1.2,1.8c-0.8,0.6-1.6,0.8-2.6,0.8c-1.9,0-3.8,0-5.7,0c0,0-0.1,0-0.2,0
			c0-0.1,0.1-0.2,0.1-0.2c1.3-2.3,2.6-4.5,3.9-6.8c0-0.1,0.1-0.1,0.1-0.2C18.7,0,20.7,0,22.7,0z M20.8,4.3c-0.2,0-0.4-0.1-0.6-0.1
			c-1.1,0-2.1,0.1-3.2,0c-0.8-0.1-1.3,0.2-1.6,0.9c-0.1,0.3-0.3,0.5-0.4,0.8c1.5,0,2.9,0,4.3,0c0.3,0,0.6-0.1,0.8-0.3
			C20.4,5.2,20.5,4.8,20.8,4.3z M16.8,2.8c0.1,0,0.1,0,0.1,0c1.3,0,2.6,0,3.8,0c0.9,0,1.4-0.4,1.6-1.4c-0.2,0-0.3-0.1-0.5-0.1
			c-1.3,0-2.7,0-4,0c-0.1,0-0.2,0-0.2,0.1C17.3,1.9,17,2.4,16.8,2.8z"/>
		<path d="M64.9,0c-0.1,0.1-0.1,0.2-0.2,0.3C62.9,2.2,61,4,59.2,5.9c-0.4,0.4-0.7,0.7-1.1,1.1c-0.2,0.2-0.3,0.3-0.6,0.2
			c-0.3,0-0.5,0-0.9,0c0.1-1.7,0.3-3.3,0.4-5c-0.4,0.4-0.8,0.8-1.2,1.1c-1.2,1.2-2.4,2.3-3.5,3.5c-0.3,0.3-0.5,0.4-0.9,0.4
			c-0.2,0-0.4,0-0.7,0c0-0.5,0.1-1.1,0.1-1.6C51,4,51.2,2.3,51.3,0.5c0-0.2,0.1-0.4,0.1-0.5c0.5,0,1,0,1.5,0
			c-0.1,1.7-0.3,3.3-0.4,5.1c0.2-0.1,0.3-0.2,0.3-0.3C53.5,4,54.2,3.3,55,2.6c0.9-0.9,1.7-1.7,2.6-2.6c0.4,0,0.8,0,1.2,0
			c-0.1,1.7-0.3,3.3-0.4,4.9c1.6-1.6,3.3-3.2,5-4.9C63.9,0,64.4,0,64.9,0z"/>
		<path d="M50.9,0c-0.2,0.4-0.4,0.8-0.6,1.2c0,0.1-0.2,0.1-0.4,0.1c-1.7,0-3.5,0-5.2,0c-0.2,0-0.4,0.1-0.5,0.3
			C44,2,43.8,2.4,43.6,2.8c1.8,0,3.6,0,5.5,0c-0.2,0.5-0.4,0.9-0.7,1.2c0,0.1-0.2,0.1-0.3,0.1c-1.6,0-3.3,0-4.9,0
			c-0.2,0-0.4,0.1-0.5,0.3c-0.3,0.5-0.5,1-0.9,1.5c2,0,3.9,0,5.8,0c-0.3,0.5-0.5,0.9-0.7,1.2c0,0.1-0.1,0.1-0.2,0.1
			c-2.4,0-4.7,0-7.1,0c0,0-0.1,0-0.1,0c0.1-0.2,0.2-0.3,0.2-0.5c1.2-2.2,2.4-4.3,3.6-6.5c0-0.1,0.1-0.2,0.1-0.3C45.9,0,48.4,0,50.9,0
			z"/>
		<path d="M87.3,0c-0.2,0.4-0.4,0.8-0.6,1.3c0,0.1-0.2,0.1-0.4,0.1c-1.7,0-3.4,0-5.2,0c-0.3,0-0.4,0.1-0.5,0.3
			c-0.2,0.4-0.3,0.7-0.5,1.1c1.8,0,3.6,0,5.5,0C85.4,3.2,85.2,3.6,85,4c0,0.1-0.2,0.1-0.3,0.1c-1.6,0-3.2,0-4.9,0
			c-0.3,0-0.4,0.1-0.5,0.3c-0.2,0.5-0.5,1-0.8,1.5c2,0,3.9,0,5.8,0c-0.2,0.4-0.4,0.8-0.6,1.2c0,0.1-0.1,0.1-0.2,0.1
			c-2.4,0-4.8,0-7.2,0c0,0,0,0-0.1,0c1.2-2.4,2.5-4.8,3.7-7.2C82.4,0,84.8,0,87.3,0z"/>
		<path d="M35.2,0c0,0.1-0.1,0.3-0.1,0.4c-0.9,1.6-1.8,3.3-2.8,4.9c-0.3,0.5-0.2,0.6,0.4,0.6c1.4,0,2.7,0,4.1,0c0.5,0,1-0.2,1.3-0.7
			c0.9-1.7,1.9-3.4,2.8-5.2c0.5,0,1.1,0,1.6,0c-0.2,0.3-0.3,0.7-0.5,1c-0.8,1.4-1.6,2.8-2.4,4.3c-0.7,1.2-1.7,1.8-3.1,1.9
			c-1.6,0.1-3.2,0-4.9,0c-0.1,0-0.2,0-0.2,0c-1-0.2-1.4-0.8-0.9-1.8c0.9-1.7,1.9-3.4,2.8-5c0.1-0.1,0.1-0.3,0.2-0.4
			C34.1,0,34.6,0,35.2,0z"/>
		<path d="M79.5,0c-0.1,0.1-0.1,0.2-0.2,0.3c-1.9,1.7-3.9,3.3-5.8,4.9c-0.7,0.6-1.5,1.2-2.2,1.9c-0.1,0.1-0.3,0.2-0.5,0.2
			c-0.3,0-0.6,0-0.9,0c-0.1-0.6-0.2-1.2-0.3-1.8c-0.2-1.7-0.5-3.4-0.7-5.1c0-0.1,0-0.2,0-0.3c0.6,0,1.1,0,1.7,0
			c0.1,0.8,0.2,1.7,0.4,2.5c0.1,1,0.2,2,0.4,3c0.1-0.1,0.2-0.1,0.2-0.2c1.1-0.9,2.2-1.9,3.3-2.8c1-0.8,1.9-1.7,2.9-2.5
			C78.3,0,78.9,0,79.5,0z"/>
		<path d="M67.6,0c0.1,0.4,0.2,0.9,0.2,1.3c0.3,1.8,0.5,3.6,0.7,5.5c0,0.1,0,0.3,0,0.5c-0.5,0-0.9,0-1.4,0c-0.1,0-0.2-0.1-0.2-0.2
			c-0.2-1.7-0.4-3.4-0.6-5c0,0,0-0.1,0-0.2C66,2.2,65.6,2.6,65.2,3c-1.2,1.2-2.4,2.4-3.6,3.5c0,0,0,0,0,0c-0.2,0.2-0.4,0.6-0.7,0.6
			c-0.5,0.1-1,0-1.4,0c2.3-2.4,4.7-4.8,7.1-7.2C66.9,0,67.3,0,67.6,0z"/>
		<path d="M27.6,0c-0.1,0.2-0.1,0.3-0.2,0.5c-1,1.7-1.9,3.4-2.9,5.1c0,0.1-0.1,0.2-0.2,0.3c1.9,0,3.7,0,5.6,0
			c-0.3,0.5-0.5,0.9-0.7,1.3c0,0.1-0.2,0.1-0.2,0.1c-2.3,0-4.6,0-6.9,0c0,0-0.1,0-0.1,0C23.3,4.8,24.6,2.4,26,0C26.5,0,27.1,0,27.6,0
			z"/>
		<path d="M93.6,0c0,0.8,0,1.5,0,2.3c-0.2,0-0.4,0-0.6,0c0-0.6,0-1.1,0-1.7c0,0-0.1,0-0.1,0c-0.1,0.3-0.3,0.6-0.4,0.9
			c-0.1,0.2-0.1,0.2-0.3,0.2c-0.2,0-0.3-0.1-0.3-0.3c-0.1-0.3-0.3-0.7-0.5-1c0,0.6,0,1.2,0,1.7c-0.5,0.1-0.6,0.1-0.6-0.4
			c0-0.6,0-1.3,0-1.9c0.3,0,0.7,0,1,0c0.1,0.3,0.2,0.7,0.4,1.1c0.2-0.4,0.3-0.8,0.5-1.1C93,0,93.3,0,93.6,0z"/>
		<path d="M90.4,0c0,0.2,0,0.3,0,0.5c-0.2,0-0.4,0-0.6,0c0,0.6,0,1.2,0,1.8c-0.2,0-0.4,0-0.6,0c0-0.6,0-1.2,0-1.8c-0.2,0-0.4,0-0.6,0
			c0-0.2,0-0.4,0-0.5C89.2,0,89.8,0,90.4,0z"/>
		<path d="M0,7.5c0.4,0.2,0.8,0.4,1.2,0.6c4.5,2.3,9.3,4.1,14.2,5.2c1.9,0.4,3.8,0.7,5.7,0.9c2,0.2,4,0.3,6.1,0.3
			c2.1,0,4.2-0.2,6.3-0.4c4.7-0.5,9.4-1.5,14.1-2.4c3.2-0.7,6.5-1.3,9.8-1.8c2.6-0.4,5.2-0.7,7.9-0.8C67.7,9,70,9,72.4,9.2
			c4.6,0.4,9,1.5,13.3,3.2c2.8,1.1,5.4,2.3,8,3.8c1.2,0.7,2.4,1.4,3.6,2.1c0,0,0,0.1,0,0.1c-0.1-0.1-0.2-0.1-0.3-0.2
			c-3-1.6-6.2-2.9-9.4-3.9c-2.4-0.7-4.8-1.3-7.2-1.7c-2.7-0.4-5.5-0.6-8.3-0.6c-2.7,0-5.4,0.2-8.1,0.6c-4.4,0.6-8.7,1.5-13,2.4
			c-2.8,0.6-5.5,1.1-8.3,1.5c-1.7,0.3-3.5,0.5-5.2,0.6c-1.7,0.1-3.4,0.3-5,0.3c-5.5,0.1-10.9-0.7-16.1-2.3C13,14.2,10,13,7,11.5
			c-2.3-1.2-4.6-2.5-6.8-3.9C0.1,7.6,0.1,7.6,0,7.5C0,7.5,0,7.5,0,7.5z"/>
	</g>
</svg>
