<svg class="ui icon" xmlns="http://www.w3.org/2000/svg" viewBox="0 0 100 100"><title>air-control</title><g id="air-quality"><path d="M70.5,62.5c-9.15,0-16.08-3.74-22.79-7.35C41.37,51.73,35.38,48.5,27.5,48.5c-8.85,0-12.63,3.84-17,8.29l-1.09,1.1a5.5,5.5,0,0,1-7.78-7.78c.35-.34.69-.69,1-1C7.46,44.18,14.05,37.5,27.5,37.5c10.65,0,18.51,4.23,25.43,8,6,3.23,11.19,6,17.57,6,9.83,0,13.63-3.84,18.89-9.16l1.22-1.23a5.5,5.5,0,0,1,7.78,7.78l-1.17,1.18C91.46,55.9,84.93,62.5,70.5,62.5Z"/><path d="M70.5,34.5c-9.15,0-16.08-3.74-22.79-7.35C41.37,23.73,35.38,20.5,27.5,20.5c-8.85,0-12.63,3.84-17,8.29l-1.09,1.1a5.5,5.5,0,0,1-7.78-7.78c.35-.34.69-.69,1-1.05C7.46,16.18,14.05,9.5,27.5,9.5c10.65,0,18.51,4.23,25.43,8,6,3.23,11.19,6,17.57,6,9.83,0,13.63-3.84,18.89-9.16l1.22-1.23a5.5,5.5,0,0,1,7.78,7.78l-1.17,1.18C91.46,27.9,84.93,34.5,70.5,34.5Z"/><path d="M70.5,90.5c-9.15,0-16.08-3.74-22.79-7.35C41.37,79.73,35.38,76.5,27.5,76.5c-8.85,0-12.63,3.84-17,8.29l-1.09,1.1a5.5,5.5,0,0,1-7.78-7.78c.35-.34.69-.69,1-1C7.46,72.18,14.05,65.5,27.5,65.5c10.65,0,18.51,4.23,25.43,8,6,3.23,11.19,6,17.57,6,9.83,0,13.63-3.84,18.89-9.16l1.22-1.23a5.5,5.5,0,0,1,7.78,7.78l-1.17,1.18C91.46,83.9,84.93,90.5,70.5,90.5Z"/></g></svg>