<svg class="ui icon" xmlns="http://www.w3.org/2000/svg" viewBox="0 0 100 100"><g><path d="M5.86,62.86A43.91,43.91,0,0,1,0,41.42,45,45,0,0,1,2.4,25a67,67,0,0,1,4.26-9c.27-.35.39-.31,2,.65l1.74,1-.61,1A43,43,0,0,0,4.48,33.86a52.18,52.18,0,0,0,0,12.49A43.31,43.31,0,0,0,9.05,60.12c.66,1.24,1.21,2.33,1.21,2.41A6.82,6.82,0,0,1,9,63.39c-.71.42-1.46.89-1.7,1C6.91,64.65,6.85,64.58,5.86,62.86Z"/><path d="M91.56,63.71c-.87-.53-1.63-1-1.7-1.08A13.79,13.79,0,0,1,91.06,60a37.94,37.94,0,0,0,3.49-8.82,36.88,36.88,0,0,0,1.39-11A39.52,39.52,0,0,0,93.6,25.89a45.92,45.92,0,0,0-3.47-7.44l-.51-.79,1.74-1.05c2.06-1.24,1.72-1.45,3.57,2.15A45.36,45.36,0,0,1,99.54,32.3a34.86,34.86,0,0,1,.46,7.64c0,5.5-.18,7.28-1.25,11.51A49.38,49.38,0,0,1,93.6,63.93l-.46.72Z"/><path d="M14.78,58.05a35.75,35.75,0,0,1-1.19-33.67c.61-1.19,1.29-2.51,1.55-2.9l.47-.73,1.57.95c.87.53,1.64,1,1.7,1.08a11,11,0,0,1-1.11,2.42,32.36,32.36,0,0,0-3.11,8.6,24.39,24.39,0,0,0-.44,6.34,25,25,0,0,0,.42,6,35.61,35.61,0,0,0,3.09,8.57l1.33,2.62-1.7,1c-.92.53-1.71,1-1.75,1A8.61,8.61,0,0,1,14.78,58.05Z"/><path d="M82.62,58.35l-1.62-1,1.33-2.62a34.76,34.76,0,0,0,3.09-8.51,24.78,24.78,0,0,0,.43-6.31c0-3.72-.06-4.61-.45-6.32a33.76,33.76,0,0,0-3.11-8.42,11.63,11.63,0,0,1-1.11-2.42c.06-.08.83-.55,1.7-1.08l1.57-.95.47.73a46,46,0,0,1,3.35,7.15,35.66,35.66,0,0,1-2.28,28,13.88,13.88,0,0,1-1.54,2.65A10.77,10.77,0,0,1,82.62,58.35Z"/><path d="M87.06,78.76,53.6,22a4.06,4.06,0,0,0-7.05,0L13.09,78.76a3,3,0,0,0,0,4,3.8,3.8,0,0,0,3.52,2H83.53a3.82,3.82,0,0,0,3.53-2A3.64,3.64,0,0,0,87.06,78.76ZM54.18,72.89q0,1-1.17,1H47a.91.91,0,0,1-1-1v-6a.92.92,0,0,1,1-1h6c.78,0,1.17.35,1.17,1Zm0-22.31a8.82,8.82,0,0,1-.29,2.05L52.13,62a1.19,1.19,0,0,1-1.18,1H49.34c-.79,0-1.17-.34-1.17-1l-1.91-9.25a8.86,8.86,0,0,1-.3-2.2V45.44q0-1.32,1.47-1.32h5.28q1.47,0,1.47,1.32Z"/></g></svg>