<svg class="ui icon" xmlns="http://www.w3.org/2000/svg" viewBox="0 0 100 100"><path d="M99.22,85.06,54.81,9.68a5.37,5.37,0,0,0-9.35,0L1.05,85.06a4.06,4.06,0,0,0,0,5.26,5.06,5.06,0,0,0,4.68,2.73H94.55a5.06,5.06,0,0,0,4.67-2.73A4.82,4.82,0,0,0,99.22,85.06ZM55.59,77.27c0,.91-.52,1.36-1.56,1.36h-8a1.21,1.21,0,0,1-1.37-1.36v-8a1.21,1.21,0,0,1,1.37-1.36h8c1,0,1.56.46,1.56,1.36Zm0-29.61a11.46,11.46,0,0,1-.39,2.73L52.86,62.86c-.26.91-.77,1.36-1.55,1.36H49.16c-1,0-1.55-.45-1.55-1.36L45.07,50.58a12,12,0,0,1-.39-2.92V40.85c0-1.17.65-1.76,2-1.76h7c1.3,0,2,.59,2,1.76Z"/></svg>