<svg class="ui icon" xmlns="http://www.w3.org/2000/svg" viewBox="0 0 100 100"><title>batteries</title><g id="batteries"><path d="M98,84V30H2V84a2.51,2.51,0,0,0-2,2.45v.09A2.5,2.5,0,0,0,2.5,89h95a2.5,2.5,0,0,0,2.5-2.5v-.09A2.51,2.51,0,0,0,98,84ZM7,45.16a3.7,3.7,0,0,1,3.67-3.74H89.33A3.7,3.7,0,0,1,93,45.16V75a3.7,3.7,0,0,1-3.67,3.74H10.67A3.7,3.7,0,0,1,7,75Z"/><path d="M98,19H94V18a2,2,0,0,0-2-2V12.29A2.3,2.3,0,0,0,89.71,10H83.29A2.3,2.3,0,0,0,81,12.29V16a2,2,0,0,0-2,2v1H76V13.92A3.91,3.91,0,0,0,72.08,10H27.92A3.91,3.91,0,0,0,24,13.92V19H21V18a2,2,0,0,0-2-2V12.29A2.3,2.3,0,0,0,16.71,10H10.29A2.3,2.3,0,0,0,8,12.29V16a2,2,0,0,0-2,2v1H2a2,2,0,0,0-2,2V26a2,2,0,0,0,2,2H98a2,2,0,0,0,2-2V21A2,2,0,0,0,98,19Z"/><rect x="10" y="44" width="11.41" height="32" rx="2.04"/><rect x="23.72" y="44" width="11.41" height="32" rx="2.04"/><rect x="37.44" y="44" width="11.41" height="32" rx="2.04"/><rect x="51.15" y="44" width="11.41" height="32" rx="2.04"/></g></svg>