<svg class="ui icon" xmlns="http://www.w3.org/2000/svg" viewBox="0 0 100 100"><path d="M26.39,0h30V29.58c-1.67,0-3.3,0-4.94,0-1,0-2.28.29-3-.2s-.39-1.77-.54-2.71c-.11-.66-.22-1.32-.37-2.2.93,0,1.77,0,2.6,0s1.07-.32,1.07-1.05q0-8.74,0-17.49c0-.71-.34-1-1-1Q41.35,5,32.49,5c-.76,0-1.05.27-1.05,1q0,8.67,0,17.36c0,.82.27,1.16,1.12,1.1s1.68,0,2.58,0c-.17,1.55-.27,2.94-.5,4.31a1.2,1.2,0,0,1-.88.75c-2.42.07-4.84,0-7.38,0Zm15,21.54a6.8,6.8,0,1,1,0-13.6,6.91,6.91,0,0,1,6.86,6.8A6.9,6.9,0,0,1,41.41,21.54ZM75.08,84.71c0,2.71-.9,5.09-3.44,6.58A2.07,2.07,0,0,0,71,92.81c-.07,1.91,0,3.82,0,5.74V100H36.72c.62-4.37-2.15-7.37-3.84-10.72-2.25-4.48-4.81-8.8-7.11-13.26a8.54,8.54,0,0,1-.83-3.67c-.09-5.74-.05-11.49,0-17.23,0-2.75,1.34-4.5,3.51-4.68,3.84-.31,5.72.8,6.11,3.92a53.91,53.91,0,0,1,.22,6.1c0,2.81,0,5.62,0,8.43A2.41,2.41,0,0,0,34.94,70a1.38,1.38,0,0,0,1,.66c.3,0,.72-.41.86-.73a3.94,3.94,0,0,0,.11-1.38q0-19.55,0-39.07a16.18,16.18,0,0,1,.32-3.55,3.23,3.23,0,0,1,1.18-1.85A5.72,5.72,0,0,1,44.05,24c1.52.7,1.89,2.24,1.89,3.78,0,5.36,0,10.72,0,16.09A12.08,12.08,0,0,0,46,46.26a1.76,1.76,0,0,0,1,1.17c.71.22,1.08-.33,1.09-1,0-1.28.11-2.55,1.59-3a5.31,5.31,0,0,1,5.08.72A3,3,0,0,1,55.6,46c.16,1.3,0,2.64.18,3.95a1.67,1.67,0,0,0,1,1.18c.67.17,1-.35,1.06-1.08.27-2.64,1.2-3.45,3.71-3.35s3.93,1.41,4,3.84a28.36,28.36,0,0,0,.05,3.06c.06.42.59.77.91,1.15.39-.35,1-.64,1.14-1.06.57-2.34,1.29-2.87,4-2.69a3.47,3.47,0,0,1,3.53,3.47C75.12,64.54,75.14,74.63,75.08,84.71Z"/></svg>