<svg class="ui icon" xmlns="http://www.w3.org/2000/svg" viewBox="0 0 100 100"><defs></defs><title>camera</title><g id="camera"><path d="M50,28.33a14.45,14.45,0,0,0-8.68,2.9h.2a6.5,6.5,0,1,1-5.84,9.31,14.84,14.84,0,0,0-.2,2.33A14.52,14.52,0,1,0,50,28.33Z"/><path d="M79.09,79.45a46.69,46.69,0,0,1-58.18,0C14.75,81.64,11,84.51,11,87.67,11,94.48,28.46,100,50,100s39-5.52,39-12.33C89,84.51,85.25,81.64,79.09,79.45Z"/><path d="M50,.05A42.81,42.81,0,1,0,92.81,42.86,42.81,42.81,0,0,0,50,.05Zm0,3.51a39.12,39.12,0,0,1,14.83,2.9A20.7,20.7,0,0,1,50,12.71,20.7,20.7,0,0,1,35.17,6.46,39.12,39.12,0,0,1,50,3.56Zm0,62.5a23.21,23.21,0,1,1,23.21-23.2A23.21,23.21,0,0,1,50,66.06Z"/></g></svg>