<svg class="ui icon" xmlns="http://www.w3.org/2000/svg" viewBox="0 0 100 100"><path d="M100,8V91.79c-.62,1.73-1.86,2.36-3.68,2.36q-46.2,0-92.4,0C2.11,94.16.79,93.65,0,92V8c.06-.06.15-.12.18-.19A3,3,0,0,1,3.53,5.92,3,3,0,0,1,5.85,9.09c0,1.36,0,2.73,0,4.1v2.52a16,16,0,0,1,1.88-1.25,33.33,33.33,0,0,1,5.11-2.3c3-.88,5.59.42,8,2.14,1.21.87,2.42,1.76,3.61,2.65a3.06,3.06,0,0,0,4,0c1.17-.87,2.36-1.72,3.53-2.59,4.38-3.26,7.86-3.29,12.3-.12,1.19.86,2.35,1.75,3.55,2.59,1.76,1.22,2.56,1.22,4.33,0,1.44-1,2.81-2.1,4.27-3.08,2.14-1.44,4.48-2.41,7.06-1.61A21.2,21.2,0,0,1,68,14.41c1.31.78,2.48,1.78,3.72,2.67a2.85,2.85,0,0,0,3.6,0c1.27-.91,2.52-1.84,3.79-2.75,2.41-1.74,5-3.09,8.05-2.2a32.39,32.39,0,0,1,5.11,2.3,17.22,17.22,0,0,1,1.88,1.21c0-2.4,0-4.64,0-6.88a2.91,2.91,0,0,1,5.5-1.33C99.76,7.65,99.88,7.82,100,8ZM94.14,88.25V31.73c0-2.79,0-5.59,0-8.39,0-.29-.07-.73-.26-.86-2.23-1.44-4.47-2.87-6.76-4.24a3.26,3.26,0,0,0-3.82.33c-1.44,1.05-2.88,2.12-4.34,3.15a8.68,8.68,0,0,1-10.77,0c-1.39-1-2.72-2-4.11-3-2-1.37-2.66-1.36-4.66,0-1.62,1.13-3.18,2.37-4.85,3.42a8,8,0,0,1-8.93.09c-1.76-1.09-3.4-2.39-5.11-3.56-1.93-1.33-2.62-1.33-4.58,0-1.71,1.18-3.34,2.48-5.11,3.56a7.85,7.85,0,0,1-8.67,0,41.34,41.34,0,0,1-4.7-3.3,4.29,4.29,0,0,0-5.69-.25c-1.67,1.13-3.34,2.25-5.07,3.28a1.54,1.54,0,0,0-.86,1.53q0,31.79,0,63.56v1.07Z"/><path d="M47,73.79v-34c-.75.74-1.38,1.39-2.06,2a3,3,0,0,1-4.46-.33,2.89,2.89,0,0,1,.23-3.68q3.57-3.69,7.24-7.25a2.9,2.9,0,0,1,4.21.07q3.59,3.52,7.11,7.12a2.84,2.84,0,0,1,0,4.11,2.93,2.93,0,0,1-4.12,0c-.69-.67-1.35-1.38-2.17-2.23V73.82l2-1.95a3,3,0,0,1,4.33-.19c1.22,1.24,1.13,2.95-.23,4.33q-3.34,3.36-6.7,6.69a3,3,0,0,1-4.64,0Q44.33,79.38,41,76a3,3,0,0,1-.18-4.28,3,3,0,0,1,4.36.17C45.73,72.42,46.28,73,47,73.79Z"/></svg>