<svg class="ui icon" xmlns="http://www.w3.org/2000/svg" viewBox="0 0 100 100"><path d="M100,91.67H0c.64-2.6,1.25-5.15,1.92-7.68.07-.26.5-.47.81-.6a2.19,2.19,0,0,1,.77,0q46.49,0,93,0c1.07,0,1.58.21,1.8,1.39C98.72,87,99.39,89.27,100,91.67Z"/><path d="M68.74,62.53,50,79.21,31.31,62.6H45.74V29.23H40L39.88,29,50,20.84,60.31,29.1H54.24V62.53Z"/><path d="M20.85,16.59c.62-2.52,1.24-4.95,1.81-7.39.15-.68.47-.88,1.16-.87H76.16c.67,0,1,.18,1.16.86.57,2.44,1.19,4.87,1.81,7.4Z"/><path d="M20.84,29.18A4.17,4.17,0,1,1,25,25.06,4.21,4.21,0,0,1,20.84,29.18Z"/><path d="M83.33,25a4.17,4.17,0,1,1-4.27-4.12A4.19,4.19,0,0,1,83.33,25Z"/><path d="M20.81,41.65a4.17,4.17,0,1,1-4.27-4.13A4.2,4.2,0,0,1,20.81,41.65Z"/><path d="M83.27,45.86a4.17,4.17,0,1,1,4.23-4.17A4.21,4.21,0,0,1,83.27,45.86Z"/><path d="M12.48,54.19A4.17,4.17,0,1,1,8.31,58.3,4.21,4.21,0,0,1,12.48,54.19Z"/><path d="M87.5,54.19a4.17,4.17,0,1,1-4.17,4.11A4.21,4.21,0,0,1,87.5,54.19Z"/><path d="M8.2,79.21a4.17,4.17,0,1,1,4.28-4A4.22,4.22,0,0,1,8.2,79.21Z"/><path d="M95.83,75.07a4.17,4.17,0,1,1-4.07-4.2A4.2,4.2,0,0,1,95.83,75.07Z"/></svg>