<svg class="ui icon" xmlns="http://www.w3.org/2000/svg" viewBox="0 0 100 100"><path d="M78,4a8,8,0,0,1,8,8V88a8,8,0,0,1-8,8H22a8,8,0,0,1-8-8V12a8,8,0,0,1,8-8H78m0-4H22A12,12,0,0,0,10,12V88a12,12,0,0,0,12,12H78A12,12,0,0,0,90,88V12A12,12,0,0,0,78,0Z"/><path d="M83.11,87.48V38.67H36.21A4.22,4.22,0,0,1,32,34.46V16.71a4.22,4.22,0,0,1,4.21-4.21h46.9A5.71,5.71,0,0,0,77.4,6.81H32.6a5.71,5.71,0,0,0-5.71,5.71v75a5.71,5.71,0,0,0,5.71,5.71H77.4A5.71,5.71,0,0,0,83.11,87.48ZM48.78,50.92a2.25,2.25,0,0,1-2.25,2.24H34.24A2.25,2.25,0,0,1,32,50.92V49.08a2.25,2.25,0,0,1,2.24-2.24H46.53a2.25,2.25,0,0,1,2.25,2.24Z"/><text class="door-text" class="cls-1" transform="translate(35.76 34.45)">ABC</text></svg>