<svg class="ui icon" xmlns="http://www.w3.org/2000/svg" viewBox="0 0 100 100"><title>fire</title><g id="fire"><path d="M41.46,99.25A37.4,37.4,0,0,1,17.57,80.16c-3-6-3.81-10.06-3.76-18.56s.93-13.19,3.53-18.92c1.74-3.81,6.72-10.52,7.58-10.87.18-.07.63,1.57.75,5.67.35,6.76,1.73,10.87,5.15,14.57,2.31,2.43,2.31,2.43,2,1.16-1.73-8.44-1.73-19.61-.06-26.37a42.26,42.26,0,0,1,9.37-17C45.51,6.25,53.32,0,54.47,0a10.77,10.77,0,0,1-.75,3.35c-2.78,8.33,1.62,17.3,12.2,24.76,13.54,9.54,19.26,18.8,20.19,32.27,1.16,18.22-10.24,34.47-27.3,38.81C54.7,100.23,45.57,100.29,41.46,99.25ZM57.07,87.62A26.94,26.94,0,0,0,74.31,73.05a20.64,20.64,0,0,0,2.36-10.23A21.14,21.14,0,0,0,74.08,52,26.37,26.37,0,0,0,62.51,39.91l-3.41-1.8,1.68,3.07A26.69,26.69,0,0,1,56,73.92c-2.72,2.54-5,3.93-5,3.12a16.18,16.18,0,0,1,1.22-3.3c1.5-3.41,2.51-9.87,1.7-11.23-.42-.75-.44-.69-.45-.25,0,1.91-3.57,7.55-6.4,10.38-3.3,3.3-8.79,6.42-12.38,6.94-2,.37-2.38.52-2.38.63,0,.7,4,4.06,6.14,5.21A26.41,26.41,0,0,0,57.07,87.62Z"/></g></svg>