<svg class="ui icon" xmlns="http://www.w3.org/2000/svg" viewBox="0 0 100 100"><path d="M19,36.19c4.79-4.72,10.69-4.37,16.58-3.72a8.19,8.19,0,0,0-.45-1.21,23.94,23.94,0,0,1,.67-20.91c3.6-7,11.91-12,20-9.86,2.48.65,4.91,1.51,7.36,2.27a3.16,3.16,0,0,1,.86.44c-.58.17-1.92.61-2.36.77-5.83,1.34-8.38,6.37-6.35,12.15,1.5,4.28,4.42,7.5,7.31,10.78C69.48,34.6,76,42.49,80.22,52c3.35,7.63,4.53,15.45,2.39,23.68A32.59,32.59,0,0,1,67.1,96.32,19.65,19.65,0,0,1,59,99c.42-.38.82-.79,1.27-1.14C66.6,93,70,86.59,69.72,78.44A12,12,0,0,0,67,70.69a2.43,2.43,0,0,0-.58-.48,2.14,2.14,0,0,0-.52-.19c-2.21,5.62-10.31,8.44-13.91,5.4a13.46,13.46,0,0,0,5.36-7.78,19.17,19.17,0,0,0-3.43-16.33,72.26,72.26,0,0,0-5.26-5.83c-.53-.55-.58-.38-.49.33.13,1,.27,2.09.39,3.14.83,6.81-2.67,11.74-7.09,16.28-3,3.08-6.12,6.08-8.08,10-3.26,6.52-1.81,14.26,2.42,19.6,1.32,1.67,2.82,3.19,4.56,5.15-1.54-.34-2.73-.52-3.88-.87A27,27,0,0,1,24.2,91.35a28.17,28.17,0,0,1-7.14-26.21,25.8,25.8,0,0,1,3.2-6.92c1.85-3.27,4.12-6.31,5.87-9.63a8.35,8.35,0,0,0-5.7-12.05C20.06,36.47,19.69,36.36,19,36.19Z"/></svg>