<svg class="ui icon" xmlns="http://www.w3.org/2000/svg" viewBox="0 0 100 100"><title>generators</title><g id="generators"><path d="M89.75,10.21H10.25A10.28,10.28,0,0,0,0,20.46V75A10.28,10.28,0,0,0,10.25,85.21h1.54v1a3.59,3.59,0,0,0,3.59,3.58h5.25a3.59,3.59,0,0,0,3.58-3.58v-1H75.79v1a3.59,3.59,0,0,0,3.59,3.58h5.25a3.59,3.59,0,0,0,3.58-3.58v-1h1.54A10.28,10.28,0,0,0,100,75V20.46A10.28,10.28,0,0,0,89.75,10.21ZM69.13,69.87a4.94,4.94,0,0,1-4.92,4.92H35.79a4.93,4.93,0,0,1-4.91-4.92V25.54a4.93,4.93,0,0,1,4.91-4.92H64.21a4.94,4.94,0,0,1,4.92,4.92Z"/><polygon points="46.65 33.42 41.49 48.71 47.23 48.71 41.3 64.58 56.98 45.84 51.43 45.84 58.7 33.42 46.65 33.42"/></g></svg>