<svg class="ui icon" xmlns="http://www.w3.org/2000/svg" viewBox="0 0 100 100"><path d="M25.5,71.4A5.5,5.5,0,1,0,31,76.9a5.5,5.5,0,0,0-5.5-5.5Z"/><path d="M25.5,70.4A6.5,6.5,0,1,1,19,76.9a6.5,6.5,0,0,1,6.5-6.5m0-1A7.5,7.5,0,1,0,33,76.9a7.51,7.51,0,0,0-7.5-7.5Z"/><path d="M74.5,71.4A5.5,5.5,0,1,0,80,76.9a5.5,5.5,0,0,0-5.5-5.5Z"/><path d="M74.5,70.4A6.5,6.5,0,1,1,68,76.9a6.5,6.5,0,0,1,6.5-6.5m0-1A7.5,7.5,0,1,0,82,76.9a7.51,7.51,0,0,0-7.5-7.5Z"/><rect x="33.79" y="2.78" width="32.42" height="8"/><path d="M82.79,2.88V11a11.18,11.18,0,0,1,9.21,11V80.83A11.18,11.18,0,0,1,80.83,92H19.17A11.18,11.18,0,0,1,8,80.83V21.94a11.18,11.18,0,0,1,9.21-11V2.88A19.23,19.23,0,0,0,0,21.94V80.83A19.22,19.22,0,0,0,19.17,100H80.83A19.22,19.22,0,0,0,100,80.83V21.94A19.23,19.23,0,0,0,82.79,2.88Z"/><rect x="33.79" y="12.75" width="32.42" height="1"/><path d="M82.79,13.57v1.08a10,10,0,0,1,5.88,9.1V79.19a10,10,0,0,1-10,10H21.33a10,10,0,0,1-10-10V23.75a10,10,0,0,1,5.88-9.1V13.57a11,11,0,0,0-6.88,10.18V79.19a11,11,0,0,0,11,11H78.67a11,11,0,0,0,11-11V23.75A11,11,0,0,0,82.79,13.57Z"/><path d="M21.65,0h7.71A1.65,1.65,0,0,1,31,1.65V17.77a1.64,1.64,0,0,1-1.64,1.64H21.65A1.65,1.65,0,0,1,20,17.77V1.65A1.65,1.65,0,0,1,21.65,0Z"/><rect x="69" width="11" height="19.41" rx="1.65"/></svg>