<svg class="ui icon" xmlns="http://www.w3.org/2000/svg" viewBox="0 0 100 100"><title>hatches</title><g id="hatches"><path d="M42.89,50V39.68q0-8.09,0-16.16t0-15.87a19.33,19.33,0,0,1,0-2.85,5.12,5.12,0,0,1,.78-2.06A5.19,5.19,0,0,1,47.36.05a10.51,10.51,0,0,1,3.93.4c3.75,1,7.5,1.87,11.26,2.78,3,.73,6,1.42,9,2.15s6,1.54,9.06,2.26c1.77.42,4.09,3,4.08,5.19-.1,13.65-.06,27.31-.06,41q0,16.91,0,33.82A3.7,3.7,0,0,1,83.79,90,5.46,5.46,0,0,1,81,92.18C78,93,75,93.79,71.92,94.54c-3.58.9-7.17,1.76-10.75,2.61-3.9.93-7.79,1.86-11.69,2.73a5.63,5.63,0,0,1-6.35-3.6,8.12,8.12,0,0,1-.23-2.52c0-3.65,0-7.29,0-10.94l0-16.64V50Zm13.76,3.69a5.66,5.66,0,0,0-1.43-4.29,2.31,2.31,0,0,0-3.69.15c-1.9,2.29-1.51,6.3.2,8a2.14,2.14,0,0,0,3.2.14A5.74,5.74,0,0,0,56.65,53.71Z"/><path d="M15.38,50q0-17.9,0-35.79A6.73,6.73,0,0,1,17,9.66,7.64,7.64,0,0,1,20.72,7,4.72,4.72,0,0,1,22,6.81H38.77c.88,0,1.17.28,1.19,1.17,0,1.59,0,3.17,0,4.76,0,1.13-.33,1.44-1.45,1.44H28.61c-1.25,0-2.49-.06-3.73,0-1.54.07-2.12.75-2.13,2.33V83.57c0,1.43.44,2,1.86,2.19a21.74,21.74,0,0,0,3,.14c3.48,0,7-.1,10.45-.13,1.35,0,2,.48,1.93,1.86,0,1.53,0,3.05-.08,4.58,0,.75-.29,1-1,1H27.42c-1.59,0-3.17,0-4.75,0a6.66,6.66,0,0,1-5.32-2.42,7,7,0,0,1-2-5.09C15.4,73.8,15.38,61.89,15.38,50Z"/></g></svg>