<svg class="ui icon" xmlns="http://www.w3.org/2000/svg" viewBox="0 0 100 100"><path d="M0,43.3l6.53,3.14,41.55,20a1,1,0,0,1,.69,1.09c0,4.23,0,8.45,0,12.68v.73l-.6-.25Q24.38,69.22.59,57.79a.91.91,0,0,1-.59-1c0-4.24,0-8.49,0-12.74Z"/><path d="M100,43.33V44q0,6.45,0,12.92a.79.79,0,0,1-.5.84q-23.91,11.46-47.8,23l-.46.21v-.59q0-6.49,0-13a.82.82,0,0,1,.56-.87L99.41,43.59Z"/><path d="M49.82,19.08,97.58,42l-.69.36-14,6.73Q66.82,56.88,50.74,64.67a1.47,1.47,0,0,1-1.49,0L3,42.27l-.67-.35Zm41.82,23L91,41.75l-8.34-4L50.22,22.15a1.19,1.19,0,0,0-.83,0q-8.58,4.1-17.14,8.22L10.58,40.8,8.2,42l6,2.9L49.56,62a.9.9,0,0,0,.9,0c7.88-3.8,15.78-7.57,23.66-11.38,4.41-2.13,8.81-4.31,13.22-6.46C88.74,43.45,90.15,42.78,91.64,42.07Z"/><path d="M86.22,42.07l-4.35,2.09L54.19,57.58c-1.2.58-2.41,1.13-3.6,1.74a1.22,1.22,0,0,1-1.2,0q-12.45-6-24.91-12.06l-10.28-5L13.6,42l5-2.4Q33.9,32.2,49.16,24.84a1.34,1.34,0,0,1,1.3,0l35.2,16.93ZM50,27.61a2,2,0,1,0,2,2A2,2,0,0,0,50,27.61ZM37.94,35.84a2,2,0,1,0-2,2A2,2,0,0,0,37.94,35.84Zm26.07-2a2,2,0,1,0,2,2A2,2,0,0,0,64,33.89ZM21.88,44.12A2,2,0,1,0,20,42.06,2,2,0,0,0,21.88,44.12Zm58.16-2a2,2,0,1,0-2,2A2,2,0,0,0,80,42.11Zm-42.1,6.28a2,2,0,1,0-2,2A2,2,0,0,0,37.94,48.39ZM64,46.45a2,2,0,1,0,2,2A2,2,0,0,0,64,46.45ZM52,54.71a2,2,0,1,0-2,2A2,2,0,0,0,52,54.71Z"/></svg>