<svg class="ui icon" xmlns="http://www.w3.org/2000/svg" viewBox="0 0 100 100"><path d="M83.91,59.25H80.7a9.21,9.21,0,0,1,.83-4.69c.38-.88.9-1.71,1.35-2.56a8.66,8.66,0,0,0-.09-8.73,13.92,13.92,0,0,1-2-5A12.38,12.38,0,0,1,82,30.36a12.05,12.05,0,0,0,1.82-4.28,8.92,8.92,0,0,0-1-5.89,13.59,13.59,0,0,1-2.1-5.34c0-.41-.08-.82-.13-1.34h-3l4.62-6.09,4.6,6.07H84a8.47,8.47,0,0,0,1,3.79,24.15,24.15,0,0,1,1.92,4.41,11.4,11.4,0,0,1-1.2,8.9,10.42,10.42,0,0,0-1.79,5.49,9.27,9.27,0,0,0,1.34,4.83,12.41,12.41,0,0,1,.49,12.77A10.49,10.49,0,0,0,84,57.83C84,58.29,84,58.75,83.91,59.25Z"/><path d="M61.49,59.25H58.28a9.1,9.1,0,0,1,.82-4.69c.39-.88.9-1.71,1.35-2.56a8.66,8.66,0,0,0-.08-8.73,13.92,13.92,0,0,1-2-5,12.38,12.38,0,0,1,1.26-7.88,12.05,12.05,0,0,0,1.82-4.28,8.87,8.87,0,0,0-1-5.89,13.74,13.74,0,0,1-2.1-5.34c-.05-.41-.08-.82-.13-1.34h-3l4.62-6.09,4.59,6.07H61.55a8.6,8.6,0,0,0,1,3.79,24.1,24.1,0,0,1,1.91,4.41,11.4,11.4,0,0,1-1.2,8.9,10.41,10.41,0,0,0-1.78,5.49,9.27,9.27,0,0,0,1.34,4.83,12.38,12.38,0,0,1,.48,12.77,10.62,10.62,0,0,0-1.72,4.15C61.56,58.29,61.53,58.75,61.49,59.25Z"/><path d="M72.7,59.25H69.49a9.21,9.21,0,0,1,.83-4.69c.38-.88.89-1.71,1.34-2.56a8.66,8.66,0,0,0-.08-8.73,13.92,13.92,0,0,1-2-5,12.38,12.38,0,0,1,1.26-7.88,12.05,12.05,0,0,0,1.82-4.28,8.92,8.92,0,0,0-1-5.89,13.76,13.76,0,0,1-2.11-5.34c0-.41-.08-.82-.12-1.34h-3l4.62-6.09,4.59,6.07H72.77a8.47,8.47,0,0,0,1,3.79,24.85,24.85,0,0,1,1.92,4.41,11.45,11.45,0,0,1-1.21,8.9,10.41,10.41,0,0,0-1.78,5.49,9.27,9.27,0,0,0,1.34,4.83,12.38,12.38,0,0,1,.48,12.77,10.62,10.62,0,0,0-1.72,4.15C72.77,58.29,72.74,58.75,72.7,59.25Z"/><path d="M38.22,3.5a3.73,3.73,0,0,1,3.72,3.72V60.56a3.52,3.52,0,0,0,1.77,3,17.61,17.61,0,1,1-17.42,0,3.52,3.52,0,0,0,1.77-3V7.22A3.73,3.73,0,0,1,31.78,3.5h6.44m0-3.5H31.78a7.24,7.24,0,0,0-7.22,7.22V60.56a21.11,21.11,0,1,0,20.88,0V7.22A7.24,7.24,0,0,0,38.22,0Z"/><path d="M40.57,66.56c-1.2-.55-2-.76-2-2.08V8.17A1.68,1.68,0,0,0,36.92,6.5H33a1.67,1.67,0,0,0-1.67,1.67V64.51c0,1.31-.73,1.52-1.92,2.06a13.55,13.55,0,1,0,11.17,0Z"/></svg>