<svg class="ui icon" xmlns="http://www.w3.org/2000/svg" viewBox="0 0 100 100"><title>inclinometer</title><g id="inclinometer"><path d="M80.56,1.15,75.67,6l6.08,6.07a2.26,2.26,0,0,1,0,3.19l-.18.18a2.26,2.26,0,0,1-3.18,0L72.31,9.4l-4.92,4.92L70.07,17a2.26,2.26,0,0,1,0,3.19l-.18.17a2.25,2.25,0,0,1-3.18,0L64,17.68,59.11,22.6l2.67,2.68a2.26,2.26,0,0,1,0,3.19l-.17.18a2.28,2.28,0,0,1-3.19,0L55.74,26l-4.92,4.92,2.68,2.68a2.25,2.25,0,0,1,0,3.18l-.18.18a2.25,2.25,0,0,1-3.18,0l-2.68-2.68-4.92,4.92,6.07,6.08a2.26,2.26,0,0,1,0,3.19l-.17.17a2.26,2.26,0,0,1-3.19,0l-6.08-6.07-4.92,4.92,2.68,2.68a2.25,2.25,0,0,1,0,3.18l-.18.18a2.25,2.25,0,0,1-3.18,0l-2.68-2.68L26,55.74l2.68,2.68a2.28,2.28,0,0,1,0,3.19l-.18.17a2.26,2.26,0,0,1-3.19,0L22.6,59.11,17.68,64l2.68,2.68a2.25,2.25,0,0,1,0,3.18l-.17.18a2.26,2.26,0,0,1-3.19,0l-2.68-2.68L9.4,72.31l6.08,6.08a2.26,2.26,0,0,1,0,3.18l-.18.18a2.26,2.26,0,0,1-3.19,0L6,75.67,1.15,80.56a3.94,3.94,0,0,0,0,5.56L8,93a3.94,3.94,0,0,0,5.57,0l5.4-5.4a1.83,1.83,0,0,1,2.54,0,46.73,46.73,0,0,0,66-66,1.83,1.83,0,0,1,0-2.54l5.4-5.4A3.94,3.94,0,0,0,93,8L86.12,1.15A3.94,3.94,0,0,0,80.56,1.15ZM75.41,36.94A27.51,27.51,0,0,1,36.94,75.41a3.63,3.63,0,0,1-.34-5.47L69.94,36.6A3.63,3.63,0,0,1,75.41,36.94Z"/></g></svg>