<svg class="ui icon" xmlns="http://www.w3.org/2000/svg" viewBox="0 0 100 100"><g><path d="M100,16V26.76A5.33,5.33,0,0,1,94.73,32H5.27a5.07,5.07,0,0,1-3.71-1.56A5.07,5.07,0,0,1,0,26.76V16A5.09,5.09,0,0,1,1.56,12.3a5.07,5.07,0,0,1,3.71-1.56H94.73A5.33,5.33,0,0,1,100,16Zm0,28.51V55.27a6.25,6.25,0,0,1-1.56,3.91,5.09,5.09,0,0,1-3.71,1.56H5.27a5.07,5.07,0,0,1-3.71-1.56A6.25,6.25,0,0,1,0,55.27V44.53a5.07,5.07,0,0,1,1.56-3.71,5.07,5.07,0,0,1,3.71-1.56H94.73A5.33,5.33,0,0,1,100,44.53Zm0,28.71V83.79a5.33,5.33,0,0,1-1.56,3.91,5.09,5.09,0,0,1-3.71,1.56H5.27A5.07,5.07,0,0,1,1.56,87.7,5.33,5.33,0,0,1,0,83.79V73.24a5.29,5.29,0,0,1,1.56-3.9,5.08,5.08,0,0,1,3.71-1.57H94.73a5.1,5.1,0,0,1,3.71,1.57A5.29,5.29,0,0,1,100,73.24Z"/></g></svg>