<svg class="ui icon" xmlns="http://www.w3.org/2000/svg" viewBox="0 0 100 100"><path d="M32.34,25.79l.43-.41Q44,14.29,55.2,3.21A9.78,9.78,0,0,1,59.57.57a4.26,4.26,0,0,1,5.18,3.17A8.49,8.49,0,0,1,65,5.87q0,25.7,0,51.38a2.43,2.43,0,0,0,.79,1.9Q81.55,74.89,97.31,90.67a15.92,15.92,0,0,1,1.8,2,4.54,4.54,0,0,1,.32,4.9A4.27,4.27,0,0,1,95.79,100a4.91,4.91,0,0,1-4.13-1.6q-45-45-90-90c-2.41-2.41-1.9-6,0-7.32,2.3-1.56,4.5-1.5,7,.94,7.64,7.57,15.22,15.19,22.82,22.8C31.72,25.09,32,25.41,32.34,25.79Z"/><path d="M5.79,50.14c0-4.42,0-8.83,0-13.24,0-2.27,1.07-4.35,3.39-4.71A39.45,39.45,0,0,1,15.26,32c.23,0,.47.34.69.55Q40.17,56.8,64.39,81A2.21,2.21,0,0,1,65,82.41c0,4,.12,8,0,12a7.67,7.67,0,0,1-1.23,3.88c-1.86,2.7-5.07,1.88-7,.1-2.27-2-4.44-4.21-6.62-6.36q-9.7-9.56-19.4-19.15c-1.39-1.36-2.8-2.7-4.26-4a2.15,2.15,0,0,0-1.3-.47c-4.8,0-9.6-.08-14.4,0A4.66,4.66,0,0,1,5.8,63.5C5.75,59,5.79,54.59,5.79,50.14Z"/></svg>