<svg class="ui icon" id="nav-lights" xmlns="http://www.w3.org/2000/svg" viewBox="0 0 100 100"><title>nav-lights</title><path d="M63,78.63H37a3.73,3.73,0,0,0-3.72,3.73v8.1A3.73,3.73,0,0,0,37,94.19h4v2.08A3.74,3.74,0,0,0,44.71,100H55.29A3.74,3.74,0,0,0,59,96.27V94.19h4a3.73,3.73,0,0,0,3.72-3.73v-8.1A3.73,3.73,0,0,0,63,78.63Z"/><path d="M50,0A31.29,31.29,0,0,0,25,50.14c3,4.33,8.49,12.75,8.27,17.11v3.32a3.37,3.37,0,0,0,3.36,3.36H63.34a3.37,3.37,0,0,0,3.36-3.36V67.25C66.48,62.89,72,54.47,75,50.14A31.29,31.29,0,0,0,50,0Zm8.89,12.73A26.42,26.42,0,0,0,32.47,39.15c0,.81,0,1.6.11,2.38A20.73,20.73,0,0,1,61.27,12.85C60.49,12.78,59.69,12.73,58.89,12.73Z"/></svg>