<svg class="ui icon" xmlns="http://www.w3.org/2000/svg" viewBox="0 0 100 100"><polygon points="37.31 54.51 44.5 44.5 54.51 37.31 50 23 44.53 40.37 35.83 35.83 40.37 44.53 23 50 37.31 54.51"/><polygon points="62.69 45.49 55.5 55.5 45.49 62.69 50 77 55.47 59.63 64.17 64.17 59.63 55.47 77 50 62.69 45.49"/><path d="M75.92,24.08,45.76,45.76,24.08,75.92,54.24,54.24Zm-8.75,8.75-14.36,20-5.62-5.62Z"/><path d="M94.5,50l5.37-3.42A50,50,0,0,0,53.42.13L50,5.5,46.58.13A50,50,0,0,0,.13,46.58L5.5,50,.13,53.42A50,50,0,0,0,46.58,99.87L50,94.5l3.42,5.37A50,50,0,0,0,99.87,53.42ZM50,90A40,40,0,1,1,90,50,40,40,0,0,1,50,90Z"/></svg>