<svg xmlns="http://www.w3.org/2000/svg" viewBox="0 0 100 100"><g id="notification"><path d="M82.76,100H69.31a3.62,3.62,0,0,0-.4-.19c-3.49-1-7-2-10.47-3.14a8.39,8.39,0,0,0-4-.56,15.58,15.58,0,0,1-7.25-.36,14.94,14.94,0,0,1-9.19-8,3.21,3.21,0,0,0-1-1.23c-1.75-1.16-3.6-2.17-5.32-3.37-2.53-1.77-5-3.65-7.47-5.49a78,78,0,0,1-10-8.92,46.54,46.54,0,0,1-6.11-8,13.32,13.32,0,0,1-2.28-6.91,14,14,0,0,1,.91-3.77c1-3.58,3.48-5.56,6.74-6.87s6.51-1.17,9.77-1.72c2.26-.38,4.57-.52,6.8-1a10.1,10.1,0,0,0,6.38-4.09c1-1.53,2.17-3,3.28-4.47,2.29-3.06,4.56-6.13,6.91-9.15A26.3,26.3,0,0,1,50.1,19c2.34-2.05,4.59-4.23,7.47-5.61a22.55,22.55,0,0,1,9-2.6c2-.07,4,.11,6,.18A10.57,10.57,0,0,1,80.67.23C85.86-.84,91.34,1.89,93,6.43c1.68,4.75.75,10-4.08,13.16A15.4,15.4,0,0,1,90,21a24.09,24.09,0,0,1,2.66,4.37A18.63,18.63,0,0,1,93.88,35a43.8,43.8,0,0,1-1,6.22c-1.48,4.68-3.18,9.3-4.88,13.9-1.59,4.28-3.62,8.4-4.16,13a9.83,9.83,0,0,0,.77,5.78c1.57,3.09,3.52,6,4.5,9.35.81,2.83,1.44,5.64.36,8.49a34.43,34.43,0,0,1-2.27,4.39,5.94,5.94,0,0,1-2.49,2.8C84.06,99.25,83.42,99.64,82.76,100ZM52.39,65.12c-1.78-1-3.53-2-5.35-2.85-3.27-1.56-6.54-3.13-9.88-4.54A71.31,71.31,0,0,0,29,54.82c-2.58-.73-5.26-1.09-7.9-1.61a23.29,23.29,0,0,0-8,0c-.63.09-1,.45-.83.91a10.66,10.66,0,0,0,1.2,3.15,64.41,64.41,0,0,0,4.85,6.4,62.36,62.36,0,0,0,6.19,6.19c2.64,2.25,5.48,4.27,8.26,6.35,1.19.89,2.47,1.67,3.73,2.52C37.79,71.57,43,65.38,52.39,65.12Zm11,26.45a41.52,41.52,0,0,0,15.2,2.37,7.44,7.44,0,0,0,2.14-.41,1.27,1.27,0,0,0,.63-1,4,4,0,0,0-.58-1.79c-1.67-2.48-3.28-5-5.18-7.33a65.68,65.68,0,0,0-5.51-5.56c-1.13-1.07-2.38-2-3.78-3.17C68.75,81.1,67.46,86.57,63.37,91.57Z"/></g></svg>