<svg class="ui icon" xmlns="http://www.w3.org/2000/svg" viewBox="0 0 100 100"><path d="M23.89,72.45a12,12,0,0,1-8.79-3.68,12,12,0,0,1-3.7-8.83V40.28a12.3,12.3,0,0,1,3.73-9,11.94,11.94,0,0,1,8.76-3.75h8.57A11.9,11.9,0,0,1,41.2,31.3a12.36,12.36,0,0,1,3.71,9V59.94a12,12,0,0,1-3.71,8.83,12,12,0,0,1-8.74,3.68ZM26.4,63h3.45A4.53,4.53,0,0,0,33,62.07a4.25,4.25,0,0,0,1-3.22V41.37a4.32,4.32,0,0,0-1-3.28,4.53,4.53,0,0,0-3.12-.92H26.4a4.42,4.42,0,0,0-3.06.92,4.32,4.32,0,0,0-1,3.28V58.85a4.25,4.25,0,0,0,1,3.22A4.42,4.42,0,0,0,26.4,63Z"/><path d="M85.56,28c.73,0,1.09.33,1.09,1V71.12a.9.9,0,0,1-1,1H77.74a1.25,1.25,0,0,1-1.21-.71L62.92,47.67a5.86,5.86,0,0,0-.54-1l-.7-1.12a4.12,4.12,0,0,0-.34-.53,5.09,5.09,0,0,0,.22.7c.14.43.28.89.4,1.4a5,5,0,0,1,.19,1.07V71.12a.92.92,0,0,1-1.06,1H52.3a.9.9,0,0,1-1-1V29a.88.88,0,0,1,1-1h8.51a1.43,1.43,0,0,1,1.28.69L74.94,51l.58.95c.26.42.49.79.7,1.09a2.76,2.76,0,0,1,.31.51l-.19-.68c-.12-.44-.25-.91-.37-1.42a4.88,4.88,0,0,1-.19-1.07V29c0-.69.33-1,1-1Z"/></svg>