<svg class="ui icon" xmlns="http://www.w3.org/2000/svg" viewBox="0 0 100 100"><path d="M44.17,99.6c-.1-.23-1.2-3.33-2.47-6.87s-2.33-6.46-2.4-6.53-1.8-.77-3.83-1.6l-3.7-1.53L25.33,86.4,18.9,89.73,15,85.8a28.22,28.22,0,0,1-4-4.43,72.49,72.49,0,0,1,3-6.77l3-6.3L15.4,64.47l-1.53-3.84L7.1,58.47.33,56.27V44.5l6.5-2.33c3.6-1.27,6.64-2.4,6.77-2.5a23.16,23.16,0,0,0,1.8-3.84l1.53-3.63L13.8,25.93a72.65,72.65,0,0,1-3.13-6.7A32.5,32.5,0,0,1,14.6,14.9L18.53,11l6.64,3.13,6.63,3.1,3.5-1.47c2-.8,3.7-1.6,3.87-1.73a60.43,60.43,0,0,0,2.5-7.13L43.83,0l5.84.07,5.8.1L57.83,6.9c1.27,3.7,2.5,6.87,2.67,7.07a47.74,47.74,0,0,0,7.4,3,65.49,65.49,0,0,0,6.67-3.2l6.16-3.23,4.14,4.13L89,18.83,85.83,25.4,82.73,32l1.54,3.8,1.56,3.77,6.94,2.3,6.9,2.3-.07,5.76-.1,5.8-6.77,2.44c-3.73,1.33-6.8,2.46-6.86,2.53s-.77,1.8-1.6,3.8l-1.5,3.67L86,74.7l3.24,6.53L85.2,85.3l-4.07,4.07-6.6-3.17-6.6-3.13-3.56,1.5a24,24,0,0,0-3.9,1.86c-.2.24-1.3,3.37-2.47,7L55.87,100H50.1C45.77,100,44.27,99.9,44.17,99.6ZM54.3,65A13.85,13.85,0,0,0,61,60.77a14.4,14.4,0,0,0,4.3-10.64,15.37,15.37,0,0,0-8.93-14c-2.5-1.27-2.57-1.27-6.57-1.27s-4.06,0-6.53,1.24a18.89,18.89,0,0,0-6.87,6.13,16.79,16.79,0,0,0-1.56,12.17A16.47,16.47,0,0,0,45.27,65,17.29,17.29,0,0,0,54.3,65Z"/></svg>