<svg class="ui icon" xmlns="http://www.w3.org/2000/svg" viewBox="0 0 100 100"><path d="M52.73,0c1.48.19,3,.35,4.44.56A48.74,48.74,0,0,1,83.72,13.28a50.52,50.52,0,0,1,15.45,28c.25,1.27.42,2.55.63,3.83v.78c-1,0-2.07,0-3.11,0h-3c-.44-2.22-.76-4.41-1.32-6.53C88.94,26.48,81.43,16.9,69.51,10.85a1.24,1.24,0,0,0-1.69.22c-1.63,1.59-3.32,3.11-5,4.7a5.08,5.08,0,0,1-.57-.47L47.51.61A6.76,6.76,0,0,1,47.07,0Z"/><path d="M46.88,100c-1.48-.19-3-.34-4.43-.56A48.6,48.6,0,0,1,14.26,85.08,49.36,49.36,0,0,1,.82,58.9c-.25-1.33-.42-2.68-.62-4V54.1H5.88c.53,2.53.89,5,1.56,7.33,3.54,12.5,11,21.82,22.66,27.71a1.23,1.23,0,0,0,1.69-.22c1.62-1.59,3.32-3.11,5-4.7.19.16.4.3.57.47Q44.75,92,52.09,99.4a4.47,4.47,0,0,1,.45.6Z"/><path d="M94.16,61.28a5.9,5.9,0,0,1-1.74,4.41Q79,79.16,65.49,92.61a6,6,0,0,1-8.37.12l-.56-.55Q31.93,67.54,7.27,42.9c-1.85-1.84-2.76-4-1.95-6.51A7.07,7.07,0,0,1,7,33.7Q20.2,20.39,33.49,7.18a6,6,0,0,1,8.93,0Q67.35,32.1,92.26,57A5.88,5.88,0,0,1,94.16,61.28ZM61.39,88.16,87.92,61.64,38.23,12,11.71,38.48Z"/></svg>