<svg class="ui icon" xmlns="http://www.w3.org/2000/svg" viewBox="0 0 100 100"><path d="M0,78.13a39.58,39.58,0,0,1,1.5-5.56c3-7.14,8.42-11.32,16.14-12.36a20.23,20.23,0,0,1,4-.18c5.75.39,10.32-1.85,14.27-5.9,5.92-6.06,12-12,17.94-18a1.24,1.24,0,0,1,1.75-.3,19.69,19.69,0,0,1,8.57,8.63A1.15,1.15,0,0,1,64,46c-6,6-12.09,12-18,18.06a33.24,33.24,0,0,0-4.36,5.65A13.18,13.18,0,0,0,40,77.07c0,3.23,0,6.46-1.14,9.53-2.94,7.58-8.41,12.06-16.52,13.22a2.27,2.27,0,0,0-.47.18H18.12a2,2,0,0,0-.46-.18C9.75,98.71,4.32,94.39,1.32,87A38.62,38.62,0,0,1,0,81.88Zm11.66,1.79a8.34,8.34,0,1,0,8.47-8.26A8.31,8.31,0,0,0,11.66,79.92Z"/><path d="M100,30.84l-5.55,6.3L62.88,5.54,69.17,0h1.66a31.89,31.89,0,0,1,2.62,2.12Q85.69,14.31,97.88,26.55A31.5,31.5,0,0,1,100,29.17Z"/><path d="M91.7,39.51,72.31,58.9A8.14,8.14,0,0,1,70,54.25a67.06,67.06,0,0,0-1.49-7.82c-2.8-8.63-8.68-13.92-17.67-15.61-2.17-.4-4.37-.69-6.5-1.26A17.68,17.68,0,0,1,41,27.89L60.54,8.32ZM72.51,30A2.42,2.42,0,0,0,70,27.5a2.46,2.46,0,0,0-2.53,2.56,2.55,2.55,0,0,0,2.57,2.45A2.42,2.42,0,0,0,72.51,30Z"/></svg>