<svg class="ui icon" xmlns="http://www.w3.org/2000/svg" viewBox="0 0 100 100"><path d="M54.49,42.22c1.6.27,3.2.59,4.82.81a35.34,35.34,0,0,0,8.72.13c4.37-.46,8.5-1.61,11.73-4.81a44.2,44.2,0,0,0,3.39-4.16c.6-.77,1.1-1.62,1.73-2.37,1.33-1.62,2.56-1.72,4.24-.44a23.5,23.5,0,0,1,5.34,5.78,33.07,33.07,0,0,1,5.11,14,40.77,40.77,0,0,1-3.36,23.19,37,37,0,0,1-9.39,12.28,45.92,45.92,0,0,1-16.67,9,78.44,78.44,0,0,1-16.07,3.1,101.19,101.19,0,0,1-18.42,0A47.68,47.68,0,0,1,25.54,97c-7.18-2.24-13.32-6-17.88-12.12A28.84,28.84,0,0,1,1.79,66.37C2,56.82,6,49.05,13,42.78c.69-.62,1.49-1.13,2.23-1.7.29-.22.55-.46.93-.78-.78-.44-1.45-.86-2.15-1.22A37.57,37.57,0,0,1,3.72,31.7,12.54,12.54,0,0,1,.08,24.64,7.88,7.88,0,0,1,.67,20.3C1.79,17.86,3.91,17,6.4,16.87a56.7,56.7,0,0,1,5.67.23,2.74,2.74,0,0,0,2.43-.91,17.91,17.91,0,0,0,2.08-2.83A23.91,23.91,0,0,1,60.23,17a25.12,25.12,0,0,1,1.08,9.38,17.49,17.49,0,0,1-2.07,8.22c-1,1.8-2.27,3.47-3.41,5.2-.49.74-1,1.49-1.46,2.24Zm-8.4,41.69v.17c2.06-.2,4.15-.24,6.18-.63A43.68,43.68,0,0,0,68.4,76.54,87.17,87.17,0,0,0,86.25,60.25a6.71,6.71,0,0,0,.89-1.35,1.94,1.94,0,0,0-.49-2.23c-1-.74-1.81-.8-2.61-.11a15.63,15.63,0,0,0-1.34,1.36A98.73,98.73,0,0,1,69.86,70.2a48.6,48.6,0,0,1-13.11,7.57,29.63,29.63,0,0,1-13,1.84A34.37,34.37,0,0,1,28.09,74a15.4,15.4,0,0,0-2.66-1.48,1.92,1.92,0,0,0-2.58,2.27,2.69,2.69,0,0,0,1.47,1.86c1.88,1.14,3.75,2.28,5.69,3.3A31.15,31.15,0,0,0,46.09,83.91ZM34.63,23.49c.26-2.69-3.05-5.32-5.41-5.27a5.8,5.8,0,0,0-5.69,5.51,5.82,5.82,0,0,0,5.71,5.64A5.48,5.48,0,0,0,34.63,23.49Z"/></svg>