<svg class="ui icon" xmlns="http://www.w3.org/2000/svg" viewBox="0 0 100 100"><path id="tv" d="M86.39,18.14A7.62,7.62,0,0,1,94,25.76V74.24a7.62,7.62,0,0,1-7.61,7.62H13.61A7.62,7.62,0,0,1,6,74.24V25.76a7.62,7.62,0,0,1,7.61-7.62H86.39m0-6H13.61A13.61,13.61,0,0,0,0,25.76V74.24A13.61,13.61,0,0,0,13.61,87.86H86.39A13.61,13.61,0,0,0,100,74.24V25.76A13.61,13.61,0,0,0,86.39,12.14Z"/><path id="dark" d="M88.71,21.14,9,75.19A4.63,4.63,0,0,0,13.22,78H86a4.62,4.62,0,0,0,4.61-4.61V24.86A4.6,4.6,0,0,0,88.71,21.14Z"/></svg>