<svg class="ui icon" xmlns="http://www.w3.org/2000/svg" viewBox="0 0 100 100"><path id="screen" d="M78.1,81.86H13.61A7.62,7.62,0,0,1,6,74.24V25.76a7.62,7.62,0,0,1,7.61-7.62H86.39A7.62,7.62,0,0,1,94,25.76v41.8l.87.86,4.38,4.39c.27.28.52.56.75.85V25.76A13.61,13.61,0,0,0,86.39,12.14H13.61A13.61,13.61,0,0,0,0,25.76V74.24A13.61,13.61,0,0,0,13.61,87.86H84.1Z"/><g id="cleaner"><path d="M64.74,53.39,82.56,35.57c1-1,1.56-1,2.59,0l2.94,2.93a6.17,6.17,0,0,1,0,9c-2.53,2.55-5.09,5.09-7.63,7.64a3.51,3.51,0,0,0-.09,5.16c3.24,3.29,6.53,6.53,9.79,9.79,2,2,3.93,3.9,5.87,5.87a6.17,6.17,0,0,1-8.64,8.82Q79.63,77,71.87,69.26a3.62,3.62,0,0,0-5.51,0c-2.51,2.49-5,5-7.51,7.5a6.07,6.07,0,0,1-8,.91,27,27,0,0,1-3.59-3.43c-1.66-1.7-1.64-1.77,0-3.43Z"/><path d="M69.89,37.71c-1.27-1.27-2.51-2.5-3.74-3.74-1-1-1.14-1.69-.58-2.3s1.42-.43,2.37.52l3.74,3.74,3.44-3.44-.71-.71c-3.35-3.34-4.7-4.94-8-8.29-.25-.26-.59-.55-.65-.86s-.07-1.06.19-1.3a2.09,2.09,0,0,1,1.37-.3c.24,0,.51.31.72.52C72.6,26.16,75.2,29,79.83,33.63c.47.47.54.74,0,1.24Q62.94,51.76,46,68.67c-.11.11-.23.21-.44.39-.94-.94-2-1.83-2.8-2.85-.4-.49-.2-1.15.32-1.66,1.38-1.34,2.74-2.72,4.19-4.18l-.73-.73-6.92-6.92c-.71-.72-.69-1.54,0-2s1.21-.16,1.7.33l6.86,6.86c.23.23.46.47.73.73Z"/><path d="M61.93,38.75c-.41.44-1,.27-1.62-.16-2-1.45-3.16-1.44-5.11,0a1.21,1.21,0,0,1-1.67,0,1.2,1.2,0,0,1-.17-1.73,7.37,7.37,0,0,0,1-1.81,3.4,3.4,0,0,0-.84-3.32,1.23,1.23,0,0,1-.07-1.87,1.3,1.3,0,0,1,1.88.1,3.52,3.52,0,0,0,4.76.08l.37-.27a1.16,1.16,0,0,1,1.71.21,1.18,1.18,0,0,1-.08,1.66c-1.45,1.84-1.45,3.21,0,5.11A1.3,1.3,0,0,1,61.93,38.75Z"/><path d="M35.17,58.68,31,54.51c-.71-.72-.77-1.33-.21-1.91s1.17-.57,1.89.16q4.22,4.18,8.4,8.4A1.25,1.25,0,0,1,41.23,63a1.4,1.4,0,0,1-1.89-.19C37.94,61.46,36.56,60.07,35.17,58.68Z"/></g></svg>