<svg class="ui icon" xmlns="http://www.w3.org/2000/svg" viewBox="0 0 100 100"><path id="screen" d="M86.39,12.14H13.61A13.61,13.61,0,0,0,0,25.76V74.24A13.61,13.61,0,0,0,13.61,87.86H40.93a12.86,12.86,0,0,1-2.1-6H13.61A7.62,7.62,0,0,1,6,74.24V25.76a7.62,7.62,0,0,1,7.61-7.62H86.39A7.62,7.62,0,0,1,94,25.76V48.11A12.93,12.93,0,0,1,100,59V25.76A13.61,13.61,0,0,0,86.39,12.14Z"/><g id="clock"><path d="M59.77,49.47V41.76a9.62,9.62,0,0,1,19.24,0v7.71h7.82V41.76a17.45,17.45,0,1,0-34.89,0v7.71ZM55.12,37.54A15,15,0,0,1,68.81,27.06h0a1.08,1.08,0,0,1,.08,2.16,12.82,12.82,0,0,0-11.71,9,1.08,1.08,0,0,1-1,.77,1.13,1.13,0,0,1-.32-.05A1.09,1.09,0,0,1,55.12,37.54Z"/><path d="M87.07,52.07H51.71A6.93,6.93,0,0,0,44.77,59v21.7a6.94,6.94,0,0,0,6.94,6.94H87.07A6.94,6.94,0,0,0,94,80.71V59A6.93,6.93,0,0,0,87.07,52.07ZM53.32,59.88a.48.48,0,0,0-.47.47V80.06a1.67,1.67,0,1,1-3.33,0V60.35a3.8,3.8,0,0,1,3.8-3.8,1.67,1.67,0,0,1,0,3.33ZM72.31,70v6a2.93,2.93,0,1,1-5.85,0V70a4.91,4.91,0,1,1,5.85,0Z"/></g></svg>