<svg class="ui icon" xmlns="http://www.w3.org/2000/svg" viewBox="0 0 100 100"><title>settings</title><g id="settings"><g id="layer101"><path d="M25.78,92.71l-1.45-4c-.74-2.08-1.37-3.81-1.41-3.85l-2.25-.94L18.49,83l-3.78,2-3.79,2L8.61,84.59A16.18,16.18,0,0,1,6.27,82c0-.14.79-1.94,1.77-4l1.74-3.71L8.86,72,8,69.78,4,68.51,0,67.22V60.29l3.82-1.37c2.12-.74,3.91-1.41,4-1.47A14,14,0,0,0,8.86,55.2l.9-2.14L7.92,49.37a42.37,42.37,0,0,1-1.84-3.94,19.41,19.41,0,0,1,2.31-2.55l2.32-2.31,3.9,1.84,3.9,1.83,2.06-.87a22,22,0,0,0,2.27-1,33.46,33.46,0,0,0,1.47-4.19l1.28-4,3.43,0,3.41.06,1.39,4c.75,2.17,1.47,4,1.57,4.15a27.38,27.38,0,0,0,4.36,1.79,42.47,42.47,0,0,0,3.92-1.88l3.62-1.91,2.44,2.43,2.41,2.44-1.85,3.86-1.82,3.88.9,2.24.92,2.21,4.08,1.36,4.06,1.35,0,3.39-.06,3.41-4,1.43c-2.19.79-4,1.45-4,1.49s-.45,1.06-.94,2.24l-.88,2.16,1.92,3.84,1.9,3.84-2.39,2.39-2.39,2.4-3.88-1.87L39.76,83l-2.09.88a13.76,13.76,0,0,0-2.3,1.1c-.12.14-.76,2-1.45,4.12l-1.25,3.86h-3.4C26.73,92.94,25.84,92.88,25.78,92.71Zm6-20.34a8.21,8.21,0,0,0,4-2.51,8.48,8.48,0,0,0,2.53-6.25A9.06,9.06,0,0,0,33,55.35c-1.47-.74-1.51-.74-3.86-.74s-2.39,0-3.85.72a11.18,11.18,0,0,0-4,3.61,9.88,9.88,0,0,0-.93,7.16,9.73,9.73,0,0,0,6.12,6.27A10.21,10.21,0,0,0,31.75,72.37Z"/><path d="M68.45,58.39a35.77,35.77,0,0,0-1.47-4,13.88,13.88,0,0,0-2.14-1l-1.9-.78-3.57,1.78-3.55,1.79-2.23-2.24-2.24-2.23L53,48l1.71-3.61-.85-2.1-.84-2.09L49.27,39l-3.78-1.24V31.41l.84-.31c.45-.18,2.14-.79,3.77-1.37L53,28.67l.86-2.06.85-2L52.94,21l-1.8-3.59,2.23-2.23,2.24-2.24,3.59,1.67c2,.92,3.62,1.68,3.7,1.68s1-.37,2.16-.82l2-.82,1.21-3.79,1.22-3.78h6.35l.55,1.53,1.37,3.76.81,2.26,2.06.84,2.06.86,3.53-1.76,3.53-1.79L92,15.06l2.27,2.29-1.68,3.53-1.67,3.51.33.94c.18.51.57,1.49.89,2.16l.55,1.24,3.66,1.15L100,31v6.51l-3.55,1.27a39.1,39.1,0,0,0-3.78,1.47,13.09,13.09,0,0,0-1,2.14l-.79,1.92,1.79,3.57,1.78,3.59-2.18,2.18A26.91,26.91,0,0,1,90,55.88c-.06,0-1.72-.74-3.67-1.66l-3.54-1.67-2.06.82-2.06.85-1.2,3.72c-.67,2.06-1.23,3.84-1.27,4s-.87.24-3.26.24H69.71Zm7.82-16.15A8.53,8.53,0,1,0,65,31c-.55,1.18-.59,1.43-.61,3.43s0,2.24.63,3.47a9,9,0,0,0,5.25,4.73,7.24,7.24,0,0,0,2.85.27A6.12,6.12,0,0,0,76.27,42.24Z"/></g></g></svg>