<svg class="ui icon" xmlns="http://www.w3.org/2000/svg" viewBox="0 0 100 100"><title>shore</title><g id="shore"><path d="M31.7,27.3,20.83,38.17a29,29,0,0,0-4,36L.58,90.34a2,2,0,0,0,0,2.82l6.26,6.26a2,2,0,0,0,2.82,0L25.88,83.2a29,29,0,0,0,36-4L72.7,68.3ZM42.2,77l4-4L38.46,62.72l-3.81,6L22,53.16l8-12.69,8.27,15.92,3.69-5.85,6.5,20.21,4-4V77Z"/><rect x="23.15" y="30.77" width="74.72" height="17.43" rx="4.28" transform="translate(45.65 -31.22) rotate(45)"/><path d="M83.78,46.41,98.44,31.75a5.35,5.35,0,0,0,0-7.55l-.28-.29a5.37,5.37,0,0,0-7.55,0L75.94,38.58Z"/><path d="M61.42,24.06,76.09,9.39a5.37,5.37,0,0,0,0-7.55l-.29-.28a5.35,5.35,0,0,0-7.55,0L53.59,16.22Z"/></g></svg>