<svg class="ui icon" xmlns="http://www.w3.org/2000/svg" viewBox="0 0 100 100"><path d="M73.2,35.81c.6.67,1.27,1.57,2,2.33l-1.6,1.35c-2-2-2-1.75-2-3.33.07-9.07,0-18.15.06-27.22,0-2.62-1.1-3.83-3.82-3.81-17.3.1-34.61,0-51.92,0-2.09,0-2.88.67-3.3,2.94H64.33c3.47,0,4.53,1,4.53,4.45,0,8.86,0,17.72,0,26.59,0,1.14,0,1.33-.77,2.14-10.36,10.85-21,22.39-31.43,33.16-3.2,3.14-3.46,3.67-4,7.56-.55,3.58-1,4.24-5.27,4.25l-17.78,0c-2.43,0-3.44-1-3.44-3.41V8.46C6.15,3.63,9,.3,13.8,0c4.55-.26,9.12-.24,13.68-.24q23,0,45.94,0c2.47,0,3.51,1,3.51,3.52,0,9.29,0,18.57,0,27.85,0,.7,0,1.13-.24,1.35C75.27,33.92,74.05,35,73.2,35.81ZM38.09,26.92c6.56,0,13.12,0,19.67,0,3.12,0,4.58-1.57,4.52-4.7,0-.31,0-.63-.05-.94-.1-2.7-1.55-4.14-4.25-4.14q-19.75,0-39.49,0A3.7,3.7,0,0,0,14.69,20a10.72,10.72,0,0,0-.23,3.1,3.9,3.9,0,0,0,4.12,3.82Z"/><path d="M42.16,84l-6.32-7.39C47.41,64.54,59.45,52,71.61,39.25L88.05,55c-2.79,3-7.62,9-10.54,11.7-.9.95-.54,1.32-.64,4.24s.08,5.65,0,8.49c0,2.68-1.06,3.67-3.75,3.68-.68,0-2.8.06-3.56.06-1.29,0-1.36-.23-1.36,1.49,0,.74,0,1.5-2.36,1.55l-5.48.1a3.18,3.18,0,0,0-1.89.37c-1.59,1.26-3.59,3.23-5.27,4.89L51.93,92.8l-6.81-6.47,31.49-32.8-2.87-2.65ZM71.91,72.27c-1.94,1.85-4,3.21-2.93,6,2.15.33,2.87-.24,2.92-2.37C71.93,74.83,71.91,73.75,71.91,72.27Z"/><path d="M34.32,79.86c.35.78.65,1.33.85,1.92a7.53,7.53,0,0,0,4.9,5,4.43,4.43,0,0,1,2.43,2.23,7.72,7.72,0,0,0,5.41,4.73c.64.19,1.24.5,2,.79-.17.25-.26.51-.4.55-5.35,1.51-10.7,3.05-16.08,4.45-2.58.67-3.68-.47-3.1-3.1,1.16-5.3,2.42-10.57,3.65-15.85A5.63,5.63,0,0,1,34.32,79.86Z"/><path d="M93.17,49.48l-2.23,2.38L74.44,35.92c1.07-.94,2.53-2.14,3.5-3a1.39,1.39,0,0,1,2.06.23c4.36,4.5,8.67,9,13.15,13.75A1.9,1.9,0,0,1,93.17,49.48Z"/></svg>