<svg class="ui icon" xmlns="http://www.w3.org/2000/svg" viewBox="0 0 100 100"><title>singleline</title><g id="singleline"><path d="M95.5,40.75H75.06V19.64a3.22,3.22,0,0,0-3.21-3.2h-5.4a3.21,3.21,0,0,0-3.2,3.2V80.36a3.21,3.21,0,0,0,3.2,3.2h5.4a3.22,3.22,0,0,0,3.21-3.2V59.25H95.5a4.52,4.52,0,0,0,4.5-4.5v-9.5A4.51,4.51,0,0,0,95.5,40.75Z"/><path d="M4.5,40.75H24.94V19.64a3.22,3.22,0,0,1,3.21-3.2h5.4a3.21,3.21,0,0,1,3.2,3.2V80.36a3.21,3.21,0,0,1-3.2,3.2h-5.4a3.22,3.22,0,0,1-3.21-3.2V59.25H4.5A4.52,4.52,0,0,1,0,54.75v-9.5A4.51,4.51,0,0,1,4.5,40.75Z"/><polygon points="55.13 35 41.41 53.15 47.33 52.31 44.49 65 58.59 46.8 52.66 47.64 55.13 35"/></g></svg>