<svg class="ui icon" xmlns="http://www.w3.org/2000/svg" viewBox="0 0 100 100"><path d="M52.34,100C37,92.3,29.19,77.84,35,60.8A62.83,62.83,0,0,1,45.39,42.69Q50,36.85,54.28,30.83c6.77-9.44,6.59-19,.23-28.55-.42-.63-.77-1.3-1.14-1.94.19-.16.35-.35.41-.33C67.71,6.19,74.2,17.26,69.62,32.14c-1.93,6.28-5.4,11.72-9.08,17.06-3,4.42-6.13,8.83-9,13.36-6.11,9.66-6.74,19.79-2.23,30.26C50.28,95.09,51.22,97.36,52.34,100Z"/><path d="M76,27.6c9.65,3.63,14.25,13.39,10.33,23-1.65,4-4.26,7.72-6.67,11.41-2,3-4.27,5.74-6.38,8.63-5.23,7.16-5.87,14.86-2.62,23,.47,1.16.89,2.34,1.39,3.65-9.29-3.67-14.38-14.77-11.6-24.87,1.6-5.81,4.9-10.62,8.74-15.14,2.43-2.85,4.84-5.74,7.08-8.74,4.38-5.88,4.62-12.07,1-18.43-.33-.59-.63-1.2-.94-1.81C76.32,28.2,76.18,27.93,76,27.6Z"/><path d="M27.73,10.16c10.24,3.7,14.85,13,11,22.81-1.87,4.76-5,9.06-7.63,13.49-1.85,3-4.07,5.89-5.87,9-3.57,6.08-3.7,12.46-1.19,18.95.67,1.74,1.4,3.46,2.39,5.88-1.18-.68-1.87-1-2.5-1.46-12-8-14.23-20.5-5.87-33.42,2.21-3.42,4.91-6.53,7.37-9.8,1.08-1.43,2.12-2.88,3.14-4.35,4.16-6,4.47-12.16.65-18.45-.22-.37-.43-.74-.64-1.11S28.19,11,27.73,10.16Z"/></svg>