<svg class="ui icon" xmlns="http://www.w3.org/2000/svg" viewBox="0 0 100 100"><path d="M6.34,23.81a4.32,4.32,0,0,0,.44-.39,19.83,19.83,0,0,1,4.9-3.89,45,45,0,0,1,8.78-4A67.32,67.32,0,0,1,30.59,13c2.51-.43,5-.82,7.53-1.14,2-.25,3.9-.46,5.86-.54,2.92-.12,5.86-.16,8.79-.12,2.22,0,4.46.14,6.67.36,2.49.24,5,.57,7.44,1,2.78.49,5.54,1.06,8.27,1.74a54.9,54.9,0,0,1,10,3.59A27,27,0,0,1,92,22.21c.52.47,1,1,1.56,1.63a3,3,0,0,0,.1-.56c0-1.53,0-3.07-.1-4.59a9.78,9.78,0,0,0-.3-2A11.36,11.36,0,0,0,90.52,12a26.75,26.75,0,0,0-9.21-6.53A48.82,48.82,0,0,0,70.39,2c-2.64-.52-5.3-.95-8-1.25S56.75.14,53.9.05c-3-.1-6,0-9.07.08-2.65.1-5.32.27-7.95.6s-5.09.81-7.61,1.32A45.59,45.59,0,0,0,16.51,6.57a22.93,22.93,0,0,0-8.21,7,8.1,8.1,0,0,0-1.67,3.84c-.11,1.33-.21,2.67-.28,4C6.31,22.14,6.34,22.91,6.34,23.81Z"/><path d="M51.27,61.32c1.08.67,2.22,1.27,3.21,2,3.34,2.52,4.25,5.63,3.12,9.25a24.44,24.44,0,0,1-4.31,7.2c-2.07,2.71-4.11,5.44-5,8.63a11,11,0,0,0,1.23,8.73,11.91,11.91,0,0,1,1,2c-.69-.44-1.4-.86-2.06-1.33a12.43,12.43,0,0,1-4.82-6,10.44,10.44,0,0,1,.61-7.77,29.57,29.57,0,0,1,4.57-6.72,27.17,27.17,0,0,0,4.37-6.61,7.71,7.71,0,0,0-1-7.74L51.1,61.49Z"/><path d="M60.85,97.1c-.85-.62-1.75-1.19-2.53-1.87a7.38,7.38,0,0,1-2.8-6.33,10.55,10.55,0,0,1,2.15-5.34c1.15-1.56,2.42-3.07,3.59-4.62a10,10,0,0,0,2.18-4.61A6.15,6.15,0,0,0,62.11,70c-.21-.32-.44-.62-.66-.93l.12-.12c.58.34,1.19.65,1.76,1,2.19,1.41,3.43,3.23,3.29,5.59a9.19,9.19,0,0,1-1.78,4.67c-1.18,1.7-2.47,3.35-3.65,5.06a10.14,10.14,0,0,0-2.09,7.2,9.52,9.52,0,0,0,1.47,3.67c.17.26.31.54.46.81Z"/><path d="M39,94.37a11.41,11.41,0,0,1-3.45-2.52C32.92,89,32.89,86,34.4,82.74a25.57,25.57,0,0,1,3.41-4.84A18.2,18.2,0,0,0,41,73a6.13,6.13,0,0,0-1.25-6.12l-.47-.62a4.62,4.62,0,0,1,.69.21c2.25,1.23,4.08,2.73,4.51,5.09a6.46,6.46,0,0,1-.9,4.48c-.9,1.52-2,3-3,4.43A21.82,21.82,0,0,0,37.34,86a8.54,8.54,0,0,0,1,7.24Z"/><path d="M90.89,25.81a18.45,18.45,0,0,0-6.1-4.22A52.2,52.2,0,0,0,73,17.75c-2.61-.54-5.25-1-7.89-1.35-2.11-.3-4.24-.5-6.36-.61-2.91-.14-5.81-.29-8.72-.3h0c-2.91,0-5.81.16-8.72.3-2.12.11-4.25.31-6.36.61-2.64.37-5.28.81-7.89,1.35a52.37,52.37,0,0,0-11.82,3.84,18.45,18.45,0,0,0-6.1,4.22c-2.2,2.48-2.55,5.32-.4,8a16.83,16.83,0,0,0,5.59,4.23c2.88,1.53,6.37,10.68,6.37,10.68.12.19.19.32.27.44a8.88,8.88,0,0,0,2.74,2.51,31.19,31.19,0,0,0,10.26,3.78c2.41.51,4.86.84,7.29,1.23a6.64,6.64,0,0,0,1.18,0,5.93,5.93,0,0,0-.69-.43A12.67,12.67,0,0,1,40.1,55a1.54,1.54,0,0,1,0-2,5.14,5.14,0,0,1,2.53-1.72A18.78,18.78,0,0,1,50,50.14h0a18.75,18.75,0,0,1,7.41,1.18A5.14,5.14,0,0,1,59.94,53a1.53,1.53,0,0,1,0,2,12,12,0,0,1-1.62,1.28,5.93,5.93,0,0,0-.69.43,6.64,6.64,0,0,0,1.18,0c2.43-.39,4.88-.72,7.29-1.23a31.19,31.19,0,0,0,10.26-3.78,8.88,8.88,0,0,0,2.74-2.51c.08-.12.16-.25.27-.44,0,0,3.49-9.15,6.37-10.68a16.83,16.83,0,0,0,5.59-4.23C93.44,31.13,93.09,28.29,90.89,25.81Z"/></svg>