<svg class="ui icon" xmlns="http://www.w3.org/2000/svg" viewBox="0 0 100 100"><path d="M68.76,16.78a21.06,21.06,0,0,0-41.68,4.28,19.07,19.07,0,0,0,.2,2c-10,3.07-23.48,11.55-15.72,31.85h0A18.11,18.11,0,0,0,8.65,73.62a1.37,1.37,0,0,0-.06.78A18.27,18.27,0,0,0,40.48,91.92,18.31,18.31,0,0,0,57.7,76.72c1.57.25-1.64-.22,0,0,22.49,3,33.84-13.17,35.16-29.88C94.7,23.55,68.76,16.78,68.76,16.78ZM43.94,4.63A17.53,17.53,0,0,1,65.52,16.84c.11.4.19.82.28,1.24C62.74,9.5,53.54,6.26,44.63,8.73S30.34,18.48,32.15,27.41c-.14-.4-.29-.8-.41-1.21A17.51,17.51,0,0,1,43.94,4.63ZM12.33,64.82c-.91,2.68-1.46,7.59-.65,9.9-1.35-2.55-3.82-7.72-2.24-12,2.07-5.57,7.32-8.88,12.07-7.26l.61.25C17.54,54.6,14.17,59.44,12.33,64.82Zm7.09-29.18c-5.15,5.88-5.53,12.4-1,17.07-.24-.18-.48-.36-.71-.55-5.18-4.55-5-13.21.37-19.35S32,25.36,37.2,29.9c.22.2.43.42.64.63C32.62,26.69,24.57,29.77,19.42,35.64ZM32.68,58.82c-4.59,4.61-6.33,12.31-7,14.67.11,0,.23,0,0,0s-.11,0,0,0C26.24,70.8,27.59,60,31.49,56c5.22-5.34,13.09-6.13,17.6-1.73.2.19.37.4.56.61C45.07,51.15,37.72,53.77,32.68,58.82Zm20.89-30c-8,4.86-11.41,12.42-8,19.4-.21-.29-.43-.58-.62-.89-4.28-7.08-1-16.93,7.44-22s18.68-3.47,23,3.61c.18.31.34.64.51,1C71.32,23.55,61.59,23.92,53.57,28.77Z"/></svg>