<svg class="ui icon sog-cog" xmlns="http://www.w3.org/2000/svg" viewBox="0 0 100 100"><g id="circle-2" data-name="circle"><path d="M50,1A49,49,0,1,1,1,50,49.05,49.05,0,0,1,50,1m0-1a50,50,0,1,0,50,50A50,50,0,0,0,50,0Z"/></g><g id="lines_copy" data-name="lines copy"><path d="M30.88,16.62l-.53-.93-.23.14.53.93Z"/><path d="M29.73,17.31l-.57-.91-.22.14.56.91Z"/><path d="M32.06,16l-.5-.94-.24.12.5.94Z"/><path d="M34.48,14.8l-.44-1-.24.1.43,1Z"/><path d="M28.6,18l-.6-.88-.22.15.6.88Z"/><path d="M33.25,15.36l-.46-.95-.24.11.47,1Z"/><path d="M25.38,20.45l-.69-.82-.21.17.7.82Z"/><path d="M22.89,22.71,22.14,22l-.19.19.76.75Z"/><path d="M23.38,22.24l-.75-.77-.19.18.75.78C23.25,22.36,23.32,22.3,23.38,22.24Z"/><path d="M27.5,18.81l-.63-.87-.22.15.63.87Z"/><path d="M26.43,19.61l-.67-.85-.21.17.67.85Z"/><path d="M24.36,21.33l-.72-.8-.19.18.71.79Z"/><path d="M42.79,12.22l-.2-1.06-.27.05.21,1Z"/><path d="M44.11,12,44,10.93l-.27,0L43.85,12Z"/><path d="M45.45,11.81l-.14-1.07-.26,0,.13,1.07Z"/><path d="M49.46,11.54l0-1.07h-.26l0,1.08Z"/><path d="M46.78,11.68l-.09-1.08-.27,0,.09,1.08Z"/><path d="M48.12,11.58l-.06-1.07H47.8l.05,1.07Z"/><path d="M37.6,13.58l-.35-1-.25.09.35,1Z"/><path d="M36.34,14,36,13l-.25.1.38,1Z"/><path d="M38.88,13.17l-.31-1-.26.08.31,1Z"/><path d="M41.48,12.49l-.24-1-.26.06.24,1Z"/><path d="M40.17,12.8l-.27-1-.26.06.27,1Z"/><path d="M11.84,45.18l-1.07-.13,0,.26,1.07.14Z"/><path d="M12.88,39.91l-1-.27-.06.26,1,.27C12.83,40.09,12.85,40,12.88,39.91Z"/><path d="M12.55,41.22l-1-.24-.06.26,1,.24Z"/><path d="M13.24,38.62l-1-.31-.08.26,1,.31A2.5,2.5,0,0,0,13.24,38.62Z"/><path d="M12.26,42.53l-1-.21-.05.27,1.06.2C12.23,42.7,12.25,42.62,12.26,42.53Z"/><path d="M13.67,37.35l-1-.35-.09.25,1,.35Z"/><path d="M14.13,36.09l-1-.38L13,36l1,.38Z"/><path d="M11.59,47.85l-1.07-.05v.26l1.07.06C11.58,48,11.59,47.94,11.59,47.85Z"/><path d="M11.7,46.51l-1.08-.09,0,.27,1.08.09A2.45,2.45,0,0,1,11.7,46.51Z"/><path d="M11.55,49.2l-1.08,0v.26l1.07,0A2.35,2.35,0,0,0,11.55,49.2Z"/><path d="M12,43.85,11,43.68l0,.27,1.05.16A2.38,2.38,0,0,1,12,43.85Z"/><path d="M50,11.53h.13V10.46h-.26v1.07Z"/><path d="M19.78,26.22l-.85-.67-.17.21.85.67Z"/><path d="M18.18,28.38l-.88-.6-.15.22.88.6Z"/><path d="M19,27.28l-.87-.63-.15.22.87.63Z"/><path d="M21.5,24.16l-.79-.71-.18.19.8.72C21.39,24.3,21.44,24.23,21.5,24.16Z"/><path d="M20.62,25.18l-.82-.7-.17.21.82.69C20.5,25.31,20.57,25.24,20.62,25.18Z"/><path d="M16.09,31.82l-.94-.5-.12.24.94.5Z"/><path d="M22.43,23.19l-.78-.75-.18.19.77.75C22.3,23.32,22.36,23.25,22.43,23.19Z"/><path d="M14.91,34.23l-1-.43-.1.24,1,.44C14.84,34.39,14.88,34.31,14.91,34.23Z"/><path d="M15.48,33l-1-.47-.11.24.95.46Z"/><path d="M17.45,29.5l-.91-.56-.14.22.91.57C17.35,29.65,17.4,29.58,17.45,29.5Z"/><path d="M16.76,30.65l-.93-.53-.14.23.93.53C16.67,30.81,16.71,30.73,16.76,30.65Z"/><path d="M79.11,24.87l.82-.71-.18-.2-.81.71C79,24.73,79.05,24.8,79.11,24.87Z"/><path d="M83.71,31.47l.94-.52-.13-.24-.94.52Z"/><path d="M82.33,29.16l.9-.58-.14-.23-.9.59Z"/><path d="M83,30.3l.92-.55-.14-.23-.91.55Z"/><path d="M84.33,32.66l1-.49-.12-.24-1,.49Z"/><path d="M84.92,33.86l1-.45-.11-.24-1,.45Z"/><path d="M11.53,50v-.13H10.46v.26h1.07Z"/><path d="M80,25.9l.84-.68L80.64,25l-.83.68Z"/><path d="M78.22,23.87l.79-.74-.18-.19-.79.73Z"/><path d="M81.58,28.05l.88-.62-.15-.22-.88.62Z"/><path d="M80.8,27l.86-.64-.16-.21-.86.64C80.69,26.82,80.75,26.88,80.8,27Z"/><path d="M88.27,46.11,89.33,46l0-.27-1.07.12Z"/><path d="M88.11,44.78l1.06-.15,0-.27-1.06.15C88.09,44.6,88.09,44.69,88.11,44.78Z"/><path d="M87.9,43.45,89,43.27l0-.27-1,.19C87.87,43.28,87.89,43.36,87.9,43.45Z"/><path d="M88.44,48.79l1.08,0v-.26l-1.08,0A2.44,2.44,0,0,1,88.44,48.79Z"/><path d="M88.38,47.45l1.07-.08,0-.26-1.07.07A2.45,2.45,0,0,0,88.38,47.45Z"/><path d="M87,39.53l1-.3L88,39l-1,.3A2,2,0,0,1,87,39.53Z"/><path d="M86.63,38.24l1-.33-.08-.25-1,.33C86.57,38.07,86.6,38.15,86.63,38.24Z"/><path d="M86.2,37l1-.37-.09-.25-1,.36Z"/><path d="M87.66,42.13l1-.22,0-.26-1.05.22Z"/><path d="M87.36,40.82l1-.26-.07-.25-1,.25Z"/><path d="M69.93,17.09l.55-.91L70.25,16,69.7,17Z"/><path d="M60.73,13.06l.3-1L60.77,12l-.3,1Z"/><path d="M59.44,12.7l.25-1-.25-.07-.26,1Z"/><path d="M58.13,12.4l.22-1.05-.26,0-.22,1Z"/><path d="M62,13.46l.34-1-.26-.08-.33,1Z"/><path d="M63.29,13.89l.36-1-.25-.09-.37,1Z"/><path d="M77.29,22.9l.76-.76L77.86,22l-.76.76A1.7,1.7,0,0,1,77.29,22.9Z"/><path d="M54.15,11.76l.11-1.07-.26,0-.11,1.07Z"/><path d="M52.82,11.64l.07-1.07-.27,0-.07,1.07Z"/><path d="M51.48,11.57l0-1.08h-.26l0,1.08Z"/><path d="M56.81,12.14,57,11.09,56.73,11l-.18,1.06Z"/><path d="M55.49,11.93l.15-1.06-.27,0-.15,1.06Z"/><path d="M74.31,20.19l.68-.83-.21-.17L74.1,20Z"/><path d="M73.26,19.36l.64-.86-.21-.16-.64.86C73.12,19.25,73.18,19.31,73.26,19.36Z"/><path d="M72.17,18.57l.62-.88-.22-.15-.62.88Z"/><path d="M75.33,21.06l.71-.81-.2-.18-.71.82Z"/><path d="M76.33,22l.73-.78L76.87,21l-.74.79Z"/><path d="M67.58,15.79l.49-1-.24-.12-.49,1Z"/><path d="M68.77,16.42l.51-.94-.23-.13-.52.94Z"/><path d="M66.38,15.19l.45-1-.24-.11-.45,1Z"/><path d="M71.06,17.81l.59-.9-.23-.14-.58.9Z"/><path d="M69.7,83l.55.92.23-.14-.55-.91Z"/><path d="M68.53,83.71l.52.94.23-.13-.51-.94Z"/><path d="M70.84,82.33l.58.9.23-.14-.59-.9Z"/><path d="M66.14,84.92l.45,1,.24-.11-.45-1Z"/><path d="M67.34,84.33l.49,1,.24-.12-.49-1Z"/><path d="M75.13,79.11l.71.82.2-.18-.71-.81Z"/><path d="M76.13,78.22l.74.79.19-.18L76.33,78Z"/><path d="M77.1,77.29l.76.76.19-.19-.76-.76A1.7,1.7,0,0,1,77.1,77.29Z"/><path d="M73.05,80.8l.64.86.21-.16-.64-.86C73.18,80.69,73.12,80.75,73.05,80.8Z"/><path d="M72,81.58l.62.88.22-.15-.62-.88Z"/><path d="M74.1,80l.68.84.21-.17-.68-.83Z"/><path d="M50.54,88.46l0,1.07h.26l0-1.08Z"/><path d="M55.89,88l.16,1,.27,0L56.15,88Z"/><path d="M57.21,87.78l.2,1.06.27,0-.21-1.05Z"/><path d="M51.88,88.42l.06,1.07h.26l-.05-1.07Z"/><path d="M53.22,88.32l.09,1.08.27,0-.09-1.08Z"/><path d="M62.4,86.42l.35,1,.25-.09-.35-1Z"/><path d="M61.12,86.83l.31,1,.26-.08-.31-1Z"/><path d="M63.66,86l.39,1,.24-.1-.38-1Z"/><path d="M58.52,87.51l.24,1,.26-.06-.24-1Z"/><path d="M59.83,87.2l.27,1,.26-.06-.27-1Z"/><path d="M54.55,88.19l.14,1.07.26,0-.13-1.07Z"/><path d="M86.94,60.73l1,.3.07-.26-1-.3A2,2,0,0,1,86.94,60.73Z"/><path d="M87.3,59.44l1,.25.07-.25-1-.26Z"/><path d="M87.6,58.13l1.05.22,0-.26-1-.22Z"/><path d="M86.11,63.29l1,.36.09-.25-1-.37Z"/><path d="M86.54,62l1,.34.08-.26-1-.33Z"/><path d="M88.36,52.82l1.07.07,0-.27-1.07-.07A2.45,2.45,0,0,0,88.36,52.82Z"/><path d="M87.86,56.81l1,.19,0-.27-1.06-.18C87.89,56.64,87.87,56.72,87.86,56.81Z"/><path d="M88.43,51.48l1.08,0v-.26l-1.08,0A2.44,2.44,0,0,1,88.43,51.48Z"/><path d="M88.07,55.49l1.06.15,0-.27-1.06-.15C88.09,55.31,88.09,55.4,88.07,55.49Z"/><path d="M88.24,54.15l1.07.11,0-.26-1.06-.11Z"/><path d="M79.81,74.31l.83.68.17-.21L80,74.1Z"/><path d="M80.64,73.26l.86.64.16-.21-.86-.64C80.75,73.12,80.69,73.18,80.64,73.26Z"/><path d="M81.43,72.17l.88.62.15-.22L81.58,72Z"/><path d="M78.94,75.33l.81.71.18-.2-.82-.71C79.05,75.2,79,75.27,78.94,75.33Z"/><path d="M78,76.33l.79.73.18-.19-.79-.74Z"/><path d="M88.47,49.87v.26h1.07v-.26Z"/><path d="M84.21,67.58l1,.49.12-.24-1-.49Z"/><path d="M84.81,66.38l1,.45.11-.24-1-.45Z"/><path d="M83.58,68.77l.94.51.13-.23-.94-.52Z"/><path d="M82.91,69.93l.91.55.14-.23L83,69.7Z"/><path d="M82.19,71.06l.9.59.14-.23-.9-.58Z"/><path d="M42.53,87.74l-.21,1.05.27,0,.2-1.06Z"/><path d="M16.62,69.12l-.93.53.14.23.93-.53C16.71,69.27,16.67,69.19,16.62,69.12Z"/><path d="M17.31,70.27l-.91.57.14.23.91-.57C17.4,70.42,17.35,70.35,17.31,70.27Z"/><path d="M18,71.4l-.88.6.15.22.88-.6Z"/><path d="M16,67.94l-.94.5.12.24.94-.5Z"/><path d="M14.8,65.52l-1,.44.1.24,1-.43C14.88,65.69,14.84,65.61,14.8,65.52Z"/><path d="M15.36,66.75l-.95.46.11.24,1-.47Z"/><path d="M21.33,75.64l-.8.72.18.19.79-.71C21.44,75.77,21.39,75.7,21.33,75.64Z"/><path d="M20.45,74.62l-.82.69.17.21.82-.7C20.57,74.76,20.5,74.69,20.45,74.62Z"/><path d="M50,88.47h-.13v1.07h.26V88.47Z"/><path d="M18.81,72.5l-.87.63.15.22.87-.63Z"/><path d="M19.61,73.57l-.85.67.17.21.85-.67Z"/><path d="M12.22,57.21l-1.06.2.05.27,1-.21C12.25,57.38,12.23,57.3,12.22,57.21Z"/><path d="M11.81,54.55l-1.07.14,0,.26,1.07-.13Z"/><path d="M12,55.89l-1.05.16,0,.27L12,56.15A2.38,2.38,0,0,1,12,55.89Z"/><path d="M11.68,53.22l-1.08.09,0,.27,1.08-.09A2.45,2.45,0,0,1,11.68,53.22Z"/><path d="M11.58,51.88l-1.07.06v.26l1.07-.05C11.59,52.06,11.58,52,11.58,51.88Z"/><path d="M14,63.66l-1,.39.1.24,1-.38Z"/><path d="M13.58,62.4l-1,.35.09.25,1-.35Z"/><path d="M13.17,61.12l-1,.31.08.26,1-.31A2.5,2.5,0,0,0,13.17,61.12Z"/><path d="M22.71,77.1l-.76.76.19.19.76-.76A1.7,1.7,0,0,1,22.71,77.1Z"/><path d="M12.49,58.52l-1,.24.06.26,1-.24Z"/><path d="M12.8,59.83l-1,.27.06.26,1-.27C12.85,60,12.83,59.91,12.8,59.83Z"/><path d="M22.24,76.62l-.77.75.18.19.78-.75Z"/><path d="M39.91,87.12l-.27,1,.26.06.27-1Z"/><path d="M11.54,50.54l-1.07,0v.26l1.08,0A2.35,2.35,0,0,0,11.54,50.54Z"/><path d="M41.22,87.45l-.24,1,.26.06.24-1Z"/><path d="M38.62,86.76l-.31,1,.26.08.31-1Z"/><path d="M36.09,85.87l-.38,1L36,87l.38-1Z"/><path d="M37.35,86.33l-.35,1,.25.09.35-1Z"/><path d="M46.51,88.3l-.09,1.08.27,0,.09-1.08Z"/><path d="M49.2,88.45l0,1.08h.26l0-1.07Z"/><path d="M47.85,88.41l-.05,1.07h.26l.06-1.07Z"/><path d="M43.85,88,43.68,89l.27,0,.16-1Z"/><path d="M45.18,88.16l-.13,1.07.26,0,.14-1.07Z"/><path d="M26.22,80.22l-.67.85.21.17.67-.85Z"/><path d="M27.28,81l-.63.87.22.15.63-.87Z"/><path d="M24.16,78.5l-.71.79.19.18.72-.8Z"/><path d="M25.18,79.38l-.7.82.21.17.69-.82Z"/><path d="M23.19,77.57l-.75.78.19.18.75-.77Z"/><path d="M28.38,81.82l-.6.88.22.15.6-.88Z"/><path d="M33,84.52l-.47,1,.24.12.46-1Z"/><path d="M34.23,85.09l-.43,1,.24.11.44-1Z"/><path d="M31.82,83.91l-.5.94.24.12.5-.94Z"/><path d="M29.5,82.55l-.56.91.22.14.57-.91Z"/><path d="M30.65,83.24l-.53.93.23.14.53-.93Z"/><path d="M23,22.61l-2.27-2.27-.38.38L22.61,23Z"/><path d="M14.55,35l-3-1.23-.2.5,3,1.23C14.42,35.36,14.48,35.19,14.55,35Z"/><path d="M35.53,14.36l-1.23-3-.5.2,1.23,3Z"/><path d="M11.53,50c0-.09,0-.18,0-.27H8.33v.54h3.21C11.54,50.18,11.53,50.09,11.53,50Z"/><path d="M77.39,23l2.27-2.27-.38-.38L77,22.61Z"/><path d="M85.64,35.53l3-1.23-.2-.5-3,1.23C85.52,35.19,85.58,35.36,85.64,35.53Z"/><path d="M50,11.53h.27V8.33h-.54v3.21Z"/><path d="M65,14.55l1.23-3-.5-.2-1.23,3Z"/><path d="M35,85.45l-1.23,3,.5.2,1.23-3Z"/><path d="M85.45,65l3,1.23.2-.5-3-1.23C85.58,64.64,85.52,64.81,85.45,65Z"/><path d="M14.36,64.47l-3,1.23.2.5,3-1.23C14.48,64.81,14.42,64.64,14.36,64.47Z"/><path d="M77,77.39l2.27,2.27.38-.38L77.39,77Z"/><path d="M88.46,49.73c0,.09,0,.18,0,.27s0,.18,0,.27h3.21v-.54Z"/><path d="M22.61,77l-2.27,2.27.38.38L23,77.39Z"/><path d="M50,88.47h-.27v3.21h.54V88.46Z"/><path d="M64.47,85.64l1.23,3,.5-.2-1.23-3Z"/></g><g id="text_copy" data-name="text copy"><text class="cls-2" transform="translate(48.28 6.48)">N</text><text class="cls-2" transform="translate(51.45 93.52) rotate(180)">S</text><text class="cls-2" transform="translate(6.48 52.33) rotate(-90)">W</text><text class="cls-2" transform="translate(93.52 48.63) rotate(90)">E</text><text class="cls-3" transform="translate(78.62 17.13) rotate(45)"><tspan class="cls-4">4</tspan><tspan class="cls-5" x="2.36" y="0">5</tspan><tspan x="4.49" y="0">°</tspan></text><text class="cls-3" transform="translate(22.09 83.59) rotate(-135)"><tspan class="cls-4">2</tspan><tspan class="cls-6" x="2.21" y="0">2</tspan><tspan class="cls-5" x="4.38" y="0">5</tspan><tspan x="6.52" y="0">°</tspan></text><text class="cls-3" transform="translate(16.6 21.91) rotate(-45)"><tspan class="cls-7">3</tspan><tspan class="cls-8" x="2.2" y="0">1</tspan><tspan class="cls-5" x="3.85" y="0">5</tspan><tspan x="5.98" y="0">°</tspan></text><text class="cls-3" transform="translate(83.42 78.07) rotate(135)"><tspan class="cls-9">1</tspan><tspan class="cls-10" x="1.66" y="0">3</tspan><tspan class="cls-5" x="3.9" y="0">5</tspan><tspan x="6.03" y="0">°</tspan></text><text class="cls-3" transform="translate(62.48 8.03) rotate(22.5)"><tspan class="cls-4">2</tspan><tspan class="cls-11" x="2.21" y="0">2</tspan><tspan class="cls-12" x="4.34" y="0">,</tspan><tspan class="cls-5" x="5.36" y="0">5</tspan><tspan x="7.5" y="0">°</tspan></text><text class="cls-3" transform="translate(38.61 92.43) rotate(-157.5)"><tspan class="cls-13">2</tspan><tspan class="cls-14" x="2.17" y="0">0</tspan><tspan class="cls-11" x="4.58" y="0">2</tspan><tspan class="cls-12" x="6.71" y="0">,</tspan><tspan class="cls-5" x="7.73" y="0">5</tspan><tspan x="9.86" y="0">°</tspan></text><text class="cls-3" transform="translate(7.59 38.58) rotate(-67.5)"><tspan class="cls-15">2</tspan><tspan class="cls-16" x="2.2" y="0">9</tspan><tspan class="cls-11" x="4.52" y="0">2</tspan><tspan class="cls-12" x="6.65" y="0">,</tspan><tspan class="cls-5" x="7.67" y="0">5</tspan><tspan x="9.81" y="0">°</tspan></text><text class="cls-3" transform="translate(92.19 61.95) rotate(112.5)"><tspan class="cls-17">1</tspan><tspan class="cls-18" x="1.67" y="0">1</tspan><tspan class="cls-11" x="3.36" y="0">2</tspan><tspan class="cls-12" x="5.48" y="0">,</tspan><tspan class="cls-5" x="6.5" y="0">5</tspan><tspan x="8.64" y="0">°</tspan></text><text class="cls-3" transform="translate(88.55 29.38) rotate(67.5)"><tspan class="cls-19">6</tspan><tspan class="cls-20" x="2.31" y="0">7</tspan><tspan class="cls-12" x="3.77" y="0">,</tspan><tspan class="cls-5" x="4.79" y="0">5</tspan><tspan x="6.92" y="0">°</tspan></text><text class="cls-3" transform="translate(11.84 71.55) rotate(-112.5)"><tspan class="cls-21">2</tspan><tspan class="cls-22" x="2.1" y="0">4</tspan><tspan class="cls-20" x="4.33" y="0">7</tspan><tspan class="cls-12" x="5.79" y="0">,</tspan><tspan class="cls-5" x="6.81" y="0">5</tspan><tspan x="8.95" y="0">°</tspan></text><text id="NNW_337_5_" data-name="NNW 337,5°" class="cls-3" transform="translate(28.42 11.86) rotate(-22.5)"><tspan class="cls-4">3</tspan><tspan class="cls-12" x="2.24" y="0">3</tspan><tspan class="cls-20" x="4.4" y="0">7</tspan><tspan class="cls-12" x="5.86" y="0">,</tspan><tspan class="cls-5" x="6.88" y="0">5</tspan><tspan x="9.02" y="0">°</tspan></text><text class="cls-3" transform="translate(71.29 88.26) rotate(157.5)"><tspan class="cls-8">1</tspan><tspan class="cls-23" x="1.65" y="0">5</tspan><tspan class="cls-20" x="3.77" y="0">7</tspan><tspan class="cls-12" x="5.23" y="0">,</tspan><tspan class="cls-5" x="6.25" y="0">5</tspan><tspan x="8.38" y="0">°</tspan></text></g><g id="circle-3" data-name="circle"><circle cx="50" cy="50" r="28.52"/></g></svg>