<svg class="ui icon" xmlns="http://www.w3.org/2000/svg" viewBox="0 0 100 100"><path d="M79.57,17.59c.05-4,.13-8,0-12A7.61,7.61,0,0,0,78.3,1.74c-1.86-2.7-5.07-1.88-7-.1C69,3.69,66.82,5.85,64.64,8q-9.7,9.56-19.39,19.15c-1.39,1.36-2.81,2.7-4.26,4a2.2,2.2,0,0,1-1.31.47c-4.8,0-9.6.08-14.39,0a4.66,4.66,0,0,0-4.89,4.91c0,2.29,0,4.58,0,6.87s0,4.41,0,6.62,0,4.41,0,6.62,0,4.58,0,6.87a4.66,4.66,0,0,0,4.89,4.91c4.79-.09,9.59,0,14.39,0a2.2,2.2,0,0,1,1.31.47c1.45,1.29,2.87,2.63,4.26,4Q55,82.42,64.64,92c2.18,2.15,4.35,4.31,6.62,6.36,2,1.78,5.18,2.6,7-.1a7.61,7.61,0,0,0,1.24-3.88c.16-4,.08-8,0-12Z"/></svg>