<svg class="ui icon" xmlns="http://www.w3.org/2000/svg" viewBox="0 0 100 100"><title>tanks</title><g id="tanks"><path d="M29.52,11C40.59,25.22,51.14,39.4,57.28,56.17a37.72,37.72,0,0,1,.32,25.52C54,92.35,46.26,98.27,35.12,99.64a44.78,44.78,0,0,1-12.56-.17C9.37,97.25.76,86.81.07,73.31A49.53,49.53,0,0,1,4.7,49.59C10.07,37.93,21.61,19.68,29.52,11ZM18,45.49c0-.48,0-.62,0-1-4.49,7.15-6.3,10.31-8.12,19.72C9,68.92,8.94,72.5,11.5,76a4.4,4.4,0,0,0,4.19,2,4.13,4.13,0,0,0,3.16-3.31,21.82,21.82,0,0,0,.5-7.27C19,60.1,18.47,52.8,18,45.49Z"/><path d="M81.2,0c6.9,8.87,13.48,17.71,17.31,28.17a23.44,23.44,0,0,1,.2,15.91c-2.23,6.65-7.07,10.34-14,11.19a27.75,27.75,0,0,1-7.83-.1c-8.23-1.38-13.6-7.89-14-16.31a31.09,31.09,0,0,1,2.89-14.8C69.07,16.79,76.27,5.41,81.2,0ZM74,21.51c0-.3,0-.39,0-.61-2.8,4.46-3.93,6.43-5.06,12.3-.56,2.92-.57,5.15,1,7.35a2.76,2.76,0,0,0,2.62,1.23,2.59,2.59,0,0,0,2-2.06,13.78,13.78,0,0,0,.31-4.54C74.64,30.62,74.31,26.07,74,21.51Z"/></g></svg>