<svg class="ui icon" xmlns="http://www.w3.org/2000/svg" viewBox="0 0 100 100"><path d="M29.18,4c8,10.21,15.51,20.38,19.93,32.41a27.09,27.09,0,0,1,.22,18.31C46.77,62.38,41.2,66.62,33.2,67.6a31.62,31.62,0,0,1-9-.12C14.72,65.89,8.54,58.4,8.05,48.71a35.57,35.57,0,0,1,3.32-17C15.23,23.33,23.51,10.23,29.18,4ZM20.92,28.75a6.81,6.81,0,0,0,0-.7c-3.22,5.13-4.52,7.4-5.82,14.15-.65,3.36-.65,5.93,1.18,8.47a3.18,3.18,0,0,0,3,1.41,3,3,0,0,0,2.27-2.38,16,16,0,0,0,.36-5.22C21.64,39.24,21.26,34,20.92,28.75Z"/><path d="M74.11,3.5a3.73,3.73,0,0,1,3.72,3.72V60.56a3.52,3.52,0,0,0,1.77,3,17.61,17.61,0,1,1-17.42,0,3.52,3.52,0,0,0,1.76-3V7.22A3.73,3.73,0,0,1,67.67,3.5h6.44m0-3.5H67.67a7.24,7.24,0,0,0-7.23,7.22V60.56a21.12,21.12,0,1,0,20.89,0V7.22A7.24,7.24,0,0,0,74.11,0Z"/><rect x="67.21" y="35.03" width="7.27" height="7.01"/><rect x="67.21" y="53.57" width="7.27" height="7.01"/><rect x="67.21" y="44.3" width="7.27" height="7.01"/><rect x="67.21" y="25.77" width="7.27" height="7.01"/><path d="M67.21,23.51h7.27V18.17a1.67,1.67,0,0,0-1.67-1.67H68.88a1.67,1.67,0,0,0-1.67,1.67Z"/><path d="M76.46,66.56c-1.21-.55-2-.76-2-2.08V62.84H67.21v1.67c0,1.31-.74,1.52-1.92,2.06a13.54,13.54,0,1,0,11.17,0Z"/></svg>