<svg class="ui icon" xmlns="http://www.w3.org/2000/svg" viewBox="0 0 100 100"><path d="M0,55.82V51.08c.28-1.79.5-3.6.86-5.38A37.81,37.81,0,0,1,37.52,15.55c12.42-.14,24.85,0,37.27,0h1V39.68H73.27c.1.32.15.53.22.73a35.61,35.61,0,0,1,1.24,21.94c-4,15-13.75,24.39-28.84,28.14-1.83.45-3.73.6-5.59.89H35.56c-1.82-.29-3.66-.51-5.47-.87A37.94,37.94,0,0,1,.87,61.29C.51,59.48.29,57.64,0,55.82ZM38,29.3A24.14,24.14,0,1,0,62.08,53.41,24.27,24.27,0,0,0,38,29.3Z"/><path d="M100,43.75c-.73,2.08-2.21,2.88-4.38,2.82-3-.09-6,0-9.05,0a3.52,3.52,0,0,1-3.8-3.82c0-9.91,0-19.82,0-29.72,0-2.17.73-3.66,2.82-4.38H97.2a4.2,4.2,0,0,1,2.8,2.8Z"/><path d="M21.87,59.05c-3.77-8.56,2-20.47,12.61-22.37v7c0,2.34,0,4.67,0,7a1.41,1.41,0,0,1-.46,1C30,54.19,25.92,56.61,21.87,59.05Z"/><path d="M41.39,36.67C51.58,38.53,57.78,49.87,54,59.05l-6.69-4C45.57,54,43.78,52.92,42,51.82a1.31,1.31,0,0,1-.61-.86C41.38,46.23,41.39,41.49,41.39,36.67Z"/><path d="M25.42,65l8.81-5.31c1-.62,2.07-1.28,3.14-1.86a1.27,1.27,0,0,1,1-.05c4,2.34,7.92,4.73,11.88,7.12.05,0,.07.11.1.17A16.73,16.73,0,0,1,25.42,65Z"/></svg>