<svg class="ui icon" xmlns="http://www.w3.org/2000/svg" viewBox="0 0 100 100"><path d="M53.84,43.91l-5-8s0,0,0-.06a90.36,90.36,0,0,1,12.46-5.6A29.89,29.89,0,0,1,72.07,29a19.25,19.25,0,0,1,13.85,7,19.72,19.72,0,0,1,4.62,10,20.08,20.08,0,0,1-1.23,10.77A21.56,21.56,0,0,1,72.57,70.76a22.31,22.31,0,0,1-14.65-2.05,32.26,32.26,0,0,1-4.47-3.15c-.35-.25-.65-.56-1.07-.92,1.5-.71,2.93-1.41,4.37-2.06s3.16-1.42,4.76-2.08a1.52,1.52,0,0,1,1,0c3.66,1.33,7.37,1.69,11,.16A11.78,11.78,0,0,0,81.09,51c.75-5.12-1.41-9.7-6.43-11.88a12.55,12.55,0,0,0-5.74-.71c-4.29.22-8.05,2-11.8,3.86Z"/><path d="M8.49,60.29c2.63-.33,5.17-.64,7.71-1,.79-.11,1.57-.25,2.36-.38a1.51,1.51,0,0,1,1.27.27,9.09,9.09,0,0,0,4,2.09c.4.06.81.07,1.22.1,4.63.41,8.83-.95,12.91-3q8.22-4.07,16.51-8a82.64,82.64,0,0,1,18.15-5.89c1.31-.28,2.64-.48,4-.68a.64.64,0,0,1,.52.25A9.38,9.38,0,0,1,78,52.35a.83.83,0,0,1-.49.46c-2,.61-4.09,1.24-6.15,1.78a85.18,85.18,0,0,0-17.07,6.32Q48.06,64,41.77,67.07a39.53,39.53,0,0,1-9.08,3.32,25.93,25.93,0,0,1-8.32.61,19.7,19.7,0,0,1-12.8-6.45A16.13,16.13,0,0,1,8.49,60.29Z"/><path d="M44.34,52.22c-.79-1.49-1.51-2.91-2.28-4.31a25,25,0,0,0-4.42-6,12.72,12.72,0,0,0-7.51-3.56,12.75,12.75,0,0,0-9.81,2.71A13.58,13.58,0,0,0,18,43.58a2,2,0,0,1-1.52,1c-2.47.27-4.94.57-7.42.85-.74.08-1.5.12-2.48.2.61-1.51,1.06-2.92,1.72-4.21A22.13,22.13,0,0,1,22.48,29.51a24.83,24.83,0,0,1,6.25-.71A22.65,22.65,0,0,1,40,31.63a22.8,22.8,0,0,1,4.65,3.84c3.27,3.07,5.31,7,7.33,10.86.3.58.57,1.18.88,1.83Z"/><path d="M0,57.65V48.34l3.44-.18c2.39-.1,4.78-.07,7.15-.31,3.09-.31,6.17-.73,9.22-1.27A86.11,86.11,0,0,0,32,43.47c.8-.27,1.59-.58,2.39-.82a.77.77,0,0,1,.63.12,32.22,32.22,0,0,1,5,6.74c.48.84.47.87-.39,1.22A77.54,77.54,0,0,1,27.48,54.6q-5.27,1.18-10.59,2a71.43,71.43,0,0,1-7.16.72c-3.13.18-6.27.22-9.41.32A2.51,2.51,0,0,1,0,57.65Z"/><path d="M100,41.48v9.37l-6.91.49a22.85,22.85,0,0,0-.7-9.23Z"/></svg>