<svg class="ui icon" xmlns="http://www.w3.org/2000/svg" viewBox="0 0 100 100"><path class="cls-1" d="M54.2,19.18a3.16,3.16,0,0,0-4.54,0L46.2,22.63A23,23,0,0,0,43.26,21a30.68,30.68,0,0,0-3.13-1.22V14.51a3.18,3.18,0,0,0-3.2-3.2H30.26a3.06,3.06,0,0,0-2.23.93,3,3,0,0,0-1,2.27v4.86a24.36,24.36,0,0,0-3.24,1,26.27,26.27,0,0,0-3,1.38L17,18a3,3,0,0,0-2.22-1,3.15,3.15,0,0,0-2.27,1L7.87,22.63a3.18,3.18,0,0,0,0,4.55l3.46,3.46a23.08,23.08,0,0,0-1.6,2.94,29.8,29.8,0,0,0-1.22,3.13H3.2a3.08,3.08,0,0,0-2.27.93A3.09,3.09,0,0,0,0,39.91v6.67a3.1,3.1,0,0,0,.93,2.23,3,3,0,0,0,2.27.95H8.06a24.36,24.36,0,0,0,1,3.24,32.09,32.09,0,0,0,1.38,3L6.65,59.81a2.94,2.94,0,0,0-1,2.22,3.15,3.15,0,0,0,1,2.27L11.33,69a3.31,3.31,0,0,0,4.54,0l3.46-3.52a23.08,23.08,0,0,0,2.94,1.6,30.68,30.68,0,0,0,3.13,1.22v5.31a3.18,3.18,0,0,0,3.2,3.2h6.67a3.14,3.14,0,0,0,2.24-.93,3,3,0,0,0,.94-2.27V68.78a23,23,0,0,0,3.24-1,28.74,28.74,0,0,0,3-1.37l3.77,3.78a3.11,3.11,0,0,0,4.49,0l4.73-4.68a3.31,3.31,0,0,0,0-4.54l-3.51-3.46a23,23,0,0,0,1.59-2.94A31.61,31.61,0,0,0,57,51.44h5.31a3.08,3.08,0,0,0,2.27-.93,3.12,3.12,0,0,0,.93-2.28V41.57a3.14,3.14,0,0,0-.93-2.24,3.06,3.06,0,0,0-2.27-.95H57.47a27.38,27.38,0,0,0-1-3.2,25.21,25.21,0,0,0-1.38-3l3.78-3.83a3,3,0,0,0,1-2.22,3.13,3.13,0,0,0-1-2.27L54.2,19.18ZM91.08,55a1.73,1.73,0,0,0-2.46.43l-1.56,2.2A12.72,12.72,0,0,0,85.32,57a16.3,16.3,0,0,0-1.82-.37L83,53.76a1.68,1.68,0,0,0-.72-1.14A1.7,1.7,0,0,0,81,52.33L77.35,53a1.75,1.75,0,0,0-1.13.72,1.71,1.71,0,0,0-.3,1.32l.46,2.64a11.62,11.62,0,0,0-1.65.84,12.64,12.64,0,0,0-1.49,1L70.8,57.82a1.65,1.65,0,0,0-1.29-.31,1.67,1.67,0,0,0-1.14.74l-2.09,3a1.74,1.74,0,0,0,.43,2.47l2.2,1.55A12.72,12.72,0,0,0,68.32,67,16.3,16.3,0,0,0,68,68.8l-2.88.5a1.75,1.75,0,0,0-1.43,2L64.27,75A1.72,1.72,0,0,0,65,76.08a1.71,1.71,0,0,0,1.32.3l2.63-.46a13.64,13.64,0,0,0,.85,1.66,16.2,16.2,0,0,0,1,1.52l-1.69,2.4a1.63,1.63,0,0,0-.31,1.3,1.73,1.73,0,0,0,.73,1.14l3,2.12a1.78,1.78,0,0,0,1.31.27,1.71,1.71,0,0,0,1.15-.7l1.55-2.23a12.68,12.68,0,0,0,1.74.58,16.3,16.3,0,0,0,1.82.37l.5,2.88a1.75,1.75,0,0,0,2,1.43L86.26,88a1.76,1.76,0,0,0,1.43-2l-.46-2.63a13.64,13.64,0,0,0,1.66-.85,17.62,17.62,0,0,0,1.52-1l2.4,1.69a1.72,1.72,0,0,0,2.44-.42l2.12-3a1.78,1.78,0,0,0,.27-1.31,1.73,1.73,0,0,0-.7-1.15L94.7,75.75A12.72,12.72,0,0,0,95.29,74a16.3,16.3,0,0,0,.37-1.82l2.88-.5A1.68,1.68,0,0,0,99.68,71a1.7,1.7,0,0,0,.29-1.32L99.34,66a1.75,1.75,0,0,0-.72-1.13,1.71,1.71,0,0,0-1.32-.3l-2.63.46a17.05,17.05,0,0,0-.85-1.64,12.77,12.77,0,0,0-1-1.5l1.69-2.44a1.63,1.63,0,0,0,.31-1.3,1.71,1.71,0,0,0-.74-1.14l-3-2.08ZM80.7,64.15a6.48,6.48,0,0,1,2.56.06,6.36,6.36,0,0,1,4,2.79,6.45,6.45,0,0,1,.93,2.39A6.3,6.3,0,0,1,88.09,72a6.36,6.36,0,0,1-2.79,4,6.22,6.22,0,0,1-2.39.93,6.48,6.48,0,0,1-2.56-.06,6.7,6.7,0,0,1-2.26-1A6.6,6.6,0,0,1,76.38,74a6.5,6.5,0,0,1-.92-2.39A6.18,6.18,0,0,1,75.52,69a6.3,6.3,0,0,1,2.79-4,6.28,6.28,0,0,1,2.39-.93ZM32.77,31a12.84,12.84,0,0,1,5.08,1A13.36,13.36,0,0,1,42,34.82,13.6,13.6,0,0,1,44.8,39a13.21,13.21,0,0,1,0,10.18,12.78,12.78,0,0,1-6.95,7,13.19,13.19,0,0,1-10.17,0,12.86,12.86,0,0,1-6.95-7,13.21,13.21,0,0,1,0-10.18,13.45,13.45,0,0,1,2.79-4.16A13.2,13.2,0,0,1,27.68,32a12.85,12.85,0,0,1,5.09-1Z"/></svg>