<svg class="ui icon" xmlns="http://www.w3.org/2000/svg" viewBox="0 0 100 100" id="user"></defs><g ><path d="M96.69,76.37q2.73,4.09,2,23.63H1.38l-.2-5.08q0-2.73.39-10.94.58-6.44,1.57-7.61a15.43,15.43,0,0,1,3.71-3.32q3.9-2.14,4.88-2.54c1.17-.52,3.52-1.43,7-2.74l6.84-2.93q10.15-4.1,11.91-5.47l.2-9.17-1-1a12.4,12.4,0,0,1-2.15-3.91,42.74,42.74,0,0,1-1.95-6.83c-1.05.39-2-.13-2.93-1.57A8.38,8.38,0,0,1,27.94,33a18.14,18.14,0,0,1,.59-5.08c.39-1.69,1.23-2.41,2.54-2.15a97.32,97.32,0,0,1-.79-10.35A15.75,15.75,0,0,1,36.14,4.69,21.24,21.24,0,0,1,49.82,0,20.74,20.74,0,0,1,63.49,4.69c3.64,3.12,5.66,6.71,6.05,10.74,0,.13,0,.59-.1,1.37s-.16,2-.29,3.71-.26,3.45-.39,5.27A1.86,1.86,0,0,1,70.71,27a9.68,9.68,0,0,1,1,3.13,4.78,4.78,0,0,1,0,2.73,5.74,5.74,0,0,1-1.56,3.91Q68.56,39.06,67,38.48q-1.17,8.79-4.88,11.72l.2,9.17,11.91,5.47q3.12,1.38,6.84,2.74l4.39,1.76a23.06,23.06,0,0,0,2.64,1A49,49,0,0,1,93,73.05,12.1,12.1,0,0,1,96.69,76.37Z"/></g></svg>