<svg class="ui icon" xmlns="http://www.w3.org/2000/svg" viewBox="0 0 100 100"><path d="M84.62.44a4.46,4.46,0,0,0-.72.47c-3.2,3.18-6.38,6.38-9.58,9.56a.86.86,0,0,0-.29,1c1,3.65,2,7.32,3,11a.94.94,0,0,0,.53.54q5.58,1.53,11.18,3a1.08,1.08,0,0,0,.82-.33C92.76,22.42,96,19.19,99.2,16l.61-.58c.07,1.05.18,1.94.19,2.84a18.25,18.25,0,0,1-15.48,18,18.06,18.06,0,0,1-7.46-.42.79.79,0,0,0-.87.24L56.35,55.94Q46.66,65.63,37,75.31a1,1,0,0,0-.28,1.1A18.67,18.67,0,1,1,14.94,63a18.18,18.18,0,0,1,8.64.29A1,1,0,0,0,24.69,63q8.75-8.77,17.52-17.54Q53,34.69,63.81,23.9a1,1,0,0,0,.3-1.1A18.23,18.23,0,0,1,78.64.26,18.93,18.93,0,0,1,84.41.18Zm-56.4,83.9a3,3,0,0,1-.06-.31c-.83-3.08-1.65-6.16-2.49-9.24a.79.79,0,0,0-.46-.47c-3.08-.85-6.16-1.67-9.25-2.48a.83.83,0,0,0-.63.17c-2.26,2.24-4.5,4.48-6.73,6.75a.82.82,0,0,0-.19.67c.79,3.07,1.61,6.13,2.44,9.19a.85.85,0,0,0,.51.49q4.58,1.27,9.17,2.48a.86.86,0,0,0,.69-.19c2.25-2.21,4.48-4.45,6.7-6.68A3.47,3.47,0,0,0,28.22,84.34Z"/></svg>