<svg class="ui icon" xmlns="http://www.w3.org/2000/svg" viewBox="0 0 100 100"><path d="M79.36,79,60.74,97.6a8.31,8.31,0,0,1-11.68,0h0a8.29,8.29,0,0,1,0-11.68L67.68,67.29A1.13,1.13,0,0,0,68,66.13a18.49,18.49,0,0,1-.69-4.95A18.18,18.18,0,0,1,99.74,49.92a1.2,1.2,0,0,1,.14,1.27,1.16,1.16,0,0,1-1.07.67H84.52a1.14,1.14,0,0,0-1,.59l-4.7,8.14a1.16,1.16,0,0,0,0,1.19l4.7,8.12a1.14,1.14,0,0,0,1,.61H98.79a1.16,1.16,0,0,1,1.08.67,1.14,1.14,0,0,1-.14,1.26,18.11,18.11,0,0,1-14.26,6.9,18.36,18.36,0,0,1-4.94-.68,1.17,1.17,0,0,0-1.17.31ZM51.88,89.25a3.9,3.9,0,1,0,5.52,0A3.89,3.89,0,0,0,51.88,89.25Z"/><path d="M85.47,84.34A23,23,0,0,1,81.41,84l-16,16h33.3q.54-13.27-.56-19.42A23.11,23.11,0,0,1,85.47,84.34Z"/><path d="M41.65,91.74a13.09,13.09,0,0,1,3.88-9.35L62.66,65.24a24.21,24.21,0,0,1-.36-4.06c0-.62,0-1.23.08-1.83l-.19-9.15q3.7-2.94,4.88-11.72,1.56.59,3.13-1.76a5.74,5.74,0,0,0,1.56-3.91,4.78,4.78,0,0,0,0-2.73,9.94,9.94,0,0,0-1-3.13,1.86,1.86,0,0,0-2-1.17c.13-1.82.26-3.58.39-5.27s.23-2.93.29-3.71.1-1.24.1-1.37c-.39-4-2.41-7.62-6-10.74A20.75,20.75,0,0,0,49.88,0,21.21,21.21,0,0,0,36.21,4.69a15.71,15.71,0,0,0-5.86,10.74,99.47,99.47,0,0,0,.78,10.35c-1.3-.26-2.14.46-2.53,2.15A17.78,17.78,0,0,0,28,33a8.38,8.38,0,0,0,1.76,3.9c.91,1.44,1.88,2,2.93,1.57a42.74,42.74,0,0,0,1.95,6.83,12.21,12.21,0,0,0,2.15,3.91l1,1-.19,9.17c-1.17.92-5.15,2.74-11.91,5.47l-6.84,2.93q-5.28,2-7,2.74c-.66.26-2.28,1.11-4.89,2.54A15.62,15.62,0,0,0,3.2,76.37q-1,1.17-1.56,7.61-.39,8.2-.39,10.94l.2,5.08H44.53A13.19,13.19,0,0,1,41.65,91.74Z"/></svg>