<svg class="ui icon" xmlns="http://www.w3.org/2000/svg" viewBox="0 0 100 100"><path d="M50,36.89a.73.73,0,0,0-.73.72.73.73,0,1,0,1.46,0A.73.73,0,0,0,50,36.89Z"/><path d="M50,8.45C22.3,8.45,0,28.5,0,45.1,0,53.45,5.27,58.23,12.93,61V72.14h0c0,8.42,16.6,19.4,37.07,19.4s37.07-11,37.08-19.4h0V61C94.73,58.23,100,53.45,100,45.1,100,28.5,77.7,8.45,50,8.45Zm37.08,45.1L87,51.36c-.71-2-7.46-3.66-17.3-4.64,0,.59.08,1.18.08,1.79a26.76,26.76,0,0,1-1.33,8.29c-.06.19-.11.38-.17.56a23.92,23.92,0,0,1-4,7.13A18.47,18.47,0,0,1,50,71.75a18.51,18.51,0,0,1-14.34-7.26,24.25,24.25,0,0,1-4-7.13c-.06-.18-.11-.37-.17-.56a26.47,26.47,0,0,1-1.33-8.29c0-.61,0-1.2.08-1.79-9.84,1-16.63,2.7-17.35,4.65v2.18c-4-1.93-6.11-4.63-6.11-8.45C6.82,33.37,25.36,15.27,50,15.27S93.18,33.37,93.18,45.1C93.18,48.92,91,51.62,87.08,53.55Z"/><path d="M50,28.91c-8.93,0-16.16,8.77-16.16,19.6S41.07,68.11,50,68.11s16.16-8.78,16.16-19.6S58.92,28.91,50,28.91ZM60.59,50.5a.6.6,0,0,1,.34.43l.88,4.66a.59.59,0,0,1-.34.65.6.6,0,0,1-.72-.17l-1-1.23c-1.85,3-4.75,5.5-8.11,6.16l-1.27,1.26a.58.58,0,0,1-.84,0L48.31,61c-3.35-.66-6.26-3.16-8.11-6.16l-1,1.23a.6.6,0,0,1-1.06-.48l.88-4.66a.61.61,0,0,1,.35-.43.6.6,0,0,1,.55,0L44,53a.6.6,0,0,1-.35,1.11L42.09,54c1.51,2,3.78,2.86,6.4,3.08V43.75H47.18a1.23,1.23,0,0,1-.75.25,1.26,1.26,0,0,1,0-2.52,1.23,1.23,0,0,1,.75.25h1.31V39.9a2.72,2.72,0,0,1-1.24-2.29,2.75,2.75,0,1,1,4.27,2.29v1.83h1.3a1.23,1.23,0,0,1,.75-.25,1.26,1.26,0,1,1,0,2.52,1.23,1.23,0,0,1-.75-.25h-1.3V57.06C54.13,56.84,56.4,56,57.91,54l-1.58.11A.6.6,0,0,1,56,53L60,50.53A.62.62,0,0,1,60.59,50.5Z"/></svg>