<svg class="ui icon" xmlns="http://www.w3.org/2000/svg" viewBox="0 0 100 100"><path d="M62.88,70.28v19c0,5.21-3,8.26-8.18,8.29-3.19,0-6.38,0-9.57,0-5,0-8-3.14-8-8.07,0-6.3,0-12.6,0-19.18-1.38,0-2.66,0-3.93,0a7.53,7.53,0,0,1-7.74-7.8q0-11,0-22c0-4.51,3.08-7.68,7.55-7.7q17-.07,34,0a7.31,7.31,0,0,1,7.57,7.67q.06,11,0,22.06a7.52,7.52,0,0,1-7.71,7.81C65.6,70.3,64.37,70.28,62.88,70.28Z"/><path d="M22.26,35.55c-.37,3.13-1,6-1,9-.15,6.37-.06,12.75,0,19.12,0,6.66,3.4,11,10,12.73,0,2.67.17,5.4-.05,8.1a6,6,0,0,1-6.09,5.24q-4.58.14-9.17,0a6.08,6.08,0,0,1-6.14-6.41c0-4.68,0-9.37,0-14.05V66.86c-1.4,0-2.62,0-3.83,0A6,6,0,0,1,0,60.64q0-9.47,0-18.92A6,6,0,0,1,5.6,35.58C11.31,35.46,17,35.55,22.26,35.55Z"/><path d="M77.87,35.54c5.33,0,10.86-.07,16.38,0a6,6,0,0,1,5.72,6q.06,9.55,0,19.12a6,6,0,0,1-5.81,6.13c-1.21.07-2.44,0-3.93,0v2.28c0,4.69,0,9.37,0,14.06,0,3.75-2.37,6.36-6.06,6.5-3.12.12-6.25.12-9.36,0a6.08,6.08,0,0,1-6.06-6.32c0-1.88-.09-3.78,0-5.65A2.09,2.09,0,0,1,70,76.21a12.07,12.07,0,0,0,9.23-12c0-7.29.1-14.57,0-21.86C79.09,40.13,78.33,37.93,77.87,35.54Z"/><path d="M49.94,28.21a12.76,12.76,0,0,1-12.82-12.9,12.88,12.88,0,1,1,25.76.31A12.8,12.8,0,0,1,49.94,28.21Z"/><path d="M90.24,21.11A10.75,10.75,0,1,1,68.75,21a10.75,10.75,0,1,1,21.49.12Z"/><path d="M9.76,21A10.74,10.74,0,1,1,20.47,31.81,10.62,10.62,0,0,1,9.76,21Z"/></svg>