<svg class="ui icon" xmlns="http://www.w3.org/2000/svg" viewBox="0 0 100 100"><path class="cls-1" d="M77,79.74c-1.21,0-2.28,0-3.34,0a1.65,1.65,0,0,0-.92.48c-1.6,1.52-3.22,3-4.75,4.62C63.07,90,57,92,50.12,91.81c-4.59-.09-9-.76-12.85-3.46a58.12,58.12,0,0,1-5-4.18c-1.38-1.22-2.7-2.5-4-3.77a2.27,2.27,0,0,0-1.79-.69c-1.09.07-2.19,0-3.41,0,0,1.12,0,2.14,0,3.17,0,.87-.35,1.28-1.26,1.25-1.47,0-2.95,0-4.42,0-.81,0-1.13-.33-1.13-1.14q0-16.41,0-32.82c0-.81.33-1.16,1.13-1.15h4.52c.8,0,1.16.38,1.16,1.16,0,1,0,2.07,0,3.23,1.29,0,2.51,0,3.74,0a1.44,1.44,0,0,0,.74-.44c1.51-1.38,3-2.81,4.51-4.14s3.32-2.69,5-4.06a1.42,1.42,0,0,0,.53-.85c.06-1.2,0-2.4,0-3.74H34.14c-1.34,0-1.94-.56-2-1.86q0-2.2,0-4.41c0-1.27.59-1.82,1.88-1.82H66.57c1.35,0,1.89.56,1.9,1.89s0,2.88,0,4.32-.6,1.87-1.92,1.88H62.68c0,1.26,0,2.48,0,3.7,0,.15.19.35.34.44,3.4,2,6.09,4.93,8.78,7.75C73.36,53.68,75,53.4,77,53.39c0-1,0-2,0-3S77.28,49,78.24,49c1.44,0,2.88,0,4.32,0,.83,0,1.21.31,1.21,1.19q0,16.36,0,32.72c0,.84-.28,1.24-1.16,1.22-1.47,0-2.95,0-4.42,0-.93,0-1.25-.42-1.23-1.28S77,80.87,77,79.74Z"/><path class="cls-1" d="M46.43,20.88H41.66c-1.22,0-1.68-.49-1.69-1.71s0-2.53,0-3.91H38.81c-4.51,0-9,.06-13.54,0a7.6,7.6,0,0,1-3.5-1c-2.08-1.21-2-3.73-.09-5.14a5.81,5.81,0,0,1,3.52-.94H74.86a5.85,5.85,0,0,1,3.52.94,3,3,0,0,1,0,5.12,6,6,0,0,1-3.7,1H60.77c-.19,0-.39,0-.71.06v3.41c0,1.87-.27,2.15-2.12,2.16H53.68v9.38H46.43Z"/><path class="cls-1" d="M6.65,79.73H2C.57,79.73,0,79.18,0,77.79Q0,66.55,0,55.31c0-1.28.61-1.87,1.92-1.89,1.53,0,3.06,0,4.72,0,0-1.07,0-2.06,0-3.05S7,49,7.92,49c1.43,0,2.87,0,4.31,0,.89,0,1.24.36,1.24,1.27q0,16.31,0,32.61c0,.91-.34,1.27-1.24,1.25q-2.16-.06-4.32,0c-.9,0-1.3-.34-1.27-1.24S6.65,80.85,6.65,79.73Z"/><path class="cls-1" d="M93.36,53.42H98c1.49,0,2,.57,2,2.07V77.66c0,1.57-.52,2.07-2.12,2.08H93.36c0,1.1,0,2.13,0,3.15s-.34,1.28-1.25,1.26c-1.44,0-2.88,0-4.31,0-.89,0-1.27-.3-1.27-1.23q0-16.31,0-32.61c0-.89.31-1.3,1.21-1.29,1.48,0,3,0,4.42,0,.85,0,1.22.38,1.2,1.23C93.34,51.27,93.36,52.3,93.36,53.42Z"/></svg>