<svg class="ui icon" xmlns="http://www.w3.org/2000/svg" viewBox="0 0 100 100"><title>vibrations</title><g id="vibrations"><polygon points="12.23 80.71 0 63.02 8.83 50 0 36.98 12.23 19.29 17.17 22.71 7.27 37.02 16.08 50 7.27 62.98 17.17 77.29 12.23 80.71"/><polygon points="27.23 72.25 18.36 59.43 24.76 50 18.36 40.57 27.23 27.75 30.81 30.22 23.63 40.59 30.02 50 23.63 59.41 30.81 69.78 27.23 72.25"/><polygon points="87.77 80.71 100 63.02 91.17 50 100 36.98 87.77 19.29 82.83 22.71 92.73 37.02 83.92 50 92.73 62.98 82.83 77.29 87.77 80.71"/><polygon points="72.77 72.25 81.64 59.43 75.24 50 81.64 40.57 72.77 27.75 69.19 30.22 76.37 40.59 69.98 50 76.37 59.41 69.19 69.78 72.77 72.25"/><path d="M57.93,24.55v6.32a5.65,5.65,0,0,1,0,.59L54.24,57.78A4.27,4.27,0,0,1,50,61.47h0a4.27,4.27,0,0,1-4.24-3.69L42.11,31.46a5.65,5.65,0,0,1,0-.59V24.55A7.93,7.93,0,0,1,50,16.62h0A7.93,7.93,0,0,1,57.93,24.55ZM42.36,75.74A7.36,7.36,0,0,1,50,68.11a7.64,7.64,0,1,1,0,15.27A7.32,7.32,0,0,1,42.36,75.74Z"/></g></svg>