<svg class="ui icon windrose" xmlns="http://www.w3.org/2000/svg" viewBox="0 0 100 100"><g id="windrose"><g id="circle-2" data-name="circle"><path d="M50,1A49,49,0,1,1,1,50,49.05,49.05,0,0,1,50,1m0-1a50,50,0,1,0,50,50A50,50,0,0,0,50,0Z"/></g><g id="lines"><path d="M36.05,16.81l-.39-.92-.23.1.39.92Z"/><path d="M32.11,18.76l-.5-.87-.22.13.5.87Z"/><path d="M31.57,19.08l-.52-.86-.21.13.51.85Z"/><path d="M31,19.41l-.53-.85-.21.13.53.85Z"/><path d="M30.5,19.75,30,18.9l-.21.14.55.84Z"/><path d="M33.21,18.16l-.47-.89-.22.12.47.88Z"/><path d="M34.9,17.32l-.42-.91-.23.11.42.9Z"/><path d="M35.47,17.06l-.41-.91-.22.1.4.92Z"/><path d="M30,20.08l-.56-.82-.2.14.56.82Z"/><path d="M33.77,17.87,33.31,17l-.22.11.46.89Z"/><path d="M34.33,17.58l-.44-.89-.22.11.44.9Z"/><path d="M32.66,18.45l-.49-.87L32,17.7l.49.88Z"/><path d="M27,22.34l-.65-.76-.19.16.65.77Z"/><path d="M24.63,24.46l-.7-.71-.18.18.71.7Z"/><path d="M26.48,22.76,25.82,22l-.19.17.66.76Z"/><path d="M25.54,23.59l-.68-.74-.19.18.69.73Z"/><path d="M25.09,24l-.7-.72-.18.17.7.73Z"/><path d="M28.43,21.17l-.6-.79-.2.15.61.8Z"/><path d="M27.45,22l-.64-.78-.19.15.63.78Z"/><path d="M28.94,20.81,28.35,20l-.2.15.59.81Z"/><path d="M29.46,20.44l-.58-.82-.2.14.57.83Z"/><path d="M27.94,21.56l-.62-.79-.2.15.62.8Z"/><path d="M26,23.17l-.68-.75-.18.17.67.74Z"/><path d="M45.11,14.34l-.14-1-.24,0,.14,1Z"/><path d="M43.25,14.64l-.19-1-.24,0,.19,1Z"/><path d="M44.49,14.42l-.15-1-.25,0,.15,1Z"/><path d="M43.87,14.53l-.17-1-.25,0,.18,1Z"/><path d="M46.36,14.18l-.1-1-.25,0,.1,1Z"/><path d="M45.74,14.26l-.13-1-.24,0,.12,1Z"/><path d="M49.5,14l0-1h-.25l0,1Z"/><path d="M47,14.14l-.09-1-.25,0,.09,1Z"/><path d="M48.87,14l0-1h-.25l0,1Z"/><path d="M47.61,14.09l-.07-1-.25,0,.07,1Z"/><path d="M48.24,14l-.05-1-.25,0,.05,1Z"/><path d="M40.2,15.36l-.28-1-.24.07.28,1Z"/><path d="M39,15.72l-.3-1-.24.08.31,1Z"/><path d="M38.4,15.92,38.07,15l-.23.08.32.94Z"/><path d="M37.8,16.12l-.34-.93-.23.08.34.94Z"/><path d="M37.21,16.34l-.35-.93-.24.09.36.94Z"/><path d="M39.59,15.53l-.29-.95-.24.07.29.95Z"/><path d="M42,14.9l-.22-1-.24.06.22,1Z"/><path d="M36.63,16.58l-.37-.93-.24.09.38.93Z"/><path d="M41.41,15l-.24-1-.24.06.24,1Z"/><path d="M42.64,14.76l-.21-1-.24.05.2,1Z"/><path d="M40.8,15.19l-.26-1-.24.06.26,1Z"/><path d="M14.29,45.49l-1-.12,0,.24,1,.13Z"/><path d="M15.43,40l-1-.28-.07.24,1,.28C15.38,40.12,15.41,40,15.43,40Z"/><path d="M15.1,41.17l-1-.24-.06.24,1,.24A2.1,2.1,0,0,1,15.1,41.17Z"/><path d="M15.26,40.56l-1-.26-.06.24,1,.26C15.21,40.72,15.24,40.64,15.26,40.56Z"/><path d="M14.81,42.39l-1-.2-.05.24,1,.21C14.77,42.55,14.8,42.47,14.81,42.39Z"/><path d="M15,41.78l-1-.22-.06.24,1,.22C14.92,41.94,14.93,41.86,15,41.78Z"/><path d="M15.8,38.76l-1-.31-.08.24,1,.3Z"/><path d="M16.67,36.4,15.74,36l-.09.24.93.37Z"/><path d="M16.21,37.57l-.94-.34-.08.23.93.34Z"/><path d="M15.6,39.35l-.95-.29-.07.24.95.29A2.17,2.17,0,0,0,15.6,39.35Z"/><path d="M14.68,43l-1-.19,0,.24,1,.19A2,2,0,0,0,14.68,43Z"/><path d="M16,38.16l-.94-.32-.08.23.94.33Z"/><path d="M16.44,37l-.94-.36-.09.24.93.35C16.37,37.14,16.41,37.06,16.44,37Z"/><path d="M14.06,48l-1-.05,0,.25,1,.05C14.05,48.16,14.05,48.07,14.06,48Z"/><path d="M14.11,47.36l-1-.07,0,.25,1,.07A2.29,2.29,0,0,1,14.11,47.36Z"/><path d="M14,48.62l-1,0v.25l1,0Z"/><path d="M14.15,46.74l-1-.09,0,.25,1,.09C14.14,46.9,14.15,46.82,14.15,46.74Z"/><path d="M14,49.25l-1,0v.25l1,0C14,49.41,14,49.33,14,49.25Z"/><path d="M14.57,43.63l-1-.18,0,.25,1,.17C14.54,43.79,14.56,43.71,14.57,43.63Z"/><path d="M14.37,44.87l-1-.14,0,.24,1,.14Z"/><path d="M14.46,44.24l-1-.15,0,.25,1,.15C14.43,44.41,14.45,44.33,14.46,44.24Z"/><path d="M14.21,46.11l-1-.1,0,.25,1,.1Z"/><path d="M50,14h.13V13h-.25v1Z"/><path d="M17.42,34.67l-.9-.42-.11.23.91.42A2.29,2.29,0,0,0,17.42,34.67Z"/><path d="M21.72,27.74l-.8-.62-.15.2.79.62Z"/><path d="M21.33,28.24l-.8-.61-.15.2.79.6Z"/><path d="M22.1,27.25l-.78-.63-.15.19.78.64Z"/><path d="M20.59,29.25l-.83-.57-.14.2.82.58Z"/><path d="M20.22,29.77l-.82-.56-.14.2.82.56Z"/><path d="M21,28.74l-.81-.59-.15.2.82.59C20.86,28.88,20.9,28.81,21,28.74Z"/><path d="M23.76,25.36,23,24.67l-.18.19.74.68Z"/><path d="M23.33,25.82l-.74-.67-.17.18.75.68C23.22,26,23.27,25.88,23.33,25.82Z"/><path d="M22.51,26.77l-.77-.65-.16.19.76.65Z"/><path d="M22.92,26.29l-.76-.66-.17.19.77.66Z"/><path d="M19.2,31.35l-.85-.51-.13.21.86.52Z"/><path d="M18.27,33l-.88-.47-.12.22.89.47Z"/><path d="M19.88,30.29,19,29.74,18.9,30l.85.55A2.39,2.39,0,0,1,19.88,30.29Z"/><path d="M18,33.55l-.89-.46-.11.22.89.46Z"/><path d="M24.2,24.91l-.73-.7-.17.18.72.7Z"/><path d="M17.17,35.24l-.92-.4-.1.22.91.41C17.1,35.4,17.13,35.32,17.17,35.24Z"/><path d="M17.7,34.11l-.9-.44-.11.22.89.44Z"/><path d="M18.58,32.44,17.7,32l-.12.22.87.49C18.49,32.58,18.54,32.51,18.58,32.44Z"/><path d="M19.54,30.82l-.85-.53-.13.21.85.53Z"/><path d="M16.91,35.82,16,35.43l-.1.23.92.39A1.6,1.6,0,0,1,16.91,35.82Z"/><path d="M18.89,31.89l-.87-.5-.13.22.87.5A1.59,1.59,0,0,0,18.89,31.89Z"/><path d="M77.24,26.48l.77-.66-.17-.19-.76.66Z"/><path d="M81.55,32.66l.87-.49L82.3,32l-.88.49C81.46,32.51,81.51,32.58,81.55,32.66Z"/><path d="M80.26,30.5,81.1,30,81,29.74l-.84.55Z"/><path d="M81.24,32.11l.87-.5L82,31.39l-.87.5A1.59,1.59,0,0,0,81.24,32.11Z"/><path d="M80.92,31.57l.86-.52-.13-.21-.85.51Z"/><path d="M80.59,31l.85-.53-.13-.21-.85.53Z"/><path d="M81.84,33.21l.89-.47-.12-.22-.88.47Z"/><path d="M83.42,36.63l.93-.37L84.26,36l-.93.38Z"/><path d="M82.94,35.47l.91-.41-.1-.22-.92.4C82.87,35.32,82.9,35.4,82.94,35.47Z"/><path d="M82.13,33.77l.89-.46-.11-.22-.89.46Z"/><path d="M82.42,34.33l.89-.44-.11-.22-.9.44Z"/><path d="M82.68,34.9l.91-.42-.11-.23-.9.42A2.29,2.29,0,0,0,82.68,34.9Z"/><path d="M83.19,36.05l.92-.39-.1-.23-.92.39A1.6,1.6,0,0,1,83.19,36.05Z"/><path d="M14,50v-.12H13v.25h1Z"/><path d="M77.66,27l.76-.65-.16-.19-.77.65Z"/><path d="M78.05,27.45l.78-.64-.15-.19-.78.63Z"/><path d="M76.41,25.54l.74-.68L77,24.67l-.74.69Z"/><path d="M76.83,26l.75-.68-.17-.18-.74.67Z"/><path d="M78.44,27.94l.79-.62-.15-.2-.8.62Z"/><path d="M79.19,28.94l.82-.59-.15-.2-.81.59C79.1,28.81,79.14,28.88,79.19,28.94Z"/><path d="M79.56,29.46l.82-.58-.14-.2-.83.57Z"/><path d="M78.83,28.43l.8-.6-.16-.2-.8.61Z"/><path d="M79.92,30l.83-.56-.15-.2-.82.56Z"/><path d="M84.81,40.8l1-.26-.06-.24-1,.26C84.76,40.64,84.79,40.72,84.81,40.8Z"/><path d="M85.82,46.36l1-.1,0-.25-1,.1Z"/><path d="M85.74,45.74l1-.13,0-.24-1,.12Z"/><path d="M85.86,47l1-.09,0-.25-1,.09C85.85,46.82,85.86,46.9,85.86,47Z"/><path d="M85.58,44.49l1-.15,0-.25-1,.15C85.55,44.33,85.57,44.41,85.58,44.49Z"/><path d="M85.66,45.11l1-.14,0-.24-1,.14Z"/><path d="M85.47,43.87l1-.17,0-.25-1,.18C85.44,43.71,85.46,43.79,85.47,43.87Z"/><path d="M86,48.87l1,0v-.25l-1,0Z"/><path d="M86,49.5l1,0v-.25l-1,0C86,49.33,86,49.41,86,49.5Z"/><path d="M86,48.24l1-.05,0-.25-1,.05C86,48.07,86,48.16,86,48.24Z"/><path d="M85.91,47.61l1-.07,0-.25-1,.07A2.29,2.29,0,0,1,85.91,47.61Z"/><path d="M85.1,42l1-.22L86,41.56l-1,.22C85.07,41.86,85.08,41.94,85.1,42Z"/><path d="M84.47,39.59l1-.29-.07-.24-.95.29A2.17,2.17,0,0,0,84.47,39.59Z"/><path d="M84.64,40.2l1-.28-.07-.24-1,.28C84.59,40,84.62,40.12,84.64,40.2Z"/><path d="M84.28,39l1-.3-.08-.24-1,.31Z"/><path d="M85.36,43.25l1-.19,0-.24-1,.19A2,2,0,0,0,85.36,43.25Z"/><path d="M84.08,38.4l1-.33-.09-.23-.94.32C84,38.24,84.05,38.32,84.08,38.4Z"/><path d="M83.88,37.8l.93-.34-.08-.23-.94.34Z"/><path d="M76,25.09l.72-.7-.17-.18-.73.7Z"/><path d="M85.24,42.64l1-.21,0-.24-1,.2C85.2,42.47,85.23,42.55,85.24,42.64Z"/><path d="M83.65,37.21l.94-.35-.09-.24-.94.36C83.59,37.06,83.63,37.14,83.65,37.21Z"/><path d="M85,41.41l1-.24-.06-.24-1,.24A2.1,2.1,0,0,1,85,41.41Z"/><path d="M68.65,19.2l.51-.85L69,18.22l-.52.86Z"/><path d="M60.65,15.6l.29-.95-.24-.07-.29.95Z"/><path d="M60,15.43l.28-1-.24-.07-.28,1Z"/><path d="M59.44,15.26l.26-1-.24-.06-.26,1Z"/><path d="M58.83,15.1l.24-1-.24-.06-.24,1Z"/><path d="M58.22,15l.23-1-.25-.06-.22,1Z"/><path d="M63,16.44l.36-.94-.24-.09-.35.94Z"/><path d="M64.18,16.91l.39-.92-.23-.1-.39.92Z"/><path d="M57.61,14.81l.2-1-.24-.05-.21,1Z"/><path d="M61.24,15.8l.31-1-.24-.08-.3,1Z"/><path d="M61.84,16l.32-.94L61.93,15l-.33.94Z"/><path d="M62.43,16.21l.34-.94-.23-.08-.34.93Z"/><path d="M75.54,24.63l.71-.7-.18-.18-.7.71A1.37,1.37,0,0,0,75.54,24.63Z"/><path d="M53.89,14.21l.1-1-.25,0-.1,1Z"/><path d="M52.64,14.11l.07-1-.25,0-.07,1Z"/><path d="M57,14.68l.19-1-.24,0-.19,1Z"/><path d="M51.38,14l0-1h-.25l0,1Z"/><path d="M52,14.06l.05-1-.25,0-.05,1Z"/><path d="M53.26,14.15l.09-1-.25,0-.09,1Z"/><path d="M55.75,14.46l.16-1-.24,0-.16,1Z"/><path d="M54.51,14.29l.12-1-.25,0-.12,1Z"/><path d="M56.37,14.57l.18-1-.25,0-.17,1Z"/><path d="M55.13,14.37l.14-1-.24,0-.14,1Z"/><path d="M63.6,16.67l.38-.93-.24-.09-.37.93Z"/><path d="M72.26,21.72l.62-.8-.2-.15-.62.79Z"/><path d="M72.75,22.1l.63-.78-.19-.15-.64.78Z"/><path d="M73.23,22.51l.65-.77-.19-.16-.65.76Z"/><path d="M71.26,21l.59-.81-.2-.15-.6.82Z"/><path d="M71.76,21.33l.61-.8-.2-.15-.6.79Z"/><path d="M70.75,20.59l.58-.83-.21-.14-.58.82Z"/><path d="M73.71,22.92l.66-.76L74.18,22l-.66.77Z"/><path d="M75.09,24.2l.7-.73-.18-.17-.7.72Z"/><path d="M74.64,23.76l.69-.73-.19-.18-.68.74Z"/><path d="M74.18,23.33l.67-.74-.18-.17-.68.75Z"/><path d="M66.45,18l.46-.89L66.69,17l-.46.89Z"/><path d="M67,18.27l.47-.88-.22-.12-.47.89Z"/><path d="M70.23,20.22l.56-.82-.2-.14-.56.82Z"/><path d="M67.56,18.58l.49-.88-.22-.12-.49.87Z"/><path d="M65.89,17.7l.44-.9-.22-.11-.44.89Z"/><path d="M65.33,17.42l.42-.9-.23-.11-.42.91Z"/><path d="M64.76,17.16l.4-.91-.23-.1-.4.91Z"/><path d="M69.18,19.54l.53-.85-.21-.13-.53.85Z"/><path d="M69.71,19.88l.55-.84-.21-.14-.55.85Z"/><path d="M68.11,18.89l.5-.87-.22-.13-.5.87Z"/><path d="M50.75,14l0-1h-.25l0,1Z"/><path d="M77.49,73.23l.77.65.16-.19L77.66,73Z"/><path d="M67.89,81.24l.5.87.22-.13-.5-.87Z"/><path d="M68.43,80.92l.52.86.21-.13-.51-.85Z"/><path d="M67.34,81.55l.49.87.22-.12-.49-.88Z"/><path d="M69,80.59l.53.85.21-.13-.53-.85Z"/><path d="M69.5,80.26l.55.84.21-.14-.55-.84Z"/><path d="M64.53,82.94l.4.91.23-.1-.4-.91Z"/><path d="M65.1,82.68l.42.91.23-.11-.42-.9Z"/><path d="M64,83.19l.39.92.23-.1-.39-.92Z"/><path d="M66.79,81.84l.47.89.22-.12L67,81.73Z"/><path d="M66.23,82.13l.46.89.22-.11L66.45,82Z"/><path d="M65.67,82.42l.44.89.22-.11-.44-.9Z"/><path d="M70,79.92l.56.83.2-.15-.56-.82Z"/><path d="M73,77.66l.65.76.19-.16-.65-.77Z"/><path d="M73.52,77.24l.66.77.19-.17-.66-.76Z"/><path d="M74,76.83l.68.75.18-.17-.67-.74Z"/><path d="M74.46,76.41l.68.74.19-.17-.69-.74Z"/><path d="M75.36,75.54l.71.71.18-.18-.71-.71Z"/><path d="M71.57,78.83l.6.8.2-.16-.61-.8Z"/><path d="M70.54,79.56l.58.82.21-.14-.58-.83Z"/><path d="M72.55,78.05l.64.78.19-.15-.63-.78Z"/><path d="M71.05,79.19l.6.82.2-.15-.59-.81Z"/><path d="M72.06,78.44l.62.79.2-.15-.62-.8Z"/><path d="M74.91,76l.7.72.18-.17-.7-.73Z"/><path d="M50.5,86l0,1h.25l0-1Z"/><path d="M54.89,85.66l.14,1,.24,0-.14-1Z"/><path d="M56.13,85.47l.17,1,.25,0-.18-1Z"/><path d="M53.64,85.82l.1,1,.25,0-.1-1Z"/><path d="M55.51,85.58l.16,1,.24,0-.16-1Z"/><path d="M51.13,86l0,1h.25l0-1Z"/><path d="M56.75,85.36l.19,1,.24,0-.19-1Z"/><path d="M51.76,86l.05,1,.25,0-.05-1Z"/><path d="M53,85.87l.09,1,.25,0-.09-1Z"/><path d="M52.39,85.91l.07,1,.25,0-.07-1Z"/><path d="M59.8,84.64l.28,1,.24-.07-.28-1Z"/><path d="M61.6,84.08l.33,1,.23-.09L61.84,84Z"/><path d="M61,84.28l.3,1,.24-.08-.31-1Z"/><path d="M60.41,84.47l.29,1,.24-.07-.29-.95Z"/><path d="M57.36,85.24l.21,1,.24,0-.2-1Z"/><path d="M62.79,83.65l.35.94.24-.09L63,83.56Z"/><path d="M62.2,83.88l.34.93.23-.08-.34-.94Z"/><path d="M58.59,85l.24,1,.24-.06-.24-1A2.1,2.1,0,0,1,58.59,85Z"/><path d="M58,85.1l.22,1,.25-.06-.23-1Z"/><path d="M59.2,84.81l.26,1,.24-.06-.26-1Z"/><path d="M63.37,83.42l.37.93.24-.09-.38-.93Z"/><path d="M54.26,85.74l.12,1,.25,0-.12-1Z"/><path d="M84.57,60l1,.28.07-.24-1-.28C84.62,59.88,84.59,60,84.57,60Z"/><path d="M84.74,59.44l1,.26.06-.24-1-.26C84.79,59.28,84.76,59.36,84.74,59.44Z"/><path d="M84.9,58.83l1,.24.06-.24-1-.24A2.1,2.1,0,0,1,84.9,58.83Z"/><path d="M85.19,57.61l1,.2,0-.24-1-.21A1.84,1.84,0,0,1,85.19,57.61Z"/><path d="M85.05,58.22l1,.23.06-.25-1-.22C85.08,58.06,85.07,58.14,85.05,58.22Z"/><path d="M84,61.84l.94.32.09-.23-1-.33C84.05,61.68,84,61.76,84,61.84Z"/><path d="M83.79,62.43l.94.34.08-.23-.93-.34Z"/><path d="M83.56,63l.94.36.09-.24-.94-.35C83.63,62.86,83.59,62.94,83.56,63Z"/><path d="M84.2,61.24l1,.31.08-.24-1-.3Z"/><path d="M85.32,57l1,.19,0-.24-1-.19A2,2,0,0,0,85.32,57Z"/><path d="M84.4,60.65l.95.29.07-.24-1-.29A2.17,2.17,0,0,0,84.4,60.65Z"/><path d="M85.54,55.75l1,.16,0-.24-1-.16C85.57,55.59,85.55,55.67,85.54,55.75Z"/><path d="M85.89,52.64l1,.07,0-.25-1-.07A2.29,2.29,0,0,1,85.89,52.64Z"/><path d="M75.8,75.09l.73.7.17-.18-.72-.7Z"/><path d="M85.43,56.37l1,.18,0-.25-1-.17C85.46,56.21,85.44,56.29,85.43,56.37Z"/><path d="M86,51.38l1,0v-.25l-1,0Z"/><path d="M86,50.75l1,0v-.25l-1,0C86,50.59,86,50.67,86,50.75Z"/><path d="M85.94,52l1,.05,0-.25-1-.05C86,51.84,86,51.93,85.94,52Z"/><path d="M83.33,63.6l.93.38.09-.24-.93-.37Z"/><path d="M85.63,55.13l1,.14,0-.24-1-.14Z"/><path d="M85.71,54.51l1,.12,0-.25-1-.12Z"/><path d="M85.79,53.89l1,.1,0-.25-1-.1Z"/><path d="M85.85,53.26l1,.09,0-.25-1-.09A2.11,2.11,0,0,0,85.85,53.26Z"/><path d="M77.9,72.75l.77.63.16-.19-.78-.64Z"/><path d="M78.28,72.26l.8.62.15-.2-.79-.62Z"/><path d="M78.67,71.76l.8.61.16-.2-.8-.6Z"/><path d="M79.41,70.75l.83.58.14-.21-.82-.58Z"/><path d="M79.05,71.26l.81.59.15-.2-.82-.6Z"/><path d="M77.08,73.71l.76.66.17-.19-.77-.66C77.19,73.58,77.13,73.64,77.08,73.71Z"/><path d="M83.09,64.18l.92.39.1-.23L83.19,64A1.6,1.6,0,0,1,83.09,64.18Z"/><path d="M76.24,74.64l.74.69.17-.19-.74-.68Z"/><path d="M86,49.88v.25h1v-.25Z"/><path d="M79.78,70.23l.82.56.15-.2L79.92,70Z"/><path d="M76.67,74.18l.74.67.17-.18L76.83,74Z"/><path d="M81.73,67l.88.47.12-.22-.89-.47Z"/><path d="M82,66.45l.89.46.11-.22-.89-.46C82.09,66.31,82.05,66.38,82,66.45Z"/><path d="M82.3,65.89l.9.44.11-.22-.89-.44Z"/><path d="M82.58,65.33l.9.42.11-.23-.91-.42A2.29,2.29,0,0,0,82.58,65.33Z"/><path d="M82.84,64.76l.91.4.1-.23-.91-.4A1.6,1.6,0,0,0,82.84,64.76Z"/><path d="M81.42,67.56l.88.49.12-.22-.87-.49A1.59,1.59,0,0,1,81.42,67.56Z"/><path d="M80.46,69.18l.85.53.13-.21L80.59,69Z"/><path d="M80.8,68.65l.85.51.13-.21-.86-.52Z"/><path d="M80.12,69.71l.84.55.14-.21-.84-.55Z"/><path d="M81.11,68.11l.87.5.13-.22-.87-.5A1.59,1.59,0,0,0,81.11,68.11Z"/><path d="M43,85.32l-.19,1,.24,0,.19-1Z"/><path d="M19.08,68.43l-.86.52.13.21.85-.51Z"/><path d="M18.76,67.89l-.87.5.13.22.87-.5A1.59,1.59,0,0,0,18.76,67.89Z"/><path d="M19.41,69l-.85.53.13.21.85-.53Z"/><path d="M20.08,70l-.82.56.14.2.82-.56Z"/><path d="M19.75,69.5l-.85.55.14.21.84-.55A2.39,2.39,0,0,1,19.75,69.5Z"/><path d="M18.45,67.34l-.87.49.12.22.88-.49C18.54,67.49,18.49,67.42,18.45,67.34Z"/><path d="M17.32,65.1l-.91.42.11.23.9-.42A2.29,2.29,0,0,0,17.32,65.1Z"/><path d="M18.16,66.79l-.89.47.12.22.88-.47Z"/><path d="M17.06,64.53l-.91.4.1.23.91-.4A1.6,1.6,0,0,0,17.06,64.53Z"/><path d="M17.58,65.67l-.89.44.11.22.9-.44Z"/><path d="M17.87,66.23l-.89.46.11.22.89-.46C18,66.38,17.91,66.31,17.87,66.23Z"/><path d="M21.17,71.57l-.79.6.15.2.8-.61Z"/><path d="M22.76,73.52l-.77.66.17.19.76-.66Z"/><path d="M23.17,74l-.75.68.17.18.74-.67C23.27,74.12,23.22,74.05,23.17,74Z"/><path d="M23.59,74.46l-.74.68.18.19.73-.69Z"/><path d="M22.34,73l-.76.65.16.19.77-.65Z"/><path d="M50,86h-.12v1h.25V86Z"/><path d="M22,72.55l-.78.64.15.19.78-.63Z"/><path d="M20.81,71.05l-.82.6.15.2.81-.59Z"/><path d="M20.44,70.54l-.82.58.14.21.83-.58Z"/><path d="M16.81,64l-.92.39.1.23.92-.39A1.6,1.6,0,0,1,16.81,64Z"/><path d="M21.56,72.06l-.79.62.15.2.8-.62Z"/><path d="M16.12,62.2l-.93.34.08.23.94-.34Z"/><path d="M14.64,56.75l-1,.19,0,.24,1-.19A2,2,0,0,0,14.64,56.75Z"/><path d="M14.26,54.26l-1,.12,0,.25,1-.12Z"/><path d="M14.53,56.13l-1,.17,0,.25,1-.18C14.56,56.29,14.54,56.21,14.53,56.13Z"/><path d="M14.42,55.51l-1,.16,0,.24,1-.16C14.45,55.67,14.43,55.59,14.42,55.51Z"/><path d="M14.18,53.64l-1,.1,0,.25,1-.1Z"/><path d="M14.34,54.89l-1,.14,0,.24,1-.14Z"/><path d="M14.13,53l-1,.09,0,.25,1-.09A2.11,2.11,0,0,0,14.13,53Z"/><path d="M14,51.13l-1,0v.25l1,0Z"/><path d="M14,51.76l-1,.05,0,.25,1-.05C14.05,51.93,14.05,51.84,14,51.76Z"/><path d="M14.09,52.39l-1,.07,0,.25,1-.07A2.29,2.29,0,0,1,14.09,52.39Z"/><path d="M16.35,62.79l-.94.35.09.24.94-.36C16.41,62.94,16.37,62.86,16.35,62.79Z"/><path d="M15.92,61.6l-.94.33.08.23.94-.32Z"/><path d="M15.53,60.41l-.95.29.07.24.95-.29A2.17,2.17,0,0,0,15.53,60.41Z"/><path d="M15.72,61l-1,.3.08.24,1-.31Z"/><path d="M14.76,57.36l-1,.21.05.24,1-.2A1.84,1.84,0,0,1,14.76,57.36Z"/><path d="M16.58,63.37l-.93.37.09.24.93-.38Z"/><path d="M24.46,75.37l-.71.7.18.18.7-.71A1.37,1.37,0,0,0,24.46,75.37Z"/><path d="M15.36,59.8l-1,.28.07.24,1-.28C15.41,60,15.38,59.88,15.36,59.8Z"/><path d="M14.9,58l-1,.22.06.25,1-.23C14.93,58.14,14.92,58.06,14.9,58Z"/><path d="M15,58.59l-1,.24.06.24,1-.24A2.1,2.1,0,0,1,15,58.59Z"/><path d="M15.19,59.2l-1,.26.06.24,1-.26C15.24,59.36,15.21,59.28,15.19,59.2Z"/><path d="M24,74.91l-.72.7.17.18.73-.7Z"/><path d="M40.56,84.74l-.26,1,.24.06.26-1Z"/><path d="M41.17,84.9l-.24,1,.24.06.24-1A2.1,2.1,0,0,1,41.17,84.9Z"/><path d="M42.39,85.19l-.2,1,.24,0,.21-1Z"/><path d="M14,50.5l-1,0v.25l1,0C14,50.67,14,50.59,14,50.5Z"/><path d="M41.78,85.05l-.22,1,.24.06.22-1Z"/><path d="M40,84.57l-.28,1,.24.07.28-1Z"/><path d="M39.35,84.4l-.29.95.24.07.29-1Z"/><path d="M37.57,83.79l-.34.94.23.08.34-.93Z"/><path d="M37,83.56l-.36.94.24.09.35-.94Z"/><path d="M38.76,84.2l-.31,1,.24.08.3-1Z"/><path d="M38.16,84l-.32.94.23.09.33-1Z"/><path d="M36.4,83.33l-.38.93.24.09.37-.93Z"/><path d="M43.63,85.43l-.18,1,.25,0,.17-1Z"/><path d="M46.74,85.85l-.09,1,.25,0,.09-1Z"/><path d="M47.36,85.89l-.07,1,.25,0,.07-1Z"/><path d="M48.62,86l0,1h.25l0-1Z"/><path d="M49.25,86l0,1h.25l0-1Z"/><path d="M48,85.94l-.05,1,.25,0,.05-1Z"/><path d="M44.24,85.54l-.15,1,.25,0,.15-1Z"/><path d="M44.87,85.63l-.14,1,.24,0,.14-1Z"/><path d="M46.11,85.79l-.1,1,.25,0,.1-1Z"/><path d="M45.49,85.71l-.12,1,.24,0,.13-1Z"/><path d="M25.36,76.24l-.69.74.19.17.68-.74Z"/><path d="M28.24,78.67l-.61.8.2.16.6-.8Z"/><path d="M27.74,78.28l-.62.8.2.15.62-.79Z"/><path d="M27.25,77.9l-.63.77.19.16.64-.78Z"/><path d="M28.74,79.05l-.59.81.2.15.59-.82Z"/><path d="M29.25,79.41l-.57.83.2.14.58-.82Z"/><path d="M26.29,77.08l-.66.76.19.17.66-.77Z"/><path d="M25.82,76.67l-.67.74.18.17.68-.75Z"/><path d="M26.77,77.49l-.65.77.19.16.65-.76Z"/><path d="M24.91,75.8l-.7.73.18.17.7-.72Z"/><path d="M29.77,79.78l-.56.82.2.15.56-.83Z"/><path d="M30.29,80.12l-.55.84.21.14.55-.84Z"/><path d="M33.55,82l-.46.89.22.11.46-.89Z"/><path d="M34.11,82.3l-.44.9.22.11.44-.89Z"/><path d="M34.67,82.58l-.42.9.23.11.42-.91Z"/><path d="M35.24,82.83l-.4.92.22.1.41-.91Z"/><path d="M33,81.73l-.47.88.22.12.47-.89Z"/><path d="M32.44,81.42,32,82.3l.22.12.49-.87Z"/><path d="M31.35,80.8l-.51.85.21.13.52-.86Z"/><path d="M30.82,80.46l-.53.85.21.13.53-.85Z"/><path d="M35.82,83.09l-.39.92.23.1.39-.92Z"/><path d="M31.89,81.11l-.5.87.22.13.5-.87Z"/><path d="M24.73,24.37,22.6,22.25l-.35.35,2.12,2.13Z"/><path d="M16.83,36l-2.77-1.15-.19.47,2.77,1.14C16.71,36.3,16.76,36.14,16.83,36Z"/><path d="M36.45,16.64l-1.14-2.77-.47.19L36,16.83Z"/><path d="M14,50c0-.08,0-.17,0-.25H11v.5h3C14,50.17,14,50.08,14,50Z"/><path d="M75.63,24.73l2.12-2.13-.35-.35-2.13,2.12Z"/><path d="M83.36,36.45l2.77-1.14-.19-.47L83.17,36C83.24,36.14,83.29,36.3,83.36,36.45Z"/><path d="M50,14h.25V11h-.5v3Z"/><path d="M64,16.83l1.15-2.77-.47-.19-1.14,2.77Z"/><path d="M36,83.17l-1.15,2.77.47.19,1.14-2.77Z"/><path d="M83.17,64l2.77,1.15.19-.47-2.77-1.14C83.29,63.7,83.24,63.86,83.17,64Z"/><path d="M16.64,63.55l-2.77,1.14.19.47L16.83,64C16.76,63.86,16.71,63.7,16.64,63.55Z"/><path d="M75.27,75.63l2.13,2.12.35-.35-2.12-2.13Z"/><path d="M86,49.75c0,.08,0,.17,0,.25s0,.17,0,.25h3v-.5Z"/><path d="M24.37,75.27,22.25,77.4l.35.35,2.13-2.12Z"/><path d="M50,86h-.25v3h.5V86Z"/><path d="M63.55,83.36l1.14,2.77.47-.19L64,83.17Z"/></g><g id="text"><text class="cls-2" transform="translate(48.28 6.48)">N<tspan class="cls-3"><tspan x="0.28" y="3">0</tspan><tspan class="cls-4" x="1.97" y="3">°</tspan></tspan></text><text class="cls-2" transform="translate(51.45 93.52) rotate(180)">S<tspan class="cls-5"><tspan class="cls-6" x="-1.44" y="3">1</tspan><tspan class="cls-7" x="-0.24" y="3">8</tspan><tspan class="cls-8" x="1.45" y="3">0</tspan><tspan x="3.15" y="3">°</tspan></tspan></text><text class="cls-2" transform="translate(6.48 52.33) rotate(-90)">W<tspan class="cls-9"><tspan x="-0.58" y="3">2</tspan><tspan class="cls-10" x="1" y="3">7</tspan><tspan class="cls-11" x="2.37" y="3">0</tspan><tspan class="cls-4" x="4.06" y="3">°</tspan></tspan></text><text class="cls-2" transform="translate(93.52 48.63) rotate(90)">E<tspan class="cls-5"><tspan class="cls-12" x="-0.92" y="3">9</tspan><tspan class="cls-13" x="0.77" y="3">0</tspan><tspan x="2.46" y="3">°</tspan></tspan></text><text class="cls-14" transform="translate(79.08 17.58) rotate(45)"><tspan class="cls-15">N</tspan><tspan x="2.65" y="0">E</tspan><tspan class="cls-5"><tspan class="cls-16" x="0.15" y="3">4</tspan><tspan class="cls-17" x="1.89" y="3">5</tspan><tspan x="3.47" y="3">°</tspan></tspan></text><text class="cls-14" transform="translate(21.31 82.8) rotate(-135)">SW<tspan class="cls-5"><tspan class="cls-16" x="-0.06" y="3">2</tspan><tspan class="cls-18" x="1.58" y="3">2</tspan><tspan class="cls-17" x="3.19" y="3">5</tspan><tspan x="4.77" y="3">°</tspan></tspan></text><text class="cls-14" transform="translate(17.03 21.47) rotate(-45)">NW<tspan class="cls-19"><tspan x="0.37" y="3">3</tspan><tspan class="cls-20" x="1.99" y="3">1</tspan><tspan class="cls-21" x="3.22" y="3">5</tspan><tspan class="cls-4" x="4.8" y="3">°</tspan></tspan></text><text class="cls-14" transform="translate(82.29 79.21) rotate(135)">SE<tspan class="cls-5"><tspan class="cls-22" x="-0.61" y="3">1</tspan><tspan class="cls-23" x="0.61" y="3">3</tspan><tspan class="cls-21" x="2.27" y="3">5</tspan><tspan x="3.85" y="3">°</tspan></tspan></text><text class="cls-24" transform="translate(64.13 8.71) rotate(22.5)"><tspan class="cls-25">N</tspan><tspan class="cls-26" x="1.99" y="0">N</tspan><tspan x="3.96" y="0">E</tspan><tspan class="cls-27"><tspan x="-0.6" y="3">2</tspan><tspan class="cls-28" x="1.04" y="3">2</tspan><tspan class="cls-29" x="2.62" y="3">,</tspan><tspan class="cls-21" x="3.37" y="3">5</tspan><tspan class="cls-4" x="4.95" y="3">°</tspan></tspan></text><text class="cls-24" transform="translate(36.08 91.38) rotate(-157.5)"><tspan class="cls-30">S</tspan><tspan x="1.7" y="0">SW</tspan><tspan class="cls-31"><tspan class="cls-32" x="-1.25" y="3">2</tspan><tspan class="cls-33" x="0.36" y="3">0</tspan><tspan class="cls-28" x="2.14" y="3">2</tspan><tspan class="cls-29" x="3.72" y="3">,</tspan><tspan class="cls-17" x="4.47" y="3">5</tspan><tspan x="6.05" y="3">°</tspan></tspan></text><text class="cls-24" transform="translate(8.38 36.67) rotate(-67.5)">WNW<tspan class="cls-34"><tspan x="-0.59" y="3">2</tspan><tspan class="cls-35" x="1.04" y="3">9</tspan><tspan class="cls-28" x="2.76" y="3">2</tspan><tspan class="cls-29" x="4.34" y="3">,</tspan><tspan class="cls-36" x="5.09" y="3">5</tspan><tspan class="cls-4" x="6.67" y="3">°</tspan></tspan></text><text class="cls-24" transform="translate(91.16 64.45) rotate(112.5)">ESE<tspan class="cls-31"><tspan class="cls-37" x="-1.37" y="3">1</tspan><tspan class="cls-38" x="-0.13" y="3">1</tspan><tspan class="cls-39" x="1.12" y="3">2</tspan><tspan class="cls-7" x="2.69" y="3">,</tspan><tspan class="cls-36" x="3.44" y="3">5</tspan><tspan x="5.03" y="3">°</tspan></tspan></text><text class="cls-24" transform="translate(89.2 30.96) rotate(67.5)"><tspan class="cls-40">E<tspan class="cls-41" x="1.55" y="0">N</tspan><tspan class="cls-42" x="3.52" y="0">E</tspan></tspan><tspan class="cls-31"><tspan class="cls-43" x="-0.6" y="3">6</tspan><tspan class="cls-44" x="1.1" y="3">7</tspan><tspan class="cls-29" x="2.19" y="3">,</tspan><tspan class="cls-17" x="2.94" y="3">5</tspan><tspan x="4.52" y="3">°</tspan></tspan></text><text class="cls-24" transform="translate(11.14 69.87) rotate(-112.5)">WSW<tspan class="cls-45"><tspan x="-0.45" y="3">2</tspan><tspan class="cls-46" x="1.1" y="3">4</tspan><tspan class="cls-44" x="2.76" y="3">7</tspan><tspan class="cls-7" x="3.84" y="3">,</tspan><tspan class="cls-36" x="4.59" y="3">5</tspan><tspan class="cls-4" x="6.17" y="3">°</tspan></tspan></text><text id="NNW_337_5_" data-name="NNW 337,5°" class="cls-24" transform="translate(30.25 11.1) rotate(-22.5)"><tspan class="cls-25">N</tspan><tspan x="1.99" y="0">NW</tspan><tspan class="cls-47"><tspan x="-0.61" y="3">3</tspan><tspan class="cls-7" x="1.05" y="3">3</tspan><tspan class="cls-44" x="2.65" y="3">7</tspan><tspan class="cls-7" x="3.73" y="3">,</tspan><tspan class="cls-36" x="4.48" y="3">5</tspan><tspan class="cls-4" x="6.07" y="3">°</tspan></tspan></text><text class="cls-24" transform="translate(68.97 89.23) rotate(157.5)"><tspan class="cls-30">S</tspan><tspan x="1.7" y="0">SE</tspan><tspan class="cls-31"><tspan class="cls-20" x="-1.22" y="3">1</tspan><tspan class="cls-48" x="0.01" y="3">5</tspan><tspan class="cls-44" x="1.57" y="3">7</tspan><tspan class="cls-7" x="2.65" y="3">,</tspan><tspan class="cls-21" x="3.41" y="3">5</tspan><tspan x="4.99" y="3">°</tspan></tspan></text></g><path id="windrose-2" data-name="windrose" d="M84,50v-.11L60,45.66,67.65,32.5l-.08-.07-.07-.08L54.34,40,50.11,16h-.22L45.66,40,32.5,32.35l-.07.08-.08.07L40,45.66,16,49.89v.22l24,4.23L32.35,67.5l.08.07.07.08L45.66,60l4.23,24h.22l4.23-24L67.5,67.65l.07-.08.08-.07L60,54.34l24-4.23Zm-33.88-.26V17.26L55,44.87Zm-.22.52V82.74L45,55.13Zm5.43-5.43L67,33.11,59.78,45.62Zm-9.7-4.61-.79,4.46L33.11,33ZM44.87,45l4.87,4.87H17.26Zm-4.65,9.36,4.46.79L33,66.89Zm15,.94L66.89,67,54.38,59.78Zm0-.34-4.87-4.87H82.74Z"/></g></svg>