<svg xmlns="http://www.w3.org/2000/svg" viewBox="0 0 100 100"><g id="boat"><path d="M48.81,49.4c.16,11.18.32,22.3.49,33.5-1.56-.64-3-1.3-4.53-1.86a49.14,49.14,0,0,0-24-2.85c-.55.08-.81-.2-1.12-.58A223.59,223.59,0,0,1,4.54,56.34C3.25,54.32,2,52.27.72,50.23.57,50,.45,49.74.26,49.4ZM21.69,58.83c-.58.14-.62.52-.4,1.06.9,2.18,1.76,4.39,2.72,6.54a3,3,0,0,0,1.18,1.22c1.28.74,2.59,1.39,3.9,2a2.92,2.92,0,0,0,.94.09,3.5,3.5,0,0,0,0-1.07c-.65-2.11-1.34-4.21-2-6.32a2.45,2.45,0,0,0-1.55-1.73c-1.43-.53-2.85-1.1-4.28-1.66ZM6,53.11c-.53.18-.38.54-.16.93C6.94,56,8,57.91,9.11,59.83a2.63,2.63,0,0,0,.74.78c1.28.91,2.58,1.79,3.88,2.67a2.16,2.16,0,0,0,.64.18,3.21,3.21,0,0,0,0-.82c-.61-2-1.25-3.93-1.87-5.89A2.59,2.59,0,0,0,10.87,55L6.58,53.31Z"/><path d="M51.41,49.37H99.83a5.43,5.43,0,0,1-.24.59A262.47,262.47,0,0,1,80.72,77.39a1.69,1.69,0,0,1-1.74.75,49.93,49.93,0,0,0-27.24,4.41l-.92.39C51,71.7,51.21,60.57,51.41,49.37ZM79,59.46c-.11-.69-.5-.69-.94-.52l-4.65,1.82a2.26,2.26,0,0,0-1.29,1.56c-.67,2.14-1.37,4.26-2,6.4a3.51,3.51,0,0,0,0,1.07,2.51,2.51,0,0,0,.87-.07c1.33-.66,2.68-1.31,4-2.09a3.44,3.44,0,0,0,1.29-1.45c.9-2,1.69-4,2.52-6.06C78.85,59.91,78.92,59.68,79,59.46Zm15.61-6.13c-.33,0-.58-.18-.78-.11-1.63.61-3.27,1.21-4.86,1.93a2.41,2.41,0,0,0-1.16,1.23c-.77,2.12-1.42,4.29-2.1,6.46a2,2,0,0,0,0,.58c.19,0,.41,0,.56-.07,1.41-1,2.82-1.91,4.21-2.91a2.31,2.31,0,0,0,.62-.78c1-1.82,2.06-3.66,3.08-5.5C94.32,54,94.41,53.75,94.61,53.33Z"/><path d="M0,47.86a8.19,8.19,0,0,1,1.05-1.27C3,45.07,5,43.56,7,42.1a8.85,8.85,0,0,1,5-1.65c.49,0,1,0,1.48,0q36.63,0,73.25,0a11.56,11.56,0,0,1,7.84,2.69c1.43,1.2,3,2.23,4.42,3.38a9.1,9.1,0,0,1,1,1.17l-.14.21Z"/><path d="M.25,88.74c1.55-1.17,2.91-2.31,4.36-3.27a38.44,38.44,0,0,1,16.66-5.92,49.1,49.1,0,0,1,28.22,5,1.44,1.44,0,0,0,1.15,0,49.7,49.7,0,0,1,24.18-5.38A39.66,39.66,0,0,1,96.47,86.1c1,.69,1.92,1.53,2.88,2.31.12.1.22.23.48.51-1.37-.54-2.53-1-3.71-1.45a49.4,49.4,0,0,0-29.46-1.22,69,69,0,0,0-15.89,6.32,1.29,1.29,0,0,1-1.39,0A64.17,64.17,0,0,0,26.72,85a48.33,48.33,0,0,0-25.49,3.6l-.59.25A2.41,2.41,0,0,1,.25,88.74Z"/><path d="M86,38.92c-1,.28-1.51,0-2-1-2.11-4.09-4.34-8.09-6.43-12.19A4.48,4.48,0,0,0,74,23.05c-8.87-1.44-17.76-2.62-26.75-2.33A155.39,155.39,0,0,0,25.39,23.2,3.23,3.23,0,0,0,23,25.05c-2.28,4.32-4.61,8.61-6.85,13-.5,1-1,1.2-2,.92.09-.22.16-.43.26-.63q3.75-7,7.49-14.08A5.85,5.85,0,0,1,25,21.31c9.75-3.82,19.73-5.9,30.08-4.93a72.29,72.29,0,0,1,19.65,4.78,6.66,6.66,0,0,1,3.55,3.3c2.39,4.59,4.84,9.14,7.27,13.71C85.71,38.39,85.81,38.63,86,38.92Z"/><path d="M50.05,12H42.56c-.92,0-1-.14-1-1.19,0-.87,0-1.73,0-2.6s.27-1,.89-1q7.7,0,15.38,0c.58,0,.86.28.85,1,0,.93,0,1.85,0,2.78,0,.77-.26,1.07-.93,1.07C55.15,12,52.6,12,50.05,12Z"/><path d="M28.53,18.38c0-2.26-.09-4.53,0-6.79a3.12,3.12,0,0,1,2.92-2.93,29.42,29.42,0,0,1,3,0,3.31,3.31,0,0,1,3,3.51c0,1.11,0,2.22,0,3.32a.88.88,0,0,1-.41.67C34.24,16.92,31.42,17.63,28.53,18.38Z"/><path d="M71.66,18.42c-2.56-.68-5-1.35-7.47-2-1.52-.39-1.52-.37-1.52-2.17,0-.68,0-1.37,0-2.06a3.34,3.34,0,0,1,3-3.54,25.69,25.69,0,0,1,3,0,3.3,3.3,0,0,1,2.93,3.52C71.67,14.24,71.66,16.3,71.66,18.42Z"/><path d="M52.41,13.52v1.15H47.76V13.52Z"/></g></svg>