<svg class="ui icon" xmlns="http://www.w3.org/2000/svg" viewBox="0 0 100 100"><path d="M86.32,7H13.67C5.53,7,0,12.5,0,20.62,0,44.84,0,55.05,0,79.27,0,87.54,5.49,93,13.8,93Q31.91,93,50,93t36.44,0c8,0,13.54-5.53,13.55-13.5,0-24.29,0-34.58,0-58.88C100,12.5,94.46,7,86.32,7Zm1.12,60.16c0,5.12-2.82,8-7.94,8-9.89,0-19.78,0-29.66,0h-29c-5.59,0-8.31-2.73-8.31-8.31q0-15.53,0-31.06c0-5.43,2.75-8.19,8.17-8.19H79.36c5.29,0,8.07,2.78,8.08,8.05Q87.46,51.41,87.44,67.17Z"/><path d="M30.88,52.29c-3.49,0-6.38,0-9.27,0-1.9,0-3.45-.5-3.39-2.7s1.59-2.43,3.34-2.4c2.89,0,5.78,0,9.18,0-.6-.8-.84-1.21-1.16-1.55-1.23-1.37-1.64-3,.06-4a4.28,4.28,0,0,1,3.75.58,52.2,52.2,0,0,1,5.39,5.24,2.8,2.8,0,0,1,0,4.4c-1.77,1.79-3.54,3.56-5.32,5.34-1.23,1.24-2.6,1.93-4.07.45s-.88-2.83.43-4.07C30,53.42,30.2,53.15,30.88,52.29Z"/><path d="M50.11,44.5a5.5,5.5,0,1,1-5.62,5.38A5.58,5.58,0,0,1,50.11,44.5Z"/><path d="M69.19,52.29c3.48,0,6.37,0,9.26,0,1.91,0,3.45-.5,3.39-2.7s-1.59-2.43-3.33-2.4c-2.89,0-5.78,0-9.18,0,.59-.8.84-1.21,1.15-1.55,1.23-1.37,1.64-3,0-4a4.27,4.27,0,0,0-3.75.58,50.27,50.27,0,0,0-5.39,5.24,2.79,2.79,0,0,0,0,4.4c1.77,1.79,3.55,3.56,5.32,5.34,1.24,1.24,2.6,1.93,4.07.45s.88-2.83-.43-4.07A17,17,0,0,1,69.19,52.29Z"/></svg>