<svg class="ui icon" xmlns="http://www.w3.org/2000/svg" viewBox="0 0 100 100"><path d="M12.48,72.45a12,12,0,0,1-8.79-3.68A12,12,0,0,1,0,59.94V40.28a12.3,12.3,0,0,1,3.73-9,11.93,11.93,0,0,1,8.75-3.75h8.58A11.91,11.91,0,0,1,29.8,31.3a12.36,12.36,0,0,1,3.71,9V59.94a12,12,0,0,1-3.71,8.83,12,12,0,0,1-8.74,3.68ZM15,63h3.45a4.54,4.54,0,0,0,3.12-.91,4.25,4.25,0,0,0,1-3.22V41.37a4.32,4.32,0,0,0-1-3.28,4.54,4.54,0,0,0-3.12-.92H15a4.42,4.42,0,0,0-3.06.92,4.32,4.32,0,0,0-1,3.28V58.85a4.25,4.25,0,0,0,1,3.22A4.42,4.42,0,0,0,15,63Z"/><path class="cls-1" d="M66.37,28q.84,0,.84.75v8q0,.78-.84.78H52a3.64,3.64,0,0,1-.48,0,2.13,2.13,0,0,1-.45-.13l-.42-.15a1.21,1.21,0,0,1-.36-.18l-.28-.2-.18-.12-.07,0a5.82,5.82,0,0,1,.56,1.8V44.1a1.79,1.79,0,0,1,0,.34l-.06.31a2.34,2.34,0,0,1-.09.33l-.13.29a1.45,1.45,0,0,1-.12.22l-.1.12a.11.11,0,0,0,0,.07s0,0,.07,0a.52.52,0,0,1,.18-.13l.28-.15a1.19,1.19,0,0,1,.36-.16l.42-.15a1.41,1.41,0,0,1,.43-.13,3.73,3.73,0,0,1,.5,0l11.43.06q.84,0,.84.75v6.8a.74.74,0,0,1-.84.84H52a3.64,3.64,0,0,1-.48,0,1.67,1.67,0,0,1-.45-.13l-.42-.15a1.2,1.2,0,0,1-.36-.17c-.1-.08-.2-.14-.28-.21l-.18-.12-.07,0,0,.06a1.19,1.19,0,0,0,.1.17l.12.23.13.32a2.46,2.46,0,0,1,.09.34l.06.31a2,2,0,0,1,0,.37V71.3q0,.84-.81.84H40.31a.74.74,0,0,1-.84-.84V29a.88.88,0,0,1,1-1Z"/><path class="cls-1" d="M98.85,28q.84,0,.84.75v8q0,.78-.84.78H84.5l-.48,0a2.54,2.54,0,0,1-.45-.13,3.52,3.52,0,0,0-.42-.15,1.28,1.28,0,0,1-.35-.18l-.28-.2-.19-.12-.06,0a6.13,6.13,0,0,1,.56,1.8V44.1a1.79,1.79,0,0,1,0,.34c0,.1,0,.21-.07.31a2.34,2.34,0,0,1-.09.33,2.85,2.85,0,0,1-.12.29l-.13.22-.09.12a.11.11,0,0,0,0,.07s0,0,.06,0a.48.48,0,0,1,.19-.13l.28-.15a1.25,1.25,0,0,1,.35-.16,3.52,3.52,0,0,0,.42-.15A1.47,1.47,0,0,1,84,45a3.58,3.58,0,0,1,.49,0l11.43.06q.84,0,.84.75v6.8a.74.74,0,0,1-.84.84H84.5l-.48,0a1.91,1.91,0,0,1-.45-.13,3.52,3.52,0,0,0-.42-.15A1.27,1.27,0,0,1,82.8,53c-.11-.08-.2-.14-.28-.21l-.19-.12-.06,0,0,.06.09.17.13.23a2.76,2.76,0,0,1,.12.32,2.46,2.46,0,0,1,.09.34c0,.1,0,.2.07.31a2,2,0,0,1,0,.37V71.3q0,.84-.81.84H72.8A.74.74,0,0,1,72,71.3V29a.88.88,0,0,1,1-1Z"/></svg>