<svg class="ui icon" xmlns="http://www.w3.org/2000/svg" viewBox="0 0 100 100"><path d="M21.18,4c8,10.21,15.51,20.38,19.93,32.41a27.09,27.09,0,0,1,.22,18.31C38.77,62.38,33.2,66.62,25.2,67.6a31.62,31.62,0,0,1-9-.12C6.72,65.89.54,58.4.05,48.71a35.57,35.57,0,0,1,3.32-17C7.23,23.33,15.51,10.23,21.18,4ZM12.92,28.75a6.81,6.81,0,0,0,0-.7c-3.22,5.13-4.52,7.4-5.82,14.15-.65,3.36-.65,5.93,1.18,8.47a3.18,3.18,0,0,0,3,1.41,3,3,0,0,0,2.27-2.38,16,16,0,0,0,.36-5.22C13.64,39.24,13.26,34,12.92,28.75Z"/><path d="M85.48,40.76A49.54,49.54,0,0,0,50.55,25.91h-.44a49.75,49.75,0,0,0-7.34.55c.77,1.53,1.48,3.09,2.15,4.68a44.77,44.77,0,0,1,5.19-.31h.33A45.09,45.09,0,0,1,95.09,75.91V77a8.6,8.6,0,0,1-8.63,8.41H61.35c-3.49,3-5,3.93-6,4.37a11.66,11.66,0,0,1-5,1.09,12.4,12.4,0,0,1-10.26-5.46H13.65A8.57,8.57,0,0,1,5,76.79v-.22a45.27,45.27,0,0,1,.61-7.38,23.36,23.36,0,0,1-4.37-3.68A50.73,50.73,0,0,0,0,76.68v.22A13.65,13.65,0,0,0,13.65,90.54h23.9A17.14,17.14,0,0,0,50.11,96a17.34,17.34,0,0,0,7.1-1.53A25.35,25.35,0,0,0,63,90.54H86.35A13.65,13.65,0,0,0,100,77.22V76A49.71,49.71,0,0,0,85.48,40.76Z"/><path d="M47.16,71.87a7.37,7.37,0,0,0,3,14.09,7.71,7.71,0,0,0,3.06-.66c3.71-1.75,18.77-16.48,18.77-16.48S50.87,70.24,47.16,71.87Z"/><path d="M50.11,46.22h0a2.47,2.47,0,0,0,2.51-2.51V39a2.47,2.47,0,0,0-2.51-2.51h0A2.47,2.47,0,0,0,47.6,39v4.7A2.61,2.61,0,0,0,50.11,46.22Z"/><path d="M19.32,73.51H14.63a2.51,2.51,0,1,0,0,5h4.69a2.51,2.51,0,0,0,0-5Z"/><path d="M64.74,50.8a2.17,2.17,0,0,0,1.42.44,2.49,2.49,0,0,0,2.07-1.09l2.84-4.26a2.51,2.51,0,0,0-4.15-2.84l-2.84,4.26A2.49,2.49,0,0,0,64.74,50.8Z"/><path d="M78.38,50.69a2.37,2.37,0,0,0-3.27,0L58.84,64.89c.55,0,1.09-.11,1.64-.11,5.68-.55,10.92-.88,11.14-.88h.32a5,5,0,0,1,4.59,2.95,4.86,4.86,0,0,1-1.09,5.57c-.11.11-2.84,2.84-6.34,6.11H85.7A2.47,2.47,0,0,0,88.21,76V75.8C88,59.43,78.82,51,78.38,50.69Z"/></svg>