<svg class="ui icon" xmlns="http://www.w3.org/2000/svg" viewBox="0 0 100 100"><path d="M50.24,99.84a49.19,49.19,0,0,1-28.84-8.7,52.15,52.15,0,0,1-7.23-6c-.72-.71-.71-1,0-1.77q5.72-5.73,11.45-11.44c.84-.85,1.1-.85,1.95,0a31.16,31.16,0,0,0,19.93,9.22A30.17,30.17,0,0,0,66.2,76.57C75,71.26,79.83,63.34,81,53.2c1.11-9.77-2-18.15-8.73-25.21a30.66,30.66,0,0,0-13.07-7.8,30.29,30.29,0,0,0-12-1.46,30.9,30.9,0,0,0-14,4.88c-1.21.77-2.37,1.63-3.53,2.48-.68.5-.69.73-.08,1.34,2.79,2.8,5.6,5.6,8.4,8.39.07.08.18.14.22.23s.28.49.23.7-.36.32-.57.36c-1.56.25-3.13.46-4.7.69L16.49,40.27,1.29,42.53C.14,42.7-.13,42.44.05,41.29.9,35.65,1.77,30,2.62,24.38c.73-4.88,1.44-9.76,2.16-14.63.22-1.53.43-3,.65-4.58a3.15,3.15,0,0,1,.09-.42c.16-.6.55-.72,1-.29.92.89,1.81,1.8,2.7,2.7,1.79,1.78,3.56,3.57,5.35,5.35.88.88,1.09.89,2,.06A49.87,49.87,0,0,1,40.94.72,54.55,54.55,0,0,1,50.41.09a47.46,47.46,0,0,1,29.82,10A48.87,48.87,0,0,1,98.54,37.9,48.42,48.42,0,0,1,100,51.14,49.11,49.11,0,0,1,84.06,86.56,49.81,49.81,0,0,1,58,99.38,31.88,31.88,0,0,1,50.24,99.84Z"/><path d="M50.22,39.52c6.63.07,11.19,4.8,11.13,11.53-.06,5.64-5.22,10.44-11.17,10.37a11.07,11.07,0,0,1-10.82-11A10.92,10.92,0,0,1,50.22,39.52Z"/></svg>