<svg class="ui icon" xmlns="http://www.w3.org/2000/svg" viewBox="0 0 100 100"><path d="M45.17.13a50.5,50.5,0,0,0-37,22.31A53.69,53.69,0,0,0,1,39.61,40.45,40.45,0,0,0,0,50.07,43.1,43.1,0,0,0,1.55,62.58a44.72,44.72,0,0,0,3.64,9.58A50,50,0,0,0,94.36,73,49,49,0,0,0,100,51.63,50.23,50.23,0,0,0,57,.41,72.79,72.79,0,0,0,45.17.13Zm11,7.92A42.57,42.57,0,0,1,87.94,31.26a41.31,41.31,0,0,1,3.89,12.26,47.23,47.23,0,0,1,0,12.9,42.55,42.55,0,0,1-31,34.51A37.8,37.8,0,0,1,50,92.25a37.8,37.8,0,0,1-10.83-1.32A42.89,42.89,0,0,1,17.64,77.34a42.34,42.34,0,0,1-1.43-53,51.37,51.37,0,0,1,8.14-8.14A43.57,43.57,0,0,1,46,7.74,56.31,56.31,0,0,1,56.21,8.05Z"/><path d="M46.36,18.51a35.43,35.43,0,0,0-15.95,6A35.41,35.41,0,0,0,19.83,36.93a32.71,32.71,0,0,0-1.76,24.61,18,18,0,0,0,1.72,4,3.81,3.81,0,0,0-.33-1,32.77,32.77,0,0,1-1.86-7.27A31.42,31.42,0,0,1,22.8,35.3a35.64,35.64,0,0,1,8.25-8.19,30.42,30.42,0,0,1,30.81-2l1.25.62,1.43-1.54A18.13,18.13,0,0,0,66,22.54c0-.26-3.42-1.82-5.38-2.45A34.67,34.67,0,0,0,46.36,18.51Z"/><path d="M61.86,32.1C52.09,42.56,50,44.69,49.66,44.61a5.82,5.82,0,0,0-1.66.1,7.59,7.59,0,0,0-6.41,6.41,7.46,7.46,0,0,0,4.22,8,5,5,0,0,0,3.25.72,6.48,6.48,0,0,0,5.41-2.21,6.39,6.39,0,0,0,2.21-5.1c0-.8,0-1.74-.06-2,0-.49,1.43-3.25,8.2-15.16,4.53-8,8.42-14.85,8.64-15.21s.35-.62.29-.62S68.35,25.14,61.86,32.1Z"/><path d="M71.91,29.77c-1,1.74-1.17,2.17-1,2.43s.83,1.09,1.57,2a32.42,32.42,0,0,1,4.12,8A24.54,24.54,0,0,1,78,51.34a25.59,25.59,0,0,1-3,13c-.64,1.29-1.15,2.34-1.13,2.36s1,.59,2.19,1.25,2.52,1.43,3,1.71l.84.46,1-2a37.55,37.55,0,0,0,2.77-8.41,27.82,27.82,0,0,0,.45-6.8c0-4-.08-4.85-.47-6.65a37.55,37.55,0,0,0-5.78-13.39c-1.22-1.7-4.29-5.18-4.58-5.18A12.78,12.78,0,0,0,71.91,29.77Z"/><path d="M34.32,77.14V78.9H38V75.38H34.32Z"/><path d="M42.72,77.14V78.9h3.52V75.38H42.72Z"/><path d="M50.93,77.14V78.9h3.72V75.38H50.93Z"/><path d="M59.34,77.14V78.9h3.72V75.38H59.34Z"/></svg>