<?xml version="1.0" standalone="no"?>
<!DOCTYPE svg PUBLIC "-//W3C//DTD SVG 1.1//EN" "http://www.w3.org/Graphics/SVG/1.1/DTD/svg11.dtd" >
<svg xmlns="http://www.w3.org/2000/svg" xmlns:xlink="http://www.w3.org/1999/xlink" version="1.1">
<metadata></metadata>
<defs>
<font id="polarheavy_display" horiz-adv-x="1124" >
<font-face units-per-em="2048" ascent="1638" descent="-410" />
<missing-glyph horiz-adv-x="630" />
<glyph unicode="&#xfb01;" horiz-adv-x="1427" d="M-41 834v262q0 39 37 39h108q20 0 39 -4.5t27 -8.5l8 -4q-16 23 -16 56v47q-2 199 107.5 322.5t320.5 123.5l645 2q29 0 29 -31v-274q0 -41 -35 -41h-537q-78 0 -106.5 -27.5t-28.5 -74.5v-43q0 -14 -5 -29.5t-9 -22.5l-4 -8q27 16 82 17h673q14 0 23.5 -9.5t9.5 -21.5 v-1073q0 -12 -9 -21.5t-24 -9.5h-329q-14 0 -23.5 9t-9.5 22v762h-318q-20 0 -38.5 4t-26.5 8l-10 4q18 -27 18 -49v-729q0 -12 -10 -21.5t-23 -9.5h-329q-14 0 -23.5 9t-9.5 22v729q0 10 4 22.5t8 20.5l4 6q-31 -16 -74 -16h-108q-37 0 -37 41z" />
<glyph unicode="&#xfb02;" horiz-adv-x="1427" d="M-41 834v262q0 39 37 39h108q20 0 39 -4.5t27 -8.5l8 -4q-16 23 -16 56v47q-2 199 107.5 321.5t320.5 124.5l137 2h2h10h2h576q10 0 10 -10v-326v-2v-1300q0 -12 -9 -21.5t-24 -9.5h-329q-14 0 -23.5 9t-9.5 22v1292h-199h-41q-78 2 -106.5 -26.5t-28.5 -75.5v-43 q0 -14 -5 -29.5t-9 -22.5l-4 -8q27 16 82 17h174q37 0 36 -39v-262q0 -41 -36 -41h-181q-20 0 -38.5 4t-26.5 8l-10 4q18 -27 18 -49v-729q0 -12 -10 -21.5t-23 -9.5h-329q-14 0 -23.5 9t-9.5 22v729q0 10 4 22.5t8 20.5l4 6q-31 -16 -74 -16h-108q-37 0 -37 41z" />
<glyph horiz-adv-x="0" />
<glyph horiz-adv-x="682" />
<glyph unicode="&#x9;" horiz-adv-x="630" />
<glyph unicode=" "  horiz-adv-x="630" />
<glyph unicode="&#x09;" horiz-adv-x="630" />
<glyph unicode="&#xa0;" horiz-adv-x="630" />
<glyph unicode="!" horiz-adv-x="626" d="M117 1501q-2 39 37 39h321q37 0 37 -39l-39 -991q0 -39 -37 -39h-246q-35 0 -36 39zM158 43v223q0 37 37 37h237q37 0 37 -37v-223q0 -39 -37 -39h-237q-37 0 -37 39z" />
<glyph unicode="&#x22;" horiz-adv-x="1058" d="M129 1675q-2 39 37 39h256q39 0 37 -39l-41 -536q-4 -39 -37 -39h-174q-33 0 -37 39zM600 1675q-2 39 37 39h256q39 0 37 -39l-41 -536q-4 -39 -37 -39h-174q-33 0 -37 39z" />
<glyph unicode="#" horiz-adv-x="1511" d="M76 336v223q0 31 43 31h221l37 274h-195q-43 0 -43 31v225q0 31 43 31h236l31 225q8 27 38 27h209q37 0 45 -39l-34 -213h280l31 225q8 27 39 27h209q37 0 45 -39l-35 -213h160q43 0 43 -31v-225q0 -31 -43 -31h-205l-43 -274h184q43 0 43 -31v-223q0 -31 -43 -31h-229 l-37 -235q-8 -27 -39 -27h-182q-39 0 -45 39l30 223h-297l-36 -235q-8 -27 -39 -27h-183q-39 0 -45 39l31 223h-182q-43 0 -43 31zM618 590h291l39 274h-286z" />
<glyph unicode="$" horiz-adv-x="1210" d="M45 489q0 37 39 37h334q37 0 37 -37v-32q-2 -68 25.5 -92.5t86.5 -24.5h90q106 0 107 117v14q0 63 -82 88l-383 107q-121 33 -187.5 129t-66.5 196v21q0 168 120 291.5t290 138.5v237q0 37 37 37h247q37 0 37 -37v-239q170 -20 268.5 -142t98.5 -294v-17q0 -37 -37 -37 h-334q-37 0 -37 37v39q0 27 -24.5 42t-59.5 15h-141q-27 0 -42 -19.5t-15 -45.5v-4q0 -66 71 -86l383 -107q145 -49 204.5 -123.5t59.5 -218.5v-65q0 -172 -119.5 -294t-293.5 -136v-191q0 -39 -37 -39h-248q-37 0 -37 39v193q-166 18 -277.5 142t-111.5 292z" />
<glyph unicode="%" horiz-adv-x="2426" d="M72 850v438q0 141 94 248q98 106 233 106h168q125 0 219 -94q109 -106 109 -260v-438q0 -145 -98 -248q-96 -104 -230 -104h-168q-133 0 -229 104q-98 102 -98 248zM418 879q0 -37 12 -48q8 -8 37 -8h33q29 0 37 8q12 10 12 48v378q0 41 -12 52q-8 8 -37 8h-33 q-29 0 -37 -8q-12 -10 -12 -52v-378zM868 297l359 809q2 4 5 11t4 9t4 7.5t6 7.5t8.5 3t9.5 1h237q18 0 30.5 -11.5t6.5 -27.5l-358 -809l-5.5 -11t-4.5 -9.5t-4 -7.5t-6 -7t-8 -3t-9 -1h-238q-18 0 -30.5 11.5t-6.5 27.5zM1532 137v438q0 143 94 248q98 109 234 109h168 q125 0 219 -94q109 -109 108 -263v-438q0 -143 -98 -248q-96 -102 -229 -102h-168q-133 0 -230 102q-98 104 -98 248zM1878 168q0 -39 12 -49q8 -8 37 -8h33q29 0 37 8q12 10 12 49v379q0 39 -12 49q-8 8 -37 8h-33q-29 0 -37 -8q-12 -10 -12 -49v-379z" />
<glyph unicode="&#x26;" horiz-adv-x="1570" d="M96 432v94q0 152 70 250q2 2 2 3t-2 3q-45 74 -45 244v61q0 190 123 318.5t307 128.5h156q184 0 307 -128t123 -319v-26q0 -31 -29 -31h-330q-31 0 -30 31v41q0 41 -28 64.5t-79 23.5h-25q-51 0 -78.5 -23.5t-27.5 -64.5v-101q0 -43 27.5 -66.5t78.5 -23.5h883 q29 0 29 -30v-219q0 -31 -29 -31h-182v-199q0 -188 -129 -317t-316 -129h-331q-186 0 -315.5 129t-129.5 317zM485 442q0 -63 25 -87.5t74 -26.5h243q51 2 76 26.5t25 87.5l-2 189h-328q-59 0 -86 -24.5t-27 -98.5v-66z" />
<glyph unicode="'" horiz-adv-x="587" d="M129 1675q-2 39 37 39h256q39 0 37 -39l-41 -536q-4 -39 -37 -39h-174q-33 0 -37 39z" />
<glyph unicode="(" horiz-adv-x="622" d="M86 33v997q0 238 127 378t352 140q16 0 27.5 -11t11.5 -28v-176q0 -16 -11 -27.5t-28 -11.5q-86 0 -133 -65.5t-47 -194.5v-1005q0 -129 47 -195.5t133 -66.5q16 0 27.5 -10.5t11.5 -26.5v-176q0 -16 -11.5 -27.5t-27.5 -11.5q-225 0 -352 140t-127 378z" />
<glyph unicode=")" horiz-adv-x="622" d="M18 -270q0 16 10.5 26.5t26.5 10.5q88 0 135.5 66.5t47.5 195.5v1005q0 129 -47.5 194.5t-135.5 65.5q-16 0 -26.5 11.5t-10.5 27.5v176q0 16 10.5 27.5t26.5 11.5q227 0 354.5 -140t127.5 -378v-997q0 -238 -127.5 -378t-354.5 -140q-16 0 -26.5 11t-10.5 28v176z" />
<glyph unicode="*" horiz-adv-x="946" d="M74 1028q-20 37 12 53l98 52q10 4 27.5 9t28.5 5l12 2q-45 6 -70 18l-96 52q-33 16 -12 53l114 198q23 39 52 15l51 -45q12 -8 25.5 -23.5t21.5 -25.5l10 -11q-16 59 -16 76v80q0 41 37 41h206q39 0 39 -41v-80l-16 -76q33 39 57 60l52 47q29 25 51 -14l114 -199 q20 -37 -12 -53l-96 -54q-10 -6 -26.5 -10t-30.5 -6l-13 -2q43 -4 66 -16l100 -52q33 -16 12 -53l-114 -199q-23 -37 -51 -14l-52 41q-12 8 -25.5 23.5t-23.5 25.5l-8 10q16 -59 16 -75v-80q0 -39 -39 -39h-206q-37 0 -37 39v80q0 8 4 27.5t8 33.5l4 14l-9 -10 q-9 -10 -23.5 -25.5t-26.5 -25.5l-49 -39q-29 -23 -52 14z" />
<glyph unicode="+" horiz-adv-x="1024" d="M82 573v224q0 31 29 30h266v269q0 31 29 30h212q29 0 29 -30v-269h264q31 0 31 -30v-224q0 -31 -31 -30h-264v-269q0 -31 -29 -30h-212q-29 0 -29 30v269h-266q-29 0 -29 30z" />
<glyph unicode="," horiz-adv-x="587" d="M129 43v242q0 39 37 39h256q37 0 37 -39v-338q0 -106 -63.5 -173t-166.5 -67h-63q-20 0 -21 23v118q0 16 17 17h20q33 0 44.5 17.5t11.5 64.5v57h-72q-37 0 -37 39z" />
<glyph unicode="-" horiz-adv-x="751" d="M100 492v225q0 31 29 31h494q29 0 28 -31v-225q0 -31 -28 -31h-494q-29 0 -29 31z" />
<glyph unicode="." horiz-adv-x="587" d="M129 43v242q0 39 37 39h256q37 0 37 -39v-242q0 -39 -37 -39h-256q-37 0 -37 39z" />
<glyph unicode="/" horiz-adv-x="972" d="M-25 14l609 1436q12 27 43 27h331q39 0 39 -39l-635 -1436q-12 -27 -43 -27h-307q-37 0 -37 39z" />
<glyph unicode="0" horiz-adv-x="1232" d="M72 418v588q0 178 127 307t299 129h237q172 0 299 -129t127 -307v-588q0 -178 -127 -304t-299 -126h-237q-172 0 -299 126t-127 304zM479 457q0 -68 28 -92.5t85 -24.5h49q57 0 85 24.5t28 92.5v510q0 70 -28 94t-85 24h-49q-57 0 -85 -24.5t-28 -93.5v-510z" />
<glyph unicode="1" horiz-adv-x="897" d="M16 1096v303q0 27 29 26h578q37 0 36 -36v-998q0 -41 -28 -82q2 2 15 8.5t25.5 10.5t31 8t36.5 4h84q37 0 37 -37v-266q0 -37 -37 -37h-731q-39 0 -39 37v266q0 37 39 37h109q33 0 106 -29q-35 53 -35 80v645q0 12 33 70l-21 -12q-20 -11 -41.5 -19t-41.5 -8h-154 q-31 0 -31 29z" />
<glyph unicode="2" horiz-adv-x="1210" d="M20 987v17q0 188 116 313t310 125h269q182 0 313 -126t131 -304v-51q0 -96 -67.5 -184.5t-186.5 -143.5l-422 -197q-35 -16 -34 -39v-16q0 -39 -25 -68l9 7q9 8 24.5 14t31.5 6h611q16 0 26.5 -11.5t10.5 -25.5v-266q0 -37 -37 -37h-1030q-37 0 -37 37l2 317 q0 133 58.5 212t203.5 149l385 180q35 16 52.5 34.5t17.5 51.5v37q0 27 -15.5 46t-42.5 19h-182q-35 0 -59.5 -15t-24.5 -42v-39q0 -37 -37 -37h-334q-37 0 -37 37z" />
<glyph unicode="3" horiz-adv-x="1200" d="M20 426v29q0 37 37 37h334q37 0 37 -37v-56q0 -27 24.5 -43t59.5 -16h117q57 0 84.5 23.5t27.5 93.5v32q0 70 -27.5 93.5t-84.5 23.5h-72q-14 0 -14 10v246q0 12 14 12h51q109 0 109 84v41q0 84 -109 84h-96q-35 0 -59.5 -15t-24.5 -42v-39q0 -37 -37 -37h-334 q-37 0 -37 37v17q0 188 116 313t310 125h246q184 0 308 -120t124 -300v-35q-2 -63 -25.5 -133t-54.5 -96q-4 -4 -8 -6q4 -3 8 -7q37 -39 71 -105.5t34 -125.5v-106q0 -180 -130 -300t-314 -120h-259q-195 0 -310.5 125t-115.5 313z" />
<glyph unicode="4" horiz-adv-x="1253" d="M41 326v274q0 12 8 25l436 780q12 20 39 20h533q31 0 30 -28v-744q0 -27 -22 -61q2 0 10 5t20.5 10t26.5 5h74q37 0 37 -37v-241q0 -37 -37 -37h-66q-27 0 -61 20q18 -43 18 -63v-225q0 -29 -30 -29h-348q-29 0 -29 29v223q0 25 20 74q-41 -29 -65 -29h-565q-29 0 -29 29 zM379 596l10 3t21.5 5t28 5t30.5 3h166q8 0 18.5 -3t18.5 -7t15 -8t9 -4q-16 45 -16 61v353q0 18 10 88q-2 -2 -6 -18.5t-11 -34t-16 -29.5l-211 -359q-18 -31 -67 -55z" />
<glyph unicode="5" horiz-adv-x="1216" d="M41 426v29q0 37 37 37h334q37 0 37 -37v-52q0 -27 24.5 -42t58.5 -15h179q27 0 42 19.5t15 46.5v176q0 27 -15.5 46t-41.5 19h-125q-27 0 -49 -4l-48 -10q-43 -10 -65 -10h-279q-33 0 -32 39l-2 721q0 37 39 36h909q37 0 37 -36v-285q0 -14 -10.5 -25.5t-26.5 -11.5h-494 q-14 0 -28.5 4t-23.5 9t-19 12l-9 8q0 -2 9.5 -13.5t17.5 -27t8 -31.5v-51q0 -10 -6 -22.5t-14 -23.5t-11 -13q2 2 12.5 9t23 15t26.5 10l8 2q39 8 74 9h98q182 -2 313.5 -128t131.5 -303v-116q0 -176 -131.5 -302t-313.5 -126h-264q-195 0 -310.5 125t-115.5 313z" />
<glyph unicode="6" horiz-adv-x="1247" d="M72 426v586q0 178 130 304t312 126h219q195 0 310.5 -125t115.5 -313v-17q0 -37 -37 -37h-334q-37 0 -36 37v39q0 57 -66 57h-149q-57 0 -58 -65v-76q0 -12 -4 -24.5t-8 -19.5t-9 -16l-5 -8q2 0 10 6.5t19.5 11.5t25.5 7h10h64h182q180 0 311 -126t131 -302v-55 q0 -176 -131 -302t-311 -126h-266q-195 0 -310.5 125t-115.5 313zM453 610q0 -2 5 -9t10 -13t8 -17.5t3 -23.5v-144q0 -27 24.5 -42t61.5 -15h176q27 0 42.5 19.5t15.5 46.5v108q0 66 -70 66h-143h-72h-10q-12 2 -23.5 7t-18.5 11t-9 6z" />
<glyph unicode="7" horiz-adv-x="1019" d="M16 1104v285q0 37 37 36l901 2q29 0 29 -28v-260q0 -10 -8 -25l-436 -1089q-10 -25 -33 -25h-350q-14 0 -20.5 10t-0.5 27l440 989q6 16 36 51t40 43q-2 0 -43 -26.5t-55 -26.5h-500q-37 0 -37 37z" />
<glyph unicode="8" horiz-adv-x="1253" d="M51 408v106q0 59 35 128t72 106q4 4 2 6q-33 25 -58.5 95.5t-25.5 137.5v35q-2 178 119.5 299t306.5 121h250q184 0 306 -121t120 -299v-35q0 -68 -26 -138.5t-56 -94.5q-4 -2 0 -6q37 -37 71.5 -106t34.5 -128v-106q0 -180 -129 -300t-315 -120h-262 q-186 0 -315.5 119.5t-129.5 300.5zM459 457q0 -70 26.5 -93.5t85.5 -23.5h111q59 0 86 23.5t27 93.5v32q0 70 -27 93.5t-86 23.5h-111q-59 0 -85.5 -23.5t-26.5 -93.5v-32zM483 958q0 -39 28 -61.5t79 -22.5h74q51 0 78.5 23t27.5 61v41q0 84 -106 84h-74q-106 0 -107 -84 v-41z" />
<glyph unicode="9" horiz-adv-x="1247" d="M41 934v78q0 178 130 304t312 126h265q195 0 311.5 -125t116.5 -313v-588q0 -176 -131.5 -302t-311.5 -126h-264q-195 0 -310.5 125t-115.5 313v6q0 37 37 37h334q37 0 37 -37v-29q0 -57 65 -57h195q57 0 57 66v51q0 18 33 78q-2 0 -26.5 -16.5t-39.5 -18.5h-16 q0 -2 -27 -1l-26 1h-183q-182 0 -312 126t-130 302zM449 885q0 -66 69 -66h144h51h20q8 0 22.5 -5t28.5 -12l13 -7q0 2 -6.5 10t-10.5 15t-9 18.5t-5 19.5v168q0 27 -24.5 42t-59.5 15h-176q-29 0 -43 -19.5t-14 -45.5v-133z" />
<glyph unicode=":" horiz-adv-x="587" d="M129 43v242q0 39 37 39h256q37 0 37 -39v-242q0 -39 -37 -39h-256q-37 0 -37 39zM129 786v242q0 39 37 39h256q37 0 37 -39v-242q0 -39 -37 -38h-256q-37 0 -37 38z" />
<glyph unicode=";" horiz-adv-x="587" d="M129 43v242q0 39 37 39h256q37 0 37 -39v-338q0 -106 -63.5 -173t-166.5 -67h-63q-20 0 -21 23v118q0 16 17 17h20q33 0 44.5 17.5t11.5 64.5v57h-72q-37 0 -37 39zM129 786v242q0 39 37 39h256q37 0 37 -39v-242q0 -39 -37 -38h-256q-37 0 -37 38z" />
<glyph unicode="&#x3c;" horiz-adv-x="1069" d="M90 672q-18 12 0 22l862 557q14 10 24.5 4t10.5 -24v-297q0 -29 -18 -39l-314 -186q-16 -10 -35.5 -15.5t-33 -7.5t-15.5 -2q2 -2 15.5 -3t33 -6t35.5 -16l314 -180q18 -10 18 -37v-299q0 -18 -10 -23t-25 3z" />
<glyph unicode="=" horiz-adv-x="1079" d="M82 377v225q0 31 29 31h856q31 0 30 -31v-225q0 -31 -30 -31h-856q-29 0 -29 31zM82 807v225q0 31 29 31h856q31 0 30 -31v-225q0 -31 -30 -31h-856q-29 0 -29 31z" />
<glyph unicode="&#x3e;" horiz-adv-x="1069" d="M82 143v299q0 27 18 37l312 180q18 10 37.5 15.5t33 6.5t15.5 3q-2 0 -15.5 2t-33 7t-37.5 16l-312 186q-18 10 -18 39v297q0 18 10 24.5t25 -4.5l862 -557q18 -10 0 -22l-862 -549q-14 -8 -24.5 -3t-10.5 23z" />
<glyph unicode="?" horiz-adv-x="1196" d="M72 1090v18q0 195 113.5 310.5t312.5 115.5h182q186 0 315 -117t129 -301v-45q0 -104 -67.5 -203.5t-186.5 -144.5l-135 -51q-39 -14 -60.5 -35t-21.5 -57l-4 -72q-4 -39 -39 -39h-239q-35 0 -37 39l-6 80q-8 139 43 228t182 145l94 40q72 31 72 93v28q0 29 -15.5 49.5 t-41.5 20.5h-154q-35 0 -59.5 -16.5t-24.5 -45.5v-40q0 -39 -37 -39h-278q-37 0 -37 39zM342 39v221q0 39 37 39h235q37 0 37 -39v-221q0 -39 -37 -39h-235q-37 0 -37 39z" />
<glyph unicode="@" horiz-adv-x="2091" d="M61 592q0 487 266.5 770t751.5 283q209 0 383 -66t300 -189.5t197 -313t71 -427.5q0 -279 -138.5 -471t-312.5 -192q-190 0 -221 176l-4 -8q-16 -59 -100.5 -113.5t-190.5 -54.5h-115q-180 0 -310 135t-130 325v244q0 186 125 321.5t287 135.5h49q111 0 207 -98l34 -43 q-2 8 -6 28.5t-6 30.5v39q0 14 10.5 22.5t26.5 8.5h303q37 0 37 -39v-723q0 -51 10 -70.5t35 -19.5q59 0 99 121.5t40 232.5q0 748 -680 747q-352 0 -551.5 -211.5t-199.5 -580.5q0 -371 198.5 -584t552.5 -213q254 0 443 125q23 18 37 -4l110 -170q18 -25 -8 -39 q-242 -168 -578 -168q-217 0 -404 73t-324.5 206t-215.5 332.5t-78 441.5zM899 449q0 -74 26.5 -99.5t86.5 -25.5h45q59 0 85.5 25.5t26.5 99.5v229q0 76 -26.5 101.5t-85.5 25.5h-45q-59 0 -86 -25.5t-27 -101.5v-229z" />
<glyph unicode="A" horiz-adv-x="1452" d="M12 33l445 1370q6 23 32 22h474q25 0 32 -22l445 -1370q10 -33 -25 -33h-366q-27 0 -33 23l-53 208q-2 12 -2 26.5t1 29t1 18.5q-53 -20 -82 -20h-312q-27 0 -82 20q0 -4 2.5 -18.5t2.5 -28.5t-5 -27l-51 -208q-6 -23 -35 -23h-366q-33 0 -23 33zM555 582q63 18 92 18 h158q27 0 90 -18q-33 45 -43 73l-96 316q-8 29 -4 59.5t14 46.5q-20 -20 -33 -20h-14q-12 0 -33 20q10 -16 14.5 -47t-4.5 -59l-96 -316q-10 -29 -45 -73z" />
<glyph unicode="B" horiz-adv-x="1302" d="M119 37v1352q0 37 37 36h645q184 0 308 -119.5t124 -299.5v-19q0 -66 -25.5 -137.5t-58.5 -95.5q-2 -2 -4 -2l4 -4q39 -37 73.5 -105t34.5 -129v-94q0 -178 -130 -299t-314 -121h-657q-37 0 -37 37zM504 307q39 33 78 33h135q109 0 108 84v98q0 84 -108 84h-135 q-16 0 -36 8.5t-30 14.5l-12 8q20 -35 20 -62v-206q0 -10 -5 -25.5t-9 -26.5zM504 846q38 28 75 28h3h135q109 0 108 84v43q0 84 -108 84h-135q-16 0 -36 8.5t-30 16.5l-12 8q20 -37 20 -61v-156q0 -10 -5 -24.5t-9 -22.5z" />
<glyph unicode="C" horiz-adv-x="1208" d="M72 418v588q0 178 127 307t299 129h245q172 0 299 -129t127 -307v-70q0 -29 -28 -29h-350q-31 0 -31 29v31q0 70 -27.5 94t-85.5 24h-55q-57 0 -85 -24.5t-28 -93.5v-510q2 -68 29 -92.5t84 -24.5h57q59 0 86 24.5t27 92.5v26q0 29 29 29h350q29 0 28 -29v-65 q0 -178 -127 -304t-299 -126h-245q-172 0 -299 126t-127 304z" />
<glyph unicode="D" horiz-adv-x="1312" d="M119 29v1368q0 29 28 28h650q184 0 314 -128t130 -308v-553q0 -180 -130 -308t-314 -128h-650q-29 0 -28 29zM504 330q38 28 75 28h3h143q106 0 106 84v541q0 84 -106 84h-143q-16 0 -36 8t-30 17l-12 8q20 -37 20 -62v-653q0 -10 -5 -24.5t-9 -22.5z" />
<glyph unicode="E" horiz-adv-x="1136" d="M119 37v1352q0 37 37 36h864q31 0 31 -28v-301q0 -29 -31 -29h-438q-16 0 -36 8t-30 17l-12 8q20 -37 20 -62v-116q0 -12 -5 -25.5t-9 -24.5l-6 -8q39 29 78 29h385q29 0 28 -29v-256q0 -29 -28 -28h-385q-16 0 -36 8t-30 16l-12 8q20 -37 20 -61v-164q0 -12 -5 -27.5 t-9 -23.5l-6 -10q38 30 76 30h2h471q31 0 30 -28v-299q0 -29 -30 -29h-897q-37 0 -37 37z" />
<glyph unicode="F" horiz-adv-x="1032" d="M119 29v1360q0 37 37 36h864q31 0 31 -28v-299q0 -29 -31 -29h-438q-16 0 -36 8t-30 17l-12 6q20 -35 20 -60v-118q0 -12 -5 -25.5t-9 -24.5l-6 -8q4 4 12 9.5t28.5 13.5t37.5 6h344q29 0 28 -29v-256q0 -29 -28 -28h-344q-16 0 -36 8t-30 16l-12 8q20 -37 20 -61v-522 q0 -29 -28 -29h-349q-29 0 -28 29z" />
<glyph unicode="G" horiz-adv-x="1261" d="M72 418v588q0 180 130 308t314 128h238q182 0 312 -125t130 -287v-39q0 -29 -31 -28h-346q-29 0 -28 28v13q0 45 -28 63t-83 18h-94q-106 0 -107 -100v-528q0 -68 26.5 -92.5t86.5 -24.5h86q59 0 86 24.5t27 92.5v26q0 10 7 25.5t13 26.5l6 10q-4 -4 -11 -9.5 t-27.5 -13.5t-37.5 -8h-41q-31 0 -30 29l2 219q0 29 28 29h469q29 0 29 -29v-344q0 -180 -130 -308t-314 -128h-238q-184 0 -314 128t-130 308z" />
<glyph unicode="H" horiz-adv-x="1380" d="M119 29v1368q0 29 28 28h349q31 0 30 -28l-2 -475q0 -12 -5 -25.5t-9 -24.5l-6 -8q39 29 78 29h219q16 2 35.5 -6t29.5 -15l11 -8q-20 31 -21 58v475q0 29 31 28h348q29 0 29 -28v-1368q0 -29 -29 -29h-348q-31 0 -31 29v522q0 10 5 25.5t11 25.5l5 10q-36 -32 -74 -32 h-2h-219q-16 0 -36 8t-32 16l-10 8q20 -37 20 -61l2 -522q0 -29 -30 -29h-349q-29 0 -28 29z" />
<glyph unicode="I" horiz-adv-x="641" d="M119 29v1368q0 12 9 20t22 8h342q14 0 23 -8t9 -20v-1368q0 -12 -9 -20.5t-23 -8.5h-342q-12 0 -21.5 8t-9.5 21z" />
<glyph unicode="J" horiz-adv-x="655" d="M12 -117q0 37 35 35h2q20 0 27.5 1t26 4t26.5 10.5t16.5 22.5t8.5 38v1399q0 37 36 37h334q39 0 39 -37v-1356q0 -180 -130 -308t-314 -128h-70q-37 0 -37 37v245z" />
<glyph unicode="K" horiz-adv-x="1259" d="M119 29v1368q0 29 28 28h347q29 0 28 -28v-289q0 -16 -3 -46t-7 -50l-4 -23q41 76 70 109l260 311q14 16 36 16h433q18 0 23 -10t-7 -24l-483 -553q-6 -8 -21.5 -17.5t-25.5 -13.5l-11 -4q37 -16 49 -35l492 -733q10 -14 4 -24.5t-22 -10.5h-383q-23 0 -35 18l-322 484 q-4 4 -4 16v23l2 10q-18 -41 -26 -51l-7 -6q-2 -4 -14 -4.5t-24 -0.5l-11 3q41 -12 41 -31v-432q0 -29 -28 -29h-347q-29 0 -28 29z" />
<glyph unicode="L" horiz-adv-x="954" d="M119 37v1352q0 37 37 36h331q37 0 37 -36v-988q0 -10 -5 -27.5t-11 -29.5l-4 -12q49 26 76 26h2h327q37 0 37 -36v-285q0 -37 -37 -37h-753q-37 0 -37 37z" />
<glyph unicode="M" horiz-adv-x="1740" d="M119 37v1352q0 37 37 36h383q31 0 43 -28l270 -699q4 -10 9 -33.5t7 -41.5l2 -19q10 70 19 94l272 699q10 29 43 28h383q37 0 37 -36v-1352q0 -37 -37 -37h-332q-37 0 -36 37l-5 555q0 10 6.5 42t12.5 58l6 25q-35 -80 -43 -105l-203 -589q-8 -23 -35 -23h-176 q-25 0 -32 23l-205 589l-43 105q2 -10 6 -27.5t11 -52.5t7 -45l-2 -555q0 -37 -37 -37h-331q-37 0 -37 37z" />
<glyph unicode="N" horiz-adv-x="1419" d="M119 37v1352q0 37 37 36h319q29 0 43 -24l356 -623l48 -78q-27 78 -27 101v588q0 37 37 36h330q39 0 38 -36v-1352q0 -37 -36 -37h-295q-29 0 -43 25l-381 682l-49 77q29 -78 28 -98v-649q0 -37 -37 -37h-331q-37 0 -37 37z" />
<glyph unicode="O" horiz-adv-x="1269" d="M72 418v588q0 178 127 307t299 129h274q172 0 299 -129t127 -307v-588q0 -178 -127 -304t-299 -126h-274q-172 0 -299 126t-127 304zM479 457q0 -68 28 -92.5t85 -24.5h86q57 0 85 24.5t28 92.5v510q0 70 -28 94t-85 24h-86q-57 0 -85 -24.5t-28 -93.5v-510z" />
<glyph unicode="P" horiz-adv-x="1222" d="M119 37v1352q0 37 37 36h643q184 0 313 -120.5t129 -298.5v-123q0 -178 -129 -299t-313 -121h-201q-16 0 -39.5 8t-38.5 16l-16 9q2 -6 6 -15.5t10 -30t6 -30.5v-383q-2 -37 -39 -37h-331q-37 0 -37 37zM504 772q39 33 78 33h141q108 0 108 84v94q0 84 -108 84h-141 q-16 0 -36 8t-32 17l-10 8q20 -37 20 -62v-204q0 -6 -2 -15.5t-5 -16.5t-6 -14.5t-5 -11.5z" />
<glyph unicode="Q" horiz-adv-x="1269" d="M72 418v588q0 178 127 307t299 129h274q172 0 299 -129t127 -307v-588q0 -170 -117.5 -295t-279.5 -135h-2q-10 0 -20.5 5t-19.5 11l-9 6q18 -33 18 -55v-145q0 -35 -37 -35h-192q-39 0 -39 35v145q0 23 20 55l-9 -6t-20.5 -11t-19.5 -5h-2q-164 12 -280.5 136 t-116.5 294zM479 457q0 -68 28 -92.5t85 -24.5h86q57 0 85 24.5t28 92.5v510q0 70 -28 94t-85 24h-86q-57 0 -85 -24.5t-28 -93.5v-510z" />
<glyph unicode="R" horiz-adv-x="1286" d="M119 37v1352q0 37 37 36h643q184 0 313 -120.5t129 -298.5v-101q0 -113 -54 -206t-151 -148q-4 -2 -13 -1t-19 5l-11 2q31 -23 35 -29l234 -485q10 -18 1.5 -30.5t-28.5 -12.5h-338q-31 0 -43 27l-192 426q-4 8 -6.5 23.5t-2.5 25.5l-2 12q-8 -27 -37 -27h-49 q-12 0 -25.5 5.5t-21.5 11.5l-8 4q16 -33 16 -55v-416q0 -37 -39 -37h-331q-37 0 -37 37zM504 778q39 31 78 31h141q109 0 108 86v88q0 84 -108 84h-141q-16 0 -36 8t-30 17l-12 8q20 -37 20 -62v-198q0 -12 -5 -27.5t-9 -24.5z" />
<glyph unicode="S" horiz-adv-x="1210" d="M45 489q0 37 39 37h334q37 0 37 -37v-32v-9q-1 -62 25 -84q28 -24 87 -24h90q106 0 107 117v14q0 63 -82 88l-383 107q-121 33 -186.5 129t-65.5 196v21q0 178 130 304t312 126h228q195 0 310.5 -125t115.5 -313v-17q0 -37 -37 -37h-334q-37 0 -37 37v39q0 27 -24.5 42 t-59.5 15h-141q-27 0 -42 -19.5t-15 -45.5v-4q0 -66 71 -86l383 -107q145 -49 204.5 -123.5t59.5 -218.5v-65q0 -182 -133 -307t-319 -125h-227q-186 0 -315.5 128t-129.5 310z" />
<glyph unicode="T" horiz-adv-x="976" d="M-20 1104v285q0 37 36 36h945q37 0 36 -36v-285q0 -37 -36 -37h-207q-16 0 -37 8t-33 17l-12 8q20 -31 20 -56v-1007q0 -37 -39 -37h-331q-37 0 -37 37v1007q0 10 5 24.5t9 23.5l6 8q-6 -2 -14 -8.5t-29.5 -15.5t-38.5 -9h-207q-37 0 -36 37z" />
<glyph unicode="U" horiz-adv-x="1310" d="M92 424v965q0 37 37 36h336q37 0 37 -36l-2 -932q0 -68 27.5 -92.5t84.5 -24.5h86q57 0 85 24.5t28 92.5l-2 932q0 37 37 36h336q37 0 37 -36v-965q0 -180 -130.5 -308t-314.5 -128h-237q-184 0 -314.5 128t-130.5 308z" />
<glyph unicode="V" horiz-adv-x="1253" d="M-76 1384q-8 18 0 29.5t29 11.5h352q33 0 43 -28l252 -797q6 -20 13.5 -60t9.5 -69l4 -31q10 115 26 160l252 797q10 29 43 28h352q20 0 28.5 -11t0.5 -30l-487 -1355q-10 -29 -49 -29h-332q-39 0 -49 29z" />
<glyph unicode="W" horiz-adv-x="1976" d="M-61 1384q-6 18 2 29.5t28 11.5h353q33 0 40 -30l191 -791q4 -16 16 -153q14 141 17 153l200 791q8 31 41 30h322q35 0 41 -30l201 -791q2 -12 16 -153q14 145 16 151l191 793q8 31 43 30h350q20 0 29.5 -11t3.5 -30l-430 -1353q-10 -31 -43 -31h-295q-31 0 -41 31 l-223 729q-6 18 -19 133q-12 -115 -18 -133l-226 -729q-8 -31 -40 -31h-295q-33 0 -43 31z" />
<glyph unicode="X" horiz-adv-x="1361" d="M-73 13.5q-7 13.5 5 31.5l488 684q2 4 11 9l18 10l8 2q-31 12 -37 22l-461 608q-12 18 -6 31.5t31 13.5h405q29 0 45 -22l215 -303q10 -14 18.5 -37t10.5 -39l4 -16q10 63 31 92l215 303q16 23 45 22h407q23 0 30 -13t-7 -32l-459 -608q-4 -4 -14 -10t-19 -8l-10 -4 q37 -12 43 -21l486 -684q14 -18 7 -31.5t-30 -13.5h-406q-29 0 -45 23l-243 342q-8 14 -16.5 37.5t-12.5 41.5l-2 17q-12 -68 -33 -96l-243 -342q-16 -23 -46 -23h-403q-23 0 -30 13.5z" />
<glyph unicode="Y" d="M-92 1412.5q8 12.5 29 12.5h354q31 0 43 -26l201 -447q6 -14 13 -41.5t9 -48.5l4 -20q12 76 27 108l200 449q12 27 43 26h355q20 0 28.5 -12t-2.5 -31l-426 -841q-2 -4 -6 -10.5t-8 -10.5l-8 -8l-6 -6l-2 -2q12 -20 12 -37v-430q0 -37 -37 -37h-340q-37 0 -37 37v430 q0 8 3 16.5t5 14.5l5 6q-23 20 -33 37l-424 841q-10 18 -2 30.5z" />
<glyph unicode="Z" horiz-adv-x="1128" d="M6 43v254q0 25 14 47l570 678q8 12 29.5 25.5t39.5 21.5l17 8q-61 -10 -86 -10h-471q-37 0 -37 37v285q0 37 37 36h946q12 0 18.5 -6t7.5 -12t1 -25v-252q0 -25 -23 -55l-563 -667q-10 -12 -33.5 -30t-42.5 -30l-18 -10q74 18 114 18h545q37 0 37 -37v-282 q0 -14 -9 -25.5t-28 -11.5h-1038q-12 0 -18.5 6t-7.5 12.5t-1 24.5z" />
<glyph unicode="[" horiz-adv-x="602" d="M121 -446v1955q0 16 11 27.5t28 11.5h387q16 0 26.5 -11t10.5 -28v-176q0 -16 -10.5 -27.5t-26.5 -11.5h-125v-1527h125q16 0 26.5 -10.5t10.5 -28.5v-174q0 -18 -10.5 -28.5t-26.5 -10.5h-387q-16 0 -27.5 10t-11.5 29z" />
<glyph unicode="\" horiz-adv-x="972" d="M-25 1438q0 39 37 39h332q31 0 45 -27l608 -1436q0 -39 -39 -39h-305q-31 0 -45 27z" />
<glyph unicode="]" horiz-adv-x="602" d="M18 -272q0 18 10.5 28.5t26.5 10.5h125v1527h-125q-16 0 -26.5 11.5t-10.5 27.5v176q0 16 10.5 27.5t26.5 11.5h389q16 0 26.5 -11t10.5 -28v-1955q0 -18 -10 -28.5t-27 -10.5h-389q-16 0 -26.5 10t-10.5 29v174z" />
<glyph unicode="^" horiz-adv-x="1138" d="M-50 907.5q-5 10.5 5 26.5l555 862q12 18 22 0l549 -862q10 -16 5 -26.5t-25 -10.5h-299q-27 0 -37 18l-178 314q-10 16 -15.5 35.5t-7.5 33.5l-2 15l-2 -15q-2 -14 -8 -33.5t-14 -35.5l-189 -314q-10 -18 -37 -18h-299q-18 0 -23 10.5z" />
<glyph unicode="_" horiz-adv-x="833" d="M141 31v262q0 31 31 31h492q31 0 30 -31v-262q0 -31 -30 -31h-492q-31 0 -31 31z" />
<glyph unicode="`" horiz-adv-x="561" d="M7 1585q7 14 24 14h282q27 0 41 -24l185 -279q8 -12 2 -21t-21 -9h-192q-23 0 -39 16l-277 277q-12 12 -5 26z" />
<glyph unicode="a" horiz-adv-x="1144" d="M27 311v80q0 150 106.5 229.5t300.5 79.5h219q10 0 23.5 -4t21.5 -8l9 -4q-16 31 -17 55v25q0 47 -53 47l-154 -2q-27 0 -26 -23v-12q0 -23 -25 -22h-323q-12 0 -21.5 9t-9.5 21v23q0 133 104.5 237.5t245.5 104.5l283 2q150 0 261 -119t111 -291v-710q0 -12 -9 -20.5 t-21 -8.5h-289q-37 0 -37 33v2q0 4 7 23.5t16 35.5l8 15q-29 -27 -39 -39q-29 -33 -98.5 -57.5t-126.5 -24.5h-107q-143 0 -251.5 90t-108.5 233zM418 385q0 -23 3 -33t22.5 -18t60.5 -8h135q29 0 40 11t11 36v41q0 10 4 22.5t6 18.5l5 8q-29 -14 -52 -14h-184 q-23 0 -37 -14.5t-14 -35.5v-14z" />
<glyph unicode="b" horiz-adv-x="1200" d="M100 29v1611q0 12 10.5 21.5t22.5 9.5h330q14 0 23.5 -9t9.5 -22v-518q0 -16 -8.5 -39.5t-14.5 -40.5l-8 -16q33 31 39 39q31 33 101.5 57.5t139.5 24.5h25q162 0 278.5 -125t116.5 -311v-285q0 -186 -121.5 -312t-287.5 -126h-60q-111 0 -207 98l-34 45q12 -35 12 -59 v-41q0 -12 -10.5 -21.5t-22.5 -9.5h-301q-12 0 -22.5 9t-10.5 20zM494 373q0 -25 11 -36t40 -11h117q59 0 85.5 25.5t26.5 99.5v233q0 74 -26.5 100.5t-85.5 26.5h-115q-53 0 -53 -47v-391z" />
<glyph unicode="c" horiz-adv-x="1110" d="M35 451v233q0 193 130 329t314 136h166q102 0 189.5 -43t139.5 -108.5t81.5 -136t29.5 -132.5v-18q0 -12 -9 -21.5t-21 -9.5h-330q-12 0 -21.5 9t-9.5 22v12q0 33 -24.5 57.5t-83.5 24.5h-45q-59 0 -85 -25.5t-26 -101.5v-223q0 -74 25.5 -100.5t85.5 -26.5h45 q59 0 83.5 25.5t24.5 58.5v10q0 12 9.5 21.5t21.5 9.5h330q12 0 21 -9.5t9 -21.5v-16q0 -61 -29.5 -132t-81.5 -136.5t-139 -108.5t-190 -43h-166q-184 0 -314 136t-130 329z" />
<glyph unicode="d" horiz-adv-x="1200" d="M35 426v285q0 186 116.5 311t278.5 125h23q72 0 142.5 -24.5t100.5 -57.5l39 -39q-31 61 -30 96v518q0 12 9 21.5t23 9.5h330q12 0 21.5 -9t9.5 -22v-1611q0 -10 -9.5 -19.5t-21.5 -9.5h-301q-14 0 -23.5 9t-9.5 22v41q0 10 3 25.5t7 23.5l2 10q-25 -33 -34 -45 q-96 -98 -207 -98h-60q-166 0 -287.5 126t-121.5 312zM426 451q0 -74 27 -99.5t86 -25.5h116q27 0 38.5 11t11.5 36v391q0 47 -52 47h-114q-59 0 -86 -26.5t-27 -100.5v-233z" />
<glyph unicode="e" d="M35 444v240q0 193 130 329t314 136h168q188 0 315.5 -139.5t127.5 -335.5v-197q0 -31 -29 -31h-574q-23 0 -41 4.5t-26 8.5l-8 4q2 -2 5 -7t7 -16.5t4 -17.5v-12q0 -25 3 -41.5t20.5 -30.5t48.5 -14h143q33 0 35 18l2 14q4 23 31 23l327 -2q33 0 27 -31v-4 q-29 -145 -136.5 -250.5t-246.5 -105.5h-203q-184 0 -314 134t-130 324zM412 686q25 16 75 16h154q14 0 27.5 -2t21.5 -4t15.5 -5t9.5 -5h2q-16 31 -17 55v21q0 23 -15 36t-38 13h-166q-23 0 -38 -13.5t-15 -35.5v-21q0 -10 -4 -24.5t-8 -22.5z" />
<glyph unicode="f" horiz-adv-x="831" d="M-41 834v262q0 39 37 39h108q20 0 39 -4.5t27 -8.5l8 -4q-16 23 -16 56v47v7q0 194 108 314q109 123 320 125l149 2q29 0 29 -31v-274q0 -41 -35 -41h-41h-10q-70 0 -96 -27q-29 -28 -29 -75v-43q0 -14 -5 -29.5t-9 -22.5l-4 -8q27 16 82 17h174q37 0 36 -39v-262 q0 -41 -36 -41h-181q-20 0 -38.5 4t-26.5 8l-10 4q18 -27 18 -49v-729q0 -12 -10 -21.5t-23 -9.5h-329q-14 0 -23.5 9t-9.5 22v729q0 10 4 22.5t8 20.5l4 6q-31 -16 -74 -16h-108q-37 0 -37 41z" />
<glyph unicode="g" horiz-adv-x="1193" d="M8 -72q0 63 32 128t75 85q-31 14 -55.5 54.5t-24.5 80.5v17q0 102 102 162q-102 107 -102 260v6v29q4 129 69.5 221t163 135t211.5 43h168q145 0 258 -68q8 -4 15.5 -12t13.5 -14l4 -4q6 18 18 26q90 57 205 58h21q14 0 23 -9.5t9 -21.5v-268q0 -12 -9 -21.5t-23 -9.5h-8 h-56q-12 0 -25.5 5t-21.5 11l-6 6q6 -8 15.5 -27.5t9.5 -31.5q2 -12 0 -18v-29q-4 -186 -135.5 -294t-307.5 -108h-225q-53 0 -53 -32v-8q0 -16 15 -24.5t38 -8.5h338q170 0 273.5 -84t103.5 -242v-90q0 -158 -121 -245t-297 -87h-307q-176 0 -290 81t-114 239v110z M340 -111v-4q0 -61 57 -61h361q59 0 59 65v5q0 57 -59 57h-361q-57 0 -57 -62zM428 711q0 -23 15.5 -36t37.5 -13h162q23 0 38 13t15 36v47q0 23 -15 35t-38 12h-162q-25 0 -39 -12.5t-14 -34.5v-47z" />
<glyph unicode="h" horiz-adv-x="1241" d="M100 29v1611q0 12 9.5 21.5t23.5 9.5h332q12 0 22.5 -9t10.5 -22v-518q0 -16 -8.5 -39.5t-16.5 -40.5l-6 -16l39 39q31 33 101.5 57.5t140.5 24.5h30q164 0 277.5 -124t113.5 -312v-672q0 -39 -36 -39h-320q-39 0 -39 39v645q0 74 -27.5 100.5t-84.5 26.5h-54 q-57 0 -83.5 -26.5t-26.5 -100.5v-653q0 -12 -10.5 -21.5t-22.5 -9.5h-332q-12 0 -22.5 9t-10.5 20z" />
<glyph unicode="i" horiz-adv-x="598" d="M102 31v1073q0 12 9.5 21.5t21.5 9.5h330q14 0 23.5 -9.5t9.5 -21.5v-1073q0 -12 -9.5 -21.5t-23.5 -9.5h-330q-12 0 -21.5 9t-9.5 22zM102 1245v238q0 14 9.5 22t21.5 8h330q14 0 23.5 -8t9.5 -22v-238q0 -12 -9.5 -21.5t-23.5 -9.5h-330q-12 0 -21.5 9.5t-9.5 21.5z " />
<glyph unicode="j" horiz-adv-x="573" d="M-12 -186q0 20 26 28h4q63 14 64 123v1139q0 12 9 21.5t22 9.5h329q14 0 23.5 -9.5t9.5 -21.5v-1143q0 -190 -132 -326.5t-316 -136.5h-2q-37 0 -37 37v279zM82 1245v238q0 14 9 22t22 8h329q14 0 23.5 -8t9.5 -22v-238q0 -12 -9 -21.5t-24 -9.5h-329q-12 0 -21.5 9.5 t-9.5 21.5z" />
<glyph unicode="k" horiz-adv-x="1069" d="M100 31v1568q0 12 10.5 21.5t22.5 9.5h330q14 0 23.5 -9t9.5 -19v-627q0 -27 -7.5 -65t-13.5 -62l-6 -25q43 92 78 140l117 149q16 23 45 23h378q23 0 29 -14.5t-10 -33.5l-340 -401q-8 -12 -21.5 -21.5t-21.5 -11.5l-8 -4q29 -10 45 -35l352 -567q10 -20 3 -33.5 t-30 -13.5h-350q-29 0 -43 27l-180 323q-2 4 -3 15.5t1 19.5v8q-8 -25 -10 -28l-2 -3l-25 -6q23 -2 23 -12v-313q0 -12 -9.5 -21.5t-23.5 -9.5h-330q-12 0 -22.5 9t-10.5 22z" />
<glyph unicode="l" horiz-adv-x="598" d="M102 31v1568q0 12 9.5 21.5t21.5 9.5h330q14 0 23.5 -9t9.5 -22v-1568q0 -12 -9.5 -21.5t-23.5 -9.5h-330q-12 0 -21.5 9t-9.5 22z" />
<glyph unicode="m" horiz-adv-x="1902" d="M100 31v1073q0 12 10.5 21.5t22.5 9.5h289q37 0 37 -31v-2q0 -8 -15 -42l-16 -34l19.5 19.5l19.5 19.5q29 33 98.5 57.5t126.5 24.5h74q145 0 272 -111q8 -10 8.5 -21t-4.5 -20l-6 -10q37 43 56 59q57 43 136 75q74 30 153 30h10h45q164 -2 279.5 -125t115.5 -313v-680 q0 -12 -10.5 -21.5t-22.5 -9.5h-330q-14 0 -23 9t-9 22v653q0 74 -29 100.5t-86 26.5h-104q-53 0 -54 -47v-733q0 -12 -10 -21.5t-23 -9.5h-329q-14 0 -23.5 9t-9.5 22v653q0 74 -26.5 100.5t-84.5 26.5h-108q-53 0 -53 -47v-733q0 -12 -9.5 -21.5t-23.5 -9.5h-330 q-12 0 -22.5 9t-10.5 22z" />
<glyph unicode="n" horiz-adv-x="1234" d="M100 31v1073q0 12 10.5 21.5t22.5 9.5h289q37 0 37 -31v-2q0 -10 -8.5 -28.5t-14.5 -33.5l-8 -14l19.5 19.5l19.5 19.5q29 33 98.5 57.5t126.5 24.5h74q164 0 280.5 -122t116.5 -310v-684q0 -12 -10 -21.5t-23 -9.5h-329q-14 0 -23.5 9t-9.5 22v653q0 74 -26.5 100.5 t-84.5 26.5h-108q-53 0 -53 -47v-733q0 -12 -9.5 -21.5t-23.5 -9.5h-330q-12 0 -22.5 9t-10.5 22z" />
<glyph unicode="o" d="M35 444v240q0 193 130 329t314 136h166q184 0 314.5 -136t130.5 -329v-240q0 -190 -129.5 -324t-311.5 -134h-174q-180 0 -310 134t-130 324zM430 449q0 -74 25.5 -99.5t85.5 -25.5h45q57 0 83.5 25.5t26.5 99.5v229q0 76 -26.5 101.5t-83.5 25.5h-45q-59 0 -85 -25.5 t-26 -101.5v-229z" />
<glyph unicode="p" horiz-adv-x="1200" d="M102 -504v1610q0 12 9.5 20.5t21.5 8.5h301q12 0 22.5 -9.5t10.5 -21.5v-39q0 -12 -3 -26.5t-7 -24.5l-2 -8q23 31 34 43q96 98 207 98h60q166 0 287.5 -126t121.5 -312v-283q0 -188 -116.5 -313t-278.5 -125h-25q-70 0 -140 24.5t-101 57.5l-39 39q31 -61 31 -95v-518 q0 -12 -9.5 -21.5t-23.5 -9.5h-330q-12 0 -21.5 9.5t-9.5 21.5zM494 373q0 -47 53 -47h115q59 0 85.5 25.5t26.5 99.5v233q0 74 -26.5 100.5t-85.5 26.5h-117q-29 0 -40 -12.5t-11 -36.5v-389z" />
<glyph unicode="q" horiz-adv-x="1200" d="M35 426v283q0 186 122 312t287 126h48q111 0 206 -98l37 -43q-12 33 -12 59v39q0 12 9 21.5t22 9.5h313q12 0 21.5 -8.5t9.5 -20.5v-1610q0 -12 -9.5 -21.5t-21.5 -9.5h-342q-14 0 -23.5 9.5t-9.5 21.5v518q0 14 8.5 38t16.5 40l6 17l-39 -39q-29 -33 -100.5 -57.5 t-141.5 -24.5h-12q-162 0 -278.5 125t-116.5 313zM426 451q0 -74 27 -99.5t86 -25.5h102q53 0 53 47v389q0 25 -11 37t-40 12h-104q-59 0 -86 -26.5t-27 -100.5v-233z" />
<glyph unicode="r" horiz-adv-x="778" d="M100 31v1073q0 12 10.5 21.5t22.5 9.5h289q37 0 37 -31v-2q0 -6 -8.5 -25.5t-14.5 -34.5l-8 -16l19.5 19.5l19.5 19.5q29 33 98.5 57.5t126.5 24.5h74q12 0 21.5 -8.5t9.5 -20.5v-280q0 -14 -9.5 -22.5t-21.5 -8.5h-217q-53 0 -53 -47v-729q0 -12 -9.5 -21.5t-23.5 -9.5 h-330q-12 0 -22.5 9t-10.5 22z" />
<glyph unicode="s" horiz-adv-x="1073" d="M35 330v20q0 14 9 22.5t24 8.5h301q37 0 43 -23l6 -18q4 -16 45 -16h192q45 0 45 34v7q0 37 -32 43l-303 30q-158 16 -239 105.5t-81 230.5v23q0 147 100.5 249.5t253.5 102.5h250q147 0 252 -102.5t113 -241.5v-23q0 -12 -9.5 -21t-23.5 -9h-301q-37 0 -43 24l-6 19 q-4 16 -45 16h-160q-43 0 -43 -35v-8q0 -29 33 -37l303 -31q160 -16 239.5 -102t79.5 -225v-35q0 -147 -100 -249.5t-254 -102.5h-285q-147 0 -251.5 102t-112.5 242z" />
<glyph unicode="t" horiz-adv-x="1044" d="M47 834v262q0 39 37 39h184q20 0 40 -4.5t28 -8.5l8 -4q-18 23 -18 56v169q0 8 2 13.5t7 9.5t8 6t13.5 6t12.5 6l315 144q37 16 37 -25v-325q0 -14 -4 -29.5t-8 -22.5l-4 -8q27 16 81 17h172q37 0 37 -39v-262q0 -41 -37 -41h-178q-20 0 -39.5 5t-27.5 9l-8 4 q16 -29 16 -49v-731q0 -12 -9.5 -21.5t-23.5 -9.5h-330q-12 0 -22 9t-10 22v731q0 10 4 22.5t8 18.5l4 8q-29 -18 -74 -18h-184q-37 0 -37 41z" />
<glyph unicode="u" horiz-adv-x="1232" d="M72 420v684q0 12 9 21.5t21 9.5h330q14 0 23.5 -9.5t9.5 -21.5v-649q0 -74 26.5 -99.5t86.5 -25.5h106q53 0 53 47v727q0 12 9.5 21.5t23.5 9.5h330q14 0 23.5 -9.5t9.5 -21.5v-1071q0 -14 -9.5 -23.5t-23.5 -9.5h-289q-37 0 -37 33v2q0 4 8.5 23.5t16.5 35.5l6 15 l-19.5 -19.5l-19.5 -19.5q-29 -33 -97.5 -57.5t-127.5 -24.5h-74q-164 0 -279.5 121.5t-115.5 310.5z" />
<glyph unicode="v" horiz-adv-x="948" d="M-63 1090q-6 20 2 32.5t28 12.5h301q33 0 43 -33l148 -500q4 -14 8 -52t6 -69l2 -30q4 119 14 151l148 500q10 33 43 33h301q23 0 30 -12.5t1 -32.5l-365 -1059q-12 -31 -41 -31h-264q-29 0 -41 31z" />
<glyph unicode="w" horiz-adv-x="1794" d="M-63 1090q-6 20 2 32.5t28 12.5h301q33 0 41 -29l164 -543q4 -14 7 -36.5t5 -39.5l2 -16q6 61 17 92l203 545q12 31 43 31h294q31 0 43 -31l203 -545q4 -12 9.5 -35.5t7.5 -40.5v-16q6 63 14 92l164 543q10 29 41 29h303q20 0 28.5 -12.5t0.5 -32.5l-379 -1059 q-12 -31 -43 -31h-260q-33 0 -43 31l-228 676l-8 51q-2 -37 -8 -51l-227 -676q-10 -31 -44 -31h-260q-31 0 -41 31z" />
<glyph unicode="x" horiz-adv-x="1048" d="M-67 13.5q-7 13.5 8 35.5l350 541q4 4 10 8t12 6t13 4l6 2l-10 3q-9 3 -18 8.5t-13 11.5l-303 452q-12 20 -5 35t31 15h338q33 0 45 -25l107 -207q14 -27 20 -80q8 53 23 82l104 205q14 25 47 25h336q25 0 32 -14.5t-5 -35.5l-303 -452q-4 -6 -13.5 -11.5t-18.5 -8.5 l-9 -3q2 0 7 -2t11 -4t12.5 -6t10.5 -8l350 -541q14 -23 7 -36t-30 -13h-340q-33 0 -47 25l-155 280q-10 18 -19 66q-6 -47 -18 -66l-156 -280q-14 -25 -47 -25h-338q-25 0 -32 13.5z" />
<glyph unicode="y" horiz-adv-x="1032" d="M-20 1090q-8 20 0 32.5t28 12.5h303q33 0 41 -33l140 -471q18 -57 24 -135q6 78 25 137l139 469q8 33 41 33h303q20 0 28.5 -12.5t0.5 -32.5l-437 -1268q-61 -176 -160.5 -250t-254.5 -74h-47q-37 0 -37 37v277q0 29 28 28h111q29 0 40 15.5t19 44.5l27 88l24 18l23 17 l-7 -1q-7 -2 -14.5 -2t-14.5 1.5t-7 5.5z" />
<glyph unicode="z" horiz-adv-x="1019" d="M47 47v268q0 8 6 15l389 399q31 33 115 72q-47 -8 -145 -8h-254q-37 0 -37 36v267q0 39 37 39h753q45 0 45 -45l-6 -240q0 -12 -6 -21l-377 -423q-29 -33 -108 -70q45 8 139 8h342q37 0 37 -41v-264q0 -39 -37 -39h-848q-45 0 -45 47z" />
<glyph unicode="{" horiz-adv-x="661" d="M2 428v205q0 18 10.5 28.5t26.5 10.5h14q43 0 71 12t42 27.5t21.5 51.5t9.5 63.5t2 86.5v359q0 76 30.5 132t81.5 86t106.5 43t114.5 13h72q16 0 26.5 -10t10.5 -29v-174q0 -18 -10 -28.5t-27 -10.5h-55q-27 0 -41 -8t-14 -35l2 -479q0 -127 -97 -211q-25 -23 -45 -29 q20 -8 45 -30q96 -86 97 -211l-2 -481q0 -25 14 -34t41 -9h55q16 0 26.5 -10.5t10.5 -28.5v-174q0 -18 -10 -28.5t-27 -10.5h-72q-59 0 -114.5 14t-106.5 44t-81.5 86t-30.5 130v358q0 59 -2 87t-9.5 64t-21.5 51.5t-42 27.5t-71 12h-14q-16 0 -26.5 11.5t-10.5 27.5z" />
<glyph unicode="|" horiz-adv-x="610" d="M102 -483v2001q0 29 29 28h348q29 0 29 -28v-2001q0 -29 -29 -29h-348q-29 0 -29 29z" />
<glyph unicode="}" horiz-adv-x="655" d="M23 -272q0 18 10 28.5t26 10.5h54q29 0 43 9t14 34l-2 481q0 125 94 211q27 23 45 28q-18 8 -45 31q-94 84 -94 211l2 479q0 25 -14.5 34t-42.5 9h-54q-16 0 -26 10.5t-10 28.5v174q0 18 10 28.5t26 10.5h72q57 0 112.5 -13t107.5 -44t83 -86t31 -131v-359q0 -59 2 -86.5 t9 -63.5t21.5 -51.5t42 -27.5t70.5 -12h15q16 0 26.5 -10.5t10.5 -28.5v-205q0 -16 -10.5 -27.5t-26.5 -11.5h-15q-43 0 -70.5 -12t-42 -27.5t-21.5 -51.5t-9 -63.5t-2 -87.5v-358q0 -74 -31 -130t-83 -86t-107.5 -44t-112.5 -14h-72q-16 0 -26 10t-10 29v174z" />
<glyph unicode="~" horiz-adv-x="1132" d="M96 426q51 326 305 326q33 0 67 -11.5t128 -52.5q84 -41 113 -41q47 0 73 53q8 20 31 21h193q33 0 28 -31q-51 -325 -305 -325q-18 0 -38.5 3t-44 12t-39 15t-41 17.5t-31.5 15.5q-84 39 -113 39q-47 0 -74 -53q-10 -18 -31 -19h-192q-33 0 -29 31z" />
<glyph unicode="&#xa1;" horiz-adv-x="626" d="M117 -307l37 991q2 39 36 39h246q37 0 37 -39l39 -991q0 -39 -37 -39h-321q-39 0 -37 39zM158 928v223q0 39 37 39h237q37 0 37 -39v-223q0 -37 -37 -37h-237q-37 0 -37 37z" />
<glyph unicode="&#xa2;" horiz-adv-x="1110" d="M35 451v233q0 178 113.5 310t281.5 151v248q0 16 10.5 27.5t26.5 11.5h225q16 0 26.5 -11.5t10.5 -27.5v-252q109 -23 194 -96.5t123.5 -157.5t38.5 -158v-18q0 -12 -9 -21.5t-21 -9.5h-330q-12 0 -21.5 9t-9.5 22v12q0 33 -24.5 57.5t-83.5 24.5h-45q-59 0 -85 -25.5 t-26 -101.5v-223q0 -74 25.5 -100.5t85.5 -26.5h45q59 0 83.5 25.5t24.5 58.5v10q0 12 9.5 21.5t21.5 9.5h330q12 0 21 -9.5t9 -21.5v-16q0 -76 -38.5 -160t-123.5 -158t-194 -94v-285q0 -18 -10 -28.5t-27 -10.5h-225q-16 0 -26.5 10.5t-10.5 28.5v279q-168 20 -281.5 152 t-113.5 311z" />
<glyph unicode="&#xa3;" horiz-adv-x="1400" d="M92 16v238q0 31 29 31h78q57 0 84.5 25.5t27.5 99.5v131h-178q-31 0 -31 30v224q0 31 31 30h178v156q0 188 127 325.5t299 137.5h199q174 0 300 -127t126 -313v-82q0 -31 -29 -31h-350q-31 0 -31 31v39q0 74 -26.5 100t-83.5 26h-11q-57 0 -84.5 -26.5t-27.5 -99.5v-136 h115q29 0 28 -30v-224q0 -31 -28 -30h-115v-117q0 -41 -6 -82h118q57 0 84 25.5t27 99.5v16q0 31 31 31h350q29 0 29 -31v-39q0 -188 -127 -323t-299 -135h-805q-29 0 -29 30z" />
<glyph unicode="&#xa4;" horiz-adv-x="1427" d="M90 1028q-20 20 0 43l150 158q20 23 41 0l135 -144q133 82 298 82t298 -82l135 144q20 23 41 0l149 -158q20 -23 0 -43l-133 -143q78 -141 78 -318q0 -172 -78 -313l125 -129q20 -20 0 -43l-151 -158q-20 -23 -41 0l-123 127q-133 -82 -300 -82t-302 82l-121 -127 q-23 -23 -43 0l-150 158q-20 23 0 43l123 129q-76 141 -76 313q0 176 78 318zM483 568.5q0 -107.5 64.5 -176t166 -68.5t166 68.5t64.5 176t-64.5 176t-166 68.5t-166 -68.5t-64.5 -176z" />
<glyph unicode="&#xa5;" d="M-92 1412.5q8 12.5 29 12.5h354q31 0 43 -26l201 -447q12 -27 22 -90h8q10 63 23 88l200 449q12 27 43 26h355q20 0 28.5 -12t-2.5 -31l-262 -520h39q29 0 29 -31v-223q0 -31 -29 -30h-184l-19 -37q-2 -4 -6 -10.5t-8 -10.5l-8 -8l-6 -6l-2 -2q12 -20 12 -37v-6h221 q29 0 29 -31v-225q0 -31 -29 -31h-221v-137q0 -37 -37 -37h-340q-37 0 -37 37v137h-221q-31 0 -31 31v225q0 31 31 31h221v6q0 8 3 16.5t5 14.5l5 6q-23 20 -33 37l-17 37h-184q-31 0 -31 30v223q0 31 31 31h39l-262 520q-10 18 -2 30.5z" />
<glyph unicode="&#xa6;" horiz-adv-x="610" d="M102 295q0 31 29 31h348q29 0 29 -31v-778q0 -29 -29 -29h-348q-29 0 -29 29v778zM102 739v781q0 29 29 28h348q29 0 29 -28v-781q0 -29 -29 -28h-348q-29 0 -29 28z" />
<glyph unicode="&#xa7;" horiz-adv-x="1318" d="M98 -27v74q0 39 37 39h334q37 0 37 -39v-35q0 -72 26.5 -97.5t85.5 -25.5h93q106 0 106 123v15q0 70 -82 94l-385 112q-119 37 -185.5 138.5t-66.5 210.5v22q0 129 68 240q-68 98 -68 211v22q0 188 130 322.5t313 134.5h227q195 0 310.5 -133t115.5 -332v-18 q0 -39 -37 -39h-334q-37 0 -37 39v41q0 29 -24.5 45t-59.5 16h-141q-27 0 -42 -20.5t-15 -49.5v-4q0 -72 71 -92l383 -115q147 -51 206 -130.5t59 -231.5v-70q0 -104 -43 -196q43 -76 43 -207v-72q0 -193 -132.5 -326t-320.5 -133h-227q-184 0 -314.5 136.5t-130.5 330.5z M504 604q0 -70 71 -90l207 -63l31 -9q4 20 4 45v15q0 68 -82 92l-217 63q-14 -20 -14 -47v-6z" />
<glyph unicode="&#xa8;" horiz-adv-x="964" d="M84 1305v221q0 39 37 39h235q37 0 37 -39v-221q0 -39 -37 -39h-235q-37 0 -37 39zM571 1305v221q0 39 37 39h236q37 0 37 -39v-221q0 -39 -37 -39h-236q-37 0 -37 39z" />
<glyph unicode="&#xa9;" horiz-adv-x="1394" d="M72 875.5q0 285.5 178 473t447.5 187.5t447.5 -187.5t178 -473t-178 -472t-447.5 -186.5t-447.5 186.5t-178 472zM203 876.5q0 -229.5 138 -377t356 -147.5t356.5 147.5t138.5 377t-138.5 376t-356.5 146.5t-356 -146.5t-138 -376zM348 795v157q0 129 86 219.5t207 90.5 h111q115 0 199.5 -82t95.5 -203q2 -27 -25 -27h-213q-20 0 -25 27q-4 31 -20 44t-51 13h-31q-39 0 -56.5 -17.5t-17.5 -66.5v-153q0 -49 17.5 -65.5t56.5 -16.5h31q35 0 50 11t21 40q4 29 27 29h211q29 0 25 -29q-12 -117 -95.5 -195.5t-201.5 -78.5h-111q-121 0 -206 88 t-85 215z" />
<glyph unicode="&#xaa;" horiz-adv-x="835" d="M27 907v58q0 104 75.5 161.5t212.5 57.5h154q8 0 17.5 -3t15.5 -5l6 -5q-12 23 -12 39v17q0 35 -37 35l-109 -2q-18 0 -18 -17v-8q0 -14 -19 -14h-227q-10 0 -16.5 6t-6.5 14v16q0 94 74 168t174 74h199q106 2 186 -82t80 -207v-501q0 -20 -22 -21h-205q-27 0 -27 23 l23 53q-20 -18 -29 -27q-20 -23 -69.5 -41t-90.5 -18h-75q-100 0 -177 64.5t-77 164.5zM43 432v154q0 20 23 20h671q23 0 23 -20v-154q0 -23 -23 -22h-671q-23 0 -23 22zM303 961q0 -16 3 -23.5t16.5 -13.5t42.5 -6h96q35 0 35 34v29q0 6 3 14.5t5 14.5l4 4q-20 -10 -39 -10 h-129q-16 0 -26.5 -9.5t-10.5 -23.5v-10z" />
<glyph unicode="&#xab;" horiz-adv-x="1116" d="M125 463v274q0 27 25 49l280 263q10 10 20.5 2.5t10.5 -21.5v-278q0 -20 -21 -39l-104 -105q-4 -4 -4 -9t4 -9l104 -105q20 -18 21 -39v-278q0 -14 -10.5 -21.5t-20.5 0.5l-280 263q-25 25 -25 53zM678 463v274q0 27 24 49l281 263q10 10 20.5 2.5t10.5 -21.5v-278 q0 -20 -21 -39l-104 -105q-4 -4 -4 -9t4 -9l104 -105q20 -18 21 -39v-278q0 -14 -10.5 -21.5t-20.5 0.5l-281 263q-25 25 -24 53z" />
<glyph unicode="&#xac;" horiz-adv-x="1312" d="M106 621v237q0 39 37 39h1045q37 0 37 -39v-590q0 -39 -37 -39h-248q-37 0 -37 39v303q0 10 -10 11h-750q-37 0 -37 39z" />
<glyph unicode="&#xad;" horiz-adv-x="716" d="M82 492v225q0 31 29 31h495q29 0 29 -31v-225q0 -31 -29 -31h-495q-29 0 -29 31z" />
<glyph unicode="&#xae;" horiz-adv-x="1024" d="M84 1268.5q0 195.5 122 323.5t306 128t305 -128t121 -323.5t-121 -322.5t-305 -127t-306 127t-122 322.5zM174 1268.5q0 -156.5 94 -257t244 -100.5t244 100.5t94 257t-94 257t-244 100.5t-244 -100.5t-94 -257zM334 1038v459q0 12 12 12h205q59 0 100 -41t41 -100v-35 q0 -82 -67 -123q-2 0 -2 -2l75 -168q6 -14 -8 -14h-108q-10 0 -13 10l-65 154q-2 2 -4 2h-33q-4 0 -4 -4v-150q0 -12 -10 -12h-107q-12 0 -12 12zM463 1305q0 -4 4 -5h59q18 0 26.5 8.5t8.5 32.5v9q0 23 -8.5 31t-26.5 8h-59q-4 0 -4 -5v-79z" />
<glyph unicode="&#xaf;" horiz-adv-x="868" d="M98 1309v164q0 39 37 38h598q37 0 37 -38v-164q0 -39 -37 -39h-598q-37 0 -37 39z" />
<glyph unicode="&#xb0;" horiz-adv-x="798" d="M98 1219v41q0 129 86 219t209 90h13q123 0 209.5 -90t86.5 -219v-41q0 -129 -87 -219.5t-209 -90.5h-13q-123 0 -209 90.5t-86 219.5zM334 1235q0 -31 18.5 -53.5t44.5 -22.5h2q27 0 46.5 22.5t19.5 53.5v6q0 31 -19.5 52.5t-46.5 21.5h-2q-27 0 -45 -21.5t-18 -52.5v-6z " />
<glyph unicode="&#xb1;" horiz-adv-x="1120" d="M82 952v226q0 31 29 30h266v267q0 33 29 32h212q29 0 29 -32v-267h264q31 0 31 -30v-226q0 -31 -31 -30h-264v-269q0 -31 -29 -30h-212q-29 0 -29 30v269h-266q-29 0 -29 30zM123 203v225q0 31 31 31h854q31 0 30 -31v-225q0 -31 -30 -31h-854q-31 0 -31 31z" />
<glyph unicode="&#xb2;" horiz-adv-x="929" d="M20 1276v12q0 152 86 250q92 106 244 107h189q139 0 239.5 -103.5t100.5 -247.5v-41q0 -82 -54.5 -154.5t-140.5 -115.5l-299 -147q-2 -2 -4 -2v-5v-2v-4h4h422q25 0 41 -16t16 -41v-199q0 -27 -16.5 -43t-40.5 -16l-721 2q-25 0 -41 15.5t-16 41.5l2 238q0 109 46 174 t154 121l269 133q33 16 32 37v28q0 8 -5 13.5t-13 5.5h-125q-20 0 -20 -21v-20q0 -27 -16.5 -43t-41.5 -16h-233q-29 0 -45 18q-12 16 -13 41z" />
<glyph unicode="&#xb3;" horiz-adv-x="921" d="M20 854v23q0 27 15.5 42t42.5 15h233q25 0 41.5 -15.5t16.5 -41.5v-29q0 -25 20 -25l111 -2q25 0 24 27v86q0 25 -24 24h-74q-16 0 -27.5 11.5t-11.5 27.5v162q0 16 11.5 28.5t27.5 12.5h61q20 0 21 21v71q0 23 -25 23h-88q-27 0 -26 -29v-12q0 -27 -16.5 -43.5 t-41.5 -16.5h-233q-27 0 -42.5 16.5t-15.5 43.5v12q0 152 86 250q92 106 244 106h172q139 0 234 -94q98 -100 98 -248v-26q0 -100 -47 -172q-2 -4 -2 -5t2 -3q63 -88 63 -172v-80q0 -145 -98 -244.5t-242 -99.5h-180q-150 0 -240 102t-90 254z" />
<glyph unicode="&#xb4;" horiz-adv-x="563" d="M22.5 1275q-6.5 9 0.5 21l184 279q16 25 41 24h284q16 0 22.5 -14t-3.5 -26l-277 -277q-18 -16 -38 -16h-193q-14 0 -20.5 9z" />
<glyph unicode="&#xb5;" horiz-adv-x="1261" d="M100 -444v1540q0 39 37 39h316q39 0 39 -39v-647q0 -76 27.5 -101.5t84.5 -25.5h49q57 0 85 25.5t28 101.5l-2 647q0 20 8 29.5t31 9.5h319q37 0 37 -39v-1057q0 -18 -10 -28.5t-27 -10.5h-321q-35 0 -35 31q0 6 4 17t8 19.5t4 10.5l-13 -18q-13 -19 -15 -23 q-53 -51 -156 -51h-33q-33 0 -49 12q-18 10 -41 37l4 -11q4 -10 8.5 -23t4.5 -21v-424q0 -23 -7.5 -31t-29.5 -8h-318q-37 0 -37 39z" />
<glyph unicode="&#xb6;" horiz-adv-x="1480" d="M63 807v471q0 113 75 191.5t179 78.5h971q16 0 27.5 -11t11.5 -28v-1955q0 -18 -11 -28.5t-28 -10.5h-225q-16 0 -26.5 10t-10.5 29v1615h-180v-1615q0 -18 -10.5 -28.5t-26.5 -10.5h-225q-16 0 -26.5 10t-10.5 29v985h-230q-104 0 -179 78.5t-75 189.5z" />
<glyph unicode="&#xb7;" horiz-adv-x="587" d="M129 383v242q0 39 37 39h256q37 0 37 -39v-242q0 -39 -37 -39h-256q-37 0 -37 39z" />
<glyph unicode="&#xb8;" horiz-adv-x="604" d="M74 -178l92 166l6 12t6 10t6 5t13 3h143q16 0 26.5 -9t2.5 -21l-37 -58h49q70 0 120 -52t50 -128v-51q0 -74 -50 -130t-120 -56h-260q-29 0 -29 30v107q0 31 29 31h164q14 0 24 3t15.5 6t8.5 11t3 12v16.5v14.5v7v10t-3 10.5t-8.5 10.5t-15.5 6t-24 3h-181q-16 0 -26 9.5 t-4 21.5z" />
<glyph unicode="&#xb9;" horiz-adv-x="821" d="M16 569v199q0 27 15.5 43t42.5 16h137q23 0 35 -6q-4 12 -4 35v412q0 33 4 49q-14 -10 -47 -10h-127q-25 0 -39.5 14t-14.5 37v227q0 20 14.5 34.5t37.5 14.5h446q27 0 42 -15t15 -42v-717q0 -25 -10 -37q16 4 45 4h121q25 0 40 -16t15 -43v-199q0 -25 -15 -41t-40 -16 h-655q-27 0 -42.5 16.5t-15.5 40.5z" />
<glyph unicode="&#xba;" horiz-adv-x="817" d="M35 1001v170q0 135 92 231.5t223 96.5h117q131 0 223 -96t92 -232v-170q0 -135 -92 -229t-219 -94h-125q-127 0 -219 94t-92 229zM78 432v154q0 20 22 20h645q23 0 23 -20v-154q0 -23 -23 -22h-645q-23 0 -22 22zM315 1004q0 -51 18.5 -70t59.5 -19h31q41 0 60.5 18.5 t19.5 70.5v163q0 53 -19.5 71.5t-60.5 18.5h-31q-41 0 -59.5 -18t-18.5 -72v-163z" />
<glyph unicode="&#xbb;" horiz-adv-x="1116" d="M125 168v278q0 20 20 39l105 105q4 4 4 9t-4 9l-105 105q-20 18 -20 39v278q0 14 10 21.5t21 -2.5l280 -263q25 -23 25 -49v-274q0 -29 -25 -53l-280 -263q-10 -8 -20.5 -0.5t-10.5 21.5zM680 168v278q0 20 18 39l105 105q4 4 4 9t-4 9l-105 105q-18 18 -18 39v278 q0 14 9 21.5t22 -2.5l278 -263q25 -23 25 -49v-274q0 -29 -25 -53l-278 -263q-12 -8 -21.5 -0.5t-9.5 21.5z" />
<glyph unicode="&#xbc;" horiz-adv-x="2267" d="M20 569v199q0 27 15.5 43t42.5 16h137q23 0 35 -6q-4 12 -4 35v412q0 33 4 49q-14 -10 -47 -10h-127q-25 0 -39 14t-14 37v227q0 20 14 34.5t37 14.5h446q27 0 42.5 -15t15.5 -42v-717q0 -25 -11 -37q16 4 45 4h121q25 0 40 -16t15 -43v-199q0 -25 -15 -41t-40 -16h-655 q-27 0 -42.5 16.5t-15.5 40.5zM844 297l358 809q0 4 3 11t5 9t5.5 7.5t5.5 7.5t7 3t11 1h236q18 0 30.5 -11.5t5.5 -27.5l-358 -809q-2 -4 -5 -11t-4 -9.5t-4 -7.5t-6.5 -7t-7.5 -3t-10 -1h-235q-20 0 -32.5 11.5t-4.5 27.5zM1360 70v202q0 16 10 33l305 582q16 31 54 31 h374q23 0 37 -14.5t14 -37.5v-534q0 -16 -4 -25q6 4 23 4h27q25 0 41 -15t16 -42v-178q0 -27 -16.5 -43.5t-40.5 -16.5h-31q-12 0 -19 2q4 -6 4 -16v-156q0 -23 -14 -37t-37 -14h-245q-23 0 -37.5 14.5t-14.5 36.5v156q0 12 2 18q-6 -4 -18 -4h-379q-23 0 -37 14.5t-14 39.5 zM1702 309q10 2 24 2h62q14 0 22 -2q-4 6 -4 21v123q0 25 2 43q-6 -18 -18 -41l-70 -121q-8 -16 -18 -25z" />
<glyph unicode="&#xbd;" horiz-adv-x="2422" d="M20 569v199q0 27 15.5 43t42.5 16h137q23 0 35 -6q-4 12 -4 35v412q0 33 4 49q-14 -10 -47 -10h-127q-25 0 -39 14t-14 37v227q0 20 14 34.5t37 14.5h446q27 0 42.5 -15t15.5 -42v-717q0 -25 -11 -37q16 4 45 4h121q25 0 40 -16t15 -43v-199q0 -25 -15 -41t-40 -16h-655 q-27 0 -42.5 16.5t-15.5 40.5zM844 297l358 809q0 4 3 11t5 9t5.5 7.5t5.5 7.5t7 3t11 1h236q18 0 30.5 -11.5t5.5 -27.5l-358 -809q-2 -4 -5 -11t-4 -9.5t-4 -7.5t-6.5 -7t-7.5 -3t-10 -1h-235q-20 0 -32.5 11.5t-4.5 27.5zM1554 559v14q0 150 86 250q92 106 244 107h189 q139 0 239.5 -103.5t100.5 -246.5v-41q0 -82 -54.5 -155t-140.5 -116l-299 -147q-2 -2 -4 -2v-4v-2v-4h4h422q25 0 41 -16.5t16 -41.5v-198q0 -27 -16.5 -43.5t-40.5 -16.5h-721q-25 0 -41 16.5t-16 43.5l2 235q0 111 46 176.5t154 120.5l269 133q33 16 32 37v29q0 8 -5 13 t-13 5h-125q-20 0 -20 -20v-23q0 -25 -16.5 -41t-41.5 -16h-233q-29 0 -45 18q-12 16 -13 39z" />
<glyph unicode="&#xbe;" horiz-adv-x="2463" d="M20 854v23q0 27 15.5 42t42.5 15h233q25 0 41.5 -15.5t16.5 -41.5v-29q0 -25 20 -25l111 -2q25 0 24 27v86q0 25 -24 24h-74q-16 0 -27.5 11.5t-11.5 27.5v162q0 16 11.5 28.5t27.5 12.5h61q20 0 21 21v71q0 23 -25 23h-88q-27 0 -26 -29v-12q0 -27 -16.5 -43.5 t-41.5 -16.5h-233q-27 0 -42.5 16.5t-15.5 43.5v12q0 152 86 250q94 106 244 106h172q139 0 234 -94q98 -100 98 -248v-26q0 -100 -47 -172q-2 -4 -2 -5t2 -3q63 -88 63 -172v-80q0 -145 -98 -244.5t-242 -99.5h-180q-150 0 -240 102t-90 254zM983 297l358 809q0 4 3.5 11 t5.5 9t5 7.5t5 7.5t7 3t11 1h236q18 0 30.5 -11.5t6.5 -27.5l-359 -809q-2 -4 -5 -11t-4 -9.5t-4 -7.5t-6 -7t-7 -3t-11 -1h-235q-20 0 -32.5 11.5t-4.5 27.5zM1499 70v202q0 16 10 33l306 582q16 31 53 31h375q23 0 37 -14.5t14 -37.5v-534q0 -16 -4 -25q6 4 22 4h27 q25 0 41 -15t16 -42v-178q0 -27 -16.5 -43.5t-40.5 -16.5h-31q-12 0 -18 2q4 -6 4 -16v-156q0 -23 -14.5 -37t-36.5 -14h-246q-23 0 -37 14.5t-14 36.5v156q0 12 2 18q-6 -4 -19 -4h-379q-23 0 -37 14.5t-14 39.5zM1841 309q10 2 25 2h61q14 0 23 -2q-4 6 -4 21v123 q0 25 2 43q-6 -18 -19 -41l-69 -121q-8 -16 -19 -25z" />
<glyph unicode="&#xbf;" horiz-adv-x="1196" d="M72 92v45q0 106 66.5 204.5t185.5 143.5l135 52q41 16 61.5 35.5t20.5 58.5l6 69q4 39 37 39h239q35 0 39 -39l4 -79q10 -139 -42 -228.5t-181 -144.5l-96 -41q-70 -31 -70 -92v-27q0 -29 15.5 -50.5t42.5 -21.5h151q35 0 59.5 17.5t24.5 46.5v41q0 39 37 39h278 q39 0 39 -39v-19q0 -197 -114.5 -312.5t-313.5 -115.5h-182q-186 0 -314 117t-128 301zM545 948v223q0 37 37 37h235q37 0 37 -37v-223q0 -39 -37 -39h-235q-37 0 -37 39z" />
<glyph unicode="&#xc0;" horiz-adv-x="1452" d="M12 33l445 1370q6 23 32 22h474q25 0 32 -22l445 -1370q10 -33 -25 -33h-366q-27 0 -33 23l-53 208q-2 12 -2 26.5t1 29t1 18.5q-53 -20 -82 -20h-312q-27 0 -82 20q0 -4 2.5 -18.5t2.5 -28.5t-5 -27l-51 -208q-6 -23 -35 -23h-366q-33 0 -23 33zM377 1817.5 q6 13.5 24 13.5h283q25 0 41 -25l184 -262q8 -12 1 -20t-21 -8h-193q-20 0 -37 16l-276 260q-12 12 -6 25.5zM555 582q63 18 92 18h158q27 0 90 -18q-33 45 -43 73l-96 316q-8 29 -4 59.5t14 46.5q-20 -20 -33 -20h-14q-12 0 -33 20q10 -16 14.5 -47t-4.5 -59l-96 -316 q-10 -29 -45 -73z" />
<glyph unicode="&#xc1;" horiz-adv-x="1452" d="M12 33l445 1370q6 23 32 22h474q25 0 32 -22l445 -1370q10 -33 -25 -33h-366q-27 0 -33 23l-53 208q-2 12 -2 26.5t1 29t1 18.5q-53 -20 -82 -20h-312q-27 0 -82 20q0 -4 2.5 -18.5t2.5 -28.5t-5 -27l-51 -208q-6 -23 -35 -23h-366q-33 0 -23 33zM545 1524q-6 8 2 20 l184 262q16 25 41 25h283q18 0 24 -13.5t-6 -25.5l-276 -260q-16 -16 -37 -16h-195q-14 0 -20 8zM555 582q63 18 92 18h158q27 0 90 -18q-33 45 -43 73l-96 316q-8 29 -4 59.5t14 46.5q-20 -20 -33 -20h-14q-12 0 -33 20q10 -16 14.5 -47t-4.5 -59l-96 -316q-10 -29 -45 -73 z" />
<glyph unicode="&#xc2;" horiz-adv-x="1452" d="M12 33l445 1370q6 23 32 22h474q25 0 32 -22l445 -1370q10 -33 -25 -33h-366q-27 0 -33 23l-53 208q-2 12 -2 26.5t1 29t1 18.5q-53 -20 -82 -20h-312q-27 0 -82 20q0 -4 2.5 -18.5t2.5 -28.5t-5 -27l-51 -208q-6 -23 -35 -23h-366q-33 0 -23 33zM357.5 1525 q-7.5 9 0.5 19l181 258q20 29 36 29h304q16 0 36 -29l181 -258q8 -10 1 -19t-22 -9h-194q-20 0 -41 18l-105 98q-6 6 -8 13q-2 -6 -8 -13l-105 -98q-20 -18 -41 -18h-194q-14 0 -21.5 9zM555 582q63 18 92 18h158q27 0 90 -18q-33 45 -43 73l-96 316q-8 29 -4 59.5t14 46.5 q-20 -20 -33 -20h-14q-12 0 -33 20q10 -16 14.5 -47t-4.5 -59l-96 -316q-10 -29 -45 -73z" />
<glyph unicode="&#xc3;" horiz-adv-x="1452" d="M12 33l445 1370q6 23 32 22h474q25 0 32 -22l445 -1370q10 -33 -25 -33h-366q-27 0 -33 23l-53 208q-2 12 -2 26.5t1 29t1 18.5q-53 -20 -82 -20h-312q-27 0 -82 20q0 -4 2.5 -18.5t2.5 -28.5t-5 -27l-51 -208q-6 -23 -35 -23h-366q-33 0 -23 33zM387 1559 q20 119 82.5 180t144.5 61q70 0 144 -61q2 -2 10 -8.5t10 -7.5t8.5 -5t8.5 -5t6 -4t7 -4t7 -2t8 -1h11q41 0 55 43q8 27 31 27h118q33 0 29 -31q-20 -119 -83.5 -179.5t-143.5 -60.5q-70 0 -144 60q-4 2 -11 8t-9 7t-8 6t-8.5 6l-7.5 3t-7 3t-6 2t-9 1h-9q-41 0 -56 -43 q-8 -25 -30 -24h-119q-33 0 -29 29zM555 582q63 18 92 18h158q27 0 90 -18q-33 45 -43 73l-96 316q-8 29 -4 59.5t14 46.5q-20 -20 -33 -20h-14q-12 0 -33 20q10 -16 14.5 -47t-4.5 -59l-96 -316q-10 -29 -45 -73z" />
<glyph unicode="&#xc4;" horiz-adv-x="1452" d="M12 33l445 1370q6 23 32 22h474q25 0 32 -22l445 -1370q10 -33 -25 -33h-366q-27 0 -33 23l-53 208q-2 12 -2 26.5t1 29t1 18.5q-53 -20 -82 -20h-312q-27 0 -82 20q0 -4 2.5 -18.5t2.5 -28.5t-5 -27l-51 -208q-6 -23 -35 -23h-366q-33 0 -23 33zM326 1542v211 q0 35 36 35h236q37 0 37 -35v-211q0 -35 -37 -35h-236q-37 0 -36 35zM555 582q63 18 92 18h158q27 0 90 -18q-33 45 -43 73l-96 316q-8 29 -4 59.5t14 46.5q-20 -20 -33 -20h-14q-12 0 -33 20q10 -16 14.5 -47t-4.5 -59l-96 -316q-10 -29 -45 -73zM813 1542v211q0 35 37 35 h235q37 0 37 -35v-211q0 -35 -37 -35h-235q-37 0 -37 35z" />
<glyph unicode="&#xc5;" horiz-adv-x="1452" d="M12 33l445 1370q6 18 24 22q-59 72 -59 158v23q0 109 87 190.5t208 81.5h12q121 0 209 -82t88 -190v-23q0 -84 -57 -158q20 -2 26 -22l445 -1370q10 -33 -25 -33h-366q-27 0 -33 23l-53 208q-2 12 -2 26.5t1 29t1 18.5q-53 -20 -82 -20h-312q-27 0 -82 20q0 -4 2.5 -18.5 t2.5 -28.5t-5 -27l-51 -208q-6 -23 -35 -23h-366q-33 0 -23 33zM555 582q63 18 92 18h158q27 0 90 -18q-33 45 -43 73l-96 316q-8 29 -4 59.5t14 46.5q-20 -20 -33 -20h-14q-12 0 -33 20q10 -16 14.5 -47t-4.5 -59l-96 -316q-10 -29 -45 -73zM635 1585q0 -39 25.5 -65.5 t60.5 -26.5h4q35 0 60.5 26.5t25.5 65.5v10q0 37 -25.5 65t-60.5 28h-4q-35 0 -60.5 -28t-25.5 -65v-10z" />
<glyph unicode="&#xc6;" horiz-adv-x="1972" d="M35 33l682 1370q12 23 37 22h1101q29 0 29 -28v-301q0 -29 -29 -29h-397q-18 0 -37.5 8t-29.5 17l-11 8q20 -37 21 -62v-116q0 -12 -5 -25.5t-10 -24.5l-6 -8q4 4 11.5 9.5t28 13.5t38.5 6h344q29 0 29 -29v-256q0 -29 -29 -28h-344q-18 0 -37.5 8t-29.5 16l-11 8 q20 -37 21 -61v-164q0 -12 -5 -27.5t-10 -23.5l-6 -10q39 31 78 30h430q29 0 29 -28v-299q0 -29 -29 -29h-850q-27 0 -26 23l4 208q0 12 4 26.5t10 29t8 18.5q-61 -20 -88 -20h-315q-27 0 -78 20q0 -4 -1 -18.5t-3 -28.5t-6 -27l-90 -208q-10 -23 -37 -23h-367q-35 0 -18 33 zM678 582q68 18 94 18h182q27 0 84 -18q-20 47 -20 73l4 316q0 25 13.5 57.5t27.5 48.5q-27 -20 -37 -20h-127q-8 0 -27 20q8 -14 7.5 -48t-11.5 -58l-135 -316q-12 -27 -55 -73z" />
<glyph unicode="&#xc7;" horiz-adv-x="1208" d="M72 418v588q0 178 127 307t299 129h245q172 0 299 -129t127 -307v-70q0 -29 -28 -29h-350q-31 0 -31 29v31q0 70 -27.5 94t-85.5 24h-55q-57 0 -85 -24.5t-28 -93.5v-510q2 -68 29 -92.5t84 -24.5h57q59 0 86 24.5t27 92.5v26q0 29 29 29h350q29 0 28 -29v-65 q0 -178 -125.5 -304t-298.5 -126l-36 -54h47q72 0 122 -49t50 -118v-50q0 -70 -50.5 -123t-121.5 -53h-258q-29 0 -29 29v100q0 29 29 29h164q14 0 24 3t15.5 6t8.5 11.5t3 11.5v14v15v6.5v9.5t-3 10t-8.5 9t-15.5 6t-24 2h-183q-14 0 -24.5 9.5t-3.5 19.5l92 156h-45 q-172 0 -299 126t-127 304z" />
<glyph unicode="&#xc8;" horiz-adv-x="1136" d="M119 37v1352q0 37 37 36h864q29 0 29 -28v-301q0 -29 -29 -29h-438q-16 0 -36 8t-30 17l-12 8q20 -37 20 -62v-116q0 -12 -5 -25.5t-9 -24.5l-6 -8q39 29 78 29h385q29 0 28 -29v-256q0 -29 -28 -28h-385q-16 0 -36 8t-30 16l-12 8q20 -37 20 -61v-164q0 -12 -5 -27.5 t-9 -23.5l-6 -10q39 31 78 30h471q31 0 30 -28v-299q0 -29 -30 -29h-897q-37 0 -37 37zM245 1825.5q7 13.5 23 13.5h283q27 0 41 -22l184 -265q8 -10 2 -19t-20 -9h-193q-23 0 -39 16l-276 260q-12 12 -5 25.5z" />
<glyph unicode="&#xc9;" horiz-adv-x="1136" d="M119 37v1352q0 37 37 36h864q29 0 29 -28v-301q0 -29 -29 -29h-438q-16 0 -36 8t-30 17l-12 8q20 -37 20 -62v-116q0 -12 -5 -25.5t-9 -24.5l-6 -8q39 29 78 29h385q29 0 28 -29v-256q0 -29 -28 -28h-385q-16 0 -36 8t-30 16l-12 8q20 -37 20 -61v-164q0 -12 -5 -27.5 t-9 -23.5l-6 -10q39 31 78 30h471q31 0 30 -28v-299q0 -29 -30 -29h-897q-37 0 -37 37zM414 1533q-6 9 0 19l184 265q16 23 41 22h285q16 0 22 -13.5t-6 -25.5l-276 -260q-16 -16 -37 -16h-193q-14 0 -20 9z" />
<glyph unicode="&#xca;" horiz-adv-x="1136" d="M119 37v1352q0 37 37 36h864q31 0 31 -28v-301q0 -29 -31 -29h-438q-16 0 -36 8t-30 17l-12 8q20 -37 20 -62v-116q0 -12 -5 -25.5t-9 -24.5l-6 -8q39 29 78 29h385q29 0 28 -29v-256q0 -29 -28 -28h-385q-16 0 -36 8t-30 16l-12 8q20 -37 20 -61v-164q0 -12 -5 -27.5 t-9 -23.5l-6 -10q39 31 78 30h471q31 0 30 -28v-299q0 -29 -30 -29h-897q-37 0 -37 37zM225.5 1534q-6.5 8 1.5 20l181 256q20 29 36 29h301q18 0 37 -29l181 -256q8 -12 1.5 -20t-20.5 -8h-196q-20 0 -39 18l-105 96q-6 6 -10 13q-2 -6 -8 -13l-105 -96q-18 -18 -39 -18 h-196q-14 0 -20.5 8z" />
<glyph unicode="&#xcb;" horiz-adv-x="1136" d="M119 37v1352q0 37 37 36h864q31 0 31 -28v-301q0 -29 -31 -29h-438q-16 0 -36 8t-30 17l-12 8q20 -37 20 -62v-116q0 -12 -5 -25.5t-9 -24.5l-6 -8q39 29 78 29h385q29 0 28 -29v-256q0 -29 -28 -28h-385q-16 0 -36 8t-30 16l-12 8q20 -37 20 -61v-164q0 -12 -5 -27.5 t-9 -23.5l-6 -10q39 31 78 30h471q31 0 30 -28v-299q0 -29 -30 -29h-897q-37 0 -37 37zM195 1552v209q0 35 36 35h236q37 0 37 -35v-209q0 -37 -37 -36h-236q-37 0 -36 36zM682 1552v209q0 35 37 35h235q37 0 37 -35v-209q0 -37 -37 -36h-235q-37 0 -37 36z" />
<glyph unicode="&#xcc;" horiz-adv-x="641" d="M-40 1825.5q7 13.5 24 13.5h282q25 0 41 -22l185 -265q8 -10 1.5 -19t-20.5 -9h-194q-20 0 -37 16l-277 260q-12 12 -5 25.5zM119 29v1368q0 12 9 20t22 8h342q14 0 23 -8t9 -20v-1368q0 -12 -9 -20.5t-23 -8.5h-342q-12 0 -21.5 8t-9.5 21z" />
<glyph unicode="&#xcd;" horiz-adv-x="641" d="M119 29v1368q0 12 9 20t22 8h342q14 0 23 -8t9 -20v-1368q0 -12 -9 -20.5t-23 -8.5h-342q-12 0 -21.5 8t-9.5 21zM128.5 1533q-7.5 9 0.5 19l184 265q16 23 41 22h283q18 0 24.5 -13.5t-6.5 -25.5l-276 -260q-16 -16 -37 -16h-192q-14 0 -21.5 9z" />
<glyph unicode="&#xce;" horiz-adv-x="641" d="M-59.5 1534q-6.5 8 2.5 20l180 256q18 29 37 29h301q16 0 37 -29l180 -256q8 -12 2 -20t-21 -8h-196q-20 0 -39 18l-105 96q-6 6 -10 13q-2 -6 -8 -13l-104 -96q-18 -18 -39 -18h-197q-14 0 -20.5 8zM119 29v1368q0 12 9 20t22 8h342q14 0 23 -8t9 -20v-1368 q0 -12 -9 -20.5t-23 -8.5h-342q-12 0 -21.5 8t-9.5 21z" />
<glyph unicode="&#xcf;" horiz-adv-x="641" d="M-90 1552v209q0 35 37 35h235q37 0 37 -35v-209q0 -37 -37 -36h-235q-37 0 -37 36zM119 29v1368q0 12 9 20t22 8h342q14 0 23 -8t9 -20v-1368q0 -12 -9 -20.5t-23 -8.5h-342q-12 0 -21.5 8t-9.5 21zM395 1552v209q0 35 37 35h238q37 0 37 -35v-209q0 -37 -37 -36h-238 q-37 0 -37 36z" />
<glyph unicode="&#xd0;" horiz-adv-x="1284" d="M119 29v1368q0 29 28 28h629q184 0 314.5 -128t130.5 -308v-553q0 -180 -130 -308t-315 -128h-629q-29 0 -28 29zM496 612q29 -41 28 -75v-152q0 -10 -5 -24.5t-9 -22.5l-6 -8q39 29 78 28h123q106 0 106 84v541q0 84 -106 84h-123q-16 0 -36 8t-32 17l-10 8 q20 -45 20 -70v-115q0 -33 -26 -84l9 5q9 4 19.5 9t23.5 8t25 3h109q29 0 29 -29v-211q0 -29 -29 -28h-111q-14 0 -30.5 5t-30.5 12t-16 7z" />
<glyph unicode="&#xd1;" horiz-adv-x="1419" d="M119 37v1352q0 37 37 36h319q29 0 43 -24l356 -623l48 -78q-27 78 -27 101v588q0 37 37 36h330q39 0 38 -36v-1352q0 -37 -36 -37h-295q-29 0 -43 25l-381 682l-49 77q29 -78 28 -98v-649q0 -37 -37 -37h-331q-37 0 -37 37zM385 1567q18 119 81.5 180t143.5 61 q70 0 144 -59q4 -4 12 -9t10 -7t7 -6.5t7.5 -5.5t7.5 -4t8 -3t7 -2t8 -2h8q41 0 56 43q8 27 30 27h121q33 0 27 -31q-18 -117 -81.5 -178.5t-143.5 -61.5q-70 0 -144 60q-4 2 -12 8t-10 8t-7.5 6t-7.5 5l-7 3.5t-8 3.5t-7 2t-8 1h-9q-41 0 -55 -41q-8 -27 -31 -27h-120 q-33 0 -27 29z" />
<glyph unicode="&#xd2;" horiz-adv-x="1269" d="M72 418v588q0 178 127 307t299 129h274q172 0 299 -129t127 -307v-588q0 -178 -127 -304t-299 -126h-274q-172 0 -299 126t-127 304zM313 1825.5q6 13.5 23 13.5h285q25 0 41 -22l184 -265q6 -10 0 -19t-21 -9h-192q-20 0 -39 16l-277 260q-10 12 -4 25.5zM479 457 q0 -68 28 -92.5t85 -24.5h86q57 0 85 24.5t28 92.5v510q0 70 -28 94t-85 24h-86q-57 0 -85 -24.5t-28 -93.5v-510z" />
<glyph unicode="&#xd3;" horiz-adv-x="1269" d="M72 418v588q0 178 127 307t299 129h274q172 0 299 -129t127 -307v-588q0 -178 -127 -304t-299 -126h-274q-172 0 -299 126t-127 304zM479 457q0 -68 28 -92.5t85 -24.5h86q57 0 85 24.5t28 92.5v510q0 70 -28 94t-85 24h-86q-57 0 -85 -24.5t-28 -93.5v-510zM481 1552 l185 265q16 23 41 22h284q16 0 22.5 -13.5t-3.5 -25.5l-277 -260q-18 -16 -39 -16h-192q-14 0 -20.5 9t-0.5 19z" />
<glyph unicode="&#xd4;" horiz-adv-x="1269" d="M72 418v588q0 178 127 307t299 129h274q172 0 299 -129t127 -307v-588q0 -178 -127 -304t-299 -126h-274q-172 0 -299 126t-127 304zM293 1534q-6 8 2 20l180 256q20 29 37 29h301q18 0 39 -29l180 -256q6 -12 0 -20t-20 -8h-197q-20 0 -39 18l-104 96q-6 6 -8 13 q-4 -6 -11 -13l-104 -96q-18 -18 -39 -18h-197q-14 0 -20 8zM479 457q0 -68 28 -92.5t85 -24.5h86q57 0 85 24.5t28 92.5v510q0 70 -28 94t-85 24h-86q-57 0 -85 -24.5t-28 -93.5v-510z" />
<glyph unicode="&#xd5;" horiz-adv-x="1269" d="M72 418v588q0 178 127 307t299 129h274q172 0 299 -129t127 -307v-588q0 -178 -127 -304t-299 -126h-274q-172 0 -299 126t-127 304zM324 1567q20 119 82.5 180t142.5 61q70 0 145 -59q2 -4 10.5 -9t10.5 -7t7 -6.5t7 -5.5t7 -4t8.5 -3t7.5 -2t8 -2h10q39 0 53 43 q10 27 33 27h119q33 0 29 -31q-20 -117 -84 -178.5t-144 -61.5q-70 0 -143 60q-4 2 -11.5 8t-9.5 8t-8 6t-8 5l-7 3.5l-7 3.5t-7.5 2t-9.5 1h-8q-41 0 -55 -41q-8 -27 -31 -27h-121q-33 0 -26 29zM479 457q0 -68 28 -92.5t85 -24.5h86q57 0 85 24.5t28 92.5v510q0 70 -28 94 t-85 24h-86q-57 0 -85 -24.5t-28 -93.5v-510z" />
<glyph unicode="&#xd6;" horiz-adv-x="1269" d="M72 418v588q0 178 127 307t299 129h274q172 0 299 -129t127 -307v-588q0 -178 -127 -304t-299 -126h-274q-172 0 -299 126t-127 304zM262 1552v209q0 35 37 35h236q37 0 36 -35v-209q0 -37 -36 -36h-236q-37 0 -37 36zM479 457q0 -68 28 -92.5t85 -24.5h86q57 0 85 24.5 t28 92.5v510q0 70 -28 94t-85 24h-86q-57 0 -85 -24.5t-28 -93.5v-510zM750 1552v209q0 35 36 35h236q37 0 37 -35v-209q0 -37 -37 -36h-236q-37 0 -36 36z" />
<glyph unicode="&#xd7;" horiz-adv-x="942" d="M92 444q-20 20 0 43l187 197l-187 199q-20 23 0 43l150 159q20 20 41 0l188 -198l186 198q20 20 43 0l150 -159q20 -20 0 -43l-188 -199l188 -197q20 -23 0 -43l-150 -159q-23 -20 -43 0l-186 198l-188 -198q-20 -20 -41 0z" />
<glyph unicode="&#xd8;" horiz-adv-x="1269" d="M72 418v588q0 178 127 307t299 129h157q14 0 28.5 -2t25 -6t17.5 -7.5t14 -7.5l8 -4l-4 9q-5 10 -8 19t-2 26.5t5 33.5l41 123q14 25 45 25h209q37 0 37 -37l-59 -176q-6 -18 -14.5 -35t-14.5 -26t-13 -17l-7 -8q31 6 48.5 2.5t37.5 -21.5q150 -131 149 -327v-588 q0 -178 -127 -304t-299 -126h-143q-29 0 -54.5 11t-35.5 19l4 -18t5 -33.5t-5 -38.5l-45 -129q-14 -25 -45 -24h-183q-39 0 -39 37l62 180q4 14 11 26.5t12.5 19.5t11.5 14t8 7q-29 -4 -52.5 -1t-43.5 20q-78 59 -123 148t-45 192zM479 457q0 -68 28 -92.5t85 -24.5h86 q57 0 85 24.5t28 92.5v510q0 70 -28 94t-85 24h-86q-57 0 -85 -24.5t-28 -93.5v-510z" />
<glyph unicode="&#xd9;" horiz-adv-x="1310" d="M92 424v965q0 37 37 36h336q37 0 37 -36l-2 -932q0 -68 27.5 -92.5t84.5 -24.5h86q57 0 85 24.5t28 92.5l-2 932q0 37 37 36h336q37 0 37 -36v-965q0 -180 -130.5 -308t-314.5 -128h-237q-184 0 -314.5 128t-130.5 308zM307 1825.5q6 13.5 25 13.5h282q25 0 41 -22 l185 -265q8 -10 2 -19t-21 -9h-194q-20 0 -37 16l-277 260q-12 12 -6 25.5z" />
<glyph unicode="&#xda;" horiz-adv-x="1310" d="M92 424v965q0 37 37 36h336q37 0 37 -36l-2 -932q0 -68 27.5 -92.5t84.5 -24.5h86q57 0 85 24.5t28 92.5l-2 932q0 37 37 36h336q37 0 37 -36v-965q0 -180 -130.5 -308t-314.5 -128h-237q-184 0 -314.5 128t-130.5 308zM476.5 1533q-7.5 9 0.5 19l185 265q16 23 40 22 h283q18 0 24.5 -13.5t-5.5 -25.5l-277 -260q-16 -16 -37 -16h-192q-14 0 -21.5 9z" />
<glyph unicode="&#xdb;" horiz-adv-x="1310" d="M92 424v965q0 37 37 36h336q37 0 37 -36l-2 -932q0 -68 27.5 -92.5t84.5 -24.5h86q57 0 85 24.5t28 92.5l-2 932q0 37 37 36h336q37 0 37 -36v-965q0 -180 -130.5 -308t-314.5 -128h-237q-184 0 -314.5 128t-130.5 308zM289 1534q-6 8 2 20l180 256q18 29 37 29h301 q16 0 37 -29l180 -256q8 -12 2 -20t-20 -8h-197q-20 0 -39 18l-104 96q-6 6 -11 13q-2 -6 -8 -13l-104 -96q-18 -18 -39 -18h-197q-14 0 -20 8z" />
<glyph unicode="&#xdc;" horiz-adv-x="1310" d="M92 424v965q0 37 37 36h336q37 0 37 -36l-2 -932q0 -68 27.5 -92.5t84.5 -24.5h86q57 0 85 24.5t28 92.5l-2 932q0 37 37 36h336q37 0 37 -36v-965q0 -180 -130.5 -308t-314.5 -128h-237q-184 0 -314.5 128t-130.5 308zM256 1552v209q0 35 37 35h237q37 0 37 -35v-209 q0 -37 -37 -36h-237q-37 0 -37 36zM743 1552v209q0 35 37 35h238q37 0 37 -35v-209q0 -37 -37 -36h-238q-37 0 -37 36z" />
<glyph unicode="&#xdd;" d="M-92 1412.5q8 12.5 29 12.5h354q31 0 43 -26l201 -447q6 -14 13 -41.5t9 -48.5l4 -20q12 76 27 108l200 449q12 27 43 26h355q20 0 28.5 -12t-2.5 -31l-426 -841q-2 -4 -6 -10.5t-8 -10.5l-8 -8l-6 -6l-2 -2q12 -20 12 -37v-430q0 -37 -37 -37h-340q-37 0 -37 37v430 q0 8 3 16.5t5 14.5l5 6q-23 20 -33 37l-424 841q-10 18 -2 30.5zM387 1552l184 265q16 23 41 22h285q16 0 22.5 -13.5t-4.5 -25.5l-276 -260q-18 -16 -39 -16h-192q-14 0 -20.5 9t-0.5 19z" />
<glyph unicode="&#xde;" horiz-adv-x="1241" d="M119 37v1352q0 37 37 36h331q39 0 39 -36v-213q0 -18 -4 -33q23 6 53 6h224q184 0 313 -121t129 -299v-125q0 -178 -129 -298t-313 -120h-201q-49 0 -78 11q6 -23 6 -56v-104q0 -37 -39 -37h-331q-37 0 -37 37zM520 518q29 8 78 8h125q108 0 108 86v93q0 86 -108 86h-125 q-47 0 -78 10q4 -23 4 -56v-174q0 -31 -4 -53z" />
<glyph unicode="&#xdf;" horiz-adv-x="1300" d="M119 43v1151q0 178 123 297t307 119h252q184 0 307 -120t123 -300v-100q0 -66 -25.5 -137.5t-58.5 -96.5q0 -2 -2 -2l4 -4q37 -37 71.5 -104.5t34.5 -129.5v-196q0 -178 -129 -299t-315 -121h-98q-37 0 -37 43v266q0 12 9 21.5t22 9.5h10q106 0 106 84v201q0 84 -106 84 h-19q-27 0 -26 28v213q0 12 8 19.5t18 7.5h19q106 0 106 84v125q0 84 -106 84h-84q-106 0 -107 -84l-10 -1139q0 -47 -41 -47h-313q-20 0 -31.5 11.5t-11.5 31.5z" />
<glyph unicode="&#xe0;" horiz-adv-x="1144" d="M27 311v80q0 150 106.5 229.5t300.5 79.5h219q10 0 23.5 -4t21.5 -8l9 -4q-16 31 -17 55v25q0 47 -53 47l-154 -2q-27 0 -26 -23v-12q0 -23 -25 -22h-323q-12 0 -21.5 9t-9.5 21v23q0 133 104.5 237.5t245.5 104.5l283 2q150 0 261 -119t111 -291v-710q0 -12 -9 -20.5 t-21 -8.5h-289q-37 0 -37 33v2q0 4 7 23.5t16 35.5l8 15q-29 -27 -39 -39q-29 -33 -98.5 -57.5t-126.5 -24.5h-107q-143 0 -251.5 90t-108.5 233zM219 1544.5q6 14.5 25 14.5h282q25 0 41 -25l185 -281q8 -12 0.5 -20t-21.5 -8h-192q-20 0 -37 16l-277 277q-12 12 -6 26.5z M418 385q0 -23 3 -33t22.5 -18t60.5 -8h135q29 0 40 11t11 36v41q0 10 4 22.5t6 18.5l5 8q-29 -14 -52 -14h-184q-23 0 -37 -14.5t-14 -35.5v-14z" />
<glyph unicode="&#xe1;" horiz-adv-x="1144" d="M27 311v80q0 150 106.5 229.5t300.5 79.5h219q10 0 23.5 -4t21.5 -8l9 -4q-16 31 -17 55v25q0 47 -53 47l-154 -2q-27 0 -26 -23v-12q0 -23 -25 -22h-323q-12 0 -21.5 9t-9.5 21v23q0 133 104.5 237.5t245.5 106.5h283q150 0 261 -119t111 -291v-710q0 -12 -9 -20.5 t-21 -8.5h-289q-37 0 -37 33v2q0 4 7 23.5t16 35.5l8 15q-29 -27 -39 -39q-29 -33 -98.5 -57.5t-126.5 -24.5h-107q-143 0 -251.5 90t-108.5 233zM387.5 1233q-6.5 8 1.5 22l184 279q16 25 41 25h283q16 0 23.5 -14.5t-5.5 -26.5l-276 -277q-16 -16 -37 -16h-194 q-14 0 -20.5 8zM418 385q0 -23 3 -33t22.5 -18t60.5 -8h135q29 0 40 11t11 36v41q0 10 4 22.5t6 18.5l5 8q-29 -14 -52 -14h-184q-23 0 -37 -14.5t-14 -35.5v-14z" />
<glyph unicode="&#xe2;" horiz-adv-x="1144" d="M27 311v80q0 150 106.5 229.5t300.5 79.5h219q10 0 23.5 -4t21.5 -8l9 -4q-16 31 -17 55v25q0 47 -53 47l-154 -2q-27 0 -26 -23v-12q0 -23 -25 -22h-323q-12 0 -21.5 9t-9.5 21v23q0 133 104.5 237.5t245.5 106.5h283q150 0 261 -119t111 -291v-710q0 -12 -9 -20.5 t-21 -8.5h-289q-37 0 -37 33v2q0 4 7 23.5t16 35.5l8 15q-29 -27 -39 -39q-29 -33 -98.5 -57.5t-126.5 -24.5h-107q-143 0 -251.5 90t-108.5 233zM199 1234q-6 9 2 21l180 273q20 31 37 31h303q16 0 37 -31l180 -273q8 -12 1 -21t-21 -9h-197q-18 0 -39 20l-104 105 q-6 6 -9 10q-2 -4 -8 -10l-104 -105q-20 -20 -41 -20h-195q-16 0 -22 9zM418 385q0 -23 3 -33t22.5 -18t60.5 -8h135q29 0 40 11t11 36v41q0 10 4 22.5t6 18.5l5 8q-29 -14 -52 -14h-184q-23 0 -37 -14.5t-14 -35.5v-14z" />
<glyph unicode="&#xe3;" horiz-adv-x="1144" d="M27 311v80q0 150 106.5 229.5t300.5 79.5h219q10 0 23.5 -4t21.5 -8l9 -4q-16 31 -17 55v25q0 47 -53 47l-154 -2q-27 0 -26 -23v-12q0 -23 -25 -22h-323q-12 0 -21.5 9t-9.5 21v23q0 133 104.5 237.5t245.5 104.5l283 2q150 0 261 -119t111 -291v-710q0 -12 -9 -20.5 t-21 -8.5h-289q-37 0 -37 33v2q0 4 7 23.5t16 35.5l8 15q-29 -27 -39 -39q-29 -33 -98.5 -57.5t-126.5 -24.5h-107q-143 0 -251.5 90t-108.5 233zM229 1270q20 125 83 190.5t145 65.5q70 0 143 -64q2 -2 10 -9t10.5 -8t8.5 -6t8 -6t6 -4.5t7 -3.5t7.5 -1t8.5 -2t10 -1 q41 0 55 47q8 27 31 27h119q33 0 28 -31q-20 -127 -83.5 -191.5t-143.5 -64.5q-70 0 -143 64q-4 2 -11.5 8t-9.5 8t-8 6t-8 6.5t-7.5 4.5t-7.5 3t-7 2t-9 1h-8q-41 0 -55 -45q-8 -27 -31 -27h-119q-33 0 -29 31zM418 385q0 -23 3 -33t22.5 -18t60.5 -8h135q29 0 40 11t11 36 v41q0 10 4 22.5t6 18.5l5 8q-29 -14 -52 -14h-184q-23 0 -37 -14.5t-14 -35.5v-14z" />
<glyph unicode="&#xe4;" horiz-adv-x="1144" d="M27 311v80q0 150 106.5 229.5t300.5 79.5h219q10 0 23.5 -4t21.5 -8l9 -4q-16 31 -17 55v25q0 47 -53 47l-154 -2q-27 0 -26 -23v-12q0 -23 -25 -22h-323q-12 0 -21.5 9t-9.5 21v23q0 133 104.5 237.5t245.5 104.5l283 2q150 0 261 -119t111 -291v-710q0 -12 -9 -20.5 t-21 -8.5h-289q-37 0 -37 33v2q0 4 7 23.5t16 35.5l8 15q-29 -27 -39 -39q-29 -33 -98.5 -57.5t-126.5 -24.5h-107q-143 0 -251.5 90t-108.5 233zM168 1253v224q0 37 37 36h235q37 0 37 -36v-224q0 -39 -37 -39h-235q-37 0 -37 39zM418 385q0 -23 3 -33t22.5 -18t60.5 -8 h135q29 0 40 11t11 36v41q0 10 4 22.5t6 18.5l5 8q-29 -14 -52 -14h-184q-23 0 -37 -14.5t-14 -35.5v-14zM655 1253v224q0 37 37 36h236q37 0 37 -36v-224q0 -39 -37 -39h-236q-37 0 -37 39z" />
<glyph unicode="&#xe5;" horiz-adv-x="1144" d="M27 311v80q0 150 106.5 229.5t300.5 79.5h219q10 0 23.5 -4t21.5 -8l9 -4q-16 31 -17 55v25q0 47 -53 47l-154 -2q-27 0 -26 -23v-12q0 -23 -25 -22h-323q-12 0 -21.5 9t-9.5 21v23q0 102 66.5 193.5t166.5 127.5q-29 59 -28 123v23q0 115 87 203t208 88h12 q121 0 209 -88.5t88 -202.5v-23q0 -70 -35 -133q102 -45 166.5 -147.5t64.5 -229.5v-710q0 -12 -9 -20.5t-21 -8.5h-289q-37 0 -37 33v2q0 4 7 23.5t16 35.5l8 15q-29 -27 -39 -39q-29 -33 -98.5 -57.5t-126.5 -24.5h-107q-143 0 -251.5 90t-108.5 233zM418 385q0 -23 3 -33 t22.5 -18t60.5 -8h135q29 0 40 11t11 36v41q0 10 4 22.5t6 18.5l5 8q-29 -14 -52 -14h-184q-23 0 -37 -14.5t-14 -35.5v-14zM496 1251q0 -41 25.5 -69.5t60.5 -28.5h4q35 0 59.5 28.5t24.5 69.5v11q0 41 -24.5 69.5t-59.5 28.5h-4q-35 0 -60.5 -28.5t-25.5 -69.5v-11z" />
<glyph unicode="&#xe6;" horiz-adv-x="1781" d="M27 311v80q0 150 106.5 229.5t300.5 79.5h219q10 0 23.5 -4t21.5 -8l9 -4q-2 4 -5.5 10t-7.5 20.5t-4 24.5v21q0 47 -53 47l-154 -2q-27 0 -26 -23v-8q0 -23 -25 -22h-323q-12 0 -21.5 9t-9.5 21v23q0 133 104.5 237.5t245.5 106.5h283q106 0 196 -68q106 68 230 68h168 q186 0 314 -139.5t128 -335.5v-197q0 -31 -29 -31h-573q-14 0 -27.5 2.5t-22 4.5t-14.5 4t-10 4l-2 2q2 -2 4 -7t7 -16.5t5 -17.5v-8q-2 -23 2.5 -39.5t21.5 -30.5t48 -14h143q31 0 35 18l2 8q4 23 29 23l330 -2q31 0 26 -31l-2 -4q-27 -145 -134 -250.5t-247 -105.5h-163 q-145 0 -273 86q-31 -35 -100.5 -59.5t-124.5 -24.5h-291q-143 0 -251.5 90t-108.5 233zM418 385q0 -23 3 -33t22.5 -18t60.5 -8h135q29 0 40 11t11 36v41q0 10 4 22.5t6 18.5l5 8q-29 -14 -52 -14h-184q-23 0 -37 -14.5t-14 -35.5v-14zM1067 686q25 16 78 16h151 q25 0 44.5 -4t25.5 -8l8 -4q-16 31 -16 55v17q0 23 -15.5 35t-39.5 12h-164q-25 0 -39.5 -12.5t-14.5 -34.5v-17q0 -10 -5 -24.5t-9 -22.5z" />
<glyph unicode="&#xe7;" horiz-adv-x="1110" d="M35 451v233q0 193 130 329t314 136h166q102 0 189.5 -43t139.5 -108.5t81.5 -136t29.5 -132.5v-18q0 -12 -9 -21.5t-21 -9.5h-330q-12 0 -21.5 9t-9.5 22v12q0 33 -24.5 57.5t-83.5 24.5h-45q-59 0 -85 -25.5t-26 -101.5v-223q0 -74 25.5 -100.5t85.5 -26.5h45 q59 0 83.5 25.5t24.5 58.5v10q0 12 9.5 21.5t21.5 9.5h330q12 0 21 -9.5t9 -21.5v-16q0 -59 -27.5 -128t-77.5 -133.5t-132 -108.5t-178 -50l-35 -56h47q70 0 120 -52t50 -128v-51q0 -74 -50 -130t-120 -56h-260q-29 0 -29 30v107q0 31 29 31h164q14 0 24.5 3t15.5 6t8 11 t4 12t0 16.5t-1 14.5q2 4 1 8t-1 9.5t-3 10.5t-8 10t-15.5 7t-24.5 2h-180q-16 0 -26.5 9.5t-4.5 21.5l92 164q-180 6 -306 140t-126 325z" />
<glyph unicode="&#xe8;" d="M35 444v240q0 193 130 329t314 136h168q188 0 315.5 -139.5t127.5 -335.5v-197q0 -31 -29 -31h-574q-23 0 -41 4.5t-26 8.5l-8 4q2 -2 5 -7t7 -16.5t4 -17.5v-12q0 -25 3 -41.5t20.5 -30.5t48.5 -14h143q33 0 35 18l2 14q4 23 31 23l327 -2q33 0 27 -31v-4 q-29 -145 -136.5 -250.5t-246.5 -105.5h-203q-184 0 -314 134t-130 324zM225 1544.5q6 14.5 23 14.5h284q25 0 41 -25l185 -281q6 -12 0 -20t-21 -8h-192q-20 0 -37 16l-277 277q-12 12 -6 26.5zM412 686q25 16 75 16h154q14 0 27.5 -2t21.5 -4t15.5 -5t9.5 -5h2 q-16 31 -17 55v21q0 23 -15 36t-38 13h-166q-23 0 -38 -13.5t-15 -35.5v-21q0 -10 -4 -24.5t-8 -22.5z" />
<glyph unicode="&#xe9;" d="M35 444v240q0 193 130 329t314 136h168q188 0 315.5 -139.5t127.5 -335.5v-197q0 -31 -29 -31h-574q-23 0 -41 4.5t-26 8.5l-8 4q2 -2 5 -7t7 -16.5t4 -17.5v-12q0 -25 3 -41.5t20.5 -30.5t48.5 -14h143q33 0 35 18l2 14q4 23 31 23l327 -2q33 0 27 -31v-4 q-29 -145 -136.5 -250.5t-246.5 -105.5h-203q-184 0 -314 134t-130 324zM393.5 1233q-6.5 8 1.5 22l185 279q14 25 41 25h282q16 0 23.5 -14.5t-4.5 -26.5l-277 -277q-16 -16 -39 -16h-192q-14 0 -20.5 8zM412 686q25 16 75 16h154q14 0 27.5 -2t21.5 -4t15.5 -5t9.5 -5h2 q-16 31 -17 55v21q0 23 -15 36t-38 13h-166q-23 0 -38 -13.5t-15 -35.5v-21q0 -10 -4 -24.5t-8 -22.5z" />
<glyph unicode="&#xea;" d="M35 444v240q0 193 130 329t314 136h168q188 0 315.5 -139.5t127.5 -335.5v-197q0 -31 -29 -31h-574q-23 0 -41 4.5t-26 8.5l-8 4q2 -2 5 -7t7 -16.5t4 -17.5v-12q0 -25 3 -41.5t20.5 -30.5t48.5 -14h143q33 0 35 18l2 14q4 23 31 23l327 -2q33 0 27 -31v-4 q-29 -145 -136.5 -250.5t-246.5 -105.5h-203q-184 0 -314 134t-130 324zM205 1234q-6 9 2 21l180 273q20 31 37 31h303q16 0 37 -31l180 -273q6 -12 0 -21t-20 -9h-197q-18 0 -39 20l-104 105q-6 6 -9 10q-2 -4 -10 -10l-102 -105q-20 -20 -41 -20h-195q-16 0 -22 9z M412 686q25 16 75 16h154q14 0 27.5 -2t21.5 -4t15.5 -5t9.5 -5h2q-16 31 -17 55v21q0 23 -15 36t-38 13h-166q-23 0 -38 -13.5t-15 -35.5v-21q0 -10 -4 -24.5t-8 -22.5z" />
<glyph unicode="&#xeb;" d="M35 444v240q0 193 130 329t314 136h168q188 0 315.5 -139.5t127.5 -335.5v-197q0 -31 -29 -31h-574q-23 0 -41 4.5t-26 8.5l-8 4q2 -2 5 -7t7 -16.5t4 -17.5v-12q0 -25 3 -41.5t20.5 -30.5t48.5 -14h143q33 0 35 18l2 14q4 23 31 23l327 -2q33 0 27 -31v-4 q-29 -145 -136.5 -250.5t-246.5 -105.5h-203q-184 0 -314 134t-130 324zM174 1253v224q0 37 37 36h235q37 0 37 -36v-224q0 -39 -37 -39h-235q-37 0 -37 39zM412 686q25 16 75 16h154q14 0 27.5 -2t21.5 -4t15.5 -5t9.5 -5h2q-16 31 -17 55v21q0 23 -15 36t-38 13h-166 q-23 0 -38 -13.5t-15 -35.5v-21q0 -10 -4 -24.5t-8 -22.5zM662 1253v224q0 37 36 36h236q37 0 37 -36v-224q0 -39 -37 -39h-236q-37 0 -36 39z" />
<glyph unicode="&#xec;" horiz-adv-x="598" d="M-49 1544.5q6 14.5 22 14.5h285q25 0 41 -25l184 -281q6 -12 0 -20t-20 -8h-193q-20 0 -39 16l-276 277q-10 12 -4 26.5zM100 31v1073q0 12 10.5 21.5t22.5 9.5h330q14 0 23.5 -9.5t9.5 -21.5v-1073q0 -12 -9.5 -21.5t-23.5 -9.5h-330q-12 0 -22.5 9t-10.5 22z" />
<glyph unicode="&#xed;" horiz-adv-x="598" d="M100 31v1073q0 12 10.5 21.5t22.5 9.5h330q14 0 23.5 -9.5t9.5 -21.5v-1073q0 -12 -9.5 -21.5t-23.5 -9.5h-330q-12 0 -22.5 9t-10.5 22zM119 1233q-6 8 0 22l184 279q16 25 41 25h285q16 0 22 -14.5t-4 -26.5l-276 -277q-18 -16 -39 -16h-193q-14 0 -20 8z" />
<glyph unicode="&#xee;" horiz-adv-x="598" d="M-69.5 1234q-6.5 9 1.5 21l181 273q20 31 37 31h301q18 0 38 -31l181 -273q6 -12 0 -21t-21 -9h-196q-20 0 -39 20l-105 105q-6 6 -8 10l-10 -10l-103 -105q-20 -20 -41 -20h-196q-14 0 -20.5 9zM100 31v1073q0 12 10.5 21.5t22.5 9.5h330q14 0 23.5 -9.5t9.5 -21.5 v-1073q0 -12 -9.5 -21.5t-23.5 -9.5h-330q-12 0 -22.5 9t-10.5 22z" />
<glyph unicode="&#xef;" horiz-adv-x="598" d="M-100 1253v224q0 37 37 36h235q37 0 37 -36v-224q0 -39 -37 -39h-235q-37 0 -37 39zM100 31v1073q0 12 10.5 21.5t22.5 9.5h330q14 0 23.5 -9.5t9.5 -21.5v-1073q0 -12 -9.5 -21.5t-23.5 -9.5h-330q-12 0 -22.5 9t-10.5 22zM387 1253v224q0 37 37 36h235q37 0 37 -36 v-224q0 -39 -37 -39h-235q-37 0 -37 39z" />
<glyph unicode="&#xf0;" horiz-adv-x="1085" d="M-20 483v43q0 193 129 347.5t297 154.5h110l-43 105l-90 -58q-16 -10 -25.5 -4t-9.5 25v155q0 25 19 37l32 21l-77 186q-6 18 -1 29.5t19 11.5h332q20 0 30 -27l5 -6l90 58q14 10 24 4t10 -25v-156q0 -25 -20 -36l-33 -21l242 -579q49 -109 49 -222v-43q0 -193 -129 -345 t-297 -152h-237q-168 0 -297 152.5t-129 344.5zM369 487q0 -78 29.5 -120.5t82.5 -42.5h86q53 0 83 42.5t30 120.5v35q0 53 -14 90q-27 76 -99 76h-86q-53 0 -82.5 -44t-29.5 -122v-35z" />
<glyph unicode="&#xf1;" horiz-adv-x="1234" d="M100 31v1073q0 12 10.5 21.5t22.5 9.5h289q37 0 37 -31v-2q0 -10 -8.5 -28.5t-14.5 -33.5l-8 -14l19.5 19.5l19.5 19.5q29 33 98.5 57.5t126.5 24.5h74q164 0 280.5 -122t116.5 -310v-684q0 -12 -10 -21.5t-23 -9.5h-329q-14 0 -23.5 9t-9.5 22v653q0 74 -26.5 100.5 t-84.5 26.5h-108q-53 0 -53 -47v-733q0 -12 -9.5 -21.5t-23.5 -9.5h-330q-12 0 -22.5 9t-10.5 22zM309 1270q20 125 84 190.5t144 65.5q70 0 143 -64q4 -2 11 -9t9 -8t8.5 -6t8.5 -6t7 -4.5t7 -3.5t6 -1t8.5 -2t10.5 -1q41 0 55 47q8 27 31 27h119q33 0 28 -31 q-20 -127 -83.5 -191.5t-143.5 -64.5q-70 0 -144 64q-2 2 -10 8t-10 8t-8 6t-8 6.5t-6.5 4.5t-7.5 3t-7 2t-8 1h-10q-41 0 -56 -45q-8 -27 -30 -27h-119q-33 0 -29 31z" />
<glyph unicode="&#xf2;" d="M35 444v240q0 193 130 329t314 136h166q184 0 314.5 -136t130.5 -329v-240q0 -190 -129.5 -324t-311.5 -134h-174q-180 0 -310 134t-130 324zM240 1544.5q6 14.5 22 14.5h285q25 0 41 -25l184 -281q6 -12 0 -20t-20 -8h-193q-20 0 -39 16l-276 277q-10 12 -4 26.5z M430 449q0 -74 25.5 -99.5t85.5 -25.5h45q57 0 83.5 25.5t26.5 99.5v229q0 76 -26.5 101.5t-83.5 25.5h-45q-59 0 -85 -25.5t-26 -101.5v-229z" />
<glyph unicode="&#xf3;" d="M35 444v240q0 193 130 329t314 136h166q184 0 314.5 -136t130.5 -329v-240q0 -190 -129.5 -324t-311.5 -134h-174q-180 0 -310 134t-130 324zM407.5 1233q-6.5 8 0.5 22l184 279q16 25 41 25h285q16 0 22 -14.5t-4 -26.5l-277 -277q-18 -16 -38 -16h-193q-14 0 -20.5 8z M430 449q0 -74 25.5 -99.5t85.5 -25.5h45q57 0 83.5 25.5t26.5 99.5v229q0 76 -26.5 101.5t-83.5 25.5h-45q-59 0 -85 -25.5t-26 -101.5v-229z" />
<glyph unicode="&#xf4;" d="M35 444v240q0 193 130 329t314 136h166q184 0 314.5 -136t130.5 -329v-240q0 -190 -129.5 -324t-311.5 -134h-174q-180 0 -310 134t-130 324zM219.5 1234q-6.5 9 1.5 21l180 273q20 31 37 31h301q18 0 39 -31l180 -273q6 -12 0 -21t-20 -9h-197q-20 0 -39 20l-104 105 q-6 6 -8 10l-10 -10l-103 -105q-20 -20 -41 -20h-196q-14 0 -20.5 9zM430 449q0 -74 25.5 -99.5t85.5 -25.5h45q57 0 83.5 25.5t26.5 99.5v229q0 76 -26.5 101.5t-83.5 25.5h-45q-59 0 -85 -25.5t-26 -101.5v-229z" />
<glyph unicode="&#xf5;" d="M35 444v240q0 193 130 329t314 136h166q184 0 314.5 -136t130.5 -329v-240q0 -190 -129.5 -324t-311.5 -134h-174q-180 0 -310 134t-130 324zM250 1270q20 125 82.5 190.5t142.5 65.5q70 0 146 -64q2 -2 10 -9t10 -8t8 -6t8 -6t6.5 -4.5t7.5 -3.5t7 -1l8 -2t10 -1 q41 0 54 47q10 27 32 27h119q33 0 29 -31q-20 -127 -84 -191.5t-144 -64.5q-70 0 -143 64q-4 2 -11 8t-9 8t-8.5 6t-8.5 6.5t-7 4.5t-7 3t-7 2t-9.5 1h-8.5q-41 0 -55 -45q-8 -27 -31 -27h-118q-35 0 -29 31zM430 449q0 -74 25.5 -99.5t85.5 -25.5h45q57 0 83.5 25.5 t26.5 99.5v229q0 76 -26.5 101.5t-83.5 25.5h-45q-59 0 -85 -25.5t-26 -101.5v-229z" />
<glyph unicode="&#xf6;" d="M35 444v240q0 193 130 329t314 136h166q184 0 314.5 -136t130.5 -329v-240q0 -190 -129.5 -324t-311.5 -134h-174q-180 0 -310 134t-130 324zM188 1253v224q0 37 37 36h236q37 0 37 -36v-224q0 -39 -37 -39h-236q-37 0 -37 39zM430 449q0 -74 25.5 -99.5t85.5 -25.5h45 q57 0 83.5 25.5t26.5 99.5v229q0 76 -26.5 101.5t-83.5 25.5h-45q-59 0 -85 -25.5t-26 -101.5v-229zM676 1253v224q0 37 37 36h235q37 0 37 -36v-224q0 -39 -37 -39h-235q-37 0 -37 39z" />
<glyph unicode="&#xf7;" horiz-adv-x="1079" d="M82 571v226q0 31 29 30h856q31 0 30 -30v-226q0 -31 -30 -30h-856q-29 0 -29 30zM385 145v224q0 37 37 37h235q37 0 37 -37v-224q0 -39 -37 -39h-235q-37 0 -37 39zM385 1012v223q0 37 37 37h235q37 0 37 -37v-223q0 -39 -37 -39h-235q-37 0 -37 39z" />
<glyph unicode="&#xf8;" d="M35 444v240q0 193 130 329t314 136h119q12 0 27 -4q12 -2 22 -7t17 -10l8 -4q-20 45 -13 70l52 168q14 27 45 27h209q37 0 36 -39l-79 -246q-6 -18 -22.5 -34.5t-25.5 -20.5h10.5h16.5t17.5 -3.5t15.5 -7.5q74 -63 115 -156.5t41 -197.5v-240q0 -190 -129.5 -324 t-311.5 -134h-51q-4 0 -10 2q-8 2 -16.5 5t-13.5 7t-9 7l-4 3l5 -10t7 -20.5t0 -24.5l-70 -209q-12 -27 -43 -27h-184q-37 0 -37 39l74 236q6 18 33 49q-39 -14 -56 -6q-109 59 -174 167.5t-65 239.5zM430 449q0 -74 25.5 -99.5t85.5 -25.5h45q57 0 83.5 25.5t26.5 99.5v229 q0 76 -26.5 101.5t-83.5 25.5h-45q-59 0 -85 -25.5t-26 -101.5v-229z" />
<glyph unicode="&#xf9;" horiz-adv-x="1232" d="M72 420v684q0 12 9 21.5t21 9.5h330q14 0 23.5 -9.5t9.5 -21.5v-649q0 -74 26.5 -99.5t86.5 -25.5h106q53 0 53 47v727q0 12 9.5 21.5t23.5 9.5h330q14 0 23.5 -9.5t9.5 -21.5v-1071q0 -14 -9.5 -23.5t-23.5 -9.5h-289q-37 0 -37 33v2q0 4 8.5 23.5t16.5 35.5l6 15 l-19.5 -19.5l-19.5 -19.5q-29 -33 -97.5 -57.5t-127.5 -24.5h-74q-164 0 -279.5 121.5t-115.5 310.5zM260 1544.5q6 14.5 25 14.5h282q25 0 41 -25l185 -281q8 -12 1.5 -20t-22.5 -8h-192q-20 0 -37 16l-277 277q-12 12 -6 26.5z" />
<glyph unicode="&#xfa;" horiz-adv-x="1232" d="M72 420v684q0 12 9 21.5t21 9.5h330q14 0 23.5 -9.5t9.5 -21.5v-649q0 -74 26.5 -99.5t86.5 -25.5h106q53 0 53 47v727q0 12 9.5 21.5t23.5 9.5h330q14 0 23.5 -9.5t9.5 -21.5v-1071q0 -14 -9.5 -23.5t-23.5 -9.5h-289q-37 0 -37 33v2q0 4 8.5 23.5t16.5 35.5l6 15 l-19.5 -19.5l-19.5 -19.5q-29 -33 -97.5 -57.5t-127.5 -24.5h-74q-164 0 -279.5 121.5t-115.5 310.5zM428.5 1233q-6.5 8 1.5 22l184 279q16 25 41 25h283q18 0 24.5 -14.5t-6.5 -26.5l-276 -277q-16 -16 -37 -16h-194q-14 0 -20.5 8z" />
<glyph unicode="&#xfb;" horiz-adv-x="1232" d="M72 420v684q0 12 9 21.5t21 9.5h330q14 0 23.5 -9.5t9.5 -21.5v-649q0 -74 26.5 -99.5t86.5 -25.5h106q53 0 53 47v727q0 12 9.5 21.5t23.5 9.5h330q14 0 23.5 -9.5t9.5 -21.5v-1071q0 -14 -9.5 -23.5t-23.5 -9.5h-289q-37 0 -37 33v2q0 4 8.5 23.5t16.5 35.5l6 15 l-19.5 -19.5l-19.5 -19.5q-29 -33 -98.5 -57.5t-126.5 -24.5h-74q-164 0 -279.5 121.5t-115.5 310.5zM242 1234q-6 9 0 21l180 273q20 31 37 31h303q16 0 37 -31l180 -273q8 -12 2 -21t-23 -9h-194q-20 0 -41 20l-102 105q-8 6 -11 10q-2 -4 -8 -10l-104 -105 q-20 -20 -39 -20h-197q-14 0 -20 9z" />
<glyph unicode="&#xfc;" horiz-adv-x="1232" d="M72 420v684q0 12 9 21.5t21 9.5h330q14 0 23.5 -9.5t9.5 -21.5v-649q0 -74 26.5 -99.5t86.5 -25.5h106q53 0 53 47v727q0 12 9.5 21.5t23.5 9.5h330q14 0 23.5 -9.5t9.5 -21.5v-1071q0 -14 -9.5 -23.5t-23.5 -9.5h-289q-37 0 -37 33v2q0 4 8.5 23.5t16.5 35.5l6 15 l-19.5 -19.5l-19.5 -19.5q-29 -33 -97.5 -57.5t-127.5 -24.5h-74q-164 0 -279.5 121.5t-115.5 310.5zM209 1253v224q0 37 37 36h237q37 0 37 -36v-224q0 -39 -37 -39h-237q-37 0 -37 39zM696 1253v224q0 37 37 36h238q37 0 37 -36v-224q0 -39 -37 -39h-238q-37 0 -37 39z " />
<glyph unicode="&#xfd;" horiz-adv-x="1032" d="M-20 1090q-8 20 0 32.5t28 12.5h303q33 0 41 -33l140 -471q18 -57 24 -135q6 78 25 137l139 469q8 33 41 33h303q20 0 28.5 -12.5t0.5 -32.5l-437 -1268q-61 -176 -160.5 -250t-254.5 -74h-47q-37 0 -37 37v277q0 29 28 28h111q29 0 40 15.5t19 44.5l27 88l24 18l23 17 l-7 -1q-7 -2 -14.5 -2t-14.5 1.5t-7 5.5zM348 1255l184 279q16 25 41 25h285q16 0 22.5 -14.5t-6.5 -26.5l-276 -277q-16 -16 -37 -16h-192q-14 0 -20.5 8t-0.5 22z" />
<glyph unicode="&#xfe;" horiz-adv-x="1196" d="M94 -504v2142q0 12 9.5 21.5t23.5 9.5h340q14 0 23.5 -9t9.5 -22v-518q0 -14 -8.5 -37.5t-14.5 -40.5l-8 -16q33 31 39 39q31 33 101.5 57.5t140.5 24.5h12q164 0 279.5 -125t115.5 -313v-283q0 -188 -115.5 -313t-279.5 -125h-12q-70 0 -140.5 24.5t-101.5 57.5l-39 39 q31 -61 31 -95v-518q0 -12 -9.5 -21.5t-23.5 -9.5h-340q-14 0 -23.5 9.5t-9.5 21.5zM498 377q0 -47 53 -47h102q59 0 86 25.5t27 99.5v225q0 74 -26.5 99.5t-86.5 25.5h-102q-53 0 -53 -47v-381z" />
<glyph unicode="&#xff;" horiz-adv-x="1032" d="M-20 1090q-8 20 0 32.5t28 12.5h303q33 0 41 -33l140 -471q18 -57 24 -135q6 78 25 137l139 469q8 33 41 33h303q20 0 28.5 -12.5t0.5 -32.5l-437 -1268q-61 -176 -160.5 -250t-254.5 -74h-47q-37 0 -37 37v277q0 29 28 28h111q29 0 40 15.5t19 44.5l27 88l24 18l23 17 l-7 -1q-7 -2 -14.5 -2t-14.5 1.5t-7 5.5zM129 1253v224q0 37 37 36h235q37 0 37 -36v-224q0 -39 -37 -39h-235q-37 0 -37 39zM616 1253v224q0 37 37 36h236q37 0 37 -36v-224q0 -39 -37 -39h-236q-37 0 -37 39z" />
<glyph unicode="&#x152;" horiz-adv-x="1810" d="M72 430v559q0 180 127 308t299 128h1198q29 0 28 -28v-301q0 -29 -28 -29h-441q-16 0 -35.5 8t-29.5 17l-10 8q20 -37 20 -62v-116q0 -12 -5 -25.5t-11 -24.5l-4 -8q37 29 75 29h385q31 0 31 -29v-256q0 -29 -31 -28h-385q-16 0 -35.5 8t-29.5 16l-10 8q20 -37 20 -61 v-164q0 -12 -5 -27.5t-11 -23.5l-4 -10q37 31 75 30h474q29 0 28 -28v-299q0 -29 -28 -29h-1231q-172 0 -299 126t-127 304zM479 473q0 -68 28 -92.5t85 -24.5h86q57 0 85 25t28 92v477q0 70 -28 94.5t-85 24.5h-86q-57 0 -85 -24.5t-28 -94.5v-477z" />
<glyph unicode="&#x153;" horiz-adv-x="1804" d="M35 444v240q0 193 130 329t314 136h166q141 0 256 -86q115 86 256 86h168q188 0 315 -139.5t127 -335.5v-197q0 -31 -28 -31h-574q-14 0 -26.5 2.5t-20.5 4.5t-15 4t-9 4l-2 2q0 -2 3 -7t7 -16.5t4 -17.5v-12q0 -25 4 -41.5t20.5 -30.5t47.5 -14h143q33 0 37 18v14 q4 23 31 23l327 -2q33 0 27 -31v-4q-27 -145 -135.5 -250.5t-245.5 -105.5h-205q-141 0 -256 84q-113 -84 -252 -84h-174q-180 0 -310 134t-130 324zM430 449q0 -74 25.5 -99.5t85.5 -25.5h45q57 0 83.5 25.5t26.5 99.5v229q0 76 -26.5 101.5t-83.5 25.5h-45 q-59 0 -85 -25.5t-26 -101.5v-229zM1090 686q27 16 75 16h154q14 0 27.5 -2t21.5 -4t15.5 -5t9.5 -5h2q-16 31 -17 55v21q0 23 -15 36t-38 13h-166q-23 0 -38 -13.5t-15 -35.5v-21q0 -23 -16 -55z" />
<glyph unicode="&#x178;" d="M-92 1412.5q8 12.5 29 12.5h354q31 0 43 -26l201 -447q6 -14 13 -41.5t9 -48.5l4 -20q12 76 27 108l200 449q12 27 43 26h355q20 0 28.5 -12t-2.5 -31l-426 -841q-2 -4 -6 -10.5t-8 -10.5l-8 -8l-6 -6l-2 -2q12 -20 12 -37v-430q0 -37 -37 -37h-340q-37 0 -37 37v430 q0 8 3 16.5t5 14.5l5 6q-23 20 -33 37l-424 841q-10 18 -2 30.5zM168 1552v209q0 35 37 35h235q37 0 37 -35v-209q0 -37 -37 -36h-235q-37 0 -37 36zM655 1552v209q0 35 37 35h236q37 0 37 -35v-209q0 -37 -37 -36h-236q-37 0 -37 36z" />
<glyph unicode="&#x2c6;" horiz-adv-x="774" d="M17.5 1293.5q-7.5 9.5 0.5 21.5l181 272q20 31 37 31h303q16 0 36 -31l181 -272q8 -12 2 -21.5t-23 -9.5h-194q-20 0 -41 19l-105 104q-6 6 -8 12q-2 -6 -8 -12l-105 -104q-20 -18 -38 -19h-197q-14 0 -21.5 9.5z" />
<glyph unicode="&#x2dc;" horiz-adv-x="790" d="M55 1309q20 125 84 190.5t144 65.5q70 0 143 -64q4 -2 11 -9t9.5 -8t8.5 -6t8 -6.5t7 -4.5t7 -3t7 -1t9.5 -2t8.5 -1q41 0 55 47q8 27 31 27h119q33 0 28 -31q-20 -127 -82.5 -191.5t-144.5 -64.5q-70 0 -143 64q-2 2 -10.5 8t-10.5 8t-8 6t-8 6t-6.5 4.5t-7.5 3.5t-7 2 t-8 1h-10q-41 0 -56 -45q-8 -27 -30 -27h-119q-33 0 -29 31z" />
<glyph unicode="&#x2000;" horiz-adv-x="939" />
<glyph unicode="&#x2001;" horiz-adv-x="1878" />
<glyph unicode="&#x2002;" horiz-adv-x="939" />
<glyph unicode="&#x2003;" horiz-adv-x="1878" />
<glyph unicode="&#x2004;" horiz-adv-x="626" />
<glyph unicode="&#x2005;" horiz-adv-x="469" />
<glyph unicode="&#x2006;" horiz-adv-x="313" />
<glyph unicode="&#x2007;" horiz-adv-x="313" />
<glyph unicode="&#x2008;" horiz-adv-x="234" />
<glyph unicode="&#x2009;" horiz-adv-x="375" />
<glyph unicode="&#x200a;" horiz-adv-x="104" />
<glyph unicode="&#x2010;" horiz-adv-x="751" d="M100 492v225q0 31 29 31h494q29 0 28 -31v-225q0 -31 -28 -31h-494q-29 0 -29 31z" />
<glyph unicode="&#x2011;" horiz-adv-x="751" d="M100 492v225q0 31 29 31h494q29 0 28 -31v-225q0 -31 -28 -31h-494q-29 0 -29 31z" />
<glyph unicode="&#x2012;" horiz-adv-x="751" d="M100 492v225q0 31 29 31h494q29 0 28 -31v-225q0 -31 -28 -31h-494q-29 0 -29 31z" />
<glyph unicode="&#x2013;" horiz-adv-x="1116" d="M100 492v225q0 31 29 31h858q29 0 29 -31v-225q0 -31 -29 -31h-858q-29 0 -29 31z" />
<glyph unicode="&#x2014;" horiz-adv-x="1333" d="M100 492v225q0 31 29 31h1075q29 0 29 -31v-225q0 -31 -29 -31h-1075q-29 0 -29 31z" />
<glyph unicode="&#x2018;" horiz-adv-x="587" d="M129 1139v340q0 106 63.5 171.5t165.5 65.5h64q20 0 20 -20v-121q0 -16 -16 -16h-23q-31 0 -43 -17.5t-12 -62.5v-60h74q37 0 37 -37v-243q0 -37 -37 -37h-256q-37 0 -37 37z" />
<glyph unicode="&#x2019;" horiz-adv-x="526" d="M147 1438v241q0 39 37 39h256q37 0 37 -39v-340q0 -106 -63.5 -171.5t-165.5 -65.5h-64q-20 0 -20 22v119q0 16 16 17h21q33 0 44 17t11 64v58h-72q-37 0 -37 39z" />
<glyph unicode="&#x201a;" horiz-adv-x="587" d="M129 43v242q0 39 37 39h256q37 0 37 -39v-338q0 -106 -63.5 -173t-166.5 -67h-63q-20 0 -21 23v118q0 16 17 17h20q33 0 44.5 17.5t11.5 64.5v57h-72q-37 0 -37 39z" />
<glyph unicode="&#x201c;" horiz-adv-x="1017" d="M129 1139v338q0 106 63.5 171.5t165.5 65.5h64q20 0 20 -20v-121q0 -16 -16 -17h-23q-31 0 -43 -17t-12 -62v-58h74q37 0 37 -39v-241q0 -39 -37 -39h-256q-37 0 -37 39zM559 1139v338q0 106 63.5 171.5t165.5 65.5h64q20 0 20 -20v-121q0 -16 -16 -17h-22 q-31 0 -43.5 -17t-12.5 -62v-58h74q37 0 37 -39v-241q0 -39 -37 -39h-256q-37 0 -37 39z" />
<glyph unicode="&#x201d;" horiz-adv-x="1017" d="M129 1434v241q0 39 37 39h256q37 0 37 -39v-338q0 -106 -63.5 -171.5t-166.5 -65.5h-63q-20 0 -21 20v121q0 16 17 16h20q33 0 44.5 17.5t11.5 62.5v58h-72q-37 0 -37 39zM559 1434v241q0 39 37 39h256q37 0 37 -39v-338q0 -106 -63.5 -171.5t-166.5 -65.5h-63 q-20 0 -21 20v121q0 16 17 16h20q33 0 44.5 17.5t11.5 62.5v58h-72q-37 0 -37 39z" />
<glyph unicode="&#x201e;" horiz-adv-x="1017" d="M129 45v242q0 39 37 39h256q37 0 37 -39v-340q0 -106 -63.5 -172t-166.5 -66h-63q-20 0 -21 23v118q0 16 17 17h20q33 0 44.5 17.5t11.5 64.5v57h-72q-37 0 -37 39zM559 45v242q0 39 37 39h256q37 0 37 -39v-340q0 -106 -63.5 -172t-166.5 -66h-63q-20 0 -21 23v118 q0 16 17 17h20q33 0 44.5 17.5t11.5 64.5v57h-72q-37 0 -37 39z" />
<glyph unicode="&#x2022;" horiz-adv-x="921" d="M74 807q0 168 113.5 287.5t271.5 119.5q162 0 275.5 -119.5t113.5 -287.5q0 -166 -113.5 -283.5t-275.5 -117.5q-158 0 -271.5 117.5t-113.5 283.5z" />
<glyph unicode="&#x2026;" horiz-adv-x="1634" d="M129 43v242q0 39 37 39h256q37 0 37 -39v-242q0 -39 -37 -39h-256q-37 0 -37 39zM657 43v242q0 39 37 39h254q37 0 37 -39v-242q0 -39 -37 -39h-254q-37 0 -37 39zM1178 43v242q0 39 36 39h254q37 0 37 -39v-242q0 -39 -37 -39h-254q-37 0 -36 39z" />
<glyph unicode="&#x202f;" horiz-adv-x="375" />
<glyph unicode="&#x2039;" horiz-adv-x="563" d="M125 463v274q0 27 25 49l280 263q10 10 20.5 2.5t10.5 -21.5v-278q0 -20 -21 -39l-104 -105q-4 -4 -4 -9t4 -9l104 -105q20 -18 21 -39v-278q0 -14 -10.5 -21.5t-20.5 0.5l-280 263q-25 25 -25 53z" />
<glyph unicode="&#x203a;" horiz-adv-x="563" d="M125 168v278q0 20 20 39l105 105q4 4 4 9t-4 9l-105 105q-20 18 -20 39v278q0 14 10 21.5t21 -2.5l280 -263q25 -23 25 -49v-274q0 -29 -25 -53l-280 -263q-10 -8 -20.5 -0.5t-10.5 21.5z" />
<glyph unicode="&#x205f;" horiz-adv-x="469" />
<glyph unicode="&#x20ac;" horiz-adv-x="1351" d="M145 489v164q0 31 31 31h39v55h-39q-31 0 -31 31v162q0 31 31 31h39v43q0 178 127 307t299 129h246q172 0 299 -129t127 -307v-70q0 -29 -29 -29h-350q-31 0 -31 29v31q0 70 -27.5 94t-84.5 24h-56q-57 0 -84.5 -24.5t-27.5 -93.5v-4h184q29 0 29 -31v-162q0 -31 -29 -31 h-184v-55h184q29 0 29 -31v-164q0 -31 -29 -30h-184v-2q2 -68 28.5 -92.5t83.5 -24.5h58q59 0 85.5 24.5t26.5 92.5v26q0 29 29 29h350q29 0 29 -29v-65q0 -178 -127 -304t-299 -126h-246q-172 0 -299 126t-127 304v41h-39q-31 0 -31 30z" />
<glyph unicode="&#x2122;" horiz-adv-x="1701" d="M68 1272v162q0 20 30 20h533q33 0 33 -20v-162q0 -20 -33 -21h-115q-16 0 -33 9q6 -14 6 -21v-569q0 -20 -30 -21h-187q-33 0 -32 21v569q0 6 6 21q-16 -8 -31 -9h-117q-31 0 -30 21zM739 670v764q0 20 33 20h215q29 0 35 -16l152 -394q2 -2 2 -4v4l153 394q6 16 35 16 h215q31 0 31 -20v-764q0 -20 -31 -21h-186q-31 0 -33 21v299l-107 -307q-4 -12 -28 -13h-99q-25 0 -28 13l-107 307l-2 -299q0 -20 -31 -21h-186q-33 0 -33 21z" />
<glyph unicode="&#x25fc;" horiz-adv-x="1135" d="M0 0v1135h1135v-1135h-1135z" />
</font>
</defs>
</svg>
