<?xml version="1.0" standalone="no"?>
<!DOCTYPE svg PUBLIC "-//W3C//DTD SVG 1.1//EN" "http://www.w3.org/Graphics/SVG/1.1/DTD/svg11.dtd" >
<svg xmlns="http://www.w3.org/2000/svg" xmlns:xlink="http://www.w3.org/1999/xlink" version="1.1">
<metadata></metadata>
<defs>
<font id="polarblack_italic" horiz-adv-x="1118" >
<font-face units-per-em="2048" ascent="1638" descent="-410" />
<missing-glyph horiz-adv-x="636" />
<glyph unicode="&#xfb01;" horiz-adv-x="1388" d="M121 870l41 228q6 35 37 35h110q53 0 68 -17q-12 23 -6 55l12 72q33 184 158 302t321 118h600q27 0 23 -27l-43 -235q-6 -35 -37 -35h-506q-153 0 -176 -127l-12 -65q-6 -35 -25 -58q18 16 78 17h655q12 0 19.5 -8.5t5.5 -20.5l-191 -1075q-4 -27 -32 -27h-283 q-12 0 -19.5 8t-5.5 19l142 807h-348q-18 0 -36 4t-24 7t-8 5q10 -29 6 -49l-135 -774q-4 -27 -33 -27h-284q-10 0 -17.5 8t-5.5 19l135 774q4 23 25 49q-2 -2 -10.5 -5t-27 -7t-36.5 -4h-109q-33 0 -26 34z" />
<glyph unicode="&#xfb02;" horiz-adv-x="1404" d="M121 870l41 228q6 35 37 35h110q53 0 68 -17q-12 23 -6 55l12 72q33 184 158 301t321 119h117h2h10h2h557q8 0 6 -10l-49 -279l-237 -1345q-4 -27 -33 -27h-283q-12 0 -19 8t-5 19l235 1337h-229h-2h-2h-2h-31q-154 2 -176 -127l-12 -65q-6 -35 -25 -58q18 16 78 17h180 q33 0 27 -35l-39 -228q-6 -35 -39 -34h-186q-18 0 -36 4t-24 7t-8 5q10 -29 6 -49l-135 -774q-4 -27 -33 -27h-284q-10 0 -17.5 8t-5.5 19l135 774q4 23 25 49q-2 -2 -10.5 -5t-27 -7t-36.5 -4h-109q-33 0 -26 34z" />
<glyph horiz-adv-x="0" />
<glyph horiz-adv-x="682" />
<glyph unicode="&#x9;" horiz-adv-x="636" />
<glyph unicode=" "  horiz-adv-x="636" />
<glyph unicode="&#x09;" horiz-adv-x="636" />
<glyph unicode="&#xa0;" horiz-adv-x="636" />
<glyph unicode="!" horiz-adv-x="628" d="M166 37l37 209q6 35 39 35h204q33 0 27 -35l-37 -209q-6 -33 -39 -33h-204q-33 0 -27 33zM240 477l147 1020q6 35 39 35h276q33 0 27 -35l-211 -1020q-8 -35 -39 -35h-213q-33 0 -26 35z" />
<glyph unicode="&#x22;" horiz-adv-x="989" d="M346 1159l49 490q2 33 37 32h225q35 0 27 -32l-125 -490q-8 -35 -37 -35h-149q-31 0 -27 35zM784 1159l50 490q2 33 36 32h226q35 0 26 -32l-125 -490q-8 -35 -36 -35h-150q-31 0 -27 35z" />
<glyph unicode="#" horiz-adv-x="1558" d="M139 350l33 193q6 27 43 26h238l100 316h-217q-18 0 -27.5 7t-7.5 19l35 195q4 27 43 27h254l84 262q10 23 39 22h180q33 0 33 -35l-84 -249h315l82 262q12 23 39 22h182q33 0 33 -35l-84 -249h186q18 0 27.5 -7.5t5.5 -19.5l-33 -195q-6 -27 -43 -26h-227l-104 -314h211 q20 0 28 -7t6 -21l-34 -193q-4 -27 -43 -26h-252l-90 -271q-10 -25 -39 -24h-160q-33 0 -33 34l84 261h-328l-90 -271q-12 -25 -39 -24h-159q-35 0 -33 34l82 261h-203q-18 0 -27.5 6t-5.5 20zM696 571h324l100 314h-317z" />
<glyph unicode="$" horiz-adv-x="1193" d="M111 395l14 82q6 33 39 33h287q33 0 26 -33l-10 -51q-12 -72 15.5 -101.5t88.5 -29.5h127q121 0 144 131l6 39q14 74 -72 102l-375 127q-106 33 -153 123t-29 189l4 28q29 162 168 280t307 122l41 235q6 35 39 35h213q33 0 27 -35l-43 -237q166 -10 245.5 -126t51.5 -282 l-6 -27q-4 -33 -39 -32h-285q-35 0 -29 32l9 45q6 35 -19.5 58.5t-68.5 23.5h-162q-35 0 -62.5 -26.5t-34.5 -61.5l-2 -14q-14 -76 62 -102l377 -127q125 -47 168 -120t20 -206l-14 -80q-29 -166 -169 -282.5t-312 -120.5l-33 -193q-6 -33 -39 -33h-213q-33 0 -27 33l33 193 q-162 10 -253 127.5t-62 281.5z" />
<glyph unicode="%" horiz-adv-x="2125" d="M125 836l80 456q25 135 131 236q111 102 239 102h162q121 0 195 -90q82 -102 57 -248l-82 -456q-25 -137 -133 -236.5t-235 -99.5h-164q-125 0 -200 99t-50 237zM430 862q-8 -47 4 -65q12 -17 49 -17h47q37 0 54 17q20 18 28 65l72 404q8 47 -6 65q-10 16 -47 17h-47 q-37 0 -56 -17q-18 -18 -26 -65zM752 272l522 836q0 2 4 7t5 7t4 6.5t5 5.5t5 3t6.5 3t9.5 1h203q16 0 25 -10.5t1 -24.5l-522 -834q-2 -2 -5 -8t-4 -7t-4 -5t-5.5 -6t-5.5 -4t-7 -2h-8h-203q-16 0 -25.5 9t-0.5 23zM1331 123l82 457q23 135 129 235q111 104 240 105h164 q119 0 192 -93q82 -102 57 -247l-79 -457q-25 -137 -134.5 -236.5t-236.5 -99.5h-162q-127 0 -201.5 99.5t-50.5 236.5zM1636 150q-8 -47 4 -66q13 -14 50 -14h47q37 0 55 14q18 18 27 66l71 403q8 47 -4 65q-12 16 -49 17h-47q-37 0 -53 -17q-20 -18 -29 -65z" />
<glyph unicode="&#x26;" horiz-adv-x="1552" d="M172 410l21 118q27 147 120 246q4 2 4 6t-2 8q-43 78 -14 240l14 78q31 180 169.5 300t312.5 120h157q172 0 267.5 -120t64.5 -300l-6 -29q-4 -27 -31 -26h-282q-27 0 -23 26l8 37q8 53 -19.5 84t-90.5 31h-39q-63 0 -102 -31t-48 -84l-18 -104q-10 -53 17.5 -84 t90.5 -31h867q25 0 20 -27l-33 -188q-6 -29 -30 -29h-181l-43 -241q-31 -178 -174 -300t-317 -122h-336q-174 0 -274.5 121.5t-69.5 300.5zM510 420q-12 -72 13.5 -102.5t84.5 -32.5h254q123 2 146 135l41 231h-365q-68 0 -105.5 -31.5t-52.5 -111.5z" />
<glyph unicode="'" horiz-adv-x="550" d="M352 1159l49 490q4 33 39 32h224q35 0 26 -32l-123 -490q-8 -35 -39 -35h-149q-29 0 -27 35z" />
<glyph unicode="(" horiz-adv-x="630" d="M92 0l189 1073q39 217 178 347t344 132q16 0 23.5 -9t4.5 -23l-26 -156q-6 -33 -41 -33q-86 -4 -143.5 -69.5t-79.5 -188.5l-189 -1073q-23 -123 12 -187.5t121 -68.5q14 0 21.5 -9t5.5 -26l-27 -153q-6 -33 -39 -33q-205 2 -299 132t-55 345z" />
<glyph unicode=")" horiz-adv-x="630" d="M-51 -444l26 153q6 35 39 35q88 4 145.5 68.5t80.5 187.5l188 1073q23 123 -12 188.5t-121 69.5q-14 0 -22.5 9.5t-4.5 23.5l27 156q6 33 39 32q205 -2 299 -132t55 -347l-188 -1073q-39 -215 -178.5 -345t-346.5 -132q-14 0 -21 9t-5 24z" />
<glyph unicode="*" horiz-adv-x="989" d="M260 1020q-12 33 21 47l139 74l67 18q-43 8 -63 19l-111 73q-27 16 -2 49l129 170q25 33 47 13l72 -66l47 -57l-2 76l21 116q6 35 39 35h180q33 0 26 -35l-20 -116l-29 -76q43 39 68 57l96 68q29 23 43 -12l68 -173q14 -31 -19 -47l-137 -75q-10 -4 -27.5 -9.5 t-29.5 -7.5l-13 -2q41 -8 60 -18l114 -74q27 -14 3 -47l-129 -172q-25 -31 -48 -10l-73 61l-45 57v-75l-21 -117q-6 -33 -39 -33h-178q-33 0 -27 33l21 117q0 8 7 27.5t13 33.5l7 14l-11 -10q-12 -10 -29.5 -24.5t-27.5 -22.5l-94 -61q-29 -20 -43 10z" />
<glyph unicode="+" horiz-adv-x="1046" d="M176 590l33 194q6 29 33 29h286l50 287q6 29 30 28h187q25 0 20 -28l-51 -287h287q27 0 20 -29l-33 -194q-6 -27 -30 -27h-287l-53 -293q-4 -29 -31 -28h-184q-27 0 -21 28l51 293h-286q-27 0 -21 27z" />
<glyph unicode="," horiz-adv-x="589" d="M117 -262l18 106q2 14 17 15h20q31 2 45 19.5t23 64.5l12 61h-68q-33 0 -26 33l39 223q6 35 39 35h225q31 0 26 -35l-41 -223l-16 -96q-16 -98 -83.5 -159t-160.5 -63h-55q-18 0 -14 19z" />
<glyph unicode="-" horiz-adv-x="790" d="M184 506l35 192q4 29 31 29h506q25 0 20 -29l-35 -192q-4 -27 -30 -27h-504q-27 0 -23 27z" />
<glyph unicode="." horiz-adv-x="548" d="M117 37l39 223q6 35 39 35h225q33 0 26 -35l-38 -223q-6 -33 -39 -33h-226q-33 0 -26 33z" />
<glyph unicode="/" horiz-adv-x="894" d="M-43 14l840 1428q14 23 43 22h284q33 0 27 -34l-860 -1426q-16 -25 -45 -24h-262q-33 0 -27 34z" />
<glyph unicode="0" horiz-adv-x="1206" d="M125 403l108 615q31 170 173.5 294t304.5 124h233q164 0 262.5 -124t67.5 -294l-107 -615q-31 -172 -172 -292.5t-305 -120.5h-233q-164 0 -262.5 120.5t-69.5 292.5zM483 438q-14 -78 13.5 -110.5t97.5 -32.5h65q70 0 109 32.5t53 110.5l97 543q14 80 -13.5 112.5 t-97.5 32.5h-66q-70 0 -108.5 -32.5t-52.5 -112.5z" />
<glyph unicode="1" horiz-adv-x="868" d="M47 33l41 229q6 33 39 33h121q35 0 94 -27q-23 45 -18 74l131 739q2 14 39 66l-20 -11q-21 -10 -41.5 -17t-39.5 -7h-170q-27 0 -22 25l45 260q4 25 30 24h539q33 0 27 -32l-185 -1047q-6 -39 -39 -76q0 2 14.5 7.5t26 9.5t30 8t34.5 4h102q33 0 27 -33l-39 -229 q-6 -33 -39 -33h-700q-33 0 -27 33z" />
<glyph unicode="2" horiz-adv-x="1245" d="M70 33l51 286q20 115 83.5 185.5t201.5 132.5l460 235q41 20 61.5 42t26.5 57l11 53q8 43 -10.5 72.5t-61.5 29.5h-178q-43 0 -77 -20.5t-44 -52.5l-6 -33q-6 -33 -39 -33h-287q-33 0 -26 33l4 16q35 170 163.5 285t307.5 115h258q172 0 273 -122t73 -292l-12 -68 q-16 -92 -92 -175t-191 -134l-496 -248q-37 -18 -41 -41l-4 -22q-6 -35 -33 -66q2 2 12.5 8.5t25 11.5t30.5 5h625q14 0 21 -9.5t5 -23.5l-41 -227q-4 -33 -37 -33h-989q-33 0 -28 33z" />
<glyph unicode="3" horiz-adv-x="1177" d="M76 389l4 25q6 33 37 32h286q33 0 29 -30l-8 -47q-2 -35 24.5 -55.5t69.5 -20.5h133q70 0 109 33.5t53 111.5l8 45q14 80 -13.5 112t-96.5 32h-99q-12 0 -10 12l37 211q2 10 14 10l78 2q63 0 103 30t49 79l6 41q10 53 -17.5 83.5t-93.5 30.5h-110q-43 0 -77 -19.5 t-44 -53.5l-6 -33q-6 -31 -39 -31h-287q-31 0 -27 31l5 16q35 170 163.5 285t307.5 115h243q176 0 272.5 -115t65.5 -287l-8 -43q-10 -61 -47 -128.5t-78 -98.5q-8 -6 -16 -10q6 -3 12 -9q35 -39 57.5 -107.5t10.5 -131.5l-19 -113q-31 -170 -173 -286.5t-318 -116.5h-260 q-178 0 -266.5 113.5t-63.5 285.5z" />
<glyph unicode="4" horiz-adv-x="1214" d="M66 330l43 235q2 12 12 23l624 815q14 18 37 18h455q25 0 20 -24l-137 -781q-4 -27 -28 -59l9 5t21.5 9t26.5 4h88q33 0 29 -32l-37 -207q-6 -33 -39 -33h-82q-29 0 -55 19q10 -37 6 -60l-43 -235q-4 -27 -31 -27h-299q-27 0 -20 27l41 233q4 27 30 68q-41 -25 -67 -25 h-582q-27 0 -22 27zM397 559q67 16 92 16h230q12 0 55 -18q-8 37 -6 55l78 435q4 23 22 81q0 -2 -7 -17t-16 -30.5t-20 -27.5l-354 -439q-20 -27 -74 -55z" />
<glyph unicode="5" horiz-adv-x="1179" d="M96 389l4 25q6 33 37 32h287q33 0 29 -30l-9 -43q-2 -35 25 -55.5t72 -20.5h184q43 0 71.5 29.5t37.5 72.5l28 170q8 45 -10 74t-61 29l-146 2q-27 0 -47 -6l-53 -13q-39 -10 -62 -10h-239q-31 0 -25 35l125 709q6 33 39 32h870q33 0 29 -32l-45 -244q-2 -12 -12.5 -22.5 t-24.5 -10.5h-508q-14 0 -27.5 4t-19.5 8t-14 10.5t-10 6.5q2 0 8 -11.5t10 -27t0 -29.5l-21 -125q-2 -8 -9 -19t-16 -21l-9 -11q2 0 11 7t22.5 13.5t25.5 8.5l19 6q37 8 67 8h131q172 -2 273.5 -123t72.5 -291l-22 -125q-31 -168 -175.5 -289.5t-316.5 -121.5h-266 q-178 0 -266 113.5t-64 285.5z" />
<glyph unicode="6" horiz-adv-x="1204" d="M125 410l108 616q29 168 173.5 289t316.5 121h217q178 0 267 -115t65 -285l-2 -16q-6 -31 -39 -31h-287q-33 0 -26 31l4 33q4 74 -78 73h-154q-88 0 -106 -98l-19 -110q-2 -10 -7 -21.5t-10 -18t-10.5 -13.5t-7.5 -7q2 0 10.5 5t20.5 10.5t25 7.5l20 4q29 2 58 2h206 q174 0 275.5 -122t71.5 -292l-13 -72q-31 -168 -175 -289.5t-316 -121.5h-258q-182 0 -272.5 119.5t-57.5 300.5zM473 395q-8 -45 18.5 -71.5t77.5 -26.5h176q43 0 72 29.5t37 72.5l18 113q18 102 -81 102h-170h-66l-20 -4q-12 0 -21.5 4t-15.5 8.5t-6 6.5q0 -2 3 -8.5 t6 -11.5t5 -15t0 -21z" />
<glyph unicode="7" horiz-adv-x="915" d="M61.5 9q-4.5 9 4.5 24l620 1036q10 16 42 48t44 42q-4 -2 -24.5 -13t-43 -22.5t-34.5 -11.5h-520q-33 0 -27 33l43 244q6 33 39 32h872q25 0 21 -24l-41 -226q-2 -12 -10 -24l-637 -1127q-12 -20 -33 -20h-299q-12 0 -16.5 9z" />
<glyph unicode="8" horiz-adv-x="1222" d="M102 393l19 113q12 66 59 135.5t96 106.5q12 6 19 6q-6 0 -16 8q-31 27 -44.5 95.5t-3.5 133.5l9 43q29 170 164 286t311 116h243q174 0 269.5 -116t64.5 -286l-8 -43q-12 -66 -50 -134.5t-79 -94.5q-8 -6 -16 -8q6 -2 14 -6q37 -37 59.5 -107t10.5 -135l-21 -113 q-29 -170 -172 -286.5t-317 -116.5h-262q-176 0 -277.5 116.5t-71.5 286.5zM461 438q-14 -80 13.5 -112.5t96.5 -32.5h127q70 0 109 32.5t53 112.5l8 45q14 78 -14.5 111t-95.5 33h-129q-68 0 -107 -33t-53 -111zM580 971q-10 -49 18.5 -80t91.5 -31h88q63 0 103.5 31 t48.5 80l6 41q10 53 -17.5 83.5t-93.5 30.5h-88q-131 0 -151 -114z" />
<glyph unicode="9" horiz-adv-x="1222" d="M106 389v6q6 33 37 33h287q33 0 29 -33l-4 -22q-4 -74 80 -76h188q90 0 106 100l17 90q2 14 41 66q-2 0 -26.5 -13.5t-37.5 -17.5l-24 -4h-51h-207q-174 0 -275.5 122t-70.5 290l16 92q29 170 173 292t318 122h259q182 0 271 -121t58 -299l-108 -617 q-31 -170 -174.5 -289.5t-317.5 -119.5h-254q-178 0 -267 113.5t-63 285.5zM539 891q-18 -102 82 -103h170q25 0 49 3l28 4q8 0 19.5 -4.5t23 -9.5t13.5 -5q-2 0 -5.5 7.5t-6.5 14.5t-5 16t-2 15l37 201q6 43 -20.5 69.5t-75.5 26.5h-176q-43 0 -72 -29.5t-37 -72.5z" />
<glyph unicode=":" horiz-adv-x="677" d="M117 37l39 223q6 33 39 33h225q33 0 26 -33l-38 -223q-6 -33 -39 -33h-226q-33 0 -26 33zM246 766l39 223q6 35 39 35h225q31 0 24 -35l-38 -223q-6 -33 -37 -33h-226q-33 0 -26 33z" />
<glyph unicode=";" horiz-adv-x="716" d="M117 -262l18 106q2 14 17 15h20q31 2 45 19.5t23 64.5l12 61h-68q-33 0 -26 33l39 223q6 35 39 35h225q31 0 26 -35l-41 -223l-16 -96q-16 -98 -83.5 -159t-160.5 -63h-55q-18 0 -14 19zM285 766l39 223q6 33 38 33h226q31 0 24 -33l-39 -223q-6 -33 -36 -33h-226 q-33 0 -26 33z" />
<glyph unicode="&#x3c;" horiz-adv-x="1136" d="M180 678q-16 10 4 20l949 541q16 8 24 3t4 -21l-45 -258q-4 -23 -22 -33l-402 -215q-18 -10 -38.5 -16.5t-37.5 -8.5l-16 -2l16 -2q15 -2 33.5 -8t34.5 -16l326 -209q14 -8 10 -33l-45 -258q-6 -39 -35 -19z" />
<glyph unicode="=" horiz-adv-x="1165" d="M176 379l33 194q6 27 33 27h854q27 0 22 -27l-35 -194q-4 -27 -30 -27h-856q-27 0 -21 27zM250 799l35 194q4 27 30 27h856q25 0 21 -27l-35 -194q-4 -27 -31 -27h-856q-25 0 -20 27z" />
<glyph unicode="&#x3e;" horiz-adv-x="1134" d="M176 162l45 258q4 25 23 33l399 209q20 10 41 16t36 8l15 2l-15 2t-33.5 8.5t-33.5 16.5l-325 215q-14 10 -11 33l45 258q6 39 35 18l758 -541q16 -10 -2 -20l-948 -535q-16 -8 -24.5 -3t-4.5 22z" />
<glyph unicode="?" horiz-adv-x="1077" d="M135 1081l8 41q31 182 160 293t315 111h181q174 0 276.5 -111.5t71.5 -284.5l-12 -65q-18 -102 -97.5 -196.5t-197.5 -137.5l-144 -53q-96 -39 -110 -111l-21 -92q-8 -35 -39 -35h-207q-31 0 -26 35l12 103q16 129 82 214t197 136l108 45q82 35 96 110l9 52 q8 39 -9.5 66.5t-54.5 29.5h-160q-43 0 -78.5 -25.5t-41.5 -64.5l-11 -60q-6 -35 -39 -34h-241q-33 0 -27 34zM221 35l37 207q6 33 39 32h203q33 0 26 -32l-34 -207q-6 -35 -39 -35h-205q-33 0 -27 35z" />
<glyph unicode="@" horiz-adv-x="2058" d="M167 162.5q-42 187.5 1 423.5q82 465 386 737t767 272q203 0 359.5 -62.5t256 -184t134 -301t-4.5 -410.5q-47 -258 -206.5 -446.5t-327.5 -188.5q-180 0 -182 168q-12 -16 -19 -20q-29 -53 -115 -100.5t-182 -47.5h-119q-170 0 -270 127t-67 305l45 264q31 176 171 302 t296 126h63q104 0 184 -90q16 -18 33 -47v66l6 32q4 27 37 27h260q33 0 27 -33l-129 -725q-8 -51 1 -73.5t42 -22.5q45 0 93 66.5t78 148.5t42 150q66 373 -75.5 558t-471.5 185q-346 0 -580.5 -210t-300.5 -572q-63 -365 96.5 -576t508.5 -211q242 0 442 117q23 14 31 -4 l71 -150q10 -23 -14 -34q-252 -154 -567 -154q-209 0 -376 70.5t-274.5 200.5t-149.5 317.5zM913 436q-12 -80 14.5 -111.5t96.5 -31.5h53q68 0 107 31.5t53 111.5l43 250q14 82 -12.5 113.5t-96.5 31.5h-53q-68 0 -106.5 -31.5t-53.5 -113.5z" />
<glyph unicode="A" horiz-adv-x="1398" d="M12 31l666 1370q10 20 35 20h434q23 0 27 -20l182 -1370q4 -31 -27 -31h-313q-25 0 -27 20l-16 244q-2 12 0 24.5t6 26t4 17.5q-49 -18 -76 -19h-346q-27 0 -72 19q0 -4 -1 -17.5t-3 -26t-6 -24.5l-104 -244q-8 -20 -35 -20h-313q-29 0 -15 31zM590 571q59 14 84 15h215 q27 0 80 -15q-25 41 -29 70l-41 387q-4 23 5 51.5t20 40.5q-20 -16 -33 -16h-35q-12 0 -29 16q8 -10 6 -39.5t-12 -52.5l-178 -387q-14 -29 -53 -70z" />
<glyph unicode="B" horiz-adv-x="1277" d="M119 33l239 1356q6 33 39 32h631q172 -1 268 -113q73 -85 74 -203q0 -38 -8 -79l-6 -39q-12 -66 -50 -134.5t-77 -96.5q-6 -2 -10 -6q4 -2 8 -7q33 -37 55 -103q14 -44 14 -86q0 -21 -4 -42l-20 -117q-29 -168 -171.5 -281.5t-314.5 -113.5h-641q-33 0 -26 33zM494 266 l4 3q4 3 12 7.5t17.5 8.5t20.5 6t21 2h185q61 0 99 28.5t48 79.5l21 115q2 11 2 22q0 36 -22 57q-28 28 -89 28h-186q-6 0 -14.5 2t-14.5 4t-11 5t-10.5 6t-8.5 5t-5 4l-2 2l1 -4q1 -4 3 -10t3 -13.5t1 -14.5v-15l-47 -270q-2 -6 -5 -14.5t-7 -15.5t-8 -13.5t-5 -8.5z M594 834l2 1l6 3l10 5t12.5 6t13.5 5t15.5 3t16.5 1h184q61 0 99 28.5t46 80.5l11 53q2 11 2 22q0 36 -22 58q-28 28 -89 28h-184q-10 0 -20.5 2.5t-18.5 6.5t-14.5 8t-10.5 7l-4 3l2 -4q2 -4 3 -10t2 -13.5t2 -14.5t-1 -15l-36 -211q-2 -6 -5.5 -14.5t-6.5 -15.5t-7 -12 t-5 -7z" />
<glyph unicode="C" horiz-adv-x="1200" d="M141 393l111 633q31 168 171 289t302 121h254q162 0 260 -121q76 -94 76 -217q0 -35 -6 -72l-15 -74q-4 -25 -30 -24h-299q-27 0 -23 24l6 39q5 26 5 46q-1 39 -19 59q-28 30 -94 30h-86q-66 0 -104 -29.5t-52 -105.5l-98 -563q-4 -23 -4 -42q0 -42 18 -62q26 -30 94 -29 h86q68 0 106 29.5t52 103.5l6 39q4 27 31 27h299q27 0 22 -27l-14 -74q-29 -166 -169 -284.5t-302 -118.5h-254q-164 0 -262 118q-75 91 -75 210q0 36 7 75z" />
<glyph unicode="D" horiz-adv-x="1300" d="M119 27l241 1368q4 27 31 26h635q172 1 272 -119q78 -93 79 -215q0 -35 -7 -73l-106 -604q-31 -170 -174.5 -290t-315.5 -120h-633q-27 0 -22 27zM498 285l2 1l6 3l10 5t12.5 5t13.5 5t15 4t16 1h193q61 0 99 29t46 78l105 590q2 11 2 21q0 35 -22 57q-28 28 -89 28h-192 q-8 0 -15.5 2t-13.5 4t-12 5t-10.5 6.5t-7.5 5.5t-5 4l-2 2v-2q0 -2 1 -6.5t2 -8.5t2 -9l2 -10t1 -11.5t-2 -10.5l-131 -745q0 -6 -2 -11t-4 -10.5t-5 -10.5t-6 -9t-5 -6t-2 -3z" />
<glyph unicode="E" d="M119 33l239 1356q6 33 39 32h834q27 0 22 -24l-47 -258q-4 -27 -30 -27h-463q-6 0 -14.5 2t-14.5 4t-11 5t-10.5 6.5t-8.5 5.5t-5 4l-2 2l1 -2q1 -2 2 -6.5t2 -8.5t2 -9t1 -10v-11.5v-10.5l-30 -178q-2 -6 -4.5 -12t-5.5 -12.5t-6 -11.5t-6 -9t-5 -6l-2 -2l3 1q3 1 7 3 t9.5 5t12.5 6t14 5t14.5 3.5t15.5 1.5h409q27 0 21 -27l-37 -219q-6 -27 -33 -27h-407q-8 0 -15.5 1t-14.5 4t-12 6t-10.5 6.5t-8.5 5.5t-5 3l-2 1q10 -43 8 -58l-41 -235q-2 -10 -28 -57l3 2q3 2 7 4t9 5t12.5 6t14.5 5t15 4t14 2h498q27 0 23 -26l-45 -256q-4 -27 -31 -27 h-871q-33 0 -26 33z" />
<glyph unicode="F" horiz-adv-x="1017" d="M119 27l239 1362q6 33 39 32h834q27 0 22 -24l-45 -258q-4 -25 -30 -25h-463q-8 0 -15.5 1t-13.5 4t-12 5t-10.5 5.5t-7.5 6.5t-5 4l-2 1q10 -41 8 -58l-32 -180q0 -6 -2 -11t-5.5 -10t-6.5 -10.5t-5 -9.5t-4 -7t-4 -4t-2 -2t3 1t7 4t9.5 5t12.5 5t14 5t15.5 4t14.5 1 l368 -2q27 0 23 -24l-39 -219q-4 -27 -31 -27h-368q-8 0 -15.5 1t-13.5 4t-12 5t-10.5 5.5t-8.5 6.5t-5 4l-1 1v-2q0 -2 1 -5.5t2 -7.5t2 -10t2 -11t1 -10t-2 -12l-96 -544q-4 -27 -31 -27h-297q-27 0 -22 27z" />
<glyph unicode="G" horiz-adv-x="1249" d="M141 393l111 633q31 170 174 290t315 120h244q170 0 271 -118q79 -92 79 -205q0 -32 -6 -66l-6 -41q-6 -27 -31 -27h-297q-27 0 -22 27l2 16q3 14 3 27q0 34 -22 53q-28 24 -92 24h-116q-61 0 -99.5 -31.5t-48.5 -88.5l-102 -578q-4 -22 -4 -41q0 -42 20 -63 q27 -29 92 -29h111q66 0 103.5 29.5t51.5 103.5l15 80q0 6 4 14t9 15.5l9 13.5t7 11l4 5l-4 -2q-3 -2 -7 -4t-9 -5t-12 -6t-14.5 -5t-15.5 -4t-14 -2h-74q-27 0 -20 26l32 191q6 25 33 24h445q27 0 20 -24l-63 -363q-29 -168 -172.5 -287.5t-315.5 -119.5h-244 q-172 0 -273 120q-78 92 -78 213q0 36 7 74z" />
<glyph unicode="H" horiz-adv-x="1349" d="M102 27l242 1370q6 25 33 24h297q27 0 22 -24l-88 -498q0 -4 -2 -10t-5 -11.5t-5 -10.5t-5 -8t-5 -6t-3 -5l-1 -2l2 1l6 3t9 5t12 6t14.5 5t15.5 3t16 1h289q8 0 16.5 -1t14.5 -3t11 -5t10.5 -6t8.5 -5t5 -3l2 -1l-1 2q-1 2 -2 5l-2 6t-2 8t-2 10.5t-1 11.5t2 10l86 498 q6 25 32 24h297q27 0 23 -24l-242 -1370q-4 -27 -31 -27h-299q-27 0 -20 27l94 540q2 12 29 60l-2 -2t-6 -4.5t-10.5 -5.5t-12.5 -6t-13 -5t-15.5 -4t-16.5 -2h-291q-8 0 -15 2t-13.5 4t-12.5 5t-10 6t-7 5.5t-5 4.5l-2 2v-2q0 -2 1 -6.5t3 -8.5t2 -9t1 -10t1 -11.5v-12.5 l-96 -540q-4 -27 -31 -27h-299q-27 0 -23 27z" />
<glyph unicode="I" horiz-adv-x="618" d="M119 27l241 1370q4 25 33 24h293q12 0 19.5 -7t5.5 -17l-242 -1370q-4 -27 -35 -27h-291q-12 0 -19 7t-5 20z" />
<glyph unicode="J" horiz-adv-x="636" d="M-63 -301l36 211q4 31 35 31h12q125 0 142 100l239 1352q6 33 39 32h287q33 0 27 -32l-232 -1317q-31 -170 -174 -290t-315 -120h-70q-33 0 -26 33z" />
<glyph unicode="K" horiz-adv-x="1239" d="M119 27l241 1370q4 25 31 24h297q27 0 23 -24l-64 -361q-8 -43 -37 -118q45 63 88 106l385 383q14 14 35 14h371q16 0 19 -9t-11 -21l-563 -545q-20 -18 -57 -31l3 -2t8 -5l10 -6t10 -8.5t7 -11.5l359 -751q8 -12 1 -21.5t-24 -9.5h-327q-20 0 -29 16l-250 531 q-2 4 -2 13t1 16.5t3 14.5l2 7q-29 -45 -37 -51l-51 -51q-4 -4 -15 -6.5t-21.5 -1.5t-10.5 0t5 -3t11.5 -6t10.5 -10t4 -10l-76 -432q-6 -27 -33 -27h-295q-27 0 -22 27z" />
<glyph unicode="L" horiz-adv-x="942" d="M119 33l239 1356q6 33 39 32h285q35 0 29 -32l-185 -1039q-2 -12 -30 -63q57 22 74 22h1h365q35 0 29 -30l-43 -246q-6 -33 -39 -33h-736q-33 0 -28 33z" />
<glyph unicode="M" horiz-adv-x="1732" d="M119 33l239 1356q6 33 39 32h330q29 0 35 -24l170 -783q4 -18 4 -96q27 76 39 96l446 783q14 25 43 24h330q33 0 29 -32l-240 -1356q-6 -33 -39 -33h-284q-33 0 -27 33l113 649q2 12 9 34.5t14 43t14.5 38t7.5 19.5q0 -2 -13.5 -23.5t-30 -50t-24.5 -45.5l-367 -675 q-12 -23 -34 -23h-152q-25 0 -27 23l-129 675q-2 16 -9 45t-12 50.5t-5 23.5v-19q0 -18 1 -38.5t0 -44t-3 -35.5l-117 -647q-4 -33 -39 -33h-283q-33 0 -28 33z" />
<glyph unicode="N" horiz-adv-x="1406" d="M119 33l239 1356q6 33 39 32h275q27 0 37 -22l288 -717q4 -10 12.5 -30.5t15.5 -35t7 -16.5l-2 22q-2 23 -4 43.5t0 36.5l121 687q6 33 39 32h282q35 0 29 -32l-240 -1356q-4 -33 -38 -33h-254q-27 0 -35 23l-301 765q-4 10 -13.5 31t-16.5 36t-7 17q0 -2 3 -23.5t4 -42 t1 -36.5l-131 -737q-6 -33 -39 -33h-285q-33 0 -26 33z" />
<glyph unicode="O" horiz-adv-x="1261" d="M141 393l111 633q31 168 171 289t302 121h276q163 0 261 -121q76 -93 76 -215q0 -36 -7 -74l-112 -633q-29 -166 -169.5 -284.5t-301.5 -118.5h-277q-164 0 -262 118q-75 91 -75 210q0 36 7 75zM500 428q-5 -25 -5 -45q0 -39 18 -59q27 -30 95 -29h111q66 0 103.5 29.5 t51.5 103.5l99 563q5 26 5 46q0 39 -18 59q-28 30 -96 30h-110q-66 0 -104 -29.5t-52 -105.5z" />
<glyph unicode="P" horiz-adv-x="1185" d="M104 33l238 1356q6 33 39 32h623q172 1 273 -113q79 -89 79 -212q0 -34 -6 -70l-27 -145q-29 -168 -170 -282t-315 -114h-236q-25 0 -80 29q6 -42 6 -63v-9l-73 -409q-6 -33 -39 -33h-285q-33 0 -27 33zM563 754l3 1q3 1 7.5 4t9.5 5t12 5l14 6t15.5 4t14.5 1h184 q61 0 99.5 29t48.5 78l20 119q2 11 2 21q1 35 -21 57q-28 28 -89 28h-185q-8 0 -15 2t-13 4t-12.5 5t-10.5 6.5t-8 5.5t-5 4t-3 2q10 -45 8 -60l-47 -270q0 -6 -2 -11t-5 -11.5t-6.5 -11.5t-5.5 -9t-4 -7t-4 -5z" />
<glyph unicode="Q" horiz-adv-x="1263" d="M141 393l111 633q31 168 171 289t302 121h279q162 0 259 -121q75 -93 75 -214q0 -36 -7 -75l-110 -633q-29 -160 -161 -277.5t-288 -125.5h-14q-10 0 -19.5 4t-17.5 9t-8 7q12 -33 8 -53l-27 -154q-6 -33 -39 -32h-170q-33 0 -26 32l26 154q4 20 29 53q-2 -2 -12 -7 t-21.5 -9t-19.5 -4h-15q-154 10 -244 126q-68 89 -68 203q0 36 7 74zM500 428q-5 -25 -5 -45q0 -39 18 -59q27 -29 95 -29h111q66 0 103.5 29.5t51.5 103.5l99 563q5 26 5 46q0 40 -18 59q-28 30 -96 30h-110q-66 0 -104 -29.5t-52 -105.5z" />
<glyph unicode="R" horiz-adv-x="1261" d="M119 33l239 1356q6 33 39 32h621q174 1 276 -113q78 -87 78 -206q0 -36 -8 -76l-18 -113q-20 -113 -95 -204t-182 -136q-10 -4 -47 7l7 -8q7 -7 13.5 -15t8.5 -12l163 -506q4 -18 -4 -28.5t-28 -10.5h-289q-29 0 -35 25l-139 462q-2 4 -2 11.5v14.5t1 14.5t1 11.5v4 l-2 -3q-2 -3 -5 -6.5t-7.5 -6.5t-11.5 -5t-15 -2h-82q-6 0 -11 1t-10.5 2t-9.5 3t-7 4t-6 4.5t-4 3.5l-1 1q6 -39 4 -54l-80 -452q-6 -33 -39 -33h-287q-33 0 -26 33zM582 772l3 1q3 1 7 4t9 6t12.5 5.5t14.5 5.5t15 4t14 1h185q61 0 99 28.5t48 79.5l17 99q3 13 3 24 q0 34 -22 54q-29 28 -90 28h-184q-6 0 -14.5 2t-14.5 4t-11 5t-10.5 6.5t-8.5 5.5t-5 4l-2 2q10 -45 8 -58l-45 -254q0 -6 -2 -11t-5 -10t-5 -11t-5 -10.5l-5 -7.5t-3 -4z" />
<glyph unicode="S" horiz-adv-x="1185" d="M111 395l14 82q6 33 39 33h285q35 0 28 -33l-10 -49q-4 -22 -3 -41q0 -43 18 -63q28 -30 93 -29h109q127 0 152 133l6 35q2 9 2 18q0 60 -74 86l-369 127q-106 33 -153 123q-34 65 -34 134q0 26 5 53l4 28q29 166 172.5 285t313.5 119h227q180 0 269 -118q67 -88 66 -208 q0 -40 -7 -84l-4 -27q-6 -33 -39 -32h-285q-35 0 -29 32l8 41q1 7 1 14q0 28 -22 48q-26 24 -73 24h-145q-39 0 -66.5 -26.5t-34.5 -65.5l-2 -10q-2 -12 -2 -22q0 -58 64 -80l371 -127q125 -47 168 -120q27 -46 28 -116q0 -41 -10 -90l-12 -80q-31 -168 -175.5 -285.5 t-320.5 -117.5h-229q-175 0 -275 120q-77 91 -76 212q0 37 7 77z" />
<glyph unicode="T" horiz-adv-x="952" d="M158 1145l43 244q6 33 39 32h934q33 0 26 -32l-43 -244q-6 -33 -39 -33h-233q-6 0 -14.5 2t-15.5 4t-13 5t-10.5 6.5t-8.5 6.5t-6 4l-2 1q10 -43 8 -54l-186 -1054q-6 -33 -39 -33h-285q-33 0 -26 33l186 1054q2 16 27 54l-3 -2t-7.5 -4t-10.5 -5.5t-14 -6.5t-15.5 -5 t-15.5 -4t-16 -2h-234q-33 0 -26 33z" />
<glyph unicode="U" horiz-adv-x="1298" d="M160 397l174 992q6 33 39 32h286q33 0 27 -32l-170 -961q-4 -22 -3 -41q1 -43 19 -63q28 -30 93 -29h110q68 0 106 29.5t50 103.5l170 961q6 33 39 32h286q33 0 27 -32l-174 -992q-31 -168 -174 -287.5t-315 -119.5h-246q-172 0 -274 120q-78 92 -77 211q0 37 7 76z" />
<glyph unicode="V" horiz-adv-x="1236" d="M170 1384q-6 37 33 37h301q31 0 35 -24l127 -860q2 -12 3 -32t1 -39.5t-1 -36.5t-2 -29l-1 -11l4 11q4 12 9 29t11 36.5t13.5 39t13.5 32.5l434 860q12 25 41 24h301q41 0 20 -37l-729 -1357q-14 -27 -47 -27h-278q-35 0 -39 27z" />
<glyph unicode="W" horiz-adv-x="1910" d="M176 1384q-6 37 35 37h301q29 0 31 -26l57 -858v-11q0 -34 -8 -139q35 129 45 150l369 858q12 27 41 26h278q29 0 31 -26l67 -860q0 -18 -8 -148q35 131 43 148l361 860q12 27 41 26h301q41 0 22 -37l-655 -1357q-14 -27 -43 -27h-256q-29 0 -33 27l-94 804q-1 9 -1 27 q0 36 5 107q-31 -106 -43 -134l-379 -804q-14 -27 -43 -27h-256q-29 0 -33 27z" />
<glyph unicode="X" horiz-adv-x="1310" d="M-73.5 11.5q-4.5 11.5 10.5 27.5l600 688q2 2 7 5l10 6t9 5t8 3l4 2l-3 2q-3 2 -7 4l-8 4t-8 5t-6 5l-342 614q-8 16 0 27.5t28 11.5h349q27 0 36 -20l177 -342q2 -6 5 -14.5t4 -16.5t3 -16t2 -15.5t1 -12.5t1 -9v-4q33 72 45 86l299 344q18 20 43 20h348q20 0 24.5 -11 t-10.5 -28l-559 -614q-2 -2 -7 -5t-11 -5t-11 -4t-8 -4l-4 -2l4 -2q3 -1 7 -3t9 -5t9 -6t6 -5l357 -688q8 -16 -0.5 -27.5t-28.5 -11.5h-346q-27 0 -37 20l-199 388q-2 6 -5 14t-4 16t-2 16.5t-2 15.5t-1 13v11v4l-2 -4q-2 -5 -4 -11t-5 -13t-7.5 -15.5t-8.5 -16.5t-10 -16 t-10 -14l-334 -388q-18 -20 -45 -20h-346q-20 0 -24.5 11.5z" />
<glyph unicode="Y" horiz-adv-x="1107" d="M147 1382q-6 18 3.5 28.5t27.5 10.5h303q29 0 35 -22l150 -492q2 -8 4 -19t3 -22.5t1 -23v-19.5v-14v-6l2 6q2 6 5 14t8 19.5t9 21.5t10.5 21.5t10.5 19.5l323 494q14 23 43 22h304q18 0 23 -10t-5 -29l-582 -837q-10 -12 -34 -33v-2q6 -18 4 -29l-78 -448 q-6 -33 -39 -33h-291q-33 0 -27 33l80 448q0 2 2 7.5t4.5 9.5t4.5 7t3 5l1 2q-18 25 -23 33z" />
<glyph unicode="Z" horiz-adv-x="1089" d="M-5 9q-3 9 3 30l37 215q4 25 22 45l719 768q10 12 31.5 24.5t38.5 21.5l18 9q-31 -10 -86 -10h-485q-33 0 -27 33l43 244q6 33 39 32h901q18 0 21.5 -9t-2.5 -28l-39 -217q-4 -23 -29 -51l-711 -758q-8 -8 -21 -18t-25.5 -18.5t-23.5 -15.5t-19 -11l-9 -4q4 2 21.5 5 t44 8t45.5 5h567q35 0 29 -33l-43 -243q-6 -33 -39 -33h-1000q-18 0 -21 9z" />
<glyph unicode="[" horiz-adv-x="616" d="M43 -444l346 1964q6 33 39 32h360q16 0 23.5 -9t5.5 -23l-26 -154q-6 -35 -41 -35h-132l-280 -1589h133q14 0 21.5 -9t5.5 -24l-27 -153q-6 -35 -41 -35h-358q-16 0 -23.5 9t-5.5 26z" />
<glyph unicode="\" horiz-adv-x="894" d="M207 1430q6 35 39 34h284q27 0 35 -22l336 -1428q-6 -35 -39 -34h-262q-29 0 -35 24z" />
<glyph unicode="]" horiz-adv-x="616" d="M-51 -444l26 153q6 33 39 33h133l281 1589h-133q-14 0 -21.5 9.5t-5.5 25.5l27 154q6 33 39 32h360q14 0 22.5 -9t4.5 -23l-346 -1964q-6 -35 -39 -35h-361q-14 0 -21 9t-5 26z" />
<glyph unicode="^" horiz-adv-x="1189" d="M117 909.5q-4 8.5 8 22.5l690 854q14 16 23 0l383 -854q6 -14 -1.5 -22.5t-23.5 -8.5h-258q-25 0 -31 14l-143 365q-8 18 -10 36.5t-2 34v17.5q0 -2 -5.5 -17.5t-14.5 -34t-21 -36.5l-281 -365q-12 -14 -35 -14h-258q-16 0 -20 8.5z" />
<glyph unicode="_" horiz-adv-x="884" d="M150 27l38 225q6 29 33 29h504q25 0 20 -29l-38 -225q-6 -27 -31 -27h-504q-27 0 -22 27z" />
<glyph unicode="`" horiz-adv-x="567" d="M291 1574.5q8 12.5 24 12.5h244q23 0 33 -22l133 -273q4 -10 -3 -18t-20 -8h-167q-18 0 -31 14l-211 270q-10 12 -2 24.5z" />
<glyph unicode="a" horiz-adv-x="1122" d="M115 403l57 328q31 176 167 294t294 118h63q104 0 185 -90q8 -8 19 -26.5t11 -22.5l-1 11t-1 26.5t2 27.5l9 35q4 29 32 29h269q12 0 19 -9.5t5 -19.5l-190 -1075q-2 -10 -11.5 -18.5t-21.5 -8.5h-268q-12 0 -19.5 8t-5.5 19l6 37q2 12 8.5 27.5t10.5 26.5l4 11 q-2 -4 -19.5 -22.5t-29.5 -28.5q-111 -90 -215 -90h-64q-158 0 -252 118q-71 89 -71 211q0 40 8 84zM453 426q-5 -28 -5 -50q0 -44 18 -64q27 -32 97 -31h103q82 0 96 81l74 410q2 11 2 21q0 59 -74 59h-100q-70 0 -108 -32t-52 -113z" />
<glyph unicode="b" horiz-adv-x="1193" d="M102 29l285 1609q4 27 33 27h282q12 0 19.5 -8t5.5 -19l-92 -524q-2 -10 -7 -22.5t-10.5 -23.5t-11.5 -21.5l-10 -17.5l-4 -7q6 8 51 45q37 31 106.5 54.5t137.5 23.5h47q158 0 247 -118q65 -86 65 -204q0 -44 -9 -92l-57 -328q-31 -176 -166 -294.5t-295 -118.5h-78 q-104 0 -182 90q-25 27 -33 49v-7t1 -14.5t1 -18.5t-2 -21l-6 -39q-6 -27 -35 -27h-258q-12 0 -19.5 8t-5.5 19zM502 362q-2 -12 -2 -23q0 -58 65 -58h2h123q68 0 106 31.5t52 115.5l49 279q5 28 5 51q0 42 -18 62q-26 32 -93 32h-121q-82 0 -97 -80z" />
<glyph unicode="c" horiz-adv-x="1101" d="M115 424l49 285q33 182 177 309t318 127h164q96 0 170 -40t114 -101q41 -60 57 -128q9 -38 9 -73q0 -28 -6 -55l-4 -23q-4 -27 -33 -27h-280q-12 0 -19.5 8.5t-5.5 18.5l2 14q2 12 2 22q-1 32 -19 56q-24 31 -91 31h-60q-66 0 -103.5 -32t-51.5 -114l-47 -272 q-5 -29 -5 -52q0 -42 16 -62q26 -32 93 -31h57q129 0 150 108l2 15q4 27 33 26h280q12 0 19.5 -8t5.5 -18l-4 -23q-10 -59 -50 -128t-101.5 -129t-149.5 -100t-182 -40h-166q-173 0 -273 127q-75 95 -75 222q0 42 8 87z" />
<glyph unicode="d" horiz-adv-x="1198" d="M113 403l57 328q33 178 163 296t288 118h47q68 0 129 -23.5t86 -54.5q33 -37 37 -45l-2 7q-3 7 -5 17.5t-3 22.5t-2 23.5t1 21.5l92 524q4 27 33 27h283q12 0 19 -8t5 -19l-282 -1609q-2 -10 -12.5 -18.5t-22.5 -8.5h-258q-12 0 -18.5 8t-4.5 19l7 39q2 10 5 21t6 18.5 t6 14.5l3 7q-16 -23 -49 -49q-111 -90 -215 -90h-78q-160 0 -253 118q-70 89 -70 211q0 40 8 84zM455 428q-5 -29 -5 -52q0 -44 17 -64q26 -32 94 -31h121q82 0 96 81l72 410q2 12 2 22q0 58 -70 58h-120q-68 0 -106 -32t-52 -113z" />
<glyph unicode="e" d="M113 418l51 291q31 180 176 308t319 128h172q175 0 273 -129q75 -98 74 -227q0 -41 -7 -84l-36 -209q-6 -27 -31 -27l-588 -2q-47 0 -67 16q10 -25 6 -43l-9 -47q-3 -19 -3 -34q0 -78 83 -78h2h142q68 0 80 55l2 12q6 20 30 21h281q31 0 20 -29l-2 -8 q-47 -141 -170 -242.5t-256 -101.5h-200q-175 0 -275 126q-76 95 -75 219q0 41 8 85zM481 676q31 14 74 14h221q43 0 68 -14q-8 37 -4 55l6 43q8 37 -11.5 57.5t-58.5 20.5h-164q-39 0 -65.5 -20.5t-32.5 -57.5l-8 -43q-2 -20 -25 -55z" />
<glyph unicode="f" horiz-adv-x="811" d="M121 870l41 228q6 35 37 35h110q53 0 68 -17q-12 23 -6 55l12 72q33 184 158 301t321 119h129q27 0 23 -27l-43 -235q-6 -37 -37 -35h-35h-5q-149 0 -171 -127l-12 -65q-6 -35 -25 -58q18 16 78 17h180q33 0 27 -35l-39 -228q-6 -35 -39 -34h-186q-18 0 -36 4t-24 7t-8 5 q10 -29 6 -49l-135 -774q-4 -27 -33 -27h-284q-10 0 -17.5 8t-5.5 19l135 774q4 23 25 49q-2 -2 -10.5 -5t-27 -7t-36.5 -4h-109q-33 0 -26 34z" />
<glyph unicode="g" horiz-adv-x="1175" d="M-29 -188l17 100q12 68 57 132.5t96 88.5q-29 14 -47 54q-12 28 -12 55q0 12 2 24l4 23q18 104 135 160q-69 76 -69 185q0 37 8 77l10 53q35 180 174 280.5t309 100.5h170q135 0 230 -64q10 -6 24 -26q10 18 23 24q94 55 205 56h39q12 0 18 -8.5t4 -20.5l-39 -232 q-6 -27 -35 -26h-24q-31 0 -68 -4q-6 0 -13 2t-12.5 4t-9.5 5t-6 5l-2 2q4 -6 10.5 -24.5t4.5 -28.5q6 -18 2 -45l-11 -53q-33 -176 -174 -278.5t-309 -102.5h-219q-80 0 -88 -47l-2 -13q-4 -23 15.5 -35t55.5 -12l324 2q162 0 247 -84q65 -64 65 -166q0 -33 -7 -69l-14 -84 q-27 -152 -158 -239t-297 -87h-305q-168 0 -261 82q-73 64 -73 171q0 30 6 63zM268 -131q-2 -14 -2 -25q0 -65 76 -65h340q43 0 70.5 24.5t35.5 67.5l3 10q2 12 2 22q0 66 -78 66h-344q-84 0 -101 -90zM500 707q-6 -39 12 -59.5t55 -20.5h162q37 0 63.5 20.5t32.5 59.5 l11 61q6 39 -12.5 59.5t-55.5 20.5h-162q-37 0 -63.5 -20.5t-32.5 -59.5z" />
<glyph unicode="h" horiz-adv-x="1218" d="M102 29l285 1609q4 27 33 27h285q12 0 19 -8t5 -19l-94 -524q0 -10 -5 -22.5t-11.5 -23.5t-11.5 -21.5t-9 -17.5l-4 -7q8 12 51 45q37 31 106.5 54.5t135.5 23.5h49q156 0 243 -118q64 -87 64 -207q0 -43 -8 -89l-123 -694q-6 -35 -39 -35h-274q-33 0 -27 35l117 670 q6 31 6 55q-1 38 -17 58q-26 32 -94 32h-63q-68 0 -105.5 -32t-52.5 -113l-119 -678q-4 -27 -32 -27h-285q-12 0 -19.5 8t-5.5 19z" />
<glyph unicode="i" horiz-adv-x="577" d="M102 29l191 1075q4 29 33 29h282q12 0 19.5 -8.5t5.5 -20.5l-189 -1075q-6 -27 -34 -27h-283q-12 0 -19.5 8t-5.5 19zM319 1260l39 219q4 29 33 28h285q12 0 18 -8t4 -20l-39 -219q-4 -29 -32 -29h-283q-12 0 -19.5 8t-5.5 21z" />
<glyph unicode="j" horiz-adv-x="561" d="M-127 -471l43 240q2 20 29 26h12q92 12 117 142l205 1167q4 29 32 29h285q10 0 17.5 -8.5t4.5 -20.5l-206 -1174q-31 -178 -178.5 -306t-319.5 -128h-14q-33 0 -27 33zM307 1260l39 219q4 29 33 28h283q12 0 19 -8t5 -20l-39 -219q-6 -29 -35 -29h-282q-12 0 -18.5 8 t-4.5 21z" />
<glyph unicode="k" horiz-adv-x="1054" d="M102 29l279 1577q4 29 33 28h284q10 0 17.5 -8t5.5 -18l-121 -697q-10 -47 -53 -151q53 86 104 139l211 219q18 20 43 21h326q20 0 23 -13.5t-13 -29.5l-407 -402q-25 -23 -52 -32q25 -14 35 -35l254 -584q8 -16 -1 -28.5t-28 -12.5h-301q-27 0 -34 25l-144 366 q-2 6 -2 14.5t1 15.5t2 13l1 6q-8 -20 -22 -34l-37 -39q-6 -8 -23 -9h2q4 -2 6.5 -3t5.5 -3t3 -6l-56 -319q-6 -27 -34 -27h-283q-12 0 -19.5 8t-5.5 19z" />
<glyph unicode="l" horiz-adv-x="577" d="M102 29l279 1575q4 29 33 28h284q10 0 17.5 -8t5.5 -20l-277 -1575q-6 -27 -34 -27h-283q-12 0 -19.5 8t-5.5 19z" />
<glyph unicode="m" horiz-adv-x="1884" d="M102 29l191 1075q4 29 33 29h247q33 0 29 -29l-2 -4q0 -10 -19.5 -44t-19.5 -36q18 20 51 47q35 31 104.5 54.5t125.5 23.5h88q76 0 140.5 -33t105.5 -80q4 -6 5 -15t-2 -16.5t-7 -13.5l-3 -6q0 2 10.5 12.5t26 24.5t25.5 20q61 45 143 77q77 30 153 30h9h61 q156 -2 246 -119q66 -86 66 -206q0 -42 -8 -89l-123 -702q-6 -27 -35 -27h-283q-12 0 -18 8t-4 19l118 678q5 27 5 49q1 44 -19 64q-28 32 -96 32h-105q-84 0 -98 -80l-131 -743q-4 -27 -33 -27h-282q-12 0 -19.5 8t-5.5 19l119 678q6 30 6 53q1 40 -17 60q-28 32 -96 32 h-110q-86 0 -99 -80l-131 -743q-6 -27 -34 -27h-283q-12 0 -19.5 8t-5.5 19z" />
<glyph unicode="n" horiz-adv-x="1220" d="M102 29l191 1075q4 29 33 29h247q33 0 29 -29l-2 -4q0 -10 -10 -29.5t-19.5 -34t-9.5 -16.5q18 20 51 47q35 31 103.5 54.5t126.5 23.5h90q156 0 247 -117q68 -87 68 -206q0 -41 -8 -85l-125 -708q-6 -27 -35 -27h-282q-12 0 -18.5 8t-4.5 19l119 678q5 28 5 51 q0 42 -18 62q-26 32 -94 32h-112q-86 0 -99 -80l-131 -743q-6 -27 -34 -27h-283q-12 0 -19.5 8t-5.5 19z" />
<glyph unicode="o" horiz-adv-x="1122" d="M113 420l51 289q33 182 176 309t317 127h170q173 0 273 -127q75 -95 75 -222q0 -42 -8 -87l-51 -289q-31 -180 -174 -306t-315 -126h-176q-171 0 -271 126q-75 95 -75 220q0 41 8 86zM455 424q-5 -29 -5 -52q0 -40 16 -60q26 -30 93 -31h64q66 0 103.5 30.5t51.5 112.5 l49 278q5 29 5 51q0 42 -17 63q-26 32 -94 32h-62q-68 0 -104.5 -32t-50.5 -114z" />
<glyph unicode="p" horiz-adv-x="1146" d="M-37 -504l283 1610q2 10 12 18.5t23 8.5h258q12 0 18 -8.5t4 -20.5l-6 -39q-2 -8 -5 -19.5t-7 -19.5t-6 -14t-5 -6q18 23 52 47q109 90 215 90h78q158 0 252 -118q71 -89 71 -210q0 -40 -8 -84l-57 -328q-33 -178 -163 -295.5t-288 -117.5h-47q-68 0 -129.5 22.5 t-87.5 55.5q-33 35 -35 43l2 -7q2 -8 3 -17t3 -21.5t3 -23.5t-1 -22l-92 -524q-4 -29 -33 -28h-284q-10 0 -17.5 8t-5.5 20zM455 360q-2 -12 -2 -23q0 -56 69 -56h121q68 0 105.5 31.5t52.5 115.5l49 279q5 28 5 51q0 42 -17 62q-27 32 -95 32h-122q-80 0 -95 -80z" />
<glyph unicode="q" horiz-adv-x="1103" d="M113 403l57 328q33 176 168 294t293 118h69q104 0 185 -90q23 -25 30 -47v6t-1 14t0 19.5t1 19.5l9 39q4 29 32 29h269q12 0 18 -8.5t6 -18.5l-284 -1610q-4 -29 -33 -28h-293q-12 0 -19.5 8t-5.5 20l93 524q2 8 7 20.5t11 25t11 22.5t10 16l4 7q-6 -8 -52 -43 q-37 -33 -106.5 -55.5t-136.5 -22.5h-37q-158 0 -247 118q-66 87 -66 207q0 42 8 88zM455 428q-5 -29 -5 -52q0 -43 17 -64q26 -31 94 -31h111q82 0 96 79l72 412q2 12 2 22q0 58 -68 58h-112q-68 0 -106 -32t-52 -113z" />
<glyph unicode="r" horiz-adv-x="763" d="M102 29l191 1075q4 29 33 29h247q33 0 29 -29l-2 -4q0 -8 -10 -26.5t-19.5 -35t-9.5 -18.5q18 20 51 47q35 31 104.5 54.5t125.5 23.5h82q10 0 17 -8.5t5 -20.5l-41 -239q-6 -27 -35 -27h-198q-84 0 -99 -80l-129 -741q-6 -27 -34 -27h-283q-12 0 -19.5 8t-5.5 19z" />
<glyph unicode="s" horiz-adv-x="1056" d="M84 311l6 37q4 29 33 29h260q33 0 35 -23l-2 -37q-2 -36 52 -36h3h213q59 0 70 53l4 33q2 9 2 16q0 33 -35 43l-309 45q-142 14 -202 98q-43 60 -43 143q0 33 7 70l4 33q25 139 136.5 234.5t254.5 95.5h252q139 -1 220 -97q68 -81 68 -185q0 -21 -3 -42l-4 -26 q-6 -27 -35 -27h-258q-33 0 -35 20v27q2 37 -55 37h-180q-59 0 -70 -53l-4 -23q-1 -5 -1 -9q0 -32 40 -42l309 -47q141 -16 199 -97q43 -59 43 -142q0 -31 -6 -66l-9 -54q-25 -139 -136 -235t-255 -96h-284q-139 0 -220 96q-68 80 -68 185q0 20 3 42z" />
<glyph unicode="t" horiz-adv-x="933" d="M123 872l41 226q4 35 37 35h186q41 0 68 -17q-10 25 -6 55l34 191q2 8 4 12t7.5 8t8.5 5.5t12 5.5t11 6l293 123q16 6 23.5 1t5.5 -22l-57 -327q-6 -35 -27 -58q18 16 80 17h180q33 0 27 -35l-41 -226q-6 -37 -37 -36h-187q-49 0 -67 16q10 -27 6 -49l-137 -774 q-4 -27 -33 -27h-283q-12 0 -19 8t-5 19l137 774q4 23 23 49q-33 -16 -72 -16h-186q-33 0 -27 36z" />
<glyph unicode="u" horiz-adv-x="1150" d="M141 397l125 707q4 29 33 29h285q10 0 17 -8.5t5 -20.5l-119 -674q-5 -28 -4 -50q-1 -44 17 -64q28 -32 96 -31h109q84 0 98 80l131 739q4 29 33 29h282q12 0 19.5 -8.5t5.5 -20.5l-191 -1073q-4 -29 -32 -29h-248q-33 0 -29 29l2 4q0 8 10.5 26.5t19.5 34.5l9 17 q-18 -18 -51 -45q-35 -31 -103.5 -54.5t-125.5 -23.5h-86q-156 0 -247 116q-68 87 -68 207q0 40 7 84z" />
<glyph unicode="v" horiz-adv-x="968" d="M137 1094q-2 16 7.5 28.5t25.5 12.5h260q29 0 33 -29l78 -569v-8q0 -30 -9 -142q35 129 46 150l276 569q14 29 43 29h260q16 0 21.5 -12.5t-2.5 -28.5l-558 -1067q-14 -27 -40 -27h-228q-27 0 -31 27z" />
<glyph unicode="w" horiz-adv-x="1769" d="M137 1094q-2 16 7.5 28.5t27.5 12.5h258q29 0 33 -27l78 -602q2 -12 2 -30q0 -27 -4 -68q16 61 36 98l322 602q14 27 41 27h252q27 0 33 -27l108 -602q4 -21 4 -52q0 -21 -2 -46q18 72 33 98l291 602q12 27 39 27h260q18 0 23.5 -12.5t-3.5 -28.5l-565 -1067 q-14 -27 -41 -27h-223q-27 0 -31 27l-112 718v52q-16 -49 -17 -52l-364 -718q-14 -27 -43 -27h-222q-29 0 -32 27z" />
<glyph unicode="x" horiz-adv-x="1030" d="M-69 12.5q-3 12.5 12 30.5l452 545q4 4 10.5 8t12.5 6t11 4t7 2l-8 3t-15 8.5t-12 11.5l-225 461q-10 16 -1 29.5t30 13.5h291q29 0 36 -23l93 -242q10 -27 10 -64v-13q14 47 37 77l178 242q14 23 43 23h291q23 0 26.5 -13.5t-12.5 -29.5l-389 -461q-4 -6 -13.5 -11.5 t-17.5 -8.5l-8 -3l5 -2q5 -2 9 -4t10.5 -6t8.5 -8l260 -545q8 -18 0 -30.5t-29 -12.5h-293q-27 0 -36 23l-132 313q-8 23 -8 65q-14 -43 -30 -65l-242 -313q-16 -23 -45 -23h-291q-23 0 -26 12.5z" />
<glyph unicode="y" horiz-adv-x="1024" d="M8 -471l41 238q6 27 31 26h102q41 0 61.5 21.5t43.5 66.5l51 107q2 2 24 16l21 14q-37 -6 -37 5l-184 1071q-2 16 7 28.5t28 12.5h260q29 0 30 -29l78 -559q3 -27 3 -58t-3 -65q18 70 45 125l273 557q14 27 43 29h260q18 0 23 -12.5t-5 -28.5l-669 -1280 q-88 -168 -195 -243t-254 -75h-51q-33 0 -27 33z" />
<glyph unicode="z" horiz-adv-x="997" d="M35 43l41 231q0 6 6 13l520 489q37 33 121 70q-47 -8 -141 -8h-299q-33 0 -27 32l41 230q6 35 39 35h739q39 0 31 -41l-39 -207q-2 -10 -10 -19l-512 -508q-37 -35 -117 -69q45 8 135 8h391q33 0 27 -35l-39 -227q-6 -35 -39 -35h-840q-37 0 -28 41z" />
<glyph unicode="{" horiz-adv-x="708" d="M92 446l31 179q6 35 39 34h14q102 2 142 56.5t63 187.5l68 381q16 96 80.5 161.5t140 91.5t155.5 26h74q14 0 22.5 -10.5t4.5 -24.5l-27 -154q-6 -35 -39 -35h-57q-86 0 -101 -75l-84 -484q-23 -131 -137 -215q-29 -23 -51 -28q20 -8 41 -31q82 -86 59 -213l-88 -483 q-12 -78 74 -78h59q16 0 23.5 -9.5t5.5 -23.5l-29 -156q-4 -33 -38 -32h-76q-59 0 -111.5 15t-96.5 47t-64.5 87t-6.5 129l68 381q12 78 13 132t-29.5 82t-102.5 28h-14q-12 2 -20.5 11t-4.5 23z" />
<glyph unicode="|" horiz-adv-x="663" d="M102 -485l353 1996q6 25 30 25h299q27 0 23 -25l-352 -1996q-4 -27 -31 -27h-299q-27 0 -23 27z" />
<glyph unicode="}" horiz-adv-x="704" d="M-68 -457l27 156q6 33 41 33h59q86 0 101 78l84 483q23 127 133 213q29 23 51 31q-18 6 -41 28q-84 84 -61 215l88 484q12 76 -74 75h-57q-14 0 -22.5 9.5t-4.5 25.5l27 154q6 35 39 35h73q59 0 111.5 -15.5t96.5 -47.5t64.5 -88t6.5 -128l-66 -381q-14 -80 -14 -133 t30.5 -82t100.5 -29h16q14 0 21.5 -9t5.5 -25l-33 -179q-6 -33 -37 -34h-14q-102 0 -141 -55.5t-62 -186.5l-67 -381q-16 -96 -81 -161.5t-140.5 -91t-155.5 -25.5h-78q-14 0 -21.5 9t-5.5 23z" />
<glyph unicode="~" horiz-adv-x="1140" d="M182 430q45 141 130 222t208 81q35 0 64.5 -11t111.5 -54q74 -41 105 -41q57 0 92 63q12 18 31 19h170q29 0 18 -29q-45 -139 -130 -220t-206 -81q-16 0 -34.5 3t-30 7t-33 13.5t-27.5 12.5t-29 15l-22 12q-76 43 -106 43q-57 0 -93 -63q-12 -18 -30 -19h-168 q-31 0 -21 27z" />
<glyph unicode="&#xa1;" horiz-adv-x="628" d="M68 -313l213 1020q6 35 36 34h215q31 0 25 -34l-147 -1020q-4 -35 -39 -35h-277q-33 0 -26 35zM326 944l34 201q6 35 39 35h205q33 0 27 -35l-35 -201q-6 -35 -39 -35h-205q-33 0 -26 35z" />
<glyph unicode="&#xa2;" horiz-adv-x="1101" d="M115 424l49 285q31 174 165 297.5t298 136.5l43 243q6 35 39 35l196 -2q14 0 21.5 -9t5.5 -24l-43 -245q102 -18 173 -86t95.5 -150t9.5 -157l-4 -23q-4 -27 -33 -27h-280q-12 0 -19.5 8.5t-5.5 18.5l2 14q8 47 -16.5 78t-91.5 31h-60q-66 0 -103.5 -32t-51.5 -114 l-47 -272q-14 -82 11.5 -113.5t92.5 -31.5h57q129 0 150 108l2 15q4 27 33 26h280q12 0 19.5 -8t5.5 -18l-4 -23q-20 -121 -138 -245t-280 -146l-49 -283q-6 -35 -39 -35h-197q-14 0 -21 9.5t-5 25.5l49 279q-162 12 -251 136t-58 298z" />
<glyph unicode="&#xa3;" horiz-adv-x="1384" d="M80 16l35 205q6 27 30 27h68q68 0 106.5 32.5t53.5 112.5l30 170h-192q-27 0 -21 27l33 194q6 29 31 29h192l33 191q33 178 175.5 306t303.5 128h205q164 0 262.5 -120t65.5 -296l-12 -76q-4 -27 -31 -26h-299q-27 0 -23 26l7 35q14 82 -13.5 114.5t-95.5 32.5h-35 q-68 0 -107.5 -32.5t-54.5 -114.5l-28 -168h174q27 0 20 -29l-35 -194q-4 -27 -30 -27h-174l-27 -160q-10 -57 -43 -106h184q70 0 108 30.5t52 112.5l4 19q4 27 31 26h299q27 0 22 -26l-8 -41q-31 -176 -173 -303t-304 -127h-799q-27 0 -20 28z" />
<glyph unicode="&#xa4;" horiz-adv-x="1488" d="M121 63q-16 20 6 39l158 140q-63 143 -31 327q33 184 149 330l-116 152q-16 18 6 39l156 137q20 18 36 0l117 -152q152 90 327 90t296 -90l170 152q23 18 37 0l106 -137q14 -20 -6 -39l-170 -152q63 -145 31 -330q-31 -184 -146 -327l109 -140q16 -18 -6 -39l-156 -137 q-20 -18 -37 0l-108 140q-154 -92 -330 -92.5t-299 92.5l-158 -140q-21 -18 -37 0zM546.5 569q-22.5 -127 41 -207.5t185.5 -80.5t214 80.5t113.5 207.5t-41 208t-185 81t-214 -81t-114 -208z" />
<glyph unicode="&#xa5;" horiz-adv-x="1142" d="M145 223l35 195q4 27 31 26h258l6 37q0 2 2 7.5t4 9.5t4 7t3 5l1 2q-18 25 -20 33l-10 30h-226q-25 0 -20 27l35 195q4 27 31 26h94l-191 559q-6 18 3.5 28.5t27.5 10.5h303q29 0 35 -22l149 -492q8 -27 9 -84h8q20 57 37 82l323 494q16 23 43 22h303q20 0 24.5 -10 t-5.5 -29l-389 -559h94q27 0 22 -26l-34 -195q-4 -27 -31 -27h-223l-21 -30q-8 -12 -35 -33l2 -2q6 -18 4 -29l-6 -37h256q25 0 21 -26l-35 -195q-4 -27 -31 -26h-256l-28 -164q-6 -33 -39 -33h-289q-35 0 -29 33l29 164h-256q-27 0 -23 26z" />
<glyph unicode="&#xa6;" horiz-adv-x="663" d="M102 -485l140 782q4 27 30 27h299q27 0 21 -27l-137 -782q-4 -27 -31 -27h-299q-27 0 -23 27zM317 729l140 782q4 27 30 27h297q27 0 23 -27l-137 -782q-6 -27 -31 -27h-299q-27 0 -23 27z" />
<glyph unicode="&#xa7;" horiz-adv-x="1335" d="M96 -61l15 88q6 35 39 34h286q35 0 27 -34l-10 -56q-12 -76 15.5 -107.5t90.5 -31.5h127q123 0 148 139l8 45q14 80 -72 111l-379 135q-104 35 -151 131t-29 199l6 29q23 131 121 237q-61 98 -41 215l4 27q31 176 176.5 301t315.5 125h233q180 0 269 -125t57 -309l-6 -29 q-6 -35 -39 -35h-287q-33 0 -27 35l8 47q8 39 -18.5 63.5t-71.5 24.5h-157q-39 0 -67 -27.5t-34 -66.5l-2 -10q-14 -82 62 -111l379 -135q127 -49 169 -127t17 -219l-16 -88q-16 -102 -78 -191q31 -76 10 -200l-16 -89q-31 -180 -177.5 -305t-322.5 -125h-240 q-174 0 -273 127t-69 308zM565 612q-14 -82 64 -108l239 -92q17 -7 33 -15q12 25 19 56l6 45q14 78 -72 110l-240 88q-39 -27 -47 -71z" />
<glyph unicode="&#xa8;" horiz-adv-x="917" d="M305 1303l37 206q6 35 39 35h205q31 0 26 -35l-37 -206q-6 -33 -38 -33h-205q-33 0 -27 33zM762 1303l37 206q6 35 37 35h204q33 0 27 -35l-37 -206q-6 -33 -37 -33h-205q-33 0 -26 33z" />
<glyph unicode="&#xa9;" horiz-adv-x="1449" d="M238.5 876.5q50.5 280.5 259.5 465t476 184.5t411.5 -184.5t94.5 -465t-259 -465t-476.5 -184.5t-412 184.5t-94 465zM356 876.5q-41 -231.5 73 -380t336 -148.5t389 148.5t208 380t-73.5 380t-337 148.5t-388.5 -148.5t-207 -380zM504 776l35 197q23 121 119 206t212 85 h109q109 0 174.5 -75t56.5 -183q0 -25 -24 -25h-182q-18 0 -19 23q0 33 -18.5 48t-57.5 15h-39q-45 0 -71.5 -22.5t-36.5 -77.5l-33 -187q-8 -55 10.5 -76.5t63.5 -21.5h39q72 0 96 57q8 25 27 25h182q25 0 16 -25q-31 -109 -122 -180.5t-199 -71.5h-111q-117 0 -182.5 84 t-44.5 205z" />
<glyph unicode="&#xaa;" horiz-adv-x="870" d="M109 446l22 136q4 18 23 18h634q20 0 17 -18l-23 -136q-4 -18 -24 -18h-633q-20 0 -16 18zM193 973l40 231q20 125 118 209t208 84h45q74 0 129 -63q20 -23 23 -37v8v19.5t2 19.5l4 24q2 20 22 21h191q8 0 13 -6t3 -15l-133 -761q-4 -18 -24 -19h-189q-20 0 -18 21l6 24 q0 8 4 19.5t7 19.5l3 8q-8 -16 -35 -37q-78 -63 -151 -63h-45q-113 0 -179.5 84t-43.5 209zM432 989q-10 -57 9.5 -79.5t66.5 -22.5h74q59 0 69 57l51 291q10 55 -51 55h-71q-47 0 -75 -22.5t-38 -79.5z" />
<glyph unicode="&#xab;" horiz-adv-x="1103" d="M199 479l41 236q4 23 30 43l314 256q10 8 18 2t6 -21l-43 -239q-2 -16 -22 -35l-131 -113q-8 -6 -9.5 -12t5.5 -12l90 -113q14 -18 12 -35l-43 -239q-2 -14 -12.5 -20.5t-18.5 1.5l-223 256q-18 20 -14 45zM731 479l43 236q4 23 29 43l313 256q12 8 19.5 2t5.5 -21 l-41 -239q-4 -16 -25 -35l-131 -113q-6 -6 -7 -12t3 -12l92 -113q14 -18 10 -35l-43 -239q-2 -14 -12 -20.5t-18 1.5l-224 256q-18 20 -14 45z" />
<glyph unicode="&#xac;" horiz-adv-x="1349" d="M225 641l37 207q6 35 39 35h1026q33 0 27 -35l-99 -559q-6 -35 -38 -35h-213q-33 0 -27 35l53 309q2 8 -6 8h-772q-33 0 -27 35z" />
<glyph unicode="&#xad;" horiz-adv-x="741" d="M176 506l33 192q6 29 33 29h503q27 0 21 -29l-33 -192q-6 -27 -33 -27h-503q-27 0 -21 27z" />
<glyph unicode="&#xae;" horiz-adv-x="1058" d="M216 1278.5q34 191.5 176.5 317.5t324.5 126t279.5 -126t63.5 -317.5t-175.5 -316t-323.5 -124.5t-280.5 124.5t-64.5 316zM296 1279q-28 -157 50 -257t228.5 -100t264 100t141.5 257t-50 258t-228.5 101t-264 -101t-141.5 -258zM424 1047l82 460q2 10 12 11h203 q57 0 89 -39t21 -95l-6 -38q-16 -84 -94 -117q-4 -2 -2 -6l51 -174q4 -12 -10 -13h-94q-10 0 -12 8l-46 164q0 4 -6 4h-39q-4 0 -6 -6l-26 -159q-2 -10 -15 -11h-92q-12 0 -10 11zM586 1313q0 -4 4 -4h72q41 0 49 43l2 14q8 45 -33 45h-72q-4 0 -6 -6z" />
<glyph unicode="&#xaf;" horiz-adv-x="886" d="M326 1303l24 143q6 35 39 35h592q33 0 27 -35l-27 -143q-6 -33 -39 -33h-590q-33 0 -26 33z" />
<glyph unicode="&#xb0;" horiz-adv-x="806" d="M301 1225l10 59q20 123 119.5 210t218.5 87h25q119 0 186.5 -87t46.5 -210l-10 -59q-23 -123 -121 -210t-217 -87h-24q-119 0 -187.5 87t-46.5 210zM510 1243q-8 -43 11.5 -69.5t58.5 -26.5h10q39 0 67.5 26.5t34.5 69.5l4 23q8 41 -11 67.5t-58 26.5h-11 q-37 0 -66.5 -26.5t-35.5 -67.5z" />
<glyph unicode="&#xb1;" horiz-adv-x="1138" d="M176 211l33 195q6 27 33 26h854q27 0 22 -26l-35 -195q-4 -27 -30 -27h-856q-27 0 -21 27zM268 934l35 194q4 27 31 27h287l51 289q4 27 30 26h185q25 0 20 -26l-51 -289h287q27 0 22 -27l-35 -194q-4 -27 -30 -27h-287l-51 -295q-6 -27 -33 -26h-184q-25 0 -21 26 l51 295h-286q-25 0 -21 27z" />
<glyph unicode="&#xb2;" horiz-adv-x="933" d="M70 561l39 213q16 94 67 152.5t154 107.5l323 176q39 20 43 50l9 38q4 23 -5 37q-8 12 -30 13h-123q-37 0 -49 -33l-4 -21q-4 -23 -20.5 -36t-37.5 -13h-203q-23 0 -34 17q-8 14 -4 34l2 13q29 137 125 227q102 96 239 96h182q131 0 209 -100q76 -96 52 -234l-9 -53 q-14 -78 -75.5 -145.5t-145.5 -108.5l-350 -184q-4 -4 -8 -4v-6l-2 -9q0 -6 -2 -8q4 2 8 2h432q20 0 32.5 -15t8.5 -36l-31 -170q-4 -25 -19.5 -39t-37.5 -14l-694 2q-20 0 -32.5 13.5t-8.5 37.5z" />
<glyph unicode="&#xb3;" horiz-adv-x="882" d="M74 823l4 21q4 23 19.5 37t37.5 14h201q23 0 34 -14.5t9 -36.5l-6 -25q0 -39 37 -39h118q49 0 58 56l16 84q8 55 -39 55h-88q-16 0 -24.5 10t-6.5 25l25 139q4 16 15.5 26.5t27.5 10.5h74q45 0 53 45l12 65q8 49 -39 50h-94q-43 0 -57 -41l-2 -11q-4 -23 -20.5 -37 t-37.5 -14h-202q-23 0 -33 14.5t-6 36.5l2 13q29 137 125 227q102 96 239 96h170q133 0 205 -90q76 -94 51 -235l-6 -31q-16 -98 -82 -170q-6 -6 -6 -8t4 -4q55 -84 37 -181l-14 -84q-25 -137 -134.5 -232t-244.5 -95h-180q-137 0 -205 93t-47 230z" />
<glyph unicode="&#xb4;" horiz-adv-x="569" d="M256 1274q-4 8 6 18l227 273q18 23 41 22h244q16 0 19.5 -12t-9.5 -25l-307 -270q-18 -14 -37 -14h-166q-14 0 -18 8z" />
<glyph unicode="&#xb5;" horiz-adv-x="1245" d="M18 -455l273 1555q6 33 39 33h270q35 0 29 -33l-119 -676q-14 -82 13.5 -113.5t94.5 -31.5h62q70 0 107.5 31.5t52.5 113.5l118 676q6 33 39 33h277q31 0 26 -33l-188 -1065q-6 -35 -39 -35h-274q-16 0 -23.5 7t-5.5 20q2 10 8 23t12.5 23.5t6.5 12.5q-31 -37 -43 -45 q-66 -53 -166 -53h-58q-43 2 -65.5 19.5t-36.5 43.5q0 -2 2 -14t3 -23.5t-1 -27.5l-76 -441q-6 -33 -39 -32h-272q-33 0 -27 32z" />
<glyph unicode="&#xb6;" horiz-adv-x="1480" d="M221 825l78 441q20 113 110.5 192.5t196.5 79.5h914q14 0 22 -9t4 -26l-344 -1960q-6 -33 -41 -32h-194q-14 0 -21.5 9t-5.5 23l293 1667h-189l-294 -1667q-6 -33 -39 -32h-195q-14 0 -22.5 9t-4.5 23l179 1010h-234q-109 0 -170 80t-43 192z" />
<glyph unicode="&#xb7;" horiz-adv-x="548" d="M117 428l39 223q6 33 39 33h225q33 0 26 -33l-38 -223q-6 -33 -39 -33h-226q-33 0 -26 33z" />
<glyph unicode="&#xb8;" horiz-adv-x="616" d="M0 -463l18 94q4 27 31 27h160q29 0 47 13.5t23.5 27.5t11.5 41q10 63 -58 63h-161q-14 0 -21.5 8.5t0.5 20.5l119 160q2 2 6 9t6 10t7.5 5t11.5 2h127q14 0 22 -8t0 -18l-53 -64h41q72 0 113 -53t28 -129l-8 -47q-14 -76 -74.5 -133.5t-132.5 -57.5h-241q-27 0 -23 29z " />
<glyph unicode="&#xb9;" horiz-adv-x="829" d="M47 563l31 170q4 23 20.5 37t38.5 14h150q23 0 32 -4q-2 10 3 33l86 492q6 29 12 45q-14 -10 -43 -11h-144q-23 0 -33 12.5t-5 34.5l34 193q2 18 17.5 31.5t34.5 13.5h421q23 0 34.5 -14.5t6.5 -36.5l-133 -758q-4 -23 -14 -35q14 4 39 4h137q23 0 34 -14t7 -37l-31 -170 q-4 -23 -20.5 -37t-38.5 -14h-635q-23 0 -34 14.5t-7 36.5z" />
<glyph unicode="&#xba;" horiz-adv-x="858" d="M106 446l23 134q4 20 23 20h612q20 0 16 -20l-22 -134q-4 -18 -25 -18h-610q-20 0 -17 18zM158 983l37 207q23 127 125 217t225 90h119q125 0 194.5 -90t46.5 -217l-35 -207q-23 -127 -124 -215t-224 -88h-125q-121 0 -191.5 88t-47.5 215zM399 987q-10 -57 8.5 -79.5 t67.5 -22.5h43q49 0 74.5 22.5t36.5 79.5l35 197q10 59 -8.5 81.5t-65.5 22.5h-45q-47 0 -74 -22.5t-37 -81.5z" />
<glyph unicode="&#xbb;" horiz-adv-x="1103" d="M199 197l43 239q2 16 22 35l131 113q8 6 9.5 12t-5.5 12l-90 113q-14 18 -12 35l43 239q2 14 12 20.5t19 -1.5l223 -256q18 -20 14 -43l-41 -236q-4 -25 -30 -45l-314 -256q-10 -8 -18 -1.5t-6 20.5zM733 197l41 239q4 16 25 35l129 113q8 6 9 12t-3 12l-92 113 q-14 18 -11 35l41 239q4 14 13.5 20.5t17.5 -1.5l225 -256q16 -20 15 -43l-43 -236q-4 -25 -29 -45l-313 -256q-12 -8 -20.5 -1.5t-4.5 20.5z" />
<glyph unicode="&#xbc;" horiz-adv-x="2127" d="M104 563l29 170q4 23 20.5 37t39.5 14h151q20 0 33 -4q-4 10 0 33l86 492q6 29 14 45q-16 -10 -45 -11h-143q-20 0 -30.5 12.5t-8.5 34.5l35 193q4 18 18 31.5t35 13.5h420q23 0 34 -14.5t7 -36.5l-133 -758q-4 -23 -15 -35q14 4 41 4h135q23 0 34 -14t7 -37l-28 -170 q-4 -23 -20.5 -37t-39.5 -14h-635q-23 0 -34 14.5t-7 36.5zM850 272l520 836q2 2 5 7t5 7t4 6.5t4.5 5.5t6.5 3t7 3t7 1h203q18 0 27.5 -10.5t-1.5 -24.5l-520 -834q-2 -2 -5 -8t-4 -7t-4 -5t-5 -6t-6 -4t-7.5 -2h-7.5h-202q-18 0 -26.5 9t-0.5 23zM1323 68l31 176 q2 14 12 28l446 609q18 27 52 26h317q20 0 30.5 -12.5t6.5 -32.5l-98 -565q-4 -16 -9 -23q8 4 23 5h41q23 0 34 -14.5t7 -37.5l-27 -155q-4 -23 -20.5 -37.5t-38.5 -14.5h-43q-12 0 -19 3q2 -4 0 -17l-30 -164q-2 -20 -17.5 -33.5t-35.5 -13.5h-209q-20 0 -30.5 13.5 t-6.5 33.5l28 164q2 12 7 19q-8 -4 -21 -5h-393q-20 0 -30.5 13.5t-6.5 34.5zM1655 274q10 4 26 5h115q14 0 23 -5q-2 9 0 21l34 203q4 23 11 39q-10 -16 -25 -37l-162 -201q-10 -16 -22 -25z" />
<glyph unicode="&#xbd;" horiz-adv-x="2312" d="M104 563l29 170q4 23 20.5 37t39.5 14h151q20 0 33 -4q-4 10 0 33l86 492q6 29 14 45q-16 -10 -45 -11h-143q-20 0 -30.5 12.5t-8.5 34.5l35 193q4 18 18 31.5t35 13.5h420q23 0 34 -14.5t7 -36.5l-133 -758q-4 -23 -15 -35q14 4 41 4h135q23 0 34 -14t7 -37l-28 -170 q-4 -23 -20.5 -37t-39.5 -14h-635q-23 0 -34 14.5t-7 36.5zM850 272l520 836q2 2 5 7t5 7t4 6.5t4.5 5.5t6.5 3t7 3t7 1h203q18 0 27.5 -10.5t-1.5 -24.5l-520 -834q-2 -2 -5 -8t-4 -7t-4 -5t-5 -6t-6 -4t-7.5 -2h-7.5h-202q-18 0 -26.5 9t-0.5 23zM1468 -154l37 213 q18 94 68.5 152.5t152.5 107.5l324 177q39 20 45 49l6 39q4 23 -4 37q-8 12 -29 12h-124q-37 0 -50 -35l-2 -18q-4 -23 -20.5 -36.5t-38.5 -13.5h-201q-25 0 -35 17q-10 14 -6 35l2 12q29 137 125 227q104 96 240 97h182q133 -1 209 -101q76 -98 51 -233l-8 -54 q-14 -78 -75.5 -145.5t-143.5 -108.5l-350 -184q-6 -4 -8 -4q0 -2 -3 -6v-8q-2 -6 -2 -8q2 2 7 2h432q23 0 34 -15.5t7 -36.5l-29 -172q-4 -23 -20.5 -37t-38.5 -14l-693 2q-23 0 -34 13.5t-7 37.5z" />
<glyph unicode="&#xbe;" horiz-adv-x="2238" d="M154 823l4 21q4 23 19.5 37t37.5 14h201q23 0 34 -14.5t7 -36.5l-4 -25q0 -39 36 -39h119q49 0 58 56l16 84q8 55 -41 55h-86q-16 0 -24.5 10t-6.5 25l25 139q2 16 14 26.5t29 10.5h74q45 0 53 45l12 65q8 49 -39 50h-96q-41 0 -55 -41l-2 -11q-4 -23 -20.5 -37 t-39.5 -14h-200q-23 0 -33 14.5t-6 36.5l2 13q29 137 125 227q102 96 239 96h170q131 0 205 -90q76 -94 51 -235l-6 -31q-18 -98 -82 -170q-6 -6 -6 -8t4 -4q55 -84 37 -181l-14 -84q-25 -137 -134.5 -232t-244.5 -95h-180q-137 0 -205 93t-47 230zM987 272l520 836 q2 2 5.5 7t5.5 7t5 6.5t5 5.5t5 3t6 3t7 1h205q16 0 25.5 -10.5t-0.5 -24.5l-521 -834q-2 -2 -5 -8t-4 -7t-4 -5t-5 -6t-5 -4t-7 -2h-8h-203q-18 0 -26.5 9t-0.5 23zM1460 68l31 176q2 14 14 28l445 609q18 27 51 26h317q20 0 30.5 -12.5t6.5 -32.5l-98 -565q-4 -16 -8 -23 q8 4 22 5h41q23 0 34 -14.5t9 -37.5l-28 -155q-4 -23 -20.5 -37.5t-39.5 -14.5h-43q-12 0 -18 3q2 -4 0 -17l-29 -164q-4 -20 -19.5 -33.5t-35.5 -13.5h-209q-20 0 -30.5 13.5t-6.5 33.5l29 164q2 12 6 19q-8 -4 -21 -5h-393q-20 0 -30.5 13.5t-6.5 34.5zM1792 274 q10 4 27 5h114q14 0 23 -5q-2 9 0 21l35 203q4 23 10 39q-10 -16 -25 -37l-159 -201q-12 -16 -25 -25z" />
<glyph unicode="&#xbf;" horiz-adv-x="1077" d="M141 80l13 65q16 102 96 196.5t199 137.5l141 53q98 37 110 111l21 90q8 35 39 35h209q31 0 26 -35l-14 -100q-14 -129 -79.5 -214t-196.5 -138l-109 -45q-84 -35 -96 -109l-11 -53q-6 -37 11.5 -65.5t54.5 -28.5h158q45 0 80.5 24.5t42.5 63.5l10 59q6 35 39 35h239 q33 0 27 -35l-6 -41q-33 -182 -162 -292.5t-313 -110.5h-181q-176 0 -277 111.5t-71 285.5zM760 969l37 207q6 33 39 32h204q33 0 27 -32l-37 -207q-6 -35 -39 -35h-205q-33 0 -26 35z" />
<glyph unicode="&#xc0;" horiz-adv-x="1398" d="M12 31l666 1370q10 20 35 20h434q23 0 27 -20l182 -1370q4 -31 -27 -31h-313q-25 0 -27 20l-16 244q-2 12 0 24.5t6 26t4 17.5q-49 -18 -76 -19h-346q-27 0 -72 19q0 -4 -1 -17.5t-3 -26t-6 -24.5l-104 -244q-8 -20 -35 -20h-313q-29 0 -15 31zM590 571q59 14 84 15h215 q27 0 80 -15q-25 41 -29 70l-41 387q-4 23 5 51.5t20 40.5q-20 -16 -33 -16h-35q-12 0 -29 16q8 -10 6 -39.5t-12 -52.5l-178 -387q-14 -29 -53 -70zM686 1788q-8 10 0 21.5t23 11.5h243q23 0 33 -21l135 -256q4 -10 -3 -18t-19 -8h-168q-18 0 -31 14z" />
<glyph unicode="&#xc1;" horiz-adv-x="1398" d="M12 31l666 1370q10 20 35 20h434q23 0 27 -20l182 -1370q4 -31 -27 -31h-313q-25 0 -27 20l-16 244q-2 12 0 24.5t6 26t4 15.5q-49 -16 -76 -17h-346q-27 0 -72 17q0 -2 -1 -15.5t-3 -26t-6 -24.5l-104 -244q-8 -20 -35 -20h-313q-29 0 -15 31zM590 571q59 14 84 15h215 q27 0 80 -15q-25 41 -29 70l-41 387q-4 23 5 51.5t20 40.5q-20 -16 -33 -16h-35q-12 0 -29 16q8 -10 6 -39.5t-12 -52.5l-178 -387q-14 -29 -53 -70zM784.5 1526q-4.5 8 6.5 18l223 256q18 20 41 21h243q14 0 18.5 -11.5t-7.5 -21.5l-303 -256q-18 -14 -37 -14h-166 q-14 0 -18.5 8z" />
<glyph unicode="&#xc2;" horiz-adv-x="1398" d="M12 31l666 1370q10 20 35 20h434q23 0 27 -20l182 -1370q4 -31 -27 -31h-313q-25 0 -27 20l-16 244q-2 12 0 24.5t6 26t4 17.5q-49 -18 -76 -19h-346q-27 0 -72 19q0 -4 -1 -17.5t-3 -26t-6 -24.5l-104 -244q-8 -20 -35 -20h-313q-29 0 -15 31zM590 571q59 14 84 15h215 q27 0 80 -15q-25 41 -29 70l-41 387q-4 23 5 51.5t20 40.5q-20 -16 -33 -16h-35q-12 0 -29 16q8 -10 6 -39.5t-12 -52.5l-178 -387q-14 -29 -53 -70zM602.5 1524q-4.5 8 3.5 18l230 248q23 25 36 25h258q14 0 29 -25l141 -248q4 -10 -2 -18t-20 -8h-170q-18 0 -33 16 l-92 104q-8 10 -10 17q-4 -8 -15 -17l-131 -104q-18 -16 -36 -16h-170q-14 0 -18.5 8z" />
<glyph unicode="&#xc3;" horiz-adv-x="1398" d="M12 31l666 1370q10 20 35 20h434q23 0 27 -20l182 -1370q4 -31 -27 -31h-313q-25 0 -27 20l-16 244q-2 12 0 24.5t6 26t4 17.5q-49 -18 -76 -19h-346q-27 0 -72 19q0 -4 -1 -17.5t-3 -26t-6 -24.5l-104 -244q-8 -20 -35 -20h-313q-29 0 -15 31zM590 571q59 14 84 15h215 q27 0 80 -15q-25 41 -29 70l-41 387q-4 23 5 51.5t20 40.5q-20 -16 -33 -16h-35q-12 0 -29 16q8 -10 6 -39.5t-12 -52.5l-178 -387q-14 -29 -53 -70zM623 1552q37 109 106.5 167.5t147.5 58.5q70 0 131 -60l6 -6q37 -33 65 -33q25 0 44.5 15.5t29.5 38.5t31 22h106 q29 0 19 -26q-35 -109 -105.5 -167.5t-148.5 -58.5q-68 0 -131 60l-6 6q-37 33 -66 33q-25 0 -44.5 -15.5t-27.5 -38.5q-12 -23 -32 -22h-105q-31 0 -20 26z" />
<glyph unicode="&#xc4;" horiz-adv-x="1398" d="M12 31l666 1370q10 20 35 20h434q23 0 27 -20l182 -1370q4 -31 -27 -31h-313q-25 0 -27 20l-16 244q-2 12 0 24.5t6 26t4 17.5q-49 -18 -76 -19h-346q-27 0 -72 19q0 -4 -1 -17.5t-3 -26t-6 -24.5l-104 -244q-8 -20 -35 -20h-313q-29 0 -15 31zM590 571q59 14 84 15h215 q27 0 80 -15q-25 41 -29 70l-41 387q-4 23 5 51.5t20 40.5q-20 -16 -33 -16h-35q-12 0 -29 16q8 -10 6 -39.5t-12 -52.5l-178 -387q-14 -29 -53 -70zM590 1540l33 195q6 33 39 32h204q33 0 27 -32l-35 -195q-6 -33 -39 -33h-203q-33 0 -26 33zM1042 1540l35 195q6 33 39 32 h203q33 0 27 -32l-33 -195q-6 -33 -39 -33h-205q-33 0 -27 33z" />
<glyph unicode="&#xc5;" horiz-adv-x="1398" d="M12 31l666 1370q10 18 29 20q-47 70 -33 154l4 22q18 102 112.5 179t206.5 77h13q113 0 180 -76.5t49 -179.5l-4 -22q-14 -84 -84 -154q18 -2 23 -20l182 -1370q4 -31 -27 -31h-313q-25 0 -27 20l-16 244q-2 12 0 24.5t6 26t4 15.5q-49 -16 -76 -17h-346q-27 0 -72 17 q0 -2 -1 -15.5t-3 -26t-6 -24.5l-104 -244q-8 -20 -35 -20h-313q-29 0 -15 31zM590 571q59 14 84 15h215q27 0 80 -15q-25 41 -29 70l-41 387q-4 23 5 51.5t20 40.5q-20 -16 -33 -16h-35q-12 0 -29 16q8 -10 6 -39.5t-12 -52.5l-178 -387q-14 -29 -53 -70zM862 1577 q-8 -41 13.5 -69.5t60.5 -28.5h2q39 0 70.5 28.5t38.5 69.5l2 10q8 41 -13.5 71t-60.5 30h-4q-37 0 -69 -30t-38 -71z" />
<glyph unicode="&#xc6;" horiz-adv-x="1910" d="M14 31l916 1370q14 20 37 20h1056q27 0 23 -24l-47 -258q-4 -27 -31 -27h-414q-8 0 -15 2l-14 4t-12.5 5t-10.5 6.5t-8 5.5t-5 4l-2 2l1 -2q1 -2 2 -6.5t2 -8.5t2 -9l2 -10t1 -11.5t-2 -10.5l-31 -178q-2 -4 -3 -10t-4 -11t-6 -10.5t-5 -8.5l-4 -6t-4 -5l-2 -2l3 1 q3 1 7 3t9 5t12.5 6t14.5 5t15 3.5t14 1.5h363q27 0 20 -27l-36 -219q-6 -27 -33 -27h-361q-8 0 -15 1t-13 4t-12.5 6t-10.5 6.5t-8 5.5l-6 3l-2 1q12 -43 8 -58l-41 -235q-2 -12 -29 -57l3 2q3 2 7.5 4t9.5 5t12 6t14.5 5t15.5 4t14 2h451q27 0 22 -26l-45 -256 q-4 -27 -31 -27h-817q-25 0 -20 20l47 244q2 12 8 24.5t13.5 26t9.5 17.5q-53 -18 -80 -19h-355q-27 0 -67 19q0 -4 -3 -17.5t-7.5 -26t-12.5 -24.5l-147 -244q-14 -20 -37 -20h-313q-33 0 -13 31zM694 571q61 14 88 15h238q25 -1 74 -15q-12 41 -9 70l72 387q4 20 21.5 50 t33.5 42q-27 -16 -38 -16h-136q-10 0 -22 16q4 -12 -2 -40.5t-19 -51.5l-237 -387q-16 -27 -64 -70z" />
<glyph unicode="&#xc7;" horiz-adv-x="1200" d="M141 393l111 633q31 168 171 289t302 121h254q162 0 260 -121t70 -289l-15 -74q-4 -25 -30 -24h-299q-27 0 -23 24l6 39q14 76 -13.5 105.5t-94.5 29.5h-86q-66 0 -104 -29.5t-52 -105.5l-98 -563q-12 -74 14.5 -103.5t93.5 -29.5h86q68 0 106 29.5t52 103.5l6 39 q4 27 31 27h299q27 0 22 -27l-14 -74q-29 -166 -169 -284.5t-302 -118.5h-20l-50 -58h41q70 0 112 -50t30 -122l-9 -43q-12 -72 -72.5 -125t-129.5 -53h-242q-27 0 -20 25l14 88q4 27 31 26h159q41 0 56.5 19.5t23.5 56.5q8 61 -57 62h-160q-14 0 -22.5 8t0.5 16l114 150 h-53q-164 0 -262 118.5t-68 284.5z" />
<glyph unicode="&#xc8;" d="M119 33l239 1356q6 33 39 32h834q27 0 22 -24l-45 -258q-4 -27 -30 -27h-463q-8 0 -15.5 2t-13.5 4t-12 5t-10.5 6.5t-8.5 5.5t-6 4l-2 2l1 -2q1 -2 2 -6.5t2 -8.5t2 -9l2 -10t1 -11.5t-2 -10.5l-30 -178q0 -6 -3.5 -12t-6.5 -12.5t-6 -11.5t-6 -9t-4 -6l-1 -2l2 1l6 3 t9.5 5t12.5 6t14 5t15.5 3.5t14.5 1.5h409q27 0 23 -27l-39 -219q-4 -27 -31 -27h-409q-8 0 -15.5 1t-13.5 4l-12 6t-10.5 6.5t-7.5 5.5t-5 3l-2 1q10 -43 8 -58l-43 -235q-2 -12 -28 -57l3 2q3 2 7 4t9 5t12.5 6t14.5 5t15 4t16 2h498q27 0 21 -26l-45 -256q-4 -27 -31 -27 h-869q-33 0 -28 33zM577 1816.5q7 12.5 23 12.5h244q23 0 33 -21l133 -256q6 -10 -1.5 -18t-19.5 -8h-168q-18 0 -30 14l-213 254q-8 10 -1 22.5z" />
<glyph unicode="&#xc9;" d="M119 33l239 1356q6 33 39 32h834q27 0 22 -24l-45 -258q-4 -27 -30 -27h-463q-8 0 -15.5 2t-13.5 4t-12 5t-10.5 6.5t-8.5 5.5t-6 4l-2 2l1 -2q1 -2 2 -6.5t2 -8.5t2 -9l2 -10t1 -11.5t-2 -10.5l-30 -178q0 -6 -3.5 -12t-6.5 -12.5t-6 -11.5t-6 -9t-4 -6l-1 -2l2 1l6 3 t9.5 5t12.5 6t14 5t15.5 3.5t14.5 1.5h409q27 0 23 -27l-39 -219q-4 -27 -31 -27h-409q-8 0 -15.5 1t-13.5 4l-12 6t-10.5 6.5t-7.5 5.5t-5 3l-2 1q10 -43 8 -58l-43 -235q-2 -12 -28 -57l3 2q3 2 7 4t9 5t12.5 6t14.5 5t15 4t16 2h498q27 0 21 -26l-45 -256q-4 -27 -31 -27 h-869q-33 0 -28 33zM676 1534q-4 8 4 18l225 256q18 20 41 21h242q16 0 20 -12.5t-8 -22.5l-303 -254q-18 -14 -37 -14h-166q-14 0 -18 8z" />
<glyph unicode="&#xca;" d="M119 33l239 1356q6 33 39 32h834q27 0 22 -24l-45 -258q-4 -27 -30 -27h-463q-8 0 -15.5 2t-13.5 4t-12 5t-10.5 6.5t-8.5 5.5t-6 4l-2 2l1 -2q1 -2 2 -6.5t2 -8.5t2 -9l2 -10t1 -11.5t-2 -10.5l-30 -178q0 -6 -3.5 -12t-6.5 -12.5t-6 -11.5t-6 -9t-4 -6l-1 -2l2 1l6 3 t9.5 5t12.5 6t14 5t15.5 3.5t14.5 1.5h409q27 0 23 -27l-39 -219q-4 -27 -31 -27h-409q-8 0 -15.5 1t-13.5 4l-12 6t-10.5 6.5t-7.5 5.5t-5 3l-2 1q10 -43 8 -58l-43 -235q-2 -12 -28 -57l3 2q3 2 7 4t9 5t12.5 6t14.5 5t15 4t16 2h498q27 0 21 -26l-45 -256q-4 -27 -31 -27 h-869q-33 0 -28 33zM493.5 1532q-4.5 8 4.5 18l229 248q23 25 37 25h258q14 0 29 -25l141 -248q4 -10 -3 -18t-20 -8h-170q-18 0 -32 16l-93 105q-8 8 -10 14q-4 -6 -16 -14l-129 -105q-20 -16 -37 -16h-172q-12 0 -16.5 8z" />
<glyph unicode="&#xcb;" d="M119 33l239 1356q6 33 39 32h834q27 0 22 -24l-45 -258q-4 -27 -30 -27h-463q-8 0 -15.5 2t-13.5 4t-12 5t-10.5 6.5t-8.5 5.5t-6 4l-2 2l1 -2q1 -2 2 -6.5t2 -8.5t2 -9l2 -10t1 -11.5t-2 -10.5l-30 -178q0 -6 -3.5 -12t-6.5 -12.5t-6 -11.5t-6 -9t-4 -6l-1 -2l2 1l6 3 t9.5 5t12.5 6t14 5t15.5 3.5t14.5 1.5h409q27 0 23 -27l-39 -219q-4 -27 -31 -27h-409q-8 0 -15.5 1t-13.5 4l-12 6t-10.5 6.5t-7.5 5.5t-5 3l-2 1q10 -43 8 -58l-43 -235q-2 -12 -28 -57l3 2q3 2 7 4t9 5t12.5 6t14.5 5t15 4t16 2h498q27 0 21 -26l-45 -256q-4 -27 -31 -27 h-869q-33 0 -28 33zM479 1548l35 195q6 31 39 31h203q33 0 28 -31l-34 -195q-6 -33 -39 -32h-205q-31 0 -27 32zM934 1548l35 195q4 31 37 31h204q33 0 27 -31l-35 -195q-4 -33 -37 -32h-204q-33 0 -27 32z" />
<glyph unicode="&#xcc;" horiz-adv-x="618" d="M119 27l241 1370q4 25 33 24h293q12 0 19.5 -7t5.5 -17l-242 -1370q-4 -27 -35 -27h-291q-12 0 -19 7t-5 20zM286 1816.5q7 12.5 23 12.5h244q23 0 33 -21l133 -256q6 -10 -1 -18t-20 -8h-168q-18 0 -30 14l-213 254q-8 10 -1 22.5z" />
<glyph unicode="&#xcd;" horiz-adv-x="618" d="M119 27l241 1370q4 25 33 24h293q12 0 19.5 -7t5.5 -17l-242 -1370q-4 -27 -35 -27h-291q-12 0 -19 7t-5 20zM385 1534q-4 8 4 18l225 256q18 20 41 21h242q16 0 20.5 -12.5t-10.5 -22.5l-301 -254q-18 -14 -37 -14h-166q-14 0 -18 8z" />
<glyph unicode="&#xce;" horiz-adv-x="618" d="M119 27l241 1370q4 25 33 24h293q12 0 19.5 -7t5.5 -17l-242 -1370q-4 -27 -35 -27h-291q-12 0 -19 7t-5 20zM203 1532q-4 8 4 18l229 248q23 25 37 25h258q14 0 29 -25l139 -248q6 -10 -1 -18t-19 -8h-170q-18 0 -33 16l-92 105q-8 8 -11 14q-4 -6 -16 -14l-129 -105 q-20 -16 -37 -16h-172q-12 0 -16 8z" />
<glyph unicode="&#xcf;" horiz-adv-x="618" d="M119 27l241 1370q4 25 33 24h293q12 0 19.5 -7t5.5 -17l-242 -1370q-4 -27 -35 -27h-291q-12 0 -19 7t-5 20zM188 1548l35 195q6 31 39 31h203q33 0 27 -31l-33 -195q-6 -33 -39 -32h-205q-31 0 -27 32zM643 1548l35 195q4 31 37 31h205q33 0 26 -31l-35 -195 q-4 -33 -37 -32h-204q-33 0 -27 32z" />
<glyph unicode="&#xd0;" horiz-adv-x="1275" d="M119 27l241 1368q4 27 31 26h615q172 0 272 -119.5t72 -287.5l-107 -604q-31 -170 -174 -290t-315 -120h-613q-27 0 -22 27zM498 285l2 1l6 3l10 5t12.5 5t13.5 5t15 4t16 1h170q130 1 148 107l104 588q8 51 -19.5 79.5t-88.5 28.5h-172q-8 0 -15.5 2t-13.5 4t-12 5 t-10.5 6.5t-8.5 5.5t-6 4l-2 2q10 -51 8 -66l-32 -186q-6 -31 -39 -76l10 4t19.5 7t22.5 6.5t23 3.5h168q27 0 21 -25l-31 -182q-4 -27 -31 -27h-170q-12 0 -26.5 5t-26.5 11.5t-14 6.5q20 -37 14 -72l-39 -213q0 -6 -2 -11t-5 -10.5t-5 -10.5t-5 -9t-5 -6t-3 -4z" />
<glyph unicode="&#xd1;" horiz-adv-x="1409" d="M119 33l239 1356q6 33 39 32h277q27 0 35 -22l288 -717q4 -10 13.5 -30.5t15.5 -35t8 -16.5l-3 22q-3 23 -4 43.5t-1 36.5l121 687q6 33 39 32h282q35 0 29 -32l-237 -1356q-6 -33 -39 -33h-254q-27 0 -37 23l-301 765q-4 10 -13.5 31t-15.5 36t-8 17q0 -2 3 -23.5t5 -42 t0 -36.5l-131 -737q-4 -33 -39 -33h-283q-33 0 -28 33zM641 1561q35 109 105.5 167t148.5 58q68 0 131 -60l6 -6q37 -33 66 -32q25 0 44 15t27 36q12 25 33 24h105q31 0 20 -26q-37 -109 -106.5 -167.5t-147.5 -58.5q-68 0 -131 58l-6 6q-37 35 -66 35q-25 0 -44 -16.5 t-27 -37.5q-12 -23 -33 -22h-104q-31 0 -21 27z" />
<glyph unicode="&#xd2;" horiz-adv-x="1261" d="M141 393l111 633q31 168 171 289t302 121h276q162 0 260.5 -121t69.5 -289l-112 -633q-29 -166 -169.5 -284.5t-301.5 -118.5h-277q-164 0 -262 118.5t-68 284.5zM500 428q-14 -74 13 -103.5t95 -29.5h111q66 0 103.5 29.5t51.5 103.5l99 563q14 76 -13.5 105.5 t-95.5 29.5h-110q-66 0 -104 -29.5t-52 -105.5zM640 1816.5q7 12.5 24 12.5h243q20 0 33 -21l133 -256q6 -10 -1 -18t-19 -8h-168q-18 0 -31 14l-213 254q-8 10 -1 22.5z" />
<glyph unicode="&#xd3;" horiz-adv-x="1261" d="M141 393l111 633q31 168 171 289t302 121h276q162 0 260.5 -121t69.5 -289l-112 -633q-29 -166 -169.5 -284.5t-301.5 -118.5h-277q-164 0 -262 118.5t-68 284.5zM500 428q-14 -74 13 -103.5t95 -29.5h111q66 0 103.5 29.5t51.5 103.5l99 563q14 76 -13.5 105.5 t-95.5 29.5h-110q-66 0 -104 -29.5t-52 -105.5zM739.5 1534q-4.5 8 3.5 18l226 256q18 20 39 21h243q16 0 19.5 -12.5t-8.5 -22.5l-301 -254q-18 -14 -37 -14h-166q-14 0 -18.5 8z" />
<glyph unicode="&#xd4;" horiz-adv-x="1261" d="M141 393l111 633q31 168 171 289t302 121h276q162 0 260.5 -121t69.5 -289l-112 -633q-29 -166 -169.5 -284.5t-301.5 -118.5h-277q-164 0 -262 118.5t-68 284.5zM500 428q-14 -74 13.5 -103.5t94.5 -29.5h111q66 0 103.5 29.5t51.5 103.5l99 563q14 76 -13.5 105.5 t-95.5 29.5h-110q-66 0 -104 -29.5t-52 -105.5zM557 1532q-4 8 4 18l230 248q23 25 36 25h258q14 0 29 -25l139 -248q6 -10 -1 -18t-19 -8h-172q-16 0 -31 16l-94 105q-6 8 -8 14q-4 -6 -17 -14l-129 -105q-20 -16 -37 -16h-172q-12 0 -16 8z" />
<glyph unicode="&#xd5;" horiz-adv-x="1261" d="M141 393l111 633q31 168 171 289t302 121h276q162 0 260.5 -121t69.5 -289l-112 -633q-29 -166 -169.5 -284.5t-301.5 -118.5h-277q-164 0 -262 118.5t-68 284.5zM500 428q-14 -74 13 -103.5t95 -29.5h111q66 0 103.5 29.5t51.5 103.5l99 563q14 76 -13.5 105.5 t-95.5 29.5h-110q-66 0 -104 -29.5t-52 -105.5zM578 1561q35 109 105.5 167t147.5 58q68 0 132 -60l6 -6q37 -33 65 -32q25 0 44.5 15t27.5 36q12 25 33 24h104q31 0 21 -26q-37 -109 -107 -167.5t-147 -58.5q-70 0 -131 58q-2 2 -7 6q-37 35 -65 35q-25 0 -44.5 -16.5 t-29.5 -37.5q-10 -23 -31 -22h-106q-29 0 -18 27z" />
<glyph unicode="&#xd6;" horiz-adv-x="1261" d="M141 393l111 633q31 168 171 289t302 121h276q162 0 260.5 -121t69.5 -289l-112 -633q-29 -166 -169.5 -284.5t-301.5 -118.5h-277q-164 0 -262 118.5t-68 284.5zM500 428q-14 -74 13 -103.5t95 -29.5h111q66 0 103.5 29.5t51.5 103.5l99 563q14 76 -13.5 105.5 t-95.5 29.5h-110q-66 0 -104 -29.5t-52 -105.5zM543 1548l35 195q6 31 38 31h203q33 0 27 -31l-33 -195q-6 -33 -39 -32h-205q-31 0 -26 32zM997 1548l35 195q4 31 37 31h205q33 0 26 -31l-34 -195q-6 -33 -37 -32h-205q-33 0 -27 32z" />
<glyph unicode="&#xd7;" horiz-adv-x="989" d="M180 438q-14 18 8 39l240 211l-166 211q-14 20 6 39l156 137q20 20 37 0l166 -211l239 211q23 20 37 0l107 -137q14 -18 -9 -39l-239 -211l166 -211q14 -20 -6 -39l-156 -137q-23 -20 -37 0l-166 211l-239 -211q-23 -20 -37 0z" />
<glyph unicode="&#xd8;" horiz-adv-x="1263" d="M141 393l111 633q31 168 171 289t302 121h180q41 0 84 -25l-2 8q-2 8 -3 16.5t2 23t11 30.5l70 135q14 23 43 23h180q33 0 27 -33l-94 -182q-8 -16 -18.5 -31t-16.5 -23t-13.5 -15t-9.5 -7q29 4 44.5 1.5t29.5 -18.5q59 -57 84 -139t8 -174l-110 -633 q-31 -166 -171.5 -284.5t-301.5 -118.5h-166q-49 0 -74 26l1 -14t-2 -31.5t-11 -33.5l-76 -144q-16 -23 -43 -22h-160q-33 0 -27 32l97 189q10 23 47 59q-23 -2 -44.5 0t-37.5 17q-68 55 -98.5 141t-12.5 184zM500 428q-14 -74 13.5 -103.5t94.5 -29.5h111q66 0 103.5 29.5 t51.5 103.5l99 561q14 78 -13.5 107.5t-95.5 29.5h-110q-66 0 -104 -29.5t-52 -107.5z" />
<glyph unicode="&#xd9;" horiz-adv-x="1298" d="M160 397l174 992q6 33 39 32h286q33 0 27 -32l-170 -961q-12 -74 15.5 -103.5t93.5 -29.5h110q68 0 106 29.5t50 103.5l170 961q6 33 39 32h286q33 0 27 -32l-174 -992q-31 -168 -174 -287.5t-315 -119.5h-246q-172 0 -273.5 119.5t-70.5 287.5zM636 1816.5 q7 12.5 23 12.5h244q23 0 33 -21l133 -256q6 -10 -1 -18t-19 -8h-168q-18 0 -31 14l-213 254q-8 10 -1 22.5z" />
<glyph unicode="&#xda;" horiz-adv-x="1298" d="M160 397l174 992q6 33 39 32h286q33 0 27 -32l-170 -961q-12 -74 15.5 -103.5t93.5 -29.5h110q68 0 106 29.5t50 103.5l170 961q6 33 39 32h286q33 0 27 -32l-174 -992q-31 -168 -174 -287.5t-315 -119.5h-246q-172 0 -273.5 119.5t-70.5 287.5zM735.5 1534 q-4.5 8 3.5 18l226 256q18 20 41 21h241q16 0 20.5 -12.5t-10.5 -22.5l-301 -254q-18 -14 -36 -14h-166q-14 0 -18.5 8z" />
<glyph unicode="&#xdb;" horiz-adv-x="1298" d="M160 397l174 992q6 33 39 32h286q33 0 27 -32l-170 -961q-12 -74 15.5 -103.5t93.5 -29.5h110q68 0 106 29.5t50 103.5l170 961q6 33 39 32h286q33 0 27 -32l-174 -992q-31 -168 -174 -287.5t-315 -119.5h-246q-172 0 -273.5 119.5t-70.5 287.5zM553 1532q-4 8 4 18 l229 248q23 25 37 25h258q14 0 29 -25l139 -248q6 -10 -1 -18t-19 -8h-170q-18 0 -33 16l-92 105q-8 8 -10 14q-4 -6 -17 -14l-129 -105q-20 -16 -37 -16h-172q-12 0 -16 8z" />
<glyph unicode="&#xdc;" horiz-adv-x="1298" d="M160 397l174 992q6 33 39 32h286q33 0 27 -32l-170 -961q-12 -74 15.5 -103.5t93.5 -29.5h110q68 0 106 29.5t50 103.5l170 961q6 33 39 32h286q33 0 27 -32l-174 -992q-31 -168 -174 -287.5t-315 -119.5h-246q-172 0 -273.5 119.5t-70.5 287.5zM539 1548l34 195 q6 31 39 31h203q33 0 29 -31l-35 -195q-6 -33 -39 -32h-205q-31 0 -26 32zM993 1548l35 195q4 31 37 31h205q33 0 26 -31l-34 -195q-4 -33 -37 -32h-205q-33 0 -27 32z" />
<glyph unicode="&#xdd;" horiz-adv-x="1107" d="M147 1382q-6 18 3.5 28.5t27.5 10.5h303q29 0 35 -22l150 -492q2 -8 4 -19t3 -22.5t1 -23v-19.5v-14v-6l2 6q2 6 5 14t8 19.5t9 21.5t10.5 21.5t10.5 19.5l323 494q14 23 43 22h304q18 0 23 -10t-5 -29l-582 -837q-10 -12 -34 -33v-2q6 -18 4 -29l-78 -448 q-6 -33 -39 -33h-291q-33 0 -27 33l80 448q0 2 2 7.5t4.5 9.5t4.5 7t3 5l1 2q-18 25 -23 33zM643.5 1534q-4.5 8 5.5 18l223 256q18 20 41 21h244q14 0 18.5 -12.5t-8.5 -22.5l-303 -254q-18 -14 -37 -14h-165q-14 0 -18.5 8z" />
<glyph unicode="&#xde;" horiz-adv-x="1226" d="M121 33l237 1356q6 33 39 32h285q35 0 29 -32l-45 -252q-4 -18 -9 -35q20 6 52 6h256q174 0 274 -113.5t72 -281.5l-23 -119q-29 -168 -170 -281.5t-315 -113.5h-236q-45 0 -69 10q0 -20 -4 -53l-23 -123q-6 -33 -39 -33h-285q-33 0 -26 33zM545 485q29 8 73 9h170 q129 0 148 106l16 90q8 51 -19.5 80t-88.5 29h-170q-45 0 -72 10q2 -20 -4 -51l-39 -221q-4 -31 -14 -52z" />
<glyph unicode="&#xdf;" horiz-adv-x="1304" d="M119 37l209 1180q31 168 166 280.5t307 112.5h254q172 0 268 -114t66 -282l-21 -124q-12 -68 -47 -135.5t-74 -96.5q-4 -2 -10 -6q4 -2 8 -6q33 -37 54.5 -103.5t11.5 -128.5l-39 -219q-29 -168 -170 -281.5t-316 -113.5h-124q-33 0 -25 37l39 229q6 27 35 27h45 q127 0 145 108l39 217q8 51 -19.5 79t-89.5 28h-53q-25 0 -18 27l33 184q4 25 26 25h53q121 0 140 102l24 143q10 51 -18.5 80t-89.5 29h-105q-61 0 -99 -29t-48 -80l-213 -1165q-6 -41 -43 -41h-270q-16 0 -24.5 10t-6.5 27z" />
<glyph unicode="&#xe0;" horiz-adv-x="1185" d="M111 403l57 328q31 176 168 294t293 118h63q106 0 185 -90q8 -8 19 -26.5t11 -22.5v11v26.5t2 27.5l6 35q4 29 33 29h269q12 0 19 -9.5t5 -19.5l-190 -1075q-2 -10 -11.5 -18.5t-21.5 -8.5h-268q-12 0 -18.5 8t-4.5 19l6 37q2 12 7 27.5t10 26.5l6 11q-4 -4 -21.5 -22.5 t-29.5 -28.5q-109 -90 -216 -90h-63q-158 0 -252 118.5t-63 294.5zM451 426q-14 -82 13 -113.5t95 -31.5h103q84 0 98 81l71 410q14 80 -69 80h-103q-68 0 -106.5 -32t-52.5 -113zM527.5 1544q7.5 12 23.5 12h244q23 0 32 -20l134 -272q4 -10 -3.5 -19.5t-19.5 -9.5h-168 q-18 0 -31 16l-211 271q-8 10 -0.5 22z" />
<glyph unicode="&#xe1;" horiz-adv-x="1185" d="M111 403l57 328q31 176 168 294t293 118h63q106 0 185 -90q8 -8 19 -26.5t11 -22.5v11v26.5t2 27.5l6 35q4 29 33 29h269q12 0 19 -9.5t5 -19.5l-190 -1075q-2 -10 -11.5 -18.5t-21.5 -8.5h-268q-12 0 -18.5 8t-4.5 19l6 37q2 12 7 27.5t10 26.5l6 11q-4 -4 -21.5 -22.5 t-29.5 -28.5q-109 -90 -216 -90h-63q-158 0 -252 118.5t-63 294.5zM451 426q-14 -82 13 -113.5t95 -31.5h103q84 0 98 81l71 410q14 80 -69 80h-103q-68 0 -106.5 -32t-52.5 -113zM625 1243q-4 8 4 21l229 272q18 20 39 20h244q16 0 19 -12t-9 -22l-307 -271 q-16 -16 -35 -16h-168q-12 0 -16 8z" />
<glyph unicode="&#xe2;" horiz-adv-x="1185" d="M111 403l57 328q31 176 168 294t293 118h63q106 0 185 -90q8 -8 19 -26.5t11 -22.5v11v26.5t2 27.5l6 35q4 29 33 29h269q12 0 19 -9.5t5 -19.5l-190 -1075q-2 -10 -11.5 -18.5t-21.5 -8.5h-268q-12 0 -18.5 8t-4.5 19l6 37q2 12 7 27.5t10 26.5l6 11q-4 -4 -21.5 -22.5 t-29.5 -28.5q-109 -90 -216 -90h-63q-158 0 -252 118.5t-63 294.5zM440.5 1241q-4.5 8 3.5 21l234 262q23 29 37 28h258q12 0 16 -6t12 -22l140 -262q6 -12 -1 -20.5t-22 -8.5h-170q-18 0 -33 18l-92 111q-8 8 -10 16q-4 -8 -14 -16l-133 -111q-20 -18 -37 -18h-172 q-12 0 -16.5 8zM451 426q-14 -82 13.5 -113.5t94.5 -31.5h103q84 0 98 81l71 410q14 80 -69 80h-103q-68 0 -106.5 -32t-52.5 -113z" />
<glyph unicode="&#xe3;" horiz-adv-x="1185" d="M111 403l57 328q31 176 168 294t293 118h63q106 0 185 -90q8 -8 19 -26.5t11 -22.5v11v26.5t2 27.5l6 35q4 29 33 29h269q12 0 19 -9.5t5 -19.5l-190 -1075q-2 -10 -11.5 -18.5t-21.5 -8.5h-268q-12 0 -18.5 8t-4.5 19l6 37q2 12 7 27.5t10 26.5l6 11q-4 -4 -21.5 -22.5 t-29.5 -28.5q-109 -90 -216 -90h-63q-158 0 -252 118.5t-63 294.5zM451 426q-14 -82 13 -113.5t95 -31.5h103q84 0 98 81l71 410q14 80 -69 80h-103q-68 0 -106.5 -32t-52.5 -113zM459 1272q39 117 109.5 178t148.5 61q70 0 133 -61l6 -6q20 -23 32.5 -30t33.5 -7 q25 0 44 16.5t29 38.5q12 25 33 25h105q31 0 20 -27q-37 -117 -108.5 -179t-149.5 -62q-70 0 -131 63l-6 6q-23 20 -35 28.5t-33 8.5q-23 0 -43 -17.5t-31 -39.5q-10 -25 -30 -25h-107q-29 0 -20 29z" />
<glyph unicode="&#xe4;" horiz-adv-x="1185" d="M111 403l57 328q31 176 168 294t293 118h63q106 0 185 -90q8 -8 19 -26.5t11 -22.5v11v26.5t2 27.5l6 35q4 29 33 29h269q12 0 19 -9.5t5 -19.5l-190 -1075q-2 -10 -11.5 -18.5t-21.5 -8.5h-268q-12 0 -18.5 8t-4.5 19l6 37q2 12 7 27.5t10 26.5l6 11q-4 -4 -21.5 -22.5 t-29.5 -28.5q-109 -90 -216 -90h-63q-156 0 -251 118.5t-64 294.5zM426 1257l37 209q6 33 39 33h205q33 0 26 -33l-37 -209q-6 -33 -39 -32h-204q-31 0 -27 32zM451 426q-14 -82 13 -113.5t95 -31.5h103q84 0 98 81l71 410q14 80 -69 80h-103q-68 0 -106.5 -32t-52.5 -113z M883 1257l37 209q6 33 38 33h205q33 0 27 -33l-37 -209q-6 -33 -39 -32h-205q-33 0 -26 32z" />
<glyph unicode="&#xe5;" horiz-adv-x="1122" d="M115 403l57 328q25 139 119 245.5t217 145.5q-23 61 -12 129l4 25q20 106 116.5 188t208.5 82h11q115 0 181 -82t48 -188l-4 -25q-10 -61 -51 -118h211q12 0 19 -9.5t5 -19.5l-190 -1075q-2 -10 -11.5 -18.5t-21.5 -8.5h-268q-12 0 -19.5 8t-5.5 19l6 37q2 12 8.5 27.5 t10.5 26.5l4 11q-2 -4 -19.5 -22.5t-29.5 -28.5q-111 -90 -215 -90h-64q-158 0 -252 118.5t-63 294.5zM453 426q-14 -82 13.5 -113.5t96.5 -31.5h103q82 0 96 81l74 410q14 80 -72 80h-100q-70 0 -108 -32t-52 -113zM684 1253q-8 -43 13.5 -73.5t60.5 -30.5h4 q37 0 69.5 30.5t40.5 73.5l2 13q6 43 -15 73.5t-58 30.5h-4q-39 0 -71 -30.5t-40 -73.5zM897 1028q12 -20 14 -24v4t-1 12t-1 16z" />
<glyph unicode="&#xe6;" horiz-adv-x="1808" d="M113 305l14 80q25 143 141.5 224t296.5 81h246q23 0 49 -14q-6 43 -6 51l8 43q14 80 -69 80l-148 -2q-61 0 -72 -60l-2 -8q-4 -18 -24 -18h-279q-12 0 -18 7t-4 19l4 23q23 131 141.5 232.5t255.5 101.5h262q117 0 193 -82q117 82 246 82h174q174 0 272 -129t68 -311 l-37 -209q-6 -27 -33 -27l-586 -2q-47 0 -67 16q10 -25 6 -43l-8 -43q-18 -113 82 -112h141q66 0 80 55l2 8q8 20 31 21h280q29 0 21 -29l-2 -8q-49 -141 -171 -242.5t-258 -101.5h-165q-150 0 -252 98q-39 -41 -113 -68.5t-133 -27.5h-277q-139 0 -227 89t-63 226zM461 371 q-8 -47 10 -68.5t86 -21.5h137q82 0 97 79l14 76q0 6 2 12.5t5 12.5t6 10t5 7l2 3q-29 -12 -53 -12h-213q-37 0 -63.5 -22.5t-32.5 -57.5zM1171 676q31 14 74 14h221q43 0 68 -14q-8 35 -6 55l8 39q6 37 -13.5 57.5t-58.5 20.5h-161q-39 0 -66 -20.5t-33 -57.5l-8 -39 q-2 -20 -25 -55z" />
<glyph unicode="&#xe7;" horiz-adv-x="1101" d="M115 424l49 285q33 182 177 309t318 127h164q96 0 170 -40t114 -100.5t56.5 -128t3.5 -128.5l-4 -23q-4 -27 -33 -27h-280q-12 0 -19.5 8.5t-5.5 18.5l2 14q8 47 -16.5 78t-91.5 31h-60q-66 0 -103.5 -32t-51.5 -114l-47 -272q-14 -82 11.5 -113.5t92.5 -31.5h57 q129 0 150 108l2 15q4 27 33 26h280q12 0 19.5 -8t5.5 -18l-4 -23q-10 -59 -49 -125.5t-97.5 -126t-143.5 -100.5t-177 -45l-49 -60h41q72 0 112.5 -53t28.5 -129l-10 -47q-12 -76 -72.5 -133.5t-132.5 -57.5h-242q-27 0 -22 29l16 94q4 27 31 27h160q31 0 48 13.5t23 27.5 t11 41q10 63 -56 63h-162q-14 0 -22 8.5t0 20.5l117 156h-2q-174 0 -273.5 127t-66.5 309z" />
<glyph unicode="&#xe8;" d="M113 418l51 291q31 180 176 308t319 128h172q174 0 272.5 -129t67.5 -311l-36 -209q-6 -27 -31 -27l-588 -2q-47 0 -67 16q10 -25 6 -43l-9 -47q-20 -113 82 -112h142q68 0 80 55l2 12q6 20 30 21h283q29 0 18 -29l-2 -8q-47 -141 -168.5 -242.5t-257.5 -101.5h-200 q-174 0 -273.5 126t-68.5 304zM481 676q31 14 74 14h221q43 0 68 -14q-8 37 -4 55l6 43q8 37 -11.5 57.5t-58.5 20.5h-164q-39 0 -65.5 -20.5t-32.5 -57.5l-8 -43q-2 -18 -25 -55zM510 1544q8 12 25 12h243q20 0 33 -20l131 -272q6 -10 -1 -19.5t-19 -9.5h-168q-18 0 -31 16 l-211 271q-10 10 -2 22z" />
<glyph unicode="&#xe9;" d="M113 418l51 291q31 180 176 308t319 128h172q174 0 272.5 -129t67.5 -311l-36 -209q-6 -27 -31 -27l-588 -2q-47 0 -67 16q10 -25 6 -43l-9 -47q-20 -113 82 -112h142q68 0 80 55l2 12q6 20 30 21h283q29 0 18 -29l-2 -8q-47 -141 -168.5 -242.5t-257.5 -101.5h-200 q-174 0 -273.5 126t-68.5 304zM481 676q31 14 74 14h221q43 0 68 -14q-8 37 -4 55l6 43q8 37 -11.5 57.5t-58.5 20.5h-164q-39 0 -65.5 -20.5t-32.5 -57.5l-8 -43q-2 -18 -25 -55zM606.5 1243q-4.5 8 5.5 21l230 272q16 20 39 20h243q16 0 19.5 -12t-8.5 -22l-308 -271 q-16 -16 -34 -16h-168q-14 0 -18.5 8z" />
<glyph unicode="&#xea;" d="M113 418l51 291q31 180 176 308t319 128h172q174 0 272.5 -129t67.5 -311l-36 -209q-6 -27 -31 -27l-588 -2q-47 0 -67 16q10 -25 6 -43l-9 -47q-20 -113 82 -112h142q68 0 80 55l2 12q6 20 30 21h281q31 0 20 -29l-2 -8q-47 -141 -168.5 -242.5t-257.5 -101.5h-200 q-174 0 -273.5 126t-68.5 304zM423 1241q-5 8 5 21l234 262q23 29 36 28h258q10 0 15.5 -6t13.5 -22l139 -262q6 -12 -1 -20.5t-21 -8.5h-170q-18 0 -33 18l-92 111q-8 8 -10 16q-4 -8 -15 -16l-133 -111q-20 -18 -39 -18h-170q-12 0 -17 8zM481 676q31 14 74 14h221 q43 0 68 -14q-8 37 -4 55l6 43q8 37 -11.5 57.5t-58.5 20.5h-164q-39 0 -65.5 -20.5t-32.5 -57.5l-8 -43q-2 -18 -25 -55z" />
<glyph unicode="&#xeb;" d="M113 418l51 291q31 180 176 308t319 128h172q174 0 272.5 -129t67.5 -311l-36 -209q-6 -27 -31 -27l-588 -2q-47 0 -67 16q10 -25 6 -43l-9 -47q-20 -113 82 -112h142q68 0 80 55l2 12q6 20 30 21h283q29 0 18 -29l-2 -8q-47 -141 -168.5 -242.5t-257.5 -101.5h-200 q-174 0 -273.5 126t-68.5 304zM410 1257l36 209q6 33 39 33h205q33 0 27 -33l-37 -209q-6 -33 -39 -32h-205q-33 0 -26 32zM481 676q31 14 74 14h221q43 0 68 -14q-8 37 -4 55l6 43q8 37 -11.5 57.5t-58.5 20.5h-164q-39 0 -65.5 -20.5t-32.5 -57.5l-8 -43q-2 -18 -25 -55z M866 1257l37 209q6 33 39 33h205q31 0 27 -33l-37 -209q-6 -33 -39 -32h-205q-33 0 -27 32z" />
<glyph unicode="&#xec;" horiz-adv-x="577" d="M102 29l191 1075q4 29 33 29h282q12 0 19.5 -8.5t5.5 -20.5l-189 -1075q-6 -27 -34 -27h-283q-12 0 -19.5 8t-5.5 19zM227 1522q-8 10 0.5 22t22.5 12h244q23 0 32 -20l133 -272q6 -10 -1 -19.5t-21 -9.5h-168q-18 0 -31 16z" />
<glyph unicode="&#xed;" horiz-adv-x="577" d="M102 29l191 1075q4 29 33 29h282q12 0 19.5 -8.5t5.5 -20.5l-189 -1075q-6 -27 -34 -27h-283q-12 0 -19.5 8t-5.5 19zM323.5 1243q-4.5 8 4.5 21l229 272q18 20 41 20h244q14 0 18 -12t-8 -22l-307 -271q-18 -16 -37 -16h-168q-12 0 -16.5 8z" />
<glyph unicode="&#xee;" horiz-adv-x="577" d="M102 29l191 1075q4 29 33 29h282q12 0 19.5 -8.5t5.5 -20.5l-189 -1075q-6 -27 -34 -27h-283q-12 0 -19.5 8t-5.5 19zM139.5 1241q-4.5 8 3.5 21l234 262q23 29 39 28h258q10 0 15 -6t11 -22l142 -262q4 -12 -3.5 -20.5t-19.5 -8.5h-172q-16 0 -31 18l-94 111q-8 8 -8 16 q-4 -8 -16 -16l-131 -111q-20 -18 -39 -18h-170q-14 0 -18.5 8z" />
<glyph unicode="&#xef;" horiz-adv-x="577" d="M102 29l191 1075q4 29 33 29h282q12 0 19.5 -8.5t5.5 -20.5l-189 -1075q-6 -27 -34 -27h-283q-12 0 -19.5 8t-5.5 19zM127 1257l37 209q6 33 37 33h205q33 0 26 -33l-37 -209q-4 -33 -37 -32h-204q-33 0 -27 32zM584 1257l34 209q6 33 39 33h205q33 0 27 -33l-37 -209 q-6 -33 -39 -32h-203q-33 0 -26 32z" />
<glyph unicode="&#xf0;" horiz-adv-x="1093" d="M72 459l14 76q31 182 180.5 328.5t308.5 146.5h138l-35 139l-115 -66q-14 -8 -22.5 -3t-5.5 22l24 135q4 23 23 33l57 33l-47 190q-4 14 3 24.5t19 10.5h285q20 0 25 -23l8 -35l121 68q16 8 24 3t4 -21l-22 -136q-4 -20 -25 -32l-63 -35l143 -580q29 -106 12 -202 l-14 -76q-31 -182 -179.5 -326.5t-307.5 -144.5h-230q-106 0 -188 67.5t-119 176t-16 227.5zM410 463q-16 -84 12.5 -133t91.5 -49h92q66 0 111 49t61 133l10 65q8 45 0 95q-16 76 -81 92h-117q-63 0 -108.5 -50.5t-61.5 -136.5z" />
<glyph unicode="&#xf1;" horiz-adv-x="1220" d="M102 29l191 1075q4 29 33 29h247q33 0 29 -29l-2 -4q-2 -10 -11 -29.5t-18.5 -34t-9.5 -16.5q18 20 51 47q35 31 103.5 54.5t126.5 23.5h90q156 0 247 -117t60 -291l-125 -708q-6 -27 -35 -27h-282q-12 0 -18.5 8t-4.5 19l119 678q14 82 -12.5 113.5t-94.5 31.5h-112 q-86 0 -101 -80l-129 -743q-6 -27 -34 -27h-283q-12 0 -19.5 8t-5.5 19zM510 1272q39 117 109.5 178t148.5 61q70 0 133 -61l6 -6q23 -23 34 -30t32 -7q25 0 45 16.5t29 38.5q12 25 32 25h105q31 0 20 -27q-37 -117 -108.5 -179t-149.5 -62q-70 0 -131 63l-6 6 q-23 20 -35 28.5t-33 8.5q-23 0 -43 -17.5t-28 -39.5q-12 -25 -33 -25h-107q-29 0 -20 29z" />
<glyph unicode="&#xf2;" horiz-adv-x="1122" d="M113 420l51 289q33 182 176 309t317 127h170q174 0 273.5 -127t66.5 -309l-51 -289q-31 -180 -174 -306t-315 -126h-176q-172 0 -271.5 126t-66.5 306zM455 424q-14 -82 11.5 -112.5t92.5 -30.5h64q66 0 103.5 30.5t51.5 112.5l49 278q14 82 -12 114t-94 32h-62 q-68 0 -104.5 -32t-50.5 -114zM519 1544q7 12 24 12h243q23 0 33 -20l133 -272q4 -10 -3 -19.5t-19 -9.5h-168q-18 0 -31 16l-211 271q-8 10 -1 22z" />
<glyph unicode="&#xf3;" horiz-adv-x="1122" d="M113 420l51 289q33 182 176 309t317 127h170q174 0 273.5 -127t66.5 -309l-51 -289q-31 -180 -174 -306t-315 -126h-176q-172 0 -271.5 126t-66.5 306zM455 424q-14 -82 11.5 -112.5t92.5 -30.5h64q66 0 103.5 30.5t51.5 112.5l49 278q14 82 -12 114t-94 32h-62 q-68 0 -104.5 -32t-50.5 -114zM616.5 1243q-4.5 8 4.5 21l229 272q18 20 41 20h244q14 0 18 -12t-10 -22l-305 -271q-18 -16 -37 -16h-168q-12 0 -16.5 8z" />
<glyph unicode="&#xf4;" horiz-adv-x="1122" d="M113 420l51 289q33 182 176 309t317 127h170q174 0 273.5 -127t66.5 -309l-51 -289q-31 -180 -174 -306t-315 -126h-176q-172 0 -271.5 126t-66.5 306zM432.5 1241q-4.5 8 3.5 21l234 262q23 29 37 28h258q12 0 17 -6t11 -22l142 -262q4 -12 -3.5 -20.5t-19.5 -8.5h-172 q-16 0 -31 18l-94 111q-8 8 -10 16q-2 -8 -14 -16l-134 -111q-20 -18 -36 -18h-172q-12 0 -16.5 8zM455 424q-14 -82 11.5 -112.5t92.5 -30.5h64q66 0 103.5 30.5t51.5 112.5l49 278q14 82 -12.5 114t-93.5 32h-62q-68 0 -104.5 -32t-50.5 -114z" />
<glyph unicode="&#xf5;" horiz-adv-x="1122" d="M113 420l51 289q33 182 176 309t317 127h170q174 0 273.5 -127t66.5 -309l-51 -289q-31 -180 -174 -306t-315 -126h-176q-172 0 -271.5 126t-66.5 306zM451 1272q39 117 109.5 178t148.5 61q70 0 133 -61l6 -6q23 -23 34 -30t31 -7q25 0 45.5 16.5t28.5 38.5q12 25 33 25 h106q29 0 19 -27q-37 -117 -108.5 -179t-149.5 -62q-70 0 -131 63l-6 6q-23 20 -35.5 28.5t-32.5 8.5q-23 0 -43.5 -17.5t-28.5 -39.5q-12 -25 -32 -25h-107q-29 0 -20 29zM455 424q-14 -82 11.5 -112.5t92.5 -30.5h64q66 0 103.5 30.5t51.5 112.5l49 278q14 82 -12 114 t-94 32h-62q-68 0 -104.5 -32t-50.5 -114z" />
<glyph unicode="&#xf6;" horiz-adv-x="1122" d="M113 420l51 289q33 182 176 309t317 127h170q174 0 273.5 -127t66.5 -309l-51 -289q-31 -180 -174 -306t-315 -126h-176q-172 0 -271.5 126t-66.5 306zM420 1257l35 209q6 33 39 33h204q33 0 27 -33l-37 -209q-6 -33 -39 -32h-203q-33 0 -26 32zM455 424 q-14 -82 11.5 -112.5t92.5 -30.5h64q66 0 103.5 30.5t51.5 112.5l49 278q14 82 -12 114t-94 32h-62q-68 0 -104.5 -32t-50.5 -114zM874 1257l37 209q6 33 39 33h205q33 0 27 -33l-37 -209q-6 -33 -39 -32h-205q-33 0 -27 32z" />
<glyph unicode="&#xf7;" horiz-adv-x="1091" d="M176 590l33 194q6 27 33 27h856q25 0 20 -27l-35 -194q-4 -27 -30 -27h-856q-27 0 -21 27zM416 152l37 204q6 35 36 35h209q33 0 27 -35l-37 -204q-4 -35 -37 -35h-209q-33 0 -26 35zM569 1022l37 205q6 35 37 35h209q33 0 27 -35l-37 -205q-4 -35 -37 -35h-209 q-33 0 -27 35z" />
<glyph unicode="&#xf8;" horiz-adv-x="1150" d="M119 418l51 293q33 178 178.5 306t317.5 128h127q16 0 30 -4q10 -2 18.5 -6.5t13.5 -8.5t7 -4q-10 41 0 62l90 180q14 25 43 25h181q33 0 26 -35l-125 -248q-16 -33 -49 -49h9h14.5t14.5 -3t11 -7q63 -57 90 -146.5t9 -189.5l-52 -293q-33 -178 -176 -304t-315 -126h-72 q-8 0 -18 2q-6 2 -13.5 5t-11.5 6t-7 6t-5 3l3 -9t3 -18.5t-4 -21.5l-111 -217q-14 -23 -43 -23h-159q-33 0 -27 35l121 242q8 18 37 45q-37 -12 -52 -4q-92 55 -134 156.5t-21 222.5zM461 424q-14 -80 12.5 -111.5t93.5 -31.5h60q68 0 105.5 31.5t51.5 111.5l50 278 q14 82 -12.5 114t-94.5 32h-59q-68 0 -106 -32t-52 -114z" />
<glyph unicode="&#xf9;" horiz-adv-x="1216" d="M141 397l125 707q4 29 33 29h285q10 0 17 -8.5t5 -20.5l-119 -674q-14 -82 13.5 -113.5t95.5 -31.5h109q84 0 98 80l131 739q4 29 33 29h282q12 0 19.5 -8.5t5.5 -20.5l-191 -1073q-4 -29 -32 -29h-248q-33 0 -29 29l2 4q0 8 10.5 26.5t19.5 34.5l9 17q-18 -18 -51 -45 q-35 -31 -103.5 -54.5t-125.5 -23.5h-86q-156 0 -247 115.5t-61 291.5zM540 1544q7 12 23 12h244q23 0 33 -20l133 -272q6 -10 -1 -19.5t-22 -9.5h-168q-18 0 -30 16l-211 271q-8 10 -1 22z" />
<glyph unicode="&#xfa;" horiz-adv-x="1216" d="M141 397l125 707q4 29 33 29h285q10 0 17 -8.5t5 -20.5l-119 -674q-14 -82 13.5 -113.5t95.5 -31.5h109q84 0 98 80l131 739q4 29 33 29h282q12 0 19.5 -8.5t5.5 -20.5l-191 -1073q-4 -29 -32 -29h-248q-33 0 -29 29l2 4q0 8 10.5 26.5t19.5 34.5l9 17q-18 -18 -51 -45 q-35 -31 -103.5 -54.5t-125.5 -23.5h-86q-156 0 -247 115.5t-61 291.5zM637 1243q-4 8 4 21l229 272q18 20 41 20h244q14 0 18.5 -12t-8.5 -22l-307 -271q-18 -16 -37 -16h-168q-12 0 -16 8z" />
<glyph unicode="&#xfb;" horiz-adv-x="1216" d="M141 397l125 707q4 29 33 29h285q10 0 17 -8.5t5 -20.5l-119 -674q-14 -82 13.5 -113.5t95.5 -31.5h109q84 0 98 80l131 739q4 29 33 29h282q12 0 19.5 -8.5t5.5 -20.5l-191 -1073q-4 -29 -32 -29h-248q-33 0 -29 29l2 4q0 8 10.5 26.5t19.5 34.5l9 17q-18 -18 -51 -45 q-35 -31 -103.5 -54.5t-125.5 -23.5h-86q-156 0 -247 115.5t-61 291.5zM453 1241q-4 8 4 21l233 262q23 29 39 28h256q12 0 17.5 -6t11.5 -22l141 -262q4 -12 -3 -20.5t-19 -8.5h-172q-16 0 -31 18l-94 111q-8 8 -9 16q-4 -8 -16 -16l-131 -111q-20 -18 -39 -18h-172 q-12 0 -16 8z" />
<glyph unicode="&#xfc;" horiz-adv-x="1216" d="M141 397l125 707q4 29 33 29h285q10 0 17 -8.5t5 -20.5l-119 -674q-14 -82 13.5 -113.5t95.5 -31.5h109q84 0 98 80l131 739q4 29 33 29h282q12 0 19.5 -8.5t5.5 -20.5l-191 -1073q-4 -29 -32 -29h-248q-33 0 -29 29l2 4q0 8 10.5 26.5t19.5 34.5l9 17q-18 -18 -51 -45 q-35 -31 -103.5 -54.5t-125.5 -23.5h-86q-156 0 -247 115.5t-61 291.5zM440 1257l37 209q6 33 37 33h205q33 0 26 -33l-36 -209q-6 -33 -37 -32h-205q-33 0 -27 32zM895 1257l37 209q6 33 39 33h205q33 0 26 -33l-37 -209q-6 -33 -39 -32h-204q-31 0 -27 32z" />
<glyph unicode="&#xfd;" horiz-adv-x="1024" d="M8 -471l41 238q6 27 31 26h102q41 0 61.5 21.5t43.5 66.5l51 107q2 2 24 16l21 14q-37 -6 -37 5l-184 1071q-2 16 7 28.5t28 12.5h260q29 0 30 -29l78 -559q6 -55 0 -123q18 70 45 125l273 557q14 27 43 29h260q18 0 23 -12.5t-5 -28.5l-669 -1280q-88 -168 -195 -243 t-254 -75h-51q-33 0 -27 33zM555 1243q-4 8 6 21l227 272q18 20 41 20h244q16 0 19.5 -12t-9.5 -22l-307 -271q-18 -16 -37 -16h-166q-14 0 -18 8z" />
<glyph unicode="&#xfe;" horiz-adv-x="1183" d="M2 -504l379 2142q4 27 33 27h293q12 0 19 -8t5 -19l-94 -524q0 -10 -5 -22.5t-11.5 -23.5t-11.5 -21.5t-9 -17.5l-4 -7q6 8 51 45q35 31 105.5 54.5t136.5 23.5h35q156 0 246 -119t59 -295l-58 -330q-31 -176 -162.5 -293.5t-287.5 -117.5h-35q-66 0 -128 22.5t-87 55.5 q-33 35 -37 43l2 -7q2 -8 4 -17t4 -21.5t2 -23.5t-2 -22l-92 -524q-4 -29 -33 -28h-292q-12 0 -19.5 8t-5.5 20zM504 365q-12 -80 69 -80h105q68 0 106.5 31.5t53.5 113.5l49 272q14 82 -13.5 114t-95.5 32h-104q-84 0 -99 -80z" />
<glyph unicode="&#xff;" horiz-adv-x="1024" d="M8 -471l41 238q6 27 31 26h102q41 0 61.5 21.5t43.5 66.5l51 107q2 2 24 16l21 14q-37 -6 -37 5l-184 1071q-2 16 7 28.5t28 12.5h260q29 0 30 -29l78 -559q6 -55 0 -123q18 70 45 125l273 557q14 27 43 29h260q18 0 23 -12.5t-5 -28.5l-669 -1280q-88 -168 -195 -243 t-254 -75h-51q-33 0 -27 33zM358 1257l37 209q6 33 39 33h205q31 0 27 -33l-37 -209q-6 -33 -39 -32h-205q-33 0 -27 32zM815 1257l37 209q6 33 37 33h205q33 0 26 -33l-37 -209q-4 -33 -36 -32h-205q-33 0 -27 32z" />
<glyph unicode="&#x152;" horiz-adv-x="1802" d="M141 403l107 611q31 168 171 287.5t302 119.5h1196q27 0 20 -24l-45 -258q-4 -27 -30 -27h-463q-6 0 -14.5 2t-14.5 4t-12 5t-10.5 6.5t-7.5 5.5t-5 4l-2 2v-2q0 -2 1 -6.5t3 -8.5t3 -9t1 -10v-11.5v-10.5l-32 -178q0 -4 -2 -10t-4.5 -11t-5.5 -10.5t-6 -8.5t-5 -6t-3 -5 l-1 -2l2 1l6 3t10.5 5t12.5 6t13 5t15.5 3.5t16.5 1.5h407q27 0 23 -27l-39 -219q-4 -27 -31 -27h-409q-6 0 -14.5 1t-14.5 4l-12 6t-10.5 6.5t-7.5 5.5t-5 3l-2 1q10 -41 8 -58l-41 -235q-4 -12 -28 -57l2 2q2 2 6 4l10 5t12.5 6t13.5 5t15 4t16 2h498q27 0 23 -26 l-45 -256q-6 -27 -31 -27h-1231q-164 0 -262 119t-68 284zM500 442q-12 -74 15 -103.5t93 -29.5h144q51 0 78.5 20.5t37.5 80.5l107 602q10 59 -9.5 80.5t-70.5 21.5h-145q-66 0 -105 -30.5t-51 -106.5z" />
<glyph unicode="&#x153;" horiz-adv-x="1798" d="M113 420l51 289q33 182 176 309t317 127h170q143 0 240 -90q129 90 272 90h172q174 0 273.5 -129t66.5 -311l-36 -209q-4 -27 -31 -27l-588 -2q-45 0 -68 16q10 -25 9 -43l-11 -47q-18 -113 82 -112h142q68 0 80 55l2 12q6 20 30 21h283q29 0 18 -29l-2 -8 q-47 -141 -169 -242.5t-257 -101.5h-200q-143 0 -240 90q-127 -90 -268 -90h-176q-172 0 -271.5 126t-66.5 306zM455 424q-14 -82 11.5 -112.5t92.5 -30.5h64q66 0 103.5 30.5t51.5 112.5l49 278q14 82 -12.5 114t-93.5 32h-62q-68 0 -104.5 -32t-50.5 -114zM1161 676 q29 14 76 14h219q45 0 70 -14q-10 35 -6 55l8 43q6 37 -13.5 57.5t-58.5 20.5h-162q-39 0 -65.5 -20.5t-34.5 -57.5l-6 -43q-4 -25 -25 -55h-2z" />
<glyph unicode="&#x178;" horiz-adv-x="1107" d="M147 1382q-6 18 3.5 28.5t27.5 10.5h303q29 0 35 -22l150 -492q2 -8 4 -19t3 -22.5t1 -23v-19.5v-14v-6l2 6q2 6 5 14t8 19.5t9 21.5t10.5 21.5t10.5 19.5l323 494q14 23 43 22h304q18 0 23 -10t-5 -29l-582 -837q-10 -12 -34 -33v-2q6 -18 4 -29l-78 -448 q-6 -33 -39 -33h-291q-33 0 -27 33l80 448q0 2 2 7.5t4.5 9.5t4.5 7t3 5l1 2q-18 25 -23 33zM449 1548l32 195q6 31 39 31h205q31 0 27 -31l-35 -195q-6 -33 -39 -32h-203q-33 0 -26 32zM901 1548l35 195q6 31 39 31h203q33 0 26 -31l-33 -195q-6 -33 -38 -32h-205 q-33 0 -27 32z" />
<glyph unicode="&#x2c6;" horiz-adv-x="782" d="M248 1289q-4 9 4 20l233 264q23 27 39 26h258q10 0 15.5 -6t11.5 -20l141 -264q4 -10 -3 -19.5t-19 -9.5h-172q-16 0 -31 18l-94 111q-8 10 -8 16q-4 -6 -17 -16l-131 -111q-20 -18 -39 -18h-170q-14 0 -18 9z" />
<glyph unicode="&#x2dc;" horiz-adv-x="821" d="M291 1305q37 117 108.5 178t149.5 61q70 0 131 -61l6 -6q23 -23 35 -30t33 -7q23 0 43 16.5t28 38.5q12 25 33 25h107q29 0 20 -27q-39 -117 -109.5 -179.5t-150.5 -62.5q-68 0 -131 64l-6 6q-23 20 -35 28.5t-31 8.5q-25 0 -45 -17.5t-28 -40.5q-12 -25 -33 -24h-107 q-29 0 -18 29z" />
<glyph unicode="&#x2000;" horiz-adv-x="926" />
<glyph unicode="&#x2001;" horiz-adv-x="1853" />
<glyph unicode="&#x2002;" horiz-adv-x="926" />
<glyph unicode="&#x2003;" horiz-adv-x="1853" />
<glyph unicode="&#x2004;" horiz-adv-x="617" />
<glyph unicode="&#x2005;" horiz-adv-x="463" />
<glyph unicode="&#x2006;" horiz-adv-x="308" />
<glyph unicode="&#x2007;" horiz-adv-x="308" />
<glyph unicode="&#x2008;" horiz-adv-x="231" />
<glyph unicode="&#x2009;" horiz-adv-x="370" />
<glyph unicode="&#x200a;" horiz-adv-x="102" />
<glyph unicode="&#x2010;" horiz-adv-x="790" d="M184 506l35 192q4 29 31 29h506q25 0 20 -29l-35 -192q-4 -27 -30 -27h-504q-27 0 -23 27z" />
<glyph unicode="&#x2011;" horiz-adv-x="790" d="M184 506l35 192q4 29 31 29h506q25 0 20 -29l-35 -192q-4 -27 -30 -27h-504q-27 0 -23 27z" />
<glyph unicode="&#x2012;" horiz-adv-x="790" d="M184 506l35 192q4 29 31 29h506q25 0 20 -29l-35 -192q-4 -27 -30 -27h-504q-27 0 -23 27z" />
<glyph unicode="&#x2013;" horiz-adv-x="1155" d="M184 506l35 194q4 27 31 27h870q27 0 23 -27l-35 -194q-4 -27 -31 -27h-870q-27 0 -23 27z" />
<glyph unicode="&#x2014;" horiz-adv-x="1374" d="M184 506l35 194q4 27 31 27h1089q27 0 23 -27l-35 -194q-6 -27 -31 -27h-1089q-27 0 -23 27z" />
<glyph unicode="&#x2018;" horiz-adv-x="552" d="M313 1153l39 223h2l17 97q16 98 83.5 158.5t159.5 62.5h56q16 0 14 -19l-18 -106q-4 -14 -17 -15h-20q-31 -2 -46.5 -19t-23.5 -65l-10 -61h67q33 0 27 -33l-39 -223q-6 -33 -39 -33h-225q-33 0 -27 33z" />
<glyph unicode="&#x2019;" horiz-adv-x="380" d="M219 1139l19 104q4 14 18 14l18 3q31 0 46.5 18t23.5 65l10 60h-67q-31 0 -27 35l41 223q6 33 37 33h225q33 0 27 -33l-39 -223v-2l-19 -97q-16 -98 -83.5 -157.5t-159.5 -61.5h-53q-18 0 -17 19z" />
<glyph unicode="&#x201a;" horiz-adv-x="552" d="M78 -262l18 106q2 14 17 15h18q33 2 47.5 19.5t22.5 64.5l12 61h-68q-33 0 -26 33l39 223q6 35 39 35h223q33 0 26 -35l-38 -223l-17 -96q-18 -98 -84.5 -159t-159.5 -63h-55q-18 0 -14 19z" />
<glyph unicode="&#x201c;" horiz-adv-x="956" d="M322 1151l38 223v2l17 97q18 98 84.5 157.5t159.5 61.5h55q18 0 14 -19l-18 -104q-2 -14 -17 -17h-18q-33 0 -47.5 -18t-22.5 -66l-12 -59h68q33 0 26 -35l-39 -223q-6 -33 -39 -33h-223q-33 0 -26 33zM725 1151l39 223v2l16 97q18 98 86 157.5t158 61.5h55q18 0 15 -19 l-19 -104q-2 -14 -16 -17h-19q-33 0 -47 -18t-22 -66l-13 -59h68q33 0 27 -35l-39 -223q-6 -33 -39 -33h-223q-33 0 -27 33z" />
<glyph unicode="&#x201d;" horiz-adv-x="784" d="M219 1137l19 104q4 14 18 14h18q31 2 46.5 20.5t23.5 65.5l10 60h-67q-31 0 -27 35l41 221q6 35 37 35h225q33 0 27 -35l-39 -221v-2l-19 -97q-16 -98 -83.5 -157.5t-159.5 -61.5h-53q-18 0 -17 19zM623 1137l18 104q4 14 18 14h19q31 2 46 20.5t24 65.5l10 60h-68 q-31 0 -26 35l41 221q6 35 36 35h226q33 0 26 -35l-39 -221v-2l-18 -97q-16 -98 -84 -157.5t-160 -61.5h-53q-18 0 -16 19z" />
<glyph unicode="&#x201e;" horiz-adv-x="954" d="M78 -260l18 104q2 14 17 15h20q31 2 45.5 20.5t22.5 65.5l12 59h-68q-33 0 -26 35l39 221q6 35 39 35h225q31 0 27 -35l-41 -221v-2l-17 -96q-16 -98 -83.5 -157.5t-160.5 -62.5h-55q-18 0 -14 19zM479 -260l19 104q2 14 16 15h18q31 2 46.5 20.5t23.5 65.5l10 59h-65 q-33 0 -27 35l39 221q6 35 39 35h223q33 0 27 -35l-39 -221v-2l-16 -96q-18 -98 -86 -157.5t-160 -62.5h-53q-18 0 -15 19z" />
<glyph unicode="&#x2022;" horiz-adv-x="925" d="M219 774q29 156 153 266.5t271 110.5q150 0 236 -110.5t59 -266.5q-27 -152 -153 -261.5t-273 -109.5t-233 110t-60 261z" />
<glyph unicode="&#x2026;" horiz-adv-x="1552" d="M117 37l39 223q6 33 39 33h225q33 0 26 -33l-38 -223q-6 -33 -39 -33h-226q-33 0 -26 33zM623 37l39 223q6 33 38 33h224q33 0 26 -33l-39 -223q-6 -33 -39 -33h-223q-33 0 -26 33zM1122 37l39 223q6 33 39 33h223q33 0 27 -33l-39 -223q-6 -33 -39 -33h-223 q-33 0 -27 33z" />
<glyph unicode="&#x202f;" horiz-adv-x="370" />
<glyph unicode="&#x2039;" horiz-adv-x="569" d="M199 479l41 236q4 23 30 43l314 256q10 8 18 2t6 -21l-43 -239q-2 -16 -22 -35l-131 -113q-8 -6 -9.5 -12t5.5 -12l90 -113q14 -18 12 -35l-43 -239q-2 -14 -12.5 -20.5t-18.5 1.5l-223 256q-18 20 -14 45z" />
<glyph unicode="&#x203a;" horiz-adv-x="569" d="M199 197l43 239q2 16 22 35l131 113q8 6 9.5 12t-5.5 12l-90 113q-14 18 -12 35l43 239q2 14 12 20.5t19 -1.5l223 -256q18 -20 14 -43l-41 -236q-4 -25 -30 -45l-314 -256q-10 -8 -18 -1.5t-6 20.5z" />
<glyph unicode="&#x205f;" horiz-adv-x="463" />
<glyph unicode="&#x20ac;" horiz-adv-x="1320" d="M186 500l25 143q4 29 31 29h67l15 78h-68q-27 0 -23 26l27 144q4 27 31 26h67l15 80q29 168 170 289t303 121h254q162 0 260 -121t67 -289l-12 -74q-4 -25 -31 -24h-301q-27 0 -20 24l6 39q12 76 -15.5 105.5t-92.5 29.5h-87q-66 0 -104.5 -29.5t-50.5 -105.5l-8 -45h233 q27 0 23 -26l-27 -144q-4 -27 -31 -26h-233l-14 -78h233q27 0 23 -29l-25 -143q-6 -27 -33 -27h-233l-9 -45q-12 -74 16 -103.5t93 -29.5h88q66 0 104.5 29.5t51.5 103.5l6 39q6 27 33 27h299q25 0 20 -27l-12 -74q-29 -166 -169 -284.5t-304 -118.5h-254 q-162 0 -260.5 118.5t-69.5 284.5l14 80h-67q-27 0 -21 27z" />
<glyph unicode="&#x2122;" horiz-adv-x="1716" d="M281 1296l24 138q4 18 33 18h526q12 0 19.5 -4t5.5 -14l-25 -138q-2 -20 -30 -20h-134q-12 0 -26 6q4 -12 2 -18l-105 -596q-4 -18 -32 -19h-160q-12 0 -19.5 4t-5.5 15l105 596q0 6 8 18q-16 -6 -29 -6h-133q-12 0 -19 5t-5 15zM842 668l135 766q2 18 31 18h186 q25 0 29 -14l96 -441q0 -4 2 -8l4 8l252 441q8 14 33 14h186q12 0 19.5 -4t5.5 -14l-133 -766q-4 -18 -33 -19h-160q-14 0 -20.5 4t-6.5 15l64 362l-201 -368q-6 -12 -28 -13h-86q-20 0 -23 13l-72 368l-63 -362q-4 -18 -33 -19h-160q-12 0 -19 4t-5 15z" />
<glyph unicode="&#x25fc;" horiz-adv-x="1135" d="M0 0v1135h1135v-1135h-1135z" />
</font>
</defs>
</svg>
