<?xml version="1.0" encoding="utf-8"?>
<!-- Generator: Adobe Illustrator 26.0.0, SVG Export Plug-In . SVG Version: 6.00 Build 0)  -->
<svg version="1.1" id="Layer_1" xmlns="http://www.w3.org/2000/svg" xmlns:xlink="http://www.w3.org/1999/xlink" x="0px" y="0px"
	 width="100%" height="230px" viewBox="0 0 850 200" style="enable-background:new 0 0 850 200;" xml:space="preserve">

<path style="fill:none;stroke:#555555;stroke-width:0.5;stroke-linecap:round;stroke-linejoin:round;stroke-miterlimit:10;" d="M16.38,34.84c-2.49,0.36-4.45,2.33-4.78,4.83"/>
<polyline style="fill:none;stroke:#555555;stroke-width:0.5;stroke-linecap:round;stroke-linejoin:round;stroke-miterlimit:10;" points="11.6,39.67 10.48,48.27 9.49,56.87 8.69,65.47 8.06,74.07 7.57,82.71 7.25,91.36 7.07,100
	7.25,108.64 7.57,117.29 8.06,125.93 8.69,134.53 9.49,143.13 10.43,151.73 11.55,160.33 "/>
<path style="fill:none;stroke:#555555;stroke-width:0.5;stroke-linecap:round;stroke-linejoin:round;stroke-miterlimit:10;" d="M11.56,160.28c0.33,2.51,2.29,4.48,4.8,4.83"/>
<polyline style="fill:none;stroke:#555555;stroke-width:0.5;stroke-linecap:round;stroke-linejoin:round;stroke-miterlimit:10;" points="14.06,37.74 12.81,45.49 11.69,53.2 10.79,60.99 10.03,68.78 9.4,76.58 9,84.37 8.73,92.16 8.64,100
	8.73,107.84 9,115.63 9.4,123.42 9.98,131.22 10.75,139.01 11.69,146.8 12.81,154.51 14.06,162.26 "/>
<path style="fill:none;stroke:#555555;stroke-width:0.5;stroke-linecap:round;stroke-linejoin:round;stroke-miterlimit:10;" d="M838.94,99.9c-0.03-6.67-3.67-12.8-9.51-16.02"/>
<polyline style="fill:none;stroke:#555555;stroke-width:0.5;stroke-linecap:round;stroke-linejoin:round;stroke-miterlimit:10;" points="829.45,83.88 820.85,79.31 812.16,74.87 803.38,70.62 794.56,66.5 785.64,62.56 776.68,58.79
	767.64,55.17 758.54,51.67 749.36,48.36 740.14,45.22 730.86,42.27 721.55,39.45 712.19,36.8 702.74,34.34 693.29,32.01 
	683.79,29.91 674.25,27.93 664.67,26.14 655.04,24.49 645.41,23.05 "/>
<path style="fill:none;stroke:#555555;stroke-width:0.5;stroke-linecap:round;stroke-linejoin:round;stroke-miterlimit:10;" d="M842.93,99.88c-0.04-8.12-4.47-15.59-11.59-19.5"/>
<polyline style="fill:none;stroke:#555555;stroke-width:0.5;stroke-linecap:round;stroke-linejoin:round;stroke-miterlimit:10;" points="831.33,80.38 822.5,75.72 813.64,71.2 804.63,66.81 795.59,62.65 786.45,58.57 777.27,54.72 768,51
	758.63,47.51 749.23,44.1 739.78,40.92 730.28,37.92 720.7,35.06 711.07,32.41 701.39,29.91 691.72,27.58 681.96,25.43 
	672.15,23.46 662.34,21.66 652.48,20.05 642.63,18.66 "/>
<polyline style="fill:none;stroke:#555555;stroke-width:0.5;stroke-linecap:round;stroke-linejoin:round;stroke-miterlimit:10;" points="639.58,21.31 619.47,19.83 599.36,18.53 579.21,17.45 559.05,16.56 538.9,15.84 518.74,15.35
	498.59,15.08 478.43,14.95 454.16,14.99 "/>
<path style="fill:none;stroke:#555555;stroke-width:0.5;stroke-linecap:round;stroke-linejoin:round;stroke-miterlimit:10;" d="M642.34,22.91c-0.63-0.92-1.64-1.5-2.75-1.59"/>
<path style="fill:none;stroke:#555555;stroke-width:0.5;stroke-linecap:round;stroke-linejoin:round;stroke-miterlimit:10;" d="M666.32,99.98c0-27.52-8.34-54.4-23.93-77.08"/>
<path style="fill:none;stroke:#555555;stroke-width:0.5;stroke-linecap:round;stroke-linejoin:round;stroke-miterlimit:10;" d="M642.39,177.06c15.59-22.68,23.93-49.56,23.93-77.08"/>
<path style="fill:none;stroke:#555555;stroke-width:0.5;stroke-linecap:round;stroke-linejoin:round;stroke-miterlimit:10;" d="M639.59,178.64c1.11-0.09,2.12-0.67,2.75-1.59"/>
<polyline style="fill:none;stroke:#555555;stroke-width:0.5;stroke-linecap:round;stroke-linejoin:round;stroke-miterlimit:10;" points="454.16,185.01 478.43,185.05 498.59,184.92 518.74,184.65 538.9,184.16 559.05,183.44 579.21,182.55
	599.36,181.47 619.47,180.17 639.58,178.69 "/>
<path style="fill:none;stroke:#555555;stroke-width:0.5;stroke-linecap:round;stroke-linejoin:round;stroke-miterlimit:10;" d="M829.43,116.08c5.84-3.22,9.48-9.35,9.51-16.02"/>
<polyline style="fill:none;stroke:#555555;stroke-width:0.5;stroke-linecap:round;stroke-linejoin:round;stroke-miterlimit:10;" points="645.41,176.95 655.04,175.51 664.67,173.86 674.25,172.07 683.79,170.09 693.29,167.99 702.74,165.66
	712.19,163.2 721.55,160.55 730.86,157.73 740.14,154.78 749.36,151.64 758.54,148.33 767.64,144.83 776.68,141.21 785.64,137.44 
	794.56,133.5 803.38,129.38 812.16,125.13 820.85,120.69 829.45,116.12 "/>
<path style="fill:none;stroke:#555555;stroke-width:0.5;stroke-linecap:round;stroke-linejoin:round;stroke-miterlimit:10;" d="M831.34,119.58c7.12-3.92,11.55-11.38,11.59-19.5"/>
<polyline style="fill:none;stroke:#555555;stroke-width:0.5;stroke-linecap:round;stroke-linejoin:round;stroke-miterlimit:10;" points="642.63,181.34 652.48,179.95 662.34,178.34 672.15,176.54 681.96,174.57 691.72,172.42 701.39,170.09
	711.07,167.59 720.7,164.94 730.28,162.08 739.78,159.08 749.23,155.9 758.63,152.49 768,149 777.27,145.28 786.45,141.43 
	795.59,137.35 804.63,133.19 813.64,128.8 822.5,124.28 831.33,119.62 "/>
<path style="fill:none;stroke:#555555;stroke-width:0.5;stroke-linecap:round;stroke-linejoin:round;stroke-miterlimit:10;" d="M823.72,105.67c2.06-1.14,3.34-3.31,3.35-5.67"/>
<polyline style="fill:none;stroke:#555555;stroke-width:0.5;stroke-linecap:round;stroke-linejoin:round;stroke-miterlimit:10;" points="808.8,113.53 816.28,109.67 823.71,105.73 "/>
<path style="fill:none;stroke:#555555;stroke-width:0.5;stroke-linecap:round;stroke-linejoin:round;stroke-miterlimit:10;" d="M802.62,99.98c0,5.19,2.25,10.13,6.16,13.53"/>
<path style="fill:none;stroke:#555555;stroke-width:0.5;stroke-linecap:round;stroke-linejoin:round;stroke-miterlimit:10;" d="M16.36,34.83c-0.41,1.47-0.16,3.06,0.69,4.33c0.85,1.27,2.21,2.12,3.73,2.31"/>
<polyline style="fill:none;stroke:#555555;stroke-width:0.5;stroke-linecap:round;stroke-linejoin:round;stroke-miterlimit:10;" points="454.16,14.95 378.42,15.44 302.64,16.07 226.9,16.87 151.11,17.86 75.38,18.93 "/>
<path style="fill:none;stroke:#555555;stroke-width:0.5;stroke-linecap:round;stroke-linejoin:round;stroke-miterlimit:10;" d="M75.4,18.94c-17.04,0.43-34.01,2.32-50.73,5.64"/>
<path style="fill:none;stroke:#555555;stroke-width:0.5;stroke-linecap:round;stroke-linejoin:round;stroke-miterlimit:10;" d="M24.64,24.55c-3.83,0.58-6.9,3.48-7.7,7.28"/>
<line style="fill:none;stroke:#555555;stroke-width:0.5;stroke-linecap:round;stroke-linejoin:round;stroke-miterlimit:10;" x1="16.97" y1="31.88" x2="16.34" y2="34.88"/>
<path style="fill:none;stroke:#555555;stroke-width:0.5;stroke-linecap:round;stroke-linejoin:round;stroke-miterlimit:10;" d="M20.78,158.49c-1.52,0.19-2.88,1.03-3.73,2.31c-0.85,1.27-1.1,2.85-0.69,4.33"/>
<polyline style="fill:none;stroke:#555555;stroke-width:0.5;stroke-linecap:round;stroke-linejoin:round;stroke-miterlimit:10;" points="24.63,175.42 31.84,176.72 39.01,177.89 46.26,178.87 53.52,179.68 60.78,180.31 68.08,180.75
	75.38,181.07 151.11,182.14 226.9,183.13 302.64,183.93 378.42,184.56 454.16,185.05 "/>
<path style="fill:none;stroke:#555555;stroke-width:0.5;stroke-linecap:round;stroke-linejoin:round;stroke-miterlimit:10;" d="M16.95,168.13c0.8,3.79,3.87,6.69,7.7,7.28"/>
<line style="fill:none;stroke:#555555;stroke-width:0.5;stroke-linecap:round;stroke-linejoin:round;stroke-miterlimit:10;" x1="16.97" y1="168.12" x2="16.34" y2="165.12"/>
<path style="fill:none;stroke:#555555;stroke-width:0.5;stroke-linecap:round;stroke-linejoin:round;stroke-miterlimit:10;" d="M494.35,147.34c5.03-0.05,9.45-3.33,10.96-8.12"/>
<line style="fill:none;stroke:#555555;stroke-width:0.5;stroke-linecap:round;stroke-linejoin:round;stroke-miterlimit:10;" x1="494.33" y1="147.39" x2="474.09" y2="147.39"/>
<path style="fill:none;stroke:#555555;stroke-width:0.5;stroke-linecap:round;stroke-linejoin:round;stroke-miterlimit:10;" d="M245.75,161.16c0,3.02,2.41,5.5,5.43,5.57"/>
<path style="fill:none;stroke:#555555;stroke-width:0.5;stroke-linecap:round;stroke-linejoin:round;stroke-miterlimit:10;" d="M247.64,161.16c0,2,1.6,3.64,3.6,3.69"/>
<polyline style="fill:none;stroke:#555555;stroke-width:0.5;stroke-linecap:round;stroke-linejoin:round;stroke-miterlimit:10;" points="351.01,166.74 351.01,127.37 359.88,127.37 359.88,125.53 342.68,125.53 342.68,127.37 349.17,127.37
	349.17,151.24 342.68,151.24 342.68,153.12 349.17,153.12 349.17,166.74 "/>
<path style="fill:none;stroke:#555555;stroke-width:0.5;stroke-linecap:round;stroke-linejoin:round;stroke-miterlimit:10;" d="M412.91,99.98c0-1.55-1.25-2.8-2.8-2.8c-1.55,0-2.8,1.25-2.8,2.8s1.25,2.8,2.8,2.8
	C411.65,102.78,412.91,101.52,412.91,99.98"/>
<line style="fill:none;stroke:#555555;stroke-width:0.5;stroke-linecap:round;stroke-linejoin:round;stroke-miterlimit:10;" x1="412.68" y1="99.06" x2="425.81" y2="94.27"/>
<line style="fill:none;stroke:#555555;stroke-width:0.5;stroke-linecap:round;stroke-linejoin:round;stroke-miterlimit:10;" x1="412.86" y1="100" x2="426.79" y2="100"/>
<line style="fill:none;stroke:#555555;stroke-width:0.5;stroke-linecap:round;stroke-linejoin:round;stroke-miterlimit:10;" x1="412.24" y1="98.21" x2="422.9" y2="89.25"/>
<line style="fill:none;stroke:#555555;stroke-width:0.5;stroke-linecap:round;stroke-linejoin:round;stroke-miterlimit:10;" x1="411.47" y1="97.58" x2="418.46" y2="85.53"/>
<line style="fill:none;stroke:#555555;stroke-width:0.5;stroke-linecap:round;stroke-linejoin:round;stroke-miterlimit:10;" x1="410.58" y1="97.27" x2="413" y2="83.56"/>
<line style="fill:none;stroke:#555555;stroke-width:0.5;stroke-linecap:round;stroke-linejoin:round;stroke-miterlimit:10;" x1="409.59" y1="97.27" x2="407.17" y2="83.56"/>
<line style="fill:none;stroke:#555555;stroke-width:0.5;stroke-linecap:round;stroke-linejoin:round;stroke-miterlimit:10;" x1="408.7" y1="97.58" x2="401.71" y2="85.53"/>
<line style="fill:none;stroke:#555555;stroke-width:0.5;stroke-linecap:round;stroke-linejoin:round;stroke-miterlimit:10;" x1="407.94" y1="98.21" x2="397.28" y2="89.25"/>
<line style="fill:none;stroke:#555555;stroke-width:0.5;stroke-linecap:round;stroke-linejoin:round;stroke-miterlimit:10;" x1="407.49" y1="99.06" x2="394.36" y2="94.27"/>
<polyline style="fill:none;stroke:#555555;stroke-width:0.5;stroke-linecap:round;stroke-linejoin:round;stroke-miterlimit:10;" points="373.94,166.87 373.94,127.37 371.52,127.37 371.52,125.53 373.94,125.53 373.94,123.74 390.11,123.74
	390.11,125.62 375.82,125.62 375.82,166.87 "/>
<polyline style="fill:none;stroke:#555555;stroke-width:0.5;stroke-linecap:round;stroke-linejoin:round;stroke-miterlimit:10;" points="429.75,93.19 442.78,100 436.2,88.85 "/>
<line style="fill:none;stroke:#555555;stroke-width:0.5;stroke-linecap:round;stroke-linejoin:round;stroke-miterlimit:10;" x1="442.78" y1="100" x2="429.97" y2="100"/>
<line style="fill:none;stroke:#555555;stroke-width:0.5;stroke-linecap:round;stroke-linejoin:round;stroke-miterlimit:10;" x1="429.75" y1="119.12" x2="442.78" y2="119.12"/>
<line style="fill:none;stroke:#555555;stroke-width:0.5;stroke-linecap:round;stroke-linejoin:round;stroke-miterlimit:10;" x1="429.75" y1="116.35" x2="442.69" y2="116.35"/>
<line style="fill:none;stroke:#555555;stroke-width:0.5;stroke-linecap:round;stroke-linejoin:round;stroke-miterlimit:10;" x1="429.75" y1="105.37" x2="442.65" y2="105.37"/>
<line style="fill:none;stroke:#555555;stroke-width:0.5;stroke-linecap:round;stroke-linejoin:round;stroke-miterlimit:10;" x1="429.75" y1="108.2" x2="442.65" y2="108.2"/>
<line style="fill:none;stroke:#555555;stroke-width:0.5;stroke-linecap:round;stroke-linejoin:round;stroke-miterlimit:10;" x1="429.75" y1="102.6" x2="442.65" y2="102.6"/>
<line style="fill:none;stroke:#555555;stroke-width:0.5;stroke-linecap:round;stroke-linejoin:round;stroke-miterlimit:10;" x1="429.75" y1="110.79" x2="442.65" y2="110.79"/>
<line style="fill:none;stroke:#555555;stroke-width:0.5;stroke-linecap:round;stroke-linejoin:round;stroke-miterlimit:10;" x1="429.75" y1="113.57" x2="442.65" y2="113.57"/>
<path style="fill:none;stroke:#555555;stroke-width:0.5;stroke-linecap:round;stroke-linejoin:round;stroke-miterlimit:10;" d="M523.71,66.56c-0.84-3.61-1.83-7.19-2.94-10.72"/>
<path style="fill:none;stroke:#555555;stroke-width:0.5;stroke-linecap:round;stroke-linejoin:round;stroke-miterlimit:10;" d="M520.77,55.86c-3.62-11.48-14.21-19.33-26.24-19.46"/>
<polyline style="fill:none;stroke:#555555;stroke-width:0.5;stroke-linecap:round;stroke-linejoin:round;stroke-miterlimit:10;" points="494.51,36.4 459.8,36.4 459.8,34.52 494.51,34.52 "/>
<path style="fill:none;stroke:#555555;stroke-width:0.5;stroke-linecap:round;stroke-linejoin:round;stroke-miterlimit:10;" d="M522.56,55.29c-3.87-12.25-15.17-20.63-28.02-20.77"/>
<path style="fill:none;stroke:#555555;stroke-width:0.5;stroke-linecap:round;stroke-linejoin:round;stroke-miterlimit:10;" d="M525.64,66.56c-0.88-3.8-1.91-7.57-3.08-11.29"/>
<path style="fill:none;stroke:#555555;stroke-width:0.5;stroke-linecap:round;stroke-linejoin:round;stroke-miterlimit:10;" d="M510.69,140.94c4.18-13.25,6.31-27.07,6.31-40.96"/>
<path style="fill:none;stroke:#555555;stroke-width:0.5;stroke-linecap:round;stroke-linejoin:round;stroke-miterlimit:10;" d="M517,99.98c0-13.9-2.13-27.71-6.31-40.96"/>
<path style="fill:none;stroke:#555555;stroke-width:0.5;stroke-linecap:round;stroke-linejoin:round;stroke-miterlimit:10;" d="M510.69,59.04c-1.73-5.49-6.08-9.75-11.61-11.37"/>
<path style="fill:none;stroke:#555555;stroke-width:0.5;stroke-linecap:round;stroke-linejoin:round;stroke-miterlimit:10;" d="M505.31,60.74c-1.51-4.79-5.93-8.07-10.96-8.12"/>
<line style="fill:none;stroke:#555555;stroke-width:0.5;stroke-linecap:round;stroke-linejoin:round;stroke-miterlimit:10;" x1="494.33" y1="52.61" x2="474.09" y2="52.61"/>
<path style="fill:none;stroke:#555555;stroke-width:0.5;stroke-linecap:round;stroke-linejoin:round;stroke-miterlimit:10;" d="M504.75,60.91c-1.44-4.55-5.64-7.67-10.41-7.72"/>
<polyline style="fill:none;stroke:#555555;stroke-width:0.5;stroke-linecap:round;stroke-linejoin:round;stroke-miterlimit:10;" points="494.33,53.2 474.09,53.2 474.09,51.22 494.33,51.22 "/>
<path style="fill:none;stroke:#555555;stroke-width:0.5;stroke-linecap:round;stroke-linejoin:round;stroke-miterlimit:10;" d="M506.63,60.32c-1.69-5.36-6.64-9.03-12.27-9.1"/>
<path style="fill:none;stroke:#555555;stroke-width:0.5;stroke-linecap:round;stroke-linejoin:round;stroke-miterlimit:10;" d="M506.59,139.66c4.05-12.84,6.11-26.22,6.11-39.68"/>
<path style="fill:none;stroke:#555555;stroke-width:0.5;stroke-linecap:round;stroke-linejoin:round;stroke-miterlimit:10;" d="M512.74,99.98c0-13.46-2.06-26.84-6.11-39.67"/>
<path style="fill:none;stroke:#555555;stroke-width:0.5;stroke-linecap:round;stroke-linejoin:round;stroke-miterlimit:10;" d="M499.08,152.29c5.52-1.62,9.87-5.88,11.61-11.37"/>
<path style="fill:none;stroke:#555555;stroke-width:0.5;stroke-linecap:round;stroke-linejoin:round;stroke-miterlimit:10;" d="M505.26,139.24c4.01-12.7,6.05-25.94,6.05-39.26"/>
<path style="fill:none;stroke:#555555;stroke-width:0.5;stroke-linecap:round;stroke-linejoin:round;stroke-miterlimit:10;" d="M511.31,99.98c0-13.32-2.04-26.56-6.05-39.26"/>
<path style="fill:none;stroke:#555555;stroke-width:0.5;stroke-linecap:round;stroke-linejoin:round;stroke-miterlimit:10;" d="M504.75,139.07c3.99-12.65,6.02-25.83,6.02-39.09"/>
<path style="fill:none;stroke:#555555;stroke-width:0.5;stroke-linecap:round;stroke-linejoin:round;stroke-miterlimit:10;" d="M510.77,99.98c0-13.26-2.03-26.44-6.02-39.09"/>
<line style="fill:none;stroke:#555555;stroke-width:0.5;stroke-linecap:round;stroke-linejoin:round;stroke-miterlimit:10;" x1="515.7" y1="118.59" x2="551.71" y2="118.59"/>
<path style="fill:none;stroke:#555555;stroke-width:0.5;stroke-linecap:round;stroke-linejoin:round;stroke-miterlimit:10;" d="M551.73,118.54c1.55,0,2.8-1.25,2.8-2.8"/>
<line style="fill:none;stroke:#555555;stroke-width:0.5;stroke-linecap:round;stroke-linejoin:round;stroke-miterlimit:10;" x1="554.49" y1="115.77" x2="554.49" y2="84.23"/>
<path style="fill:none;stroke:#555555;stroke-width:0.5;stroke-linecap:round;stroke-linejoin:round;stroke-miterlimit:10;" d="M554.53,84.21c0-1.55-1.25-2.8-2.8-2.8"/>
<line style="fill:none;stroke:#555555;stroke-width:0.5;stroke-linecap:round;stroke-linejoin:round;stroke-miterlimit:10;" x1="551.71" y1="81.41" x2="515.7" y2="81.41"/>
<line style="fill:none;stroke:#555555;stroke-width:0.5;stroke-linecap:round;stroke-linejoin:round;stroke-miterlimit:10;" x1="523.72" y1="66.59" x2="551.71" y2="66.59"/>
<path style="fill:none;stroke:#555555;stroke-width:0.5;stroke-linecap:round;stroke-linejoin:round;stroke-miterlimit:10;" d="M569.36,84.21c0-9.73-7.89-17.62-17.62-17.62"/>
<line style="fill:none;stroke:#555555;stroke-width:0.5;stroke-linecap:round;stroke-linejoin:round;stroke-miterlimit:10;" x1="569.31" y1="84.23" x2="569.31" y2="89.79"/>
<path style="fill:none;stroke:#555555;stroke-width:0.5;stroke-linecap:round;stroke-linejoin:round;stroke-miterlimit:10;" d="M569.36,89.77c0,1.55,1.25,2.8,2.8,2.8"/>
<line style="fill:none;stroke:#555555;stroke-width:0.5;stroke-linecap:round;stroke-linejoin:round;stroke-miterlimit:10;" x1="572.13" y1="92.57" x2="618.71" y2="92.57"/>
<path style="fill:none;stroke:#555555;stroke-width:0.5;stroke-linecap:round;stroke-linejoin:round;stroke-miterlimit:10;" d="M618.74,92.52c2.04,0,3.7-1.65,3.7-3.7"/>
<line style="fill:none;stroke:#555555;stroke-width:0.5;stroke-linecap:round;stroke-linejoin:round;stroke-miterlimit:10;" x1="622.43" y1="88.85" x2="622.43" y2="75.86"/>
<path style="fill:none;stroke:#555555;stroke-width:0.5;stroke-linecap:round;stroke-linejoin:round;stroke-miterlimit:10;" d="M631.72,66.54c-5.13,0-9.29,4.16-9.29,9.29"/>
<line style="fill:none;stroke:#555555;stroke-width:0.5;stroke-linecap:round;stroke-linejoin:round;stroke-miterlimit:10;" x1="631.7" y1="66.59" x2="662.11" y2="66.59"/>
<path style="fill:none;stroke:#555555;stroke-width:0.5;stroke-linecap:round;stroke-linejoin:round;stroke-miterlimit:10;" d="M572.15,107.39c-1.55,0-2.8,1.25-2.8,2.8"/>
<line style="fill:none;stroke:#555555;stroke-width:0.5;stroke-linecap:round;stroke-linejoin:round;stroke-miterlimit:10;" x1="569.31" y1="110.21" x2="569.31" y2="115.77"/>
<path style="fill:none;stroke:#555555;stroke-width:0.5;stroke-linecap:round;stroke-linejoin:round;stroke-miterlimit:10;" d="M551.73,133.37c9.73,0,17.62-7.89,17.62-17.62"/>
<line style="fill:none;stroke:#555555;stroke-width:0.5;stroke-linecap:round;stroke-linejoin:round;stroke-miterlimit:10;" x1="551.71" y1="133.41" x2="523.72" y2="133.41"/>
<line style="fill:none;stroke:#555555;stroke-width:0.5;stroke-linecap:round;stroke-linejoin:round;stroke-miterlimit:10;" x1="247.59" y1="161.18" x2="247.59" y2="161.18"/>
<line style="fill:none;stroke:#555555;stroke-width:0.5;stroke-linecap:round;stroke-linejoin:round;stroke-miterlimit:10;" x1="450.17" y1="70.08" x2="450.17" y2="68.65"/>
<path style="fill:none;stroke:#555555;stroke-width:0.5;stroke-linecap:round;stroke-linejoin:round;stroke-miterlimit:10;" d="M432.28,158.72c1.74,0,3.42-0.65,4.72-1.81"/>
<path style="fill:none;stroke:#555555;stroke-width:0.5;stroke-linecap:round;stroke-linejoin:round;stroke-miterlimit:10;" d="M446.14,151.88c-3.38,0.96-6.5,2.68-9.11,5.03"/>
<line style="fill:none;stroke:#555555;stroke-width:0.5;stroke-linecap:round;stroke-linejoin:round;stroke-miterlimit:10;" x1="424.82" y1="172.38" x2="424.82" y2="158.09"/>
<line style="fill:none;stroke:#555555;stroke-width:0.5;stroke-linecap:round;stroke-linejoin:round;stroke-miterlimit:10;" x1="428.54" y1="171.71" x2="428.54" y2="158.72"/>
<line style="fill:none;stroke:#555555;stroke-width:0.5;stroke-linecap:round;stroke-linejoin:round;stroke-miterlimit:10;" x1="432.26" y1="171.71" x2="432.26" y2="158.72"/>
<line style="fill:none;stroke:#555555;stroke-width:0.5;stroke-linecap:round;stroke-linejoin:round;stroke-miterlimit:10;" x1="445.69" y1="166.56" x2="437" y2="156.93"/>
<line style="fill:none;stroke:#555555;stroke-width:0.5;stroke-linecap:round;stroke-linejoin:round;stroke-miterlimit:10;" x1="441.66" y1="169.38" x2="435.57" y2="157.91"/>
<line style="fill:none;stroke:#555555;stroke-width:0.5;stroke-linecap:round;stroke-linejoin:round;stroke-miterlimit:10;" x1="437.09" y1="171.13" x2="433.96" y2="158.54"/>
<line style="fill:none;stroke:#555555;stroke-width:0.5;stroke-linecap:round;stroke-linejoin:round;stroke-miterlimit:10;" x1="424.82" y1="158.72" x2="432.26" y2="158.72"/>
<line style="fill:none;stroke:#555555;stroke-width:0.5;stroke-linecap:round;stroke-linejoin:round;stroke-miterlimit:10;" x1="452.37" y1="151.01" x2="452.37" y2="164"/>
<line style="fill:none;stroke:#555555;stroke-width:0.5;stroke-linecap:round;stroke-linejoin:round;stroke-miterlimit:10;" x1="441.57" y1="153.7" x2="447.66" y2="165.17"/>
<line style="fill:none;stroke:#555555;stroke-width:0.5;stroke-linecap:round;stroke-linejoin:round;stroke-miterlimit:10;" x1="446.81" y1="151.69" x2="449.95" y2="164.32"/>
<line style="fill:none;stroke:#555555;stroke-width:0.5;stroke-linecap:round;stroke-linejoin:round;stroke-miterlimit:10;" x1="456.08" y1="151.01" x2="456.08" y2="164"/>
<line style="fill:none;stroke:#555555;stroke-width:0.5;stroke-linecap:round;stroke-linejoin:round;stroke-miterlimit:10;" x1="459.8" y1="151.01" x2="452.37" y2="151.01"/>
<path style="fill:none;stroke:#555555;stroke-width:0.5;stroke-linecap:round;stroke-linejoin:round;stroke-miterlimit:10;" d="M452.39,151.01c-5.67,0-11.14,2.1-15.36,5.9"/>
<path style="fill:none;stroke:#555555;stroke-width:0.5;stroke-linecap:round;stroke-linejoin:round;stroke-miterlimit:10;" d="M432.28,158.72c1.74,0,3.42-0.65,4.72-1.81"/>
<line style="fill:none;stroke:#555555;stroke-width:0.5;stroke-linecap:round;stroke-linejoin:round;stroke-miterlimit:10;" x1="432.26" y1="158.72" x2="424.82" y2="158.72"/>
<line style="fill:none;stroke:#555555;stroke-width:0.5;stroke-linecap:round;stroke-linejoin:round;stroke-miterlimit:10;" x1="459.8" y1="150.39" x2="452.37" y2="150.39"/>
<path style="fill:none;stroke:#555555;stroke-width:0.5;stroke-linecap:round;stroke-linejoin:round;stroke-miterlimit:10;" d="M452.39,150.34c-5.84,0-11.47,2.16-15.81,6.07"/>
<path style="fill:none;stroke:#555555;stroke-width:0.5;stroke-linecap:round;stroke-linejoin:round;stroke-miterlimit:10;" d="M432.28,158.09c1.59,0,3.12-0.59,4.3-1.65"/>
<line style="fill:none;stroke:#555555;stroke-width:0.5;stroke-linecap:round;stroke-linejoin:round;stroke-miterlimit:10;" x1="432.26" y1="158.09" x2="424.82" y2="158.09"/>
<line style="fill:none;stroke:#555555;stroke-width:0.5;stroke-linecap:round;stroke-linejoin:round;stroke-miterlimit:10;" x1="424.82" y1="171.71" x2="432.26" y2="171.71"/>
<path style="fill:none;stroke:#555555;stroke-width:0.5;stroke-linecap:round;stroke-linejoin:round;stroke-miterlimit:10;" d="M432.28,171.71c4.95,0,9.73-1.83,13.41-5.15"/>
<path style="fill:none;stroke:#555555;stroke-width:0.5;stroke-linecap:round;stroke-linejoin:round;stroke-miterlimit:10;" d="M452.39,164c-2.46,0-4.84,0.91-6.67,2.56"/>
<line style="fill:none;stroke:#555555;stroke-width:0.5;stroke-linecap:round;stroke-linejoin:round;stroke-miterlimit:10;" x1="452.37" y1="164" x2="459.8" y2="164"/>
<line style="fill:none;stroke:#555555;stroke-width:0.5;stroke-linecap:round;stroke-linejoin:round;stroke-miterlimit:10;" x1="424.82" y1="172.38" x2="432.26" y2="172.38"/>
<path style="fill:none;stroke:#555555;stroke-width:0.5;stroke-linecap:round;stroke-linejoin:round;stroke-miterlimit:10;" d="M432.28,172.38c5.12,0,10.06-1.9,13.86-5.32"/>
<path style="fill:none;stroke:#555555;stroke-width:0.5;stroke-linecap:round;stroke-linejoin:round;stroke-miterlimit:10;" d="M452.39,164.63c-2.31,0-4.53,0.85-6.25,2.4"/>
<polyline style="fill:none;stroke:#555555;stroke-width:0.5;stroke-linecap:round;stroke-linejoin:round;stroke-miterlimit:10;" points="452.37,164.68 459.8,164.68 459.8,150.39 "/>
<line style="fill:none;stroke:#555555;stroke-width:0.5;stroke-linecap:round;stroke-linejoin:round;stroke-miterlimit:10;" x1="432.26" y1="158.72" x2="432.26" y2="158.72"/>
<line style="fill:none;stroke:#555555;stroke-width:0.5;stroke-linecap:round;stroke-linejoin:round;stroke-miterlimit:10;" x1="428.54" y1="160.02" x2="428.54" y2="160.02"/>
<line style="fill:none;stroke:#555555;stroke-width:0.5;stroke-linecap:round;stroke-linejoin:round;stroke-miterlimit:10;" x1="446.1" y1="151.87" x2="446.1" y2="151.87"/>
<path style="fill:none;stroke:#555555;stroke-width:0.5;stroke-linecap:round;stroke-linejoin:round;stroke-miterlimit:10;" d="M437,43.05c-1.3-1.17-2.98-1.81-4.72-1.81"/>
<path style="fill:none;stroke:#555555;stroke-width:0.5;stroke-linecap:round;stroke-linejoin:round;stroke-miterlimit:10;" d="M437.03,43.04c2.61,2.35,5.73,4.07,9.11,5.03"/>
<line style="fill:none;stroke:#555555;stroke-width:0.5;stroke-linecap:round;stroke-linejoin:round;stroke-miterlimit:10;" x1="424.82" y1="27.62" x2="424.82" y2="41.91"/>
<line style="fill:none;stroke:#555555;stroke-width:0.5;stroke-linecap:round;stroke-linejoin:round;stroke-miterlimit:10;" x1="428.54" y1="28.29" x2="428.54" y2="41.28"/>
<line style="fill:none;stroke:#555555;stroke-width:0.5;stroke-linecap:round;stroke-linejoin:round;stroke-miterlimit:10;" x1="432.26" y1="28.29" x2="432.26" y2="41.28"/>
<line style="fill:none;stroke:#555555;stroke-width:0.5;stroke-linecap:round;stroke-linejoin:round;stroke-miterlimit:10;" x1="445.69" y1="33.44" x2="437" y2="43.07"/>
<line style="fill:none;stroke:#555555;stroke-width:0.5;stroke-linecap:round;stroke-linejoin:round;stroke-miterlimit:10;" x1="441.66" y1="30.62" x2="435.57" y2="42.09"/>
<line style="fill:none;stroke:#555555;stroke-width:0.5;stroke-linecap:round;stroke-linejoin:round;stroke-miterlimit:10;" x1="437.09" y1="28.87" x2="433.96" y2="41.46"/>
<line style="fill:none;stroke:#555555;stroke-width:0.5;stroke-linecap:round;stroke-linejoin:round;stroke-miterlimit:10;" x1="424.82" y1="41.28" x2="432.26" y2="41.28"/>
<line style="fill:none;stroke:#555555;stroke-width:0.5;stroke-linecap:round;stroke-linejoin:round;stroke-miterlimit:10;" x1="452.37" y1="48.99" x2="452.37" y2="36"/>
<line style="fill:none;stroke:#555555;stroke-width:0.5;stroke-linecap:round;stroke-linejoin:round;stroke-miterlimit:10;" x1="441.57" y1="46.3" x2="447.66" y2="34.83"/>
<line style="fill:none;stroke:#555555;stroke-width:0.5;stroke-linecap:round;stroke-linejoin:round;stroke-miterlimit:10;" x1="446.81" y1="48.31" x2="449.95" y2="35.68"/>
<line style="fill:none;stroke:#555555;stroke-width:0.5;stroke-linecap:round;stroke-linejoin:round;stroke-miterlimit:10;" x1="456.08" y1="48.99" x2="456.08" y2="36"/>
<line style="fill:none;stroke:#555555;stroke-width:0.5;stroke-linecap:round;stroke-linejoin:round;stroke-miterlimit:10;" x1="459.8" y1="48.99" x2="452.37" y2="48.99"/>
<path style="fill:none;stroke:#555555;stroke-width:0.5;stroke-linecap:round;stroke-linejoin:round;stroke-miterlimit:10;" d="M437.03,43.04c4.22,3.8,9.69,5.9,15.36,5.9"/>
<path style="fill:none;stroke:#555555;stroke-width:0.5;stroke-linecap:round;stroke-linejoin:round;stroke-miterlimit:10;" d="M437,43.05c-1.3-1.17-2.98-1.81-4.72-1.81"/>
<line style="fill:none;stroke:#555555;stroke-width:0.5;stroke-linecap:round;stroke-linejoin:round;stroke-miterlimit:10;" x1="432.26" y1="41.28" x2="424.82" y2="41.28"/>
<line style="fill:none;stroke:#555555;stroke-width:0.5;stroke-linecap:round;stroke-linejoin:round;stroke-miterlimit:10;" x1="459.8" y1="49.61" x2="452.37" y2="49.61"/>
<path style="fill:none;stroke:#555555;stroke-width:0.5;stroke-linecap:round;stroke-linejoin:round;stroke-miterlimit:10;" d="M436.58,43.54c4.34,3.91,9.97,6.07,15.81,6.07"/>
<path style="fill:none;stroke:#555555;stroke-width:0.5;stroke-linecap:round;stroke-linejoin:round;stroke-miterlimit:10;" d="M436.58,43.51c-1.18-1.06-2.71-1.65-4.3-1.65"/>
<line style="fill:none;stroke:#555555;stroke-width:0.5;stroke-linecap:round;stroke-linejoin:round;stroke-miterlimit:10;" x1="432.26" y1="41.91" x2="424.82" y2="41.91"/>
<line style="fill:none;stroke:#555555;stroke-width:0.5;stroke-linecap:round;stroke-linejoin:round;stroke-miterlimit:10;" x1="424.82" y1="28.29" x2="432.26" y2="28.29"/>
<path style="fill:none;stroke:#555555;stroke-width:0.5;stroke-linecap:round;stroke-linejoin:round;stroke-miterlimit:10;" d="M445.69,33.4c-3.68-3.31-8.46-5.15-13.41-5.15"/>
<path style="fill:none;stroke:#555555;stroke-width:0.5;stroke-linecap:round;stroke-linejoin:round;stroke-miterlimit:10;" d="M445.72,33.39c1.83,1.65,4.21,2.56,6.67,2.56"/>
<line style="fill:none;stroke:#555555;stroke-width:0.5;stroke-linecap:round;stroke-linejoin:round;stroke-miterlimit:10;" x1="452.37" y1="36" x2="459.8" y2="36"/>
<line style="fill:none;stroke:#555555;stroke-width:0.5;stroke-linecap:round;stroke-linejoin:round;stroke-miterlimit:10;" x1="424.82" y1="27.62" x2="432.26" y2="27.62"/>
<path style="fill:none;stroke:#555555;stroke-width:0.5;stroke-linecap:round;stroke-linejoin:round;stroke-miterlimit:10;" d="M446.14,32.9c-3.8-3.43-8.74-5.32-13.86-5.32"/>
<path style="fill:none;stroke:#555555;stroke-width:0.5;stroke-linecap:round;stroke-linejoin:round;stroke-miterlimit:10;" d="M446.14,32.93c1.72,1.54,3.94,2.4,6.25,2.4"/>
<polyline style="fill:none;stroke:#555555;stroke-width:0.5;stroke-linecap:round;stroke-linejoin:round;stroke-miterlimit:10;" points="452.37,35.32 459.8,35.32 459.8,49.61 "/>
<line style="fill:none;stroke:#555555;stroke-width:0.5;stroke-linecap:round;stroke-linejoin:round;stroke-miterlimit:10;" x1="432.26" y1="41.28" x2="432.26" y2="41.28"/>
<line style="fill:none;stroke:#555555;stroke-width:0.5;stroke-linecap:round;stroke-linejoin:round;stroke-miterlimit:10;" x1="428.54" y1="39.98" x2="428.54" y2="39.98"/>
<line style="fill:none;stroke:#555555;stroke-width:0.5;stroke-linecap:round;stroke-linejoin:round;stroke-miterlimit:10;" x1="446.1" y1="48.13" x2="446.1" y2="48.13"/>
<line style="fill:none;stroke:#555555;stroke-width:0.5;stroke-linecap:round;stroke-linejoin:round;stroke-miterlimit:10;" x1="232.18" y1="155.67" x2="232.18" y2="151.96"/>
<path style="fill:none;stroke:#555555;stroke-width:0.5;stroke-linecap:round;stroke-linejoin:round;stroke-miterlimit:10;" d="M232.23,151.93c0-3.05-2.48-5.53-5.53-5.53"/>
<path style="fill:none;stroke:#555555;stroke-width:0.5;stroke-linecap:round;stroke-linejoin:round;stroke-miterlimit:10;" d="M209.08,133.6c2.48,7.63,9.59,12.8,17.61,12.8"/>
<line style="fill:none;stroke:#555555;stroke-width:0.5;stroke-linecap:round;stroke-linejoin:round;stroke-miterlimit:10;" x1="231.91" y1="150.21" x2="244.28" y2="146.22"/>
<line style="fill:none;stroke:#555555;stroke-width:0.5;stroke-linecap:round;stroke-linejoin:round;stroke-miterlimit:10;" x1="231.11" y1="148.69" x2="241.63" y2="141.03"/>
<line style="fill:none;stroke:#555555;stroke-width:0.5;stroke-linecap:round;stroke-linejoin:round;stroke-miterlimit:10;" x1="245.75" y1="155.85" x2="245.75" y2="151.96"/>
<path style="fill:none;stroke:#555555;stroke-width:0.5;stroke-linecap:round;stroke-linejoin:round;stroke-miterlimit:10;" d="M245.75,151.93c0-10.55-8.53-19.1-19.06-19.1"/>
<path style="fill:none;stroke:#555555;stroke-width:0.5;stroke-linecap:round;stroke-linejoin:round;stroke-miterlimit:10;" d="M221.99,129.41c0.66,2.04,2.56,3.42,4.71,3.42"/>
<line style="fill:none;stroke:#555555;stroke-width:0.5;stroke-linecap:round;stroke-linejoin:round;stroke-miterlimit:10;" x1="245.17" y1="151.96" x2="232.18" y2="151.96"/>
<line style="fill:none;stroke:#555555;stroke-width:0.5;stroke-linecap:round;stroke-linejoin:round;stroke-miterlimit:10;" x1="229.9" y1="147.48" x2="237.56" y2="136.95"/>
<line style="fill:none;stroke:#555555;stroke-width:0.5;stroke-linecap:round;stroke-linejoin:round;stroke-miterlimit:10;" x1="228.38" y1="146.67" x2="232.36" y2="134.31"/>
<line style="fill:none;stroke:#555555;stroke-width:0.5;stroke-linecap:round;stroke-linejoin:round;stroke-miterlimit:10;" x1="226.67" y1="146.4" x2="226.67" y2="133.41"/>
<line style="fill:none;stroke:#555555;stroke-width:0.5;stroke-linecap:round;stroke-linejoin:round;stroke-miterlimit:10;" x1="245.17" y1="155.85" x2="245.17" y2="151.96"/>
<path style="fill:none;stroke:#555555;stroke-width:0.5;stroke-linecap:round;stroke-linejoin:round;stroke-miterlimit:10;" d="M245.22,151.93c0-10.23-8.29-18.52-18.52-18.52"/>
<path style="fill:none;stroke:#555555;stroke-width:0.5;stroke-linecap:round;stroke-linejoin:round;stroke-miterlimit:10;" d="M221.44,129.59c0.74,2.28,2.86,3.82,5.26,3.82"/>
<line style="fill:none;stroke:#555555;stroke-width:0.5;stroke-linecap:round;stroke-linejoin:round;stroke-miterlimit:10;" x1="224.93" y1="133.14" x2="220.94" y2="145.51"/>
<line style="fill:none;stroke:#555555;stroke-width:0.5;stroke-linecap:round;stroke-linejoin:round;stroke-miterlimit:10;" x1="215.79" y1="142.86" x2="223.4" y2="132.38"/>
<line style="fill:none;stroke:#555555;stroke-width:0.5;stroke-linecap:round;stroke-linejoin:round;stroke-miterlimit:10;" x1="222.19" y1="131.13" x2="211.67" y2="138.79"/>
<line style="fill:none;stroke:#555555;stroke-width:0.5;stroke-linecap:round;stroke-linejoin:round;stroke-miterlimit:10;" x1="208.53" y1="133.77" x2="221.93" y2="129.43"/>
<path style="fill:none;stroke:#555555;stroke-width:0.5;stroke-linecap:round;stroke-linejoin:round;stroke-miterlimit:10;" d="M208.57,133.77c2.55,7.85,9.87,13.17,18.12,13.17"/>
<path style="fill:none;stroke:#555555;stroke-width:0.5;stroke-linecap:round;stroke-linejoin:round;stroke-miterlimit:10;" d="M231.65,151.93c0-2.73-2.22-4.95-4.95-4.95"/>
<line style="fill:none;stroke:#555555;stroke-width:0.5;stroke-linecap:round;stroke-linejoin:round;stroke-miterlimit:10;" x1="231.65" y1="151.96" x2="231.65" y2="155.63"/>
<polyline style="fill:none;stroke:#555555;stroke-width:0.5;stroke-linecap:round;stroke-linejoin:round;stroke-miterlimit:10;" points="444.62,151.69 444.62,88.89 450.17,88.89 450.17,68.65 442.56,68.65 442.56,70.66 448.16,70.66
	448.16,86.92 442.65,86.92 442.65,152.45 "/>
<polyline style="fill:none;stroke:#555555;stroke-width:0.5;stroke-linecap:round;stroke-linejoin:round;stroke-miterlimit:10;" points="407.31,100 385.9,100 385.9,98.03 373.94,98.03 373.94,83.29 351.01,83.29 351.01,98.03 349.17,98.03
	349.17,33.26 316.52,33.62 283.87,34.25 251.22,35.1 "/>
<path style="fill:none;stroke:#555555;stroke-width:0.5;stroke-linecap:round;stroke-linejoin:round;stroke-miterlimit:10;" d="M251.23,35.1c-2,0.05-3.6,1.69-3.6,3.69"/>
<polyline style="fill:none;stroke:#555555;stroke-width:0.5;stroke-linecap:round;stroke-linejoin:round;stroke-miterlimit:10;" points="247.59,38.82 247.59,85.89 245.71,85.89 245.71,38.82 "/>
<path style="fill:none;stroke:#555555;stroke-width:0.5;stroke-linecap:round;stroke-linejoin:round;stroke-miterlimit:10;" d="M251.19,33.22c-3.02,0.08-5.43,2.55-5.43,5.57"/>
<polyline style="fill:none;stroke:#555555;stroke-width:0.5;stroke-linecap:round;stroke-linejoin:round;stroke-miterlimit:10;" points="424.82,31.43 395.89,31.25 366.91,31.29 337.97,31.52 309.04,31.88 280.11,32.46 251.13,33.22 "/>
<polyline style="fill:none;stroke:#555555;stroke-width:0.5;stroke-linecap:round;stroke-linejoin:round;stroke-miterlimit:10;" points="444.44,48.27 444.44,51.22 460.79,51.22 460.79,53.2 442.56,53.2 442.56,49.52 "/>
<path style="fill:none;stroke:#555555;stroke-width:0.5;stroke-linecap:round;stroke-linejoin:round;stroke-miterlimit:10;" d="M435.35,44.91c2.14,1.93,4.59,3.48,7.25,4.59"/>
<path style="fill:none;stroke:#555555;stroke-width:0.5;stroke-linecap:round;stroke-linejoin:round;stroke-miterlimit:10;" d="M435.32,44.91c-0.83-0.75-1.92-1.17-3.04-1.17"/>
<polyline style="fill:none;stroke:#555555;stroke-width:0.5;stroke-linecap:round;stroke-linejoin:round;stroke-miterlimit:10;" points="432.26,43.79 424.82,43.79 424.82,41.91 "/>
<polyline style="fill:none;stroke:#555555;stroke-width:0.5;stroke-linecap:round;stroke-linejoin:round;stroke-miterlimit:10;" points="251.22,164.9 280.15,165.66 309.09,166.24 338.02,166.65 366.95,166.83 395.89,166.87 424.82,166.69
	"/>
<path style="fill:none;stroke:#555555;stroke-width:0.5;stroke-linecap:round;stroke-linejoin:round;stroke-miterlimit:10;" d="M247.64,161.16c0,2,1.6,3.64,3.6,3.69"/>
<polyline style="fill:none;stroke:#555555;stroke-width:0.5;stroke-linecap:round;stroke-linejoin:round;stroke-miterlimit:10;" points="247.59,161.18 247.59,114.11 245.71,114.11 245.71,161.18 "/>
<path style="fill:none;stroke:#555555;stroke-width:0.5;stroke-linecap:round;stroke-linejoin:round;stroke-miterlimit:10;" d="M245.75,161.16c0,3.02,2.41,5.5,5.43,5.57"/>
<polyline style="fill:none;stroke:#555555;stroke-width:0.5;stroke-linecap:round;stroke-linejoin:round;stroke-miterlimit:10;" points="251.13,166.78 280.11,167.54 309.04,168.12 337.97,168.48 366.91,168.71 395.89,168.75 424.82,168.57
	"/>
<polyline style="fill:none;stroke:#555555;stroke-width:0.5;stroke-linecap:round;stroke-linejoin:round;stroke-miterlimit:10;" points="424.82,33.31 400.23,33.13 375.64,33.13 351.01,33.26 351.01,81.28 373.94,81.28 373.94,80.07
	375.96,80.07 375.96,96.01 387.96,96.01 387.96,81.28 389.93,81.28 389.93,98.03 391.5,98.03 "/>
<path style="fill:none;stroke:#555555;stroke-width:0.5;stroke-linecap:round;stroke-linejoin:round;stroke-miterlimit:10;" d="M423.5,86.92c-5.06-5.19-12.66-6.99-19.5-4.62c-6.85,2.37-11.71,8.48-12.48,15.68"/>
<polyline style="fill:none;stroke:#555555;stroke-width:0.5;stroke-linecap:round;stroke-linejoin:round;stroke-miterlimit:10;" points="423.48,86.92 442.65,86.92 442.65,88.85 429.75,88.85 429.75,120.6 406.14,120.6 406.14,125.62
	400.5,125.62 400.5,123.74 404.26,123.74 404.26,116.66 410.04,116.66 "/>
<path style="fill:none;stroke:#555555;stroke-width:0.5;stroke-linecap:round;stroke-linejoin:round;stroke-miterlimit:10;" d="M410.04,116.66c6.75,0.03,12.86-4.02,15.46-10.25c2.61-6.23,1.2-13.42-3.57-18.21
	c-4.76-4.79-11.95-6.23-18.19-3.65c-6.24,2.58-10.32,8.66-10.32,15.42"/>
<polyline style="fill:none;stroke:#555555;stroke-width:0.5;stroke-linecap:round;stroke-linejoin:round;stroke-miterlimit:10;" points="373.94,33.13 373.94,67.04 375.96,67.04 375.96,33.13 "/>
<line style="fill:none;stroke:#555555;stroke-width:0.5;stroke-linecap:round;stroke-linejoin:round;stroke-miterlimit:10;" x1="373.94" y1="80.07" x2="373.94" y2="81.28"/>
<path style="fill:none;stroke:#555555;stroke-width:0.5;stroke-linecap:round;stroke-linejoin:round;stroke-miterlimit:10;" d="M351.04,97.97c7.41,2.65,15.51,2.65,22.92,0"/>
<path style="fill:none;stroke:#555555;stroke-width:0.5;stroke-linecap:round;stroke-linejoin:round;stroke-miterlimit:10;" d="M239.98,120.1c0.8,2.47,3.21,4.04,5.79,3.8"/>
<path style="fill:none;stroke:#555555;stroke-width:0.5;stroke-linecap:round;stroke-linejoin:round;stroke-miterlimit:10;" d="M239.97,120.1c-2.48-7.63-9.59-12.8-17.61-12.8"/>
<line style="fill:none;stroke:#555555;stroke-width:0.5;stroke-linecap:round;stroke-linejoin:round;stroke-miterlimit:10;" x1="245.22" y1="123.96" x2="245.22" y2="136.95"/>
<line style="fill:none;stroke:#555555;stroke-width:0.5;stroke-linecap:round;stroke-linejoin:round;stroke-miterlimit:10;" x1="243.47" y1="123.69" x2="239.48" y2="136.06"/>
<line style="fill:none;stroke:#555555;stroke-width:0.5;stroke-linecap:round;stroke-linejoin:round;stroke-miterlimit:10;" x1="251.08" y1="136.59" x2="251.08" y2="136.59"/>
<path style="fill:none;stroke:#555555;stroke-width:0.5;stroke-linecap:round;stroke-linejoin:round;stroke-miterlimit:10;" d="M227.11,124.29c2.61,8.06,10.2,13.43,18.65,13.19"/>
<path style="fill:none;stroke:#555555;stroke-width:0.5;stroke-linecap:round;stroke-linejoin:round;stroke-miterlimit:10;" d="M227.06,124.29c-0.66-2.04-2.56-3.42-4.71-3.42"/>
<line style="fill:none;stroke:#555555;stroke-width:0.5;stroke-linecap:round;stroke-linejoin:round;stroke-miterlimit:10;" x1="241.95" y1="122.89" x2="234.33" y2="133.41"/>
<line style="fill:none;stroke:#555555;stroke-width:0.5;stroke-linecap:round;stroke-linejoin:round;stroke-miterlimit:10;" x1="240.74" y1="121.68" x2="230.21" y2="129.34"/>
<line style="fill:none;stroke:#555555;stroke-width:0.5;stroke-linecap:round;stroke-linejoin:round;stroke-miterlimit:10;" x1="239.93" y1="120.16" x2="227.57" y2="124.14"/>
<path style="fill:none;stroke:#555555;stroke-width:0.5;stroke-linecap:round;stroke-linejoin:round;stroke-miterlimit:10;" d="M227.63,124.11c2.54,7.82,9.93,13.02,18.14,12.79"/>
<path style="fill:none;stroke:#555555;stroke-width:0.5;stroke-linecap:round;stroke-linejoin:round;stroke-miterlimit:10;" d="M227.61,124.11c-0.74-2.28-2.86-3.82-5.26-3.82"/>
<line style="fill:none;stroke:#555555;stroke-width:0.5;stroke-linecap:round;stroke-linejoin:round;stroke-miterlimit:10;" x1="226.81" y1="122.62" x2="237.33" y2="114.96"/>
<line style="fill:none;stroke:#555555;stroke-width:0.5;stroke-linecap:round;stroke-linejoin:round;stroke-miterlimit:10;" x1="233.21" y1="110.88" x2="225.6" y2="121.36"/>
<line style="fill:none;stroke:#555555;stroke-width:0.5;stroke-linecap:round;stroke-linejoin:round;stroke-miterlimit:10;" x1="224.03" y1="120.6" x2="228.06" y2="108.24"/>
<line style="fill:none;stroke:#555555;stroke-width:0.5;stroke-linecap:round;stroke-linejoin:round;stroke-miterlimit:10;" x1="222.33" y1="106.76" x2="222.33" y2="120.92"/>
<path style="fill:none;stroke:#555555;stroke-width:0.5;stroke-linecap:round;stroke-linejoin:round;stroke-miterlimit:10;" d="M240.48,119.93c-2.55-7.85-9.87-13.17-18.12-13.17"/>
<path style="fill:none;stroke:#555555;stroke-width:0.5;stroke-linecap:round;stroke-linejoin:round;stroke-miterlimit:10;" d="M240.53,119.92c0.72,2.22,2.9,3.64,5.23,3.39"/>
<polyline style="fill:none;stroke:#555555;stroke-width:0.5;stroke-linecap:round;stroke-linejoin:round;stroke-miterlimit:10;" points="50.34,100 50.52,109.36 50.88,118.72 51.46,128.08 52.22,137.44 53.12,146.76 "/>
<path style="fill:none;stroke:#555555;stroke-width:0.5;stroke-linecap:round;stroke-linejoin:round;stroke-miterlimit:10;" d="M53.16,146.75c0.79,7.13,6.56,12.68,13.72,13.18"/>
<polyline style="fill:none;stroke:#555555;stroke-width:0.5;stroke-linecap:round;stroke-linejoin:round;stroke-miterlimit:10;" points="66.87,159.97 94.37,161.81 121.87,163.47 149.37,164.99 176.91,166.33 204.41,167.54 231.96,168.53
	259.5,169.38 287.05,170.09 314.64,170.59 342.19,170.95 369.73,171.13 397.28,171.13 424.87,170.95 "/>
<polyline style="fill:none;stroke:#555555;stroke-width:0.5;stroke-linecap:round;stroke-linejoin:round;stroke-miterlimit:10;" points="52.76,100 52.94,109.32 53.3,118.63 53.83,127.95 54.59,137.22 55.49,146.49 "/>
<path style="fill:none;stroke:#555555;stroke-width:0.5;stroke-linecap:round;stroke-linejoin:round;stroke-miterlimit:10;" d="M55.52,146.49c0.66,5.99,5.51,10.65,11.52,11.08"/>
<polyline style="fill:none;stroke:#555555;stroke-width:0.5;stroke-linecap:round;stroke-linejoin:round;stroke-miterlimit:10;" points="67,157.55 94.5,159.44 122,161.09 149.5,162.62 177,163.96 204.55,165.12 232.05,166.15 259.59,167
	287.14,167.68 314.64,168.21 342.19,168.53 369.73,168.71 397.28,168.71 424.82,168.57 "/>
<polyline style="fill:none;stroke:#555555;stroke-width:0.5;stroke-linecap:round;stroke-linejoin:round;stroke-miterlimit:10;" points="53.12,53.24 52.22,62.56 51.46,71.92 50.88,81.28 50.52,90.64 50.34,100 "/>
<path style="fill:none;stroke:#555555;stroke-width:0.5;stroke-linecap:round;stroke-linejoin:round;stroke-miterlimit:10;" d="M66.88,40.02c-7.16,0.5-12.93,6.05-13.72,13.18"/>
<polyline style="fill:none;stroke:#555555;stroke-width:0.5;stroke-linecap:round;stroke-linejoin:round;stroke-miterlimit:10;" points="424.87,29.05 397.28,28.87 369.73,28.87 342.19,29.05 314.64,29.41 287.05,29.91 259.5,30.62
	231.96,31.47 204.41,32.46 176.91,33.67 149.37,35.01 121.87,36.53 94.37,38.19 66.87,40.03 "/>
<polyline style="fill:none;stroke:#555555;stroke-width:0.5;stroke-linecap:round;stroke-linejoin:round;stroke-miterlimit:10;" points="55.49,53.51 54.59,62.78 53.83,72.05 53.3,81.37 52.94,90.68 52.76,100 "/>
<path style="fill:none;stroke:#555555;stroke-width:0.5;stroke-linecap:round;stroke-linejoin:round;stroke-miterlimit:10;" d="M67.04,42.39c-6.01,0.42-10.86,5.08-11.52,11.08"/>
<polyline style="fill:none;stroke:#555555;stroke-width:0.5;stroke-linecap:round;stroke-linejoin:round;stroke-miterlimit:10;" points="424.82,31.43 397.28,31.29 369.73,31.29 342.19,31.47 314.64,31.79 287.14,32.32 259.59,33
	232.05,33.85 204.55,34.88 177,36.04 149.5,37.38 122,38.91 94.5,40.56 67,42.45 "/>
<path style="fill:none;stroke:#555555;stroke-width:0.5;stroke-linecap:round;stroke-linejoin:round;stroke-miterlimit:10;" d="M520.77,144.12c1.12-3.54,2.1-7.11,2.94-10.72"/>
<path style="fill:none;stroke:#555555;stroke-width:0.5;stroke-linecap:round;stroke-linejoin:round;stroke-miterlimit:10;" d="M494.52,163.55c12.03-0.13,22.62-7.98,26.24-19.46"/>
<polyline style="fill:none;stroke:#555555;stroke-width:0.5;stroke-linecap:round;stroke-linejoin:round;stroke-miterlimit:10;" points="494.51,163.6 459.8,163.6 459.8,165.48 494.51,165.48 "/>
<path style="fill:none;stroke:#555555;stroke-width:0.5;stroke-linecap:round;stroke-linejoin:round;stroke-miterlimit:10;" d="M494.54,165.44c12.85-0.14,24.15-8.52,28.02-20.77"/>
<path style="fill:none;stroke:#555555;stroke-width:0.5;stroke-linecap:round;stroke-linejoin:round;stroke-miterlimit:10;" d="M522.56,144.69c1.17-3.72,2.2-7.49,3.08-11.29"/>
<path style="fill:none;stroke:#555555;stroke-width:0.5;stroke-linecap:round;stroke-linejoin:round;stroke-miterlimit:10;" d="M827.07,99.95c-0.01-2.36-1.29-4.52-3.35-5.67"/>
<polyline style="fill:none;stroke:#555555;stroke-width:0.5;stroke-linecap:round;stroke-linejoin:round;stroke-miterlimit:10;" points="823.71,94.27 816.28,90.33 808.8,86.47 "/>
<path style="fill:none;stroke:#555555;stroke-width:0.5;stroke-linecap:round;stroke-linejoin:round;stroke-miterlimit:10;" d="M808.78,86.44c-3.92,3.41-6.16,8.34-6.16,13.53"/>
<path style="fill:none;stroke:#555555;stroke-width:0.5;stroke-linecap:round;stroke-linejoin:round;stroke-miterlimit:10;" d="M494.34,146.76c4.77-0.05,8.97-3.17,10.41-7.72"/>
<polyline style="fill:none;stroke:#555555;stroke-width:0.5;stroke-linecap:round;stroke-linejoin:round;stroke-miterlimit:10;" points="494.33,146.8 474.09,146.8 474.09,148.78 494.33,148.78 "/>
<path style="fill:none;stroke:#555555;stroke-width:0.5;stroke-linecap:round;stroke-linejoin:round;stroke-miterlimit:10;" d="M494.36,148.73c5.63-0.06,10.57-3.73,12.27-9.1"/>
<polyline style="fill:none;stroke:#555555;stroke-width:0.5;stroke-linecap:round;stroke-linejoin:round;stroke-miterlimit:10;" points="444.62,146.8 460.79,146.8 460.79,148.78 444.62,148.78 "/>
<path style="fill:none;stroke:#555555;stroke-width:0.5;stroke-linecap:round;stroke-linejoin:round;stroke-miterlimit:10;" d="M670.42,46.43c-3.23-0.63-6.55,0.48-8.74,2.94c-2.19,2.46-2.91,5.89-1.91,9.02"/>
<polyline style="fill:none;stroke:#555555;stroke-width:0.5;stroke-linecap:round;stroke-linejoin:round;stroke-miterlimit:10;" points="804.41,92.21 795.9,88.04 787.3,84.06 778.65,80.2 769.97,76.49 761.14,72.95 752.32,69.59
	743.41,66.36 734.45,63.32 725.45,60.41 716.4,57.67 707.26,55.12 698.12,52.7 688.9,50.46 679.67,48.4 670.4,46.48 "/>
<path style="fill:none;stroke:#555555;stroke-width:0.5;stroke-linecap:round;stroke-linejoin:round;stroke-miterlimit:10;" d="M659.78,141.57c-1,3.13-0.28,6.56,1.91,9.02c2.19,2.46,5.51,3.58,8.74,2.94"/>
<polyline style="fill:none;stroke:#555555;stroke-width:0.5;stroke-linecap:round;stroke-linejoin:round;stroke-miterlimit:10;" points="670.4,153.52 679.67,151.6 688.9,149.54 698.12,147.3 707.26,144.88 716.4,142.33 725.45,139.59
	734.45,136.68 743.41,133.64 752.32,130.41 761.14,127.05 769.97,123.51 778.65,119.8 787.3,115.94 795.9,111.96 804.41,107.79 "/>
<line style="fill:none;stroke:#555555;stroke-width:0.5;stroke-linecap:round;stroke-linejoin:round;stroke-miterlimit:10;" x1="662.11" y1="133.41" x2="662.11" y2="133.41"/>
<line style="fill:none;stroke:#555555;stroke-width:0.5;stroke-linecap:round;stroke-linejoin:round;stroke-miterlimit:10;" x1="662.11" y1="133.41" x2="631.7" y2="133.41"/>
<path style="fill:none;stroke:#555555;stroke-width:0.5;stroke-linecap:round;stroke-linejoin:round;stroke-miterlimit:10;" d="M622.43,124.12c0,5.13,4.16,9.29,9.29,9.29"/>
<line style="fill:none;stroke:#555555;stroke-width:0.5;stroke-linecap:round;stroke-linejoin:round;stroke-miterlimit:10;" x1="622.43" y1="124.14" x2="622.43" y2="111.15"/>
<path style="fill:none;stroke:#555555;stroke-width:0.5;stroke-linecap:round;stroke-linejoin:round;stroke-miterlimit:10;" d="M622.43,111.13c0-2.04-1.65-3.7-3.7-3.7"/>
<line style="fill:none;stroke:#555555;stroke-width:0.5;stroke-linecap:round;stroke-linejoin:round;stroke-miterlimit:10;" x1="618.71" y1="107.43" x2="572.13" y2="107.43"/>
<line style="fill:none;stroke:#555555;stroke-width:0.5;stroke-linecap:round;stroke-linejoin:round;stroke-miterlimit:10;" x1="663.91" y1="125.35" x2="636.14" y2="125.35"/>
<path style="fill:none;stroke:#555555;stroke-width:0.5;stroke-linecap:round;stroke-linejoin:round;stroke-miterlimit:10;" d="M630.99,120.18c0,2.86,2.32,5.17,5.17,5.17"/>
<polyline style="fill:none;stroke:#555555;stroke-width:0.5;stroke-linecap:round;stroke-linejoin:round;stroke-miterlimit:10;" points="630.94,120.2 630.94,117.24 630.94,82.76 630.94,79.8 "/>
<path style="fill:none;stroke:#555555;stroke-width:0.5;stroke-linecap:round;stroke-linejoin:round;stroke-miterlimit:10;" d="M636.16,74.6c-2.86,0-5.17,2.32-5.17,5.17"/>
<line style="fill:none;stroke:#555555;stroke-width:0.5;stroke-linecap:round;stroke-linejoin:round;stroke-miterlimit:10;" x1="636.14" y1="74.65" x2="663.91" y2="74.65"/>
<polyline style="fill:none;stroke:#555555;stroke-width:0.5;stroke-linecap:round;stroke-linejoin:round;stroke-miterlimit:10;" points="724.64,112.27 743.9,108.42 742.24,100.04 722.98,103.9 724.64,112.27 "/>
<line style="fill:none;stroke:#555555;stroke-width:0.5;stroke-linecap:round;stroke-linejoin:round;stroke-miterlimit:10;" x1="743.09" y1="104.21" x2="723.83" y2="108.11"/>
<polyline style="fill:none;stroke:#555555;stroke-width:0.5;stroke-linecap:round;stroke-linejoin:round;stroke-miterlimit:10;" points="724.64,87.77 743.9,91.67 742.24,100.04 722.98,96.15 724.64,87.77 "/>
<line style="fill:none;stroke:#555555;stroke-width:0.5;stroke-linecap:round;stroke-linejoin:round;stroke-miterlimit:10;" x1="743.09" y1="95.83" x2="723.83" y2="91.98"/>
</svg>
