<?xml version="1.0" encoding="utf-8"?>
<!-- Generator: Adobe Illustrator 25.0.0, SVG Export Plug-In . SVG Version: 6.00 Build 0)  -->
<svg version="1.1" id="Capa_1" xmlns="http://www.w3.org/2000/svg" xmlns:xlink="http://www.w3.org/1999/xlink" x="0px" y="0px"
	 viewBox="0 0 638.862 122.294" style="enable-background:new 0 0 638.862 122.294;" xml:space="preserve">
<g>
	<polyline class="bilgeTank" points="265.887,119.242 292.648,119.393 319.407,119.303 330.088,119.267 340.767,118.992 351.326,118.596 
		362.004,118.08 372.562,117.445 383.239,116.569 393.796,115.574 404.472,114.457 415.028,113.222 425.583,111.746 
		436.139,110.271 446.572,108.556 457.127,106.721 486.148,100.983 495.86,98.91 510.85,95.62 540.826,88.56 551.977,85.882 
		563.128,83.085 577.995,79.195 603.891,71.909 609.405,70.329 614.92,68.631 625.589,65.355 628.346,64.505 632.301,63.052 	"/>
	<path class="bilgeTank" d="M632.154,63.036c0.432-0.171,0.86-0.351,1.285-0.54"/>
	<path class="bilgeTank" d="M633.407,62.501c0.211-0.096,0.422-0.195,0.63-0.298"/>
	<path class="bilgeTank" d="M634.151,62.159c0.311-0.154,0.622-0.314,0.928-0.48"/>
	<path class="bilgeTank" d="M635.023,61.709c0.102-0.057,0.203-0.119,0.298-0.188"/>
	<path class="bilgeTank" d="M635.339,61.507c0.194-0.131,0.347-0.313,0.443-0.526"/>
	<path class="bilgeTank" d="M635.782,61.021c-0.098-0.213-0.252-0.394-0.446-0.524"/>
	<path class="bilgeTank" d="M635.316,60.363c-0.096-0.067-0.196-0.129-0.299-0.186"/>
	<path class="bilgeTank" d="M635.074,60.207c-0.308-0.164-0.618-0.322-0.932-0.475"/>
	<path class="bilgeTank" d="M634.029,59.81c-0.209-0.101-0.42-0.199-0.632-0.293"/>
	<path class="bilgeTank" d="M633.429,59.401c-0.425-0.187-0.856-0.363-1.289-0.531"/>
	<path class="bilgeTank" d="M632.123,58.924c-1.298-0.503-2.609-0.97-3.933-1.4"/>
	<polyline class="bilgeTank" points="628.322,57.665 625.56,56.835 614.869,53.631 609.343,51.97 603.818,50.307 577.875,43.315 
		562.982,39.405 551.813,36.682 540.644,34.08 510.62,27.341 495.609,24.031 485.883,22.144 456.824,16.601 446.258,14.836 
		435.813,13.192 425.247,11.667 414.683,10.383 404.118,9.097 393.435,8.054 382.872,7.249 372.19,6.445 361.627,5.761 
		350.946,5.316 340.384,4.992 329.704,4.908 319.023,4.824 292.264,4.913 265.505,5.243 	"/>
	<line class="bilgeTank" x1="154.15" y1="7.056" x2="154.208" y2="24.096"/>
	<polyline class="bilgeTank" points="154.228,30.217 154.278,45.217 131.975,50.211 132.059,75.171 154.035,80.018 165.195,79.98 	"/>
	<line class="bilgeTank" x1="321.797" y1="116.175" x2="321.677" y2="116.175"/>
	<polyline class="bilgeTank" points="584.561,69.092 584.44,68.973 584.319,68.854 584.2,68.734 584.08,68.615 583.718,68.135 
		583.597,68.016 583.552,54.456 583.671,54.216 584.029,53.734 584.149,53.734 584.149,53.614 584.388,53.373 	"/>
	<polyline class="bilgeTank" points="574.35,65.767 583.229,65.737 583.349,65.617 583.469,65.617 583.469,65.496 583.588,65.376 
		583.588,65.256 583.561,57.216 583.561,57.096 583.44,56.977 583.44,56.857 583.319,56.737 583.199,56.738 574.319,56.767 	"/>
	<line class="bilgeTank" x1="377.592" y1="78.787" x2="377.712" y2="78.786"/>
	<polyline class="bilgeTank" points="265.503,4.883 226.025,5.376 169.029,6.647 131.113,7.854 102.676,8.909 36.206,11.893 
		17.848,12.674 4.65,13.199 4.42,16.319 4.191,19.32 4.081,22.44 3.852,25.681 3.743,28.802 3.633,31.922 3.523,35.043 
		3.414,38.163 3.304,41.283 3.195,44.403 3.085,47.524 3.106,53.764 2.997,56.884 3.007,60.004 3.028,66.244 3.038,69.365 
		3.169,72.604 3.19,78.724 3.321,81.964 3.452,85.083 3.582,88.202 3.712,91.323 3.843,94.442 3.973,97.561 4.104,100.681 
		4.354,103.8 4.485,106.92 4.735,110.038 4.986,113.158 18.187,113.594 36.549,114.132 103.039,116.789 131.482,117.654 
		169.405,118.606 226.408,119.375 265.889,119.722 	"/>
	<line class="bilgeTank" x1="561.531" y1="72.29" x2="567.407" y2="71.19"/>
	<polyline class="bilgeTank" points="567.527,71.19 574.363,69.847 574.305,52.567 567.461,51.389 561.457,50.21 	"/>
	<polyline class="bilgeTank" points="265.386,5.723 265.576,62.243 265.696,62.242 265.886,118.882 	"/>
	<line class="bilgeTank" x1="164.949" y1="6.78" x2="165.321" y2="117.539"/>
	<line class="bilgeTank" x1="431.311" y1="30.487" x2="431.393" y2="55.086"/>
	<line class="bilgeTank" x1="401.513" y1="55.187" x2="410.753" y2="55.156"/>
	<line class="bilgeTank" x1="419.513" y1="55.126" x2="431.393" y2="55.086"/>
	<line class="bilgeTank" x1="488.913" y1="66.894" x2="487.232" y2="66.899"/>
	<line class="bilgeTank" x1="431.52" y1="93.007" x2="431.431" y2="66.487"/>
	<line class="bilgeTank" x1="487.261" y1="39.539" x2="487.316" y2="56.099"/>
	<path class="bilgeTank" d="M487.232,56.062c0.039,0.071,0.105,0.124,0.184,0.145"/>
	<line class="bilgeTank" x1="487.437" y1="56.219" x2="489.117" y2="56.213"/>
	<polyline class="bilgeTank" points="380.132,48.779 380.161,57.418 377.4,57.428 	"/>
	<polyline class="bilgeTank" points="377.778,98.467 378.378,98.465 383.058,98.089 387.855,97.713 392.534,97.337 406.811,95.969 
		416.287,94.858 420.965,94.362 430.44,93.13 435.118,92.395 439.796,91.779 445.553,90.799 449.99,90.065 463.303,87.86 
		487.288,83.579 489.208,83.213 	"/>
	<polyline class="bilgeTank" points="377.293,25.388 378.133,25.385 382.815,25.73 387.615,26.073 392.296,26.418 406.581,27.69 
		416.065,28.618 420.746,29.202 425.428,29.787 430.23,30.37 434.912,30.954 439.595,31.659 445.357,32.48 449.8,33.185 
		463.127,35.42 487.141,39.54 489.063,39.893 	"/>
	<polyline class="bilgeTank" points="389.031,54.509 382.883,46.009 380.132,48.779 388.673,54.99 	"/>
	<line class="bilgeTank" x1="390.23" y1="54.385" x2="390.202" y2="45.984"/>
	<line class="bilgeTank" x1="392.511" y1="54.377" x2="392.482" y2="45.977"/>
	<line class="bilgeTank" x1="394.763" y1="45.969" x2="394.79" y2="54.369"/>
	<line class="bilgeTank" x1="396.923" y1="45.962" x2="396.95" y2="54.362"/>
	<polyline class="bilgeTank" points="387.113,55.115 380.146,52.859 388.555,55.59 	"/>
	<line class="bilgeTank" x1="389.751" y1="54.387" x2="386.963" y2="45.995"/>
	<polyline class="bilgeTank" points="388.554,55.47 388.556,56.071 380.156,56.099 	"/>
	<line class="bilgeTank" x1="401.51" y1="54.347" x2="389.631" y2="54.387"/>
	<path class="bilgeTank" d="M389.57,54.267c-0.63,0.002-1.139,0.515-1.137,1.144"/>
	<polyline class="bilgeTank" points="355.205,94.342 355.167,83.183 332.847,83.258 332.885,94.417 321.725,94.454 321.808,119.295 	"/>
	<polyline class="bilgeTank" points="377.307,29.468 354.987,29.543 355.024,40.703 332.704,40.778 332.667,29.618 321.507,29.655 
		321.424,4.816 	"/>
	<line class="bilgeTank" x1="489.208" y1="83.213" x2="561.531" y2="72.29"/>
	<line class="bilgeTank" x1="489.063" y1="39.893" x2="561.457" y2="50.21"/>
	<line class="bilgeTank" x1="487.232" y1="67.019" x2="487.288" y2="83.579"/>
	<line class="bilgeTank" x1="377.23" y1="6.788" x2="377.521" y2="57.427"/>
	<line class="bilgeTank" x1="377.552" y1="66.908" x2="377.96" y2="116.947"/>
	<line class="bilgeTank" x1="401.51" y1="54.347" x2="401.513" y2="55.187"/>
	<line class="bilgeTank" x1="232.575" y1="61.994" x2="232.554" y2="55.874"/>
	<line class="bilgeTank" x1="230.896" y1="61.999" x2="230.875" y2="55.879"/>
	<line class="bilgeTank" x1="234.255" y1="61.989" x2="234.234" y2="55.868"/>
	<line class="bilgeTank" x1="236.055" y1="61.983" x2="236.034" y2="55.863"/>
	<line class="bilgeTank" x1="237.735" y1="61.977" x2="237.714" y2="55.857"/>
	<line class="bilgeTank" x1="239.415" y1="61.971" x2="239.395" y2="55.851"/>
	<line class="bilgeTank" x1="241.095" y1="61.965" x2="241.074" y2="55.845"/>
	<line class="bilgeTank" x1="242.754" y1="55.84" x2="242.775" y2="61.959"/>
	<line class="bilgeTank" x1="243.355" y1="55.837" x2="230.634" y2="55.88"/>
	<line class="bilgeTank" x1="230.775" y1="62" x2="243.375" y2="61.957"/>
	<line class="bilgeTank" x1="355.205" y1="94.342" x2="377.765" y2="94.267"/>
	<line class="bilgeTank" x1="401.603" y1="45.946" x2="382.883" y2="46.009"/>
	<line class="bilgeTank" x1="265.509" y1="6.563" x2="265.389" y2="6.563"/>
	<line class="bilgeTank" x1="584.269" y1="53.493" x2="584.269" y2="53.493"/>
	<line class="bilgeTank" x1="584.508" y1="53.253" x2="584.388" y2="53.373"/>
</g>
</svg>
