<?xml version="1.0" encoding="utf-8"?>
<!-- Generator: Adobe Illustrator 25.0.0, SVG Export Plug-In . SVG Version: 6.00 Build 0)  -->
<svg version="1.0" id="Capa_1" xmlns="http://www.w3.org/2000/svg" xmlns:xlink="http://www.w3.org/1999/xlink" x="0px" y="0px"
	 viewBox="0 0 4113.78 444.24" style="enable-background:new 0 0 4113.78 444.24;" xml:space="preserve">
<g>
	<polyline class="forepeak" points="2188.939,97.311 2188.938,75.11 2329.338,75.107 	"/>
	<polyline class="forepeak" points="2105.787,410.992 2105.907,410.752 2106.027,410.513 2106.147,410.393 2106.387,410.032 
		2106.507,409.912 2106.627,409.672 2106.867,409.433 2106.987,409.192 2107.107,408.952 2107.347,408.832 2107.467,408.473 
		2107.587,408.353 2107.708,407.992 2107.947,407.872 2107.947,407.632 2108.187,407.393 2108.307,407.152 2108.427,406.912 
		2108.547,406.672 2108.787,406.433 2108.787,406.192 2109.027,405.952 2109.147,405.712 2109.147,405.473 2109.387,405.353 
		2109.507,404.992 2109.627,404.752 2109.747,404.513 2109.867,404.273 2110.107,404.032 2110.107,403.792 2110.227,403.553 
		2110.347,403.313 2110.467,403.072 2110.587,402.832 2110.708,402.593 2110.826,402.353 2110.947,402.112 2111.067,401.872 
		2111.187,401.632 2111.427,401.032 2111.547,400.912 2111.787,400.312 2111.787,400.072 2112.027,399.592 2112.147,399.352 
		2112.267,398.752 2112.387,398.632 2112.627,397.792 2112.747,397.552 2113.107,396.712 2113.708,395.872 2114.307,395.151 
		2114.787,394.432 2115.267,393.832 2115.867,393.112 2116.826,391.912 2117.426,391.192 2118.266,389.872 2118.866,389.272 
		2120.786,386.632 2121.386,385.912 2121.747,385.192 2123.186,383.151 2124.266,381.832 2125.226,380.512 2126.066,379.192 
		2128.106,376.432 2130.026,373.792 2131.946,371.031 2132.906,369.711 2134.826,367.071 2135.786,365.631 2136.747,364.312 
		2137.707,362.871 2138.667,361.552 2139.506,360.232 2140.466,358.911 2141.426,357.472 2142.386,356.151 2143.346,354.711 
		2144.305,353.392 2145.145,351.951 2146.105,350.631 2146.945,349.312 2147.425,348.472 2147.905,347.871 2148.265,347.151 
		2148.746,346.432 2149.225,345.831 2149.705,344.991 2150.185,344.392 2150.545,343.791 2151.025,342.951 2151.505,342.351 
		2151.985,341.511 2152.465,340.911 2152.825,340.191 2153.784,338.871 2154.145,338.15 2155.105,336.711 2156.784,333.831 
		2157.746,332.511 2161.945,325.431 2162.905,323.991 2164.585,321.231 2165.425,319.671 2168.784,314.031 2169.625,312.471 
		2171.184,309.71 2172.984,306.83 2176.344,301.191 2178.024,298.191 2179.584,295.431 2180.424,293.99 2181.264,292.551 
		2185.464,285.471 2186.424,283.91 2190.625,276.95 2191.583,275.51 2192.423,273.95 2197.463,265.55 2198.423,264.11 
		2202.624,257.03 2203.583,255.71 2204.423,254.27 2205.263,252.71 2206.103,251.39 2207.063,249.95 2208.744,247.07 
		2209.704,245.749 2211.383,242.989 2212.343,241.55 2214.023,238.789 2214.983,237.35 2215.822,235.909 2216.782,234.47 
		2217.622,233.15 2218.462,231.709 2219.302,230.27 2220.262,228.829 2221.102,227.51 2222.062,226.19 2222.902,224.749 
		2223.862,223.31 2224.703,221.869 2225.663,220.55 2226.502,219.109 2227.462,217.789 2228.422,216.35 2229.262,214.909 
		2231.062,212.15 2231.902,210.829 2233.822,208.069 2234.782,206.749 2235.622,205.31 2237.542,202.429 2238.382,201.109 
		2239.342,199.789 2240.302,198.468 2241.261,197.029 2242.101,195.588 2243.061,194.269 2244.021,192.829 2244.861,191.508 
		2246.781,188.749 2247.742,187.428 2248.701,185.989 2249.662,184.669 2250.622,183.349 2251.582,182.029 2252.542,180.709 
		2253.501,179.269 2254.461,177.949 2255.301,176.508 2256.261,175.189 2257.341,173.869 2258.301,172.428 2259.261,171.109 
		2260.101,169.788 2261.181,168.468 2262.141,167.149 2263.101,165.708 2264.061,164.388 2265.981,161.748 2267.061,160.309 
		2268.86,157.668 2269.94,156.349 2271.741,153.708 2273.78,150.948 2277.741,145.668 2279.661,143.028 2281.701,140.387 
		2283.621,137.628 2285.661,134.988 2289.621,129.588 2297.419,119.027 2299.459,116.268 2301.379,113.627 2303.299,110.987 
		2305.219,108.228 2307.259,105.707 2308.219,104.387 2309.179,102.947 2310.259,101.627 2312.059,98.987 2313.139,97.547 
		2315.059,94.907 2316.019,93.587 2317.939,90.947 2318.899,89.506 2319.859,88.187 2320.819,86.867 2321.779,85.426 
		2322.74,84.107 2323.7,82.667 2324.659,81.347 2325.499,80.027 2326.458,78.707 2327.418,77.267 2329.338,74.627 2330.178,73.426 
		2331.858,70.787 2334.258,62.747 2335.579,58.426 2338.098,49.786 2339.298,45.586 2340.497,41.267 2341.698,37.067 
		2342.897,32.866 2344.097,28.546 2347.817,14.506 2347.937,14.026 	"/>
	<polyline class="forepeak" points="2346.497,19.546 2346.377,19.546 2331.137,18.947 2321.658,18.466 2312.057,18.108 2302.578,17.627 
		2292.977,17.268 2283.497,16.908 2274.017,16.668 2264.417,16.309 2254.937,15.949 2245.337,15.709 2235.857,15.469 
		2226.257,15.109 2216.777,14.99 2207.177,14.63 2197.698,14.51 2188.097,14.271 2178.617,14.151 2169.017,14.031 2159.538,13.791 
		2149.937,13.791 2140.458,13.671 2117.057,13.672 2109.857,13.552 2100.257,13.432 2090.777,13.313 2033.537,13.315 
		2023.937,13.434 2014.457,13.554 2007.257,13.674 1983.857,13.675 1974.257,13.796 1964.777,13.796 1955.177,14.036 
		1945.697,14.156 1936.097,14.277 1926.617,14.516 1917.017,14.637 1907.538,14.997 1897.937,15.118 1888.457,15.477 
		1878.857,15.718 1869.377,15.958 1859.777,16.319 1850.297,16.678 1840.697,16.919 1821.737,17.639 1812.137,18.12 1802.657,18.48 
		1793.057,18.96 1777.817,19.56 	"/>
	<line class="forepeak" x1="2188.939" y1="97.91" x2="2188.942" y2="231.83"/>
	<polyline class="forepeak" points="2063.188,431.753 2061.027,431.753 2059.828,431.633 2058.388,431.633 2057.788,431.514 
		2056.708,431.514 2056.228,431.394 2055.027,431.394 2054.547,431.274 2054.067,431.274 2052.867,431.153 2052.388,431.153 
		2051.908,431.034 2051.547,431.034 2051.308,430.914 2051.067,430.914 2050.708,430.914 2050.228,430.914 2049.867,430.794 
		2049.747,430.794 2049.388,430.674 2049.147,430.674 2048.908,430.554 2048.547,430.554 2048.308,430.434 2048.067,430.434 
		2047.828,430.434 2047.587,430.434 2046.988,430.193 2046.747,430.193 2046.388,430.074 2046.268,430.074 2045.908,430.074 
		2045.428,429.834 2045.067,429.834 2044.948,429.714 2044.348,429.594 2044.107,429.594 2043.747,429.474 2043.627,429.354 
		2043.027,429.114 2042.787,429.114 2042.547,429.114 2041.707,428.754 2041.587,428.754 2040.747,428.394 2040.508,428.274 
		2039.908,428.153 2039.787,428.034 2039.428,427.914 2039.187,427.794 2038.948,427.674 2038.468,427.434 2038.227,427.434 
		2037.988,427.314 2037.747,427.074 2037.268,426.954 2037.027,426.714 2036.787,426.594 2036.547,426.594 2036.307,426.474 
		2035.948,426.234 2035.828,426.114 2035.468,425.994 2035.348,425.874 2035.107,425.754 2034.868,425.634 2034.627,425.514 
		2034.388,425.274 2034.147,425.274 2033.908,425.034 2033.667,424.914 2033.428,424.794 2033.187,424.674 2032.948,424.435 
		2032.707,424.435 2032.468,424.194 2032.348,423.954 2031.988,423.954 2031.868,423.714 2031.627,423.595 2031.388,423.475 
		2031.147,423.234 2030.908,423.114 2030.667,422.994 2030.547,422.754 2030.307,422.634 2030.067,422.515 2029.828,422.275 
		2029.587,422.154 2029.467,422.034 2029.227,421.794 2028.987,421.674 2028.747,421.435 2028.507,421.315 2028.267,421.194 
		2028.147,420.954 2027.907,420.834 2027.667,420.595 2027.427,420.475 2027.307,420.355 2027.067,420.114 2026.827,419.994 
		2026.707,419.754 2026.347,419.634 2026.227,419.395 2025.987,419.154 2025.867,419.034 2025.627,418.794 2025.507,418.674 
		2025.267,418.435 2025.027,418.315 2024.787,418.074 2024.667,417.834 2024.427,417.714 2024.187,417.475 2024.067,417.355 
		2023.827,417.114 2023.707,416.994 2023.467,416.754 2023.347,416.634 2023.107,416.395 2022.867,416.154 2022.747,416.034 
		2022.507,415.794 2022.387,415.674 2022.147,415.435 2022.027,415.194 2021.787,414.954 2021.667,414.834 2021.427,414.595 
		2021.187,414.355 2021.067,414.234 2020.827,413.994 2020.707,413.754 2020.587,413.515 2020.347,413.395 2020.227,413.154 
		2019.987,412.914 2019.867,412.674 2019.747,412.555 2019.507,412.194 2019.387,412.074 2019.147,411.834 2019.027,411.714 
		2018.907,411.355 2018.667,411.234 2018.547,410.994 2018.427,410.754 2018.187,410.515 2018.067,410.395 2017.947,410.034 
		2017.707,409.914 2017.587,409.674 2017.467,409.435 2017.227,409.194 2017.107,408.954 2016.987,408.834 2016.867,408.475 
		2016.747,408.355 2016.507,407.994 2016.387,407.874 2016.267,407.634 2016.147,407.395 2016.027,407.154 2015.907,406.914 
		2015.667,406.674 2015.547,406.435 2015.427,406.194 2015.307,405.954 2015.067,405.714 2015.067,405.475 2014.947,405.355 
		2014.707,404.994 2014.707,404.754 2014.467,404.515 2014.347,404.275 2014.227,404.034 2014.107,403.794 2013.987,403.555 
		2013.867,403.074 2013.627,402.835 2013.507,402.595 2013.387,402.355 2013.387,402.115 2013.146,401.875 2013.026,401.635 
		2012.907,401.035 2012.786,400.915 2012.546,400.315 2012.427,400.075 2012.186,399.595 2012.066,399.355 2011.947,398.755 
		2011.827,398.635 2011.586,397.795 2011.467,397.555 2011.226,396.715 2010.507,395.875 2009.907,395.154 2009.427,394.435 
		2008.947,393.835 2008.467,393.115 2007.867,392.515 2006.907,391.194 2006.427,390.595 2004.987,388.555 2004.387,387.955 
		2002.947,385.915 2002.467,385.194 2000.066,381.835 1999.106,380.515 1998.146,379.194 1996.226,376.435 1994.306,373.795 
		1992.386,371.035 1991.306,369.715 1989.506,367.075 1988.546,365.635 1987.586,364.316 1986.625,362.875 1985.665,361.556 
		1984.705,360.235 1983.745,358.915 1982.786,357.476 1981.946,356.155 1980.985,354.715 1980.025,353.396 1978.226,350.635 
		1977.266,349.316 1976.906,348.476 1975.946,347.155 1975.466,346.436 1974.985,345.835 1974.506,344.996 1974.145,344.396 
		1973.665,343.796 1973.185,342.956 1972.705,342.356 1972.345,341.516 1971.865,340.916 1971.385,340.195 1970.905,339.476 
		1970.545,338.876 1970.065,338.155 1969.225,336.716 1968.265,335.275 1966.585,332.516 1965.625,331.076 1959.745,321.235 
		1958.905,319.676 1955.545,314.036 1954.705,312.477 1951.345,306.836 1947.984,301.196 1946.304,298.196 1943.784,293.996 
		1942.944,292.557 1938.744,285.477 1937.904,283.916 1932.744,275.517 1931.904,273.957 1930.224,271.196 1929.264,269.757 
		1925.063,262.677 1924.103,261.357 1920.743,255.717 1919.783,254.276 1918.943,252.717 1917.263,249.957 1916.303,248.518 
		1915.463,247.077 1914.622,245.757 1913.663,244.438 1911.983,241.558 1911.022,240.117 1909.343,237.358 1908.503,235.917 
		1907.543,234.478 1906.703,233.157 1905.863,231.717 1904.903,230.277 1904.062,228.837 1903.102,227.518 1902.262,226.197 
		1901.302,224.757 1900.462,223.317 1899.502,221.877 1898.662,220.558 1897.702,219.117 1896.742,217.798 1895.902,216.358 
		1894.102,213.597 1893.262,212.158 1892.302,210.838 1890.382,208.078 1889.542,206.757 1886.782,202.438 1885.822,201.118 
		1884.982,199.798 1884.021,198.478 1882.101,195.598 1881.141,194.278 1880.302,192.838 1879.342,191.518 1877.422,188.758 
		1876.461,187.438 1875.501,185.998 1873.701,183.359 1872.741,182.038 1871.781,180.718 1870.701,179.278 1869.861,177.958 
		1868.901,176.518 1866.981,173.879 1866.021,172.438 1865.061,171.119 1864.101,169.798 1863.141,168.478 1862.06,167.159 
		1861.221,165.718 1859.301,163.079 1858.221,161.758 1857.261,160.319 1856.301,158.999 1855.341,157.678 1854.381,156.359 
		1852.461,153.718 1850.421,150.959 1846.46,145.679 1844.54,143.039 1842.62,140.399 1840.7,137.639 1838.66,134.999 
		1834.7,129.599 1826.9,119.04 1824.86,116.28 1820.9,111 1818.979,108.24 1816.939,105.719 1816.099,104.399 1815.019,102.96 
		1814.059,101.639 1813.099,100.32 1812.139,99 1811.179,97.559 1810.099,96.24 1809.139,94.92 1808.299,93.6 1807.219,92.28 
		1806.259,90.96 1805.299,89.52 1804.339,88.2 1803.379,86.88 1802.419,85.44 1801.459,84.12 1800.499,82.68 1799.659,81.36 
		1798.699,80.04 1797.739,78.72 1796.779,77.28 1795.819,75.96 1794.979,74.64 1794.018,73.44 1792.338,70.8 1789.938,62.76 
		1788.738,58.44 1787.418,54.121 1786.218,49.8 1784.898,45.6 1783.698,41.281 1782.498,37.081 1780.217,28.56 1779.017,24.361 
		1776.377,14.52 1776.257,14.041 	"/>
	<polyline class="forepeak" points="1789.338,60.6 1793.058,60.6 1793.538,60.48 	"/>
	<line class="forepeak" x1="1797.858" y1="60.24" x2="1802.178" y2="60.12"/>
	<line class="forepeak" x1="1806.498" y1="59.88" x2="1810.938" y2="59.759"/>
	<line class="forepeak" x1="1815.258" y1="59.639" x2="1819.578" y2="59.399"/>
	<line class="forepeak" x1="1823.898" y1="59.28" x2="1828.218" y2="59.04"/>
	<line class="forepeak" x1="1832.538" y1="58.919" x2="1836.858" y2="58.799"/>
	<line class="forepeak" x1="1841.178" y1="58.559" x2="1845.498" y2="58.439"/>
	<polyline class="forepeak" points="1849.818,58.319 1850.298,58.199 1854.258,58.079 	"/>
	<polyline class="forepeak" points="1858.578,57.959 1859.778,57.959 1862.898,57.838 	"/>
	<line class="forepeak" x1="1867.218" y1="57.718" x2="1871.538" y2="57.598"/>
	<polyline class="forepeak" points="1875.858,57.478 1878.858,57.359 1880.178,57.238 	"/>
	<polyline class="forepeak" points="1884.498,57.118 1888.458,57.118 1888.938,57.118 	"/>
	<line class="forepeak" x1="1893.258" y1="56.998" x2="1897.578" y2="56.757"/>
	<line class="forepeak" x1="1901.898" y1="56.637" x2="1906.218" y2="56.637"/>
	<line class="forepeak" x1="1910.538" y1="56.517" x2="1914.858" y2="56.397"/>
	<line class="forepeak" x1="1919.178" y1="56.277" x2="1923.618" y2="56.277"/>
	<line class="forepeak" x1="1927.938" y1="56.157" x2="1932.258" y2="56.037"/>
	<line class="forepeak" x1="1936.578" y1="55.917" x2="1940.898" y2="55.796"/>
	<line class="forepeak" x1="1945.218" y1="55.796" x2="1949.538" y2="55.796"/>
	<polyline class="forepeak" points="1953.858,55.676 1955.178,55.676 1958.298,55.556 	"/>
	<polyline class="forepeak" points="1962.618,55.556 1964.778,55.436 1966.938,55.435 	"/>
	<line class="forepeak" x1="1971.258" y1="55.435" x2="1975.578" y2="55.435"/>
	<line class="forepeak" x1="1979.898" y1="55.316" x2="1984.218" y2="55.316"/>
	<line class="forepeak" x1="1988.538" y1="55.316" x2="1992.978" y2="55.316"/>
	<line class="forepeak" x1="1997.298" y1="55.316" x2="2001.618" y2="55.316"/>
	<polyline class="forepeak" points="2005.938,55.315 2007.258,55.315 2010.258,55.195 	"/>
	<line class="forepeak" x1="2014.578" y1="55.195" x2="2018.898" y2="55.075"/>
	<line class="forepeak" x1="2023.338" y1="55.075" x2="2027.658" y2="55.074"/>
	<line class="forepeak" x1="2031.978" y1="54.954" x2="2036.298" y2="54.954"/>
	<line class="forepeak" x1="2040.618" y1="54.954" x2="2044.938" y2="54.954"/>
	<line class="forepeak" x1="2049.258" y1="54.954" x2="2053.698" y2="54.954"/>
	<line class="forepeak" x1="2058.018" y1="54.954" x2="2066.298" y2="54.953"/>
	<polyline class="forepeak1" points="2334.978,60.587 2331.138,60.587 2330.778,60.466 	"/>
	<line class="forepeak" x1="2326.458" y1="60.227" x2="2322.138" y2="60.107"/>
	<line class="forepeak" x1="2317.699" y1="59.867" x2="2313.378" y2="59.747"/>
	<line class="forepeak" x1="2309.058" y1="59.627" x2="2304.739" y2="59.387"/>
	<line class="forepeak" x1="2300.418" y1="59.268" x2="2296.098" y2="59.028"/>
	<line class="forepeak" x1="2291.778" y1="58.908" x2="2287.458" y2="58.788"/>
	<line class="forepeak" x1="2283.018" y1="58.547" x2="2278.699" y2="58.427"/>
	<polyline class="forepeak" points="2274.378,58.309 2274.018,58.189 2270.058,58.068 	"/>
	<polyline class="forepeak" points="2265.739,57.948 2264.418,57.948 2261.418,57.828 	"/>
	<polyline class="forepeak" points="2257.098,57.709 2254.938,57.588 2252.659,57.588 	"/>
	<polyline class="forepeak" points="2248.338,57.468 2245.338,57.349 2244.018,57.229 	"/>
	<polyline class="forepeak" points="2239.699,57.109 2235.858,57.109 2235.378,57.109 	"/>
	<line class="forepeak" x1="2231.058" y1="56.989" x2="2226.739" y2="56.749"/>
	<line class="forepeak" x1="2222.418" y1="56.629" x2="2217.978" y2="56.63"/>
	<line class="forepeak" x1="2213.659" y1="56.509" x2="2209.338" y2="56.389"/>
	<line class="forepeak" x1="2205.018" y1="56.27" x2="2200.699" y2="56.27"/>
	<line class="forepeak" x1="2196.378" y1="56.15" x2="2192.058" y2="56.03"/>
	<line class="forepeak" x1="2187.619" y1="55.91" x2="2183.298" y2="55.79"/>
	<line class="forepeak" x1="2178.978" y1="55.791" x2="2174.659" y2="55.791"/>
	<polyline class="forepeak" points="2170.338,55.671 2169.018,55.671 2166.018,55.55 	"/>
	<polyline class="forepeak" points="2161.699,55.55 2159.538,55.431 2157.378,55.431 	"/>
	<line class="forepeak" x1="2152.938" y1="55.431" x2="2148.619" y2="55.431"/>
	<line class="forepeak" x1="2144.298" y1="55.312" x2="2139.978" y2="55.312"/>
	<line class="forepeak" x1="2135.659" y1="55.312" x2="2131.338" y2="55.312"/>
	<line class="forepeak" x1="2127.018" y1="55.312" x2="2122.579" y2="55.312"/>
	<polyline class="forepeak" points="2118.258,55.313 2117.058,55.313 2113.938,55.192 	"/>
	<line class="forepeak" x1="2109.619" y1="55.192" x2="2105.298" y2="55.072"/>
	<line class="forepeak" x1="2100.978" y1="55.073" x2="2096.659" y2="55.073"/>
	<line class="forepeak" x1="2092.338" y1="54.953" x2="2087.898" y2="54.953"/>
	<line class="forepeak" x1="2083.579" y1="54.953" x2="2079.258" y2="54.953"/>
	<line class="forepeak" x1="2074.938" y1="54.953" x2="2070.618" y2="54.953"/>
	<line class="forepeak" x1="2283.018" y1="58.188" x2="2278.699" y2="58.068"/>
	<line class="forepeak" x1="2062.097" y1="13.314" x2="2062.107" y2="431.753"/>
	<line class="forepeak" x1="2218.222" y1="232.069" x2="1905.983" y2="231.957"/>
	<polyline class="forepeak" points="1935.259,97.317 1935.259,75.117 1794.859,75.12 	"/>
	<line class="forepeak" x1="1935.259" y1="97.917" x2="1935.263" y2="231.837"/>
	<polyline class="forepeak" points="2105.307,411.712 2105.427,411.353 2105.787,410.992 	"/>
	<polyline class="forepeak" points="2095.467,421.433 2095.708,421.313 2104.467,412.672 	"/>
	<polyline class="forepeak" points="2094.267,422.513 2094.627,422.152 2094.867,422.032 2095.107,421.792 2095.467,421.433 	"/>
	<line class="forepeak" x1="2096.307" y1="420.832" x2="2095.708" y2="421.313"/>
	<line class="forepeak" x1="2104.587" y1="412.553" x2="2103.987" y2="413.152"/>
	<polyline class="forepeak" points="2105.307,411.712 2104.826,412.072 2105.307,411.712 	"/>
	<polyline class="forepeak" points="2063.188,431.753 2064.508,431.633 2065.948,431.633 2066.428,431.514 2067.627,431.514 
		2068.107,431.394 2069.188,431.394 2069.788,431.274 2070.268,431.274 2070.867,431.274 2071.347,431.153 2071.948,431.153 
		2072.427,431.033 2072.787,431.033 2073.027,430.913 2073.267,430.913 2073.507,430.913 2074.107,430.913 2074.347,430.793 
		2074.587,430.793 2074.947,430.673 2075.067,430.673 2075.427,430.553 2075.667,430.553 2075.907,430.433 2076.267,430.433 
		2076.507,430.433 2076.747,430.433 2076.987,430.313 2077.227,430.192 2077.587,430.192 2078.067,430.073 2078.427,430.073 
		2078.547,429.953 2078.907,429.833 2079.147,429.833 2079.747,429.593 2079.867,429.593 2080.107,429.593 2080.708,429.353 
		2080.947,429.233 2081.187,429.113 2081.427,429.113 2081.787,429.113 2081.907,428.993 2082.747,428.753 2082.987,428.633 
		2083.826,428.273 2084.067,428.273 2084.547,428.033 2084.787,427.913 2085.027,427.793 2085.387,427.673 2085.507,427.553 
		2086.107,427.433 2086.227,427.313 2086.587,427.073 2086.708,426.953 2087.067,426.953 2087.307,426.713 2087.547,426.593 
		2087.787,426.593 2087.907,426.473 2088.267,426.233 2088.387,426.113 2088.747,425.993 2088.987,425.873 2089.227,425.753 
		2089.467,425.633 2089.708,425.513 2089.947,425.273 2090.067,425.273 2090.427,425.033 2090.547,424.913 2090.907,424.793 
		2091.027,424.673 2091.267,424.433 2091.507,424.433 2091.747,424.192 2091.987,423.952 2092.227,423.952 2092.467,423.712 
		2092.708,423.593 2092.826,423.473 2093.187,423.233 2093.307,423.112 2093.547,422.992 2093.787,422.752 2094.027,422.632 
		2094.267,422.513 	"/>
	<polyline class="forepeak" points="2104.587,412.553 2104.826,412.192 2104.826,412.072 	"/>
</g>
</svg>
