<?xml version="1.0" encoding="utf-8"?>
<!-- Generator: Adobe Illustrator 25.0.0, SVG Export Plug-In . SVG Version: 6.00 Build 0)  -->
<svg version="1.0" id="Layer_1" xmlns="http://www.w3.org/2000/svg" xmlns:xlink="http://www.w3.org/1999/xlink" x="0px" y="0px"
	 viewBox="0 0 870.652 169.652" style="enable-background:new 0 0 870.652 169.652;" xml:space="preserve">
<path class="lowerDeck0" d="M187.037,13.066"/>
<line class="lowerDeck0" x1="129.584" y1="15.221" x2="187.037" y2="13.066"/>
<path class="lowerDeck0" d="M7.478,46.908"/>
<polyline class="lowerDeck0" points="14.487,155.195 14.788,155.195 15.089,155.496 15.39,155.493 15.691,155.493 16.292,155.493 
	16.894,155.795 17.496,155.795 18.098,155.795 19,156.093 19.602,156.093 20.203,156.093 21.105,156.392 21.707,156.392 
	22.609,156.693 23.513,156.691 24.415,156.691 25.92,156.989 27.425,156.989 29.229,157.288 39.758,157.579 29.229,157.288 
	27.425,156.989 25.92,156.989 24.415,156.691 23.513,156.691 22.609,156.693 21.707,156.392 21.105,156.392 20.203,156.093 
	19.602,156.093 19,156.093 18.098,155.795 17.496,155.795 16.894,155.795 16.292,155.493 15.691,155.493 15.39,155.493 
	15.089,155.496 14.788,155.195 14.487,155.195 14.186,155.195 13.884,155.195 13.583,155.195 13.583,154.894 13.284,154.894 
	12.983,154.894 12.681,154.894 12.681,154.595 12.381,154.595 12.08,154.595 12.08,154.294 11.779,154.294 11.779,153.993 
	11.778,153.692 11.477,153.692 11.477,153.393 11.176,153.393 11.176,153.092 11.176,152.791 10.876,152.791 10.876,152.49 
	10.875,152.189 10.574,152.191 10.574,151.89 10.574,151.589 10.272,151.589 10.272,151.288 10.272,150.987 10.271,150.686 
	9.97,150.686 9.97,150.384 9.97,150.083 9.97,149.785 9.97,149.484 9.969,149.183 9.667,146.475 9.062,143.469 9.059,140.46 
	8.757,137.753 8.455,134.744 8.151,131.735 7.848,129.028 7.845,126.022 7.542,124.217 "/>
<polyline class="lowerDeck0" points="12.681,154.595 12.681,154.894 12.983,154.894 13.284,154.894 13.583,154.894 13.583,155.195 
	13.884,155.195 "/>
<polyline class="lowerDeck0" points="11.779,154.294 12.08,154.294 12.08,154.595 "/>
<polyline class="lowerDeck0" points="11.477,153.393 11.477,153.692 11.778,153.692 "/>
<polyline class="lowerDeck0" points="10.574,151.89 10.574,152.191 10.875,152.189 10.876,152.49 10.876,152.791 "/>
<polyline class="lowerDeck0" points="9.969,149.183 9.97,149.484 9.97,149.785 9.97,150.083 9.97,150.384 9.97,150.686 10.271,150.686 
	10.272,150.987 10.272,151.288 10.272,151.589 "/>
<polyline class="lowerDeck0" points="8.757,137.753 9.059,140.46 9.062,143.469 9.667,146.475 "/>
<path class="lowerDeck0" d="M8.455,134.744"/>
<path class="lowerDeck0" d="M8.151,131.735"/>
<path class="lowerDeck0" d="M7.848,129.028"/>
<path class="lowerDeck0" d="M7.542,124.217"/>
<polyline class="lowerDeck0" points="7.478,46.908 7.778,45.102 7.775,42.093 8.074,39.386 8.373,36.377 8.67,33.368 8.969,30.663 
	8.966,27.654 9.566,24.944 9.864,21.938 9.864,21.637 9.864,21.336 9.864,21.035 9.864,20.734 9.863,20.433 10.164,20.433 
	10.164,20.132 10.164,19.831 10.164,19.529 10.465,19.529 10.465,19.231 10.463,18.93 10.765,18.927 10.765,18.626 10.765,18.325 
	11.064,18.325 11.064,18.026 11.366,17.725 11.364,17.424 11.665,17.424 11.665,17.123 11.967,16.822 12.268,16.822 12.268,16.521 
	12.568,16.521 12.568,16.219 12.869,16.219 13.17,16.219 13.47,16.219 13.769,15.916 14.071,15.916 14.372,15.916 14.673,15.916 
	14.973,15.916 15.274,15.615 15.575,15.615 16.176,15.615 16.778,15.314 17.379,15.314 17.981,15.314 18.884,15.01 19.486,15.01 
	20.087,15.01 20.989,14.709 21.591,14.707 22.493,14.707 23.395,14.406 24.297,14.406 25.802,14.102 27.306,14.102 29.11,13.798 
	39.639,13.49 29.11,13.798 27.306,14.102 25.802,14.102 24.297,14.406 23.395,14.406 22.493,14.707 21.591,14.707 20.989,14.709 
	20.087,15.01 19.486,15.01 18.884,15.01 17.981,15.314 17.379,15.314 16.778,15.314 16.176,15.615 15.575,15.615 15.274,15.615 
	14.973,15.916 14.673,15.916 14.372,15.916 14.071,15.916 13.769,15.916 13.47,16.219 13.17,16.219 12.869,16.219 12.568,16.219 
	12.568,16.521 12.268,16.521 12.268,16.822 11.967,16.822 11.665,17.123 11.665,17.424 11.364,17.424 11.366,17.725 11.064,18.026 
	11.064,18.325 10.765,18.325 10.765,18.626 10.765,18.927 10.463,18.93 10.465,19.231 10.465,19.529 10.164,19.529 10.164,19.831 
	10.164,20.132 10.164,20.433 9.863,20.433 9.864,20.734 9.864,21.035 9.864,21.336 9.864,21.637 9.864,21.938 9.566,24.944 
	8.966,27.654 8.969,30.663 8.67,33.368 8.373,36.377 8.074,39.386 7.775,42.093 7.778,45.102 7.478,46.908 "/>
<path class="lowerDeck0" d="M586.944,160.137"/>
<polyline class="lowerDeck0" points="468.427,165.349 469.029,165.347 484.07,165.033 503.921,164.417 526.482,163.494 547.538,162.576 
	563.479,161.66 571.301,161.352 579.122,160.745 "/>
<path class="lowerDeck0" d="M491.287,164.727"/>
<polyline class="lowerDeck0" points="637.058,14.501 646.385,15.696 653.002,16.293 656.013,16.89 659.322,17.189 662.63,17.488 
	665.94,18.085 672.556,18.983 682.185,20.78 685.495,21.079 688.804,21.676 692.114,22.276 695.424,22.873 698.733,23.473 
	702.043,24.073 705.049,24.974 708.362,25.571 711.671,26.171 714.979,27.069 718.288,27.669 721.3,28.57 724.609,29.167 
	727.916,30.068 734.538,31.867 744.769,34.565 750.784,36.066 753.792,36.964 760.111,38.766 763.42,39.665 766.733,40.563 
	770.642,41.762 776.662,43.865 781.776,45.363 785.688,46.563 790.501,48.064 795.918,50.166 801.938,52.267 806.148,53.768 
	810.964,55.567 813.37,56.468 816.078,57.369 818.186,58.27 820.291,59.17 822.697,59.77 824.805,60.671 826.612,61.572 
	828.115,62.172 829.921,62.772 831.424,63.672 833.231,64.272 835.337,65.175 837.743,66.375 839.853,67.276 842.26,68.478 
	844.666,69.379 846.774,70.277 847.976,70.879 849.18,71.479 850.083,72.081 851.286,72.681 852.492,72.98 853.092,73.582 
	853.393,73.582 853.995,73.883 854.598,74.182 855.197,74.483 855.498,74.784 856.101,75.085 856.703,75.384 857.004,75.685 
	857.305,75.685 857.609,75.986 857.907,75.986 857.907,76.287 858.208,76.285 858.51,76.586 858.811,76.586 859.112,76.887 
	859.413,77.188 859.714,77.186 859.714,77.487 860.015,77.487 860.314,77.788 860.615,78.089 860.916,78.089 861.217,78.387 
	861.518,78.387 861.518,78.689 861.819,78.689 861.822,78.99 862.123,78.99 862.123,79.291 862.424,79.291 862.723,79.589 
	863.024,79.891 863.325,79.891 863.325,80.192 863.626,80.192 863.626,80.493 863.927,80.493 863.927,80.794 864.228,80.791 
	864.228,81.093 864.529,81.093 864.529,81.394 864.831,81.394 864.831,81.695 865.132,81.695 865.134,81.996 865.433,82.295 
	865.433,82.596 865.734,82.596 865.734,82.897 865.734,83.198 866.035,83.198 866.035,83.499 866.035,83.8 866.336,83.8 
	866.336,84.099 866.336,84.4 866.339,84.701 866.339,85.002 866.339,85.303 866.339,85.605 866.339,85.906 866.037,85.906 
	866.037,86.207 866.037,86.505 865.736,86.806 865.736,87.108 865.435,87.108 865.435,87.409 865.438,87.71 865.139,87.712 
	865.139,88.011 864.838,88.011 864.838,88.312 864.537,88.312 864.537,88.613 864.236,88.613 864.236,88.914 863.935,88.916 
	863.935,89.215 863.633,89.215 863.633,89.516 863.332,89.516 863.332,89.817 863.031,89.817 863.031,90.118 862.73,90.118 
	862.73,90.42 862.431,90.42 862.133,90.721 861.832,91.022 861.531,91.022 861.531,91.323 861.229,91.323 860.928,91.624 
	860.627,91.925 860.326,91.925 860.027,92.226 859.726,92.226 859.726,92.528 859.425,92.53 859.124,92.829 858.823,92.829 
	858.522,93.13 858.221,93.431 857.92,93.433 857.922,93.734 857.623,93.734 857.322,94.033 857.021,94.033 856.72,94.334 
	856.118,94.638 855.516,94.939 855.215,95.24 854.615,95.541 854.013,95.842 853.41,96.143 853.109,96.444 852.512,96.745 
	851.308,97.047 850.106,97.651 849.202,98.251 847.998,98.856 846.796,99.458 844.693,100.361 842.286,101.565 839.883,102.471 
	837.775,103.375 835.368,104.582 833.265,105.485 831.461,106.087 829.958,106.99 828.152,107.595 826.648,108.197 824.847,109.101 
	822.739,110.006 820.332,110.91 818.23,111.514 816.124,112.418 813.417,113.625 811.013,114.528 806.2,116.036 801.992,117.845 
	795.974,119.955 790.562,121.764 784.549,123.573 778.833,125.385 774.625,126.891 770.713,128.097 766.806,129.304 763.496,130.21 
	760.187,131.116 753.873,132.925 749.06,134.132 740.94,136.546 734.627,138.054 728.007,139.865 724.7,140.771 721.393,141.376 
	718.384,142.279 715.074,142.884 711.767,143.789 708.459,144.392 705.15,145.3 702.144,145.902 698.834,146.507 695.526,147.111 
	692.219,147.716 688.91,148.321 685.6,148.925 679.284,149.831 669.359,151.344 666.05,151.949 662.74,152.252 659.433,152.857 
	656.125,153.161 653.117,153.765 646.5,154.671 637.173,155.584 627.85,156.492 618.526,157.403 612.207,158.01 605.892,158.617 
	599.575,159.224 593.26,159.829 580.324,160.742 567.69,161.357 555.058,162.267 542.424,162.882 "/>
<polyline class="lowerDeck0" points="69.418,11.96 39.639,13.49 69.418,11.96 "/>
<polyline class="lowerDeck0" points="335.765,165.156 337.269,165.457 388.711,165.714 414.279,165.993 439.848,165.672 452.784,165.663 
	468.126,165.349 "/>
<path class="lowerDeck0" d="M403.15,166.003"/>
<path class="lowerDeck0" d="M430.524,165.981"/>
<path class="lowerDeck0" d="M445.866,165.667"/>
<path class="lowerDeck0" d="M464.214,165.653"/>
<path class="lowerDeck0" d="M468.126,165.349"/>
<polyline class="lowerDeck0" points="125.067,9.808 131.985,9.502 208.992,7.634 311.57,5.744 388.578,4.777 414.145,4.457 439.714,4.736 
	452.649,4.726 465.587,5.015 478.221,5.306 491.157,5.595 503.791,5.886 529.358,6.768 542.294,7.36 554.931,7.95 567.565,8.844 
	580.199,9.735 593.135,10.626 599.453,10.922 605.771,11.517 612.088,12.114 622.918,13.008 632.245,13.904 637.058,14.501 "/>
<polyline class="lowerDeck0" points="334.863,165.158 335.164,165.158 311.701,164.874 209.121,163.156 132.111,161.415 106.541,160.534 
	104.736,160.534 "/>
<path class="lowerDeck0" d="M213.031,163.454"/>
<path class="lowerDeck0" d="M132.714,161.413"/>
<polyline class="lowerDeck0" points="103.833,160.537 55.1,158.47 52.091,158.172 55.1,158.47 103.833,160.537 "/>
<path class="lowerDeck0" d="M132.714,161.413"/>
<path class="lowerDeck0" d="M170.916,162.284"/>
<polyline class="lowerDeck0" points="152.169,44.681 145.852,44.685 145.852,44.986 145.551,44.989 145.551,45.29 145.25,45.29 
	145.252,47.998 131.115,48.007 "/>
<line class="lowerDeck0" x1="131.108" y1="39.584" x2="145.551" y2="44.989"/>
<line class="lowerDeck0" x1="138.321" y1="31.155" x2="147.357" y2="44.685"/>
<line class="lowerDeck0" x1="149.451" y1="31.148" x2="149.462" y2="44.683"/>
<line class="lowerDeck0" x1="160.882" y1="31.138" x2="151.868" y2="44.681"/>
<line class="lowerDeck0" x1="163.296" y1="40.727" x2="152.171" y2="46.487"/>
<line class="lowerDeck0" x1="163.306" y1="49.657" x2="152.173" y2="49.794"/>
<polyline class="lowerDeck0" points="349.525,71.592 349.53,77.007 349.534,82.121 349.54,89.34 349.545,95.056 "/>
<path class="lowerDeck0" d="M348.793,95.357c0.25,0,0.755-0.084,0.755-0.333"/>
<polyline class="lowerDeck0" points="348.944,95.357 345.935,95.36 341.424,95.362 "/>
<line class="lowerDeck0" x1="334.806" y1="95.37" x2="328.488" y2="95.374"/>
<path class="lowerDeck0" d="M327.894,95.065c0,0.25,0.333,0.311,0.581,0.311"/>
<polyline class="lowerDeck0" points="327.887,95.073 327.884,91.463 327.88,86.951 "/>
<line class="lowerDeck0" x1="327.882" y1="88.755" x2="327.881" y2="87.854"/>
<polyline class="lowerDeck0" points="327.88,86.951 327.875,80.334 327.874,78.828 327.871,76.723 327.868,71.609 "/>
<line class="lowerDeck0" x1="187.07" y1="51.873" x2="179.249" y2="51.88"/>
<line class="lowerDeck0" x1="170.826" y1="51.885" x2="163.306" y2="51.892"/>
<line class="lowerDeck0" x1="129.594" y1="26.651" x2="129.594" y2="26.651"/>
<line class="lowerDeck0" x1="345.311" y1="66.784" x2="345.311" y2="66.784"/>
<line class="lowerDeck0" x1="345.311" y1="67.384" x2="345.311" y2="67.384"/>
<line class="lowerDeck0" x1="345.313" y1="67.986" x2="345.313" y2="67.986"/>
<line class="lowerDeck0" x1="345.311" y1="66.483" x2="345.311" y2="66.483"/>
<line class="lowerDeck0" x1="345.311" y1="66.784" x2="345.311" y2="66.784"/>
<line class="lowerDeck0" x1="345.31" y1="65.881" x2="345.31" y2="65.881"/>
<line class="lowerDeck0" x1="345.31" y1="65.579" x2="345.31" y2="65.579"/>
<line class="lowerDeck0" x1="345.31" y1="64.977" x2="345.31" y2="64.977"/>
<line class="lowerDeck0" x1="345.309" y1="64.076" x2="345.29" y2="42.416"/>
<polyline class="lowerDeck0" points="462.605,38.409 447.264,38.421 434.328,38.433 434.34,53.775 "/>
<line class="lowerDeck0" x1="445.168" y1="50.757" x2="445.168" y2="50.456"/>
<path class="lowerDeck0" d="M446.373,49.25c-0.749,0-1.205,0.442-1.203,1.191"/>
<line class="lowerDeck0" x1="446.372" y1="49.251" x2="446.671" y2="49.251"/>
<path class="lowerDeck0" d="M432.991,57.986c0.583,0,1.053-0.473,1.05-1.053"/>
<polyline class="lowerDeck0" points="433.143,57.986 432.84,57.988 431.038,57.988 "/>
<polyline class="lowerDeck0" points="445.168,50.757 445.183,68.806 345.313,68.889 "/>
<line class="lowerDeck0" x1="453.893" y1="49.244" x2="446.671" y2="49.251"/>
<polyline class="lowerDeck0" points="475.551,51.334 479.46,51.329 483.372,51.327 "/>
<line class="lowerDeck0" x1="477.017" y1="5.309" x2="476.417" y2="5.309"/>
<polyline class="lowerDeck0" points="475.541,39.902 475.529,23.659 475.514,5.309 476.116,5.309 "/>
<polyline class="lowerDeck0" points="370.856,39.386 381.386,39.378 381.366,14.712 "/>
<line class="lowerDeck0" x1="327.841" y1="39.422" x2="360.93" y2="39.395"/>
<line class="lowerDeck0" x1="353.992" y1="14.734" x2="353.999" y2="24.061"/>
<line class="lowerDeck0" x1="354.012" y1="39.4" x2="354.007" y2="32.783"/>
<polyline class="lowerDeck0" points="353.999,24.061 353.999,23.76 353.999,24.061 "/>
<line class="lowerDeck0" x1="353.999" y1="23.76" x2="353.999" y2="23.76"/>
<line class="lowerDeck0" x1="354.007" y1="33.084" x2="354.007" y2="33.084"/>
<polyline class="lowerDeck0" points="328.466,68.901 327.865,68.901 327.865,68.6 "/>
<polyline class="lowerDeck0" points="327.843,42.431 327.844,43.033 327.857,57.773 327.865,68.6 "/>
<polyline class="lowerDeck0" points="328.466,68.901 328.767,68.901 330.573,68.901 "/>
<polyline class="lowerDeck0" points="345.3,54.15 345.313,68.588 345.313,68.889 342.304,68.892 "/>
<line class="lowerDeck0" x1="345.292" y1="43.62" x2="345.292" y2="43.018"/>
<polyline class="lowerDeck0" points="330.573,68.901 341.703,68.892 342.304,68.892 "/>
<line class="lowerDeck0" x1="382.284" y1="35.167" x2="382.585" y2="35.165"/>
<polyline class="lowerDeck0" points="416.878,35.439 416.878,35.738 416.882,40.852 416.886,44.463 "/>
<path class="lowerDeck0" d="M416.518,35.363c-0.039-0.069-0.098-0.125-0.168-0.164"/>
<polyline class="lowerDeck0" points="416.576,35.138 416.277,35.138 406.649,35.145 396.421,35.155 389.804,35.16 381.683,35.167 "/>
<line class="lowerDeck0" x1="434.343" y1="56.781" x2="445.173" y2="56.771"/>
<line class="lowerDeck0" x1="433.745" y1="57.685" x2="444.882" y2="68.806"/>
<line class="lowerDeck0" x1="450.874" y1="38.418" x2="450.882" y2="49.246"/>
<line class="lowerDeck0" x1="447.875" y1="49.248" x2="447.866" y2="38.421"/>
<line class="lowerDeck0" x1="443.053" y1="38.426" x2="447.572" y2="49.251"/>
<line class="lowerDeck0" x1="447.273" y1="49.251" x2="436.436" y2="38.431"/>
<line class="lowerDeck0" x1="434.333" y1="44.149" x2="446.671" y2="49.251"/>
<line class="lowerDeck0" x1="434.338" y1="49.261" x2="446.33" y2="49.251"/>
<line class="lowerDeck0" x1="445.168" y1="52.26" x2="434.338" y2="52.269"/>
<line class="lowerDeck0" x1="431.038" y1="57.988" x2="431.045" y2="68.818"/>
<line class="lowerDeck0" x1="187.037" y1="13.066" x2="187.162" y2="162.872"/>
<path class="lowerDeck0" d="M515.64,55.271"/>
<path class="lowerDeck0" d="M515.865,55.66"/>
<line class="lowerDeck0" x1="515.865" y1="55.812" x2="515.865" y2="55.812"/>
<line class="lowerDeck0" x1="494.207" y1="59.741" x2="483.379" y2="59.748"/>
<polyline class="lowerDeck0" points="505.032,53.716 505.037,59.731 494.508,59.741 494.503,53.724 494.508,59.741 "/>
<polyline class="lowerDeck0" points="510.149,55.515 510.45,55.515 514.961,55.511 515.859,55.511 "/>
<line class="lowerDeck0" x1="514.961" y1="55.511" x2="514.961" y2="55.511"/>
<line class="lowerDeck0" x1="510.45" y1="55.515" x2="510.45" y2="55.515"/>
<line class="lowerDeck0" x1="483.379" y1="59.748" x2="483.375" y2="54.034"/>
<line class="lowerDeck0" x1="483.392" y1="53.733" x2="483.977" y2="53.733"/>
<line class="lowerDeck0" x1="483.375" y1="54.034" x2="483.375" y2="54.034"/>
<polyline class="lowerDeck0" points="510.149,55.515 509.848,55.515 505.336,55.52 505.035,55.52 "/>
<line class="lowerDeck0" x1="505.336" y1="55.52" x2="505.336" y2="55.52"/>
<line class="lowerDeck0" x1="509.848" y1="55.515" x2="509.848" y2="55.515"/>
<line class="lowerDeck0" x1="504.43" y1="53.716" x2="504.43" y2="53.716"/>
<polyline class="lowerDeck0" points="504.43,53.716 504.731,53.716 505.032,53.716 "/>
<path class="lowerDeck0" d="M494.804,53.724"/>
<path class="lowerDeck0" d="M494.503,53.724"/>
<line class="lowerDeck0" x1="484.275" y1="53.733" x2="484.275" y2="53.733"/>
<polyline class="lowerDeck0" points="504.446,53.728 488.79,53.728 484.275,53.733 483.977,53.733 "/>
<line class="lowerDeck0" x1="488.79" y1="53.728" x2="488.79" y2="53.728"/>
<path class="lowerDeck0" d="M494.202,53.724"/>
<line class="lowerDeck0" x1="514.065" y1="63.636" x2="509.853" y2="63.638"/>
<polyline class="lowerDeck0" points="515.277,75.665 515.287,87.098 515.292,92.814 "/>
<path class="lowerDeck0" d="M515.419,63.633c0.117,0,0.232-0.047,0.318-0.132c0.083-0.083,0.132-0.201,0.132-0.321"/>
<line class="lowerDeck0" x1="515.569" y1="63.633" x2="515.268" y2="63.633"/>
<line class="lowerDeck0" x1="515.87" y1="63.031" x2="515.87" y2="63.332"/>
<line class="lowerDeck0" x1="515.268" y1="63.633" x2="514.065" y2="63.636"/>
<path class="lowerDeck0" d="M504.139,63.643"/>
<path class="lowerDeck0" d="M509.551,63.638"/>
<line class="lowerDeck0" x1="515.865" y1="55.519" x2="515.87" y2="63.031"/>
<line class="lowerDeck0" x1="511.613" y1="6.18" x2="511.639" y2="38.367"/>
<line class="lowerDeck0" x1="751.746" y1="106.454" x2="751.746" y2="106.454"/>
<polyline class="lowerDeck0" points="752.042,101.641 751.741,101.641 751.741,102.244 "/>
<polyline class="lowerDeck0" points="733.405,118.203 741.829,118.195 741.824,111.877 "/>
<line class="lowerDeck0" x1="751.748" y1="110.966" x2="751.751" y2="111.869"/>
<line class="lowerDeck0" x1="752.052" y1="111.869" x2="760.774" y2="111.862"/>
<polyline class="lowerDeck0" points="751.741,102.244 751.743,102.545 751.746,106.454 751.746,106.756 751.748,110.665 751.748,110.966 
	"/>
<line class="lowerDeck0" x1="707.243" y1="126.345" x2="733.407" y2="122.714"/>
<line class="lowerDeck0" x1="707.5" y1="78.214" x2="707.485" y2="60.167"/>
<path class="lowerDeck0" d="M707.473,44.524"/>
<line class="lowerDeck0" x1="724.947" y1="78.199" x2="724.648" y2="78.201"/>
<line class="lowerDeck0" x1="656.412" y1="136.617" x2="656.412" y2="136.617"/>
<polyline class="lowerDeck0" points="689.465,91.164 690.065,91.164 689.465,91.164 "/>
<line class="lowerDeck0" x1="690.065" y1="91.164" x2="690.065" y2="91.164"/>
<line class="lowerDeck0" x1="689.764" y1="91.164" x2="689.764" y2="91.164"/>
<polyline class="lowerDeck0" points="689.465,91.164 689.164,91.166 689.465,91.164 "/>
<line class="lowerDeck0" x1="701.463" y1="51.748" x2="701.463" y2="51.748"/>
<line class="lowerDeck0" x1="689.152" y1="78.231" x2="689.152" y2="78.231"/>
<line class="lowerDeck0" x1="698.476" y1="78.221" x2="698.476" y2="78.221"/>
<polyline class="lowerDeck0" points="707.49,65.281 701.475,65.286 701.47,43.261 "/>
<path class="lowerDeck0" d="M701.458,43.324"/>
<path class="lowerDeck0" d="M701.475,65.286"/>
<line class="lowerDeck0" x1="701.458" y1="43.324" x2="676.486" y2="40.037"/>
<line class="lowerDeck0" x1="666.938" y1="135.104" x2="658.213" y2="135.109"/>
<line class="lowerDeck0" x1="632.646" y1="137.838" x2="656.412" y2="136.617"/>
<line class="lowerDeck0" x1="648.541" y1="78.263" x2="648.541" y2="78.263"/>
<line class="lowerDeck0" x1="666.253" y1="34.029" x2="657.528" y2="34.037"/>
<path class="lowerDeck0" d="M632.443,32.325c-0.291,0.076-0.563,0.211-0.803,0.392"/>
<line class="lowerDeck0" x1="632.561" y1="32.553" x2="656.326" y2="33.437"/>
<path class="lowerDeck0" d="M657.269,33.721c-0.355-0.181-0.71-0.357-1.07-0.529"/>
<line class="lowerDeck0" x1="578.508" y1="144.499" x2="591.142" y2="144.49"/>
<line class="lowerDeck0" x1="578.508" y1="144.499" x2="552.94" y2="149.334"/>
<path class="lowerDeck0" d="M570.028,78.63"/>
<path class="lowerDeck0" d="M570.028,78.329"/>
<path class="lowerDeck0" d="M570.03,78.931"/>
<line class="lowerDeck0" x1="617.013" y1="144.467" x2="625.735" y2="144.46"/>
<line class="lowerDeck0" x1="622.984" y1="91.22" x2="627.495" y2="91.215"/>
<polyline class="lowerDeck0" points="591.108,102.978 599.83,102.971 599.82,91.541 "/>
<line class="lowerDeck0" x1="625.637" y1="25.941" x2="616.915" y2="25.948"/>
<polyline class="lowerDeck0" points="611.799,25.05 609.992,24.45 609.691,24.45 603.375,23.551 603.074,23.554 "/>
<polyline class="lowerDeck0" points="591.039,21.458 592.844,21.757 599.764,22.954 600.065,22.954 "/>
<line class="lowerDeck0" x1="599.764" y1="22.954" x2="599.764" y2="22.954"/>
<line class="lowerDeck0" x1="592.542" y1="21.757" x2="592.542" y2="21.757"/>
<line class="lowerDeck0" x1="593.145" y1="21.754" x2="593.145" y2="21.754"/>
<line class="lowerDeck0" x1="611.799" y1="25.05" x2="616.915" y2="25.948"/>
<line class="lowerDeck0" x1="603.074" y1="23.554" x2="600.065" y2="22.954"/>
<line class="lowerDeck0" x1="591.044" y1="25.97" x2="578.41" y2="25.98"/>
<line class="lowerDeck0" x1="578.407" y1="25.378" x2="552.534" y2="20.888"/>
<path class="lowerDeck0" d="M515.419,63.633c0.117,0,0.232-0.047,0.318-0.132c0.083-0.083,0.132-0.201,0.132-0.321"/>
<path class="lowerDeck0" d="M514.065,63.636"/>
<path class="lowerDeck0" d="M515.569,63.633"/>
<line class="lowerDeck0" x1="524.252" y1="15.196" x2="539.594" y2="15.182"/>
<polyline class="lowerDeck0" points="551.327,15.174 549.521,15.174 549.222,15.174 548.921,15.174 545.009,15.179 544.708,15.179 
	544.406,15.179 544.108,15.179 540.196,15.182 539.895,15.182 539.594,15.182 "/>
<line class="lowerDeck0" x1="506.844" y1="63.942" x2="506.844" y2="63.942"/>
<polyline class="lowerDeck0" points="509.853,63.638 484.584,63.66 493.017,75.083 "/>
<line class="lowerDeck0" x1="494.52" y1="75.083" x2="494.511" y2="63.65"/>
<line class="lowerDeck0" x1="497.529" y1="75.08" x2="497.519" y2="63.648"/>
<line class="lowerDeck0" x1="500.839" y1="75.078" x2="500.829" y2="63.646"/>
<line class="lowerDeck0" x1="503.546" y1="75.075" x2="503.536" y2="63.643"/>
<polyline class="lowerDeck0" points="506.854,75.073 506.844,63.64 506.851,70.86 "/>
<line class="lowerDeck0" x1="487.301" y1="75.087" x2="480.985" y2="72.987"/>
<line class="lowerDeck0" x1="491.213" y1="75.085" x2="480.98" y2="67.572"/>
<line class="lowerDeck0" x1="493.921" y1="75.083" x2="490.3" y2="63.655"/>
<line class="lowerDeck0" x1="480.985" y1="75.093" x2="480.975" y2="63.663"/>
<path class="lowerDeck0" d="M755.041,91.11"/>
<line class="lowerDeck0" x1="666.26" y1="42.453" x2="666.26" y2="42.453"/>
<line class="lowerDeck0" x1="666.267" y1="49.973" x2="666.267" y2="49.973"/>
<line class="lowerDeck0" x1="480.99" y1="79.303" x2="480.99" y2="79.303"/>
<line class="lowerDeck0" x1="549.932" y1="149.339" x2="481.046" y2="149.395"/>
<polyline class="lowerDeck0" points="507.762,78.982 507.772,91.316 507.772,92.216 "/>
<polyline class="lowerDeck0" points="591.108,102.978 582.082,102.985 582.072,91.255 "/>
<line class="lowerDeck0" x1="570.647" y1="97.279" x2="570.647" y2="97.279"/>
<line class="lowerDeck0" x1="576.679" y1="115.324" x2="576.978" y2="115.324"/>
<polyline class="lowerDeck0" points="576.679,115.022 576.978,115.324 576.679,115.022 "/>
<line class="lowerDeck0" x1="631.75" y1="142.35" x2="631.75" y2="142.049"/>
<line class="lowerDeck0" x1="698.476" y1="78.221" x2="705.696" y2="78.216"/>
<line class="lowerDeck0" x1="760.737" y1="67.942" x2="760.737" y2="67.942"/>
<polyline class="lowerDeck0" points="523.672,39.26 526.379,39.258 529.385,39.256 "/>
<path class="lowerDeck0" d="M550.186,92.182"/>
<path class="lowerDeck0" d="M550.245,162.573"/>
<line class="lowerDeck0" x1="707.213" y1="91.149" x2="698.489" y2="91.157"/>
<path class="lowerDeck0" d="M570.642,91.264"/>
<path class="lowerDeck0" d="M580.87,91.255"/>
<path class="lowerDeck0" d="M593.806,91.245"/>
<polyline class="lowerDeck0" points="580.287,117.125 578.784,117.125 577.881,116.224 576.978,115.324 "/>
<polyline class="lowerDeck0" points="549.885,92.182 542.365,92.19 534.845,92.195 527.625,92.202 "/>
<polyline class="lowerDeck0" points="527.603,65.43 530.01,65.428 537.53,65.42 539.334,65.42 "/>
<polyline class="lowerDeck0" points="539.346,78.955 539.344,77.151 539.339,72.037 539.334,66.923 "/>
<polyline class="lowerDeck0" points="550.186,91.279 559.212,91.272 564.025,91.269 "/>
<path class="lowerDeck0" d="M560.414,91.272"/>
<path class="lowerDeck0" d="M550.186,92.483"/>
<line class="lowerDeck0" x1="591.086" y1="76.206" x2="591.086" y2="76.206"/>
<line class="lowerDeck0" x1="591.083" y1="75.303" x2="591.083" y2="75.303"/>
<line class="lowerDeck0" x1="591.078" y1="67.18" x2="591.088" y2="78.914"/>
<line class="lowerDeck0" x1="591.154" y1="159.831" x2="591.108" y2="102.978"/>
<polyline class="lowerDeck0" points="649.471,109.847 650.673,109.847 656.089,109.842 "/>
<polyline class="lowerDeck0" points="760.652,78.187 732.467,78.194 724.947,78.199 "/>
<path class="lowerDeck0" d="M760.745,78.17"/>
<polyline class="lowerDeck0" points="760.696,91.122 732.48,91.13 724.959,91.134 "/>
<path class="lowerDeck0" d="M747.52,91.117"/>
<polyline class="lowerDeck0" points="760.745,77.913 760.75,83.585 760.757,91.105 "/>
<line class="lowerDeck0" x1="733.07" y1="78.194" x2="733.07" y2="78.194"/>
<polyline class="lowerDeck0" points="539.334,66.923 539.334,65.719 539.334,65.42 551.369,65.411 "/>
<polyline class="lowerDeck0" points="527.601,62.12 527.603,65.43 527.61,75.357 527.613,76.86 "/>
<polyline class="lowerDeck0" points="551.381,78.946 551.374,72.63 551.369,65.109 "/>
<polyline class="lowerDeck0" points="551.369,65.109 551.366,62.703 551.361,55.782 551.354,48.262 551.349,40.742 "/>
<line class="lowerDeck0" x1="551.33" y1="17.879" x2="551.322" y2="7.783"/>
<polyline class="lowerDeck0" points="551.327,15.774 551.335,23.294 551.34,30.815 551.347,38.335 "/>
<polyline class="lowerDeck0" points="538.713,39.248 542.321,39.246 549.841,39.239 551.347,39.239 "/>
<line class="lowerDeck0" x1="551.347" y1="38.335" x2="551.349" y2="40.742"/>
<polyline class="lowerDeck0" points="591.03,10.327 591.039,22.058 591.047,29.578 591.052,37.099 591.059,44.619 591.064,52.14 
	591.071,59.66 591.078,67.18 "/>
<line class="lowerDeck0" x1="591.047" y1="29.578" x2="591.047" y2="29.578"/>
<line class="lowerDeck0" x1="591.039" y1="22.058" x2="591.039" y2="22.058"/>
<line class="lowerDeck0" x1="591.052" y1="37.099" x2="591.052" y2="37.099"/>
<line class="lowerDeck0" x1="591.059" y1="44.619" x2="591.059" y2="44.619"/>
<line class="lowerDeck0" x1="591.064" y1="52.14" x2="591.064" y2="52.14"/>
<line class="lowerDeck0" x1="591.071" y1="59.66" x2="591.071" y2="59.66"/>
<line class="lowerDeck0" x1="591.083" y1="75.303" x2="591.083" y2="75.303"/>
<line class="lowerDeck0" x1="591.078" y1="67.18" x2="591.078" y2="67.18"/>
<polyline class="lowerDeck0" points="608.533,78.297 608.533,77.695 608.528,70.174 608.521,62.052 "/>
<polyline class="lowerDeck0" points="570.016,62.084 570.023,70.206 570.028,77.727 570.028,78.329 "/>
<line class="lowerDeck0" x1="601.595" y1="54.84" x2="600.692" y2="53.936"/>
<polyline class="lowerDeck0" points="576.926,54.859 577.83,53.956 578.733,53.053 580.236,53.05 "/>
<line class="lowerDeck0" x1="577.83" y1="53.956" x2="577.83" y2="53.956"/>
<polyline class="lowerDeck0" points="600.692,53.936 600.692,53.936 599.789,53.036 598.285,53.036 "/>
<line class="lowerDeck0" x1="608.533" y1="77.695" x2="608.533" y2="77.695"/>
<line class="lowerDeck0" x1="570.028" y1="78.891" x2="570.028" y2="78.329"/>
<polyline class="lowerDeck0" points="593.796,78.911 601.316,78.904 608.536,78.899 "/>
<path class="lowerDeck0" d="M570.03,78.931"/>
<polyline class="lowerDeck0" points="666.289,78.248 666.282,69.526 666.277,61.102 666.272,55.386 666.267,49.973 666.26,42.453 
	666.255,34.932 666.241,18.085 "/>
<line class="lowerDeck0" x1="666.26" y1="42.453" x2="666.26" y2="42.453"/>
<line class="lowerDeck0" x1="666.267" y1="49.973" x2="666.267" y2="49.973"/>
<polyline class="lowerDeck0" points="649.738,70.742 649.743,77.66 649.743,78.263 649.144,78.263 "/>
<line class="lowerDeck0" x1="649.445" y1="78.263" x2="649.445" y2="78.263"/>
<polyline class="lowerDeck0" points="648.541,78.263 657.565,78.255 666.892,78.248 "/>
<polyline class="lowerDeck0" points="666.892,78.248 675.313,78.241 682.231,78.236 683.135,78.236 684.939,78.233 689.152,78.231 "/>
<polyline class="lowerDeck0" points="707.5,77.012 707.5,78.214 705.696,78.216 "/>
<path class="lowerDeck0" d="M698.476,78.221"/>
<path class="lowerDeck0" d="M689.152,78.231"/>
<line class="lowerDeck0" x1="683.13" y1="70.715" x2="683.135" y2="78.236"/>
<polyline class="lowerDeck0" points="689.164,91.166 684.951,91.169 682.243,91.171 675.325,91.176 667.805,91.183 "/>
<polyline class="lowerDeck0" points="511.639,38.367 511.639,39.873 514.046,39.87 "/>
<line class="lowerDeck0" x1="552.527" y1="10.961" x2="552.527" y2="10.961"/>
<line class="lowerDeck0" x1="552.531" y1="18.482" x2="552.531" y2="18.482"/>
<line class="lowerDeck0" x1="552.529" y1="14.871" x2="552.529" y2="14.871"/>
<line class="lowerDeck0" x1="552.536" y1="22.692" x2="552.536" y2="22.692"/>
<line class="lowerDeck0" x1="552.542" y1="30.213" x2="552.542" y2="30.213"/>
<line class="lowerDeck0" x1="552.549" y1="37.733" x2="552.549" y2="37.733"/>
<line class="lowerDeck0" x1="552.554" y1="45.253" x2="552.554" y2="45.253"/>
<line class="lowerDeck0" x1="552.561" y1="54.578" x2="552.561" y2="54.578"/>
<line class="lowerDeck0" x1="552.568" y1="62.098" x2="552.568" y2="62.098"/>
<line class="lowerDeck0" x1="552.573" y1="69.619" x2="552.573" y2="69.619"/>
<line class="lowerDeck0" x1="552.581" y1="77.139" x2="552.581" y2="77.139"/>
<line class="lowerDeck0" x1="733.422" y1="138.357" x2="733.391" y2="131.696"/>
<polyline class="lowerDeck0" points="733.415,131.738 733.41,124.217 733.403,116.697 733.398,109.177 733.39,101.656 "/>
<polyline class="lowerDeck0" points="751.741,101.641 752.042,101.641 759.864,101.634 760.764,101.634 760.767,102.537 760.772,110.058 
	760.779,117.578 760.789,131.113 "/>
<line class="lowerDeck0" x1="683.152" y1="98.993" x2="683.147" y2="91.171"/>
<line class="lowerDeck0" x1="707.248" y1="132.362" x2="707.258" y2="144.695"/>
<polyline class="lowerDeck0" points="707.216,95.661 707.223,105.289 707.231,112.809 707.238,120.33 707.243,128.149 707.25,135.669 "/>
<polyline class="lowerDeck0" points="649.755,91.198 649.755,91.499 649.76,98.417 "/>
<polyline class="lowerDeck0" points="648.553,91.198 657.577,91.191 665.097,91.186 "/>
<polyline class="lowerDeck0" points="666.953,151.949 666.945,142.624 666.938,135.104 666.933,127.583 666.926,120.063 666.924,114.648 
	666.919,109.233 666.911,100.508 666.904,92.988 666.904,91.183 "/>
<line class="lowerDeck0" x1="665.097" y1="91.186" x2="667.805" y2="91.183"/>
<line class="lowerDeck0" x1="639.229" y1="91.205" x2="631.709" y2="91.213"/>
<line class="lowerDeck0" x1="618.171" y1="91.223" x2="621.481" y2="91.22"/>
<path class="lowerDeck0" d="M607.943,91.233"/>
<path class="lowerDeck0" d="M593.806,91.245"/>
<line class="lowerDeck0" x1="631.75" y1="143.253" x2="631.762" y2="156.189"/>
<line class="lowerDeck0" x1="591.108" y1="102.978" x2="591.108" y2="102.978"/>
<polyline class="lowerDeck0" points="590.816,117.116 583.898,117.123 580.287,117.125 "/>
<line class="lowerDeck0" x1="590.816" y1="117.116" x2="598.337" y2="117.111"/>
<polyline class="lowerDeck0" points="607.943,91.233 607.95,99.955 607.955,108.077 "/>
<polyline class="lowerDeck0" points="570.642,91.264 570.65,99.987 570.654,108.109 "/>
<polyline class="lowerDeck0" points="601.647,115.603 600.743,116.205 599.84,117.108 598.337,117.111 "/>
<line class="lowerDeck0" x1="577.881" y1="116.224" x2="577.881" y2="116.224"/>
<path class="lowerDeck0" d="M481.061,165.036"/>
<path class="lowerDeck0" d="M481.046,149.094"/>
<path class="lowerDeck0" d="M481.034,134.054"/>
<path class="lowerDeck0" d="M552.953,161.968"/>
<path class="lowerDeck0" d="M552.943,151.741"/>
<path class="lowerDeck0" d="M552.938,145.124"/>
<path class="lowerDeck0" d="M552.931,137.603"/>
<line class="lowerDeck0" x1="625.735" y1="144.46" x2="625.745" y2="156.796"/>
<line class="lowerDeck0" x1="560.405" y1="78.938" x2="551.353" y2="78.951"/>
<line class="lowerDeck0" x1="552.581" y1="78.344" x2="552.581" y2="78.344"/>
<line class="lowerDeck0" x1="552.581" y1="77.139" x2="552.581" y2="77.139"/>
<path class="lowerDeck0" d="M551.381,78.946"/>
<path class="lowerDeck0" d="M557.396,78.941"/>
<line class="lowerDeck0" x1="552.524" y1="7.848" x2="552.583" y2="78.946"/>
<polyline class="lowerDeck0" points="507.762,78.982 496.932,78.99 489.411,78.997 481.891,79.002 480.99,79.004 480.99,79.905 "/>
<polyline class="lowerDeck0" points="507.772,91.015 507.772,92.819 515.292,92.814 "/>
<path class="lowerDeck0" d="M758.995,84.942"/>
<path class="lowerDeck0" d="M759,90.957"/>
<line class="lowerDeck0" x1="538.713" y1="39.248" x2="538.713" y2="39.248"/>
<line class="lowerDeck0" x1="529.385" y1="39.256" x2="529.385" y2="39.256"/>
<line class="lowerDeck0" x1="656.992" y1="109.842" x2="656.992" y2="109.842"/>
<line class="lowerDeck0" x1="666.016" y1="109.835" x2="666.016" y2="109.835"/>
<line class="lowerDeck0" x1="649.758" y1="96.312" x2="649.758" y2="96.312"/>
<line class="lowerDeck0" x1="649.76" y1="98.417" x2="649.76" y2="98.417"/>
<line class="lowerDeck0" x1="649.743" y1="77.058" x2="649.743" y2="77.058"/>
<line class="lowerDeck0" x1="651.55" y1="78.26" x2="651.55" y2="78.26"/>
<line class="lowerDeck0" x1="649.738" y1="71.944" x2="649.738" y2="71.944"/>
<line class="lowerDeck0" x1="654.558" y1="78.258" x2="654.558" y2="78.258"/>
<line class="lowerDeck0" x1="679.526" y1="78.238" x2="679.526" y2="78.238"/>
<line class="lowerDeck0" x1="679.225" y1="78.238" x2="679.225" y2="78.238"/>
<polyline class="lowerDeck0" points="125.372,15.223 126.274,15.223 125.372,15.223 125.676,18.834 "/>
<line class="lowerDeck0" x1="129.594" y1="27.554" x2="129.584" y2="15.221"/>
<line class="lowerDeck0" x1="156.778" y1="161.995" x2="156.701" y2="69.344"/>
<polyline class="lowerDeck0" points="61.625,46.862 16.202,46.901 7.478,46.908 6.877,46.908 6.576,46.908 6.275,46.908 5.974,46.908 
	5.974,47.209 5.674,47.209 5.675,47.511 5.374,47.511 5.374,47.812 5.074,49.315 4.776,50.82 4.777,52.323 4.477,53.829 
	4.177,55.332 4.178,56.838 3.878,58.341 3.578,60.145 3.58,61.65 3.281,63.156 3.282,64.96 2.982,66.463 2.983,67.969 2.986,69.472 
	2.686,71.276 2.687,72.782 2.688,74.285 2.389,76.089 2.39,77.594 2.391,79.097 2.392,80.904 2.394,82.407 2.395,83.91 
	2.396,85.717 2.397,87.22 2.4,88.723 2.401,90.53 2.402,92.033 2.403,93.536 2.405,95.042 2.707,96.846 2.708,98.351 2.709,99.854 
	3.012,101.357 3.013,103.164 3.014,104.667 3.316,106.17 3.319,107.977 3.62,109.48 3.621,110.983 3.923,112.787 4.226,114.293 
	4.227,115.796 4.529,117.299 4.832,118.805 4.833,120.308 5.134,121.811 5.436,123.316 5.436,123.615 5.737,123.615 5.737,123.916 
	6.037,123.916 6.037,124.217 6.339,124.217 6.64,124.217 7.542,124.217 6.64,124.217 "/>
<line class="lowerDeck0" x1="5.374" y1="47.812" x2="5.374" y2="47.812"/>
<line class="lowerDeck0" x1="151.868" y1="44.681" x2="151.868" y2="44.681"/>
<line class="lowerDeck0" x1="30.63" y1="33.351" x2="30.641" y2="46.889"/>
<line class="lowerDeck0" x1="37.249" y1="33.346" x2="37.26" y2="46.884"/>
<line class="lowerDeck0" x1="47.175" y1="33.336" x2="47.186" y2="46.874"/>
<line class="lowerDeck0" x1="53.793" y1="33.331" x2="53.804" y2="46.869"/>
<line class="lowerDeck0" x1="60.411" y1="33.327" x2="60.422" y2="46.864"/>
<line class="lowerDeck0" x1="24.313" y1="33.356" x2="24.324" y2="46.894"/>
<line class="lowerDeck0" x1="130.18" y1="9.505" x2="130.181" y2="11.008"/>
<polyline class="lowerDeck0" points="126.274,15.223 126.575,15.223 126.876,15.223 126.876,14.922 126.876,14.621 126.876,14.922 
	126.876,15.223 126.575,15.223 126.274,15.223 "/>
<polyline class="lowerDeck0" points="127.475,11.612 127.475,11.311 127.775,11.311 127.775,11.01 128.076,11.01 127.775,11.01 
	127.775,11.311 127.475,11.311 127.475,11.612 126.876,14.621 "/>
<polyline class="lowerDeck0" points="128.076,11.01 130.181,11.008 128.076,11.01 "/>
<line class="lowerDeck0" x1="69.418" y1="11.96" x2="69.418" y2="11.96"/>
<line class="lowerDeck0" x1="72.427" y1="11.957" x2="72.427" y2="11.957"/>
<line class="lowerDeck0" x1="130.18" y1="9.806" x2="130.18" y2="9.806"/>
<line class="lowerDeck0" x1="125.372" y1="15.223" x2="125.372" y2="15.223"/>
<polyline class="lowerDeck0" points="125.067,9.808 104.613,10.428 69.418,11.96 "/>
<line class="lowerDeck0" x1="129.586" y1="18.829" x2="129.586" y2="18.829"/>
<line class="lowerDeck0" x1="129.586" y1="18.528" x2="129.586" y2="18.528"/>
<line class="lowerDeck0" x1="131.12" y1="54.025" x2="131.102" y2="31.162"/>
<line class="lowerDeck0" x1="127.548" y1="100.053" x2="127.523" y2="69.369"/>
<line class="lowerDeck0" x1="187.147" y1="144.969" x2="126.683" y2="145.476"/>
<line class="lowerDeck0" x1="129.586" y1="18.829" x2="125.676" y2="18.834"/>
<line class="lowerDeck0" x1="131.102" y1="31.162" x2="163.289" y2="31.135"/>
<line class="lowerDeck0" x1="126.657" y1="115.093" x2="126.683" y2="145.476"/>
<polyline class="lowerDeck0" points="327.945,165.163 327.889,97.179 332.099,97.176 332.098,95.372 "/>
<line class="lowerDeck0" x1="475.551" y1="51.334" x2="475.619" y2="132.252"/>
<line class="lowerDeck0" x1="475.624" y1="138.57" x2="475.646" y2="165.342"/>
<line class="lowerDeck0" x1="461.712" y1="51.043" x2="461.726" y2="68.791"/>
<line class="lowerDeck0" x1="281.847" y1="76.762" x2="281.853" y2="84.882"/>
<line class="lowerDeck0" x1="267.415" y1="84.894" x2="267.408" y2="76.774"/>
<line class="lowerDeck0" x1="271.024" y1="84.892" x2="271.018" y2="76.772"/>
<line class="lowerDeck0" x1="274.634" y1="84.89" x2="274.628" y2="76.767"/>
<line class="lowerDeck0" x1="278.244" y1="84.887" x2="278.237" y2="76.765"/>
<line class="lowerDeck0" x1="241.577" y1="123.723" x2="241.577" y2="123.723"/>
<line class="lowerDeck0" x1="241.528" y1="63.861" x2="241.528" y2="63.861"/>
<line class="lowerDeck0" x1="243.705" y1="65.66" x2="235.51" y2="65.513"/>
<path class="lowerDeck0" d="M261.423,115.133c-0.005-6.563-5.329-11.878-11.892-11.873c-6.562,0.007-11.877,5.329-11.872,11.893
	c0.006,6.561,5.329,11.878,11.891,11.873C256.113,127.02,261.429,121.693,261.423,115.133"/>
<path class="lowerDeck0" d="M261.423,115.133"/>
<path class="lowerDeck0" d="M261.423,115.133"/>
<path class="lowerDeck0" d="M200.625,74.723"/>
<polyline class="lowerDeck0" points="200.625,74.723 222.585,74.706 222.58,69.291 200.62,69.308 "/>
<polyline class="lowerDeck0" points="197.042,107.514 224.115,107.492 224.111,102.378 222.608,102.378 "/>
<path class="lowerDeck0" d="M192.07,74.779"/>
<line class="lowerDeck0" x1="222.586" y1="75.609" x2="222.585" y2="74.706"/>
<line class="lowerDeck0" x1="222.6" y1="92.452" x2="200.64" y2="92.471"/>
<line class="lowerDeck0" x1="222.592" y1="82.828" x2="200.632" y2="82.846"/>
<path class="lowerDeck0" d="M261.374,55.271c-0.005-6.563-5.329-11.878-11.893-11.873c-6.562,0.005-11.876,5.329-11.872,11.893
	c0.005,6.561,5.329,11.878,11.891,11.87C256.064,67.156,261.379,61.832,261.374,55.271"/>
<polyline class="lowerDeck0" points="235.526,83.719 235.535,94.248 235.541,101.769 235.548,109.588 235.555,117.108 235.561,124.628 
	235.567,132.149 235.573,139.669 235.579,147.19 235.585,154.71 235.592,163.736 "/>
<path class="lowerDeck0" d="M323.66,76.728"/>
<path class="lowerDeck0" d="M323.608,13.556"/>
<path class="lowerDeck0" d="M323.601,5.434"/>
<path class="lowerDeck0" d="M323.627,36.72"/>
<line class="lowerDeck0" x1="323.727" y1="157.046" x2="323.733" y2="165.166"/>
<path class="lowerDeck0" d="M323.609,15.661"/>
<path class="lowerDeck0" d="M323.658,74.921"/>
<path class="lowerDeck0" d="M323.66,76.728"/>
<path class="lowerDeck0" d="M323.651,65.597"/>
<path class="lowerDeck0" d="M323.656,71.012"/>
<path class="lowerDeck0" d="M323.634,45.141"/>
<path class="lowerDeck0" d="M323.647,61.386"/>
<path class="lowerDeck0" d="M323.634,44.538"/>
<path class="lowerDeck0" d="M323.63,39.726"/>
<path class="lowerDeck0" d="M323.631,42.433"/>
<path class="lowerDeck0" d="M323.613,20.173"/>
<path class="lowerDeck0" d="M323.627,35.515"/>
<path class="lowerDeck0" d="M323.612,18.369"/>
<path class="lowerDeck0" d="M323.716,143.508"/>
<path class="lowerDeck0" d="M323.713,141.101"/>
<path class="lowerDeck0" d="M323.702,127.564"/>
<path class="lowerDeck0" d="M323.705,130.873"/>
<path class="lowerDeck0" d="M323.701,126.663"/>
<path class="lowerDeck0" d="M323.7,125.458"/>
<path class="lowerDeck0" d="M323.696,120.947"/>
<path class="lowerDeck0" d="M323.689,111.321"/>
<path class="lowerDeck0" d="M323.678,98.687"/>
<path class="lowerDeck0" d="M323.684,105.003"/>
<path class="lowerDeck0" d="M308.266,13.568"/>
<path class="lowerDeck0" d="M241.185,13.625"/>
<line class="lowerDeck0" x1="323.608" y1="13.556" x2="187.037" y2="13.625"/>
<polyline class="lowerDeck0" points="323.634,44.538 288.438,44.568 288.464,75.553 288.47,83.073 288.476,90.594 288.482,98.114 
	288.489,105.935 288.493,112.251 288.497,115.561 288.506,126.09 308.962,126.073 316.482,126.066 323.701,126.061 "/>
<line class="lowerDeck0" x1="293.62" y1="126.085" x2="293.62" y2="126.085"/>
<line class="lowerDeck0" x1="288.447" y1="56" x2="288.447" y2="56"/>
<line class="lowerDeck0" x1="244.888" y1="126.124" x2="244.888" y2="126.124"/>
<line class="lowerDeck0" x1="235.545" y1="105.076" x2="243.667" y2="105.069"/>
<line class="lowerDeck0" x1="235.495" y1="45.011" x2="243.486" y2="44.906"/>
<line class="lowerDeck0" x1="656.089" y1="109.842" x2="666.919" y2="109.835"/>
<line class="lowerDeck0" x1="187.083" y1="69.32" x2="176.254" y2="69.33"/>
<line class="lowerDeck0" x1="167.831" y1="69.335" x2="156.701" y2="69.344"/>
<line class="lowerDeck0" x1="146.774" y1="69.354" x2="160.31" y2="69.342"/>
<line class="lowerDeck0" x1="24.524" y1="33.353" x2="61.614" y2="33.324"/>
<polyline class="lowerDeck0" points="126.284,27.556 126.308,56.735 131.122,56.732 "/>
<line class="lowerDeck0" x1="163.953" y1="108.144" x2="156.734" y2="108.151"/>
<line class="lowerDeck0" x1="172.377" y1="108.136" x2="187.116" y2="108.124"/>
<line class="lowerDeck0" x1="127.523" y1="69.369" x2="138.952" y2="69.359"/>
<line class="lowerDeck0" x1="127.548" y1="100.053" x2="156.727" y2="100.028"/>
<line class="lowerDeck0" x1="163.306" y1="52.796" x2="163.289" y2="31.135"/>
<path class="lowerDeck0" d="M152.175,52.803"/>
<line class="lowerDeck0" x1="126.284" y1="27.556" x2="129.594" y2="27.554"/>
<line class="lowerDeck0" x1="152.175" y1="52.803" x2="152.169" y2="44.681"/>
<line class="lowerDeck0" x1="197.038" y1="102.4" x2="197.042" y2="107.514"/>
<line class="lowerDeck0" x1="197.038" y1="102.4" x2="224.111" y2="102.378"/>
<line class="lowerDeck0" x1="197.084" y1="72.167" x2="197.038" y2="102.4"/>
<line class="lowerDeck0" x1="222.586" y1="75.609" x2="222.608" y2="102.378"/>
<line class="lowerDeck0" x1="235.519" y1="75.296" x2="235.469" y2="13.629"/>
<line class="lowerDeck0" x1="264.707" y1="84.897" x2="284.561" y2="84.882"/>
<line class="lowerDeck0" x1="264.701" y1="76.777" x2="284.555" y2="76.76"/>
<line class="lowerDeck0" x1="752.052" y1="111.869" x2="751.751" y2="111.869"/>
<line class="lowerDeck0" x1="760.774" y1="111.862" x2="760.774" y2="111.862"/>
<line class="lowerDeck0" x1="760.764" y1="101.634" x2="760.757" y2="91.105"/>
<polyline class="lowerDeck0" points="707.216,95.661 707.213,91.149 715.334,91.144 "/>
<line class="lowerDeck0" x1="632.646" y1="137.838" x2="631.745" y2="137.236"/>
<line class="lowerDeck0" x1="656.412" y1="136.617" x2="658.213" y2="135.109"/>
<line class="lowerDeck0" x1="707.485" y1="60.167" x2="707.456" y2="25.27"/>
<line class="lowerDeck0" x1="707.5" y1="78.214" x2="715.02" y2="78.209"/>
<line class="lowerDeck0" x1="676.486" y1="40.037" x2="666.258" y2="40.046"/>
<line class="lowerDeck0" x1="622.984" y1="91.22" x2="621.481" y2="91.22"/>
<line class="lowerDeck0" x1="608.533" y1="78.297" x2="608.536" y2="78.899"/>
<line class="lowerDeck0" x1="570.03" y1="78.931" x2="593.796" y2="78.911"/>
<polyline class="lowerDeck0" points="515.277,75.665 515.277,75.065 514.075,75.065 480.985,75.093 "/>
<line class="lowerDeck0" x1="494.207" y1="59.741" x2="494.508" y2="59.741"/>
<line class="lowerDeck0" x1="505.037" y1="59.731" x2="515.867" y2="59.721"/>
<line class="lowerDeck0" x1="527.613" y1="76.86" x2="539.344" y2="76.85"/>
<line class="lowerDeck0" x1="527.601" y1="62.12" x2="527.581" y2="39.258"/>
<line class="lowerDeck0" x1="524.252" y1="15.196" x2="511.62" y2="15.206"/>
<line class="lowerDeck0" x1="445.183" y1="68.806" x2="461.726" y2="68.791"/>
<line class="lowerDeck0" x1="434.343" y1="57.082" x2="434.34" y2="53.775"/>
<line class="lowerDeck0" x1="434.308" y1="14.668" x2="475.521" y2="14.633"/>
<line class="lowerDeck0" x1="475.619" y1="132.252" x2="475.624" y2="138.57"/>
<line class="lowerDeck0" x1="327.843" y1="42.431" x2="345.29" y2="42.416"/>
<line class="lowerDeck0" x1="131.12" y1="54.025" x2="131.122" y2="56.732"/>
<line class="lowerDeck0" x1="580.236" y1="53.05" x2="598.285" y2="53.036"/>
<line class="lowerDeck0" x1="52.091" y1="158.172" x2="39.758" y2="157.579"/>
<line class="lowerDeck0" x1="244.888" y1="126.124" x2="235.562" y2="126.134"/>
<line class="lowerDeck0" x1="328.469" y1="71.007" x2="348.925" y2="70.99"/>
<line class="lowerDeck0" x1="434.328" y1="38.433" x2="434.323" y2="33.018"/>
<line class="lowerDeck0" x1="434.313" y1="20.083" x2="434.308" y2="14.668"/>
<line class="lowerDeck0" x1="434.299" y1="4.741" x2="434.299" y2="4.741"/>
<line class="lowerDeck0" x1="511.639" y1="39.873" x2="506.824" y2="39.877"/>
<line class="lowerDeck0" x1="492.687" y1="39.887" x2="475.541" y2="39.902"/>
<line class="lowerDeck0" x1="483.379" y1="59.748" x2="483.372" y2="51.327"/>
<line class="lowerDeck0" x1="551.381" y1="78.946" x2="550.177" y2="78.946"/>
<line class="lowerDeck0" x1="540.852" y1="78.955" x2="539.346" y2="78.955"/>
<path class="lowerDeck0" d="M550.186,91.279"/>
<line class="lowerDeck0" x1="591.108" y1="102.978" x2="591.098" y2="91.247"/>
<line class="lowerDeck0" x1="617.013" y1="144.467" x2="591.145" y2="149.004"/>
<line class="lowerDeck0" x1="625.735" y1="144.46" x2="625.691" y2="91.218"/>
<line class="lowerDeck0" x1="625.681" y1="78.885" x2="625.625" y2="13.306"/>
<line class="lowerDeck0" x1="627.486" y1="78.882" x2="618.161" y2="78.889"/>
<line class="lowerDeck0" x1="631.721" y1="108.359" x2="631.645" y2="13.904"/>
<polyline class="lowerDeck0" points="631.696,78.277 631.696,78.578 638.916,78.571 "/>
<line class="lowerDeck0" x1="578.41" y1="25.98" x2="578.407" y2="25.378"/>
<path class="lowerDeck0" d="M707.5,78.214"/>
<path class="lowerDeck0" d="M707.49,65.281"/>
<line class="lowerDeck0" x1="701.519" y1="118.227" x2="701.519" y2="118.227"/>
<polyline class="lowerDeck0" points="707.239,104.687 701.507,104.692 701.527,126.651 "/>
<path class="lowerDeck0" d="M701.527,126.602c-0.223,0.086-0.438,0.194-0.641,0.323"/>
<polyline class="lowerDeck0" points="700.924,126.952 676.562,129.98 666.935,129.99 "/>
<line class="lowerDeck0" x1="751.751" y1="111.869" x2="741.824" y2="111.877"/>
<polyline class="lowerDeck0" points="733.349,51.721 741.773,51.714 741.777,58.032 "/>
<line class="lowerDeck0" x1="752.005" y1="58.022" x2="760.728" y2="58.015"/>
<line class="lowerDeck0" x1="707.431" y1="43.806" x2="733.346" y2="47.209"/>
<polyline class="lowerDeck0" points="733.334,31.566 733.344,45.706 733.351,53.227 733.356,60.747 733.363,68.267 "/>
<polyline class="lowerDeck0" points="751.714,68.25 752.015,68.25 759.836,68.245 760.737,68.243 760.737,67.342 760.73,59.822 
	760.725,52.301 760.713,39.065 "/>
<line class="lowerDeck0" x1="752.005" y1="58.022" x2="751.704" y2="58.022"/>
<line class="lowerDeck0" x1="760.737" y1="68.243" x2="760.749" y2="77.915"/>
<polyline class="lowerDeck0" points="751.714,68.25 751.704,58.022 741.777,58.032 "/>
<polyline class="lowerDeck0" points="60.214,158.465 60.184,124.173 15.062,124.21 6.339,124.217 "/>
<polyline class="lowerDeck0" points="327.841,39.422 327.821,14.756 434.308,14.668 "/>
<line class="lowerDeck0" x1="484.584" y1="63.66" x2="480.975" y2="63.663"/>
<line class="lowerDeck0" x1="104.736" y1="160.534" x2="103.833" y2="160.537"/>
<line class="lowerDeck0" x1="323.727" y1="157.046" x2="323.601" y2="5.434"/>
<line class="lowerDeck0" x1="200.625" y1="74.723" x2="197.189" y2="74.779"/>
<line class="lowerDeck0" x1="200.632" y1="82.846" x2="197.068" y2="82.821"/>
<line class="lowerDeck0" x1="200.64" y1="92.471" x2="197.053" y2="92.429"/>
<line class="lowerDeck0" x1="197.084" y1="72.167" x2="197.189" y2="69.347"/>
<line class="lowerDeck0" x1="200.62" y1="69.308" x2="197.189" y2="69.347"/>
<line class="lowerDeck0" x1="152.175" y1="52.803" x2="163.306" y2="52.796"/>
<line class="lowerDeck0" x1="481.046" y1="149.395" x2="480.99" y2="79.303"/>
<line class="lowerDeck0" x1="481.046" y1="149.395" x2="481.061" y2="165.036"/>
<line class="lowerDeck0" x1="327.868" y1="71.609" x2="328.469" y2="71.007"/>
<line class="lowerDeck0" x1="349.525" y1="71.592" x2="348.925" y2="70.99"/>
<line class="lowerDeck0" x1="631.75" y1="143.253" x2="631.721" y2="108.359"/>
<line class="lowerDeck0" x1="552.953" y1="161.968" x2="552.945" y2="91.276"/>
<line class="lowerDeck0" x1="570.642" y1="91.264" x2="607.943" y2="91.233"/>
<line class="lowerDeck0" x1="549.932" y1="149.339" x2="549.915" y2="89.871"/>
<path class="lowerDeck0" d="M548.818,160.218"/>
<line class="lowerDeck0" x1="549.915" y1="144.352" x2="549.915" y2="161.968"/>
</svg>
