<?xml version="1.0" encoding="utf-8"?>
<!-- Generator: Adobe Illustrator 25.0.0, SVG Export Plug-In . SVG Version: 6.00 Build 0)  -->
<svg version="1.0" id="Layer_1" xmlns="http://www.w3.org/2000/svg" xmlns:xlink="http://www.w3.org/1999/xlink" x="0px" y="0px"
	 viewBox="0 0 895 190" style="enable-background:new 0 0 895 190;" xml:space="preserve">
<line class="mainDeck" x1="113.301" y1="64.561" x2="113.296" y2="58.201"/>
<line class="mainDeck" x1="26.951" y1="44.176" x2="26.962" y2="58.015"/>
<line class="mainDeck" x1="33.57" y1="44.171" x2="33.581" y2="58.01"/>
<line class="mainDeck" x1="40.188" y1="44.166" x2="40.199" y2="58.002"/>
<line class="mainDeck" x1="46.805" y1="44.161" x2="46.816" y2="57.998"/>
<line class="mainDeck" x1="53.122" y1="44.156" x2="53.133" y2="57.993"/>
<line class="mainDeck1" x1="18.315" y1="149.469" x2="18.012" y2="149.167"/>
<path class="mainDeck1" d="M18.315,150.071"/>
<path class="mainDeck1" d="M18.013,150.372"/>
<path class="mainDeck1" d="M18.315,150.372"/>
<path class="mainDeck1" d="M18.013,150.071"/>
<path class="mainDeck1" d="M18.013,149.469"/>
<path class="mainDeck" d="M18.315,150.372"/>
<path class="mainDeck" d="M18.013,150.071"/>
<line class="mainDeck" x1="328.979" y1="56.862" x2="334.684" y2="44.825"/>
<path class="mainDeck" d="M335.287,45.427"/>
<path class="mainDeck" d="M329.582,56.862"/>
<line class="mainDeck" x1="323.257" y1="47.241" x2="334.684" y2="44.223"/>
<path class="mainDeck" d="M323.257,47.843"/>
<path class="mainDeck" d="M334.684,45.126"/>
<line class="mainDeck" x1="323.251" y1="39.721" x2="334.681" y2="39.711"/>
<path class="mainDeck" d="M323.251,40.624"/>
<path class="mainDeck" d="M334.681,40.614"/>
<line class="mainDeck" x1="353.337" y1="45.711" x2="365.974" y2="48.71"/>
<path class="mainDeck" d="M365.973,47.806"/>
<path class="mainDeck" d="M354.539,45.109"/>
<line class="mainDeck" x1="353.337" y1="45.711" x2="358.76" y2="56.837"/>
<path class="mainDeck" d="M354.238,45.41"/>
<path class="mainDeck" d="M359.663,56.837"/>
<line class="mainDeck" x1="344.011" y1="45.718" x2="344.02" y2="56.85"/>
<line class="mainDeck" x1="350.027" y1="45.713" x2="350.036" y2="56.845"/>
<path class="mainDeck" d="M350.638,56.845"/>
<path class="mainDeck" d="M350.629,45.415"/>
<path class="mainDeck" d="M344.622,56.85"/>
<path class="mainDeck" d="M344.613,45.42"/>
<line class="mainDeck" x1="337.694" y1="45.723" x2="337.703" y2="56.854"/>
<path class="mainDeck" d="M338.305,56.854"/>
<path class="mainDeck" d="M338.295,45.424"/>
<polyline class="mainDeck" points="334.677,35.199 334.684,45.126 334.684,45.427 334.986,45.427 335.288,45.726 353.938,45.711 
	354.239,45.711 354.238,45.41 354.539,45.41 354.539,45.109 354.531,34.881 334.677,35.199 334.677,35.799 "/>
<polyline class="mainDeck" points="333.272,154.022 333.27,150.712 333.569,150.712 333.27,150.712 "/>
<line class="mainDeck" x1="333.569" y1="150.712" x2="368.465" y2="150.984"/>
<line class="mainDeck" x1="368.465" y1="151.285" x2="368.466" y2="153.092"/>
<polyline class="mainDeck" points="368.465,150.984 368.467,154.294 368.465,150.984 "/>
<line class="mainDeck" x1="333.27" y1="151.013" x2="333.271" y2="152.818"/>
<polyline class="mainDeck" points="113.372,149.691 113.355,128.633 113.354,128.335 113.354,128.033 113.655,128.033 113.655,127.732 
	113.655,127.431 113.956,127.429 113.956,127.13 113.955,126.829 114.254,126.528 114.254,126.227 114.556,126.227 114.556,125.926 
	114.857,125.926 115.158,125.625 115.459,125.625 115.458,125.324 115.757,125.324 116.059,125.324 116.36,125.324 116.66,125.324 
	116.961,125.321 142.229,125.302 "/>
<line class="mainDeck" x1="156.974" y1="131.304" x2="156.972" y2="127.696"/>
<line class="mainDeck" x1="156.992" y1="153.567" x2="156.989" y2="148.151"/>
<line class="mainDeck" x1="310.028" y1="56.879" x2="310.011" y2="35.52"/>
<line class="mainDeck" x1="296.19" y1="56.889" x2="296.173" y2="35.532"/>
<polyline class="mainDeck" points="262.783,36.161 262.8,56.918 323.264,56.867 398.769,56.805 "/>
<path class="mainDeck" d="M309.71,35.52"/>
<path class="mainDeck" d="M309.727,57.177"/>
<line class="mainDeck" x1="281.132" y1="35.845" x2="281.15" y2="56.903"/>
<line class="mainDeck" x1="262.864" y1="133.625" x2="262.881" y2="154.805"/>
<polyline class="mainDeck" points="312.801,136.592 312.799,133.583 312.817,155.542 310.712,155.545 296.573,155.256 296.555,133.595 
	"/>
<line class="mainDeck" x1="262.563" y1="133.625" x2="312.799" y2="133.583"/>
<path class="mainDeck1" d="M253.255,154.69"/>
<path class="mainDeck1" d="M253.856,154.088"/>
<path class="mainDeck1" d="M254.459,154.69"/>
<polyline class="mainDeck" points="252.051,154.69 258.068,154.685 281.232,155.268 281.213,133.61 "/>
<path class="mainDeck" d="M320.89,155.456c0.941-0.215,1.731-0.847,2.147-1.721"/>
<line class="mainDeck" x1="321.24" y1="155.537" x2="313.118" y2="155.542"/>
<polyline class="mainDeck" points="400.368,171.714 399.764,170.813 398.864,170.813 398.807,103.13 "/>
<polyline class="mainDeck" points="321.442,35.51 323.247,35.51 323.268,61.679 323.274,68.598 "/>
<polyline class="mainDeck" points="365.98,56.61 365.963,35.473 380.703,35.461 386.718,35.456 "/>
<path class="mainDeck" d="M127.121,44.095"/>
<polyline class="mainDeck" points="333.572,154.022 323.345,154.029 323.321,124.249 "/>
<polyline class="mainDeck" points="398.908,59.86 398.753,37.853 398.752,35.747 "/>
<polyline class="mainDeck" points="762.144,44.472 767.258,45.669 772.675,47.17 777.488,48.671 780.798,49.569 785.31,50.769 
	788.62,51.67 792.233,52.869 794.338,53.469 797.648,54.37 802.162,55.87 805.47,57.07 809.986,58.269 813.293,59.469 815.7,60.37 
	819.915,61.87 822.322,62.47 824.427,63.371 826.836,64.272 828.941,64.872 831.047,65.772 832.552,66.372 835.561,67.574 
	837.066,68.174 839.172,69.075 840.075,69.675 841.279,69.976 842.785,70.575 843.987,71.178 844.288,71.175 845.791,72.076 
	847.899,72.678 850.606,73.878 853.615,75.08 856.024,76.279 858.129,77.18 859.635,78.081 860.839,78.683 862.044,78.982 
	862.947,79.584 863.246,79.885 864.149,80.184 864.751,80.485 865.353,80.784 865.953,81.085 866.555,81.386 867.16,81.685 
	867.461,82.287 868.061,82.287 868.362,82.588 868.663,82.887 868.964,82.887 869.265,83.188 869.566,83.188 870.169,83.489 
	870.47,83.79 870.768,83.788 871.07,84.089 871.371,84.39 871.672,84.39 871.674,84.691 871.975,84.691 872.276,84.99 
	872.578,84.99 872.578,85.291 872.879,85.291 873.177,85.291 873.478,85.592 873.478,85.893 873.78,85.89 874.081,86.192 
	874.382,86.493 874.683,86.493 874.683,86.794 874.984,86.794 875.285,87.092 875.584,87.394 875.887,87.695 876.188,87.695 
	876.188,87.996 876.49,87.996 876.791,88.294 877.092,88.596 877.393,88.897 877.694,89.198 877.995,89.499 878.294,89.496 
	878.294,89.798 878.595,89.798 878.595,90.099 878.896,90.099 878.896,90.4 879.2,90.701 879.2,91.002 879.501,91.002 
	879.501,91.303 879.802,91.301 879.802,91.602 880.103,91.602 880.103,91.903 880.103,92.204 880.404,92.204 880.703,92.505 
	880.703,92.806 880.703,93.105 881.004,93.105 881.004,93.406 881.006,93.707 881.307,93.707 881.307,94.008 881.307,94.307 
	881.307,94.608 881.307,94.909 881.608,94.909 881.608,95.21 881.608,95.511 881.608,95.812 881.608,96.113 881.611,96.415 
	881.611,96.713 881.611,97.014 881.31,97.014 881.31,97.315 881.31,97.617 881.31,97.918 881.008,98.219 881.008,98.52 
	881.008,98.821 880.707,98.821 880.707,99.122 880.71,99.423 880.411,99.423 880.411,99.724 880.11,99.724 880.11,100.026 
	879.809,100.026 879.809,100.327 879.508,100.628 879.508,100.929 879.207,100.929 879.207,101.23 878.906,101.531 878.605,101.83 
	878.303,102.131 878.005,102.133 878.007,102.434 877.706,102.434 877.706,102.735 877.405,102.735 877.405,103.034 
	877.104,103.335 876.803,103.636 876.502,103.639 876.502,103.94 876.201,103.94 875.9,104.239 875.598,104.54 875.3,104.54 
	875.3,104.841 874.999,104.843 874.698,105.144 874.7,105.443 874.399,105.443 874.098,105.744 873.797,105.744 873.496,106.048 
	873.195,106.349 872.896,106.349 872.595,106.647 872.294,106.949 871.993,106.951 871.691,107.252 871.691,107.553 871.39,107.553 
	871.089,107.854 870.788,107.854 870.49,108.156 870.188,108.156 869.589,108.457 869.287,108.758 868.986,108.758 868.685,109.059 
	868.384,109.059 868.083,109.661 867.483,109.661 867.182,109.962 866.58,110.263 865.978,110.564 865.378,110.865 864.776,111.169 
	864.176,111.769 863.272,112.072 862.974,112.373 862.071,112.675 860.866,112.976 859.664,113.879 858.161,114.481 
	856.056,115.387 853.649,116.591 850.643,117.798 847.938,119.003 845.83,119.906 844.33,120.508 844.029,120.812 842.827,121.414 
	841.321,122.016 840.119,122.317 839.216,122.922 837.113,123.524 835.607,124.428 832.601,125.333 831.096,125.935 
	828.993,126.839 826.887,127.745 824.481,128.648 822.378,129.25 819.972,130.156 815.758,131.664 813.355,132.266 810.047,133.473 
	805.535,134.981 802.228,136.188 797.717,137.395 794.409,138.599 792.304,139.204 788.693,140.11 785.386,141.314 780.874,142.521 
	777.567,143.427 772.756,144.634 767.341,146.142 761.025,147.953 760.986,100.124 "/>
<polyline class="mainDeck" points="704.784,159.43 704.784,159.131 705.085,159.128 705.085,158.827 705.384,158.827 705.381,158.526 
	705.381,158.225 705.682,158.225 705.682,157.927 705.682,157.625 705.682,157.324 705.984,157.324 705.984,157.023 
	705.984,156.421 708.992,156.118 713.502,155.513 718.013,154.908 722.826,154.301 727.34,153.696 731.852,152.79 736.361,152.183 
	740.572,151.579 745.086,150.673 749.595,149.767 754.408,148.861 758.619,148.254 761.025,147.652 "/>
<polyline class="mainDeck" points="403.378,173.217 432.856,173.193 467.148,173.464 485.499,173.148 504.15,172.833 522.498,172.216 
	540.849,171.9 559.5,170.982 577.846,170.064 604.018,168.84 613.644,168.23 631.992,167.011 650.34,165.491 659.667,164.882 
	668.688,163.672 677.711,163.063 687.038,162.152 696.059,161.241 700.571,160.637 702.676,160.335 702.977,160.335 
	703.278,160.335 703.579,160.333 703.579,160.032 703.881,160.032 704.182,160.032 704.182,159.731 704.739,159.435 "/>
<polyline class="mainDeck" points="762.144,44.472 758.533,43.872 754.32,42.974 749.507,42.377 744.995,41.478 740.481,40.577 
	736.268,39.679 731.757,39.082 727.245,38.484 722.731,37.884 717.918,37.29 713.404,36.69 708.892,36.093 705.883,35.493 
	705.883,35.194 705.883,34.893 705.883,34.592 705.582,34.592 705.582,34.291 705.58,33.99 705.279,33.99 705.279,33.689 
	705.279,33.387 704.98,33.387 704.98,33.086 704.98,32.788 704.679,32.788 704.679,32.487 704.378,32.487 704.077,32.185 
	703.776,32.185 703.776,31.884 703.474,31.884 703.173,31.887 702.872,31.887 702.571,31.887 700.466,31.586 695.952,30.991 
	686.928,30.095 677.601,29.199 668.575,28.305 659.552,27.71 650.225,26.814 631.874,25.328 613.523,24.139 603.898,23.546 
	577.723,22.063 559.375,21.478 540.724,20.589 522.373,20.004 504.025,19.718 485.371,19.431 467.021,19.446 448.675,19.162 "/>
<path class="mainDeck" d="M400.318,171.242c0.711,0.867,1.729,1.968,2.848,1.973"/>
<polyline class="mainDeck" points="326.9,87.247 339.834,87.235 339.846,103.179 326.912,103.191 326.907,96.872 326.9,87.247 "/>
<path class="mainDeck" d="M379.009,170.83"/>
<path class="mainDeck" d="M386.829,170.823"/>
<path class="mainDeck" d="M121.719,58.238"/>
<path class="mainDeck" d="M121.706,44.097"/>
<path class="mainDeck" d="M128.337,58.233"/>
<path class="mainDeck" d="M128.325,44.093"/>
<path class="mainDeck" d="M134.955,58.225"/>
<path class="mainDeck" d="M134.943,44.088"/>
<path class="mainDeck" d="M141.272,58.22"/>
<path class="mainDeck" d="M115.101,58.242"/>
<path class="mainDeck" d="M115.089,44.105"/>
<path class="mainDeck" d="M144.569,44.08"/>
<path class="mainDeck" d="M158.406,44.068"/>
<path class="mainDeck" d="M126.82,44.095"/>
<path class="mainDeck" d="M113.285,44.1"/>
<path class="mainDeck" d="M144.43,58.218"/>
<line class="mainDeck" x1="121.105" y1="44.1" x2="121.117" y2="58.238"/>
<line class="mainDeck" x1="127.724" y1="44.093" x2="127.736" y2="58.233"/>
<line class="mainDeck" x1="134.04" y1="44.088" x2="134.052" y2="58.228"/>
<line class="mainDeck" x1="140.658" y1="44.083" x2="140.67" y2="58.22"/>
<line class="mainDeck" x1="114.487" y1="44.105" x2="114.499" y2="58.242"/>
<polyline class="mainDeck" points="159.01,44.969 159.027,65.124 167.75,65.116 167.733,45.263 171.644,45.26 "/>
<path class="mainDeck" d="M159.01,44.969c0-0.25-0.504-0.901-0.754-0.901"/>
<line class="mainDeck" x1="144.28" y1="58.218" x2="150.285" y2="44.076"/>
<path class="mainDeck" d="M150.886,44.073"/>
<path class="mainDeck" d="M144.882,58.218"/>
<line class="mainDeck" x1="144.581" y1="58.218" x2="159.016" y2="51.589"/>
<path class="mainDeck" d="M159.016,52.489"/>
<line class="mainDeck" x1="145.07" y1="61.138" x2="159.023" y2="61.214"/>
<path class="mainDeck" d="M159.024,62.115"/>
<path class="mainDeck" d="M145.488,62.127"/>
<polyline class="mainDeck" points="325.464,169.971 325.765,169.971 325.464,169.971 "/>
<path class="mainDeck1" d="M455.118,173.775"/>
<path class="mainDeck1" d="M454.516,173.175"/>
<path class="mainDeck1" d="M455.116,172.571"/>
<polyline class="mainDeck" points="60.954,57.985 18.84,58.022 35.987,58.007 "/>
<polyline class="mainDeck" points="20.333,44.183 44.7,44.161 60.943,44.149 "/>
<line class="mainDeck" x1="368.467" y1="154.294" x2="398.85" y2="154.57"/>
<path class="mainDeck" d="M398.451,35.595c0-0.12-0.049-0.232-0.132-0.318c-0.086-0.083-0.201-0.13-0.321-0.13"/>
<polyline class="mainDeck" points="394.84,35.15 395.442,35.147 398.15,35.147 "/>
<path class="mainDeck" d="M114.499,58.242"/>
<path class="mainDeck" d="M139.768,58.223"/>
<path class="mainDeck" d="M113.296,58.201"/>
<line class="mainDeck" x1="295.872" y1="35.532" x2="292.262" y2="35.534"/>
<polyline class="mainDeck" points="312.116,35.52 310.312,35.52 305.499,35.525 "/>
<polyline class="mainDeck" points="284.141,35.843 280.831,35.845 266.694,36.156 201.418,37.414 136.142,39.272 116.59,39.892 
	116.29,39.892 115.989,39.892 115.688,39.892 115.688,40.193 115.388,40.193 115.087,40.193 115.087,40.494 114.786,40.494 
	114.786,40.795 114.485,40.795 114.485,41.096 114.183,41.096 114.185,41.397 113.885,41.397 113.885,41.698 113.885,42 113.584,42 
	113.584,42.301 113.584,42.602 113.283,42.602 113.284,42.903 113.284,43.204 113.285,44.1 "/>
<path class="mainDeck" d="M113.296,58.201"/>
<polyline class="mainDeck" points="144.89,67.844 116.914,67.866 116.613,67.868 116.313,67.868 116.312,67.567 116.011,67.567 
	115.71,67.567 115.41,67.567 115.41,67.266 115.109,67.266 114.808,67.266 114.808,66.967 114.507,66.967 114.507,66.666 
	114.206,66.666 114.206,66.365 113.906,66.365 113.904,66.064 113.904,65.763 113.603,65.765 113.603,65.464 113.603,65.163 
	113.302,65.163 113.302,64.862 113.301,64.561 "/>
<polyline class="mainDeck" points="113.371,148.489 113.372,149.691 113.372,149.992 113.372,150.293 113.372,150.595 113.673,150.595 
	113.674,150.896 113.975,150.893 113.975,151.194 113.975,151.495 114.275,151.495 114.275,151.797 114.275,152.098 
	114.577,152.098 114.578,152.396 114.879,152.396 114.879,152.698 115.18,152.698 115.481,152.698 115.481,152.999 115.781,152.999 
	116.082,152.999 116.383,152.999 116.683,152.999 130.522,153.589 163.912,153.562 174.441,154.154 "/>
<path class="mainDeck" d="M84.993,26.08"/>
<path class="mainDeck" d="M63.936,27"/>
<path class="mainDeck" d="M16.433,58.323"/>
<polyline class="mainDeck" points="109.057,25.157 67.246,26.697 47.993,27.615 46.189,27.615 45.286,27.617 44.686,27.918 
	43.783,27.918 42.881,28.22 42.28,28.222 41.677,28.222 41.376,28.222 40.775,28.222 40.474,28.222 39.873,28.222 39.271,28.523 
	38.97,28.523 38.67,28.523 38.068,28.526 37.467,28.526 36.865,28.526 36.563,28.827 36.264,28.827 35.962,28.827 35.661,28.827 
	35.36,28.827 35.06,28.829 34.759,29.13 34.458,29.13 34.157,29.13 33.556,29.13 33.255,29.13 32.955,29.432 32.655,29.432 
	32.354,29.434 32.053,29.434 32.053,29.733 31.752,29.733 31.451,29.733 31.151,29.733 30.85,29.735 30.549,30.036 30.248,30.036 
	30.248,30.337 29.948,30.337 29.647,30.337 29.346,30.337 29.044,30.638 28.744,30.638 28.443,30.638 28.445,30.939 28.144,30.939 
	27.842,30.939 27.542,31.24 27.241,31.24 26.94,31.24 26.94,31.542 26.639,31.542 26.338,31.544 26.338,31.845 26.038,31.845 
	25.737,31.845 25.737,32.144 25.437,32.445 25.137,32.445 24.836,32.447 24.836,32.748 24.535,32.748 24.535,33.05 24.234,33.05 
	24.234,33.351 23.933,33.351 23.633,33.649 23.332,33.652 23.333,33.953 23.032,33.953 23.032,34.254 22.731,34.254 22.731,34.555 
	22.431,34.555 22.431,34.854 22.13,34.854 22.13,35.155 21.829,35.157 21.83,35.459 21.529,35.76 21.529,36.058 21.229,36.058 
	21.229,36.359 20.928,36.661 20.627,36.661 20.628,36.962 20.628,37.263 20.327,37.263 20.327,37.564 20.327,37.865 20.027,37.865 
	20.027,38.166 20.028,38.467 19.727,38.768 19.727,39.069 19.727,39.37 19.426,39.37 19.426,39.669 19.427,39.97 19.126,39.97 
	19.126,40.271 19.126,40.572 19.126,40.874 18.825,40.876 18.825,41.175 18.826,41.476 18.526,41.476 18.526,41.777 18.526,42.078 
	18.526,42.379 18.225,42.379 18.226,42.68 18.226,42.981 18.226,43.283 18.226,43.581 17.925,43.882 17.927,44.183 17.927,44.484 
	17.927,44.786 17.927,45.087 17.627,45.388 17.628,45.689 17.628,45.988 17.628,46.289 17.628,46.59 17.629,47.192 17.328,47.493 
	17.328,47.794 17.328,48.396 17.329,48.697 17.329,49.3 17.329,49.899 17.029,50.201 17.029,51.405 17.031,52.306 16.431,55.616 "/>
<polyline class="mainDeck" points="15.84,67.349 15.84,67.048 15.838,66.145 "/>
<path class="mainDeck" d="M15.54,68.551"/>
<polyline class="mainDeck" points="13.439,73.969 13.439,74.27 13.439,74.571 13.439,74.869 13.439,75.171 13.138,75.173 13.139,75.474 
	13.139,75.775 13.139,75.474 13.138,75.173 13.439,75.171 13.439,74.869 13.439,74.571 13.439,74.27 13.439,73.969 13.438,73.667 
	15.24,69.454 15.239,69.153 15.54,69.153 "/>
<polyline class="mainDeck" points="15.54,69.153 15.239,69.153 15.24,69.454 "/>
<polyline class="mainDeck" points="15.838,66.145 15.84,67.048 15.84,67.349 "/>
<polyline class="mainDeck" points="109.057,25.157 310,22.885 310.301,22.885 314.513,22.883 384.301,21.921 "/>
<line class="mainDeck" x1="400.244" y1="21.909" x2="384.301" y2="21.921"/>
<line class="mainDeck" x1="16.193" y1="130.819" x2="15.89" y2="127.813"/>
<polyline class="mainDeck" points="15.89,127.512 16.193,130.518 16.497,134.731 16.498,136.234 "/>
<polyline class="mainDeck" points="17.104,140.746 16.499,137.737 16.498,136.234 16.499,137.737 17.104,141.047 17.105,141.951 
	17.105,142.852 17.407,143.454 17.407,144.056 17.407,144.357 17.409,144.957 17.409,145.258 17.409,145.86 17.71,146.161 
	17.711,146.761 17.711,147.062 17.711,147.363 17.711,147.664 18.012,147.965 18.012,148.266 18.012,148.568 18.012,148.866 
	18.012,149.167 18.315,149.469 18.315,149.77 18.315,150.071 18.315,150.372 18.315,150.673 18.617,150.974 18.617,151.273 
	18.617,151.574 19.219,152.475 19.219,152.776 19.219,153.077 19.52,153.378 19.52,153.679 19.521,153.98 19.823,153.98 
	19.823,154.281 19.823,154.583 20.124,154.884 20.124,155.182 20.425,155.483 20.425,155.785 20.726,155.785 20.726,156.086 
	20.726,156.384 21.027,156.685 21.328,156.685 21.329,156.987 21.329,157.288 21.629,157.288 21.629,157.589 21.93,157.589 
	21.93,157.89 22.232,157.887 22.232,158.188 22.533,158.188 22.534,158.49 22.534,158.791 22.834,158.791 22.834,159.092 
	23.135,159.092 23.436,159.092 23.436,159.393 23.737,159.39 23.738,159.692 24.038,159.692 24.038,159.993 24.339,159.993 
	24.339,160.294 24.64,160.294 24.941,160.294 24.941,160.595 24.941,160.896 25.242,160.893 25.543,160.893 25.544,161.195 
	25.845,161.195 26.146,161.195 26.146,161.496 26.446,161.496 26.747,161.794 27.048,161.794 27.349,161.794 27.65,162.095 
	27.95,162.095 28.251,162.397 28.552,162.397 28.853,162.397 29.155,162.695 29.456,162.996 29.757,162.996 30.058,162.996 
	30.358,162.996 30.358,163.297 30.659,163.297 30.96,163.295 31.261,163.295 31.561,163.596 31.862,163.596 32.163,163.596 
	32.464,163.596 32.765,163.596 33.065,163.895 33.366,163.895 33.668,163.895 34.268,163.895 34.27,164.196 34.571,164.196 
	34.872,164.196 35.173,164.196 35.473,164.194 35.774,164.194 36.075,164.194 36.376,164.495 36.676,164.495 36.977,164.495 
	37.579,164.495 38.181,164.495 38.783,164.793 39.082,164.793 39.384,164.793 39.986,165.092 40.587,165.092 40.888,165.092 
	41.489,165.092 41.79,165.092 42.392,165.092 42.993,165.391 43.895,165.391 44.799,165.391 45.4,165.391 46.303,165.388 
	48.108,165.689 55.028,165.682 56.531,165.983 57.434,165.983 64.051,166.277 85.111,167.163 "/>
<polyline class="mainDeck" points="109.175,167.743 109.476,167.743 109.777,167.743 171.747,169.797 181.072,170.091 187.088,170.086 
	251.766,171.535 309.822,172.091 310.422,169.685 326.968,169.971 332.683,169.966 335.692,170.265 338.098,170.262 340.806,170.26 
	343.813,170.257 369.984,170.536 398.864,170.813 "/>
<polyline class="mainDeck" points="15.838,66.145 15.838,65.545 16.137,62.233 16.133,58.925 16.431,55.616 17.031,52.306 "/>
<line class="mainDeck" x1="13.139" y1="75.775" x2="12.855" y2="96.53"/>
<polyline class="mainDeck" points="15.606,124.122 13.798,119.911 13.798,119.61 13.798,119.309 13.798,119.008 13.797,118.706 
	13.496,118.405 13.496,118.104 13.496,117.806 12.859,96.285 "/>
<path class="mainDeck" d="M15.907,124.42"/>
<polyline class="mainDeck" points="15.585,123.603 15.889,125.708 15.889,126.009 15.89,127.512 15.89,127.211 15.889,126.308 
	15.889,126.009 15.889,125.708 "/>
<path class="mainDeck" d="M14.956,88.706"/>
<polyline class="mainDeck" points="15.609,69.13 15.522,69.13 15.84,67.349 15.84,67.048 15.838,66.145 15.84,67.048 15.84,67.349 "/>
<path class="mainDeck" d="M14.956,88.706"/>
<polyline class="mainDeck" points="15.889,125.708 15.889,126.009 15.889,126.308 15.89,127.211 15.89,127.512 15.889,126.009 
	15.889,125.708 15.585,123.603 "/>
<path class="mainDeck" d="M15.585,123.901"/>
<path class="mainDeck" d="M12.864,107.059"/>
<path class="mainDeck" d="M12.859,100.743"/>
<path class="mainDeck" d="M12.857,98.635"/>
<path class="mainDeck" d="M12.855,96.53"/>
<polyline class="mainDeck" points="703.278,160.335 702.977,160.335 702.676,160.335 700.571,160.637 "/>
<polyline class="mainDeck" points="704.182,159.731 704.182,160.032 703.881,160.032 703.579,160.032 "/>
<path class="mainDeck" d="M704.739,159.478"/>
<path class="mainDeck1" d="M252.052,156.193"/>
<path class="mainDeck1" d="M251.451,155.594"/>
<path class="mainDeck1" d="M252.051,154.991"/>
<path class="mainDeck1" d="M252.654,155.594"/>
<line class="mainDeck" x1="727.301" y1="106.767" x2="727.279" y2="81.501"/>
<path class="mainDeck" d="M767.887,81.467"/>
<line class="mainDeck" x1="752.846" y1="81.479" x2="767.887" y2="81.467"/>
<polyline class="mainDeck" points="727.284,85.11 712.243,85.124 698.103,85.134 "/>
<polyline class="mainDeck" points="323.274,68.598 327.184,68.595 327.176,59.87 327.779,59.87 331.99,59.868 336.502,59.863 
	340.112,59.86 "/>
<polyline class="mainDeck" points="317.265,78.83 317.294,112.824 326.017,112.816 327.823,112.814 327.814,103.188 "/>
<path class="mainDeck" d="M327.794,78.823"/>
<path class="mainDeck" d="M322.681,78.828"/>
<line class="mainDeck" x1="257.088" y1="60.531" x2="257.074" y2="45.189"/>
<polyline class="mainDeck" points="250.457,45.194 257.074,45.189 250.457,45.194 "/>
<polyline class="mainDeck" points="315.502,128.467 316.705,128.467 315.502,128.467 "/>
<polyline class="mainDeck" points="142.232,127.708 167.802,127.686 167.818,146.639 "/>
<polyline class="mainDeck" points="174.736,146.631 256.859,146.565 256.844,128.516 "/>
<polyline class="mainDeck" points="256.844,128.516 315.502,128.467 256.844,128.516 "/>
<polyline class="mainDeck" points="173.147,45.258 173.448,45.258 173.446,42.249 174.348,42.249 "/>
<polyline class="mainDeck" points="171.644,45.26 173.147,45.258 171.644,45.26 "/>
<polyline class="mainDeck" points="174.348,42.249 174.367,38.185 174.348,42.249 "/>
<polyline class="mainDeck" points="250.457,45.194 250.45,36.472 250.457,45.194 "/>
<line class="mainDeck" x1="173.533" y1="146.634" x2="173.539" y2="153.853"/>
<polyline class="mainDeck" points="167.818,146.639 174.736,146.631 167.818,146.639 "/>
<polyline class="mainDeck" points="251.15,155.594 251.143,146.57 251.15,155.594 "/>
<polyline class="mainDeck" points="433.066,60.387 433.071,70.012 433.071,69.41 433.066,60.685 "/>
<polyline class="mainDeck" points="443.911,81.736 443.911,78.426 443.896,63.085 443.884,48.044 428.844,48.056 427.94,48.056 
	424.63,48.061 424.625,39.637 424.623,38.132 "/>
<path class="mainDeck" d="M431.84,71.163c0.661-0.176,1.148-0.739,1.222-1.42"/>
<polyline class="mainDeck" points="423.749,71.222 431.869,71.217 431.571,71.217 "/>
<path class="mainDeck" d="M423.671,58.891c-0.387-0.022-0.766,0.122-1.041,0.397c-0.274,0.274-0.416,0.654-0.394,1.041"/>
<polyline class="mainDeck" points="431.859,58.884 423.739,58.889 424.04,58.889 "/>
<line class="mainDeck" x1="140.141" y1="125.204" x2="140.112" y2="110.564"/>
<line class="mainDeck" x1="140.089" y1="82.287" x2="140.078" y2="67.849"/>
<line class="mainDeck" x1="433.071" y1="66.703" x2="443.901" y2="66.695"/>
<line class="mainDeck" x1="432.442" y1="70.84" x2="436.694" y2="81.741"/>
<line class="mainDeck" x1="428.572" y1="81.749" x2="428.562" y2="71.219"/>
<line class="mainDeck" x1="427.338" y1="48.058" x2="427.348" y2="58.886"/>
<line class="mainDeck" x1="433.066" y1="63.694" x2="443.896" y2="63.687"/>
<line class="mainDeck" x1="430.356" y1="58.884" x2="430.347" y2="48.056"/>
<line class="mainDeck" x1="433.064" y1="60.086" x2="443.892" y2="55.564"/>
<line class="mainDeck" x1="432.462" y1="58.881" x2="436.964" y2="48.049"/>
<line class="mainDeck" x1="433.071" y1="69.711" x2="443.901" y2="69.702"/>
<line class="mainDeck" x1="443.911" y1="79.93" x2="433.071" y2="69.41"/>
<path class="mainDeck" d="M433.03,60.206c0.096-0.362-0.01-0.749-0.274-1.016c-0.264-0.264-0.651-0.367-1.016-0.272"/>
<line class="mainDeck" x1="422.236" y1="60.328" x2="422.241" y2="69.885"/>
<path class="mainDeck" d="M422.241,69.885c0.01,0.737,0.605,1.329,1.341,1.337"/>
<polyline class="mainDeck" points="338.944,103.181 338.949,109.196 349.778,109.186 349.76,86.324 395.183,86.287 395.187,91.1 
	404.812,91.093 404.804,79.961 400.292,79.966 400.283,70.341 395.471,70.343 395.479,79.969 338.926,80.018 "/>
<path class="mainDeck" d="M327.786,68.896"/>
<path class="mainDeck1" d="M327.786,68.896"/>
<path class="mainDeck" d="M327.786,68.896"/>
<polyline class="mainDeck" points="326.93,124.246 326.933,128.457 350.095,128.438 350.101,135.659 "/>
<line class="mainDeck" x1="350.114" y1="150.999" x2="350.108" y2="143.779"/>
<line class="mainDeck" x1="461.667" y1="87.736" x2="461.659" y2="81.721"/>
<polyline class="mainDeck" points="461.667,87.736 477.307,87.724 494.453,87.408 "/>
<line class="mainDeck" x1="549.801" y1="86.762" x2="550.704" y2="86.762"/>
<line class="mainDeck" x1="449.317" y1="70.299" x2="449.326" y2="81.731"/>
<path class="mainDeck" d="M449.326,81.731"/>
<polyline class="mainDeck" points="470.374,70.282 470.389,87.729 470.374,70.884 "/>
<path class="mainDeck" d="M470.389,87.729"/>
<path class="mainDeck" d="M470.374,70.282"/>
<path class="mainDeck" d="M520.606,66.331"/>
<line class="mainDeck" x1="520.87" y1="20.004" x2="520.885" y2="38.655"/>
<polyline class="mainDeck" points="520.591,46.776 520.606,65.126 520.613,73.249 "/>
<polyline class="mainDeck" points="682.159,82.742 674.639,82.747 674.649,95.984 674.661,108.618 674.671,120.65 674.661,108.919 
	682.181,108.912 "/>
<polyline class="mainDeck" points="674.622,62.894 674.595,28.903 674.622,62.894 "/>
<polyline class="mainDeck" points="674.639,82.747 674.629,71.016 674.632,73.122 "/>
<polyline class="mainDeck" points="627.362,25.933 627.377,43.38 627.362,25.933 "/>
<polyline class="mainDeck" points="627.36,25.03 627.362,25.933 627.36,25.03 "/>
<polyline class="mainDeck" points="627.377,44.883 627.377,43.38 627.377,44.883 627.382,49.696 627.377,44.883 "/>
<polyline class="mainDeck" points="627.382,51.202 627.382,49.696 627.382,51.202 627.387,56.015 627.382,51.202 "/>
<polyline class="mainDeck" points="627.387,57.217 627.387,56.015 627.387,57.217 627.392,62.331 627.387,57.217 "/>
<polyline class="mainDeck" points="627.392,63.535 627.392,62.331 627.392,63.535 627.397,68.649 627.392,63.535 "/>
<polyline class="mainDeck" points="627.399,69.851 627.397,68.649 627.399,69.851 627.402,74.965 627.399,69.851 "/>
<polyline class="mainDeck" points="627.411,86.698 627.402,74.965 627.411,86.698 "/>
<polyline class="mainDeck" points="698.057,31.29 698.074,50.24 698.057,31.29 "/>
<path class="mainDeck" d="M698.074,51.143"/>
<polyline class="mainDeck" points="698.074,51.143 698.074,50.24 698.074,51.143 "/>
<path class="mainDeck" d="M698.098,81.225"/>
<polyline class="mainDeck" points="698.101,83.374 698.101,82.728 698.108,92.655 698.101,82.728 "/>
<path class="mainDeck" d="M698.113,98.069"/>
<path class="mainDeck" d="M698.113,98.069"/>
<path class="mainDeck" d="M698.135,125.745"/>
<path class="mainDeck" d="M698.13,120.028"/>
<path class="mainDeck" d="M698.13,120.028"/>
<path class="mainDeck" d="M698.137,126.347"/>
<path class="mainDeck" d="M698.137,126.347"/>
<path class="mainDeck" d="M698.137,126.347"/>
<polyline class="mainDeck" points="698.123,108.9 698.165,160.94 698.157,151.616 "/>
<polyline class="mainDeck" points="674.705,163.366 674.678,129.074 674.685,140.504 682.206,140.499 "/>
<line class="mainDeck" x1="698.101" y1="82.728" x2="697.8" y2="82.728"/>
<polyline class="mainDeck" points="690.252,51.148 697.773,51.143 698.074,51.143 "/>
<polyline class="mainDeck" points="698.108,92.353 689.988,92.361 689.99,95.068 689.99,95.369 674.649,95.382 627.419,95.421 "/>
<line class="mainDeck" x1="627.37" y1="35.559" x2="674.6" y2="35.52"/>
<polyline class="mainDeck" points="698.064,38.81 698.064,38.509 674.602,38.528 "/>
<line class="mainDeck" x1="628.072" y1="156.183" x2="674.7" y2="156.147"/>
<line class="mainDeck" x1="698.16" y1="153.721" x2="674.698" y2="153.74"/>
<line class="mainDeck" x1="698.148" y1="140.484" x2="690.326" y2="140.492"/>
<polyline class="mainDeck" points="575.366,81.325 575.371,86.74 554.014,86.757 575.371,86.74 575.366,81.325 "/>
<path class="mainDeck1" d="M575.371,86.74"/>
<path class="mainDeck1" d="M575.371,85.538"/>
<path class="mainDeck" d="M575.371,86.74"/>
<path class="mainDeck" d="M575.371,85.538"/>
<polyline class="mainDeck" points="575.371,85.237 575.371,85.837 575.371,85.237 "/>
<polyline class="mainDeck" points="476.649,19.438 476.654,25.155 476.649,19.438 "/>
<polyline class="mainDeck" points="476.656,26.359 476.654,25.155 476.656,26.359 476.661,31.473 476.656,26.359 "/>
<polyline class="mainDeck" points="476.661,32.675 476.661,31.473 476.661,32.675 476.666,37.488 476.661,32.675 "/>
<polyline class="mainDeck" points="476.666,38.993 476.666,37.488 476.666,38.993 476.671,43.806 476.666,38.993 "/>
<polyline class="mainDeck" points="476.671,45.309 476.671,43.806 476.671,45.309 476.676,50.122 476.671,45.309 "/>
<polyline class="mainDeck" points="476.676,51.628 476.676,50.122 476.676,51.628 476.681,56.441 476.676,51.628 "/>
<polyline class="mainDeck" points="476.681,57.944 476.681,56.441 476.681,57.944 476.685,62.757 476.681,57.944 "/>
<polyline class="mainDeck" points="476.685,63.961 476.685,62.757 476.685,63.961 476.69,69.075 476.685,63.961 "/>
<polyline class="mainDeck" points="476.693,70.277 476.69,69.075 476.693,70.277 476.695,75.391 476.693,70.277 "/>
<polyline class="mainDeck" points="476.695,75.391 476.698,76.595 476.707,87.724 "/>
<polyline class="mainDeck" points="476.72,103.066 494.468,103.051 453.855,103.086 476.72,103.066 476.776,173.156 "/>
<polyline class="mainDeck" points="553.358,21.781 553.358,21.181 553.358,21.781 "/>
<polyline class="mainDeck" points="553.395,64.497 553.395,65.099 553.395,64.497 "/>
<polyline class="mainDeck" points="575.354,65.082 573.55,65.082 553.395,65.099 553.412,86.76 "/>
<polyline class="mainDeck" points="850.043,117.798 845.816,101.257 850.043,117.798 "/>
<polyline class="mainDeck" points="839.191,91.937 839.492,91.937 839.191,91.937 839.492,91.937 839.492,91.636 839.492,91.335 
	839.793,91.335 839.793,91.034 840.095,91.034 840.396,91.034 840.396,90.733 840.694,90.733 840.995,90.733 841.296,90.73 
	846.109,90.728 849.409,78.994 850.606,74.179 850.907,73.878 "/>
<polyline class="mainDeck" points="839.196,99.156 839.196,98.554 839.196,96.449 839.194,95.847 839.194,95.247 839.191,93.139 
	839.191,92.841 839.209,91.964 "/>
<path class="mainDeck" d="M839.191,92.841"/>
<polyline class="mainDeck" points="369.028,104.958 393.696,104.939 393.728,144.046 368.459,144.066 "/>
<line class="mainDeck" x1="382.296" y1="144.054" x2="382.287" y2="132.624"/>
<line class="mainDeck" x1="378.987" y1="144.058" x2="378.977" y2="132.626"/>
<line class="mainDeck" x1="382.274" y1="116.679" x2="393.706" y2="116.672"/>
<line class="mainDeck" x1="382.279" y1="122.998" x2="393.71" y2="122.988"/>
<line class="mainDeck" x1="382.284" y1="129.314" x2="393.715" y2="129.307"/>
<line class="mainDeck" x1="382.273" y1="116.378" x2="382.265" y2="104.949"/>
<line class="mainDeck" x1="375.956" y1="116.386" x2="375.947" y2="104.953"/>
<line class="mainDeck" x1="369.639" y1="116.391" x2="369.63" y2="104.958"/>
<polyline class="mainDeck" points="378.075,132.626 382.287,132.624 382.273,116.378 369.037,116.391 "/>
<line class="mainDeck" x1="842.261" y1="101.261" x2="845.816" y2="101.257"/>
<polyline class="mainDeck" points="839.198,99.759 839.5,99.759 839.5,100.06 839.5,100.361 839.801,100.358 839.801,100.66 
	840.102,100.66 840.102,100.961 840.403,100.961 840.403,101.262 840.702,101.262 841.003,101.262 841.304,101.259 842.207,101.259 
	"/>
<polyline class="mainDeck" points="839.194,95.847 839.196,96.449 839.196,98.554 839.196,99.156 839.196,99.739 "/>
<path class="mainDeck" d="M839.191,92.841"/>
<path class="mainDeck" d="M839.196,99.156"/>
<polyline class="mainDeck" points="316.705,128.467 316.702,124.256 323.321,124.249 326.93,124.246 "/>
<polyline class="mainDeck" points="327.794,78.823 327.796,80.326 327.802,87.244 "/>
<line class="mainDeck" x1="338.926" y1="80.018" x2="338.932" y2="87.237"/>
<polyline class="mainDeck" points="317.552,60.482 317.553,62.287 323.269,62.282 "/>
<line class="mainDeck" x1="461.667" y1="87.736" x2="414.436" y2="87.776"/>
<polyline class="mainDeck" points="414.436,87.776 414.447,81.761 446.917,81.734 461.659,81.721 "/>
<line class="mainDeck" x1="415.298" y1="38.139" x2="398.755" y2="38.154"/>
<polyline class="mainDeck" points="502.875,87.1 537.468,86.772 549.503,86.762 575.07,86.74 "/>
<line class="mainDeck" x1="690.302" y1="108.905" x2="698.123" y2="108.9"/>
<polyline class="mainDeck" points="698.113,98.069 689.993,98.077 689.99,95.369 "/>
<line class="mainDeck" x1="690.279" y1="82.735" x2="698.101" y2="82.728"/>
<line class="mainDeck" x1="682.132" y1="51.155" x2="674.612" y2="51.163"/>
<line class="mainDeck" x1="612.371" y1="86.711" x2="612.375" y2="90.62"/>
<line class="mainDeck" x1="612.38" y1="98.743" x2="612.385" y2="102.953"/>
<polyline class="mainDeck" points="575.398,118.325 575.403,125.546 553.444,125.563 553.427,103.002 553.483,171.288 "/>
<line class="mainDeck" x1="575.361" y1="73.202" x2="575.339" y2="46.732"/>
<line class="mainDeck" x1="575.332" y1="38.609" x2="575.317" y2="22.065"/>
<polyline class="mainDeck" points="553.358,21.781 553.395,65.099 520.606,65.126 "/>
<polyline class="mainDeck" points="520.64,107.541 520.638,103.029 502.889,103.044 597.344,102.965 575.386,102.985 575.39,110.204 "/>
<polyline class="mainDeck" points="365.717,103.157 445.434,103.093 422.569,103.11 422.577,110.329 422.569,103.11 "/>
<polyline class="mainDeck" points="627.426,102.941 605.768,102.958 627.426,102.941 628.08,167.315 "/>
<line class="mainDeck" x1="575.371" y1="86.74" x2="597.33" y2="86.723"/>
<line class="mainDeck" x1="605.452" y1="86.715" x2="627.411" y2="86.698"/>
<polyline class="mainDeck" points="520.647,115.664 520.65,120.175 520.669,141.233 "/>
<line class="mainDeck" x1="520.995" y1="172.216" x2="520.674" y2="149.356"/>
<line class="mainDeck" x1="553.444" y1="125.563" x2="520.655" y2="125.59"/>
<polyline class="mainDeck" points="422.589,125.671 422.584,118.452 422.606,145.826 422.589,125.671 398.827,125.691 "/>
<line class="mainDeck" x1="422.613" y1="153.346" x2="422.628" y2="173.2"/>
<line class="mainDeck" x1="318.497" y1="112.821" x2="318.498" y2="114.327"/>
<line class="mainDeck" x1="318.505" y1="122.748" x2="318.507" y2="124.254"/>
<polyline class="mainDeck" points="490.556,103.054 490.255,103.054 489.954,103.056 "/>
<line class="mainDeck" x1="422.603" y1="141.013" x2="422.603" y2="140.712"/>
<polyline class="mainDeck" points="553.441,123.157 553.441,122.856 553.441,122.555 553.441,123.157 553.441,122.555 553.441,122.856 
	553.441,123.157 "/>
<polyline class="mainDeck" points="174.141,154.154 252.052,155.594 252.051,154.69 "/>
<path class="mainDeck" d="M338.932,87.237"/>
<path class="mainDeck" d="M327.802,87.244"/>
<line class="mainDeck" x1="368.465" y1="150.984" x2="368.459" y2="144.066"/>
<line class="mainDeck" x1="281.232" y1="155.268" x2="284.841" y2="155.265"/>
<line class="mainDeck" x1="292.964" y1="155.258" x2="296.573" y2="155.256"/>
<line class="mainDeck" x1="317.552" y1="60.482" x2="257.088" y2="60.531"/>
<path class="mainDeck" d="M365.963,35.473"/>
<path class="mainDeck" d="M354.532,35.483"/>
<line class="mainDeck" x1="423.722" y1="38.132" x2="443.877" y2="38.117"/>
<path class="mainDeck" d="M414.132,81.761"/>
<line class="mainDeck" x1="405.407" y1="81.768" x2="404.805" y2="81.768"/>
<line class="mainDeck" x1="398.807" y1="103.13" x2="398.806" y2="101.024"/>
<line class="mainDeck" x1="398.8" y1="92.902" x2="398.797" y2="91.098"/>
<line class="mainDeck" x1="575.403" y1="125.546" x2="575.417" y2="143.894"/>
<line class="mainDeck" x1="575.425" y1="152.017" x2="575.44" y2="170.367"/>
<path class="mainDeck1" d="M520.885,39.255"/>
<line class="mainDeck" x1="520.618" y1="81.371" x2="520.623" y2="87.085"/>
<line class="mainDeck" x1="767.86" y1="45.836" x2="767.897" y2="91.996"/>
<path class="mainDeck" d="M402.782,20.403c-1.119,0.005-2.179,0.512-2.889,1.376"/>
<line class="mainDeck" x1="403.252" y1="20.403" x2="448.675" y2="19.162"/>
<line class="mainDeck" x1="142.229" y1="125.302" x2="142.232" y2="127.708"/>
<line class="mainDeck" x1="85.111" y1="167.163" x2="109.175" y2="167.743"/>
<path class="mainDeck" d="M109.057,25.157"/>
<line class="mainDeck" x1="113.296" y1="58.201" x2="144.43" y2="58.218"/>
<path class="mainDeck" d="M113.285,44.1"/>
<path class="mainDeck2" d="M144.89,67.844"/>
<path class="mainDeck2" d="M144.89,67.844"/>
<path class="mainDeck2" d="M144.89,67.844"/>
<path class="mainDeck2" d="M144.882,58.218"/>
<path class="mainDeck2" d="M144.89,67.844"/>
<path class="mainDeck" d="M144.882,58.218"/>
<path class="mainDeck" d="M144.89,67.844"/>
<line class="mainDeck" x1="305.499" y1="35.525" x2="296.173" y2="35.532"/>
<line class="mainDeck" x1="340.112" y1="59.86" x2="398.908" y2="59.86"/>
<line class="mainDeck" x1="449.317" y1="70.299" x2="470.374" y2="70.282"/>
<line class="mainDeck" x1="727.301" y1="106.767" x2="748.359" y2="106.767"/>
<line class="mainDeck" x1="748.359" y1="106.767" x2="760.991" y2="106.767"/>
<line class="mainDeck" x1="156.974" y1="131.304" x2="156.989" y2="148.151"/>
<line class="mainDeck" x1="317.265" y1="78.83" x2="327.794" y2="78.823"/>
<line class="mainDeck" x1="698.101" y1="82.728" x2="698.074" y2="51.143"/>
<line class="mainDeck" x1="698.123" y1="108.9" x2="698.113" y2="98.069"/>
<line class="mainDeck" x1="113.285" y1="44.1" x2="158.406" y2="44.068"/>
</svg>
