<?xml version="1.0" encoding="utf-8"?>
<!-- Generator: Adobe Illustrator 25.0.0, SVG Export Plug-In . SVG Version: 6.00 Build 0)  -->
<svg version="1.0" id="Layer_1" xmlns="http://www.w3.org/2000/svg" xmlns:xlink="http://www.w3.org/1999/xlink" x="0px" y="0px"
	 viewBox="0 0 895 190" style="enable-background:new 0 0 895 190;" xml:space="preserve">
<polyline class="ownerDeck" points="143.288,130.556 142.687,130.558 142.386,130.558 142.386,130.859 142.085,130.859 141.785,130.859 
	141.484,130.859 141.183,130.859 141.183,131.163 140.882,131.163 140.581,131.163 140.581,131.461 140.281,131.461 
	140.281,131.765 139.98,131.765 139.981,132.064 139.68,132.066 139.68,132.367 139.38,132.367 139.38,132.666 139.38,132.967 
	139.079,132.967 139.079,133.268 139.08,133.569 139.08,133.87 139.08,134.171 138.779,134.171 138.779,134.473 138.791,149.513 "/>
<polyline class="ownerDeck" points="273.149,20.653 352.564,19.385 419.344,19.029 452.735,19.001 469.58,19.289 478.004,19.281 
	486.425,19.574 502.971,19.86 519.819,20.449 536.363,21.038 570.055,22.814 586.601,23.704 603.449,24.591 619.992,25.781 
	636.84,26.97 653.386,28.462 661.81,29.056 670.234,29.95 678.657,30.546 686.777,31.442 695.204,32.337 703.627,33.233 
	707.537,33.831 711.747,34.427 715.963,34.726 720.174,35.325 724.384,35.923 728.296,36.522 732.507,37.419 736.72,38.019 
	738.828,38.317 740.933,38.617 742.737,38.916 744.843,39.515 746.948,39.814 749.053,40.113 751.163,40.714 752.968,41.014 
	755.073,41.614 757.178,41.911 759.283,42.511 761.391,42.811 763.195,43.412 765.303,44.011 767.408,44.309 769.514,44.909 
	771.321,45.51 773.426,46.111 775.534,46.711 777.338,47.309 779.443,47.91 781.551,48.51 783.355,49.111 785.463,49.709 
	787.568,50.309 789.372,50.91 791.48,51.511 793.585,52.108 795.392,53.01 797.497,53.611 799.302,54.211 801.409,55.111 
	803.216,55.712 805.321,56.312 807.126,57.211 809.231,57.812 811.04,58.713 813.145,59.312 814.95,60.214 817.055,60.813 
	818.864,61.716 820.969,62.314 822.773,63.215 824.879,64.117 826.688,64.716 828.492,65.618 830.597,66.519 832.404,67.418 
	834.509,68.321 836.316,68.92 838.12,69.82 839.927,70.722 842.032,71.623 843.839,72.522 845.645,73.425 846.549,74.026 
	847.45,74.625 848.654,74.925 849.555,75.526 850.458,75.827 851.364,76.428 852.265,77.028 853.168,77.328 854.071,77.929 
	854.972,78.531 855.878,79.132 856.782,79.43 857.683,80.032 858.586,80.633 859.487,81.235 860.39,81.834 861.296,82.435 
	862.197,82.736 863.1,83.337 863.401,83.638 863.702,83.939 864.305,84.239 864.603,84.538 865.205,84.839 865.509,85.14 
	866.111,85.44 866.412,85.741 866.713,86.042 867.313,86.342 867.614,86.643 867.915,86.942 868.216,86.942 868.216,87.243 
	868.517,87.544 868.818,87.542 868.818,87.843 869.12,87.843 869.421,88.145 869.722,88.446 870.023,88.446 870.023,88.747 
	870.324,88.746 870.625,89.047 870.625,89.346 870.926,89.346 870.926,89.647 871.227,89.647 871.227,89.948 871.529,89.948 
	871.529,90.249 871.83,90.247 871.83,90.549 872.128,90.549 872.128,90.85 872.43,90.85 872.432,91.151 872.432,91.452 
	872.733,91.452 872.733,91.753 "/>
<line class="ownerDeck" x1="873.034" y1="92.052" x2="873.034" y2="92.052"/>
<line class="ownerDeck" x1="873.034" y1="92.353" x2="873.034" y2="92.353"/>
<polyline class="ownerDeck" points="873.335,92.954 873.335,92.954 873.335,92.653 "/>
<line class="ownerDeck" x1="873.335" y1="93.556" x2="873.335" y2="93.255"/>
<polyline class="ownerDeck" points="872.733,91.753 872.733,91.753 872.733,92.052 873.034,92.052 873.034,92.353 873.335,92.653 
	873.335,92.954 873.335,93.255 873.335,93.556 873.636,93.556 873.639,93.857 873.639,94.158 873.639,94.457 873.639,94.158 
	873.639,93.857 873.636,93.556 "/>
<polyline class="ownerDeck" points="872.128,90.85 872.128,90.85 872.43,90.85 872.432,91.151 872.432,91.452 872.733,91.452 "/>
<polyline class="ownerDeck" points="871.83,90.247 871.83,90.549 872.128,90.549 "/>
<polyline class="ownerDeck" points="241.564,20.378 248.482,20.372 273.149,20.653 "/>
<polyline class="ownerDeck" points="470.307,169.994 473.015,169.991 482.339,169.984 501.29,169.369 "/>
<line class="ownerDeck" x1="535.885" y1="168.136" x2="540.094" y2="167.832"/>
<line class="ownerDeck" x1="577.093" y1="165.996" x2="603.564" y2="164.471"/>
<polyline class="ownerDeck" points="634.845,162.038 636.649,162.038 657.406,160.214 667.634,159.306 677.257,158.395 681.468,158.089 
	"/>
<polyline class="ownerDeck" points="700.418,155.966 704.93,155.362 709.14,155.056 "/>
<polyline class="ownerDeck" points="713.956,154.453 718.467,153.846 722.977,152.941 725.985,152.637 "/>
<polyline class="ownerDeck" points="732,151.731 734.406,151.428 736.514,151.124 738.921,150.522 741.026,150.218 743.43,149.614 
	745.535,149.313 747.942,149.009 750.047,148.407 752.453,148.103 754.559,147.501 756.662,146.899 759.071,146.595 
	761.176,145.991 763.582,145.386 765.688,144.784 767.793,144.483 770.197,143.878 772.302,142.972 774.407,142.669 
	776.814,141.768 778.919,141.163 781.025,140.559 783.13,139.956 785.536,139.354 787.641,138.448 789.744,137.846 791.85,136.94 
	794.256,136.338 796.364,135.733 798.467,134.83 800.572,134.228 802.677,133.322 804.783,132.416 807.187,131.814 809.292,130.911 
	811.4,130.005 813.503,129.405 815.608,128.499 817.713,127.594 819.819,126.69 821.921,125.787 824.029,124.881 826.135,123.978 
	828.237,123.074 828.84,122.771 "/>
<polyline class="ownerDeck" points="835.454,120.059 836.659,119.456 838.764,118.553 839.966,117.948 "/>
<polyline class="ownerDeck" points="845.077,115.54 845.981,114.937 846.882,114.634 847.782,114.034 848.987,113.429 849.587,113.128 "/>
<polyline class="ownerDeck" points="851.393,112.225 851.993,111.921 852.894,111.322 "/>
<polyline class="ownerDeck" points="858.608,108.007 858.909,107.706 859.81,107.402 860.713,106.805 861.315,106.2 "/>
<line class="ownerDeck" x1="862.216" y1="105.899" x2="862.214" y2="105.598"/>
<polyline class="ownerDeck" points="864.322,104.391 864.62,104.092 865.222,103.791 865.524,103.49 866.126,103.187 866.427,102.888 
	867.024,102.584 867.325,102.283 867.626,101.982 867.928,101.683 868.229,101.683 868.229,101.382 868.53,101.382 868.831,101.081 
	869.132,100.778 "/>
<polyline class="ownerDeck" points="869.431,100.479 869.732,100.479 869.732,100.177 870.033,99.876 870.334,99.875 870.332,99.573 
	870.633,99.573 870.934,99.275 870.934,98.974 871.235,98.974 871.536,98.673 871.837,98.37 871.837,98.069 872.136,98.069 "/>
<polyline class="ownerDeck" points="872.437,97.467 872.437,97.768 872.136,97.768 "/>
<polyline class="ownerDeck" points="873.639,95.059 873.639,94.758 873.639,94.457 873.639,94.758 873.639,95.059 873.338,95.059 
	873.338,95.36 873.338,95.661 873.338,95.962 873.338,96.264 873.037,96.265 873.037,96.566 872.738,96.865 872.738,97.166 "/>
<polyline class="ownerDeck" points="873.338,95.059 873.338,95.36 873.338,95.661 873.338,95.962 "/>
<line class="ownerDeck" x1="873.338" y1="96.264" x2="873.338" y2="96.264"/>
<line class="ownerDeck" x1="873.037" y1="96.265" x2="873.037" y2="96.265"/>
<line class="ownerDeck" x1="873.037" y1="96.566" x2="873.037" y2="96.566"/>
<polyline class="ownerDeck" points="872.136,98.069 872.136,97.768 872.437,97.768 872.437,97.467 872.738,97.166 872.738,96.865 "/>
<line class="ownerDeck" x1="871.837" y1="98.37" x2="871.837" y2="98.37"/>
<polyline class="ownerDeck" points="871.235,98.974 870.934,98.974 870.934,99.275 870.633,99.573 870.334,99.875 "/>
<line class="ownerDeck" x1="870.033" y1="100.177" x2="869.732" y2="100.177"/>
<line class="ownerDeck" x1="869.132" y1="100.778" x2="869.431" y2="100.479"/>
<line class="ownerDeck" x1="868.831" y1="101.081" x2="868.831" y2="101.081"/>
<polyline class="ownerDeck" points="868.229,101.382 868.229,101.683 867.928,101.683 867.626,101.982 "/>
<line class="ownerDeck" x1="866.126" y1="103.187" x2="865.524" y2="103.49"/>
<polyline class="ownerDeck" points="864.322,104.391 863.719,104.695 863.418,104.993 863.117,105.297 862.216,105.899 861.315,106.2 "/>
<polyline class="ownerDeck" points="858.608,108.007 857.705,108.611 856.806,109.214 855.903,109.512 855,110.115 854.099,110.717 
	853.195,111.322 852.894,111.322 "/>
<polyline class="ownerDeck" points="851.393,112.225 850.49,112.827 849.587,113.128 "/>
<polyline class="ownerDeck" points="845.077,115.54 843.876,116.142 842.069,117.043 839.966,117.948 "/>
<polyline class="ownerDeck" points="835.454,120.059 834.551,120.362 832.448,121.266 830.644,122.169 828.84,122.771 "/>
<polyline class="ownerDeck" points="713.956,154.453 711.848,154.752 709.14,155.056 "/>
<path class="ownerDeck" d="M661.918,159.908"/>
<polyline class="ownerDeck" points="700.418,155.966 695.307,156.573 686.883,157.482 678.763,158.392 "/>
<polyline class="ownerDeck" points="636.95,162.038 620.108,163.252 603.564,164.471 "/>
<polyline class="ownerDeck" points="583.11,165.69 570.175,166.305 536.485,168.136 519.941,168.75 503.096,169.367 500.989,169.369 "/>
<polyline class="ownerDeck" points="470.307,169.994 469.705,169.994 452.86,170.309 419.47,170.336 352.687,170.092 273.273,168.956 
	248.605,169.577 241.687,169.281 "/>
<polyline class="ownerDeck" points="241.266,24.591 241.266,24.29 241.566,23.688 241.564,20.378 241.566,23.688 241.266,24.29 
	241.266,24.591 240.364,24.592 239.161,24.592 237.958,24.892 234.949,24.895 219.607,25.209 219.307,25.209 208.177,25.519 
	207.877,25.52 207.876,25.219 207.575,25.219 207.575,24.918 207.575,24.619 207.575,24.318 207.274,24.318 207.274,24.017 
	206.973,24.017 206.972,23.716 206.672,23.716 206.37,23.717 206.069,23.717 205.768,23.717 205.469,23.717 205.167,23.717 
	204.866,23.718 204.565,23.718 203.663,23.718 202.761,23.72 194.338,23.727 142.298,24.972 116.128,25.596 98.983,26.212 
	90.258,26.52 84.243,26.826 74.016,27.136 57.471,27.749 55.364,27.752 54.462,27.752 53.56,28.054 52.657,28.054 52.056,28.055 
	51.755,28.055 51.154,28.055 50.552,28.056 50.252,28.358 49.651,28.358 49.35,28.359 48.749,28.359 48.147,28.359 47.845,28.36 
	47.244,28.661 46.943,28.661 46.342,28.662 45.74,28.662 45.439,28.662 44.838,28.965 44.537,28.965 44.236,28.965 43.936,28.965 
	43.635,28.965 43.333,29.267 43.032,29.267 42.731,29.267 42.432,29.267 42.13,29.568 41.829,29.569 41.529,29.569 41.228,29.569 
	40.928,29.868 40.627,29.868 40.326,29.869 40.026,29.869 39.725,30.17 39.424,30.17 39.123,30.171 38.823,30.473 38.522,30.473 
	38.221,30.473 37.92,30.774 37.62,30.775 37.319,30.775 37.319,31.076 37.018,31.076 36.717,31.076 36.417,31.076 36.418,31.377 
	36.117,31.378 35.816,31.68 35.515,31.68 35.213,31.981 34.913,31.981 34.612,32.283 34.311,32.283 34.311,32.581 34.011,32.581 
	33.71,32.581 33.712,32.883 33.41,32.883 33.109,33.185 32.808,33.185 32.808,33.486 32.508,33.486 32.508,33.787 32.207,33.787 
	31.906,33.787 31.906,34.088 31.606,34.391 31.306,34.391 31.306,34.692 31.005,34.692 31.005,34.991 30.704,34.991 30.704,35.292 
	30.403,35.292 30.103,35.594 30.104,35.895 29.803,35.895 29.502,36.196 29.502,36.497 29.201,36.497 29.201,36.798 28.901,36.798 
	28.901,37.099 28.6,37.101 28.601,37.399 28.3,37.399 28.3,37.7 27.999,37.7 27.999,38.001 27.698,38.303 27.698,38.604 
	27.398,38.604 27.399,38.905 27.098,38.906 27.098,39.207 27.098,39.508 26.797,39.508 26.797,39.809 26.497,39.809 26.497,40.108 
	26.498,40.409 26.197,40.409 26.197,40.71 25.896,41.011 25.896,41.312 25.595,41.314 25.596,41.615 25.596,41.916 25.295,41.916 
	25.295,42.217 25.295,42.516 24.995,42.516 24.995,42.817 24.997,43.118 24.695,43.118 24.695,43.419 24.695,43.72 24.394,43.72 
	24.394,44.021 24.394,44.322 24.395,44.623 24.094,44.625 24.094,44.923 24.094,45.224 23.795,45.526 23.795,45.827 23.796,46.128 
	23.495,46.429 23.495,46.73 23.495,47.031 23.194,47.332 23.195,47.631 23.195,47.932 23.195,48.233 22.894,48.534 22.894,48.835 
	22.895,49.136 22.895,49.437 22.595,49.74 22.595,50.039 22.595,50.34 22.596,50.641 22.596,50.942 22.596,51.243 22.295,51.544 
	22.295,51.845 22.296,52.146 22.296,52.445 22.296,52.746 22.296,53.047 21.996,53.649 21.996,53.95 21.996,54.553 21.998,55.152 
	21.998,55.453 21.697,56.056 21.697,56.357 21.698,56.959 21.698,57.559 21.699,58.462 21.699,59.366 21.4,60.266 21.402,61.17 
	21.403,62.374 21.404,64.178 21.405,65.982 21.105,68.089 21.109,72.001 21.112,75.61 20.827,95.162 21.145,114.416 21.147,118.325 
	21.151,121.936 21.453,124.039 21.454,125.846 21.457,127.951 21.457,128.852 21.458,129.758 21.759,130.658 21.759,131.559 
	21.76,132.764 21.76,133.063 21.762,133.665 21.762,133.968 22.063,134.571 22.064,135.168 22.064,135.472 22.064,136.074 
	22.064,136.372 22.366,136.975 22.366,137.577 22.367,137.875 22.367,138.179 22.367,138.478 22.668,138.781 22.668,139.08 
	22.67,139.383 22.67,139.682 22.67,139.986 22.67,140.284 22.97,140.583 22.971,140.884 22.971,141.185 22.971,141.486 
	23.272,141.787 23.272,142.088 23.273,142.39 23.273,142.688 23.574,142.989 23.574,143.29 23.574,143.592 23.575,143.893 
	23.876,143.893 23.876,144.194 23.876,144.495 23.876,144.796 24.176,144.796 24.176,145.097 24.178,145.396 24.479,145.694 
	24.479,145.998 24.479,146.297 24.78,146.297 24.78,146.6 24.781,146.899 25.082,146.899 25.082,147.202 25.082,147.501 
	25.382,147.8 25.382,148.103 25.683,148.103 25.684,148.402 25.684,148.706 25.985,148.703 25.985,149.004 25.985,149.305 
	26.287,149.305 26.287,149.606 26.588,149.606 26.589,149.907 26.589,150.206 26.889,150.206 26.889,150.507 27.19,150.808 
	27.19,151.109 27.491,151.109 27.492,151.408 27.792,151.712 27.792,152.01 28.093,152.01 28.093,152.314 28.394,152.314 
	28.394,152.612 28.696,152.612 28.697,152.911 28.998,152.911 28.998,153.212 29.298,153.212 29.298,153.513 29.599,153.814 
	29.9,154.116 30.202,154.417 30.502,154.718 30.803,154.718 30.803,155.016 31.104,155.016 31.104,155.315 31.405,155.315 
	31.405,155.619 31.705,155.619 31.706,155.917 32.008,155.917 32.008,156.218 32.309,156.218 32.61,156.52 32.91,156.52 
	32.91,156.821 33.211,156.821 33.512,157.122 33.813,157.122 33.814,157.421 34.115,157.421 34.415,157.719 34.716,157.719 
	34.716,158.023 35.017,158.02 35.318,158.02 35.619,158.321 35.92,158.321 35.921,158.622 36.222,158.622 36.523,158.62 
	36.523,158.924 36.823,158.924 37.124,158.924 37.425,159.222 37.726,159.222 38.026,159.222 38.026,159.523 38.327,159.523 
	38.628,159.523 38.93,159.523 38.93,159.825 39.229,159.825 39.53,159.825 39.832,159.825 40.134,160.123 40.434,160.123 
	40.735,160.123 41.036,160.422 41.337,160.422 41.638,160.422 41.938,160.422 42.239,160.72 42.54,160.72 42.84,160.72 
	43.141,160.72 43.443,160.72 43.744,161.021 44.045,161.021 44.345,161.021 44.646,161.021 44.947,161.021 45.548,161.323 
	45.849,161.323 46.451,161.323 47.052,161.32 47.354,161.621 47.955,161.621 48.257,161.621 48.859,161.621 49.46,161.621 
	49.761,161.619 50.362,161.92 50.663,161.92 51.265,161.92 51.866,161.92 52.167,161.92 52.768,161.918 53.672,162.219 
	54.574,162.219 55.476,162.219 57.582,162.214 73.826,162.801 84.355,163.095 90.371,163.389 99.096,163.683 116.242,164.27 
	142.414,164.853 194.457,166.011 202.88,166.305 203.782,166.305 204.684,166.305 204.985,166.305 205.286,166.305 205.587,166.305 
	205.887,166.302 206.188,166.302 206.188,166.001 206.489,166.001 206.79,166.001 207.09,166.001 207.089,165.7 207.39,165.7 
	207.39,165.399 207.691,165.399 207.691,165.098 207.691,164.799 207.691,164.498 207.992,164.498 208.292,164.495 219.423,164.789 
	219.723,164.789 235.065,164.774 238.074,165.073 239.277,165.071 240.48,165.071 241.382,165.068 241.382,165.372 241.685,166.273 
	241.687,169.281 241.685,166.273 241.382,165.372 241.382,165.068 "/>
<polyline class="ownerDeck" points="238.065,154.243 220.316,153.959 185.12,153.386 142.102,152.218 141.501,152.218 141.2,152.221 
	140.899,152.221 140.598,152.221 140.598,151.917 140.298,151.917 139.997,151.917 139.997,151.619 139.696,151.619 
	139.696,151.317 139.396,151.317 139.395,151.016 139.395,150.715 139.093,150.715 139.093,150.414 139.093,150.113 
	139.093,149.814 139.092,149.212 "/>
<line class="ownerDeck" x1="247.09" y1="154.238" x2="492.552" y2="152.828"/>
<polyline class="ownerDeck" points="549.31,36.369 549.611,36.369 551.416,36.367 551.717,36.366 552.018,36.366 552.319,36.366 
	552.62,36.366 552.921,36.366 552.921,36.667 553.222,36.666 554.123,36.666 555.026,36.964 555.93,37.265 556.831,37.263 
	557.734,37.563 558.637,37.864 559.24,37.863 560.143,38.164 561.044,38.464 561.947,38.464 562.85,38.764 563.751,39.064 
	564.353,39.365 565.257,39.662 566.158,39.963 567.061,39.962 567.964,40.262 568.865,40.563 569.47,40.863 570.373,41.164 
	571.274,41.464 572.177,41.765 573.081,42.063 573.68,42.364 574.584,42.363 575.487,42.663 576.388,42.964 576.99,43.264 
	577.894,43.565 578.797,44.166 579.7,44.464 580.302,44.463 580.302,44.764 580.604,44.764 580.905,44.764 580.905,45.065 
	581.203,45.065 581.504,45.064 581.504,45.365 581.806,45.365 581.806,45.666 581.806,45.967 582.41,46.57 583.013,47.469 
	583.612,48.071 584.214,48.975 584.518,49.573 585.12,50.477 585.722,51.078 586.322,51.979 586.626,52.882 587.228,53.483 
	587.83,54.386 588.131,54.986 588.734,55.888 589.035,56.49 589.637,57.391 589.938,58.294 590.543,58.896 590.844,59.796 
	591.142,60.7 591.745,61.301 592.048,62.201 592.349,62.503 592.349,62.804 592.65,63.406 592.951,63.707 592.951,64.008 
	593.255,64.607 593.556,64.908 593.556,65.209 593.855,65.811 593.855,66.112 594.156,66.413 594.457,66.714 594.46,67.314 
	594.761,67.614 594.761,67.915 595.062,68.518 595.062,68.819 595.363,69.12 595.363,69.72 595.664,70.021 595.666,70.322 
	595.967,70.924 595.967,71.225 596.266,71.525 596.266,71.826 596.567,72.426 596.567,72.727 596.868,73.028 596.871,73.63 
	597.172,73.931 597.172,74.233 597.172,74.531 597.473,75.133 597.473,75.435 597.774,75.734 597.777,76.337 598.078,76.638 
	598.078,76.939 598.078,77.237 598.379,77.84 598.379,78.141 598.379,78.442 598.677,78.743 598.68,79.345 598.68,79.644 
	598.981,79.945 598.981,80.547 598.981,80.848 598.981,81.149 599.282,81.449 599.282,82.049 599.285,82.35 599.586,82.651 
	599.586,82.952 599.586,83.555 599.586,83.856 599.887,84.157 599.887,84.458 599.887,84.757 599.889,85.359 599.889,85.66 
	600.19,85.961 600.19,86.262 600.19,86.864 600.19,87.163 600.19,87.464 600.491,87.765 600.494,88.066 600.494,88.668 
	600.494,88.97 600.494,89.271 600.494,89.569 600.494,89.87 600.494,90.473 600.494,90.774 600.496,91.075 600.797,91.375 
	600.797,91.676 600.797,92.276 600.797,92.577 600.797,92.878 600.797,93.179 600.797,93.48 600.797,93.781 600.8,94.082 
	600.8,94.682 600.8,94.983 600.8,95.284 600.8,95.585 600.8,95.887 600.8,96.188 600.8,96.489 600.802,97.089 600.802,97.39 
	600.802,97.691 600.501,97.993 600.501,98.294 600.501,98.896 600.501,99.197 600.501,99.499 600.501,99.797 600.504,100.098 
	600.504,100.7 600.504,101.003 600.504,101.302 600.203,101.605 600.203,101.904 600.203,102.506 600.203,102.805 600.205,103.108 
	599.904,103.407 599.904,103.71 599.904,104.313 599.904,104.611 599.904,104.91 599.603,105.214 599.605,105.816 599.605,106.114 
	599.605,106.418 599.304,106.717 599.304,107.319 599.304,107.618 599.003,107.921 599.003,108.222 599.005,108.825 
	599.005,109.126 598.704,109.427 598.704,109.726 598.704,110.328 598.406,110.629 598.406,110.93 598.406,111.231 598.107,111.833 
	598.107,112.132 598.107,112.433 597.806,113.035 597.806,113.336 597.505,113.64 597.505,113.938 597.204,114.541 597.206,114.839 
	597.206,115.143 596.905,115.745 596.905,116.044 596.604,116.347 596.604,116.95 596.303,117.248 596.303,117.547 596.006,117.851 
	596.006,118.453 595.705,118.754 595.705,119.055 595.404,119.655 595.404,119.956 595.103,120.257 595.103,120.558 594.805,121.16 
	594.805,121.461 594.503,121.762 594.503,122.365 594.202,122.663 593.901,122.967 593.901,123.569 593.605,123.868 
	593.605,124.171 593.304,124.769 593.003,125.072 593.003,125.373 592.702,125.674 592.401,126.277 592.403,126.578 
	592.102,126.879 591.801,127.78 591.199,128.685 590.9,129.288 590.601,130.188 589.999,130.791 589.698,131.694 589.098,132.595 
	588.797,133.197 588.197,134.101 587.896,135.001 587.296,135.604 586.694,136.509 586.393,137.112 585.793,138.012 
	585.194,138.615 584.591,139.52 584.29,140.118 583.688,141.024 583.091,141.927 582.489,142.527 581.886,143.432 581.886,143.731 
	581.585,143.731 581.585,144.035 581.284,144.035 580.986,144.035 580.988,144.336 580.687,144.336 580.687,144.637 
	580.386,144.637 579.784,144.935 578.88,145.239 577.979,145.54 577.076,145.841 576.474,146.145 575.573,146.443 574.669,146.747 
	573.766,147.051 573.169,147.349 572.265,147.349 571.362,147.952 570.461,147.952 569.558,148.255 568.956,148.556 
	568.055,148.857 567.152,149.161 566.248,149.462 565.347,149.761 564.444,149.763 563.842,150.062 562.943,150.365 562.04,150.669 
	561.137,150.669 560.236,150.97 559.333,151.271 558.73,151.575 557.83,151.575 556.926,151.876 556.025,152.177 555.122,152.177 
	554.219,152.478 553.318,152.478 553.318,152.779 553.017,152.779 552.715,152.779 552.414,152.779 552.113,152.779 
	551.812,152.779 551.511,152.781 549.707,152.784 "/>
<line class="ownerDeck" x1="493.358" y1="36.415" x2="414.245" y2="36.179"/>
<line class="ownerDeck" x1="404.92" y1="36.188" x2="378.748" y2="36.208"/>
<polyline class="ownerDeck" points="369.424,35.916 255.716,35.708 220.219,36.038 184.723,36.971 142.008,37.907 141.708,37.907 
	141.407,37.907 141.106,37.908 140.805,37.908 140.504,37.908 140.504,38.209 140.204,38.209 139.903,38.511 139.602,38.512 
	139.603,38.813 139.303,38.813 139.303,39.114 139.303,39.415 139.002,39.415 139.002,39.716 139.002,40.015 139.003,40.316 
	138.702,40.316 138.702,40.617 138.702,40.918 138.714,55.357 138.714,55.658 139.015,55.658 139.015,55.959 139.015,56.26 
	139.016,56.561 139.016,56.863 139.318,56.863 139.318,57.164 139.318,57.462 139.617,57.462 139.617,57.763 139.918,57.762 
	139.92,58.063 140.221,58.063 140.221,58.364 140.521,58.364 140.521,58.665 140.822,58.665 141.123,58.665 141.123,58.966 
	141.424,58.965 141.725,58.965 142.025,58.965 142.025,59.266 142.326,59.266 142.627,59.266 143.228,59.265 "/>
<line class="ownerDeck" x1="324.005" y1="42.268" x2="312.574" y2="42.278"/>
<path class="ownerDeck" d="M292.72,42.896"/>
<path class="ownerDeck" d="M281.298,52.231"/>
<path class="ownerDeck" d="M292.731,55.531"/>
<path class="ownerDeck" d="M292.721,43.499"/>
<line class="ownerDeck" x1="293.324" y1="44.101" x2="293.333" y2="55.531"/>
<line class="ownerDeck" x1="281.299" y1="53.435" x2="292.721" y2="43.8"/>
<path class="ownerDeck" d="M292.719,41.393"/>
<path class="ownerDeck" d="M281.288,41.403"/>
<line class="ownerDeck" x1="292.72" y1="42.294" x2="281.289" y2="42.304"/>
<line class="ownerDeck" x1="311.372" y1="44.086" x2="311.974" y2="44.085"/>
<path class="ownerDeck" d="M323.714,54.303"/>
<line class="ownerDeck" x1="324.015" y1="53.4" x2="312.274" y2="43.784"/>
<path class="ownerDeck" d="M311.071,44.086"/>
<path class="ownerDeck" d="M311.08,55.516"/>
<line class="ownerDeck" x1="311.974" y1="44.085" x2="311.984" y2="55.515"/>
<path class="ownerDeck" d="M305.064,55.521"/>
<path class="ownerDeck" d="M305.055,44.091"/>
<line class="ownerDeck" x1="305.657" y1="44.091" x2="305.667" y2="55.521"/>
<path class="ownerDeck" d="M298.747,55.526"/>
<path class="ownerDeck" d="M298.738,44.096"/>
<line class="ownerDeck" x1="299.641" y1="44.096" x2="299.651" y2="55.526"/>
<path class="ownerDeck" d="M323.704,42.871"/>
<path class="ownerDeck" d="M312.574,42.88"/>
<polyline class="ownerDeck" points="292.715,35.978 292.721,43.499 292.721,43.8 293.023,43.8 293.023,44.101 293.324,44.101 
	311.974,44.085 312.274,44.085 312.274,43.784 312.575,43.784 312.575,43.483 312.569,35.962 "/>
<polyline class="ownerDeck" points="324.016,55.505 281.3,55.54 281.284,35.687 "/>
<polyline class="ownerDeck" points="331.309,145.141 359.586,145.117 359.887,145.117 360.187,145.117 360.488,144.818 360.789,144.517 
	360.789,144.216 360.789,143.915 360.754,101.801 360.754,101.5 360.754,101.199 360.452,100.9 360.15,100.597 359.85,100.597 
	359.549,100.597 331.272,100.621 330.972,100.621 330.671,100.621 330.371,100.925 330.07,101.223 330.07,101.527 330.07,101.826 
	330.105,143.942 330.105,144.24 330.105,144.544 330.407,144.842 330.708,145.141 331.009,145.141 331.309,145.141 "/>
<polyline class="ownerDeck" points="297.883,100.949 296.379,100.952 296.379,101.554 "/>
<polyline class="ownerDeck" points="296.365,85.61 296.367,86.513 297.871,86.512 "/>
<line class="ownerDeck" x1="297.871" y1="86.512" x2="296.668" y2="86.513"/>
<path class="ownerDeck" d="M297.878,95.234"/>
<line class="ownerDeck" x1="297.883" y1="100.949" x2="296.68" y2="100.952"/>
<polyline class="ownerDeck" points="286.137,85.618 286.137,85.618 286.139,86.522 284.935,86.523 "/>
<line class="ownerDeck" x1="286.151" y1="101.561" x2="296.379" y2="101.554"/>
<line class="ownerDeck" x1="285.538" y1="86.522" x2="285.538" y2="86.522"/>
<line class="ownerDeck" x1="286.139" y1="86.522" x2="286.139" y2="86.522"/>
<line class="ownerDeck" x1="296.668" y1="86.513" x2="296.668" y2="86.513"/>
<line class="ownerDeck" x1="296.969" y1="86.512" x2="296.969" y2="86.512"/>
<line class="ownerDeck" x1="297.57" y1="86.512" x2="297.57" y2="86.512"/>
<line class="ownerDeck" x1="296.68" y1="100.952" x2="296.68" y2="100.952"/>
<line class="ownerDeck" x1="296.981" y1="100.949" x2="296.981" y2="100.949"/>
<line class="ownerDeck" x1="429.325" y1="83.093" x2="429.327" y2="87.304"/>
<polyline class="ownerDeck" points="155.022,133.254 149.307,133.258 149.302,126.041 "/>
<line class="ownerDeck" x1="143.586" y1="126.046" x2="143.285" y2="126.046"/>
<polyline class="ownerDeck" points="232.267,56.183 232.257,44.452 154.949,44.516 154.959,56.548 148.943,56.553 148.948,62.567 
	143.232,62.572 "/>
<line class="ownerDeck" x1="478.019" y1="36.427" x2="478.023" y2="41.24"/>
<line class="ownerDeck" x1="256.714" y1="153.93" x2="256.714" y2="153.93"/>
<line class="ownerDeck" x1="248.195" y1="36.015" x2="248.195" y2="36.015"/>
<line class="ownerDeck" x1="573.965" y1="22.81" x2="573.965" y2="22.81"/>
<line class="ownerDeck" x1="574.084" y1="166.3" x2="574.084" y2="166.3"/>
<line class="ownerDeck" x1="573.965" y1="22.81" x2="573.965" y2="22.81"/>
<polyline class="ownerDeck" points="275.595,66.978 284.318,66.97 284.62,66.97 284.618,66.669 "/>
<line class="ownerDeck" x1="364.335" y1="66.904" x2="348.692" y2="66.918"/>
<line class="ownerDeck" x1="312.888" y1="58.825" x2="312.888" y2="58.825"/>
<line class="ownerDeck" x1="312.587" y1="58.825" x2="284.612" y2="58.848"/>
<polyline class="ownerDeck" points="322.815,58.816 322.821,65.734 322.821,66.035 322.823,66.939 338.164,66.926 "/>
<line class="ownerDeck" x1="312.595" y1="66.947" x2="312.587" y2="58.825"/>
<line class="ownerDeck" x1="312.595" y1="66.947" x2="284.62" y2="66.97"/>
<line class="ownerDeck" x1="312.587" y1="58.825" x2="312.587" y2="58.825"/>
<line class="ownerDeck" x1="518.014" y1="20.45" x2="518.014" y2="20.45"/>
<line class="ownerDeck" x1="227.73" y1="24.901" x2="227.73" y2="24.901"/>
<line class="ownerDeck" x1="227.846" y1="164.782" x2="227.846" y2="164.782"/>
<line class="ownerDeck" x1="281.284" y1="36.59" x2="281.284" y2="36.59"/>
<line class="ownerDeck" x1="292.715" y1="36.58" x2="292.715" y2="36.58"/>
<line class="ownerDeck" x1="312.569" y1="36.565" x2="312.569" y2="36.565"/>
<line class="ownerDeck" x1="369.159" y1="80.436" x2="296.362" y2="80.496"/>
<line class="ownerDeck" x1="281.356" y1="123.525" x2="281.381" y2="153.606"/>
<line class="ownerDeck" x1="417.006" y1="101.755" x2="417.049" y2="153.193"/>
<line class="ownerDeck" x1="364.335" y1="66.904" x2="364.309" y2="35.919"/>
<line class="ownerDeck" x1="250.902" y1="36.014" x2="250.915" y2="51.958"/>
<polyline class="ownerDeck" points="281.298,51.932 250.915,51.958 235.874,51.97 "/>
<line class="ownerDeck" x1="265.956" y1="51.944" x2="265.942" y2="35.699"/>
<line class="ownerDeck" x1="251.299" y1="153.932" x2="251.286" y2="137.687"/>
<polyline class="ownerDeck" points="235.944,137.699 251.286,137.687 268.733,137.675 268.746,153.92 "/>
<line class="ownerDeck" x1="324.016" y1="55.505" x2="324" y2="35.953"/>
<line class="ownerDeck" x1="292.715" y1="35.978" x2="292.721" y2="43.499"/>
<line class="ownerDeck" x1="293.324" y1="44.101" x2="311.974" y2="44.085"/>
<line class="ownerDeck" x1="235.861" y1="36.026" x2="235.861" y2="36.026"/>
<line class="ownerDeck" x1="492.552" y1="152.828" x2="510.903" y2="152.813"/>
<line class="ownerDeck" x1="492.156" y1="36.416" x2="510.807" y2="36.401"/>
<line class="ownerDeck" x1="235.861" y1="36.026" x2="235.874" y2="51.97"/>
<line class="ownerDeck" x1="235.958" y1="153.646" x2="235.944" y2="137.699"/>
<line class="ownerDeck" x1="435.939" y1="80.381" x2="379.688" y2="80.427"/>
<line class="ownerDeck" x1="492.457" y1="36.415" x2="492.457" y2="36.415"/>
<line class="ownerDeck" x1="492.457" y1="36.415" x2="492.457" y2="36.415"/>
<line class="ownerDeck" x1="492.457" y1="36.415" x2="492.457" y2="36.415"/>
<line class="ownerDeck" x1="492.457" y1="36.415" x2="492.457" y2="36.415"/>
<line class="ownerDeck" x1="492.457" y1="36.415" x2="492.457" y2="36.415"/>
<line class="ownerDeck" x1="492.457" y1="36.415" x2="492.457" y2="36.415"/>
<line class="ownerDeck" x1="492.457" y1="36.415" x2="492.457" y2="36.415"/>
<line class="ownerDeck" x1="492.457" y1="36.415" x2="492.457" y2="36.415"/>
<line class="ownerDeck" x1="492.457" y1="36.415" x2="492.457" y2="36.415"/>
<line class="ownerDeck" x1="492.457" y1="36.415" x2="492.457" y2="36.415"/>
<line class="ownerDeck" x1="435.303" y1="36.463" x2="435.303" y2="36.463"/>
<line class="ownerDeck" x1="456.057" y1="36.446" x2="456.057" y2="36.446"/>
<line class="ownerDeck" x1="491.649" y1="152.529" x2="491.649" y2="152.529"/>
<path class="ownerDeck1" d="M491.649,152.529 M491.649,152.529"/>
<path class="ownerDeck2" d="M491.649,152.529 M491.649,152.529"/>
<line class="ownerDeck" x1="492.853" y1="152.828" x2="492.853" y2="152.828"/>
<line class="ownerDeck" x1="493.155" y1="152.828" x2="493.155" y2="152.828"/>
<line class="ownerDeck" x1="492.853" y1="152.828" x2="492.853" y2="152.828"/>
<line class="ownerDeck" x1="493.155" y1="152.828" x2="493.155" y2="152.828"/>
<line class="ownerDeck" x1="492.552" y1="152.828" x2="492.552" y2="152.828"/>
<line class="ownerDeck" x1="492.853" y1="152.828" x2="492.853" y2="152.828"/>
<line class="ownerDeck" x1="493.453" y1="152.828" x2="493.453" y2="152.828"/>
<line class="ownerDeck" x1="493.155" y1="152.828" x2="493.155" y2="152.828"/>
<line class="ownerDeck" x1="492.552" y1="152.828" x2="492.552" y2="152.828"/>
<line class="ownerDeck" x1="493.155" y1="152.828" x2="493.155" y2="152.828"/>
<line class="ownerDeck" x1="492.552" y1="152.828" x2="492.552" y2="152.828"/>
<line class="ownerDeck" x1="493.155" y1="152.828" x2="493.155" y2="152.828"/>
<line class="ownerDeck" x1="493.453" y1="152.828" x2="493.453" y2="152.828"/>
<line class="ownerDeck" x1="492.552" y1="152.828" x2="492.552" y2="152.828"/>
<line class="ownerDeck" x1="492.853" y1="152.828" x2="492.853" y2="152.828"/>
<line class="ownerDeck" x1="493.453" y1="152.828" x2="493.453" y2="152.828"/>
<line class="ownerDeck" x1="493.155" y1="152.828" x2="493.155" y2="152.828"/>
<line class="ownerDeck" x1="492.853" y1="152.828" x2="492.853" y2="152.828"/>
<line class="ownerDeck" x1="492.552" y1="152.828" x2="492.552" y2="152.828"/>
<line class="ownerDeck" x1="493.155" y1="152.828" x2="493.155" y2="152.828"/>
<line class="ownerDeck" x1="492.552" y1="152.828" x2="492.552" y2="152.828"/>
<line class="ownerDeck" x1="568.655" y1="148.556" x2="568.655" y2="148.556"/>
<path class="ownerDeck1" d="M581.886,143.432L581.886,143.432h0.301H581.886z M582.188,143.432h-0.301H582.188z"/>
<path class="ownerDeck2" d="M581.886,143.432L581.886,143.432h0.301H581.886z M582.188,143.432h-0.301H582.188z"/>
<line class="ownerDeck" x1="553.017" y1="152.779" x2="553.017" y2="152.779"/>
<polyline class="ownerDeck" points="275.585,56.148 268.365,56.154 275.585,56.148 "/>
<line class="ownerDeck" x1="155.031" y1="144.989" x2="155.022" y2="133.254"/>
<polyline class="ownerDeck" points="275.349,133.758 232.332,133.792 232.341,144.926 232.332,133.792 "/>
<line class="ownerDeck" x1="250.662" y1="109.111" x2="247.954" y2="109.116"/>
<path class="ownerDeck" d="M247.051,108.063c0.001,0.578,0.473,1.053,1.054,1.05"/>
<line class="ownerDeck" x1="247.052" y1="108.21" x2="247.029" y2="81.44"/>
<path class="ownerDeck" d="M248.082,80.234c-0.582,0.001-1.053,0.474-1.053,1.054"/>
<line class="ownerDeck" x1="247.931" y1="80.536" x2="250.638" y2="80.534"/>
<line class="ownerDeck" x1="250.665" y1="112.719" x2="250.665" y2="112.719"/>
<line class="ownerDeck" x1="251.567" y1="112.719" x2="251.567" y2="112.719"/>
<line class="ownerDeck" x1="250.665" y1="112.719" x2="250.665" y2="112.719"/>
<line class="ownerDeck" x1="250.664" y1="111.216" x2="250.662" y2="109.111"/>
<polyline class="ownerDeck" points="250.664,111.818 250.664,111.216 250.664,111.818 250.665,112.719 250.664,111.818 "/>
<line class="ownerDeck" x1="250.635" y1="76.925" x2="250.638" y2="80.534"/>
<line class="ownerDeck" x1="284.357" y1="112.692" x2="250.665" y2="112.719"/>
<line class="ownerDeck" x1="308.965" y1="44.087" x2="308.965" y2="44.087"/>
<path class="ownerDeck1" d="M511.214,167.254"/>
<path class="ownerDeck2" d="M511.214,167.254"/>
<path class="ownerDeck" d="M445.871,87.29"/>
<path class="ownerDeck" d="M464.522,87.274"/>
<line class="ownerDeck" x1="510.861" y1="101.375" x2="496.42" y2="101.39"/>
<path class="ownerDeck" d="M474.16,101.407"/>
<polyline class="ownerDeck" points="474.111,41.244 478.023,41.24 474.714,41.243 "/>
<line class="ownerDeck" x1="496.372" y1="41.226" x2="492.161" y2="41.229"/>
<line class="ownerDeck" x1="492.161" y1="41.229" x2="492.158" y2="39.124"/>
<line class="ownerDeck" x1="455.771" y1="54.194" x2="455.771" y2="54.194"/>
<line class="ownerDeck" x1="474.141" y1="76.74" x2="474.148" y2="87.267"/>
<line class="ownerDeck" x1="474.141" y1="77.042" x2="474.141" y2="77.042"/>
<line class="ownerDeck" x1="474.141" y1="76.74" x2="474.134" y2="69.82"/>
<line class="ownerDeck" x1="496.105" y1="83.64" x2="496.105" y2="83.64"/>
<line class="ownerDeck" x1="466.001" y1="57.493" x2="466.001" y2="57.493"/>
<line class="ownerDeck" x1="466.302" y1="57.493" x2="466.302" y2="57.493"/>
<line class="ownerDeck" x1="466.603" y1="57.493" x2="466.603" y2="57.493"/>
<line class="ownerDeck" x1="466.904" y1="57.493" x2="466.904" y2="57.493"/>
<line class="ownerDeck" x1="467.206" y1="57.493" x2="467.206" y2="57.493"/>
<line class="ownerDeck" x1="467.507" y1="57.491" x2="467.507" y2="57.491"/>
<line class="ownerDeck" x1="467.808" y1="57.491" x2="467.808" y2="57.491"/>
<line class="ownerDeck" x1="468.408" y1="57.491" x2="468.408" y2="57.491"/>
<line class="ownerDeck" x1="468.709" y1="57.49" x2="468.709" y2="57.49"/>
<line class="ownerDeck" x1="469.01" y1="57.49" x2="469.01" y2="57.49"/>
<line class="ownerDeck" x1="469.311" y1="57.49" x2="469.311" y2="57.49"/>
<line class="ownerDeck" x1="469.612" y1="57.49" x2="469.612" y2="57.49"/>
<polyline class="ownerDeck" points="470.515,57.489 470.515,57.489 470.214,57.489 "/>
<line class="ownerDeck" x1="470.814" y1="57.489" x2="470.814" y2="57.489"/>
<line class="ownerDeck" x1="471.717" y1="57.488" x2="471.717" y2="57.488"/>
<line class="ownerDeck" x1="472.018" y1="57.488" x2="472.018" y2="57.488"/>
<line class="ownerDeck" x1="472.319" y1="57.488" x2="472.319" y2="57.488"/>
<line class="ownerDeck" x1="472.62" y1="57.488" x2="472.62" y2="57.488"/>
<line class="ownerDeck" x1="465.1" y1="57.494" x2="465.1" y2="57.494"/>
<polyline class="ownerDeck" points="474.111,42.747 474.111,42.747 474.111,43.349 474.124,57.487 "/>
<path class="ownerDeck" d="M474.124,57.487"/>
<path class="ownerDeck" d="M474.119,49.665"/>
<line class="ownerDeck" x1="474.111" y1="42.747" x2="474.111" y2="41.244"/>
<line class="ownerDeck" x1="466.327" y1="87.273" x2="466.312" y2="69.826"/>
<polyline class="ownerDeck" points="503.625,83.634 496.406,83.64 503.926,83.634 503.914,70.097 "/>
<line class="ownerDeck" x1="495.505" y1="83.64" x2="496.406" y2="83.64"/>
<line class="ownerDeck" x1="503.926" y1="83.634" x2="503.914" y2="69.795"/>
<line class="ownerDeck" x1="496.406" y1="83.64" x2="496.406" y2="83.64"/>
<polyline class="ownerDeck" points="496.372,42.729 503.892,42.722 503.904,57.462 "/>
<polyline class="ownerDeck" points="465.1,57.494 465.1,57.193 465.1,57.494 "/>
<line class="ownerDeck" x1="496.384" y1="57.468" x2="496.372" y2="42.729"/>
<polyline class="ownerDeck" points="495.505,83.64 495.505,83.941 495.505,83.64 "/>
<line class="ownerDeck" x1="495.505" y1="84.842" x2="495.505" y2="84.842"/>
<polyline class="ownerDeck" points="496.372,42.729 496.372,41.226 496.372,42.729 "/>
<line class="ownerDeck" x1="456.057" y1="36.446" x2="456.072" y2="54.194"/>
<path class="ownerDeck" d="M456.072,53.592"/>
<path class="ownerDeck" d="M456.072,54.194"/>
<line class="ownerDeck" x1="474.175" y1="119.155" x2="474.175" y2="119.155"/>
<line class="ownerDeck" x1="435.068" y1="114.073" x2="435.068" y2="114.073"/>
<line class="ownerDeck" x1="435.068" y1="114.974" x2="435.068" y2="114.974"/>
<path class="ownerDeck" d="M474.175,119.155"/>
<polyline class="ownerDeck" points="495.845,131.77 495.845,131.77 503.965,131.765 "/>
<path class="ownerDeck" d="M474.185,132.091"/>
<line class="ownerDeck" x1="465.164" y1="131.797" x2="465.164" y2="131.797"/>
<polyline class="ownerDeck" points="474.185,131.79 464.562,131.797 474.185,131.79 "/>
<line class="ownerDeck" x1="474.175" y1="119.155" x2="474.175" y2="119.155"/>
<polyline class="ownerDeck" points="503.941,101.382 503.955,119.131 496.435,119.138 "/>
<polyline class="ownerDeck" points="465.475,146.536 479.01,146.527 465.475,146.536 "/>
<line class="ownerDeck" x1="503.982" y1="152.821" x2="503.965" y2="131.765"/>
<path class="ownerDeck" d="M474.175,118.252"/>
<path class="ownerDeck" d="M496.435,119.138"/>
<line class="ownerDeck" x1="503.965" y1="131.765" x2="495.845" y2="131.77"/>
<path class="ownerDeck" d="M495.845,131.77"/>
<line class="ownerDeck" x1="474.185" y1="131.79" x2="474.197" y2="146.529"/>
<line class="ownerDeck" x1="435.085" y1="136.333" x2="435.097" y2="153.178"/>
<line class="ownerDeck" x1="479.01" y1="146.527" x2="479.015" y2="153.141"/>
<polyline class="ownerDeck" points="491.649,150.424 491.649,152.831 491.644,146.816 "/>
<polyline class="ownerDeck" points="379.691,83.737 379.689,82.232 379.691,83.737 "/>
<polyline class="ownerDeck" points="379.693,87.345 379.392,87.345 379.693,87.345 379.691,83.737 379.693,87.345 "/>
<polyline class="ownerDeck" points="413.082,83.107 413.084,87.317 413.082,83.107 "/>
<line class="ownerDeck" x1="413.084" y1="87.317" x2="413.084" y2="87.317"/>
<line class="ownerDeck" x1="396.839" y1="87.331" x2="396.839" y2="87.331"/>
<line class="ownerDeck" x1="413.383" y1="87.317" x2="413.383" y2="87.317"/>
<line class="ownerDeck" x1="429.327" y1="87.304" x2="429.327" y2="87.304"/>
<line class="ownerDeck" x1="387.227" y1="103.285" x2="387.226" y2="101.781"/>
<polyline class="ownerDeck" points="396.536,83.12 408.568,83.11 396.536,83.12 "/>
<polyline class="ownerDeck" points="423.307,83.098 429.325,83.093 423.307,83.098 "/>
<polyline class="ownerDeck" points="408.568,83.11 423.307,83.098 408.568,83.11 "/>
<line class="ownerDeck" x1="464.549" y1="119.163" x2="464.549" y2="119.163"/>
<line class="ownerDeck" x1="435.058" y1="104.447" x2="435.058" y2="104.447"/>
<line class="ownerDeck" x1="435.332" y1="72.86" x2="435.303" y2="36.162"/>
<path class="ownerDeck" d="M510.903,152.813"/>
<path class="ownerDeck" d="M510.861,101.375"/>
<line class="ownerDeck" x1="435.068" y1="115.576" x2="435.068" y2="115.576"/>
<line class="ownerDeck" x1="464.549" y1="119.163" x2="464.535" y2="101.414"/>
<line class="ownerDeck" x1="435.317" y1="54.512" x2="435.317" y2="54.512"/>
<line class="ownerDeck" x1="435.332" y1="72.86" x2="435.332" y2="72.86"/>
<line class="ownerDeck" x1="435.332" y1="72.559" x2="435.332" y2="72.559"/>
<line class="ownerDeck" x1="435.332" y1="71.959" x2="435.332" y2="71.959"/>
<polyline class="ownerDeck" points="435.944,87.299 435.934,72.86 435.944,87.299 "/>
<line class="ownerDeck" x1="465.083" y1="36.331" x2="465.1" y2="57.494"/>
<path class="ownerDeck" d="M464.549,119.163"/>
<line class="ownerDeck" x1="399.561" y1="104.477" x2="399.561" y2="104.477"/>
<line class="ownerDeck" x1="399.559" y1="101.769" x2="399.567" y2="111.696"/>
<line class="ownerDeck" x1="143.272" y1="112.509" x2="143.259" y2="95.362"/>
<line class="ownerDeck" x1="143.259" y1="95.362" x2="143.244" y2="77.315"/>
<line class="ownerDeck" x1="143.258" y1="94.461" x2="143.258" y2="94.461"/>
<line class="ownerDeck" x1="143.228" y1="59.265" x2="143.244" y2="77.613"/>
<line class="ownerDeck" x1="143.272" y1="112.21" x2="143.288" y2="130.556"/>
<line class="ownerDeck" x1="143.287" y1="129.356" x2="143.287" y2="129.356"/>
<line class="ownerDeck" x1="143.272" y1="112.21" x2="143.272" y2="112.21"/>
<polyline class="ownerDeck" points="549.105,152.784 547.903,152.784 549.105,152.784 "/>
<line class="ownerDeck" x1="528.855" y1="36.386" x2="549.31" y2="36.369"/>
<line class="ownerDeck" x1="528.855" y1="36.386" x2="510.807" y2="36.401"/>
<polyline class="ownerDeck" points="528.95,152.799 510.903,152.813 528.95,152.799 546.999,152.784 "/>
<line class="ownerDeck" x1="382.375" y1="55.156" x2="382.365" y2="43.726"/>
<line class="ownerDeck" x1="386.087" y1="55.152" x2="389.585" y2="44.922"/>
<line class="ownerDeck" x1="389.294" y1="56.957" x2="399.823" y2="56.948"/>
<line class="ownerDeck" x1="389.299" y1="62.671" x2="399.828" y2="62.662"/>
<line class="ownerDeck" x1="399.833" y1="68.378" x2="386.898" y2="68.389"/>
<line class="ownerDeck" x1="399.838" y1="74.395" x2="386.902" y2="74.406"/>
<path class="ownerDeck" d="M387.949,67.786c0.748,0,1.354-0.606,1.352-1.355"/>
<line class="ownerDeck" x1="389.301" y1="66.582" x2="389.294" y2="56.655"/>
<path class="ownerDeck" d="M389.294,56.504c-0.001-0.747-0.607-1.353-1.355-1.353"/>
<path class="ownerDeck" d="M379.818,55.159c-0.748,0-1.354,0.607-1.352,1.354"/>
<line class="ownerDeck" x1="378.465" y1="56.664" x2="378.473" y2="66.591"/>
<path class="ownerDeck" d="M378.473,66.439c0.001,0.749,0.607,1.354,1.355,1.352"/>
<line class="ownerDeck" x1="379.677" y1="67.793" x2="388.099" y2="67.786"/>
<path class="ownerDeck" d="M382.365,43.276"/>
<line class="ownerDeck" x1="386.906" y1="80.443" x2="386.896" y2="67.787"/>
<line class="ownerDeck" x1="383.869" y1="44.927" x2="399.813" y2="44.914"/>
<path class="ownerDeck" d="M389.301,66.582"/>
<path class="ownerDeck" d="M389.294,56.655"/>
<path class="ownerDeck" d="M399.841,78.606"/>
<path class="ownerDeck" d="M379.687,78.623"/>
<path class="ownerDeck" d="M389.294,56.504c-0.001-0.747-0.607-1.353-1.355-1.353"/>
<path class="ownerDeck" d="M378.473,66.439c0.001,0.749,0.607,1.354,1.355,1.352"/>
<path class="ownerDeck" d="M388.099,67.786"/>
<path class="ownerDeck" d="M379.677,67.793"/>
<path class="ownerDeck" d="M379.818,55.159c-0.748,0-1.354,0.607-1.352,1.354"/>
<line class="ownerDeck" x1="379.818" y1="55.159" x2="387.939" y2="55.151"/>
<line class="ownerDeck" x1="382.359" y1="36.206" x2="382.365" y2="43.425"/>
<path class="ownerDeck" d="M382.365,43.276c0,0.747,0.758,1.651,1.504,1.651"/>
<line class="ownerDeck" x1="383.869" y1="44.927" x2="399.813" y2="44.914"/>
<line class="ownerDeck" x1="369.162" y1="83.445" x2="369.162" y2="83.445"/>
<line class="ownerDeck" x1="379.691" y1="83.135" x2="379.691" y2="83.135"/>
<line class="ownerDeck" x1="379.689" y1="82.834" x2="379.689" y2="82.834"/>
<line class="ownerDeck" x1="379.688" y1="80.427" x2="379.688" y2="80.427"/>
<line class="ownerDeck" x1="379.689" y1="82.232" x2="379.688" y2="81.331"/>
<line class="ownerDeck" x1="368.858" y1="80.436" x2="368.858" y2="80.436"/>
<line class="ownerDeck" x1="369.159" y1="80.436" x2="369.159" y2="80.436"/>
<polyline class="ownerDeck" points="369.159,80.436 369.159,81.339 369.16,82.24 "/>
<line class="ownerDeck" x1="379.688" y1="81.331" x2="379.688" y2="80.427"/>
<line class="ownerDeck" x1="400.178" y1="122.225" x2="400.178" y2="122.225"/>
<line class="ownerDeck" x1="400.178" y1="121.924" x2="400.178" y2="121.924"/>
<line class="ownerDeck" x1="400.177" y1="121.021" x2="400.177" y2="121.021"/>
<line class="ownerDeck" x1="400.178" y1="121.924" x2="400.178" y2="121.924"/>
<line class="ownerDeck" x1="400.177" y1="120.72" x2="400.177" y2="120.72"/>
<line class="ownerDeck" x1="400.178" y1="122.524" x2="400.178" y2="122.524"/>
<line class="ownerDeck" x1="400.177" y1="121.322" x2="400.177" y2="121.322"/>
<line class="ownerDeck" x1="400.178" y1="122.524" x2="400.178" y2="122.524"/>
<path class="ownerDeck" d="M103.52,57.193"/>
<path class="ownerDeck" d="M117.056,57.182"/>
<polyline class="ownerDeck" points="117.056,56.58 117.05,50.261 102.618,56.592 116.142,42.742 117.044,42.741 "/>
<path class="ownerDeck" d="M86.374,56.605"/>
<path class="ownerDeck" d="M86.362,42.767"/>
<line class="ownerDeck" x1="85.771" y1="56.605" x2="83.666" y2="56.607"/>
<line class="ownerDeck" x1="83.654" y1="42.768" x2="85.759" y2="42.767"/>
<path class="ownerDeck" d="M89.682,56.602"/>
<path class="ownerDeck" d="M89.67,42.763"/>
<polyline class="ownerDeck" points="89.081,56.603 85.771,56.605 85.759,42.767 89.069,42.764 "/>
<path class="ownerDeck" d="M92.991,56.599"/>
<path class="ownerDeck" d="M92.978,42.761"/>
<polyline class="ownerDeck" points="92.39,56.601 89.081,56.603 89.069,42.764 92.378,42.762 "/>
<path class="ownerDeck" d="M96.3,56.597"/>
<path class="ownerDeck" d="M96.288,42.758"/>
<polyline class="ownerDeck" points="95.686,42.758 92.378,42.762 92.39,56.601 95.698,56.597 "/>
<path class="ownerDeck" d="M99.308,56.594"/>
<path class="ownerDeck" d="M99.296,42.756"/>
<polyline class="ownerDeck" points="98.996,42.756 95.686,42.758 95.698,56.597 99.008,56.594 "/>
<path class="ownerDeck" d="M102.618,56.592"/>
<path class="ownerDeck" d="M102.606,42.753"/>
<polyline class="ownerDeck" points="102.015,56.592 99.008,56.594 98.996,42.756 102.003,42.753 "/>
<polyline class="ownerDeck" points="102.317,56.592 102.015,56.592 102.003,42.753 108.32,42.748 "/>
<path class="ownerDeck" d="M109.224,42.747"/>
<path class="ownerDeck" d="M102.918,56.591"/>
<line class="ownerDeck" x1="108.021" y1="43.35" x2="108.021" y2="43.35"/>
<polyline class="ownerDeck" points="102.618,56.592 102.317,56.592 108.32,42.748 116.142,42.742 "/>
<path class="ownerDeck" d="M117.044,43.042"/>
<path class="ownerDeck" d="M103.219,56.591"/>
<path class="ownerDeck" d="M103.52,56.892"/>
<path class="ownerDeck" d="M117.051,50.864"/>
<path class="ownerDeck" d="M117.059,60.489"/>
<path class="ownerDeck" d="M103.522,60.5"/>
<polyline class="ownerDeck" points="117.059,59.887 117.056,56.58 103.52,56.591 103.522,59.898 "/>
<polyline class="ownerDeck" points="103.526,63.81 103.522,59.898 117.059,59.887 117.063,63.799 103.526,63.81 "/>
<line class="ownerDeck" x1="382.359" y1="36.507" x2="382.359" y2="36.507"/>
<line class="ownerDeck" x1="275.349" y1="133.758" x2="275.34" y2="123.53"/>
<line class="ownerDeck" x1="275.342" y1="125.334" x2="275.342" y2="125.334"/>
<line class="ownerDeck" x1="149.302" y1="126.041" x2="143.285" y2="126.046"/>
<line class="ownerDeck" x1="284.966" y1="123.523" x2="275.34" y2="123.53"/>
<line class="ownerDeck" x1="284.357" y1="112.692" x2="284.352" y2="106.979"/>
<line class="ownerDeck" x1="286.137" y1="85.618" x2="296.365" y2="85.61"/>
<line class="ownerDeck" x1="284.968" y1="127.133" x2="308.733" y2="127.114"/>
<line class="ownerDeck" x1="369.163" y1="85.249" x2="367.659" y2="85.25"/>
<line class="ownerDeck" x1="360.74" y1="85.255" x2="307.797" y2="85.299"/>
<line class="ownerDeck" x1="155.031" y1="144.989" x2="232.341" y2="144.926"/>
<line class="ownerDeck" x1="250.635" y1="76.925" x2="286.13" y2="76.896"/>
<line class="ownerDeck" x1="275.585" y1="56.148" x2="275.595" y2="66.978"/>
<polyline class="ownerDeck" points="400.177,120.72 400.178,122.524 417.023,122.509 "/>
<line class="ownerDeck" x1="495.818" y1="146.813" x2="495.845" y2="131.77"/>
<line class="ownerDeck" x1="496.435" y1="119.138" x2="496.435" y2="119.138"/>
<line class="ownerDeck" x1="464.571" y1="146.536" x2="465.475" y2="146.536"/>
<line class="ownerDeck" x1="474.175" y1="119.155" x2="474.175" y2="119.155"/>
<line class="ownerDeck" x1="417.027" y1="126.12" x2="439.288" y2="126.1"/>
<line class="ownerDeck" x1="435.068" y1="115.877" x2="435.055" y2="101.74"/>
<polyline class="ownerDeck" points="495.505,83.941 495.505,84.842 495.507,87.249 510.849,87.237 510.807,36.401 "/>
<polyline class="ownerDeck" points="496.406,83.64 496.393,69.802 503.914,69.795 "/>
<line class="ownerDeck" x1="474.124" y1="57.487" x2="465.1" y2="57.494"/>
<line class="ownerDeck" x1="474.111" y1="42.747" x2="465.088" y2="42.754"/>
<line class="ownerDeck" x1="474.148" y1="87.267" x2="379.693" y2="87.345"/>
<line class="ownerDeck" x1="474.134" y1="69.82" x2="466.312" y2="69.826"/>
<line class="ownerDeck" x1="453.665" y1="54.197" x2="456.072" y2="54.194"/>
<line class="ownerDeck" x1="435.934" y1="72.86" x2="453.981" y2="72.844"/>
<line class="ownerDeck" x1="444.341" y1="54.204" x2="435.317" y2="54.211"/>
<line class="ownerDeck" x1="435.934" y1="72.86" x2="435.332" y2="72.86"/>
<line class="ownerDeck" x1="396.536" y1="83.12" x2="396.538" y2="87.331"/>
<line class="ownerDeck" x1="369.163" y1="85.249" x2="369.159" y2="80.436"/>
<path class="ownerDeck" d="M379.688,80.427"/>
<line class="ownerDeck" x1="117.05" y1="50.261" x2="117.044" y2="42.741"/>
<line class="ownerDeck" x1="284.966" y1="123.523" x2="284.968" y2="127.133"/>
<line class="ownerDeck" x1="308.755" y1="153.886" x2="308.748" y2="144.26"/>
<line class="ownerDeck" x1="308.74" y1="135.234" x2="308.733" y2="127.114"/>
<polyline class="ownerDeck" points="307.797,85.299 307.815,106.959 297.286,106.967 "/>
<line class="ownerDeck" x1="360.754" y1="101.801" x2="387.226" y2="101.781"/>
<polyline class="ownerDeck" points="399.559,101.769 464.535,101.414 474.16,101.407 "/>
<polyline class="ownerDeck" points="464.562,131.797 464.571,146.536 464.576,153.154 "/>
<line class="ownerDeck" x1="491.644" y1="146.816" x2="503.977" y2="146.806"/>
<line class="ownerDeck" x1="496.384" y1="57.468" x2="503.904" y2="57.462"/>
<path class="ownerDeck" d="M496.42,101.39"/>
<line class="ownerDeck" x1="492.158" y1="39.124" x2="492.156" y2="36.416"/>
<line class="ownerDeck" x1="235.944" y1="137.699" x2="235.944" y2="137.699"/>
<line class="ownerDeck" x1="546.999" y1="152.784" x2="547.903" y2="152.784"/>
<line class="ownerDeck" x1="549.105" y1="152.784" x2="549.707" y2="152.784"/>
<line class="ownerDeck" x1="503.955" y1="119.131" x2="503.965" y2="131.765"/>
<line class="ownerDeck" x1="503.904" y1="57.462" x2="503.914" y2="70.097"/>
<line class="ownerDeck" x1="268.365" y1="56.154" x2="232.267" y2="56.183"/>
<line class="ownerDeck" x1="284.612" y1="58.848" x2="284.62" y2="66.97"/>
<line class="ownerDeck" x1="286.151" y1="101.561" x2="286.156" y2="106.976"/>
<polyline class="ownerDeck" points="296.379,101.554 296.384,106.969 297.286,106.967 "/>
<line class="ownerDeck" x1="286.156" y1="106.976" x2="284.352" y2="106.979"/>
<line class="ownerDeck" x1="286.137" y1="85.618" x2="286.13" y2="76.896"/>
<line class="ownerDeck" x1="296.365" y1="85.61" x2="296.362" y2="80.496"/>
<polyline class="ownerDeck" points="284.935,86.523 284.948,100.962 286.151,100.959 286.151,101.561 "/>
<polyline class="ownerDeck" points="367.659,85.25 367.663,90.966 360.745,90.971 360.74,85.255 "/>
<line class="ownerDeck" x1="360.789" y1="143.915" x2="360.796" y2="153.54"/>
<line class="ownerDeck" x1="725.985" y1="152.637" x2="732" y2="151.731"/>
<path class="ownerDeck" d="M399.806,36.191"/>
<path class="ownerDeck" d="M399.843,80.41"/>
<polyline class="ownerDeck" points="330.105,143.942 323.488,143.946 323.496,153.873 "/>
<line class="ownerDeck" x1="312.587" y1="58.825" x2="322.815" y2="58.816"/>
<line class="ownerDeck" x1="322.823" y1="66.939" x2="312.595" y2="66.947"/>
<path class="ownerDeck" d="M369.424,35.916"/>
<path class="ownerDeck" d="M364.309,35.919"/>
<path class="ownerDeck" d="M382.359,36.206"/>
<path class="ownerDeck" d="M378.748,36.208"/>
<line class="ownerDeck" x1="510.861" y1="101.375" x2="510.903" y2="152.813"/>
<line class="ownerDeck" x1="496.435" y1="119.138" x2="496.42" y2="101.39"/>
<line class="ownerDeck" x1="474.175" y1="119.155" x2="474.16" y2="101.407"/>
<line class="ownerDeck" x1="474.175" y1="119.155" x2="464.549" y2="119.163"/>
<line class="ownerDeck" x1="297.883" y1="100.949" x2="297.871" y2="86.512"/>
<line class="ownerDeck" x1="399.838" y1="74.395" x2="399.806" y2="36.191"/>
<line class="ownerDeck" x1="399.838" y1="74.395" x2="399.843" y2="80.41"/>
</svg>
