<?xml version="1.0" encoding="utf-8"?>
<!-- Generator: Adobe Illustrator 25.0.0, SVG Export Plug-In . SVG Version: 6.00 Build 0)  -->
<svg version="1.0" id="Layer_1" xmlns="http://www.w3.org/2000/svg" xmlns:xlink="http://www.w3.org/1999/xlink" x="0px" y="0px"
	 viewBox="0 0 895 190" style="enable-background:new 0 0 895 190;" xml:space="preserve">
<polyline class="frame" points="471.204,161.808 456.164,161.82 433.602,161.839 404.123,161.863 368.326,161.592 350.275,161.006
	332.528,160.72 314.478,160.433 296.729,159.846 278.681,159.26 260.931,158.374 242.882,157.786 224.833,156.596 211.596,156.007
	209.189,155.709 208.287,155.709 207.084,155.71 206.18,155.41 204.976,155.41 204.677,155.411 204.074,155.411 203.473,155.11
	203.172,155.111 202.57,155.111 202.27,155.111 201.969,155.111 201.367,154.812 201.067,154.812 200.465,154.812 200.164,154.813
	199.862,154.813 199.563,154.813 199.563,154.512 199.261,154.512 198.96,154.512 198.659,154.513 198.359,154.513 198.358,154.212
	198.057,154.212 197.756,154.212 197.455,154.212 197.155,154.213 197.155,153.912 196.854,153.912 196.553,153.912
	196.553,153.613 196.252,153.613 195.952,153.613 195.952,153.312 195.651,153.313 195.349,153.313 195.349,153.012
	195.048,153.012 195.047,152.711 194.746,152.711 194.446,152.712 194.446,152.411 194.145,152.411 194.145,152.11 193.844,152.11
	193.844,151.809 193.544,151.809 193.544,151.508 193.243,151.508 193.242,151.207 192.941,151.208 192.941,150.909 192.64,150.909
	192.64,150.608 192.64,150.307 192.338,150.307 192.338,150.006 192.038,150.006 192.037,149.705 191.736,149.404 191.736,149.103
	191.435,148.803 191.435,148.504 191.135,148.504 191.134,148.203 191.134,147.902 190.833,147.902 190.833,147.601 190.833,147.3
	190.532,146.999 190.531,146.698 190.229,146.396 190.229,146.098 190.229,145.797 189.928,145.798 189.928,145.497
	189.927,145.196 189.627,144.895 189.627,144.292 189.326,143.991 189.325,143.69 189.024,143.391 189.024,143.09 189.024,142.488
	188.721,142.187 188.721,141.886 188.422,141.586 188.422,140.986 188.42,140.685 188.119,140.384 188.119,139.782 187.818,139.481
	187.817,138.879 187.817,138.58 187.516,137.978 187.515,137.676 187.515,137.074 187.213,136.773 187.212,136.171 187.212,135.872
	186.912,135.271 186.911,134.669 186.911,134.368 186.61,133.766 186.609,133.467 186.609,132.865 186.609,132.564 186.306,131.962
	186.306,131.359 186.306,131.061 186.305,130.458 186.005,130.157 186.005,129.555 186.004,128.652 186.004,127.751 185.7,125.646
	185.397,122.036 184.791,118.127 184.79,116.021 184.487,114.214 184.486,112.41 184.184,110.305 184.183,109.402 184.183,108.501
	184.182,107.597 184.18,106.393 183.878,104.59 183.877,102.786 183.874,100.681 183.873,98.874 183.872,96.769 183.87,94.964
	183.868,93.16 183.867,91.052 183.866,89.248 183.863,87.143 183.862,85.339 184.162,83.531 184.161,82.329 184.16,81.426
	184.16,80.525 184.158,79.621 184.458,77.516 184.456,75.712 184.754,73.905 184.753,71.8 185.352,68.191 185.65,64.278
	185.949,62.173 185.949,61.269 185.948,60.369 185.948,59.766 186.248,59.465 186.246,58.863 186.246,58.562 186.246,57.962
	186.546,57.36 186.546,57.059 186.545,56.457 186.545,56.156 186.846,55.556 186.845,54.954 186.845,54.653 187.145,54.049
	187.145,53.748 187.144,53.148 187.445,52.847 187.445,52.245 187.443,51.944 187.745,51.342 187.745,51.04 187.744,50.441
	188.045,50.14 188.045,49.537 188.346,49.236 188.344,48.935 188.344,48.634 188.644,48.033 188.644,47.732 188.944,47.431
	188.944,47.13 188.944,46.528 189.245,46.226 189.244,45.925 189.545,45.627 189.545,45.024 189.845,44.723 189.844,44.422
	189.844,44.121 190.145,44.12 190.145,43.819 190.145,43.518 190.446,43.219 190.445,42.918 190.746,42.617 190.746,42.316
	190.746,42.015 191.047,42.015 191.047,41.713 191.046,41.412 191.346,41.412 191.346,41.111 191.647,40.811 191.647,40.51
	191.948,40.209 191.947,39.908 192.247,39.908 192.247,39.607 192.548,39.607 192.548,39.306 192.548,39.005 192.849,39.005
	192.849,38.704 193.15,38.702 193.149,38.401 193.45,38.401 193.45,38.102 193.75,38.102 193.75,37.801 194.051,37.801
	194.051,37.5 194.352,37.5 194.65,37.198 194.952,37.198 194.952,36.897 195.253,36.897 195.253,36.596 195.554,36.596
	195.855,36.596 195.855,36.295 196.155,36.294 196.456,36.294 196.456,35.992 196.757,35.992 197.058,35.992 197.358,35.992
	197.357,35.694 197.658,35.692 197.959,35.692 198.26,35.692 198.56,35.391 198.861,35.39 199.162,35.39 199.464,35.39
	199.763,35.089 200.064,35.089 200.365,35.088 200.968,35.088 201.268,35.088 201.87,34.785 202.171,34.785 202.471,34.785
	203.073,34.785 203.374,34.784 203.975,34.784 204.577,34.483 204.877,34.482 206.08,34.482 206.983,34.18 208.186,34.178
	209.088,34.178 211.494,33.875 224.731,33.264 242.778,32.346 260.827,31.428 278.574,30.512 296.623,29.894 314.37,29.279
	332.419,28.962 350.166,28.646 368.215,28.33 404.012,27.701 403.711,27.701 "/>
<polyline class="frame" points="351.969,25.337 337.53,25.349 321.286,25.363 305.342,25.678 297.221,25.982 289.098,26.291
	281.277,26.297 273.157,26.905 265.034,27.214 257.214,27.521 249.091,27.829 240.971,28.435 233.15,29.044 228.938,29.348
	225.027,29.653 221.117,29.957 216.907,30.563 212.996,30.865 209.085,31.17 204.875,31.774 200.965,32.079 199.16,32.381
	198.258,32.383 197.355,32.685 196.452,32.685 195.551,32.987 194.348,32.989 193.446,33.29 192.543,33.291 191.641,33.589
	191.339,33.591 190.739,33.591 190.136,33.892 189.835,33.893 189.234,33.893 188.933,33.893 188.332,34.195 187.73,34.195
	187.429,34.195 187.129,34.497 186.829,34.498 186.528,34.498 186.227,34.498 186.227,34.799 185.927,34.799 185.626,34.799
	185.325,34.8 185.024,35.101 184.723,35.101 184.423,35.101 184.423,35.402 184.121,35.402 183.82,35.404 183.521,35.705
	183.219,35.705 182.92,36.003 182.618,36.003 182.317,36.306 182.017,36.306 182.017,36.607 181.716,36.607 181.415,36.908
	181.114,36.908 180.814,37.21 180.513,37.21 180.514,37.511 180.213,37.511 180.213,37.812 179.912,37.812 179.912,38.113
	179.611,38.113 179.611,38.412 179.311,38.414 179.01,38.414 179.011,38.715 178.71,39.016 178.71,39.317 178.41,39.317
	178.109,39.619 178.109,39.92 177.808,39.92 177.809,40.221 177.508,40.221 177.508,40.522 177.207,40.824 177.207,41.122
	176.907,41.122 176.907,41.423 176.908,41.725 176.607,41.726 176.607,42.027 176.306,42.027 176.306,42.328 176.306,42.629
	176.006,42.629 176.006,42.93 176.007,43.231 175.706,43.231 175.706,43.53 175.706,43.831 175.405,43.831 175.405,44.132
	175.405,44.433 175.106,44.735 175.106,45.037 174.804,45.338 174.804,45.639 174.504,45.937 174.506,46.238 174.506,46.54
	174.506,46.841 174.205,47.142 174.205,47.443 173.905,47.744 173.905,48.045 173.905,48.346 173.905,48.645 173.603,48.646
	173.603,48.947 173.605,49.248 173.605,49.549 173.605,49.851 173.305,50.152 173.305,50.453 173.306,51.053 173.005,51.354
	173.005,51.956 173.006,52.257 172.705,52.859 172.705,53.16 172.706,53.76 172.405,54.061 172.405,54.362 172.405,54.965
	172.406,55.266 172.105,55.869 172.105,56.168 172.107,57.071 171.808,57.975 171.808,58.875 171.809,59.779 171.508,60.682
	171.209,62.486 170.912,66.095 170.613,69.707 170.316,73.318 170.016,75.122 170.017,76.926 169.718,78.73 169.72,80.537
	169.421,82.341 169.422,84.145 169.424,85.952 169.426,87.756 169.126,89.562 169.127,91.366 169.129,93.172 169.13,94.977
	169.132,96.781 169.133,98.585 169.135,100.392 169.437,102.195 169.439,103.999 169.441,105.806 169.442,107.61 169.743,109.414
	169.744,111.218 170.048,113.025 170.049,114.829 170.351,116.633 170.656,120.244 170.96,123.851 171.262,127.462 171.566,129.266
	171.867,130.17 171.868,131.073 171.868,131.974 172.169,132.877 172.17,133.778 172.17,134.079 172.471,134.68 172.471,134.981
	172.473,135.584 172.473,135.885 172.775,136.484 172.775,136.785 172.775,137.388 173.076,137.689 173.077,137.99 173.077,138.592
	173.378,138.891 173.38,139.493 173.38,139.794 173.679,140.095 173.679,140.396 173.679,140.697 173.681,140.999 173.681,141.297
	173.982,141.296 173.982,141.597 173.982,141.898 173.982,142.199 174.284,142.5 174.284,142.802 174.585,143.103 174.585,143.404
	174.585,143.702 174.586,144.003 174.886,144.305 174.886,144.606 175.187,144.907 175.187,145.208 175.49,145.508 175.49,145.809
	175.49,146.11 175.791,146.11 175.791,146.409 175.791,146.71 176.092,146.71 176.093,147.011 176.093,147.312 176.393,147.312
	176.393,147.613 176.393,147.914 176.694,147.913 176.694,148.214 176.997,148.515 176.997,148.814 177.296,148.814
	177.296,149.115 177.598,149.416 177.598,149.717 177.899,149.717 177.9,150.018 178.201,150.017 178.201,150.318 178.502,150.619
	178.802,150.92 178.802,151.219 179.103,151.219 179.104,151.52 179.405,151.52 179.705,151.82 180.006,151.82 180.006,152.121
	180.308,152.422 180.609,152.422 180.609,152.724 180.91,152.724 181.211,153.023 181.512,153.023 181.512,153.324 181.813,153.324
	182.114,153.324 182.114,153.625 182.414,153.625 182.715,153.923 183.016,153.923 183.317,154.224 183.619,154.224 183.92,154.525
	184.221,154.524 184.522,154.825 184.822,154.825 185.123,154.825 185.123,155.126 185.424,155.126 185.725,155.125
	186.026,155.125 186.326,155.426 186.627,155.426 186.928,155.426 187.229,155.726 187.53,155.726 187.831,155.726 188.434,155.726
	189.035,156.026 189.336,156.026 189.937,156.026 190.238,156.323 190.84,156.323 191.441,156.323 191.742,156.623 192.644,156.623
	193.548,156.622 194.45,156.922 195.653,156.922 196.556,157.222 197.459,157.22 198.362,157.522 199.264,157.52 201.069,157.82
	204.979,158.118 209.192,158.715 213.103,159.012 217.013,159.31 221.224,159.908 225.136,160.207 229.047,160.505 233.259,160.802
	241.08,161.396 249.203,161.992 257.325,162.285 265.145,162.58 273.269,163.175 281.391,163.47 289.212,163.464 297.335,163.755
	305.456,164.05 321.4,164.338 337.644,164.325 352.083,164.312 "/>
<line class="frame" x1="403.822" y1="161.863" x2="404.123" y2="161.863"/>
<line class="frame" x1="195.046" y1="150.305" x2="195.046" y2="150.305"/>
<polyline class="frame" points="351.668,25.337 352.27,25.337 353.172,25.336 353.773,25.035 354.675,25.034 355.878,25.033
	357.082,24.731 358.285,24.73 359.488,24.729 360.992,24.728 362.196,24.425 363.399,24.424 364.602,24.424 365.805,24.423
	367.008,24.422 368.212,24.42 369.415,24.419 370.618,24.419 371.821,24.418 373.025,24.417 487.335,22.217 518.016,21.89
	539.676,21.571 540.878,21.571 546.895,21.566 558.024,21.556 561.635,21.554 564.041,21.551 565.846,21.851 567.351,21.85
	569.457,21.848 569.758,21.848 570.059,21.848 570.357,21.848 582.992,22.138 595.026,22.429 603.748,22.723 613.073,23.014
	623,23.307 628.415,23.603 633.83,23.9 639.847,24.197 645.865,24.493 652.183,25.089 658.8,25.385 "/>
<polyline class="frame" points="471.094,27.646 456.054,27.658 433.491,27.676 404.012,27.701 "/>
<polyline class="frame" points="351.782,164.312 352.384,164.312 353.287,164.612 353.889,164.612 354.792,164.611 355.995,164.61
	357.198,164.911 358.401,164.91 359.604,164.909 361.109,165.208 362.312,165.207 362.613,165.207 363.515,165.206 364.718,165.206
	365.922,165.205 367.125,165.204 368.328,165.202 369.531,165.201 370.734,165.2 371.938,165.2 373.141,165.199 487.454,167.511
	518.136,167.786 539.796,167.768 540.998,167.768 547.015,167.762 558.144,167.753 561.755,167.751 564.161,167.748
	565.966,167.747 567.471,167.445 569.576,167.442 569.877,167.442 570.179,167.442 570.477,167.442 583.112,167.13 595.146,166.819
	603.869,166.812 613.191,166.503 623.117,165.893 628.533,165.589 633.948,165.284 639.965,164.978 645.98,164.672 652.298,164.064
	658.915,163.758 660.117,163.456 661.319,163.156 662.523,162.853 663.725,162.552 664.93,162.25 666.132,161.947 667.336,161.645
	668.84,161.343 670.044,160.742 671.243,160.441 672.448,160.139 673.65,159.836 674.854,159.534 676.056,159.232 677.261,158.629
	678.764,158.327 679.968,158.027 681.168,157.725 682.372,157.121 683.574,156.819 684.779,156.517 686.282,155.913
	687.486,155.615 688.688,155.011 689.89,154.709 691.092,154.406 692.598,153.803 693.8,153.202 695.004,152.901 696.206,152.297
	697.712,151.995 698.911,151.392 699.212,151.392 699.212,151.091 699.513,151.091 699.815,151.089 699.815,150.788
	700.116,150.788 700.116,150.489 700.417,150.489 700.715,150.489 700.715,150.188 701.017,150.187 701.017,149.886
	701.318,149.886 701.318,149.585 701.619,149.585 701.619,149.284 701.92,149.284 702.219,148.682 702.821,147.78 703.722,147.177
	704.023,146.574 704.623,145.673 705.225,145.071 705.825,144.166 706.427,143.564 707.027,142.662 707.629,142.06 708.229,141.156
	708.831,140.254 709.129,139.652 709.732,138.749 710.334,138.148 710.934,137.245 711.533,136.34 711.834,135.738 712.135,135.138
	712.437,134.837 712.738,134.235 713.036,133.932 713.335,133.631 713.335,133.031 713.636,132.73 713.937,132.429 714.238,131.827
	714.539,131.525 714.539,131.224 714.838,130.624 715.139,130.323 715.44,129.72 715.739,129.419 715.739,128.817 716.04,128.515
	716.341,128.214 716.339,127.614 716.64,127.313 716.941,126.711 717.242,126.409 717.242,125.807 717.543,125.507 717.844,125.206
	717.842,124.604 718.141,124.303 718.442,123.701 718.442,123.4 718.743,122.8 719.044,122.497 719.041,121.895 719.342,121.594
	719.644,120.992 719.644,120.691 719.945,120.091 719.945,119.79 720.243,119.188 720.544,118.885 720.544,118.584 720.843,117.984
	720.843,117.683 721.144,117.081 721.144,116.78 721.443,116.178 721.443,115.877 721.744,115.276 721.744,114.975 722.045,114.372
	722.045,114.071 722.346,113.469 722.344,112.869 722.645,112.568 722.645,111.966 722.946,111.665 722.946,111.063 723.245,110.76
	723.242,110.161 723.242,109.859 723.543,109.257 723.543,108.956 723.543,108.354 723.844,108.055 723.844,107.453
	723.842,107.152 724.143,106.55 724.143,106.249 724.143,105.646 724.444,105.047 724.444,104.746 724.442,104.143 724.442,103.842
	724.743,103.239 724.743,102.94 724.743,102.338 724.743,102.037 724.741,101.435 725.042,101.133 725.042,100.534 725.042,100.233
	725.042,99.63 725.042,99.028 725.042,98.727 725.039,98.125 725.34,97.826 725.34,97.224 725.34,96.923 725.34,96.321
	725.34,96.019 725.338,95.42 725.338,95.119 725.338,94.516 725.338,93.914 725.338,93.613 725.338,93.013 725.338,92.712
	725.335,92.11 725.335,91.809 725.335,91.207 725.034,90.906 725.034,90.306 725.034,89.704 725.032,89.402 725.032,88.8
	725.032,88.499 725.032,87.899 724.731,87.598 724.731,86.996 724.731,86.695 724.728,86.093 724.728,85.792 724.427,85.193
	724.427,84.892 724.427,84.29 724.427,83.687 724.124,83.386 724.124,82.787 724.124,82.485 723.823,81.883 723.823,81.582
	723.823,80.98 723.519,80.679 723.519,80.079 723.519,79.778 723.218,79.176 723.218,78.875 723.218,78.273 722.919,77.975
	722.917,77.373 722.616,77.072 722.616,76.469 722.315,76.168 722.315,75.566 722.013,75.267 722.011,74.665 721.71,74.365
	721.71,73.763 721.409,73.462 721.409,72.862 721.107,72.561 721.107,71.959 720.804,71.658 720.804,71.055 720.505,70.754
	720.505,70.155 720.204,69.855 719.903,69.253 719.903,68.952 719.6,68.349 719.6,68.048 719.299,67.448 718.997,67.147
	718.997,66.545 718.696,66.245 718.393,65.643 718.393,65.344 718.092,64.742 717.793,64.441 717.793,64.14 717.492,63.538
	717.191,63.238 717.188,62.638 716.887,62.337 716.586,61.735 716.285,61.434 716.285,61.132 715.984,60.53 715.683,60.233
	715.68,59.631 715.382,59.329 715.081,58.727 714.779,58.426 714.478,58.125 714.478,57.525 714.177,57.226 713.874,56.623
	713.573,56.322 713.271,56.021 713.271,55.421 712.973,55.12 712.672,54.82 712.371,54.218 712.067,53.917 711.766,53.616
	711.465,52.715 710.862,51.813 710.26,50.909 709.658,50.311 709.056,49.408 708.755,48.504 708.15,47.906 707.55,47.002
	706.948,46.4 706.346,45.498 705.741,44.898 705.141,43.996 704.539,43.394 703.937,42.493 703.633,41.892 702.733,41.29
	702.13,40.39 701.829,39.788 701.528,39.788 701.528,39.487 701.227,39.487 701.225,39.186 700.924,39.187 700.924,38.886
	700.622,38.886 700.622,38.585 700.324,38.585 700.023,38.585 700.023,38.284 699.721,38.284 699.721,37.983 699.42,37.984
	699.119,37.984 699.119,37.685 698.818,37.685 697.616,37.084 696.111,36.784 694.906,36.183 693.702,35.882 692.5,35.284
	690.994,34.984 689.792,34.383 688.588,34.083 687.386,33.482 686.179,33.181 684.676,32.883 683.471,32.282 682.269,31.982
	681.065,31.381 679.863,31.082 678.659,30.782 677.155,30.482 675.949,29.882 674.747,29.582 673.542,29.282 672.34,28.982
	671.136,28.682 669.934,28.381 668.729,27.783 667.226,27.483 666.019,27.183 664.817,26.883 663.613,26.583 662.411,26.283
	661.206,25.982 660.004,25.682 658.8,25.385 "/>
<line class="frame" x1="405.886" y1="111.927" x2="405.858" y2="77.635"/>
<line class="frame" x1="384.2" y1="79.155" x2="384.226" y2="110.14"/>
<polyline class="frame" points="389.319,85.771 399.246,85.762 399.247,86.663 400.751,86.662 400.762,100.501 399.258,100.502
	399.259,101.403 389.332,101.411 389.331,100.51 388.128,100.512 388.117,86.673 389.32,86.672 389.319,85.771 "/>
<line class="frame" x1="399.559" y1="100.803" x2="399.559" y2="100.803"/>
<line class="frame" x1="388.12" y1="91.787" x2="388.12" y2="91.787"/>
<line class="frame" x1="389.32" y1="86.672" x2="389.32" y2="86.672"/>
<polyline class="frame" points="370.064,80.372 367.957,80.674 367.356,80.675 367.055,80.675 366.754,80.974 366.454,80.974
	365.852,80.975 365.551,80.975 365.249,80.975 364.95,80.975 364.649,81.277 364.348,81.277 364.046,81.277 363.746,81.277
	363.445,81.277 363.144,81.279 362.843,81.58 362.242,81.58 361.941,81.58 361.341,81.882 361.04,81.882 360.739,81.882
	360.138,81.883 359.536,82.184 358.935,82.184 358.634,82.487 358.031,82.487 357.431,82.788 357.129,82.789 356.828,82.789
	356.829,83.09 356.528,83.09 356.528,83.389 356.229,83.389 356.229,83.69 356.229,83.991 356.229,84.292 355.927,84.292
	355.929,84.593 355.929,84.894 355.929,85.196 355.627,85.498 "/>
<polyline class="frame" points="370.087,109.249 367.98,108.949 367.379,108.95 367.078,108.95 366.777,108.95 366.477,108.649
	365.875,108.65 365.574,108.65 365.273,108.65 364.973,108.65 364.672,108.651 364.371,108.353 364.07,108.353 363.77,108.353
	363.469,108.353 363.168,108.354 362.865,108.053 362.264,108.053 361.963,108.053 361.362,108.054 361.061,107.753 360.76,107.753
	360.159,107.754 359.557,107.453 358.956,107.453 358.655,107.153 358.052,107.153 357.451,106.852 357.15,106.853 356.849,106.853
	356.848,106.552 356.547,106.552 356.547,106.251 356.247,106.251 356.247,105.95 356.247,105.651 356.247,105.35 355.946,105.35
	355.945,105.049 355.945,104.748 355.945,104.447 355.643,104.147 "/>
<polyline class="frame" points="355.642,102.945 363.464,102.938 363.456,94.815 363.45,86.692 355.629,86.7 "/>
<path class="frame" d="M354.733,94.822"/>
<path class="frame" d="M354.733,94.22"/>
<path class="frame" d="M354.731,92.115"/>
<path class="frame" d="M355.032,90.612"/>
<path class="frame" d="M355.03,90.01"/>
<path class="frame" d="M355.329,88.205"/>
<path class="frame" d="M355.329,87.603"/>
<polyline class="frame" points="354.432,94.822 354.432,94.521 354.432,94.22 354.432,93.919 354.432,93.618 354.43,93.319
	354.43,93.018 354.43,92.717 354.43,92.416 354.43,92.115 354.429,91.814 354.429,91.513 354.429,91.212 354.429,90.911
	354.429,90.612 354.73,90.612 354.729,90.311 354.729,90.01 354.729,89.709 354.729,89.407 354.729,89.106 355.029,88.805
	355.029,88.504 355.029,88.205 355.029,87.904 355.029,87.603 355.028,87.302 355.328,87.302 355.328,87.001 355.328,86.7
	355.328,86.399 355.328,86.097 355.629,86.097 355.627,85.799 355.627,85.498 355.929,85.497 356.23,85.497 356.23,85.798
	355.929,85.798 355.93,86.096 355.93,86.398 355.629,86.7 "/>
<path class="frame" d="M354.437,94.661c0.048,2.713,0.407,5.41,1.072,8.04"/>
<polyline class="frame" points="355.341,102.945 355.341,103.246 355.341,103.545 355.642,103.545 355.643,103.846 355.643,104.147
	355.945,104.146 355.945,104.447 355.945,104.146 356.246,104.146 356.246,103.845 355.945,103.845 355.943,103.544
	355.943,103.245 355.642,103.246 355.642,102.945 "/>
<path class="frame" d="M355.208,102.862"/>
<path class="frame" d="M354.132,94.689"/>
<line class="frame" x1="354.432" y1="94.822" x2="354.432" y2="94.822"/>
<polyline class="frame" points="347.473,45.194 343.864,45.198 310.773,45.225 308.968,45.226 308.967,44.022 308.967,43.721 "/>
<line class="frame" x1="453.662" y1="46.911" x2="453.662" y2="46.911"/>
<line class="frame" x1="426.89" y1="46.633" x2="426.89" y2="46.633"/>
<polyline class="frame" points="320.396,42.208 319.796,42.209 318.291,42.21 317.088,42.513 311.372,42.518 311.072,42.518
	310.771,42.518 310.47,42.518 310.169,42.518 310.169,42.819 309.869,42.82 309.568,42.82 309.569,43.121 309.268,43.121
	309.268,43.42 308.967,43.42 308.967,43.721 "/>
<line class="frame" x1="492.774" y1="56.505" x2="492.774" y2="56.505"/>
<line class="frame" x1="493.68" y1="57.105" x2="493.68" y2="57.105"/>
<line class="frame" x1="500.61" y1="73.045" x2="500.61" y2="73.045"/>
<line class="frame" x1="502.121" y1="78.157" x2="502.121" y2="78.157"/>
<line class="frame" x1="502.422" y1="79.359" x2="502.422" y2="79.359"/>
<line class="frame" x1="502.72" y1="80.261" x2="502.72" y2="80.261"/>
<line class="frame" x1="502.723" y1="80.861" x2="502.723" y2="80.861"/>
<line class="frame" x1="502.723" y1="81.463" x2="502.723" y2="81.463"/>
<line class="frame" x1="503.024" y1="81.764" x2="503.024" y2="81.764"/>
<line class="frame" x1="503.024" y1="82.969" x2="503.024" y2="82.969"/>
<line class="frame" x1="503.328" y1="83.87" x2="503.328" y2="83.87"/>
<line class="frame" x1="503.328" y1="84.171" x2="503.328" y2="84.171"/>
<line class="frame" x1="503.328" y1="84.773" x2="503.328" y2="84.773"/>
<line class="frame" x1="503.629" y1="85.677" x2="503.629" y2="85.677"/>
<line class="frame" x1="503.629" y1="85.975" x2="503.629" y2="85.975"/>
<line class="frame" x1="503.629" y1="86.577" x2="503.629" y2="86.577"/>
<line class="frame" x1="503.631" y1="86.879" x2="503.631" y2="86.879"/>
<line class="frame" x1="503.631" y1="87.481" x2="503.631" y2="87.481"/>
<line class="frame" x1="503.932" y1="87.782" x2="503.932" y2="87.782"/>
<line class="frame" x1="503.932" y1="88.382" x2="503.932" y2="88.382"/>
<line class="frame" x1="503.932" y1="88.683" x2="503.932" y2="88.683"/>
<line class="frame" x1="503.932" y1="89.285" x2="503.932" y2="89.285"/>
<line class="frame" x1="503.932" y1="89.586" x2="503.932" y2="89.586"/>
<polyline class="frame" points="355.293,45.188 356.798,45.488 391.393,46.06 392.296,46.059 392.896,46.057 394.1,46.057
	395.003,46.056 395.604,46.056 396.807,46.055 397.71,46.054 398.01,46.054 399.214,46.052 399.515,46.052 400.117,46.052
	400.718,46.051 401.019,46.353 401.921,46.351 402.823,46.351 403.425,46.35 403.726,46.35 404.629,46.35 405.531,46.349
	406.434,46.348 406.734,46.348 407.336,46.348 407.637,46.348 408.238,46.346 408.841,46.346 409.14,46.346 409.743,46.345
	410.044,46.345 410.946,46.344 411.848,46.344 412.751,46.343 413.051,46.343 413.653,46.342 413.954,46.342 414.556,46.342
	415.158,46.34 415.458,46.34 416.361,46.34 417.263,46.339 418.165,46.639 418.466,46.639 419.069,46.639 419.368,46.639
	419.97,46.638 420.572,46.638 421.475,46.636 422.377,46.636 422.978,46.635 423.279,46.635 423.881,46.635 424.483,46.634
	424.782,46.634 425.384,46.634 425.987,46.633 426.89,46.633 427.49,46.632 428.092,46.632 428.995,46.63 429.896,46.63
	430.197,46.629 430.8,46.629 431.703,46.628 432.004,46.628 432.303,46.628 432.905,46.627 433.507,46.627 433.808,46.627
	434.41,46.625 435.311,46.625 435.612,46.625 436.215,46.624 436.516,46.624 437.118,46.624 437.718,46.623 438.019,46.623
	438.621,46.924 440.124,46.923 441.027,46.922 441.931,46.92 442.53,46.92 443.133,46.92 443.735,46.919 444.337,46.919
	445.238,46.918 445.539,46.918 446.141,46.918 446.744,46.917 447.343,46.917 448.247,46.916 448.849,46.916 449.451,46.914
	449.752,46.914 450.352,46.914 450.653,46.913 451.556,46.913 452.159,46.912 452.457,46.912 452.758,46.912 453.662,46.911
	454.565,46.911 455.165,46.909 455.767,46.909 456.068,46.909 456.369,46.909 456.67,46.908 456.971,46.908 457.571,47.209
	457.872,47.209 458.174,47.208 458.475,47.208 458.776,47.509 459.079,47.509 459.378,47.509 459.681,47.508 459.98,47.508
	460.279,47.508 460.582,47.809 460.881,47.809 461.184,47.808 461.483,47.808 461.787,47.808 462.085,47.808 462.384,48.109
	462.688,48.108 462.986,48.108 463.29,48.108 464.191,48.405 464.494,48.405 464.793,48.405 465.091,48.405 465.395,48.706
	465.694,48.705 465.997,48.705 466.296,48.705 466.6,48.705 466.901,49.006 467.202,49.005 467.501,49.005 467.802,49.005
	468.103,49.306 468.404,49.306 468.705,49.305 469.006,49.305 469.307,49.305 469.608,49.606 469.907,49.606 470.208,49.605
	470.509,49.906 470.81,49.906 471.111,49.906 471.412,49.904 471.713,49.904 472.015,50.206 472.316,50.206 472.614,50.206
	472.915,50.204 473.219,50.506 473.518,50.506 473.821,50.506 474.12,50.506 474.12,50.804 474.424,50.803 474.722,50.803
	475.021,50.803 475.324,51.104 475.623,51.104 475.927,51.103 476.225,51.103 476.529,51.103 476.529,51.404 476.828,51.404
	477.131,51.404 477.43,51.403 477.728,51.704 478.032,51.704 478.331,51.704 478.634,52.005 478.935,52.004 479.236,52.004
	479.537,52.004 479.839,52.305 480.137,52.305 480.438,52.304 480.739,52.605 481.04,52.605 481.342,52.605 481.643,52.906
	481.944,52.905 482.245,52.905 482.544,52.905 482.845,53.203 483.146,53.203 483.447,53.202 483.751,53.503 484.049,53.503
	484.353,53.503 484.652,53.804 484.95,53.803 485.254,53.803 485.856,54.104 486.155,54.104 486.458,54.404 486.757,54.404
	487.06,54.404 487.359,54.705 487.658,54.705 487.961,54.704 488.262,55.005 488.563,55.005 488.864,55.005 488.864,55.306
	489.467,55.305 490.066,55.606 490.367,55.606 490.669,55.903 490.97,55.903 491.572,56.204 491.873,56.204 492.174,56.203
	492.475,56.505 492.774,56.505 493.078,56.505 493.078,56.806 493.376,56.806 493.68,56.804 493.68,57.105 493.979,57.105
	493.979,57.406 493.979,57.708 494.282,58.009 494.282,58.307 494.583,58.307 494.583,58.609 494.583,58.91 494.884,58.91
	494.884,59.211 494.884,59.512 495.183,59.511 495.183,59.812 495.486,60.113 495.486,60.414 495.788,60.713 495.788,61.014
	496.089,61.315 496.089,61.616 496.39,61.917 496.39,62.218 496.691,62.819 496.994,63.12 496.994,63.419 496.994,63.72
	497.296,63.72 497.296,64.021 497.296,64.322 497.594,64.623 497.594,64.924 497.895,65.226 497.895,65.527 497.895,65.825
	498.199,66.125 498.199,66.426 498.5,66.728 498.5,67.029 498.801,67.33 498.801,67.631 498.801,67.932 499.102,68.231
	499.102,68.532 499.102,68.833 499.406,69.134 499.406,69.435 499.707,69.735 499.707,70.337 499.707,70.638 500.006,70.638
	500.006,70.937 500.006,71.238 500.006,71.539 500.307,71.539 500.307,71.84 500.309,72.141 500.309,72.442 500.61,72.442
	500.61,72.744 500.61,73.045 500.61,73.343 500.911,73.343 500.911,73.644 500.911,73.946 500.911,74.247 501.212,74.245
	501.212,74.546 501.212,74.848 501.215,75.149 501.516,75.45 501.516,75.748 501.516,76.05 501.516,76.351 501.817,76.652
	501.817,76.953 501.817,77.254 502.118,77.555 502.121,78.157 502.121,78.456 502.422,79.058 502.422,79.359 502.422,79.661
	502.422,79.962 502.72,80.261 502.72,80.562 502.723,80.861 502.723,81.162 502.723,81.463 503.024,81.764 503.024,82.367
	503.024,82.668 503.024,82.969 503.325,83.569 503.328,83.87 503.328,84.171 503.328,84.472 503.328,84.773 503.328,85.074
	503.328,85.375 503.629,85.677 503.629,85.975 503.629,86.276 503.629,86.577 503.631,86.879 503.631,87.18 503.631,87.481
	503.932,87.782 503.932,88.083 503.932,88.382 503.932,88.683 503.932,88.984 503.932,89.285 503.932,89.586 503.935,89.887 "/>
<path class="frame" d="M503.937,94.597c0-1.616-0.071-3.227-0.215-4.835"/>
<path class="frame" d="M332.203,132.443"/>
<polyline class="frame" points="504.238,94.699 504.238,95 503.942,100.115 503.942,100.416 503.942,100.717 503.942,101.016
	503.942,101.317 503.945,101.618 503.643,101.919 503.643,102.22 503.643,102.521 503.643,102.823 503.643,103.124 503.643,103.422
	503.643,103.723 503.342,104.025 503.342,104.326 503.345,104.627 503.345,104.928 503.345,105.229 503.345,105.53 503.345,105.829
	503.044,106.431 503.044,106.732 503.044,107.033 503.046,107.635 502.745,107.936 502.745,108.238 502.745,108.536
	502.745,108.837 502.745,109.138 502.446,109.441 502.446,109.742 502.446,110.043 502.446,110.344 502.148,110.944
	502.148,111.245 502.148,111.847 501.847,112.148 501.847,112.449 501.847,112.751 501.545,113.052 501.545,113.35 501.548,113.651
	501.548,113.953 501.247,114.254 501.247,114.555 501.247,114.856 501.247,115.157 500.946,115.158 500.946,115.459 500.946,115.76
	500.946,116.059 500.647,116.36 500.647,116.661 500.647,116.962 500.346,117.264 500.346,117.565 500.346,117.866 500.045,117.866
	500.045,118.167 500.045,118.465 500.045,118.767 499.746,118.767 499.746,119.068 499.748,119.67 499.447,119.972 499.447,120.273
	499.146,120.575 499.146,120.873 499.146,121.174 498.845,121.475 498.845,121.776 498.845,122.078 498.546,122.379 498.546,122.68
	498.245,122.981 498.245,123.282 497.944,123.582 497.944,123.883 497.944,124.184 497.643,124.485 497.643,124.786
	497.345,125.087 497.347,125.389 497.347,125.69 497.046,125.69 497.046,125.988 497.046,126.289 496.745,126.591 496.444,127.194
	496.444,127.495 496.143,127.796 496.143,128.097 495.844,128.396 495.844,128.697 495.543,128.998 495.543,129.299 495.242,129.6
	495.242,129.902 494.943,129.903 494.943,130.204 494.943,130.505 494.644,130.505 494.644,130.806 494.644,131.105
	494.341,131.105 494.341,131.406 494.341,131.707 494.042,131.707 494.042,132.008 494.042,132.309 493.741,132.309 493.741,132.61
	493.44,132.612 493.139,132.612 493.139,132.913 492.838,132.913 492.537,132.913 492.238,133.214 491.937,133.215 491.636,133.215
	491.036,133.514 490.732,133.815 490.434,133.816 490.13,133.816 489.533,134.117 488.931,134.419 488.627,134.419 488.328,134.419
	488.025,134.419 488.025,134.72 487.726,134.72 487.428,134.722 487.428,135.023 487.126,135.023 486.825,135.023 486.524,135.023
	486.524,135.324 486.223,135.325 485.922,135.325 485.32,135.626 485.019,135.626 484.72,135.627 484.72,135.926 484.419,135.926
	484.118,135.926 483.817,135.926 483.516,136.227 483.214,136.229 482.913,136.229 482.612,136.229 482.615,136.53 482.316,136.53
	482.012,136.53 481.714,136.832 481.41,136.832 481.112,136.832 480.808,136.832 480.509,137.133 480.206,137.134 479.907,137.134
	479.609,137.435 479.305,137.435 479.006,137.435 478.703,137.738 478.404,137.738 478.1,137.738 477.802,137.738 477.802,138.039
	477.501,138.039 477.202,138.04 476.901,138.04 476.6,138.341 476.299,138.341 475.998,138.341 475.697,138.342 475.395,138.641
	475.094,138.641 474.796,138.641 474.494,138.641 474.193,138.943 473.892,138.943 473.591,138.943 473.29,138.943 473.29,139.244
	472.989,139.244 472.688,139.246 472.389,139.246 472.088,139.246 471.789,139.547 471.486,139.547 471.187,139.548
	470.884,139.548 470.585,139.849 470.282,139.849 469.983,139.849 469.684,139.85 469.381,140.151 469.082,140.151 468.778,140.151
	468.48,140.151 468.176,140.153 467.878,140.454 467.574,140.454 467.275,140.454 466.977,140.455 466.673,140.455 466.673,140.756
	466.374,140.756 466.071,140.756 465.772,140.756 465.469,140.757 465.471,141.056 465.17,141.056 464.871,141.056 464.57,141.056
	464.269,141.056 463.366,141.358 463.065,141.358 462.763,141.358 462.462,141.36 462.164,141.36 462.164,141.661 461.863,141.661
	461.561,141.661 461.26,141.661 460.959,141.662 460.658,141.662 460.658,141.963 460.357,141.963 460.056,141.963 459.757,141.963
	459.456,141.964 459.155,141.964 458.854,141.964 458.854,142.265 458.553,142.265 458.252,142.265 457.951,142.267 457.65,142.267
	457.052,142.568 456.749,142.568 456.147,142.569 455.848,142.569 455.246,142.569 454.645,142.57 453.741,142.57 452.838,142.572
	452.537,142.572 452.238,142.572 451.636,142.572 450.733,142.572 450.432,142.574 449.832,142.574 449.531,142.574
	448.928,142.575 448.326,142.575 447.423,142.576 446.823,142.576 446.221,142.577 445.92,142.577 445.318,142.577 444.417,142.579
	443.814,142.579 443.212,142.58 442.61,142.58 442.01,142.58 441.107,142.581 440.204,142.884 438.701,142.885 438.098,142.885
	437.797,142.885 437.197,142.886 436.595,142.886 436.294,142.886 435.692,142.887 435.391,142.887 434.49,142.887 433.888,142.888
	433.587,142.888 432.984,142.888 432.382,142.89 432.084,142.89 431.18,142.891 430.578,142.891 430.277,142.891 429.976,142.891
	429.075,142.892 428.171,142.893 427.569,142.893 426.969,142.895 426.066,142.895 425.464,142.896 424.862,142.896
	424.563,142.896 423.961,142.897 423.359,142.897 422.758,142.897 422.456,142.898 421.555,142.898 420.651,142.899 420.05,142.899
	419.448,143.202 419.148,143.202 418.546,143.202 418.245,143.202 417.343,143.203 416.44,143.204 415.537,143.204 415.237,143.204
	414.635,143.205 414.034,143.205 413.733,143.205 413.131,143.207 412.831,143.207 411.927,143.208 411.026,143.208
	410.123,143.209 409.822,143.209 409.22,143.209 408.92,143.21 408.318,143.21 407.717,143.211 407.416,143.211 406.814,143.211
	406.514,143.211 405.61,143.213 404.708,143.214 403.806,143.214 403.505,143.214 402.903,143.215 402.001,143.514 401.7,143.515
	400.798,143.515 400.196,143.516 399.594,143.516 399.293,143.516 398.09,143.518 397.79,143.518 396.887,143.519 395.684,143.52
	395.083,143.52 394.179,143.521 392.976,143.521 392.375,143.522 391.473,143.522 356.88,144.455 355.375,144.456 347.555,144.462
	343.945,144.466 332.213,144.475 "/>
<line class="frame" x1="503.935" y1="90.188" x2="503.935" y2="90.188"/>
<line class="frame" x1="503.935" y1="90.489" x2="503.935" y2="90.489"/>
<line class="frame" x1="503.935" y1="90.788" x2="503.935" y2="90.788"/>
<line class="frame" x1="503.935" y1="91.089" x2="503.935" y2="91.089"/>
<line class="frame" x1="503.935" y1="91.39" x2="503.935" y2="91.39"/>
<line class="frame" x1="503.935" y1="91.691" x2="503.935" y2="91.691"/>
<line class="frame" x1="504.236" y1="91.991" x2="504.236" y2="91.991"/>
<line class="frame" x1="504.236" y1="92.292" x2="504.236" y2="92.292"/>
<line class="frame" x1="504.236" y1="92.593" x2="504.236" y2="92.593"/>
<line class="frame" x1="504.238" y1="92.895" x2="504.238" y2="92.895"/>
<line class="frame" x1="504.238" y1="93.196" x2="504.238" y2="93.196"/>
<line class="frame" x1="504.238" y1="93.494" x2="504.238" y2="93.494"/>
<line class="frame" x1="504.238" y1="93.795" x2="504.238" y2="93.795"/>
<line class="frame" x1="504.238" y1="94.097" x2="504.238" y2="94.097"/>
<line class="frame" x1="504.238" y1="94.398" x2="504.238" y2="94.398"/>
<line class="frame" x1="308.968" y1="45.226" x2="308.968" y2="45.226"/>
<polyline class="frame" points="283.469,130.077 283.469,129.776 283.168,129.777 282.867,129.476 282.566,129.476 282.566,129.174
	282.266,129.174 282.265,128.873 282.265,128.572 281.964,128.572 281.964,128.274 281.964,127.972 281.662,127.974
	281.662,127.673 281.661,127.372 281.661,127.07 281.36,127.07 281.36,126.769 281.36,126.468 281.36,126.167 281.359,125.567
	281.359,125.266 281.359,124.664 281.058,123.462 281.057,122.86 280.756,122.257 280.754,120.152 280.452,119.249 280.449,117.144
	280.148,116.241 280.147,115.341 280.147,114.437 279.845,112.332 279.844,110.528 279.541,109.624 279.541,108.721 279.54,107.519
	279.539,106.616 279.539,105.715 279.537,104.812 279.235,103.607 279.235,102.706 279.234,101.803 279.234,100.902 279.233,99.698
	279.232,98.794 279.23,97.893 279.23,96.99 279.229,95.788 279.228,94.885 279.228,93.68 279.227,92.478 279.225,91.274
	279.224,90.072 279.223,88.867 279.223,87.665 279.222,86.461 279.221,85.259 279.52,83.754 279.519,82.552 279.518,81.347
	279.518,80.145 279.818,78.941 279.817,77.739 279.815,76.534 280.114,75.332 280.113,73.827 280.413,72.623 280.412,71.118
	280.412,69.916 280.711,68.411 281.011,67.209 281.01,66.606 281.01,66.305 281.009,65.103 281.309,64.802 281.309,64.501
	281.309,64.2 281.308,63.598 281.308,63.299 281.308,62.998 281.308,62.697 281.609,62.697 281.609,62.396 281.607,62.094
	281.607,61.793 281.908,61.792 281.908,61.491 281.908,61.19 282.21,61.19 282.21,60.889 282.508,60.59 282.809,60.289
	282.809,59.988 283.11,59.988 "/>
<line class="frame" x1="280.452" y1="119.851" x2="280.754" y2="121.354"/>
<polyline class="frame" points="280.756,121.655 281.057,122.86 281.058,124.363 281.359,125.567 281.36,127.07 281.661,127.07
	281.661,127.372 281.662,127.673 "/>
<path class="frame" d="M281.456,127.288c0.236,0.627,0.573,1.208,0.996,1.727"/>
<polyline class="frame" points="280.412,69.916 280.711,68.411 281.011,67.209 281.01,66.305 281.309,64.501 281.308,62.998
	281.308,62.697 281.609,62.697 281.609,62.396 281.607,62.094 "/>
<path class="frame" d="M282.49,60.279c-0.476,0.477-0.824,1.069-1.016,1.715"/>
<polyline class="frame" points="283.469,130.077 283.77,130.077 283.77,130.378 284.07,130.378 284.071,130.679 284.372,130.679
	284.674,130.679 284.674,130.98 284.975,130.979 285.275,130.979 285.275,131.277 285.576,131.277 285.877,131.277 286.178,131.277
	286.178,131.578 286.478,131.577 286.779,131.577 287.08,131.577 287.381,131.577 287.681,131.577 287.982,131.576 288.283,131.576
	288.584,131.576 299.413,131.567 348.446,131.527 348.747,131.526 349.047,131.526 349.047,131.225 349.047,130.926
	349.047,130.625 "/>
<polyline class="frame" points="283.411,59.686 283.713,59.686 283.712,59.385 284.011,59.385 284.011,59.084 284.312,59.084
	284.613,59.084 284.613,58.782 284.915,58.781 285.215,58.781 285.516,58.48 285.817,58.48 286.118,58.48 286.418,58.479
	286.418,58.18 286.719,58.18 287.02,58.18 287.321,58.18 287.621,58.18 287.922,58.179 288.223,58.179 288.524,58.179
	299.353,58.17 348.386,58.13 348.687,58.129 348.987,58.129 348.987,58.427 348.987,58.729 348.987,59.03 "/>
<line class="frame" x1="329.414" y1="34.078" x2="329.414" y2="34.078"/>
<polyline class="frame" points="343.864,45.198 347.473,45.194 349.88,45.193 355.293,45.188 "/>
<polyline class="frame" points="320.396,42.208 320.697,40.705 320.697,40.404 320.695,40.103 320.695,39.802 320.996,39.5
	320.996,39.199 320.996,38.898 321.297,38.898 321.296,38.597 321.596,38.597 323.099,36.792 323.4,36.188 323.701,35.887
	324.301,35.588 325.203,34.383 "/>
<polyline class="frame" points="351.085,48.201 351.093,57.224 351.083,45.192 "/>
<line class="frame" x1="313.481" y1="45.223" x2="313.445" y2="58.158"/>
<polyline class="frame" points="348.123,58.13 348.074,45.194 348.084,57.227 "/>
<polyline class="frame" points="344.78,58.134 344.765,45.197 344.775,57.229 "/>
<polyline class="frame" points="341.803,58.136 341.757,45.199 341.767,57.232 "/>
<line class="frame" x1="338.749" y1="45.202" x2="338.775" y2="58.138"/>
<path class="frame" d="M338.458,57.234"/>
<path class="frame" d="M338.448,45.202"/>
<line class="frame" x1="335.44" y1="45.204" x2="335.328" y2="58.141"/>
<line class="frame" x1="332.432" y1="45.207" x2="332.352" y2="58.143"/>
<line class="frame" x1="329.123" y1="45.21" x2="329.132" y2="57.243"/>
<path class="frame" d="M332.141,57.24"/>
<path class="frame" d="M332.131,45.208"/>
<line class="frame" x1="329.123" y1="45.21" x2="329.061" y2="58.146"/>
<line class="frame" x1="326.115" y1="45.213" x2="326.085" y2="58.148"/>
<path class="frame" d="M325.824,57.245"/>
<path class="frame" d="M325.814,45.213"/>
<polyline class="frame" points="322.846,58.151 322.805,45.215 322.815,57.247 "/>
<line class="frame" x1="316.488" y1="45.22" x2="316.498" y2="57.252"/>
<line class="frame" x1="319.798" y1="45.218" x2="319.765" y2="58.153"/>
<path class="frame" d="M319.507,57.25"/>
<path class="frame" d="M319.497,45.218"/>
<line class="frame" x1="316.488" y1="45.22" x2="316.422" y2="58.156"/>
<path class="frame" d="M313.189,57.255"/>
<path class="frame" d="M313.18,45.223"/>
<line class="frame" x1="310.171" y1="45.225" x2="310.208" y2="58.162"/>
<path class="frame" d="M335.328,58.141"/>
<path class="frame" d="M335.44,45.204"/>
<polyline class="frame" points="562.553,39.602 561.045,39.001 560.142,38.701 559.241,38.4 558.638,38.1 557.735,37.801
	556.834,37.502 556.232,37.2 555.329,36.9 554.428,36.599 553.522,36.3 552.619,36 551.417,35.699 550.513,35.401 549.613,35.101
	548.709,34.8 547.507,34.5 546.604,34.2 545.701,33.899 544.499,33.599 543.595,33.6 542.69,33.299 541.789,33.002 540.584,32.702
	539.683,32.401 538.78,32.101 537.576,32.102 536.675,31.801 535.772,31.501 534.57,31.201 533.666,31.201 532.464,30.902
	531.561,30.602 530.657,30.602 529.453,30.304 528.55,30.306 527.646,30.006 526.445,29.704 525.541,29.706 524.64,29.406
	523.436,29.406 522.532,29.106 521.33,29.107 520.427,28.806 519.526,28.807 518.623,28.809 517.72,28.507 516.518,28.509
	514.713,28.209 512.907,27.911 511.404,27.913 509.9,27.914 508.094,27.615 507.793,27.615 507.492,27.615 507.193,27.615
	506.591,27.616 505.989,27.616 491.249,28.228 461.77,29.457 460.565,29.458 423.567,30.992 402.811,31.612 402.511,31.612
	402.21,31.612 401.007,31.914 400.405,31.914 355.283,33.455 325.203,34.383 "/>
<polyline class="frame" points="561.951,39.301 562.852,39.602 563.755,39.902 564.357,40.203 565.258,40.503 566.161,41.103
	566.763,41.402 567.366,41.402 567.966,41.702 568.568,42.004 569.474,42.303 570.076,42.604 570.076,42.303 570.375,42.303 "/>
<line class="frame" x1="572.864" y1="145.18" x2="572.264" y2="145.18"/>
<path class="frame" d="M571.858,145.007c11.178-14.49,17.325-32.228,17.506-50.527"/>
<path class="frame" d="M589.665,94.622c-0.181-18.368-6.416-36.165-17.741-50.628"/>
<line class="frame" x1="572.181" y1="44.105" x2="572.781" y2="44.105"/>
<line class="frame" x1="556.533" y1="37.2" x2="557.436" y2="37.5"/>
<line class="frame" x1="570.375" y1="42.303" x2="570.375" y2="42.303"/>
<line class="frame" x1="502.679" y1="27.619" x2="498.769" y2="27.924"/>
<line class="frame" x1="341.446" y1="33.466" x2="341.446" y2="33.466"/>
<line class="frame" x1="468.705" y1="49.305" x2="468.705" y2="49.305"/>
<line class="frame" x1="469.608" y1="49.606" x2="469.608" y2="49.606"/>
<line class="frame" x1="470.208" y1="49.605" x2="470.208" y2="49.605"/>
<line class="frame" x1="470.509" y1="49.906" x2="470.509" y2="49.906"/>
<line class="frame" x1="470.81" y1="49.906" x2="470.81" y2="49.906"/>
<line class="frame" x1="471.111" y1="49.906" x2="471.111" y2="49.906"/>
<line class="frame" x1="475.324" y1="51.104" x2="475.324" y2="51.104"/>
<line class="frame" x1="480.438" y1="52.304" x2="480.438" y2="52.304"/>
<line class="frame" x1="481.944" y1="52.905" x2="481.944" y2="52.905"/>
<line class="frame" x1="488.563" y1="55.005" x2="488.563" y2="55.005"/>
<line class="frame" x1="489.467" y1="55.305" x2="489.467" y2="55.305"/>
<line class="frame" x1="492.174" y1="56.203" x2="492.174" y2="56.203"/>
<line class="frame" x1="493.979" y1="57.105" x2="493.979" y2="57.105"/>
<line class="frame" x1="495.788" y1="60.713" x2="495.788" y2="60.713"/>
<line class="frame" x1="495.788" y1="61.014" x2="495.788" y2="61.014"/>
<line class="frame" x1="496.089" y1="61.315" x2="496.089" y2="61.315"/>
<line class="frame" x1="496.994" y1="63.419" x2="496.994" y2="63.419"/>
<line class="frame" x1="500.307" y1="71.84" x2="500.307" y2="71.84"/>
<line class="frame" x1="320.786" y1="148.397" x2="320.786" y2="148.397"/>
<line class="frame" x1="503.391" y1="161.781" x2="498.578" y2="161.484"/>
<line class="frame" x1="341.547" y1="156.198" x2="341.547" y2="156.198"/>
<polyline class="frame" points="562.644,149.7 561.138,150.303 560.235,150.606 559.334,150.905 558.732,151.207 557.828,151.508
	556.927,151.81 556.327,152.111 555.424,152.414 554.523,152.715 553.62,153.017 552.717,153.32 551.515,153.618 550.611,153.921
	549.711,154.223 548.807,154.524 547.605,154.826 546.704,155.129 545.801,155.43 544.599,155.732 543.696,156.032 542.792,156.032
	541.892,156.334 540.687,156.637 539.786,156.938 538.883,157.24 537.678,157.241 536.777,157.542 535.877,157.845 534.675,158.147
	533.771,158.147 532.569,158.447 531.666,158.749 530.763,158.749 529.561,159.052 528.657,159.354 527.754,159.354
	526.552,159.656 525.649,159.658 524.748,159.96 523.543,159.96 522.64,160.262 521.438,160.263 520.535,160.565 519.634,160.566
	518.733,160.868 517.83,160.868 516.628,160.869 514.823,161.169 513.017,161.471 511.514,161.473 510.011,161.775 508.204,161.778
	507.903,161.778 507.602,161.778 507.303,161.778 506.701,161.779 506.099,162.08 491.359,161.189 461.877,160.011 460.673,160.013
	423.672,158.538 403.818,157.954 402.615,157.955 402.314,157.654 401.111,157.655 400.509,157.655 355.385,156.187
	325.302,155.311 "/>
<line class="frame" x1="570.161" y1="146.986" x2="570.161" y2="146.986"/>
<polyline class="frame" points="561.439,150.303 562.644,149.7 563.544,149.398 564.448,149.097 565.346,148.794 566.25,148.193
	566.852,147.892 567.454,147.892 568.054,147.59 568.656,147.289 569.559,146.986 570.161,146.685 "/>
<line class="frame" x1="335.522" y1="144.472" x2="335.512" y2="132.44"/>
<line class="frame" x1="310.253" y1="144.493" x2="310.259" y2="131.559"/>
<path class="frame" d="M313.252,132.459"/>
<path class="frame" d="M313.262,144.491"/>
<line class="frame" x1="316.57" y1="144.488" x2="316.561" y2="132.456"/>
<path class="frame" d="M319.569,132.454"/>
<path class="frame" d="M319.579,144.486"/>
<line class="frame" x1="319.88" y1="144.486" x2="319.765" y2="131.55"/>
<line class="frame" x1="316.57" y1="144.488" x2="316.527" y2="131.553"/>
<line class="frame" x1="322.794" y1="144.405" x2="322.846" y2="131.548"/>
<path class="frame" d="M325.886,132.449"/>
<path class="frame" d="M325.896,144.481"/>
<line class="frame" x1="326.197" y1="144.481" x2="326.085" y2="131.545"/>
<line class="frame" x1="329.205" y1="144.478" x2="329.195" y2="132.446"/>
<path class="frame" d="M329.27,131.543"/>
<line class="frame" x1="332.514" y1="144.475" x2="332.508" y2="131.541"/>
<line class="frame" x1="335.522" y1="144.472" x2="335.536" y2="131.538"/>
<path class="frame" d="M338.521,132.438"/>
<path class="frame" d="M338.53,144.47"/>
<line class="frame" x1="338.832" y1="144.47" x2="338.775" y2="131.536"/>
<polyline class="frame" points="341.803,131.533 341.839,144.467 341.829,132.435 "/>
<polyline class="frame" points="344.833,131.767 344.848,144.465 344.838,132.433 "/>
<polyline class="frame" points="348.176,131.527 348.156,144.462 348.146,132.43 "/>
<line class="frame" x1="313.563" y1="144.491" x2="313.498" y2="131.555"/>
<polyline class="frame" points="351.162,141.451 351.155,132.428 351.165,144.46 "/>
<line class="frame" x1="329.514" y1="155.608" x2="329.514" y2="155.608"/>
<line class="frame" x1="309.05" y1="144.494" x2="309.05" y2="144.494"/>
<line class="frame" x1="492.838" y1="132.913" x2="492.838" y2="132.913"/>
<line class="frame" x1="493.741" y1="132.309" x2="493.741" y2="132.309"/>
<line class="frame" x1="500.647" y1="116.962" x2="500.647" y2="116.962"/>
<line class="frame" x1="501.247" y1="114.856" x2="501.247" y2="114.856"/>
<line class="frame" x1="501.247" y1="114.254" x2="501.247" y2="114.254"/>
<line class="frame" x1="501.548" y1="113.651" x2="501.548" y2="113.651"/>
<line class="frame" x1="501.545" y1="113.052" x2="501.545" y2="113.052"/>
<line class="frame" x1="501.847" y1="112.449" x2="501.847" y2="112.449"/>
<line class="frame" x1="502.148" y1="110.944" x2="502.148" y2="110.944"/>
<line class="frame" x1="502.446" y1="110.344" x2="502.446" y2="110.344"/>
<line class="frame" x1="502.446" y1="109.742" x2="502.446" y2="109.742"/>
<line class="frame" x1="502.745" y1="109.138" x2="502.745" y2="109.138"/>
<line class="frame" x1="502.745" y1="108.837" x2="502.745" y2="108.837"/>
<line class="frame" x1="502.745" y1="108.238" x2="502.745" y2="108.238"/>
<line class="frame" x1="503.046" y1="107.635" x2="503.046" y2="107.635"/>
<line class="frame" x1="503.345" y1="105.829" x2="503.345" y2="105.829"/>
<line class="frame" x1="503.345" y1="105.229" x2="503.345" y2="105.229"/>
<line class="frame" x1="503.345" y1="104.928" x2="503.345" y2="104.928"/>
<line class="frame" x1="503.643" y1="103.422" x2="503.643" y2="103.422"/>
<line class="frame" x1="503.643" y1="103.124" x2="503.643" y2="103.124"/>
<line class="frame" x1="503.643" y1="102.521" x2="503.643" y2="102.521"/>
<line class="frame" x1="503.643" y1="102.22" x2="503.643" y2="102.22"/>
<line class="frame" x1="503.945" y1="101.618" x2="503.945" y2="101.618"/>
<line class="frame" x1="503.942" y1="101.317" x2="503.942" y2="101.317"/>
<line class="frame" x1="503.942" y1="100.717" x2="503.942" y2="100.717"/>
<line class="frame" x1="503.942" y1="100.416" x2="503.942" y2="100.416"/>
<line class="frame" x1="503.942" y1="99.814" x2="503.942" y2="99.814"/>
<line class="frame" x1="503.942" y1="99.513" x2="503.942" y2="99.513"/>
<line class="frame" x1="503.942" y1="99.212" x2="503.942" y2="99.212"/>
<line class="frame" x1="503.942" y1="98.911" x2="503.942" y2="98.911"/>
<line class="frame" x1="503.942" y1="98.609" x2="503.942" y2="98.609"/>
<line class="frame" x1="503.94" y1="98.308" x2="503.94" y2="98.308"/>
<line class="frame" x1="503.94" y1="98.01" x2="503.94" y2="98.01"/>
<line class="frame" x1="503.94" y1="97.709" x2="503.94" y2="97.709"/>
<line class="frame" x1="504.241" y1="97.406" x2="504.241" y2="97.406"/>
<line class="frame" x1="504.241" y1="97.105" x2="504.241" y2="97.105"/>
<line class="frame" x1="504.241" y1="96.804" x2="504.241" y2="96.804"/>
<line class="frame" x1="504.241" y1="96.503" x2="504.241" y2="96.503"/>
<line class="frame" x1="504.241" y1="96.202" x2="504.241" y2="96.202"/>
<line class="frame" x1="504.241" y1="95.901" x2="504.241" y2="95.901"/>
<line class="frame" x1="504.241" y1="95.602" x2="504.241" y2="95.602"/>
<line class="frame" x1="504.238" y1="95.301" x2="504.238" y2="95.301"/>
<polyline class="frame" points="332.213,144.475 309.05,144.494 309.051,145.699 309.051,146 309.051,146.299 309.352,146.299
	309.352,146.6 309.653,146.6 309.655,146.901 309.956,146.901 310.255,146.899 310.255,147.201 310.557,147.201 310.858,147.201
	311.159,147.201 311.459,147.201 311.76,147.199 313.264,147.198 313.866,147.198 314.467,147.197 315.671,147.197 315.972,147.196
	317.175,147.497 320.483,147.493 "/>
<line class="frame" x1="453.741" y1="142.57" x2="453.741" y2="142.57"/>
<line class="frame" x1="426.969" y1="142.895" x2="426.969" y2="142.895"/>
<polyline class="frame" points="347.555,144.462 346.953,144.464 345.149,144.465 "/>
<polyline class="frame" points="320.483,147.493 320.786,148.996 320.786,149.297 320.786,149.599 320.787,149.9 320.787,150.201
	321.088,150.201 321.088,150.502 321.088,150.803 321.389,150.803 321.389,151.102 321.689,151.102 323.196,152.907
	323.497,153.508 323.798,153.807 324.399,154.108 324.701,154.71 325.302,155.311 "/>
<line class="frame" x1="389.68" y1="157.364" x2="389.079" y2="157.364"/>
<line class="frame" x1="468.778" y1="140.151" x2="468.778" y2="140.151"/>
<line class="frame" x1="469.684" y1="139.85" x2="469.684" y2="139.85"/>
<line class="frame" x1="470.282" y1="139.849" x2="470.282" y2="139.849"/>
<line class="frame" x1="470.585" y1="139.849" x2="470.585" y2="139.849"/>
<line class="frame" x1="470.884" y1="139.548" x2="470.884" y2="139.548"/>
<line class="frame" x1="471.187" y1="139.548" x2="471.187" y2="139.548"/>
<line class="frame" x1="475.395" y1="138.641" x2="475.395" y2="138.641"/>
<line class="frame" x1="479.907" y1="137.134" x2="479.907" y2="137.134"/>
<line class="frame" x1="480.509" y1="137.133" x2="480.509" y2="137.133"/>
<line class="frame" x1="482.012" y1="136.53" x2="482.012" y2="136.53"/>
<line class="frame" x1="489.533" y1="134.117" x2="489.533" y2="134.117"/>
<line class="frame" x1="492.238" y1="133.214" x2="492.238" y2="133.214"/>
<line class="frame" x1="494.341" y1="131.105" x2="494.341" y2="131.105"/>
<line class="frame" x1="495.543" y1="129.299" x2="495.543" y2="129.299"/>
<line class="frame" x1="496.143" y1="128.097" x2="496.143" y2="128.097"/>
<line class="frame" x1="497.046" y1="125.988" x2="497.046" y2="125.988"/>
<line class="frame" x1="500.045" y1="118.767" x2="500.045" y2="118.767"/>
<line class="frame" x1="503.643" y1="103.723" x2="503.643" y2="103.723"/>
<polyline class="frame" points="289.486,131.575 290.087,131.575 290.69,131.575 291.292,131.573 "/>
<polyline class="frame" points="290.087,131.575 290.69,131.575 291.893,131.573 "/>
<polyline class="frame" points="290.69,131.575 290.991,131.573 291.292,131.573 292.194,131.573 "/>
<polyline class="frame" points="290.63,58.178 290.931,58.177 291.232,58.177 292.134,58.177 "/>
<polyline class="frame" points="290.027,58.178 290.63,58.178 291.833,58.177 "/>
<polyline class="frame" points="289.427,58.178 290.027,58.178 290.63,58.178 291.232,58.177 "/>
<line class="frame" x1="314.467" y1="147.197" x2="314.467" y2="147.197"/>
<polyline class="frame" points="453.383,73.084 451.879,73.085 446.163,73.389 434.434,74.301 434.132,74.302 434.132,74.603
	434.132,75.205 424.207,76.113 379.387,79.762 376.079,80.066 373.071,80.369 371.567,80.37 "/>
<polyline class="frame" points="371.59,109.247 373.094,109.246 376.103,109.545 379.413,109.844 424.238,113.414 434.165,114.31
	434.165,114.912 434.165,115.213 434.467,115.212 446.199,116.104 451.915,116.401 453.418,116.399 "/>
<polyline class="frame" points="467.853,113.68 474.472,113.673 474.776,113.673 475.075,113.673 475.373,113.673 475.677,113.673
	475.975,113.672 476.279,113.672 476.578,113.672 476.881,113.672 477.18,113.672 477.18,113.371 477.479,113.37 477.782,113.37
	478.081,113.37 478.385,113.37 478.683,113.37 478.683,113.071 478.987,113.07 479.285,113.07 479.589,113.07 479.888,113.07
	479.888,112.769 480.186,112.769 480.49,112.768 480.789,112.768 480.789,112.467 481.09,112.467 481.391,112.467 481.391,112.166
	481.692,112.166 481.993,112.164 482.294,112.164 482.294,111.863 482.593,111.863 482.894,111.863 482.894,111.562
	483.195,111.562 483.496,111.561 483.496,111.26 483.797,111.26 484.098,111.26 484.098,110.959 484.397,110.959 484.397,110.66
	484.7,110.66 484.999,110.659 484.999,110.358 485.298,110.358 485.298,110.057 485.601,110.057 485.9,110.057 485.9,109.755
	486.203,109.755 486.201,109.454 486.502,109.453 486.502,109.152 486.803,109.152 487.104,108.851 487.104,108.55 487.405,108.55
	487.704,108.251 488.005,107.949 488.005,107.648 488.304,107.648 488.607,107.347 488.607,107.045 488.906,107.045
	488.906,106.744 489.21,106.743 489.207,106.442 489.508,106.442 489.508,106.141 489.81,105.84 489.81,105.541 490.108,105.541
	490.108,105.24 490.409,105.24 490.409,104.939 490.409,104.638 490.708,104.636 490.708,104.335 491.011,104.034 491.009,103.733
	491.31,103.432 491.31,103.133 491.611,102.832 491.611,102.531 491.912,102.23 491.912,101.929 491.912,101.628 492.211,101.627
	492.211,101.326 492.211,101.024 492.211,100.726 492.51,100.726 492.51,100.425 492.51,100.123 492.51,99.822 492.811,99.822
	492.811,99.521 492.808,99.22 492.808,98.919 492.808,98.618 493.112,98.618 493.112,98.317 493.112,98.018 493.109,97.717
	493.109,97.416 493.109,97.115 493.109,96.814 493.109,96.513 493.41,96.212 493.41,95.911 493.41,95.612 493.41,95.311
	493.41,95.01 493.408,94.709 493.408,94.408 493.408,94.106 493.408,93.805 493.408,93.504 493.406,93.205 493.107,92.904
	493.107,92.603 493.107,92.302 493.107,92.001 493.104,91.7 493.104,91.399 493.104,91.098 493.104,90.796 492.803,90.796
	492.803,90.498 492.803,90.197 492.803,89.896 492.803,89.595 492.5,89.595 492.5,89.293 492.5,88.992 492.5,88.691 492.201,88.691
	492.201,88.39 492.201,88.091 492.201,87.79 491.9,87.792 491.9,87.491 491.898,87.189 491.599,86.888 491.599,86.587
	491.296,86.286 491.296,85.985 490.994,85.686 490.994,85.385 490.693,85.385 490.693,85.084 490.693,84.783 490.392,84.784
	490.39,84.483 490.091,84.182 490.091,83.881 489.792,83.881 489.792,83.58 489.489,83.58 489.489,83.279 489.489,82.98
	489.188,82.98 489.188,82.679 488.886,82.68 488.886,82.379 488.585,82.379 488.585,82.078 488.284,82.078 488.284,81.777
	487.983,81.777 487.981,81.476 487.682,81.176 487.383,80.875 487.08,80.875 487.08,80.576 486.781,80.576 486.781,80.275
	486.478,80.275 486.478,79.974 486.177,79.975 486.177,79.674 485.876,79.674 485.876,79.373 485.574,79.373 485.273,79.373
	485.273,79.072 484.972,79.072 484.674,78.772 484.372,78.772 484.372,78.471 484.069,78.471 483.77,78.172 483.467,78.172
	483.467,77.871 483.168,77.872 482.864,77.872 482.864,77.571 482.566,77.571 482.267,77.571 481.963,77.27 481.665,77.271
	481.361,76.97 481.06,76.97 480.759,76.97 480.759,76.669 480.458,76.669 480.157,76.67 479.858,76.67 479.557,76.369
	479.256,76.369 478.955,76.369 478.654,76.37 478.654,76.069 478.353,76.069 478.052,76.069 477.75,76.069 477.449,76.069
	477.151,76.07 476.85,75.769 476.549,75.769 476.247,75.769 475.946,75.769 475.645,75.771 475.344,75.771 475.043,75.771
	474.744,75.771 474.443,75.771 467.824,75.776 "/>
<line class="frame" x1="372.471" y1="82.474" x2="372.474" y2="84.58"/>
<line class="frame" x1="370.969" y1="84.581" x2="370.975" y2="92.704"/>
<polyline class="frame" points="372.49,104.433 372.48,92.702 372.49,104.433 384.221,104.424 "/>
<polyline class="frame" points="372.48,92.702 370.975,92.704 370.969,84.581 372.474,84.58 372.47,80.369 "/>
<line class="frame" x1="382.115" y1="104.426" x2="382.115" y2="104.426"/>
<line class="frame" x1="382.416" y1="104.426" x2="382.416" y2="104.426"/>
<line class="frame" x1="372.481" y1="93.603" x2="372.481" y2="93.603"/>
<line class="frame" x1="372.481" y1="94.507" x2="372.481" y2="94.507"/>
<line class="frame" x1="372.481" y1="93.904" x2="372.481" y2="93.904"/>
<line class="frame" x1="372.481" y1="94.205" x2="372.481" y2="94.205"/>
<line class="frame" x1="444.638" y1="46.919" x2="444.647" y2="57.147"/>
<path class="frame" d="M444.346,56.995c0,0.747,0.606,1.352,1.35,1.352"/>
<line class="frame" x1="445.85" y1="58.348" x2="445.85" y2="58.348"/>
<path class="frame" d="M470.59,75.622c-2.916-5.434-7.041-10.124-12.064-13.707"/>
<path class="frame" d="M458.67,61.936c-0.259-0.186-0.548-0.331-0.849-0.43"/>
<line class="frame" x1="444.718" y1="142.579" x2="444.709" y2="132.351"/>
<path class="frame" d="M445.756,130.846c-0.744,0-1.349,0.608-1.348,1.353"/>
<line class="frame" x1="445.91" y1="131.145" x2="445.91" y2="131.145"/>
<path class="frame" d="M445.834,131.14c1.004-0.026,2.002-0.157,2.979-0.387"/>
<line class="frame" x1="448.919" y1="130.543" x2="457.938" y2="127.828"/>
<path class="frame" d="M458.58,127.257c5.016-3.59,9.136-8.287,12.039-13.726"/>
<path class="frame" d="M457.875,127.669c0.304-0.102,0.59-0.246,0.85-0.432"/>
<polyline class="frame" points="444.639,48.723 444.338,48.422 444.338,48.124 444.037,48.124 444.037,47.823 443.736,47.823
	443.435,47.823 412.752,47.547 412.451,47.547 412.15,47.547 412.15,47.848 411.849,47.849 411.849,48.15 411.849,48.449 "/>
<polyline class="frame" points="411.849,48.449 411.857,57.475 411.857,57.776 411.858,58.077 412.159,58.076 412.46,58.375
	412.761,58.375 443.444,58.349 443.745,58.349 444.046,58.349 444.347,58.05 444.346,57.749 444.647,57.749 444.647,57.448 "/>
<polyline class="frame" points="444.715,140.775 444.415,141.073 444.415,141.374 444.114,141.374 444.114,141.675 443.813,141.675
	443.512,141.675 412.831,142.303 412.83,142.002 412.529,142.002 412.228,142.002 412.228,141.701 411.926,141.702 411.926,141.401
	411.926,141.1 "/>
<polyline class="frame" points="411.926,141.1 411.919,132.077 411.918,131.776 411.918,131.474 412.219,131.473 412.52,131.172
	412.821,131.172 443.504,131.146 443.805,131.146 444.106,131.146 444.407,131.448 444.407,131.749 444.708,131.749 444.709,132.05
	"/>
<path class="frame" d="M457.912,61.396c-3.017-0.994-6.058-1.907-9.124-2.739"/>
<path class="frame" d="M448.736,58.434c-0.977-0.23-1.976-0.359-2.979-0.382"/>
<line class="frame" x1="453.383" y1="73.084" x2="467.824" y2="75.776"/>
<line class="frame" x1="453.418" y1="116.399" x2="467.853" y2="113.68"/>
<line class="frame" x1="370.087" y1="109.249" x2="371.59" y2="109.247"/>
<line class="frame" x1="370.064" y1="80.372" x2="371.567" y2="80.37"/>
<line class="frame" x1="570.076" y1="42.604" x2="572.181" y2="44.105"/>
<line class="frame" x1="570.161" y1="146.685" x2="572.264" y2="145.18"/>
</svg>
