<svg version="1.2" xmlns="http://www.w3.org/2000/svg" viewBox="0 510 2400 450">
	<path id="Forma 1" style="fill: #6d92ab" d="m507.7 553.9l0.8 1.9-21.1 8.9-0.8-1.8z"/>
	<path id="Forma 2" style="fill: #6d92ab" d="m487 562.3l1.1 1.7-7.6 5.1-1.1-1.7z"/>
	<path id="Forma 3" style="fill: #6d92ab" d="m479.3 567.5l1.3 1.5-9 7.9-1.3-1.5z"/>
	<path id="Forma 4" style="fill: #6d92ab" d="m470.1 575.7l1.7 1-6.2 10.8-1.7-1z"/>
	<path id="Forma 5" style="fill: #6d92ab" d="m464.2 585.9l1.9 0.6-5.4 15.1-1.9-0.7z"/>
	<path id="Forma 6" style="fill: #6d92ab" d="m458.7 601.1l2 0.4-2.9 14.1-1.9-0.4z"/>
	<path id="Forma 7" style="fill: #6d92ab" d="m455.9 615.3l2 0.2-2 21.6-2-0.2z"/>
	<path id="Forma 8" style="fill: #6d92ab" d="m454.1 636.3h2l-1.8 75.4h-2z"/>
	<path id="Forma 9" style="fill: #6d92ab" d="m452.3 711h2l-0.1 12.5h-2z"/>
	<path id="Forma 10" style="fill: #6d92ab" d="m452.1 722.8h2l0.1 58.1h-2z"/>
	<path id="Forma 11" style="fill: #6d92ab" d="m452 779.9l2-0.1 1.3 21.2-2 0.1z"/>
	<path id="Forma 12" style="fill: #6d92ab" d="m453.2 800.4l2-0.1 1.3 20.3-2 0.2z"/>
	<path id="Forma 13" style="fill: #6d92ab" d="m454.5 820.1l2-0.2 1.4 13.2-2 0.2z"/>
	<path id="Forma 14" style="fill: #6d92ab" d="m456 832.9l2-0.5 2.9 13.4-1.9 0.5z"/>
	<path id="Forma 15" style="fill: #6d92ab" d="m458.9 845.6l1.9-0.6 3.2 10.4-2 0.6z"/>
	<path id="Forma 16" style="fill: #6d92ab" d="m461.9 855.5l1.8-0.9 5 10.2-1.8 0.9z"/>
	<path id="Forma 17" style="fill: #6d92ab" d="m466.6 865.1l1.6-1.2 6 7.9-1.6 1.2z"/>
	<path id="Forma 18" style="fill: #6d92ab" d="m472.3 872.6l1.3-1.5 7.3 6.5-1.3 1.5z"/>
	<path id="Forma 19" style="fill: #6d92ab" d="m478.7 878.6l1-1.8 9.4 5.4-1 1.8z"/>
	<path id="Forma 20" style="fill: #6d92ab" d="m487 883.2l0.8-1.8 14 6.4-0.8 1.8z"/>
	<path id="Forma 21" style="fill: #6d92ab" d="m500.3 889.3l0.7-1.9 7.9 2.8-0.7 1.9z"/>
	<path id="Forma 22" style="fill: #6d92ab" d="m507.6 892l0.1-2 131.5 5.7-0.1 2z"/>
	<path id="Forma 23" style="fill: #6d92ab" d="m638.5 897.5l0.1-1.9 152.1 6.3-0.1 2z"/>
	<path id="Forma 24" style="fill: #6d92ab" d="m789.2 903.7l0.1-2 124 3.2v2z"/>
	<path id="Forma 25" style="fill: #6d92ab" d="m912.3 906.7l0.1-2 102.3 1.6v2z"/>
	<path id="Forma 26" style="fill: #6d92ab" d="m1013.8 908v-2l76.4-0.6v2z"/>
	<path id="Forma 27" style="fill: #6d92ab" d="m1090.3 907.4l-0.1-2 68.1-2.1 0.1 2z"/>
	<path id="Forma 28" style="fill: #6d92ab" d="m1157.4 905.7l-0.1-2 61.6-3.2 0.1 2z"/>
	<path id="Forma 29" style="fill: #6d92ab" d="m1218.8 902.5l-0.1-2 51-3.4 0.2 2z"/>
	<path id="Forma 30" style="fill: #6d92ab" d="m1268.9 899l-0.1-2 59.5-5.1 0.1 2z"/>
	<path id="Forma 31" style="fill: #6d92ab" d="m1328.5 893.9l-0.3-2 67.9-7.5 0.2 2z"/>
	<path id="Forma 32" style="fill: #6d92ab" d="m1395.1 886.5l-0.2-2 73.2-9.3 0.2 2z"/>
	<path id="Forma 33" style="fill: #6d92ab" d="m1467.4 877.4l-0.3-2 54.3-8.5 0.3 2z"/>
	<path id="Forma 34" style="fill: #6d92ab" d="m1521.7 868.9l-0.4-2 56.1-9.9 0.3 2z"/>
	<path id="Forma 35" style="fill: #6d92ab" d="m1577 859l-0.4-2 71-13.8 0.4 2z"/>
	<path id="Forma 36" style="fill: #6d92ab" d="m1648 845.2l-0.4-2 69.3-15.2 0.4 1.9z"/>
	<path id="Forma 37" style="fill: #6d92ab" d="m1716.6 830l-0.5-1.9 90.2-21.9 0.4 1.9z"/>
	<path id="Forma 38" style="fill: #6d92ab" d="m1805.7 808.5l-0.5-1.9 72.1-19.1 0.5 2z"/>
	<path id="Forma 39" style="fill: #6d92ab" d="m1877.8 789.5l-0.5-2 65.5-17.8 0.6 2z"/>
	<path id="Forma 40" style="fill: #6d92ab" d="m1942.2 771.9l-0.5-2 57.8-16.4 0.5 1.9z"/>
	<path id="Forma 41" style="fill: #6d92ab" d="m2000 755.4l-0.5-1.9 48.7-13.9 0.6 1.9z"/>
	<path id="Forma 42" style="fill: #6d92ab" d="m2048.2 741.6l-0.6-1.9 37-10.6 0.5 1.9z"/>
	<path id="Forma 43" style="fill: #6d92ab" d="m2085.5 730.8l-1.3-1.5 3.2-2.7 1.2 1.6z"/>
	<path id="Forma 44" style="fill: #6d92ab" d="m2088.3 727.8h-2v-9.2h2z"/>
	<path id="Forma 45" style="fill: #6d92ab" d="m2088.1 718l-1 1.7-5.7-3.4 1-1.7z"/>
	<path id="Forma 46" style="fill: #6d92ab" d="m2082.2 714.4l-0.6 2-60.4-17.1 0.5-1.9z"/>
	<path id="Forma 47" style="fill: #6d92ab" d="m2022.9 697.9l-0.6 1.9-88.2-25.3 0.5-2z"/>
	<path id="Forma 48" style="fill: #6d92ab" d="m1935.7 672.8l-0.6 2-79.1-21.7 0.6-2z"/>
	<path id="Forma 49" style="fill: #6d92ab" d="m1857.8 651.7l-0.5 1.9-65-17.4 0.6-1.9z"/>
	<path id="Forma 50" style="fill: #6d92ab" d="m1794 634.6l-0.5 1.9-46.5-10.8 0.4-1.9z"/>
	<path id="Forma 51" style="fill: #6d92ab" d="m1748.7 623.9l-0.5 1.9-45.9-10.6 0.5-2z"/>
	<path id="Forma 52" style="fill: #6d92ab" d="m1704.4 613.5l-0.4 2-41.1-8.9 0.5-1.9z"/>
	<path id="Forma 53" style="fill: #6d92ab" d="m1664.6 604.8l-0.4 2-61.8-12.6 0.4-1.9z"/>
	<path id="Forma 54" style="fill: #6d92ab" d="m1604.1 592.6l-0.4 1.9-45.4-8.5 0.4-2z"/>
	<path id="Forma 55" style="fill: #6d92ab" d="m1560.1 584.6l-0.3 1.9-49.3-8.7 0.3-2z"/>
	<path id="Forma 56" style="fill: #6d92ab" d="m1511.7 576.1l-0.4 2-60.4-9.5 0.3-1.9z"/>
	<path id="Forma 57" style="fill: #6d92ab" d="m1452.2 567.1l-0.2 2-77.9-10.2 0.3-1.9z"/>
	<path id="Forma 58" style="fill: #6d92ab" d="m1375.4 557.4l-0.2 2-95.3-9.4 0.2-2z"/>
	<path id="Forma 59" style="fill: #6d92ab" d="m1281.6 548.4l-0.1 2-98.3-6.4 0.1-2z"/>
	<path id="Forma 60" style="fill: #6d92ab" d="m1184.2 542.1v2l-87.6-3v-2z"/>
	<path id="Forma 61" style="fill: #6d92ab" d="m1098 539.4v2l-90.7-1v-2z"/>
	<path id="Forma 62" style="fill: #6d92ab" d="m1008.5 538.5v2l-100.1 0.7-0.1-2z"/>
	<path id="Forma 63" style="fill: #6d92ab" d="m909.1 539.3l0.1 2-115.5 3v-2z"/>
	<path id="Forma 64" style="fill: #6d92ab" d="m794.7 542.2l0.1 2-112.3 4.2-0.1-2z"/>
	<path id="Forma 65" style="fill: #6d92ab" d="m683.8 546.4l0.1 2-86.1 3.9-0.1-2z"/>
	<path id="Forma 66" style="fill: #6d92ab" d="m599 550.2l0.1 2-92.3 4.3-0.1-2z"/>
	<path id="Forma 67" style="fill: #6d92ab" d="m634 549h2v157.5h-2z"/>
	<path id="Forma 68" style="fill: #6d92ab" d="m634.5 738.3h2v159.2h-2z"/>
	<path id="Forma 69" style="fill: #6d92ab" d="m630 739.3v-2h42.5v2z"/>
	<path id="Forma 70" style="fill: #6d92ab" d="m630.1 708.3v-2h42.8v2z"/>
	<path id="Forma 71" style="fill: #6d92ab" d="m629.2 706h2v33.3h-2z"/>
	<path id="Forma 72" style="fill: #6d92ab" d="m638.5 706h2v33.8h-2z"/>
	<path id="Forma 73" style="fill: #6d92ab" d="m645.7 706.1h2v33.4h-2z"/>
	<path id="Forma 74" style="fill: #6d92ab" d="m653.6 706.3h2v32.7h-2z"/>
	<path id="Forma 75" style="fill: #6d92ab" d="m660.6 706.8h2v32.7h-2z"/>
	<path id="Forma 76" style="fill: #6d92ab" d="m667.7 706.6h2v32.5h-2z"/>
	<path id="Forma 77" style="fill: #6d92ab" d="m670.8 708.2v-2h6.1v2z"/>
	<path id="Forma 78" style="fill: #6d92ab" d="m671 739.5v-2h5.9v2z"/>
	<path id="Forma 79" style="fill: #6d92ab" d="m677.2 738.5h-2v-32.5h2z"/>
	<path id="Forma 80" style="fill: #6d92ab" d="m775.4 746h2v157.4h-2z"/>
	<path id="Forma 81" style="fill: #6d92ab" d="m776.8 700.2h-2v-156.8h2z"/>
	<path id="Forma 82" style="fill: #6d92ab" d="m774.7 701.3v-2h49.6v2z"/>
	<path id="Forma 83" style="fill: #6d92ab" d="m846.1 701.3v-2h109.2v2z"/>
	<path id="Forma 84" style="fill: #6d92ab" d="m954 698.4h2l-0.1 7.5-2-0.1z"/>
	<path id="Forma 85" style="fill: #6d92ab" d="m954 706.9v-2h5.6v2z"/>
	<path id="Forma 86" style="fill: #6d92ab" d="m985.4 706.9v-2h83.4v2z"/>
	<path id="Forma 87" style="fill: #6d92ab" d="m1094.4 707.2v-2h9.8v2z"/>
	<path id="Forma 88" style="fill: #6d92ab" d="m1105.2 706.5h-2v-14.1h2z"/>
	<path id="Forma 89" style="fill: #6d92ab" d="m1103 693v-2h88.1v2z"/>
	<path id="Forma 90" style="fill: #6d92ab" d="m1190.4 690.6h2v29.6h-2z"/>
	<path id="Forma 91" style="fill: #6d92ab" d="m1192.9 719.8v2h-56.2v-2z"/>
	<path id="Forma 92" style="fill: #6d92ab" d="m876.4 540.5h2v159.4h-2z"/>
	<path id="Forma 93" style="fill: #6d92ab" d="m990.9 706.1h-2v-23h2z"/>
	<path id="Forma 94" style="fill: #6d92ab" d="m991.5 661.7h-2v-123.3h2z"/>
	<path id="Forma 95" style="fill: #6d92ab" d="m991.1 658.2v-2h72.7v2z"/>
	<path id="Forma 96" style="fill: #6d92ab" d="m1065.2 705.7h-2v-87h2z"/>
	<path id="Forma 97" style="fill: #6d92ab" d="m1065.8 594h-2v-54.8h2z"/>
	<path id="Forma 98" style="fill: #6d92ab" d="m1178.4 691.9h-2v-148.8h2z"/>
	<path id="Forma 99" style="fill: #6d92ab" d="m1347.6 555.5h2v121.5h-2z"/>
	<path id="Forma 100" style="fill: #6d92ab" d="m1347.1 678.1v-2h6.7v2z"/>
	<path id="Forma 101" style="fill: #6d92ab" d="m1374.2 678.3v-2h58.3v2z"/>
	<path id="Forma 102" style="fill: #6d92ab" d="m1191.1 721.1l1.3-1.5 3.3 2.8-1.3 1.5z"/>
	<path id="Forma 103" style="fill: #6d92ab" d="m1193.8 723l2-0.5 0.7 3.2-2 0.4z"/>
	<path id="Forma 104" style="fill: #6d92ab" d="m1194.5 725.3l2 0.3-0.4 2.1-1.9-0.4z"/>
	<path id="Forma 105" style="fill: #6d92ab" d="m1194.5 726.4l1.3 1.5-3.4 2.7-1.3-1.6z"/>
	<path id="Forma 106" style="fill: #6d92ab" d="m1192.8 728.5v2l-45.8 0.2v-2z"/>
	<path id="Forma 107" style="fill: #6d92ab" d="m1137.2 719.4l1.6 1.2-2.1 2.8-1.6-1.2z"/>
	<path id="Forma 108" style="fill: #6d92ab" d="m1135.1 721.9h2v3h-2z"/>
	<path id="Forma 109" style="fill: #6d92ab" d="m1135.7 725.2l0.6-1.9 4.8 1.3-0.5 2z"/>
	<path id="Forma 110" style="fill: #6d92ab" d="m1139.5 725.1h2v3.1h-2z"/>
	<path id="Forma 111" style="fill: #6d92ab" d="m775.7 747.2v-2h49v2z"/>
	<path id="Forma 112" style="fill: #6d92ab" d="m846.4 747.3v-2h35.1v2z"/>
	<path id="Forma 113" style="fill: #6d92ab" d="m880.2 746.1h2v2.2h-2z"/>
	<path id="Forma 114" style="fill: #6d92ab" d="m881.7 749.2v-2h42.5v2z"/>
	<path id="Forma 115" style="fill: #6d92ab" d="m925 748.8h-2v-6.9h2z"/>
	<path id="Forma 116" style="fill: #6d92ab" d="m923.1 742.8v-2h3.5v2z"/>
	<path id="Forma 117" style="fill: #6d92ab" d="m925.6 741.6h2v7.4h-2z"/>
	<path id="Forma 118" style="fill: #6d92ab" d="m925.8 749.5v-2h29.3v2z"/>
	<path id="Forma 119" style="fill: #6d92ab" d="m955.9 748.9h-2v-7.2h2z"/>
	<path id="Forma 120" style="fill: #6d92ab" d="m955.7 742.2l-1.7-1 1-1.8 1.8 1z"/>
	<path id="Forma 121" style="fill: #6d92ab" d="m955.8 741v-2h6.5v2z"/>
	<path id="Forma 122" style="fill: #6d92ab" d="m985.2 741v-2h83.5v2z"/>
	<path id="Forma 123" style="fill: #6d92ab" d="m1088.3 740.4v-2h14.9v2z"/>
	<path id="Forma 124" style="fill: #6d92ab" d="m1102.3 739.1h2v17.8h-2z"/>
	<path id="Forma 125" style="fill: #6d92ab" d="m1103.7 757.2v-2l37.6-0.1v2z"/>
	<path id="Forma 126" style="fill: #6d92ab" d="m1145.5 728.6h2v29.4h-2z"/>
	<path id="Forma 127" style="fill: #6d92ab" d="m1150.8 729.7h2v27.8h-2z"/>
	<path id="Forma 129" style="fill: #6d92ab" d="m1186.6 757.2h-2v-27.8h2z"/>
	<path id="Forma 141" style="fill: #6d92ab" d="m1145.9 758.1v-2h40.8v2z"/>
	<path id="Forma 142" style="fill: #6d92ab" d="m1177.4 625.2v-2h171.5v2z"/>
	<path id="Forma 143" style="fill: #6d92ab" d="m1176.8 822.9v-2h172.4v2z"/>
	<path id="Forma 144" style="fill: #6d92ab" d="m1349.4 740.6h-2v-32h2z"/>
	<path id="Forma 145" style="fill: #6d92ab" d="m1347.3 708.8v-2h85.3v2z"/>
	<path id="Forma 146" style="fill: #6d92ab" d="m1409.4 707.4h-2v-30.7h2z"/>
	<path id="Forma 147" style="fill: #6d92ab" d="m1417.6 677.4h2v30.4h-2z"/>
	<path id="Forma 148" style="fill: #6d92ab" d="m1428.6 677h2v31.3h-2z"/>
	<path id="Forma 149" style="fill: #6d92ab" d="m1433.1 676.3h-2v-92.2h2z"/>
	<path id="Forma 150" style="fill: #6d92ab" d="m1431 585.2v-2h40.5v2z"/>
	<path id="Forma 151" style="fill: #6d92ab" d="m1558.9 585.7h2v121.6h-2z"/>
	<path id="Forma 152" style="fill: #6d92ab" d="m1558.9 738.3h2v122.9h-2zm457.9-41.8h2v53.3h-2z"/>
	<path id="Forma 153" style="fill: #6d92ab" d="m1900.4 663.4h2v119.1h-2z"/>
	<path id="Forma 154" style="fill: #6d92ab" d="m1814.5 640.5h2v164.9h-2z"/>
	<path id="Forma 155" style="fill: #6d92ab" d="m1769 629.2h2v42.4h-2z"/>
	<path id="Forma 156" style="fill: #6d92ab" d="m1686.2 610.4h2v96.7h-2z"/>
	<path id="Forma 157" style="fill: #6d92ab" d="m1642.1 601h2v51.1h-2z"/>
	<path id="Forma 158" style="fill: #6d92ab" d="m1559.3 708.2v-2h28.9v2z"/>
	<path id="Forma 159" style="fill: #6d92ab" d="m1612 707.6v-2h104.1v2z"/>
	<path id="Forma 160" style="fill: #6d92ab" d="m1739.9 707.2v-2h5.2v2z"/>
	<path id="Forma 161" style="fill: #6d92ab" d="m1558.9 738.9v-2h29.1v2z"/>
	<path id="Forma 162" style="fill: #6d92ab" d="m1611 738.9v-2h107.8v2z"/>
	<path id="Forma 163" style="fill: #6d92ab" d="m1737.1 738.3v-2h7.6v2z"/>
	<path id="Forma 164" style="fill: #6d92ab" d="m1745.9 737.5h-2v-32.5h2z"/>
	<path id="Forma 165" style="fill: #6d92ab" d="m1743.9 734.2h2v16.3h-2z"/>
	<path id="Forma 166" style="fill: #6d92ab" d="m1743.7 750.3v-2h25.9v2z"/>
	<path id="Forma 167" style="fill: #6d92ab" d="m1768 748.2h2v5.2h-2z"/>
	<path id="Forma 168" style="fill: #6d92ab" d="m1769 769.4h2v46.8h-2z"/>
	<path id="Forma 169" style="fill: #6d92ab" d="m1686.8 737.5h2v98.1h-2z"/>
	<path id="Forma 170" style="fill: #6d92ab" d="m1641.1 791.1h2v54.1h-2z"/>
	<path id="Forma 171" style="fill: #6d92ab" d="m1743.5 695.3h2v11.3h-2z"/>
	<path id="Forma 172" style="fill: #6d92ab" d="m1743.5 696.5v-2h28v2z"/>
	<path id="Forma 173" style="fill: #6d92ab" d="m1769.2 695.1h2v0.4h-2z"/>
	<path id="Forma 174" style="fill: #6d92ab" d="m1795.4 696.9v-2h18.7v2z"/>
	<path id="Forma 175" style="fill: #6d92ab" d="m1792.7 751.1v-2h23.7v2z"/>
	<path id="Forma 176" style="fill: #6d92ab" d="m1560.1 657.4v2h-28.2v-2z"/>
	<path id="Forma 177" style="fill: #6d92ab" d="m1531.8 657h2v27h-2z"/>
	<path id="Forma 178" style="fill: #6d92ab" d="m1533.6 682.1v2h-68.6v-2z"/>
	<path id="Forma 179" style="fill: #6d92ab" d="m1465.9 681.5l1.4 1.4-2.5 2.5-1.4-1.4z"/>
	<path id="Forma 180" style="fill: #6d92ab" d="m1463.5 684.1h2v28.2h-2z"/>
	<path id="Forma 181" style="fill: #6d92ab" d="m1463 711.2l1.8-0.8 6.8 15-1.8 0.8z"/>
	<path id="Forma 182" style="fill: #6d92ab" d="m1469.6 726.4v-2l32.4 0.1v2z"/>
	<path id="Forma 183" style="fill: #6d92ab" d="m1502.5 726.3l-1.8-0.9 9.3-19 1.8 0.8z"/>
	<path id="Forma 184" style="fill: #6d92ab" d="m1510 708.3v-2h50.2v2zm24.3-0.5l2-0.1 0.5 31.1h-2z"/>
	<path id="Forma 185" style="fill: #6d92ab" d="m1534.9 739.3v-2h25.7v2z"/>
	<path id="Forma 186" style="fill: #6d92ab" d="m1544.5 738.2h-2v-31.1h2z"/>
	<path id="Forma 187" style="fill: #6d92ab" d="m1555.8 707.3h2v31.5h-2z"/>
	<path id="Forma 130" style="fill: #6d92ab" d="m1177.5 757.1h-2l0.4-28.1h2z"/>
	<path id="Forma 131" style="fill: #6d92ab" d="m1169.5 757.1h-2v-27.9h2z"/>
	<path id="Forma 132" style="fill: #6d92ab" d="m1161.3 756.5h-2v-27.5h2z"/>
	<path id="Forma 133" style="fill: #6d92ab" d="m1176.4 756.6h2v147.3h-2z"/>
	<path id="Forma 134" style="fill: #6d92ab" d="m1347.5 737.9h2v152h-2z"/>
	<path id="Forma 135" style="fill: #6d92ab" d="m1403.5 782.3h2v102.7h-2z"/>
	<path id="Forma 136" style="fill: #6d92ab" d="m876.1 746h2v159.6h-2z"/>
	<path id="Forma 137" style="fill: #6d92ab" d="m989 739.5h2v23.2h-2z"/>
	<path id="Forma 138" style="fill: #6d92ab" d="m988.8 787.8h2v118.9h-2z"/>
	<path id="Forma 139" style="fill: #6d92ab" d="m1063 739.7h2v86.1h-2z"/>
	<path id="Forma 140" style="fill: #6d92ab" d="m1063 850.2h2v56.9h-2z"/>
</svg>