<?xml version="1.0" standalone="no"?>
<!DOCTYPE svg PUBLIC "-//W3C//DTD SVG 1.1//EN" "http://www.w3.org/Graphics/SVG/1.1/DTD/svg11.dtd" >
<svg xmlns="http://www.w3.org/2000/svg" xmlns:xlink="http://www.w3.org/1999/xlink" version="1.1">
<metadata></metadata>
<defs>
<font id="polarsemibold_italic" horiz-adv-x="1298" >
<font-face units-per-em="2048" ascent="1638" descent="-410" />
<missing-glyph horiz-adv-x="647" />
<glyph unicode="&#xfb01;" horiz-adv-x="1312" d="M188 942l27 158q4 25 29 24h112q47 0 60 -12q-8 18 -4 51l22 121q27 160 142.5 265.5t283.5 105.5h516q20 0 17 -21l-29 -164q-4 -27 -29 -26h-448q-186 0 -215 -170l-21 -109q-6 -35 -22 -53q16 12 69 12h621q20 0 16 -20l-188 -1077q-4 -20 -27 -21h-194q-23 0 -19 21 l156 888h-406q-47 0 -59 15q8 -23 4 -49l-151 -854q-4 -20 -25 -21h-197q-20 0 -18 21l151 854q4 27 21 49q-16 -14 -64 -15h-112q-25 0 -19 27z" />
<glyph unicode="&#xfb02;" horiz-adv-x="1359" d="M188 942l27 158q4 25 29 24h112q47 0 60 -12q-8 18 -4 51l22 121q27 160 142.5 264.5t283.5 106.5h92h4h514q10 0 9 -10l-33 -191v-2l-252 -1425q-4 -20 -27 -21h-194q-23 0 -19 21l250 1417h-299h-2h-16q-186 2 -215 -170l-21 -109q-6 -35 -22 -53q16 12 69 12h193 q25 0 20 -24l-28 -158q-4 -27 -29 -27h-197q-47 0 -59 15q8 -23 4 -49l-151 -854q-4 -20 -25 -21h-197q-20 0 -18 21l151 854q4 27 21 49q-16 -14 -64 -15h-112q-25 0 -19 27z" />
<glyph horiz-adv-x="0" />
<glyph horiz-adv-x="682" />
<glyph unicode="&#x9;" horiz-adv-x="647" />
<glyph unicode=" "  horiz-adv-x="647" />
<glyph unicode="&#x09;" horiz-adv-x="647" />
<glyph unicode="&#xa0;" horiz-adv-x="647" />
<glyph unicode="!" horiz-adv-x="634" d="M205 29l33 182q4 25 28 25h146q25 0 18 -25l-31 -182q-6 -27 -28 -27h-146q-25 0 -20 27zM270 414l170 1075q2 27 29 27h190q25 0 21 -27l-211 -1075q-4 -25 -29 -25h-151q-23 0 -19 25z" />
<glyph unicode="&#x22;" horiz-adv-x="862" d="M338 1198l39 397q2 27 29 27h165q27 0 21 -27l-103 -397q-6 -25 -28 -24h-105q-23 0 -18 24zM715 1196l39 399q2 25 28 25h166q27 0 21 -25l-103 -399q-6 -25 -28 -25h-105q-23 0 -18 25z" />
<glyph unicode="#" horiz-adv-x="1644" d="M182 377l25 135q2 23 33 23h270l125 387h-262q-14 0 -20.5 5t-4.5 15l23 135q4 20 35 21h288l107 327q8 18 28 19h132q25 0 22 -27l-106 -319h378l107 327q8 18 29 19h131q27 0 24 -27l-108 -319h239q14 0 20.5 -5.5t4.5 -15.5l-23 -135q-4 -20 -34 -20h-267l-129 -387 h262q14 0 21.5 -6.5t5.5 -16.5l-25 -135q-4 -20 -32 -21h-293l-113 -336q-8 -18 -28 -18h-117q-27 0 -25 27l109 327h-387l-113 -336q-8 -18 -29 -18h-116q-27 0 -25 27l107 327h-242q-14 0 -21.5 5.5t-5.5 15.5zM686 535h385l127 387h-381z" />
<glyph unicode="$" horiz-adv-x="1161" d="M129 348l18 109q6 25 31 24h197q27 0 22 -24l-16 -90q-14 -78 21.5 -118t105.5 -40h190q63 0 112.5 42t61.5 116l17 86q16 92 -84 135l-393 160q-92 35 -133 114.5t-27 167.5l8 43q27 145 151 247.5t273 102.5h29l41 236q6 27 28 27h152q25 0 20 -27l-41 -236h15 q156 0 236.5 -103t54.5 -253l-9 -45q-4 -27 -30 -27h-197q-27 0 -22 27l10 57q10 53 -25 90t-92 37h-199q-53 0 -96 -39t-51 -92l-6 -31q-16 -96 73 -135l400 -164q102 -41 141 -111.5t19 -182.5l-19 -107q-27 -147 -152.5 -250.5t-277.5 -103.5h-37l-33 -195 q-6 -27 -30 -26h-150q-25 0 -20 26l35 195h-21q-152 0 -239 104.5t-62 253.5z" />
<glyph unicode="%" horiz-adv-x="2080" d="M127 807l86 493q23 123 117 213q96 94 213 95h155q111 0 174 -86q70 -92 48 -222l-89 -493q-20 -125 -116 -213q-96 -90 -211 -90h-156q-115 0 -180 90q-63 88 -41 213zM342 829q-10 -63 9.5 -95t74.5 -32h70q55 0 86 31t43 96l77 449q12 66 -8 96q-20 33 -73 33h-72 q-53 0 -84 -33q-31 -31 -43 -96zM732.5 211q-5.5 8 0.5 18l557 879q14 25 29 25h143q12 0 18.5 -7.5t0.5 -19.5l-557 -879q-16 -25 -31 -24h-141q-14 0 -19.5 8zM1325 96l88 492q20 123 115 213q98 94 213 94h157q109 0 173 -86q70 -92 47 -221l-86 -492q-23 -125 -119 -215 t-209 -90h-158q-115 0 -178 90q-66 90 -43 215zM1542 117q-12 -63 8 -97q21 -30 74 -30h72q53 0 83.5 31.5t43.5 95.5l80 448q10 66 -11 99q-18 31 -73 30h-70q-55 0 -86 -30q-31 -33 -43 -99z" />
<glyph unicode="&#x26;" horiz-adv-x="1521" d="M209 365l29 165q27 143 131 238q8 6 10 15.5t-4 15.5q-61 84 -35 233l20 111q27 156 150 262t276 106h160q154 0 240 -106.5t57 -261.5l-6 -35q-2 -20 -23 -21h-196q-20 0 -17 21l5 31q14 78 -23 121t-121 43h-65q-82 0 -135.5 -43t-65.5 -121l-21 -111q-12 -78 25 -120 t121 -42h831q20 0 17 -20l-23 -135q-4 -20 -24 -21h-176l-58 -328q-29 -156 -154.5 -263t-279.5 -107h-340q-154 0 -243 108.5t-62 264.5zM449 377q-31 -172 137 -176h268q168 4 199 176l55 313h-430q-174 0 -207 -182z" />
<glyph unicode="'" horiz-adv-x="485" d="M356 1196l39 399q2 25 29 25h168q27 0 18 -25l-100 -399q-6 -25 -29 -25h-104q-23 0 -21 25z" />
<glyph unicode="(" horiz-adv-x="649" d="M127 -57l215 1212q31 176 148.5 286.5t285.5 121.5q25 0 21 -27l-21 -113q-4 -27 -28 -26q-86 -8 -143.5 -72.5t-76.5 -177.5l-211 -1196q-41 -231 132 -250q25 0 20 -25l-20 -114q-4 -27 -29 -25q-166 8 -245 120t-48 286z" />
<glyph unicode=")" horiz-adv-x="649" d="M4 -438l21 114q4 25 28 25q180 18 219 250l211 1196q20 113 -13.5 177.5t-117.5 72.5q-25 0 -20 26l20 113q4 27 31 27q164 -10 243 -121t48 -287l-213 -1212q-31 -174 -149.5 -286t-286.5 -120q-25 -2 -21 25z" />
<glyph unicode="*" horiz-adv-x="1071" d="M311 1006q-10 23 13 34l200 117l62 21q-39 12 -56 22l-157 117q-18 12 0 35l90 118q20 25 37 9l123 -105l49 -53q-2 61 2 76l31 184q6 25 30 25h127q25 0 19 -25l-31 -184l-27 -76q47 41 68 53l162 107q23 16 32 -8l50 -121q10 -23 -15 -35l-198 -117l-66 -22 q41 -12 57 -21l160 -117q18 -12 0 -34l-92 -121q-18 -23 -35 -8l-125 102l-49 55q2 -61 0 -76l-33 -184q-4 -25 -28 -24h-127q-25 0 -21 24l33 184q2 8 8 27t12 34l5 15l-13 -10q-12 -10 -29.5 -24.5t-25.5 -20.5l-160 -102q-23 -14 -33 8z" />
<glyph unicode="+" horiz-adv-x="1089" d="M201 625l24 139q4 20 23 20h327l58 326q4 20 24 20h134q18 0 16 -20l-57 -326h325q20 0 17 -20l-25 -139q-2 -20 -23 -21h-327l-60 -342q-4 -20 -24 -20h-133q-20 0 -17 20l62 342h-328q-20 0 -16 21z" />
<glyph unicode="," horiz-adv-x="522" d="M119 -244l14 78q2 10 12 10h15q29 4 44 23.5t23 69.5l13 65h-58q-23 0 -18 27l33 184q4 27 28 27h166q25 0 21 -27l-33 -184v-4v-2l-19 -95q-14 -82 -67 -131t-127 -53l-35 -2q-14 0 -12 14z" />
<glyph unicode="-" horiz-adv-x="862" d="M221 530l25 136q4 23 24 22h523q20 0 18 -22l-25 -136q-4 -23 -24 -22h-524q-20 0 -17 22z" />
<glyph unicode="." horiz-adv-x="479" d="M119 29l33 184q4 27 28 27h168q25 0 21 -27l-33 -184q-6 -27 -31 -27h-166q-25 0 -20 27z" />
<glyph unicode="/" horiz-adv-x="749" d="M-43 14l797 1409q12 18 32 19h197q27 0 18 -27l-808 -1409q-12 -18 -33 -18h-183q-27 0 -20 26z" />
<glyph unicode="0" horiz-adv-x="1157" d="M127 375l117 661q29 158 155.5 271.5t276.5 113.5h223q150 0 237 -113.5t58 -271.5l-117 -661q-27 -158 -153.5 -269.5t-276.5 -111.5h-223q-150 0 -237 111.5t-60 269.5zM379 403q-35 -196 143 -196h101q180 0 215 196l106 605q35 199 -143 198h-103q-178 0 -215 -198z " />
<glyph unicode="1" horiz-adv-x="813" d="M61 25l27 157q4 25 29 25h147q37 0 76 -19q-16 33 -12 62l161 913q4 18 31 58q-61 -25 -80 -25h-200q-20 0 -19 21l33 178q2 18 22 18h467q25 0 21 -24l-201 -1139q-6 -35 -31 -64q51 20 82 21h144q25 0 20 -25l-28 -157q-4 -25 -29 -25h-641q-25 0 -19 25z" />
<glyph unicode="2" horiz-adv-x="1181" d="M76 25l41 227q14 84 59 137t146 103l544 339q43 27 64.5 52.5t30.5 68.5l14 82q14 76 -16.5 124t-102.5 48h-172q-61 0 -106.5 -27.5t-65.5 -74.5l-6 -25q-4 -20 -27 -20h-200q-23 0 -19 22l4 13q41 141 152.5 234t259.5 93h239q156 0 245 -112.5t61 -268.5l-17 -98 q-16 -84 -78.5 -156.5t-156.5 -119.5l-559 -340q-37 -23 -41 -47l-7 -35q-6 -29 -26 -56q2 0 8 4.5t12 6.5t17.5 5t23.5 3h650q25 0 20 -25l-29 -157q-4 -25 -28 -25h-914q-25 0 -20 25z" />
<glyph unicode="3" horiz-adv-x="1134" d="M76 322l4 18q2 23 24 22h201q23 0 21 -20l-4 -33q2 -47 37.5 -74.5t97.5 -27.5h166q180 0 215 196l10 68q35 197 -143 197h-148q-12 0 -10 10l26 147q2 10 13 11h127q84 2 138 47t67 110l6 41q14 82 -23 126t-123 44l-137 2q-61 0 -106.5 -27.5t-65.5 -74.5l-6 -25 q-4 -20 -27 -20h-200q-23 0 -19 22l4 13q41 141 152.5 234t259.5 93h239q156 0 242 -104.5t57 -261.5l-8 -56q-12 -59 -50 -122.5t-83 -98.5q-20 -14 -35 -18q13 -3 27 -15q43 -41 65.5 -111.5t10.5 -141.5l-23 -123q-27 -158 -154.5 -266.5t-283.5 -108.5h-264 q-147 0 -226 92t-71 236z" />
<glyph unicode="4" horiz-adv-x="1140" d="M45 334l31 168q2 10 8 20l725 879q8 12 27 12h305q18 0 14 -18l-149 -848q-4 -29 -25 -53q37 14 55 14h117q25 0 21 -25l-27 -143q-4 -25 -29 -25h-112q-29 0 -52 15q8 -27 4 -54l-45 -256q-4 -20 -24 -20h-205q-20 0 -16 20l45 256q4 27 24 58q-33 -18 -59 -19h-617 q-20 0 -16 19zM274 494q51 14 88 14h351q23 0 49 -14q-6 25 -2 49l102 583q6 27 21 68q-29 -49 -39 -64l-500 -581q-23 -27 -70 -55z" />
<glyph unicode="5" horiz-adv-x="1114" d="M98 322l2 18q2 23 25 22h201q23 0 20 -20l-4 -31q4 -47 40 -74.5t95 -27.5h199q74 0 121 48t59 122l29 160q12 74 -17.5 122t-103.5 48h-186q-23 0 -43 -7l-60 -18q-33 -8 -49 -8h-166q-25 0 -20 29l120 684q4 25 29 24h797q27 0 20 -24l-28 -168q-4 -25 -29 -25h-535 q-23 0 -61 21q0 -2 3 -8.5t5 -12.5t4 -17.5t0 -19.5l-47 -264q0 -6 -24 -41q2 2 9 7t17 10.5t21 7.5l37 12q29 6 55 6h188q154 0 243 -112.5t62 -268.5l-26 -141q-27 -158 -155 -269.5t-283 -111.5h-269q-147 0 -226 92t-69 236z" />
<glyph unicode="6" horiz-adv-x="1124" d="M121 379l119 672q27 154 153.5 262t282.5 108h215q147 0 227 -93t70 -234l-2 -13q-2 -23 -25 -22h-200q-25 0 -21 20l2 25q-6 100 -125 102h-155q-150 0 -179 -162l-30 -172q-2 -14 -25 -45q2 0 9 4.5t15.5 8.5t20.5 6l37 12q25 2 49 2h256q154 0 243 -112.5t62 -268.5 l-18 -104q-29 -156 -157 -268.5t-283 -112.5h-246q-162 0 -243 111.5t-52 273.5zM367 377q-14 -76 21.5 -122t111.5 -46h178q72 0 119 48t61 122l21 119q14 80 -19 125t-108 45h-222q-29 0 -53 -2l-41 -13q-10 0 -17 2t-12.5 4.5t-7.5 2.5q12 -27 11 -39z" />
<glyph unicode="7" horiz-adv-x="890" d="M99.5 7q-3.5 7 2.5 18l633 1122q12 23 37 48.5t37 33.5q-2 0 -19.5 -9.5t-38 -16.5t-34.5 -7h-559q-25 0 -21 25l31 168q4 25 29 24h821q18 0 14 -20l-28 -164q-2 -10 -11 -23l-651 -1190q-8 -16 -25 -16h-204q-10 0 -13.5 7z" />
<glyph unicode="8" horiz-adv-x="1167" d="M100 369l23 123q12 74 60 146.5t106 106.5q23 12 39 15q-16 4 -35 18q-37 29 -52.5 93.5t-4.5 127.5l10 56q27 156 148.5 261t279.5 105h231q158 0 243 -105.5t56 -260.5l-8 -56q-12 -63 -50 -127.5t-85 -93.5q-29 -16 -43 -16q14 -2 37 -17q43 -35 65.5 -107.5 t9.5 -145.5l-22 -123q-27 -158 -155 -266.5t-283 -108.5h-262q-158 0 -246 108.5t-62 266.5zM352 403q-35 -197 144 -196h159q178 0 213 196l13 68q35 197 -144 197h-159q-180 0 -216 -197zM479 993q-12 -66 27 -111.5t123 -45.5h116q84 0 138.5 46t64.5 111l8 41 q14 80 -22.5 125t-124.5 45h-115q-88 0 -140 -45t-67 -125z" />
<glyph unicode="9" horiz-adv-x="1177" d="M123 322v6q2 25 24 24h201q23 0 21 -22l-2 -19q8 -102 125 -102h180q150 0 178 162l29 157q2 14 28 52q-2 0 -11 -6.5t-19.5 -11.5t-18.5 -7l-41 -10q-18 -4 -45 -4h-256q-154 0 -243 112.5t-62 268.5l22 118q27 156 155 268.5t284 112.5h246q162 0 242.5 -111.5 t51.5 -273.5l-118 -671q-27 -154 -154 -262.5t-283 -108.5h-239q-147 0 -226 93t-69 235zM453 905q-14 -80 18.5 -126t108.5 -46h221q23 0 43 4l45 13q8 2 17 0t18 -6l8 -5q-12 31 -10 39l47 260q12 76 -24 122t-111 46h-179q-72 0 -119 -48t-59 -122z" />
<glyph unicode=":" horiz-adv-x="602" d="M119 27l33 186q4 27 28 27h168q25 0 21 -27l-33 -186q-6 -25 -31 -25h-166q-25 0 -20 25zM244 729l32 186q4 27 29 27h166q25 0 21 -27l-33 -186q-4 -25 -29 -24h-166q-25 0 -20 24z" />
<glyph unicode=";" horiz-adv-x="641" d="M119 -244l14 78q2 10 12 10h15q29 4 44 23.5t23 69.5l13 65h-58q-23 0 -18 27l33 184q4 27 28 27h166q25 0 21 -27l-33 -184v-4v-2l-19 -95q-14 -82 -67 -131t-127 -53l-35 -2q-14 0 -12 14zM283 729l32 186q4 25 29 25h166q25 0 20 -25l-32 -186q-4 -25 -29 -24h-166 q-25 0 -20 24z" />
<glyph unicode="&#x3c;" horiz-adv-x="1155" d="M205 686q-14 10 2 21l930 510q12 6 18 1.5t4 -16.5l-33 -182q-2 -19 -16 -27l-508 -268q-27 -14 -98 -29q2 0 14 -2t21.5 -4t25 -8t27.5 -14l414 -265q10 -8 8 -26l-33 -182q-4 -29 -27 -15z" />
<glyph unicode="=" horiz-adv-x="1189" d="M201 381l24 137q2 23 23 23h856q20 0 18 -23l-24 -137q-4 -20 -25 -21h-856q-20 0 -16 21zM270 782l25 138q4 23 24 22h857q20 0 16 -22l-25 -138q-4 -20 -24 -20h-856q-20 0 -17 20z" />
<glyph unicode="&#x3e;" horiz-adv-x="1155" d="M201 195l30 182q4 18 19 26l506 265q27 14 98 28q-2 0 -14.5 2t-21.5 4.5t-24.5 8.5t-27.5 14l-412 268q-12 8 -8 27l31 182q6 29 29 15l747 -510q14 -10 -2 -21l-930 -506q-10 -6 -16 -2t-4 17z" />
<glyph unicode="?" horiz-adv-x="1052" d="M166 1067l14 84q29 160 146.5 260t277.5 100h180q154 0 244 -101t62 -253l-19 -106q-16 -96 -86 -181.5t-172 -126.5l-139 -57q-117 -49 -133 -143l-27 -129q-6 -27 -29 -27h-147q-25 0 -21 27l23 141q33 219 254 313l119 52q98 43 114 141l19 100q8 55 -20.5 96 t-84.5 43h-168q-61 0 -111 -38.5t-61 -96.5l-16 -98q-6 -25 -31 -25h-168q-25 0 -20 25zM254 25l31 180q6 25 30 24h144q25 0 20 -24l-30 -180q-4 -25 -29 -25h-146q-25 0 -20 25z" />
<glyph unicode="@" horiz-adv-x="1998" d="M208 188q-38 172 1 385q74 422 358.5 677t700.5 255q387 0 575.5 -237.5t114.5 -653.5q-25 -143 -94.5 -276t-171 -220t-207.5 -87q-156 0 -166 153q-27 -31 -43 -41q-35 -43 -105.5 -77.5t-146.5 -34.5h-127q-152 0 -241 110.5t-60 268.5l53 303q27 156 152 266.5 t266 110.5h94q90 0 172 -76q25 -23 41 -53q0 33 4 73l4 23q4 20 27 20h180q27 0 21 -24l-127 -727q-20 -109 61 -109q55 0 109.5 74t85 156.5t43.5 154.5q63 356 -77 546.5t-466 190.5q-336 0 -566.5 -208.5t-291.5 -557.5q-61 -350 94.5 -559t493.5 -209q217 0 399 101 q16 10 23 -4l51 -113q6 -14 -10 -25q-217 -125 -490 -124q-195 0 -349.5 66.5t-250.5 188t-134 293.5zM834 416q-31 -178 143 -178h70q175 0 206 178l50 284q33 180 -144 181h-67q-176 0 -207 -181z" />
<glyph unicode="A" d="M39 23l631 1376q8 16 26 16h363q18 0 20 -16l148 -1374q4 -25 -21 -25h-215q-18 0 -20 16l-21 312q0 4 8 51q-35 -10 -59 -10h-412q-25 0 -55 10q-8 -47 -10 -51l-131 -312q-6 -16 -27 -16h-213q-25 0 -12 23zM500 551q43 12 65 12h324q23 0 61 -12q-20 35 -22 59 l-43 525q-1 8 -1 16q0 31 19 53q-14 -14 -29 -14h-71q-14 0 -25 14q6 -13 6 -27q0 -19 -10 -42l-229 -525q-10 -25 -45 -59z" />
<glyph unicode="B" horiz-adv-x="1232" d="M147 25l242 1366q4 25 31 24h600q152 1 236 -101q65 -78 65 -182q0 -32 -6 -67l-15 -80q-12 -66 -49 -129t-82 -96q-12 -6 -22 -12q8 -6 16 -15q37 -37 57 -99q14 -42 14 -84q0 -20 -3 -40l-29 -160q-27 -147 -150.5 -248.5t-275.5 -101.5h-606q-27 0 -23 25zM410 188 q2 0 8 3.5t14 7.5t19.5 7t21.5 3h279q78 0 129 40t63 109l25 146q3 18 3 34q0 48 -27 78q-36 40 -116 41h-276q-8 0 -16.5 2.5t-15.5 4.5t-11 5l-8 6l-4 3q0 -2 1 -7t2 -12.5t1 -16.5v-17l-70 -385q0 -6 -4 -15.5t-7 -16.5t-6 -13.5t-5 -6.5zM520 809q43 18 64 18h276 q80 0 130 40t63 112l12 74q4 21 4 39q1 46 -25 74q-36 40 -116 40h-279q-10 0 -20.5 3t-16.5 6.5t-12 6.5l-6 3q6 -41 4 -51l-55 -316q-2 -8 -5 -17.5t-7.5 -15.5t-6.5 -9z" />
<glyph unicode="C" horiz-adv-x="1183" d="M170 348l127 717q27 147 150.5 252.5t267.5 105.5h268q143 1 229 -105q67 -82 67 -191q0 -30 -5 -62l-14 -80q-4 -20 -25 -20h-207q-20 0 -16 20l8 53q5 26 5 48q0 120 -144 120h-144q-168 0 -198 -168l-117 -663q-4 -24 -5 -45q0 -121 144 -121h146q168 0 198 166l10 61 q4 20 25 21h205q20 0 18 -21l-16 -88q-27 -147 -150 -250.5t-268 -103.5h-266q-145 0 -231 104q-67 80 -68 186q0 31 6 64z" />
<glyph unicode="D" horiz-adv-x="1284" d="M147 20l244 1373q2 20 25 20h604q152 -1 240 -105q67 -80 67 -184q0 -32 -6 -67l-123 -699q-27 -147 -151.5 -252.5t-276.5 -105.5h-604q-20 0 -19 20zM414 201l4 2t10 4t13.5 5t16.5 4t17 1h285q78 0 129 41t63 109l119 680q3 18 3 33q0 46 -26 76q-36 40 -116 40h-283 q-8 0 -17 2t-15.5 5t-11.5 6t-9 5l-4 3q8 -37 4 -52l-162 -917q-2 -14 -20 -47z" />
<glyph unicode="E" horiz-adv-x="1083" d="M150 25l239 1364q4 27 31 26h774q20 0 18 -20l-32 -178q-2 -20 -25 -21h-508q-8 0 -16 2t-15.5 5t-11.5 5t-8 6l-4 3q6 -37 4 -52l-51 -291q-2 -12 -23 -47l5 2t10.5 4.5t13.5 5.5t17.5 4t17.5 1h454q20 0 17 -21l-27 -151q-2 -23 -24 -23h-455q-10 0 -20.5 3t-17.5 7.5 t-12 7.5l-5 3q8 -33 4 -52l-66 -368q-2 -18 -22 -51l7 3l14 6t19.5 6t22.5 3h547q23 0 18 -20l-30 -177q-4 -20 -25 -20h-815q-27 0 -20 25z" />
<glyph unicode="F" horiz-adv-x="991" d="M147 20l242 1371q4 25 31 24h774q23 0 18 -20l-30 -176q-4 -23 -25 -23h-508q-10 0 -21.5 3t-17.5 7l-12 8l-6 3q8 -33 4 -52l-51 -297q-2 -12 -23 -49q47 18 64 19h411q23 0 19 -23l-27 -151q-4 -20 -24 -21h-414q-8 0 -17.5 2t-15.5 5t-11 5t-8 4.5t-3 4.5q6 -37 4 -52 l-105 -592q-4 -20 -24 -20h-205q-20 0 -19 20z" />
<glyph unicode="G" horiz-adv-x="1224" d="M170 348l127 717q27 147 151.5 252.5t276.5 105.5h254q147 0 237 -103q69 -81 69 -184q0 -28 -5 -59l-8 -45q-4 -20 -25 -20h-205q-20 0 -16 20l4 25q3 18 3 34q0 49 -27 77q-37 38 -117 38h-154q-80 0 -131 -42t-63 -117l-119 -672q-4 -24 -4 -45q0 -121 143 -121h152 q168 0 198 166l31 180q2 6 6 16.5t8.5 16.5t8.5 12l4 6l-5 -2q-6 -2 -12 -5t-13 -6t-16.5 -5t-17.5 -2h-133q-23 0 -18 22l24 133q4 20 25 21h401q20 0 19 -21l-70 -393q-27 -147 -151.5 -252.5t-276.5 -105.5h-254q-150 0 -238 106q-69 82 -69 189q0 30 6 63z" />
<glyph unicode="H" horiz-adv-x="1320" d="M135 20l242 1375q4 20 24 20h205q20 0 17 -20l-95 -537q-2 -14 -22 -49q49 18 63 18h426q8 0 17.5 -2t15.5 -4t11 -5t9 -5l5 -2q-8 35 -6 49l94 537q4 20 24 20h205q23 0 19 -20l-242 -1375q-4 -20 -27 -20h-202q-23 0 -19 20l102 582q4 16 23 51l-4 -3t-10 -5t-13.5 -5 t-17.5 -5t-18 -2h-424q-10 0 -18.5 2t-15.5 5t-11.5 5t-8.5 5l-4 3q6 -39 4 -51l-102 -582q-2 -20 -25 -20h-204q-20 0 -17 20z" />
<glyph unicode="I" horiz-adv-x="575" d="M147 20l244 1375q2 20 25 20h200q23 0 21 -20l-244 -1375q-2 -20 -24 -20h-201q-23 0 -21 20z" />
<glyph unicode="J" horiz-adv-x="610" d="M-51 -188l26 147q4 25 27 25h27q74 0 126 34.5t64 108.5l223 1266q4 25 31 24h197q25 0 20 -24l-219 -1248q-27 -150 -151.5 -254t-276.5 -104h-74q-25 0 -20 25z" />
<glyph unicode="K" horiz-adv-x="1200" d="M147 20l244 1375q2 20 25 20h202q20 0 19 -20l-88 -494q-10 -53 -35 -121q41 57 90 105l510 518q12 12 27 12h256q12 0 15 -8t-9 -18l-533 -525q-18 -18 -45 -26q2 0 5.5 -3.5t8.5 -6.5t9 -8t8 -11l354 -784q6 -10 0 -17.5t-18 -7.5h-225q-16 0 -23 14l-276 619 q-4 8 0 53q-25 -37 -39 -53l-133 -135q-6 -4 -15.5 -7.5t-18.5 -5.5l-9 -2q0 -2 5 -6t9 -11t2 -13l-76 -433q-2 -20 -24 -20h-203q-20 0 -19 20z" />
<glyph unicode="L" horiz-adv-x="915" d="M150 25l239 1366q6 25 31 24h194q27 0 23 -24l-201 -1135q-2 -16 -22 -55q41 16 61 16h432q27 0 21 -22l-29 -170q-4 -25 -31 -25h-698q-25 0 -20 25z" />
<glyph unicode="M" horiz-adv-x="1714" d="M150 25l239 1364q4 27 31 26h231q23 0 27 -20l213 -936q8 -37 8 -101q23 66 43 101l545 936q12 20 33 20h231q27 0 23 -26l-242 -1364q-4 -25 -29 -25h-196q-25 0 -21 25l144 825q4 14 47 154q-10 -18 -82 -142l-477 -844q-8 -16 -27 -16h-109q-18 0 -20 16l-182 842 q-27 123 -29 144q0 -4 -1 -25t-1 -40t-2 -46t-6 -45l-146 -823q-4 -25 -30 -25h-195q-25 0 -20 25z" />
<glyph unicode="N" horiz-adv-x="1388" d="M147 25l242 1364q4 27 31 26h192q20 0 27 -18l371 -891q35 -82 37 -96q0 4 -1.5 25.5t0 46t3.5 40.5l153 867q4 27 29 26h194q27 0 23 -26l-242 -1364q-4 -25 -28 -25h-181q-20 0 -26 16l-379 924q-37 86 -39 96q0 -4 1 -25.5t1 -46t-2 -40.5l-158 -899q-6 -25 -30 -25 h-195q-27 0 -23 25z" />
<glyph unicode="O" horiz-adv-x="1249" d="M170 348l127 717q27 147 150.5 252.5t267.5 105.5h280q145 1 231 -105q67 -82 67 -189q0 -31 -5 -64l-127 -717q-27 -147 -149.5 -250.5t-268.5 -103.5h-280q-145 0 -231 104q-67 80 -68 186q0 31 6 64zM422 375q-4 -24 -5 -45q0 -121 144 -121h160q168 0 199 166 l116 663q4 24 4 45q0 123 -145 123h-158q-168 0 -198 -168z" />
<glyph unicode="P" horiz-adv-x="1150" d="M135 25l240 1364q4 27 31 26h581q152 1 240 -101q67 -78 67 -182q0 -32 -6 -67l-33 -191q-27 -147 -150.5 -247.5t-275.5 -100.5h-305q-23 0 -63 21q6 -39 2 -60l-82 -462q-4 -25 -29 -25h-196q-25 0 -21 25zM489 715q47 20 64 20h262q80 0 130.5 40t62.5 110l28 162 q3 17 3 33q1 46 -27 76q-36 40 -115 40h-262q-8 0 -17.5 2t-15.5 5t-11 6t-9 5l-4 3q8 -35 4 -54l-70 -397q-2 -12 -23 -51z" />
<glyph unicode="Q" horiz-adv-x="1249" d="M170 348l127 717q27 147 150.5 252.5t267.5 105.5h280q145 0 231 -105q68 -82 68 -189q0 -31 -6 -64l-127 -717q-25 -143 -143.5 -245.5t-257.5 -108.5h-39q-10 0 -41 14q8 -29 4 -47l-31 -170q-4 -27 -28 -27h-123q-25 0 -21 27l31 170q4 20 20 47q-37 -14 -47 -14h-39 q-137 6 -219 110q-63 79 -63 180q0 31 6 64zM422 375q-4 -24 -4 -45q0 -121 143 -121h160q168 0 199 166l116 663q4 25 4 46q0 122 -143 122h-160q-168 0 -198 -168z" />
<glyph unicode="R" horiz-adv-x="1220" d="M150 25l239 1364q4 27 31 26h579q152 1 241 -101q69 -79 69 -185q0 -31 -6 -64l-25 -135q-18 -113 -100 -200t-191 -116q-23 -4 -59 7q31 -41 33 -46l188 -544q4 -14 -3 -22.5t-22 -8.5h-200q-20 0 -25 18l-180 531q-2 6 -3 14t-1 15.5v12.5v7l-3 -4t-7.5 -6t-12.5 -5 t-16 -3h-146q-14 0 -45 14q4 -31 2 -47l-92 -522q-4 -25 -30 -25h-195q-27 0 -20 25zM512 760q47 18 61 18h265q78 0 129 40t63 110l21 119q3 17 3 32q0 47 -28 77q-37 40 -117 40h-262q-8 0 -16 2t-15.5 5t-12.5 6t-8 5l-3 3q8 -35 4 -52l-61 -354q-3 -12 -23 -51z" />
<glyph unicode="S" horiz-adv-x="1140" d="M129 350l18 107q4 25 31 24h197q25 0 20 -24l-14 -82q-5 -26 -5 -47q0 -119 144 -119h139q78 0 129.5 42t67.5 124l12 76q2 12 2 24q0 72 -86 111l-372 159q-92 37 -134 116q-30 57 -30 119q0 24 4 48l6 41q27 145 152 249.5t274 104.5h223q156 0 237 -103 q61 -77 61 -182q0 -35 -7 -73l-8 -43q-4 -25 -29 -25h-196q-27 0 -21 25l8 47q2 14 2 26q0 45 -28 74q-36 37 -105 37h-151q-66 0 -110 -39t-54 -102l-4 -21q-2 -15 -2 -28q0 -72 73 -107l381 -164q104 -43 142 -113q25 -45 25 -107q0 -34 -7 -74l-18 -105 q-27 -150 -153 -253t-277 -103h-236q-152 0 -239 106q-68 82 -68 190q0 31 6 64z" />
<glyph unicode="T" horiz-adv-x="907" d="M166 1221l29 168q4 27 30 26h916q25 0 20 -26l-28 -168q-4 -25 -31 -25h-285q-8 0 -17 2t-16.5 5t-12.5 6t-9 5l-4 3q8 -33 4 -50l-201 -1142q-4 -25 -31 -25h-194q-27 0 -21 25l201 1142q4 20 23 50l-7 -3q-8 -4 -17 -8t-21.5 -7t-22.5 -3h-285q-27 0 -20 25z" />
<glyph unicode="U" horiz-adv-x="1275" d="M184 352l183 1037q4 27 30 26h197q25 0 20 -26l-178 -1014q-5 -26 -5 -47q0 -119 144 -119h158q168 0 199 166l178 1014q4 27 29 26h198q25 0 21 -26l-184 -1037q-25 -150 -151 -254t-275 -104h-263q-151 0 -239 104q-67 81 -68 188q0 32 6 66z" />
<glyph unicode="V" horiz-adv-x="1204" d="M213 1386q-6 29 25 29h206q23 0 27 -20l160 -977q2 -25 2 -127q37 106 47 125l506 979q10 20 33 20h204q31 0 17 -29l-731 -1366q-10 -20 -37 -20h-180q-27 0 -29 20z" />
<glyph unicode="W" horiz-adv-x="1787" d="M203 1386q-4 29 26 29h205q23 0 25 -22l69 -983q1 -13 1 -33q0 -40 -5 -109q29 104 45 142l424 983q8 23 31 22h197q23 0 24 -22l76 -985q1 -12 1 -31q0 -39 -5 -109q31 104 45 142l418 983q8 23 30 22h207q31 0 17 -29l-633 -1366q-10 -20 -31 -20h-186q-23 0 -25 20 l-94 947q-2 16 -2 40q0 36 4 91q-27 -90 -45 -131l-428 -947q-10 -20 -31 -20h-186q-23 0 -25 20z" />
<glyph unicode="X" horiz-adv-x="1214" d="M-37.5 9q-3.5 9 6.5 22l584 692q4 4 33 20q-25 18 -27 21l-321 620q-8 12 -2 21.5t22 9.5h240q18 0 26 -16l205 -418q8 -18 16 -78q27 57 43 76l355 420q14 16 33 16h239q16 0 19.5 -9t-9.5 -22l-542 -620l-35 -21l4 -2l8 -4t9 -6t8 -8l337 -692q8 -12 1 -21.5t-21 -9.5 h-238q-20 0 -26 16l-228 473q-10 18 -16 76q-29 -59 -43 -78l-393 -471q-12 -16 -33 -16h-237q-14 0 -17.5 9z" />
<glyph unicode="Y" horiz-adv-x="1079" d="M176 1384q-6 12 1 21.5t22 9.5h209q23 0 26 -18l203 -576q6 -23 10 -90q29 70 43 88l406 578q10 18 32 18h209q14 0 18.5 -8t-3.5 -23l-596 -831q-6 -8 -25 -27v-4t1 -8t1 -10l-84 -479q-6 -25 -31 -25h-198q-27 0 -23 25l86 479q0 4 3 10t6 9l2 3q-14 18 -17 27z" />
<glyph unicode="Z" horiz-adv-x="1017" d="M4 7q-2 7 2 22l27 147q2 23 18 41l774 932q10 12 26.5 25.5t31 21.5t16.5 10q-31 -10 -80 -10h-514q-27 0 -22 25l30 170q4 25 31 24h821q14 0 16.5 -7t-1.5 -22l-27 -149q-4 -20 -23 -43l-770 -926q-12 -14 -30.5 -29.5t-33.5 -25.5l-15 -10q41 14 96 14h610 q27 0 21 -24l-29 -168q-4 -25 -31 -25h-928q-14 0 -16 7z" />
<glyph unicode="[" horiz-adv-x="643" d="M84 -440l348 1978q4 25 29 25h311q25 0 19 -25l-19 -113q-4 -25 -31 -24h-145l-299 -1704h145q25 0 21 -25l-21 -112q-4 -27 -28 -27h-310q-27 0 -20 27z" />
<glyph unicode="\" horiz-adv-x="749" d="M205 1415q2 27 28 27h197q20 0 25 -19l301 -1409q-4 -27 -29 -26h-182q-20 0 -27 18z" />
<glyph unicode="]" horiz-adv-x="643" d="M4 -440l21 112q4 25 28 25h146l301 1702l-146 2q-27 0 -20 24l18 113q6 25 31 25h309q25 0 21 -25l-348 -1978q-6 -27 -31 -27h-309q-25 0 -21 27z" />
<glyph unicode="^" horiz-adv-x="1284" d="M174 928l657 839q12 16 19 0l358 -839q12 -23 -18 -23h-182q-18 0 -23 13l-184 458q-6 14 -9.5 30.5t-3.5 27v22.5v12l-4 -12t-8 -22.5t-13 -26.5t-20 -31l-350 -458q-10 -12 -28 -13h-181q-31 0 -10 23z" />
<glyph unicode="_" horiz-adv-x="980" d="M193 20l26 158q4 20 25 21h524q20 0 16 -21l-28 -158q-2 -20 -23 -20h-524q-20 0 -16 20z" />
<glyph unicode="`" horiz-adv-x="581" d="M338 1536q-6 8 0 17.5t18 9.5h170q16 0 25 -17l129 -258q4 -8 -1 -15t-15 -7h-119q-16 0 -25 12z" />
<glyph unicode="a" horiz-adv-x="1095" d="M152 360l73 412q27 154 149 259.5t265 105.5h94q96 0 172 -76q31 -29 37 -62q2 2 2 15.5t1 30t3 30.5l6 31q2 18 25 18h186q23 0 19 -20l-191 -1077q-4 -20 -24 -21h-187q-23 0 -18 21l6 28q2 14 6 30.5t9.5 30t5.5 17.5q-18 -35 -60 -63q-102 -76 -201 -76h-92 q-143 0 -228 106q-65 80 -65 188q0 35 7 72zM391 379q-5 -28 -5 -52q0 -55 26 -84q37 -42 123 -42h100q143 0 168 141l80 449q3 19 3 36q0 43 -22 69q-30 36 -100 36h-100q-174 0 -207 -180z" />
<glyph unicode="b" horiz-adv-x="1171" d="M135 27l283 1607q4 23 26 23h195q23 0 18 -23l-94 -534q-2 -14 -10 -32.5t-15.5 -34t-7.5 -17.5q16 23 62 53q37 31 97.5 50.5t117.5 19.5h94q145 -1 225 -105q60 -79 60 -189q0 -36 -6 -75l-74 -410q-27 -158 -146.5 -262t-267.5 -104h-112q-96 0 -172 76q-29 27 -41 55 q0 -53 -2 -62l-7 -36q-4 -20 -26 -21h-178q-23 0 -19 21zM428 342q-4 -22 -4 -40q0 -101 115 -101h133q84 0 134 42t66 140l66 365q5 31 5 57q1 55 -23 84q-34 43 -119 43h-131q-137 0 -162 -141z" />
<glyph unicode="c" horiz-adv-x="1085" d="M154 373l67 385q27 160 153 270.5t281 110.5h162q109 0 185.5 -57.5t104.5 -137.5q18 -52 18 -106q0 -29 -5 -58l-6 -28q-4 -20 -27 -21h-192q-23 0 -18 21l2 18q4 23 4 43q0 115 -142 115h-84q-84 0 -133 -42t-67 -141l-64 -360q-5 -32 -5 -58q0 -54 22 -82 q34 -42 118 -42h84q166 0 195 157l4 19q2 20 25 20h194q23 0 19 -20l-7 -29q-23 -133 -144.5 -245.5t-283.5 -112.5h-161q-156 0 -242 110q-64 83 -64 193q0 38 7 78z" />
<glyph unicode="d" horiz-adv-x="1173" d="M150 360l71 410q29 160 145.5 264.5t262.5 104.5h94q57 0 111.5 -19.5t80.5 -50.5q35 -31 43 -53q0 2 -2 18.5t-3 31.5t1 34l95 534q4 23 26 23h195q23 0 18 -23l-284 -1607q-2 -20 -25 -21h-180q-23 0 -19 21l6 36q2 8 21 62q-20 -29 -59 -55q-102 -76 -201 -76h-113 q-147 0 -230 104q-62 77 -62 184q0 37 8 78zM391 383q-6 -34 -7 -61q0 -52 24 -79q34 -42 118 -42h136q135 0 159 141l80 449q4 22 4 40q0 101 -117 101h-133q-84 0 -133 -43t-67 -141z" />
<glyph unicode="e" horiz-adv-x="1105" d="M150 371l67 387q29 158 157 269.5t279 111.5h183q150 1 240 -109q69 -85 68 -198q0 -33 -5 -68l-43 -236q-2 -20 -23 -20h-612q-41 0 -60 12q8 -20 5 -43l-21 -117q-3 -21 -3 -40q0 -46 20 -78q30 -44 110 -43h139q129 0 154 125l2 10q4 16 24 16h195q20 0 14 -20l-2 -15 q-39 -133 -151.5 -228t-241.5 -95h-192q-154 0 -243 110q-67 83 -67 194q0 36 7 75zM426 657q25 12 63 13h347q39 0 59 -13q-8 29 -4 52l16 86q2 16 2 30q1 45 -23 71q-32 36 -100 36h-155q-70 0 -114 -36t-54 -101l-17 -86q-4 -23 -20 -52z" />
<glyph unicode="f" horiz-adv-x="772" d="M188 942l27 158q4 25 29 24h112q47 0 60 -12q-8 18 -4 51l22 121q27 160 142.5 264.5t283.5 106.5h92q20 0 17 -21l-29 -164q-4 -27 -29 -26h-24h-4q-182 0 -211 -170l-21 -109q-6 -35 -22 -53q16 12 69 12h193q25 0 20 -24l-28 -158q-4 -27 -29 -27h-197q-47 0 -59 15 q8 -23 4 -49l-151 -854q-4 -20 -25 -21h-197q-20 0 -18 21l151 854q4 27 21 49q-16 -14 -64 -15h-112q-25 0 -19 27z" />
<glyph unicode="g" horiz-adv-x="1140" d="M-2 -203l14 86q14 72 62.5 138.5t109.5 93.5q-35 18 -53 57q-12 27 -12 54q0 12 2 24l6 33q18 106 141 153q-76 72 -76 184q0 35 7 74l18 97q29 162 152 255t276 93h174q117 0 199 -56q10 -6 20 -22q8 14 19 20q88 49 186 49h70q23 0 18 -20l-28 -160q-2 -23 -25 -22h-57 q-45 0 -88 -10q-8 0 -15.5 2t-12.5 5l-5 3q4 -6 10 -20.5t6 -20.5q12 -27 12 -63q0 -15 -2 -33l-18 -97q-29 -158 -151.5 -252t-276.5 -94h-205q-131 0 -143 -72l-4 -22q-1 -6 -1 -12q0 -60 119 -60l293 2q145 0 224 -83q61 -64 61 -160q0 -30 -6 -62l-12 -76 q-25 -139 -145 -225t-269 -86h-301q-147 0 -233 83q-66 64 -66 162q0 29 6 60zM211 -162q-3 -18 -3 -34q0 -44 24 -72q32 -37 106 -37h297q68 0 117 38t59 103l4 25q3 17 3 33q0 43 -24 70q-34 36 -106 36h-313q-57 0 -103.5 -37t-56.5 -104zM438 698q-4 -21 -4 -38 q0 -43 20 -68q29 -35 97 -35h158q136 0 161 141l15 90q4 20 4 37q0 42 -21 67q-28 36 -94 36h-160q-137 0 -161 -140z" />
<glyph unicode="h" horiz-adv-x="1175" d="M135 27l283 1607q4 23 26 23h195q23 0 18 -23l-94 -534q-2 -14 -9 -32.5t-15.5 -34t-8.5 -17.5q16 25 62 53q37 31 97.5 50.5t119.5 19.5h80q145 -1 223 -105q58 -78 58 -185q0 -37 -7 -79l-131 -739q-4 -25 -28 -25h-191q-25 0 -20 25l127 717q5 31 5 57q0 55 -23 84 q-34 43 -120 43h-80q-84 0 -134 -43t-66 -141l-127 -721q-4 -20 -27 -21h-194q-23 0 -19 21z" />
<glyph unicode="i" horiz-adv-x="540" d="M135 27l189 1077q4 20 26 20h195q23 0 18 -20l-188 -1077q-4 -20 -27 -21h-194q-23 0 -19 21zM356 1284l33 186q4 20 25 21h196q23 0 19 -21l-33 -186q-4 -23 -27 -22h-194q-23 0 -19 22z" />
<glyph unicode="j" horiz-adv-x="536" d="M-150 -481l31 168q2 16 23 18l26 2q147 6 179 180l215 1217q2 20 24 20h197q20 0 16 -20l-217 -1231q-27 -158 -156 -269.5t-282 -111.5h-35q-25 0 -21 27zM356 1284l33 186q4 20 25 21h196q23 0 19 -21l-33 -186q-4 -23 -27 -22h-194q-23 0 -19 22z" />
<glyph unicode="k" horiz-adv-x="1030" d="M135 27l281 1593q4 20 24 20h197q23 0 18 -20l-145 -823q-12 -66 -49 -156q47 76 106 137l338 352q14 14 33 15h227q14 0 17.5 -9.5t-8.5 -21.5l-402 -401q-20 -20 -43 -31q18 -8 29 -29l262 -616q6 -12 -1 -21.5t-22 -9.5h-209q-18 0 -24 19l-182 452q-6 14 -4 58 q-8 -25 -33 -50l-105 -108q-2 -2 -6 -3l-8 -2l-4 -1l3 -2t5 -5.5t2 -7.5l-57 -329q-4 -20 -27 -21h-194q-23 0 -19 21z" />
<glyph unicode="l" horiz-adv-x="540" d="M135 27l279 1587q4 20 26 20h195q23 0 18 -20l-278 -1587q-4 -20 -27 -21h-194q-23 0 -19 21z" />
<glyph unicode="m" horiz-adv-x="1851" d="M135 27l189 1077q4 20 26 20h174q25 0 21 -20l-2 -8q-2 -16 -16.5 -49t-16.5 -37q25 35 61 59q37 29 96.5 49.5t110.5 20.5h119q74 0 134.5 -32t96.5 -81q4 -8 6.5 -17.5t1.5 -15.5l-2 -12t-1 -8q4 16 53 57q55 49 131 79t151 30h93q141 -3 223 -107q61 -77 61 -182 q0 -37 -8 -78l-131 -745q-2 -20 -25 -21h-196q-20 0 -17 21l127 721q5 28 5 51q0 133 -148 133h-102q-70 0 -113 -37t-55 -104l-135 -764q-4 -20 -27 -21h-195q-23 0 -18 21l127 721q5 30 5 54q0 130 -144 130h-119q-68 0 -112 -37t-56 -104l-133 -764q-4 -20 -27 -21h-194 q-23 0 -19 21z" />
<glyph unicode="n" horiz-adv-x="1196" d="M135 27l189 1077q4 20 26 20h174q25 0 21 -20l-2 -8q-4 -18 -18.5 -51t-14.5 -35q25 35 61 59q37 29 96.5 49.5t110.5 20.5h123q143 -1 225 -105q62 -79 62 -188q0 -35 -6 -72l-131 -747q-4 -20 -27 -21h-195q-23 0 -18 21l127 721q5 30 5 54q0 130 -144 130h-123 q-68 0 -112 -37t-56 -104l-133 -764q-4 -20 -27 -21h-194q-23 0 -19 21z" />
<glyph unicode="o" horiz-adv-x="1118" d="M150 371l67 387q29 160 154 270.5t282 110.5h172q158 -1 244 -111q64 -83 64 -192q0 -37 -7 -78l-67 -387q-29 -160 -153 -269.5t-279 -109.5h-178q-156 0 -242 110q-64 82 -64 192q0 37 7 77zM391 381q-6 -33 -6 -60q1 -51 23 -79q34 -43 118 -43h97q84 0 133 43t65 139 l64 364q6 34 6 61q-1 52 -23 80q-34 42 -118 42h-95q-86 0 -135 -42t-65 -141z" />
<glyph unicode="p" horiz-adv-x="1175" d="M45 -504l283 1608q4 20 26 20h181q20 0 18 -20l-8 -37q0 -8 -19 -61q20 29 60 55q102 76 198 76h115q147 0 229 -105q62 -79 62 -189q0 -35 -6 -73l-72 -410q-29 -160 -145.5 -263t-261.5 -103h-95q-59 0 -112.5 19.5t-79.5 47.5q-35 31 -43 54q0 -2 2 -18.5t3 -31 t-1 -34.5l-94 -535q-4 -20 -27 -20h-195q-23 0 -18 20zM432 342q-4 -21 -4 -39q0 -102 117 -102h133q84 0 133 43t68 139l63 365q5 32 5 58q0 54 -23 83q-33 43 -117 43h-135q-135 0 -160 -141z" />
<glyph unicode="q" horiz-adv-x="1081" d="M150 360l71 410q29 158 148.5 262.5t265.5 104.5h108q96 0 172 -76q31 -27 41 -55q0 55 2 61l7 37q4 23 26 22h185q23 0 18 -22l-283 -1608q-4 -20 -26 -20h-201q-23 0 -18 20l94 535q2 14 10 33.5t15.5 34t7.5 16.5q-16 -23 -60 -54q-39 -29 -99.5 -48t-117.5 -19h-90 q-145 0 -225 104q-59 75 -59 181q0 39 8 81zM391 383q-5 -31 -5 -57q0 -53 22 -82q34 -43 118 -43h127q137 0 162 141l80 449q4 22 4 40q0 101 -115 101h-129q-84 0 -133 -43t-67 -141z" />
<glyph unicode="r" horiz-adv-x="737" d="M135 27l189 1077q4 20 26 20h174q25 0 21 -20l-2 -8q-2 -16 -17.5 -49t-15.5 -37q25 35 61 59q37 29 96.5 49.5t110.5 20.5h99q23 0 18 -23l-29 -166q-4 -20 -26 -20h-164q-68 0 -112 -37t-56 -105l-133 -761q-4 -20 -27 -21h-194q-23 0 -19 21z" />
<glyph unicode="s" horiz-adv-x="1026" d="M104 276l13 68q2 20 24 21h181q25 0 24 -17l-8 -69q-4 -35 18.5 -57.5t63.5 -22.5h246q39 0 69.5 25.5t36.5 64.5l14 82q2 11 2 22q0 49 -49 64l-336 73q-113 16 -163 89q-36 53 -36 124q0 27 5 56l8 49q23 123 121 207t221 84h258q123 0 193 -85q58 -71 57 -162 q0 -18 -2 -38l-8 -39q-4 -20 -25 -20h-180q-25 0 -25 16l4 41q4 35 -19.5 57.5t-63.5 22.5h-216q-41 0 -70.5 -25.5t-35.5 -64.5l-8 -51q-1 -7 -1 -14q0 -46 58 -64l334 -74q111 -18 158 -90q33 -51 33 -119q0 -27 -5 -57l-14 -90q-23 -123 -120 -207t-222 -84h-289 q-122 0 -192 85q-57 69 -57 158q0 20 3 41z" />
<glyph unicode="t" horiz-adv-x="878" d="M176 942l29 158q4 25 28 24h191q37 0 59 -12q-8 20 -4 51l41 236q2 4 3 8t5 7t6.5 4t9.5 3t9 4l203 86q12 4 18 0t4 -16l-59 -330q-6 -35 -23 -53q16 12 68 12h194q25 0 21 -24l-27 -158q-6 -27 -30 -27h-197q-43 0 -59 15q8 -23 4 -49l-152 -854q-4 -20 -24 -21h-197 q-23 0 -18 21l151 854q4 27 21 49q-27 -14 -64 -15h-190q-25 0 -21 27z" />
<glyph unicode="u" horiz-adv-x="1122" d="M174 356l133 748q2 20 25 20h196q20 0 17 -20l-125 -719q-6 -32 -6 -59q0 -52 24 -80q36 -43 121 -43h111q70 0 112.5 35.5t55.5 103.5l135 762q2 20 24 20h197q20 0 18 -20l-190 -1075q-4 -23 -27 -23h-172q-25 0 -20 21v10q4 14 18.5 48t14.5 36q-25 -35 -62 -60 q-37 -29 -96.5 -48t-110.5 -19h-112q-141 0 -225 104q-63 79 -63 186q0 35 7 72z" />
<glyph unicode="v" horiz-adv-x="1005" d="M193 1102q-4 29 24 28h180q23 0 25 -20l108 -694q4 -22 4 -58t-4 -88q27 98 50 146l354 694q10 20 31 20h182q29 0 14 -28l-569 -1082q-10 -20 -31 -20h-158q-20 0 -22 20z" />
<glyph unicode="w" horiz-adv-x="1720" d="M193 1102q-6 29 24 28h180q23 0 25 -18l96 -713q4 -26 4 -60q0 -23 -2 -50q16 66 41 112l361 705q12 20 32 20h168q23 0 25 -20l113 -705q5 -26 5 -59q0 -25 -3 -53q20 70 38 110l351 713q8 18 28 18h181q31 0 16 -28l-559 -1082q-10 -20 -31 -20h-151q-23 0 -25 20 l-117 799q-2 10 0 51q-14 -43 -18 -53l-397 -797q-10 -20 -33 -20h-152q-20 0 -24 20z" />
<glyph unicode="x" horiz-adv-x="997" d="M-39.5 9q-3.5 9 8.5 22l463 553q6 6 35 20q-25 16 -27 23l-235 473q-6 12 0 21t22 9h203q20 0 27 -16l137 -307q12 -31 12 -66v-10q14 41 41 76l244 307q12 16 33 16h202q16 0 19.5 -9t-6.5 -21l-402 -473q-6 -6 -35 -23q25 -14 27 -20l270 -553q6 -12 0 -21.5t-22 -9.5 h-203q-23 0 -29 16l-174 381q-12 27 -12 64q-14 -37 -35 -64l-309 -381q-12 -16 -33 -16h-202q-16 0 -19.5 9z" />
<glyph unicode="y" horiz-adv-x="1009" d="M-4 -481l31 166q2 20 22 20h84q35 0 59.5 9.5t45 33t33 43t32.5 59.5l72 140q0 2 15 12l16 10q-4 -2 -17.5 -1t-13.5 7l-189 1084q-6 29 25 28h180q23 0 25 -20l114 -719q4 -31 4 -61q0 -21 -2 -41q14 53 41 104l365 717q10 20 31 20h182q31 0 14 -28l-686 -1303 q-80 -154 -176 -229.5t-227 -75.5h-60q-25 0 -20 25z" />
<glyph unicode="z" horiz-adv-x="956" d="M31 37l28 162q0 4 7 10l632 651q39 41 109 70q-45 -8 -131 -8h-381q-25 0 -21 24l29 160q4 25 29 24h715q27 0 22 -30l-29 -146q-2 -8 -8 -14l-626 -664q-41 -41 -107 -69q43 8 125 8h485q25 0 19 -27l-27 -157q-6 -25 -31 -25h-819q-27 0 -20 31z" />
<glyph unicode="{" horiz-adv-x="798" d="M158 481l22 129q4 25 29 27h16q109 0 161 60.5t75 185.5l76 426q23 131 131 205.5t231 74.5h82q25 0 20 -24l-20 -113q-4 -27 -29 -27h-63q-145 0 -170 -141l-86 -489q-23 -135 -146 -222q-29 -20 -51 -28q18 -10 41 -31q84 -86 62 -217l-88 -490q-25 -141 118 -141h72 q25 0 21 -24l-21 -115q-4 -25 -29 -25h-88q-125 0 -206.5 75t-59.5 208l76 424q23 127 -7 186.5t-139 61.5h-12q-25 0 -18 24z" />
<glyph unicode="|" horiz-adv-x="618" d="M135 -492l350 1991q4 20 25 21h205q20 0 16 -21l-350 -1991q-4 -20 -25 -20h-204q-20 0 -17 20z" />
<glyph unicode="}" horiz-adv-x="796" d="M-49 -473l20 115q4 25 29 24h72q145 0 170 141l84 490q25 131 137 217q31 20 53 31q-20 8 -43 28q-92 86 -67 222l88 489q25 141 -121 141h-62q-25 0 -20 27l18 113q6 25 31 24h80q125 0 207 -74.5t57 -205.5l-74 -426q-23 -127 8 -186.5t140 -59.5h18q23 -2 19 -27 l-23 -129q-4 -25 -29 -24h-12q-109 -2 -159 -61.5t-72 -186.5l-76 -424q-23 -133 -131.5 -208t-233.5 -75h-88q-25 0 -20 25z" />
<glyph unicode="~" horiz-adv-x="1159" d="M240 440q35 115 110.5 185.5t179.5 70.5q10 0 18.5 -1t17.5 -3t15.5 -3t16.5 -6t15 -7t18.5 -9.5t18.5 -9.5t21.5 -12t22.5 -14q70 -47 105 -47q39 0 67.5 24.5t42.5 61.5q8 14 25 14h123q23 0 14 -22q-35 -115 -111 -185.5t-180 -70.5q-63 0 -162 63q-74 49 -106 49 q-37 0 -66.5 -24.5t-42.5 -59.5q-10 -16 -24 -16h-123q-23 0 -16 22z" />
<glyph unicode="&#xa1;" horiz-adv-x="634" d="M119 -328l211 1078q4 25 28 24h150q25 0 20 -24l-170 -1078q-4 -25 -28 -24h-191q-25 0 -20 24zM371 971l28 164q4 25 29 24h145q25 0 21 -24l-29 -164q-4 -25 -28 -25h-146q-25 0 -20 25z" />
<glyph unicode="&#xa2;" horiz-adv-x="1085" d="M154 373l67 385q27 160 153 270.5t281 110.5h2l43 235q4 27 29 27h139q25 0 21 -27l-43 -237q150 -10 222.5 -120t51.5 -237l-6 -28q-4 -20 -27 -21h-192q-23 0 -18 21l2 18q29 158 -138 158h-84q-84 0 -133 -42t-67 -141l-64 -360q-16 -98 17.5 -140t117.5 -42h84 q166 0 195 157l4 19q2 20 25 20h194q23 0 19 -20l-7 -29q-20 -127 -132.5 -236.5t-264.5 -119.5l-49 -279q-4 -25 -29 -24h-139q-25 0 -20 24l49 277h-4q-156 0 -242 110.5t-57 270.5z" />
<glyph unicode="&#xa3;" horiz-adv-x="1355" d="M88 14l25 146q4 23 24 22h47q174 0 207 185l43 239h-215q-20 0 -18 21l24 139q4 20 25 20h217l45 258q27 156 154 267.5t272 111.5h211q147 0 234 -105.5t61 -260.5l-10 -62q-4 -23 -25 -22h-207q-20 0 -16 22l4 27q33 182 -141 182h-84q-178 0 -211 -182l-41 -236h286 q20 0 17 -20l-25 -139q-4 -20 -24 -21h-287l-43 -244q-14 -88 -82 -151h311q176 0 207 178l4 21q4 20 25 20h205q20 0 18 -20l-8 -39q-27 -158 -153 -268.5t-273 -110.5h-787q-20 0 -16 22z" />
<glyph unicode="&#xa4;" horiz-adv-x="1601" d="M172 29q-12 16 4 30l180 160q-84 150 -47 352q35 203 174 355l-129 166q-12 16 4 30l113 99q16 14 29 0l129 -168q164 106 356.5 106t317.5 -106l188 168q18 14 31 0l75 -99q10 -14 -6 -30l-186 -166q84 -152 47 -355q-35 -203 -172 -352l125 -160q12 -14 -6 -30 l-111 -99q-16 -14 -28 0l-125 160q-164 -109 -357.5 -108.5t-320.5 108.5l-181 -160q-16 -14 -28 0zM518 571.5q-29 -161.5 54 -266t243 -104.5t279.5 104.5t148.5 266t-54 266t-243 104.5t-279.5 -104.5t-148.5 -266z" />
<glyph unicode="&#xa5;" horiz-adv-x="1157" d="M174 258l25 137q4 23 24 23h322l16 86q0 4 3 10t5 9l2 3q-12 16 -16 27l-6 18h-299q-20 0 -17 23l25 137q4 23 25 23h200l-229 630q-6 12 1 21.5t21 9.5h211q20 0 25 -18l203 -576q6 -25 10 -67h10q16 43 33 65l406 578q10 18 32 18h209q14 0 18.5 -8t-3.5 -23l-453 -630 h199q20 0 18 -23l-25 -137q-4 -23 -24 -23h-299l-12 -18q-6 -8 -25 -27l1 -4t1 -8v-10l-16 -86h323q18 0 17 -23l-25 -137q-4 -23 -25 -22h-321l-37 -211q-6 -25 -31 -25h-198q-27 0 -23 25l39 211h-324q-20 0 -16 22z" />
<glyph unicode="&#xa6;" horiz-adv-x="618" d="M135 -492l139 791q4 20 25 20h205q20 0 16 -20l-139 -791q-4 -20 -25 -20h-204q-20 0 -17 20zM346 709l139 790q4 20 25 21h205q20 0 18 -21l-141 -790q-2 -20 -23 -21h-207q-20 0 -16 21z" />
<glyph unicode="&#xa7;" horiz-adv-x="1368" d="M139 -123l21 115q4 27 28 26h199q25 0 21 -26l-19 -96q-14 -80 23 -124t110 -44h197q66 0 117 45t65 123l19 102q16 98 -86 145l-402 170q-92 35 -135 120t-27 179l9 37q25 139 139 238q-82 94 -60 217l7 37q27 154 154.5 262t279.5 108h239q158 0 239 -109.5t52 -268.5 l-8 -48q-4 -27 -29 -26h-198q-25 0 -21 26l12 62q10 57 -25.5 96t-96.5 39h-195q-55 0 -101 -41t-57 -98l-4 -25q-16 -102 76 -143l410 -174q104 -43 143 -118t16 -196l-20 -122q-18 -96 -80 -181q35 -76 14 -188l-22 -123q-27 -156 -156 -265.5t-282 -109.5h-265 q-154 0 -241.5 110.5t-59.5 268.5zM520 627q-18 -102 76 -144l319 -145q23 -11 43 -27q23 37 29 76l19 102q18 98 -86 146l-304 137q-35 -18 -60.5 -50t-31.5 -71z" />
<glyph unicode="&#xa8;" horiz-adv-x="831" d="M330 1303l30 178q4 25 29 24h146q25 0 20 -24l-33 -178q-4 -27 -28 -27h-146q-25 0 -18 27zM727 1303l31 178q4 25 28 24h146q25 0 20 -24l-30 -178q-6 -27 -29 -27h-145q-25 0 -21 27z" />
<glyph unicode="&#xa9;" horiz-adv-x="1554" d="M300 877.5q48 273.5 253 451.5t469 178t407.5 -178t94.5 -451.5t-254 -452.5t-469 -179t-406.5 179t-94.5 452.5zM391 877.5q-41 -234.5 78 -386t348.5 -151.5t401.5 151.5t213 386t-78 385t-348.5 150.5t-401.5 -150.5t-213 -385zM573 739l48 271q18 106 105 182t192 76 h110q92 0 150.5 -59.5t58.5 -149.5q0 -18 -18 -19h-129q-14 0 -15 17q-6 72 -100 71h-55q-119 0 -142 -127l-45 -253q-23 -127 98 -127h54q92 0 125 67q6 16 20 17h129q18 0 10 -19q-33 -88 -110.5 -145.5t-169.5 -57.5h-111q-104 0 -163.5 75t-41.5 181z" />
<glyph unicode="&#xaa;" horiz-adv-x="864" d="M147 477l17 94q2 14 16 15h563q16 0 13 -15l-17 -94q-2 -14 -16 -14h-565q-14 0 -11 14zM223 942l51 291q18 111 105.5 185.5t187.5 74.5h66q70 0 123 -55q23 -18 26 -43q0 2 1 11t1 20.5t2 21.5l5 22q2 14 18 15h131q16 0 12 -17l-133 -761q-2 -14 -18 -15h-131 q-16 0 -15 13l4 22q2 10 5.5 21.5t6.5 20.5t5 11q-14 -23 -43 -43q-74 -55 -141 -55h-66q-102 0 -162.5 74.5t-40.5 185.5zM393 956q-22 -127 101 -127h71q100 0 119 99l55 319q18 98 -84 99h-69q-125 0 -148 -127z" />
<glyph unicode="&#xab;" horiz-adv-x="1079" d="M221 512l29 160q4 18 22 33l291 241q10 6 16.5 2t4.5 -16l-31 -166q-2 -14 -16 -27l-146 -129q-12 -10 -14 -19t6 -20l100 -127q12 -14 9 -28l-29 -166q-2 -12 -10.5 -16.5t-14.5 2.5l-207 241q-12 16 -10 35zM717 512l28 160q4 18 23 33l291 241q10 6 16 2t4 -16 l-28 -166q-4 -14 -19 -27l-145 -129q-12 -10 -13.5 -19t5.5 -20l100 -127q12 -14 8 -28l-29 -166q-2 -12 -10 -16.5t-14 2.5l-207 241q-12 16 -10 35z" />
<glyph unicode="&#xac;" horiz-adv-x="1419" d="M283 682l24 145q4 27 29 27h995q25 0 21 -27l-88 -503q-6 -27 -31 -27h-150q-25 0 -20 27l57 323q0 8 -6 8h-813q-25 0 -18 27z" />
<glyph unicode="&#xad;" horiz-adv-x="786" d="M201 530l22 136q4 23 25 22h524q20 0 16 -22l-24 -136q-2 -23 -23 -22h-524q-20 0 -16 22z" />
<glyph unicode="&#xae;" horiz-adv-x="1081" d="M233.5 1300.5q32.5 184.5 172 305t317.5 120.5t274.5 -120.5t63.5 -305t-171 -305.5t-317.5 -121t-275.5 121t-63.5 305.5zM300 1300.5q-28 -157.5 51 -259t232.5 -101.5t269.5 101.5t143.5 259t-52.5 258t-233.5 100.5t-268 -100.5t-142.5 -258zM442 1061l82 463 q2 8 11 8h200q49 0 78 -35t18 -84l-8 -47q-6 -37 -33.5 -66.5t-62.5 -39.5q-12 0 -8 -11l61 -186q2 -10 -8 -10h-70q-8 0 -8 6l-59 184q-2 6 -10 6h-54q-8 0 -8 -8l-33 -180q-2 -8 -12 -8h-67q-8 0 -9 8zM578 1329q-2 -6 4 -6h96q51 0 59 51l6 25q8 53 -43 53h-94 q-8 0 -8 -8z" />
<glyph unicode="&#xaf;" horiz-adv-x="923" d="M356 1294l19 105q4 25 28 24h580q25 0 18 -24l-18 -105q-4 -27 -29 -26h-579q-25 0 -19 26z" />
<glyph unicode="&#xb0;" horiz-adv-x="819" d="M317 1239l17 90q18 113 110.5 194t202.5 81h49q111 0 174.5 -81t42.5 -194l-16 -90q-20 -113 -111.5 -192.5t-201.5 -79.5h-49q-111 0 -174.5 79.5t-43.5 192.5zM469 1257q-10 -61 18.5 -97t85.5 -36h29q57 0 97 36t53 97l8 52q10 61 -17 98t-86 37h-26q-59 0 -100.5 -37 t-51.5 -98z" />
<glyph unicode="&#xb1;" horiz-adv-x="1185" d="M201 227l24 138q2 20 23 20h856q20 0 18 -20l-24 -138q-4 -23 -25 -22h-856q-20 0 -16 22zM297 899l25 139q4 20 24 21h326l57 325q4 23 25 23h133q20 0 16 -23l-57 -325h325q20 0 17 -21l-23 -139q-4 -20 -24 -20h-328l-59 -342q-4 -20 -25 -21h-133q-20 0 -16 21 l61 342h-328q-20 0 -16 20z" />
<glyph unicode="&#xb2;" horiz-adv-x="886" d="M76 547l30 170q12 70 48 113.5t110 80.5l385 256q47 31 53 72l11 61q10 49 -8 78t-62 29h-121q-66 0 -94 -61l-2 -13q-8 -37 -43 -37h-141q-16 0 -25 13q-6 12 -2 28l2 9q31 113 113 186q88 76 200 76h168q117 0 185 -90q66 -88 43 -213l-13 -74q-12 -72 -62 -129.5 t-118 -93.5l-395 -254q-10 -6 -14 -9v-12l-5 -18q-2 -8 -4 -13q4 2 13 3h452q16 0 25.5 -11.5t5.5 -27.5l-20 -119q-6 -37 -46 -37h-639q-16 0 -25 10t-5 27z" />
<glyph unicode="&#xb3;" horiz-adv-x="849" d="M76 766l2 12q2 18 13 29.5t28 11.5h141q35 0 31 -37l-2 -16q6 -63 71 -64h134q92 0 112 109l15 84q8 51 -10.5 81t-63.5 30h-115q-29 0 -24 26l18 98q4 29 33 29h100q43 0 71.5 27.5t35.5 64.5l10 52q16 102 -76 102h-106q-70 0 -99 -66l-2 -8q-8 -37 -43 -37h-141 q-16 0 -23.5 11.5t-5.5 29.5l4 8q31 113 113 187q88 76 201 76h168q117 0 180 -82q66 -84 43 -211l-6 -41q-18 -94 -92 -166q-8 -8 -9.5 -11.5t2.5 -9.5q31 -35 44.5 -86t2.5 -104l-16 -92q-20 -125 -117.5 -213t-216.5 -88h-184q-111 0 -170 74.5t-51 189.5z" />
<glyph unicode="&#xb4;" horiz-adv-x="581" d="M312.5 1273q-3.5 7 4.5 15l222 258q12 16 28 17h172q12 0 14.5 -9.5t-8.5 -17.5l-272 -258q-12 -12 -27 -12h-118q-12 0 -15.5 7z" />
<glyph unicode="&#xb5;" horiz-adv-x="1214" d="M47 -471l279 1577q4 25 28 24h187q27 0 22 -24l-129 -725q-33 -182 144 -182h86q176 0 208 182l127 725q4 25 29 24h191q25 0 20 -24l-190 -1079q-4 -27 -29 -27h-191q-25 0 -20 23q2 16 8 32.5t12.5 30.5t6.5 16q-25 -35 -56 -57q-74 -53 -170 -53h-102q-63 2 -98 33 q-31 25 -41 53q0 -66 -2 -80l-82 -469q-4 -25 -29 -25h-188q-25 0 -21 25z" />
<glyph unicode="&#xb6;" horiz-adv-x="1484" d="M289 858l69 385q18 115 111.5 196t204.5 81h807q25 0 18 -27l-346 -1966q-4 -25 -29 -25h-139q-25 0 -20 25l311 1761h-209l-311 -1761q-4 -25 -29 -25h-139q-25 0 -21 25l187 1055h-246q-111 0 -175.5 80.5t-43.5 195.5z" />
<glyph unicode="&#xb7;" horiz-adv-x="479" d="M119 514l33 186q4 25 28 25h168q25 0 21 -25l-33 -186q-6 -25 -31 -25h-166q-25 0 -20 25z" />
<glyph unicode="&#xb8;" horiz-adv-x="638" d="M18 -475l13 69q4 20 24 21h154q94 0 117 115q6 41 -12.5 68.5t-67.5 27.5h-125q-12 0 -18.5 7t-0.5 15l115 150q2 2 5 7t5 7t5.5 4t9.5 2h96q10 0 16 -6t0 -14l-61 -74h29q72 0 113.5 -55t29.5 -131l-8 -41q-12 -76 -73.5 -135.5t-135.5 -59.5h-211q-20 0 -19 23z" />
<glyph unicode="&#xb9;" horiz-adv-x="790" d="M61 551l21 117q6 39 43 39h176q18 0 29 -5q-2 10 0 27l114 645q4 23 11 37q-12 -8 -37 -8h-170q-35 0 -29 35l23 133q2 14 13 23.5t28 9.5h368q16 0 25.5 -10.5t5.5 -26.5l-147 -836q-2 -18 -11 -29q12 4 33 5h166q16 0 25.5 -10.5t5.5 -28.5l-21 -117q-6 -39 -45 -39 h-596q-18 0 -26.5 10t-4.5 29z" />
<glyph unicode="&#xba;" horiz-adv-x="866" d="M143 477l17 94q2 14 16 15h551q14 0 10 -15l-16 -94q-2 -14 -16 -14h-549q-14 0 -13 14zM184 950l49 273q20 115 108.5 192.5t199.5 77.5h123q113 0 173 -78t40 -192l-48 -273q-20 -115 -108 -191.5t-199 -76.5h-125q-111 0 -171 77t-42 191zM356 956q-12 -68 11.5 -98.5 t85.5 -30.5h67q119 0 142 129l45 258q12 70 -13 99.5t-84 29.5h-67q-119 0 -142 -129z" />
<glyph unicode="&#xbb;" horiz-adv-x="1079" d="M221 250l31 166q2 14 16 28l146 127q12 10 14 19.5t-6 19.5l-100 129q-12 12 -9 27l29 166q2 12 10 16t15 -2l206 -241q12 -14 11 -33l-29 -160q-4 -18 -23 -35l-290 -241q-10 -6 -16.5 -2t-4.5 16zM719 250l29 166q2 14 18 28l145 127q10 10 12.5 19.5t-5.5 19.5 l-101 129q-10 12 -8 27l29 166q2 12 10 16t14 -2l207 -241q14 -14 10 -33l-28 -160q-2 -18 -21 -35l-293 -241q-8 -6 -14 -2t-4 16z" />
<glyph unicode="&#xbc;" horiz-adv-x="2027" d="M109 551l22 117q6 39 43 39h176q18 0 27 -5q0 10 2 27l115 645q4 23 10 37q-12 -8 -37 -8h-170q-37 0 -31 35l25 133q2 14 13 23.5t26 9.5h370q16 0 25.5 -10.5t5.5 -26.5l-147 -836q-2 -18 -11 -29q12 4 33 5h166q16 0 25.5 -10.5t5.5 -28.5l-21 -117q-6 -39 -45 -39 h-598q-16 0 -24.5 10t-5.5 29zM803 211q-6 8 0 18l557 879q16 25 31 25h141q14 0 20.5 -7.5t-0.5 -19.5l-559 -879q-14 -25 -28 -24h-144q-12 0 -18 8zM1266 63l22 125q2 12 12 25l512 655q14 18 39 19h215q14 0 21.5 -9.5t5.5 -23.5l-111 -623q-2 -14 -6 -20q8 2 23 2h67 q16 0 25.5 -10t5.5 -27l-18 -108q-6 -37 -45 -37h-70q-12 0 -18 2q0 -6 -2 -19l-31 -184q-6 -35 -41 -35h-143q-16 0 -23.5 10.5t-5.5 24.5l33 184q2 12 4 19q-6 -2 -19 -2h-424q-14 0 -22 9t-6 23zM1503 211q12 2 29 2h217q14 0 20 -2q-2 6 0 20l64 351q2 18 6 30 q-6 -12 -18 -26l-293 -350q-12 -16 -25 -25z" />
<glyph unicode="&#xbd;" horiz-adv-x="2158" d="M109 551l22 117q6 39 43 39h176q18 0 27 -5q0 10 2 27l115 645q4 23 10 37q-12 -8 -37 -8h-170q-37 0 -31 35l25 133q2 14 13 23.5t26 9.5h370q16 0 25.5 -10.5t5.5 -26.5l-147 -836q-2 -18 -11 -29q12 4 33 5h166q16 0 25.5 -10.5t5.5 -28.5l-21 -117q-6 -39 -45 -39 h-598q-16 0 -24.5 10t-5.5 29zM803 211q-6 8 0 18l557 879q16 25 31 25h141q14 0 20.5 -7.5t-0.5 -19.5l-559 -879q-14 -25 -28 -24h-144q-12 0 -18 8zM1376 -168l31 170q12 70 48 114t110 81l385 254q47 33 53 73l12 62q8 49 -10 78q-16 29 -61 28h-119q-66 0 -94 -61 l-5 -13q-8 -37 -43 -36h-139q-18 0 -26 12q-6 12 -2 29l2 8q31 113 114 186q88 76 199 76h168q118 0 184 -90q66 -88 43 -213l-12 -74q-12 -72 -62.5 -129t-117.5 -94l-396 -254q-8 -6 -12 -8q0 -4 -2 -13l-4 -18q0 -8 -4 -12q6 2 14 2l451 -2q16 2 25.5 -9.5t4.5 -27.5 l-20 -119q-6 -37 -43 -37h-641q-16 0 -24.5 10.5t-6.5 26.5z" />
<glyph unicode="&#xbe;" horiz-adv-x="2129" d="M160 766l2 12q2 18 14 29.5t29 11.5h139q35 0 31 -37l-2 -16q6 -63 71 -64h134q92 0 112 109l15 84q8 51 -10.5 81t-63.5 30h-115q-29 0 -24 26l18 98q4 29 33 29h100q43 0 71.5 27.5t35.5 64.5l10 52q18 102 -76 102h-106q-70 0 -99 -66l-2 -8q-8 -37 -43 -37h-141 q-16 0 -23.5 11.5t-3.5 29.5l2 8q31 113 113 187q88 76 201 76h168q117 0 180 -82q66 -84 43 -211l-6 -41q-18 -94 -93 -166q-8 -8 -9 -12t5 -9q29 -35 42.5 -86t2.5 -104l-14 -92q-23 -125 -119 -213t-217 -88h-184q-111 0 -170 74.5t-51 189.5zM936 211q-6 8 2 18l557 879 q14 25 29 25h143q12 0 18.5 -7.5t0.5 -19.5l-560 -879q-14 -25 -28 -24h-142q-14 0 -20 8zM1401 63l22 125q2 12 11 25l514 655q14 18 39 19h213q14 0 21 -9.5t5 -23.5l-108 -623q-4 -14 -9 -20q8 2 23 2h70q16 0 24 -10t6 -27l-20 -108q-6 -37 -43 -37h-72q-12 0 -18 2 q2 -6 0 -19l-33 -184q-6 -35 -41 -35h-143q-14 0 -22.5 10.5t-6.5 24.5l33 184q2 12 6 19q-8 -2 -21 -2h-424q-14 0 -22 9t-4 23zM1636 211q12 2 31 2h215q14 0 21 -2q0 6 2 18l61 353q4 18 8 30q-8 -12 -20 -28l-293 -348q-12 -16 -25 -25z" />
<glyph unicode="&#xbf;" horiz-adv-x="1052" d="M172 53l18 105q16 96 86 182t173 125l139 57q117 49 133 146l27 129q6 25 28 24h148q25 0 20 -24l-22 -142q-33 -221 -254 -313l-119 -53q-98 -41 -115 -142l-18 -98q-8 -57 20.5 -98t83.5 -43h168q61 0 111.5 40t60.5 97l17 96q6 27 30 27h168q25 0 21 -27l-15 -84 q-29 -158 -146.5 -259t-277.5 -101h-180q-154 0 -244 101.5t-61 254.5zM782 1006l31 178q4 25 29 24h145q25 0 21 -24l-31 -178q-6 -27 -31 -27h-143q-25 0 -21 27z" />
<glyph unicode="&#xc0;" d="M39 23l631 1376q8 16 26 16h363q18 0 20 -16l148 -1374q4 -25 -21 -25h-215q-18 0 -20 16l-21 312q0 4 8 51q-35 -10 -59 -10h-412q-25 0 -55 10q-8 -47 -10 -51l-131 -312q-6 -16 -27 -16h-213q-25 0 -12 23zM500 551q43 12 65 12h324q23 0 61 -12q-20 35 -22 59 l-43 525q-6 41 18 69q-14 -14 -29 -14h-71q-14 0 -25 14q14 -29 -4 -69l-229 -525q-10 -25 -45 -59zM703 1795q6 9 18 9h170q16 0 24 -16l127 -244q4 -8 -1 -14t-15 -6h-119q-14 0 -22 12l-180 242q-8 8 -2 17z" />
<glyph unicode="&#xc1;" d="M39 23l631 1376q8 16 26 16h363q18 0 20 -16l148 -1374q4 -25 -21 -25h-215q-18 0 -20 16l-21 312q0 4 8 51q-35 -10 -59 -10h-412q-25 0 -55 10q-8 -47 -10 -51l-131 -312q-6 -16 -27 -16h-213q-25 0 -12 23zM500 551q43 12 65 12h324q23 0 61 -12q-20 35 -22 59 l-43 525q-6 41 18 69q-14 -14 -29 -14h-71q-14 0 -25 14q14 -29 -4 -69l-229 -525q-10 -25 -45 -59zM771 1530q-3 6 3 14l215 244q12 16 29 16h170q12 0 14 -9t-6 -17l-266 -242q-12 -12 -27 -12h-119q-10 0 -13 6z" />
<glyph unicode="&#xc2;" d="M39 23l631 1376q8 16 26 16h363q18 0 20 -16l148 -1374q4 -25 -21 -25h-215q-18 0 -20 16l-21 312q0 4 8 51q-35 -10 -59 -10h-412q-25 0 -55 10q-8 -47 -10 -51l-131 -312q-6 -16 -27 -16h-213q-25 0 -12 23zM500 551q43 12 65 12h324q23 0 61 -12q-20 35 -22 59 l-43 525q-6 41 18 69q-14 -14 -29 -14h-71q-14 0 -25 14q14 -29 -4 -69l-229 -525q-10 -25 -45 -59zM597 1522q-3 6 3 14l234 231q18 18 28 19h176q10 0 21 -19l153 -231q4 -8 -1 -14t-17 -6h-123q-12 0 -22 12l-105 117q-14 14 -14 24q-4 -10 -23 -24l-145 -117 q-16 -12 -29 -12h-123q-10 0 -13 6z" />
<glyph unicode="&#xc3;" d="M39 23l631 1376q8 16 26 16h363q18 0 20 -16l148 -1374q4 -25 -21 -25h-215q-18 0 -20 16l-21 312q0 4 8 51q-35 -10 -59 -10h-412q-25 0 -55 10q-8 -47 -10 -51l-131 -312q-6 -16 -27 -16h-213q-25 0 -12 23zM500 551q43 12 65 12h324q23 0 61 -12q-20 35 -22 59 l-43 525q-6 41 18 69q-14 -14 -29 -14h-71q-14 0 -25 14q14 -29 -4 -69l-229 -525q-10 -25 -45 -59zM586 1540q29 92 92 145.5t135 53.5q68 0 127 -58q20 -18 27.5 -24t22 -12.5t30.5 -6.5q31 0 55.5 20.5t32.5 49.5q8 18 25 18h79q23 0 17 -20q-29 -92 -92.5 -145.5 t-135.5 -53.5q-66 0 -127 58q-20 18 -27 24t-21.5 12.5t-30.5 6.5q-31 0 -55.5 -20.5t-32.5 -49.5q-8 -18 -25 -18h-80q-23 0 -16 20z" />
<glyph unicode="&#xc4;" d="M39 23l631 1376q8 16 26 16h363q18 0 20 -16l148 -1374q4 -25 -21 -25h-215q-18 0 -20 16l-21 312q0 4 8 51q-35 -10 -59 -10h-412q-25 0 -55 10q-8 -47 -10 -51l-131 -312q-6 -16 -27 -16h-213q-25 0 -12 23zM500 551q43 12 65 12h324q23 0 61 -12q-20 35 -22 59 l-43 525q-6 41 18 69q-14 -14 -29 -14h-71q-14 0 -25 14q14 -29 -4 -69l-229 -525q-10 -25 -45 -59zM610 1534l31 168q4 25 29 24h143q25 0 21 -24l-31 -168q-4 -25 -29 -25h-143q-25 0 -21 25zM1001 1534l31 168q4 25 29 24h143q25 0 21 -24l-31 -168q-4 -25 -29 -25h-143 q-25 0 -21 25z" />
<glyph unicode="&#xc5;" d="M39 23l631 1376q8 14 26 16q-47 63 -32 146l4 22q14 90 96 155.5t178 65.5h10q96 0 153.5 -65.5t41.5 -155.5l-4 -22q-14 -82 -84 -146q18 0 20 -16l148 -1374q4 -25 -21 -25h-215q-18 0 -20 16l-21 312q0 4 8 51q-35 -10 -59 -10h-412q-25 0 -55 10q-8 -47 -10 -51 l-131 -312q-6 -16 -27 -16h-213q-25 0 -12 23zM500 551q43 12 65 12h324q23 0 61 -12q-20 35 -22 59l-43 525q-6 41 18 69q-14 -14 -29 -14h-71q-14 0 -25 14q14 -29 -4 -69l-229 -525q-10 -25 -45 -59zM801 1563q-8 -47 15.5 -79t64.5 -32h4q43 0 77.5 32t43.5 79l2 12 q8 47 -15.5 79t-64.5 32h-4q-43 0 -78 -32t-43 -79z" />
<glyph unicode="&#xc6;" horiz-adv-x="1794" d="M4 25l901 1374q12 16 31 16h969q23 0 18 -20l-31 -178q-4 -20 -24 -21h-449q-8 0 -16 2t-15.5 5l-12.5 5t-8 6l-3 3q6 -37 4 -52l-51 -291q-2 -12 -23 -47l4 2q5 2 11 4.5t14 5.5t17.5 4t17.5 1h393q23 0 18 -21l-26 -151q-4 -23 -25 -23h-395q-10 0 -21.5 3t-17.5 7.5 t-12 7.5l-6 3q8 -33 6 -52l-66 -368q-4 -18 -22 -51l7 3l14 6t19.5 6t22.5 3h488q20 0 16 -20l-31 -177q-4 -20 -24 -20h-754q-18 0 -16 16l59 312q0 4 23 51q-37 -10 -62 -10h-426q-25 0 -53 10q-16 -47 -18 -51l-193 -312q-10 -16 -31 -16h-213q-25 0 -8 25zM571 551 q45 12 68 12h344q22 0 57 -12q-10 35 -4 59l94 525q2 16 16.5 37.5t24.5 31.5q-18 -14 -32 -14h-152q-12 0 -20 14q2 -10 -1 -31.5t-14 -37.5l-327 -525q-16 -25 -54 -59z" />
<glyph unicode="&#xc7;" horiz-adv-x="1183" d="M170 348l127 717q27 147 150.5 252.5t267.5 105.5h268q143 0 229 -105.5t62 -252.5l-14 -80q-4 -20 -25 -20h-207q-20 0 -16 20l8 53q31 168 -139 168h-144q-168 0 -198 -168l-117 -663q-29 -166 139 -166h146q168 0 198 166l10 61q4 20 25 21h205q20 0 18 -21l-16 -88 q-27 -147 -150 -250.5t-268 -103.5h-59l-56 -66h29q70 0 111 -52t28 -124l-6 -37q-12 -72 -71.5 -127t-131.5 -55h-208q-20 0 -17 21l12 65q2 20 23 21h149q92 0 113 106q6 39 -12.5 64.5t-65.5 25.5h-123q-12 0 -18 6t0 15l109 137h-72q-145 0 -231.5 103.5t-61.5 250.5z " />
<glyph unicode="&#xc8;" horiz-adv-x="1083" d="M150 25l239 1364q4 27 31 26h774q23 0 18 -20l-30 -178q-4 -20 -25 -21h-508q-10 0 -18 2t-14.5 5t-11.5 5t-9 6l-4 3q8 -37 4 -52l-51 -291q-2 -12 -21 -49q47 18 62 19h454q23 0 19 -21l-27 -151q-4 -23 -26 -23h-453q-12 0 -22.5 3t-16.5 7.5t-12 7.5l-6 3 q8 -33 4 -52l-66 -368q-2 -18 -22 -51l7 3t15 6t19.5 6t21.5 3h549q20 0 16 -20l-30 -177q-4 -20 -25 -20h-815q-25 0 -20 25zM634 1800q5 8 17 8h170q16 0 25 -14l127 -244q4 -8 -1 -14t-16 -6h-118q-14 0 -23 10l-180 244q-6 8 -1 16z" />
<glyph unicode="&#xc9;" horiz-adv-x="1083" d="M150 25l239 1364q4 27 31 26h774q23 0 18 -20l-30 -178q-4 -20 -25 -21h-508q-10 0 -18 2t-14.5 5t-11.5 5t-9 6l-4 3q8 -37 4 -52l-51 -291q-2 -12 -21 -49q47 18 62 19h454q23 0 19 -21l-27 -151q-4 -23 -26 -23h-453q-12 0 -22.5 3t-16.5 7.5t-12 7.5l-6 3 q8 -33 4 -52l-66 -368q-2 -18 -22 -51l7 3t15 6t19.5 6t21.5 3h549q20 0 16 -20l-30 -177q-4 -20 -25 -20h-815q-25 0 -20 25zM701.5 1536q-3.5 6 3.5 14l215 244q12 14 28 14h170q12 0 15.5 -8t-7.5 -16l-266 -244q-12 -10 -26 -10h-119q-10 0 -13.5 6z" />
<glyph unicode="&#xca;" horiz-adv-x="1083" d="M150 25l239 1366q4 25 31 24h774q23 0 18 -20l-30 -178q-4 -20 -25 -21h-508q-10 0 -18 2t-14.5 5t-11.5 5t-9 6l-4 3q8 -37 4 -52l-51 -291q-2 -12 -21 -49q47 18 62 19h454q23 0 19 -21l-27 -151q-4 -23 -26 -23h-453q-12 0 -22.5 3t-16.5 7.5t-12 7.5l-6 3 q8 -33 4 -52l-66 -368q-2 -18 -22 -51l7 3t15 6t19.5 6t21.5 3h549q20 0 16 -20l-30 -177q-4 -20 -25 -20h-815q-25 0 -20 25zM527.5 1528q-3.5 6 2.5 14l236 232q16 18 29 18h174q12 0 22 -18l152 -232q4 -8 -1 -14t-16 -6h-122q-14 0 -25 12l-105 115q-14 16 -14 24 q-4 -8 -22 -24l-146 -115q-16 -12 -28 -12h-123q-10 0 -13.5 6z" />
<glyph unicode="&#xcb;" horiz-adv-x="1083" d="M150 25l239 1364q4 27 31 26h774q23 0 18 -20l-30 -178q-4 -20 -25 -21h-508q-10 0 -18 2t-14.5 5t-11.5 5t-9 6l-4 3q8 -37 4 -52l-51 -291q-2 -12 -21 -49q47 18 62 19h454q23 0 19 -21l-27 -151q-4 -23 -26 -23h-453q-12 0 -22.5 3t-16.5 7.5t-12 7.5l-6 3 q8 -33 4 -52l-66 -368q-2 -18 -22 -51l7 3t15 6t19.5 6t21.5 3h549q20 0 16 -20l-30 -177q-4 -20 -25 -20h-815q-25 0 -20 25zM541 1540l30 168q4 23 29 23h143q25 0 21 -23l-29 -168q-4 -25 -28 -24h-146q-25 0 -20 24zM932 1540l31 168q4 23 28 23h144q25 0 20 -23 l-29 -168q-6 -25 -28 -24h-146q-25 0 -20 24z" />
<glyph unicode="&#xcc;" horiz-adv-x="575" d="M147 20l244 1375q2 20 25 20h200q23 0 21 -20l-244 -1375q-2 -20 -24 -20h-201q-23 0 -21 20zM332 1784q-6 8 0 16t18 8h168q18 0 25 -14l129 -244q4 -8 -1 -14t-16 -6h-118q-14 0 -25 10z" />
<glyph unicode="&#xcd;" horiz-adv-x="575" d="M147 20l244 1375q2 20 25 20h200q23 0 21 -20l-244 -1375q-2 -20 -24 -20h-201q-23 0 -21 20zM398.5 1536q-3.5 6 4.5 14l213 244q14 14 31 14h170q12 0 14.5 -8t-6.5 -16l-266 -244q-14 -10 -29 -10h-116q-12 0 -15.5 6z" />
<glyph unicode="&#xce;" horiz-adv-x="575" d="M147 20l244 1375q2 20 25 20h200q23 0 21 -20l-244 -1375q-2 -20 -24 -20h-201q-23 0 -21 20zM224.5 1528q-3.5 6 4.5 14l234 232q18 18 29 18h174q12 0 22 -18l152 -232q6 -8 0 -14t-17 -6h-123q-12 0 -24 12l-103 115q-14 16 -14 24q-4 -8 -24 -24l-144 -115 q-16 -12 -29 -12h-122q-12 0 -15.5 6z" />
<glyph unicode="&#xcf;" horiz-adv-x="575" d="M147 20l244 1375q2 20 25 20h200q23 0 21 -20l-244 -1375q-2 -20 -24 -20h-201q-23 0 -21 20zM240 1540l28 168q6 23 29 23h145q25 0 21 -23l-31 -168q-4 -25 -29 -24h-143q-25 0 -20 24zM631 1540l28 168q4 23 29 23h146q25 0 20 -23l-31 -168q-4 -25 -28 -24h-144 q-25 0 -20 24z" />
<glyph unicode="&#xd0;" horiz-adv-x="1259" d="M147 20l244 1373q2 20 25 20h583q150 0 238 -104.5t63 -251.5l-122 -699q-27 -150 -152 -254t-276 -104h-584q-20 0 -19 20zM414 201l4 2t10 4t13.5 5t16.5 4t17 1h264q80 0 129.5 39t61.5 111l121 677q12 72 -24 112t-116 40h-262q-8 0 -17 2t-15.5 5t-11.5 6t-9 5l-4 3 q8 -37 4 -56l-55 -319q-6 -31 -31 -66q41 16 65 17h275q20 0 16 -19l-22 -129q-4 -20 -25 -20h-274q-16 0 -60 16q14 -29 9 -59l-58 -334q-4 -14 -22 -47z" />
<glyph unicode="&#xd1;" horiz-adv-x="1388" d="M150 25l239 1364q4 27 31 26h192q20 0 27 -18l371 -891q35 -82 39 -96q0 4 -1 25.5t-1 46t2 40.5l153 867q4 27 29 26h194q27 0 23 -26l-240 -1364q-6 -25 -30 -25h-181q-20 0 -26 16l-379 924q-35 86 -37 96q0 -4 1 -25.5t1 -46t-4 -40.5l-158 -899q-4 -25 -30 -25h-195 q-25 0 -20 25zM641 1546q29 90 91.5 143.5t135.5 53.5q66 0 127 -57q18 -16 26.5 -22.5t22 -14t29.5 -7.5q31 0 55.5 22t34.5 50q8 18 25 19h80q23 0 14 -21q-29 -92 -91.5 -145.5t-133.5 -53.5q-68 0 -129 58q-18 18 -26.5 24.5t-22 12.5t-29.5 6q-31 0 -55.5 -20.5 t-34.5 -51.5q-8 -16 -23 -16h-82q-20 0 -14 20z" />
<glyph unicode="&#xd2;" horiz-adv-x="1249" d="M170 348l127 717q27 147 150.5 252.5t267.5 105.5h280q145 0 231.5 -105.5t61.5 -252.5l-127 -717q-27 -147 -149.5 -250.5t-268.5 -103.5h-280q-145 0 -231.5 103.5t-61.5 250.5zM422 375q-29 -166 139 -166h160q168 0 199 166l116 663q29 168 -141 168h-158 q-168 0 -198 -168zM688 1784q-6 8 0 16t19 8h167q18 0 27 -14l127 -244q4 -8 -1 -14t-15 -6h-119q-14 0 -25 10z" />
<glyph unicode="&#xd3;" horiz-adv-x="1249" d="M170 348l127 717q27 147 150.5 252.5t267.5 105.5h280q145 0 231.5 -105.5t61.5 -252.5l-127 -717q-27 -147 -149.5 -250.5t-268.5 -103.5h-280q-145 0 -231.5 103.5t-61.5 250.5zM422 375q-29 -166 139 -166h160q168 0 199 166l116 663q29 168 -141 168h-158 q-168 0 -198 -168zM757 1536q-3 6 3 14l215 244q12 14 29 14h170q12 0 14 -8t-6 -16l-267 -244q-12 -10 -26 -10h-119q-10 0 -13 6z" />
<glyph unicode="&#xd4;" horiz-adv-x="1249" d="M170 348l127 717q27 147 150.5 252.5t267.5 105.5h280q145 0 231.5 -105.5t61.5 -252.5l-127 -717q-27 -147 -149.5 -250.5t-268.5 -103.5h-280q-145 0 -231.5 103.5t-61.5 250.5zM422 375q-29 -166 139 -166h160q168 0 199 166l116 663q29 168 -141 168h-158 q-168 0 -198 -168zM582 1528q-4 6 4 14l233 232q18 18 29 18h176q10 0 20 -18l154 -232q4 -8 -2 -14t-16 -6h-123q-12 0 -25 12l-102 115q-14 16 -15 24q-4 -8 -22 -24l-145 -115q-16 -12 -29 -12h-123q-10 0 -14 6z" />
<glyph unicode="&#xd5;" horiz-adv-x="1249" d="M170 348l127 717q27 147 150.5 252.5t267.5 105.5h280q145 0 231.5 -105.5t61.5 -252.5l-127 -717q-27 -147 -149.5 -250.5t-268.5 -103.5h-280q-145 0 -231.5 103.5t-61.5 250.5zM422 375q-29 -166 139 -166h160q168 0 199 166l116 663q29 168 -141 168h-158 q-168 0 -198 -168zM571 1546q29 90 92.5 143.5t135.5 53.5q68 0 127 -57q20 -16 27.5 -22.5t21.5 -14t31 -7.5q31 0 55 22t33 50q8 18 24 19h80q23 0 16 -21q-29 -92 -92 -145.5t-135 -53.5q-66 0 -127 58q-20 18 -27.5 24.5t-21.5 12.5t-31 6q-31 0 -55.5 -20.5 t-32.5 -51.5q-8 -16 -24 -16h-80q-23 0 -17 20z" />
<glyph unicode="&#xd6;" horiz-adv-x="1249" d="M170 348l127 717q27 147 150.5 252.5t267.5 105.5h280q145 0 231.5 -105.5t61.5 -252.5l-127 -717q-27 -147 -149.5 -250.5t-268.5 -103.5h-280q-145 0 -231.5 103.5t-61.5 250.5zM422 375q-29 -166 139 -166h160q168 0 199 166l116 663q29 168 -141 168h-158 q-168 0 -198 -168zM596 1540l31 168q4 23 28 23h144q25 0 20 -23l-31 -168q-4 -25 -28 -24h-144q-25 0 -20 24zM987 1540l31 168q4 23 26 23h146q25 0 20 -23l-30 -168q-4 -25 -29 -24h-143q-25 0 -21 24z" />
<glyph unicode="&#xd7;" horiz-adv-x="1007" d="M205 428q-12 14 4 29l274 237l-190 236q-12 16 6 31l111 98q16 14 28 0l189 -238l274 238q16 14 29 0l76 -98q12 -14 -7 -31l-272 -236l191 -237q10 -14 -7 -29l-110 -98q-16 -16 -29 0l-190 235l-273 -235q-16 -16 -28 0z" />
<glyph unicode="&#xd8;" horiz-adv-x="1255" d="M170 348l127 717q27 147 150.5 252.5t267.5 105.5h219q49 0 76 -20q2 2 1 8t-1 12.5t2 16.5t8 22l82 162q12 16 33 16h129q27 0 20 -24l-102 -197q-10 -18 -41 -57q35 4 55 -12q55 -51 81 -125t11 -160l-127 -717q-27 -147 -149.5 -250.5t-266.5 -103.5h-208 q-37 0 -56 18v-11t-2 -23.5t-8 -24.5l-92 -172q-10 -16 -31 -17h-117q-25 0 -18 25l102 201q10 18 37 47q-43 -2 -61 12q-70 47 -103.5 126t-17.5 173zM422 375q-29 -166 139 -166h160q168 0 199 166l114 659q31 172 -137 172h-160q-168 0 -198 -172z" />
<glyph unicode="&#xd9;" horiz-adv-x="1275" d="M184 352l183 1037q4 27 30 26h197q25 0 20 -26l-178 -1014q-31 -166 139 -166h158q168 0 199 166l178 1014q4 27 29 26h198q25 0 21 -26l-184 -1037q-25 -150 -151 -254t-275 -104h-263q-152 0 -239.5 104.5t-61.5 253.5zM686 1784q-6 8 0 16t19 8h167q18 0 25 -14 l129 -244q4 -8 -1 -14t-15 -6h-119q-14 0 -25 10z" />
<glyph unicode="&#xda;" horiz-adv-x="1275" d="M184 352l183 1037q4 27 30 26h197q25 0 20 -26l-178 -1014q-31 -166 139 -166h158q168 0 199 166l178 1014q4 27 29 26h198q25 0 21 -26l-184 -1037q-25 -150 -151 -254t-275 -104h-263q-152 0 -239.5 104.5t-61.5 253.5zM753 1536q-3 6 5 14l213 244q14 14 30 14h170 q12 0 14.5 -8t-5.5 -16l-267 -244q-14 -10 -28 -10h-117q-12 0 -15 6z" />
<glyph unicode="&#xdb;" horiz-adv-x="1275" d="M184 352l183 1037q4 27 30 26h197q25 0 20 -26l-178 -1014q-31 -166 139 -166h158q168 0 199 166l178 1014q4 27 29 26h198q25 0 21 -26l-184 -1037q-25 -150 -151 -254t-275 -104h-263q-152 0 -239.5 104.5t-61.5 253.5zM578.5 1528q-3.5 6 5.5 14l233 232q18 18 29 18 h174q12 0 22 -18l152 -232q6 -8 0 -14t-16 -6h-123q-12 0 -25 12l-102 115q-14 16 -15 24q-4 -8 -24 -24l-144 -115q-16 -12 -28 -12h-123q-12 0 -15.5 6z" />
<glyph unicode="&#xdc;" horiz-adv-x="1275" d="M184 352l183 1037q4 27 30 26h197q25 0 20 -26l-178 -1014q-31 -166 139 -166h158q168 0 199 166l178 1014q4 27 29 26h198q25 0 21 -26l-184 -1037q-25 -150 -151 -254t-275 -104h-263q-152 0 -239.5 104.5t-61.5 253.5zM594 1540l29 168q6 23 28 23h146q25 0 20 -23 l-31 -168q-4 -25 -28 -24h-144q-25 0 -20 24zM985 1540l29 168q4 23 28 23h146q25 0 20 -23l-30 -168q-4 -25 -29 -24h-143q-25 0 -21 24z" />
<glyph unicode="&#xdd;" horiz-adv-x="1079" d="M176 1384q-6 12 1 21.5t22 9.5h209q23 0 26 -18l203 -576q6 -23 10 -90q29 70 43 88l406 578q10 18 32 18h209q14 0 18.5 -8t-3.5 -23l-596 -831q-6 -8 -25 -27v-4t1 -8t1 -10l-84 -479q-6 -25 -31 -25h-198q-27 0 -23 25l86 479q0 4 3 10t6 9l2 3q-14 18 -17 27z M658.5 1536q-3.5 6 3.5 14l215 244q12 14 28 14h170q12 0 14.5 -8t-6.5 -16l-266 -242q-12 -12 -26 -12h-119q-10 0 -13.5 6z" />
<glyph unicode="&#xde;" horiz-adv-x="1200" d="M150 25l241 1364q4 25 29 24h194q25 0 21 -24l-57 -324q-2 -23 -9 -37q18 6 47 6h322q147 0 235.5 -101.5t61.5 -246.5l-21 -115q-27 -147 -149.5 -247.5t-273.5 -100.5h-306q-37 0 -59 10q2 -20 -2 -49l-29 -159q-4 -25 -28 -25h-197q-25 0 -20 25zM459 422q25 8 63 8 h254q82 0 131 40t62 112l14 82q14 74 -22.5 113.5t-116.5 39.5h-254q-37 0 -58 10q0 -20 -4 -51l-55 -305q-4 -29 -14 -49z" />
<glyph unicode="&#xdf;" horiz-adv-x="1253" d="M147 29l220 1233q27 147 146.5 246.5t270.5 99.5h256q152 0 237 -100.5t58 -247.5l-28 -173q-29 -160 -115 -225q-6 -4 -21 -12q8 -6 17 -14q37 -37 57.5 -99.5t9.5 -124.5l-47 -262q-27 -147 -150.5 -248.5t-275.5 -101.5h-172q-25 0 -20 29l28 157q4 23 27 23h113 q80 0 129 39t63 110l43 248q12 72 -23.5 113t-115.5 41h-117q-20 0 -16 20l22 129q4 20 23 21h119q80 0 118.5 31.5t51.5 105.5l32 180q12 72 -23.5 113t-115.5 41h-145q-80 0 -130 -41t-63 -113l-219 -1216q-6 -31 -33 -31h-186q-29 0 -25 29z" />
<glyph unicode="&#xe0;" horiz-adv-x="1157" d="M150 360l73 412q27 154 149 259.5t265 105.5h94q96 0 172 -76q31 -29 37 -62q2 2 2 15.5t1 30t3 30.5l6 31q4 18 25 18h186q23 0 19 -20l-191 -1077q-4 -20 -24 -21h-187q-23 0 -18 21l6 28q2 14 6 30.5t9 30t5 17.5q-18 -35 -59 -63q-102 -76 -201 -76h-92 q-143 0 -228 105.5t-58 260.5zM389 379q-16 -94 20.5 -136t122.5 -42h101q143 0 168 141l80 449q12 68 -19 104.5t-100 36.5h-100q-174 0 -207 -180zM588 1528q-6 8 0 17t16 9h172q16 0 25 -14l129 -260q4 -8 -1 -15.5t-18 -7.5h-118q-14 0 -23 13z" />
<glyph unicode="&#xe1;" horiz-adv-x="1157" d="M150 360l73 412q27 154 149 259.5t265 105.5h94q96 0 172 -76q31 -29 37 -62q2 2 2 15.5t1 30t3 30.5l6 31q4 18 25 18h186q23 0 19 -20l-191 -1077q-4 -20 -24 -21h-187q-23 0 -18 21l6 28q2 14 6 30.5t9 30t5 17.5q-18 -35 -59 -63q-102 -76 -201 -76h-92 q-143 0 -228 105.5t-58 260.5zM389 379q-16 -94 20.5 -136t122.5 -42h101q143 0 168 141l80 449q12 68 -19 104.5t-100 36.5h-100q-174 0 -207 -180zM652.5 1264.5q-3.5 7.5 4.5 15.5l220 260q14 14 30 14h170q12 0 15.5 -9t-7.5 -17l-272 -258q-12 -12 -27 -13h-118 q-12 0 -15.5 7.5z" />
<glyph unicode="&#xe2;" horiz-adv-x="1157" d="M150 360l73 412q27 154 149 259.5t265 105.5h94q96 0 172 -76q31 -29 37 -62q2 2 2 15.5t1 30t3 30.5l6 31q4 18 25 18h186q23 0 19 -20l-191 -1077q-4 -20 -24 -21h-187q-23 0 -18 21l6 28q2 14 6 30.5t9 30t5 17.5q-18 -35 -59 -63q-102 -76 -201 -76h-92 q-143 0 -228 105.5t-58 260.5zM389 379q-16 -94 20.5 -136t122.5 -42h101q143 0 168 141l80 449q12 68 -19 104.5t-100 36.5h-100q-174 0 -207 -180zM474 1256.5q-3 7.5 5 15.5l242 246q16 18 29 18h176q12 0 22 -18l154 -246q4 -8 -1 -15.5t-16 -7.5h-124q-12 0 -25 15 l-107 120q-14 16 -14 29q-4 -12 -24 -29l-150 -120q-16 -14 -29 -15h-123q-12 0 -15 7.5z" />
<glyph unicode="&#xe3;" horiz-adv-x="1157" d="M150 360l73 412q27 154 149 259.5t265 105.5h94q96 0 172 -76q31 -29 37 -62q2 2 2 15.5t1 30t3 30.5l6 31q4 18 25 18h186q23 0 19 -20l-191 -1077q-4 -20 -24 -21h-187q-23 0 -18 21l6 28q2 14 6 30.5t9 30t5 17.5q-18 -35 -59 -63q-102 -76 -201 -76h-92 q-143 0 -228 105.5t-58 260.5zM389 379q-16 -94 20.5 -136t122.5 -42h101q143 0 168 141l80 449q12 68 -19 104.5t-100 36.5h-100q-174 0 -207 -180zM463 1274q31 98 95.5 154.5t137.5 56.5q68 0 129 -60q20 -20 28.5 -26t23 -13.5t30.5 -7.5q31 0 56.5 22.5t35.5 53.5 q8 18 25 19h82q23 0 14 -21q-29 -98 -93 -154.5t-138 -56.5q-70 0 -131 62q-18 18 -26.5 25t-23 13.5t-30.5 6.5q-33 0 -58.5 -22.5t-33.5 -53.5q-10 -18 -25 -19h-82q-23 0 -16 21z" />
<glyph unicode="&#xe4;" horiz-adv-x="1157" d="M150 360l73 412q27 154 149 259.5t265 105.5h94q96 0 172 -76q31 -29 37 -62q2 2 2 15.5t1 30t3 30.5l6 31q4 18 25 18h186q23 0 19 -20l-191 -1077q-4 -20 -24 -21h-187q-23 0 -18 21l6 28q2 14 6 30.5t9 30t5 17.5q-18 -35 -59 -63q-102 -76 -201 -76h-92 q-143 0 -228 105.5t-58 260.5zM389 379q-16 -94 20.5 -136t122.5 -42h101q143 0 168 141l80 449q12 68 -19 104.5t-100 36.5h-100q-174 0 -207 -180zM492 1268l30 180q4 25 29 25h145q25 0 21 -25l-31 -180q-6 -25 -31 -25h-143q-25 0 -20 25zM889 1268l31 180q6 25 30 25 h146q23 0 18 -25l-31 -180q-4 -25 -28 -25h-146q-25 0 -20 25z" />
<glyph unicode="&#xe5;" horiz-adv-x="1095" d="M152 360l73 412q23 125 109 220t201 130q-33 61 -19 133l4 25q16 94 99 165t182 71h10q98 0 156.5 -71t42.5 -165l-4 -25q-20 -106 -117 -178l16 -16q31 -29 37 -62q2 2 2 15.5t1 30t3 30.5l6 31q2 18 25 18h186q23 0 19 -20l-191 -1077q-4 -20 -24 -21h-187 q-23 0 -18 21l6 28q2 14 6 30.5t9.5 30t5.5 17.5q-18 -35 -60 -63q-102 -76 -201 -76h-92q-143 0 -228 105.5t-58 260.5zM391 379q-16 -94 21 -136t123 -42h100q143 0 168 141l80 449q12 68 -18.5 104.5t-100.5 36.5h-100q-174 0 -207 -180zM653 1257q-8 -49 16.5 -82.5 t67.5 -33.5h4q43 0 80 33.5t45 82.5l2 15q8 49 -16.5 83t-65.5 34h-6q-43 0 -78.5 -34t-44.5 -83z" />
<glyph unicode="&#xe6;" horiz-adv-x="1804" d="M152 297l12 76q25 135 134.5 216t266.5 81h295q25 0 45 -13q-4 31 -2 45l17 89q10 66 -21 102.5t-98 36.5l-135 -2q-61 0 -100.5 -33t-49.5 -94l-2 -8q-2 -14 -20 -15h-191q-23 0 -18 21l4 24q23 125 133 220.5t242 95.5h223q137 0 205 -109q115 109 260 109h180 q150 0 240 -109.5t63 -265.5l-41 -236q-4 -20 -25 -20h-610q-43 0 -59 12q8 -20 4 -43l-21 -115q-14 -74 16.5 -116.5t108.5 -42.5h142q129 0 153 125l2 6q4 16 23 16h194q23 0 15 -20l-2 -15q-37 -133 -151 -228t-243 -95h-170q-78 0 -142 32.5t-101 90.5q-43 -57 -116 -89 t-142 -32h-248q-133 0 -214 87t-56 216zM395 344q-12 -72 18.5 -107.5t118.5 -35.5h140q143 0 168 137l24 141q0 6 4 15.5t8 16.5l5 7q-25 -10 -50 -10h-264q-68 0 -111.5 -38t-56.5 -103zM1122 657q27 12 66 13h344q39 0 59 -13q-6 29 -2 52l15 84q10 66 -21 100.5 t-100 34.5h-156q-68 0 -112 -35t-56 -100l-14 -84q-5 -23 -23 -52z" />
<glyph unicode="&#xe7;" horiz-adv-x="1085" d="M154 373l67 385q27 160 153 270.5t281 110.5h162q109 0 185.5 -57.5t104.5 -137.5t13 -164l-6 -28q-4 -20 -27 -21h-192q-23 0 -18 21l2 18q29 158 -138 158h-84q-84 0 -133 -42t-67 -141l-64 -360q-16 -98 17.5 -140t117.5 -42h84q166 0 195 157l4 19q2 20 25 20h194 q23 0 19 -20l-7 -29q-23 -133 -142.5 -244.5t-281.5 -113.5l-57 -68h29q74 0 114.5 -55t28.5 -131l-6 -41q-14 -76 -75.5 -135.5t-135.5 -59.5h-211q-20 0 -16 23l12 69q2 20 23 21h153q96 0 117 115q8 41 -11.5 68.5t-68.5 27.5h-125q-12 0 -17 7t1 15l108 144h-28 q-156 0 -242 110.5t-57 270.5z" />
<glyph unicode="&#xe8;" horiz-adv-x="1105" d="M150 371l67 387q29 158 157 269.5t279 111.5h183q150 0 239.5 -109.5t63.5 -265.5l-41 -236q-4 -20 -25 -20h-612q-41 0 -60 12q8 -20 5 -43l-21 -117q-12 -74 17.5 -117.5t109.5 -43.5h139q131 0 154 125l2 10q6 16 24 16h195q23 0 14 -20l-2 -15q-39 -133 -151.5 -228 t-241.5 -95h-192q-154 0 -243 110.5t-60 268.5zM426 657q25 12 63 13h347q39 0 59 -13q-8 29 -4 52l16 86q10 66 -20.5 101.5t-100.5 35.5h-155q-68 0 -112 -36t-56 -101l-14 -86q-4 -23 -23 -52zM573 1528q-6 8 0.5 17t18.5 9h170q16 0 24 -14l129 -260q4 -8 -1 -15.5 t-17 -7.5h-119q-14 0 -22 13z" />
<glyph unicode="&#xe9;" horiz-adv-x="1105" d="M150 371l67 387q29 158 157 269.5t279 111.5h183q150 0 239.5 -109.5t63.5 -265.5l-41 -236q-4 -20 -25 -20h-612q-41 0 -60 12q8 -20 5 -43l-21 -117q-12 -74 17.5 -117.5t109.5 -43.5h139q131 0 154 125l2 10q6 16 24 16h195q23 0 14 -20l-2 -15q-39 -133 -151.5 -228 t-241.5 -95h-192q-154 0 -243 110.5t-60 268.5zM426 657q25 12 63 13h347q39 0 59 -13q-8 29 -4 52l16 86q10 66 -20.5 101.5t-100.5 35.5h-155q-68 0 -112 -36t-56 -101l-14 -86q-4 -23 -23 -52zM638 1264.5q-3 7.5 5 15.5l221 260q12 14 31 14h170q12 0 14 -9t-6 -17 l-272 -258q-14 -12 -29 -13h-119q-12 0 -15 7.5z" />
<glyph unicode="&#xea;" horiz-adv-x="1105" d="M150 371l67 387q29 158 157 269.5t279 111.5h183q150 0 239.5 -109.5t63.5 -265.5l-41 -236q-4 -20 -25 -20h-612q-41 0 -60 12q8 -20 5 -43l-21 -117q-12 -74 17.5 -117.5t109.5 -43.5h139q131 0 154 125l2 10q6 16 24 16h195q23 0 14 -20l-2 -15q-39 -133 -151.5 -228 t-241.5 -95h-192q-154 0 -243 110.5t-60 268.5zM426 657q25 12 63 13h347q39 0 59 -13q-8 29 -4 52l16 86q10 66 -20.5 101.5t-100.5 35.5h-155q-68 0 -112 -36t-56 -101l-14 -86q-4 -23 -23 -52zM461 1256.5q-4 7.5 4 15.5l242 246q18 18 28 18h176q12 0 23 -18l153 -246 q6 -8 0 -15.5t-16 -7.5h-125q-12 0 -24 15l-105 120q-14 16 -16 29q-4 -12 -23 -29l-151 -120q-14 -14 -29 -15h-123q-10 0 -14 7.5z" />
<glyph unicode="&#xeb;" horiz-adv-x="1105" d="M150 371l67 387q29 158 157 269.5t279 111.5h183q150 0 239.5 -109.5t63.5 -265.5l-41 -236q-4 -20 -25 -20h-612q-41 0 -60 12q8 -20 5 -43l-21 -117q-12 -74 17.5 -117.5t109.5 -43.5h139q131 0 154 125l2 10q6 16 24 16h195q23 0 14 -20l-2 -15q-39 -133 -151.5 -228 t-241.5 -95h-192q-154 0 -243 110.5t-60 268.5zM426 657q25 12 63 13h347q39 0 59 -13q-8 29 -4 52l16 86q10 66 -20.5 101.5t-100.5 35.5h-155q-68 0 -112 -36t-56 -101l-14 -86q-4 -23 -23 -52zM477 1268l31 180q4 25 29 25h145q25 0 20 -25l-30 -180q-4 -25 -29 -25h-145 q-25 0 -21 25zM874 1268l33 180q4 25 29 25h145q25 0 19 -25l-31 -180q-4 -25 -29 -25h-145q-25 0 -21 25z" />
<glyph unicode="&#xec;" horiz-adv-x="540" d="M135 27l189 1077q4 20 26 20h195q23 0 18 -20l-188 -1077q-4 -20 -27 -21h-194q-23 0 -19 21zM272.5 1545q6.5 9 18.5 9h170q16 0 24 -14l129 -260q4 -8 -1 -15.5t-15 -7.5h-119q-14 0 -24 13l-181 258q-8 8 -1.5 17z" />
<glyph unicode="&#xed;" horiz-adv-x="540" d="M135 27l189 1077q4 20 26 20h195q23 0 18 -20l-188 -1077q-4 -20 -27 -21h-194q-23 0 -19 21zM339 1264.5q-3 7.5 5 15.5l219 260q14 14 31 14h170q12 0 15 -9t-7 -17l-272 -258q-14 -12 -29 -13h-119q-10 0 -13 7.5z" />
<glyph unicode="&#xee;" horiz-adv-x="540" d="M135 27l189 1077q4 20 26 20h195q23 0 18 -20l-188 -1077q-4 -20 -27 -21h-194q-23 0 -19 21zM161 1256.5q-3 7.5 5 15.5l242 246q16 18 28 18h174q12 0 23 -18l155 -246q4 -8 -2 -15.5t-16 -7.5h-123q-14 0 -24 15l-107 120q-14 16 -14 29q-4 -12 -25 -29l-149 -120 q-16 -14 -29 -15h-125q-10 0 -13 7.5z" />
<glyph unicode="&#xef;" horiz-adv-x="540" d="M135 27l189 1077q4 20 26 20h195q23 0 18 -20l-188 -1077q-4 -20 -27 -21h-194q-23 0 -19 21zM176 1268l33 180q4 25 29 25h145q25 0 20 -25l-32 -180q-4 -25 -29 -25h-145q-25 0 -21 25zM575 1268l31 180q4 25 29 25h145q25 0 21 -25l-33 -180q-4 -25 -29 -25h-145 q-25 0 -19 25z" />
<glyph unicode="&#xf0;" horiz-adv-x="1112" d="M123 410l24 143q29 160 164 290t281 130h188l-55 207l-139 -78q-12 -6 -18.5 -2t-4.5 16l17 96q4 16 18 27l96 53l-53 195q-2 10 4 18t17 8h196q16 0 21 -18l22 -86l158 88q12 6 18 2t4 -16l-18 -97q-2 -18 -16 -26l-115 -64l151 -575q27 -106 17 -168l-27 -143 q-27 -160 -163 -289t-279 -129h-213q-143 0 -233.5 129t-61.5 289zM360 418q-16 -96 24 -157.5t124 -61.5h106q84 0 145.5 61.5t78.5 157.5l22 123q4 27 -8 100q-20 80 -70 123h-176q-82 0 -144.5 -62.5t-78.5 -160.5z" />
<glyph unicode="&#xf1;" horiz-adv-x="1193" d="M135 27l189 1077q4 20 26 20h172q25 0 23 -20l-2 -8q-4 -18 -18.5 -51t-14.5 -35q25 35 61 59q37 29 96.5 49.5t110.5 20.5h123q143 0 225 -104.5t56 -260.5l-131 -747q-4 -20 -27 -21h-195q-23 0 -18 21l127 721q16 96 -19.5 140t-119.5 44h-123q-70 0 -113 -37 t-55 -104l-133 -764q-4 -20 -27 -21h-194q-23 0 -19 21zM506 1274q31 98 95.5 154.5t137.5 56.5q68 0 129 -60q20 -20 28.5 -26t23 -13.5t30.5 -7.5q31 0 56.5 22.5t35.5 53.5q8 18 25 19h82q23 0 14 -21q-29 -98 -93 -154.5t-140 -56.5q-68 0 -129 62q-18 18 -26.5 25 t-23 13.5t-30.5 6.5q-33 0 -58.5 -22.5t-35.5 -53.5q-8 -18 -23 -19h-82q-23 0 -16 21z" />
<glyph unicode="&#xf2;" horiz-adv-x="1118" d="M150 371l67 387q29 160 154 270.5t282 110.5h172q158 0 244 -110.5t57 -270.5l-67 -387q-29 -160 -153 -269.5t-279 -109.5h-178q-156 0 -242 109.5t-57 269.5zM391 381q-18 -96 16.5 -139t118.5 -43h97q84 0 133 43t65 139l64 364q18 98 -16.5 140.5t-118.5 42.5h-95 q-86 0 -135 -42t-65 -141zM571.5 1545q6.5 9 18.5 9h170q18 0 24 -14l131 -260q4 -8 -2 -15.5t-16 -7.5h-119q-14 0 -24 13l-181 258q-8 8 -1.5 17z" />
<glyph unicode="&#xf3;" horiz-adv-x="1118" d="M150 371l67 387q29 160 154 270.5t282 110.5h172q158 0 244 -110.5t57 -270.5l-67 -387q-29 -160 -153 -269.5t-279 -109.5h-178q-156 0 -242 109.5t-57 269.5zM391 381q-18 -96 16.5 -139t118.5 -43h97q84 0 133 43t65 139l64 364q18 98 -16.5 140.5t-118.5 42.5h-95 q-86 0 -135 -42t-65 -141zM638 1264.5q-3 7.5 5 15.5l219 260q14 14 31 14h170q12 0 15 -9t-7 -17l-272 -258q-12 -12 -29 -13h-119q-10 0 -13 7.5z" />
<glyph unicode="&#xf4;" horiz-adv-x="1118" d="M150 371l67 387q29 160 154 270.5t282 110.5h172q158 0 244 -110.5t57 -270.5l-67 -387q-29 -160 -153 -269.5t-279 -109.5h-178q-156 0 -242 109.5t-57 269.5zM391 381q-18 -96 16.5 -139t118.5 -43h97q84 0 133 43t65 139l64 364q18 98 -16.5 140.5t-118.5 42.5h-95 q-86 0 -135 -42t-65 -141zM460 1256.5q-3 7.5 5 15.5l242 246q16 18 28 18h176q10 0 21 -18l155 -246q4 -8 -1 -15.5t-17 -7.5h-123q-14 0 -24 15l-107 120q-14 16 -14 29q-4 -12 -25 -29l-149 -120q-16 -14 -29 -15h-125q-10 0 -13 7.5z" />
<glyph unicode="&#xf5;" horiz-adv-x="1118" d="M150 371l67 387q29 160 154 270.5t282 110.5h172q158 0 244 -110.5t57 -270.5l-67 -387q-29 -160 -153 -269.5t-279 -109.5h-178q-156 0 -242 109.5t-57 269.5zM391 381q-18 -96 16.5 -139t118.5 -43h97q84 0 133 43t65 139l64 364q18 98 -16.5 140.5t-118.5 42.5h-95 q-86 0 -135 -42t-65 -141zM449 1274q31 98 95 154.5t138 56.5q68 0 129 -60q20 -20 28.5 -26t23 -13.5t30.5 -7.5q31 0 56.5 22.5t35.5 53.5q8 18 25 19h82q20 0 14 -21q-29 -98 -94.5 -154.5t-139.5 -56.5q-68 0 -129 62q-20 18 -27 25t-22.5 13.5t-31.5 6.5 q-31 0 -56.5 -22.5t-36.5 -53.5q-8 -18 -24 -19h-80q-23 0 -16 21z" />
<glyph unicode="&#xf6;" horiz-adv-x="1118" d="M150 371l67 387q29 160 154 270.5t282 110.5h172q158 0 244 -110.5t57 -270.5l-67 -387q-29 -160 -153 -269.5t-279 -109.5h-178q-156 0 -242 109.5t-57 269.5zM391 381q-18 -96 16.5 -139t118.5 -43h97q84 0 133 43t65 139l64 364q18 98 -16.5 140.5t-118.5 42.5h-95 q-86 0 -135 -42t-65 -141zM477 1268l31 180q4 25 29 25h145q25 0 20 -25l-32 -180q-4 -25 -29 -25h-145q-25 0 -19 25zM874 1268l31 180q4 25 29 25h145q25 0 21 -25l-31 -180q-6 -25 -29 -25h-145q-25 0 -21 25z" />
<glyph unicode="&#xf7;" horiz-adv-x="1118" d="M201 625l24 137q4 23 23 22h858q20 0 16 -22l-24 -137q-4 -23 -25 -23h-856q-20 0 -16 23zM465 162l31 174q4 27 28 26h156q25 0 20 -26l-30 -174q-4 -27 -29 -27h-156q-25 0 -20 27zM618 1040l33 174q4 27 29 27h156q25 0 20 -27l-31 -174q-4 -27 -28 -26h-158 q-25 0 -21 26z" />
<glyph unicode="&#xf8;" horiz-adv-x="1159" d="M170 371l68 387q29 158 156.5 269.5t279.5 111.5h145q18 0 35 -4q2 0 31 -15q-4 33 2 45l104 207q10 18 31 19h131q27 0 18 -27l-129 -256q-10 -18 -34 -35q33 -4 36 -8q63 -47 91 -130t12 -177l-68 -387q-29 -158 -155.5 -268.5t-278.5 -110.5h-108q-18 0 -37 4 q-4 2 -29 16l1 -7t1 -15t-4 -17l-117 -231q-12 -18 -33 -18h-116q-25 0 -19 26l127 254q8 16 29 37q-27 -8 -41 0q-76 49 -111.5 136t-17.5 194zM412 381q-18 -94 17.5 -138t119.5 -44h90q170 0 203 182l63 364q16 96 -18.5 139.5t-120.5 43.5h-88q-170 0 -203 -183z" />
<glyph unicode="&#xf9;" horiz-adv-x="1187" d="M174 356l133 748q2 20 25 20h196q20 0 17 -20l-125 -719q-18 -96 17.5 -139t121.5 -43h111q70 0 112.5 35.5t55.5 103.5l135 762q2 20 24 20h197q20 0 18 -20l-190 -1075q-4 -23 -27 -23h-172q-25 0 -20 21v10q4 14 18.5 48t14.5 36q-25 -35 -62 -60q-37 -29 -96.5 -48 t-110.5 -19h-112q-141 0 -224.5 104.5t-56.5 257.5zM592 1528q-6 8 0 17t18 9h170q16 0 25 -14l129 -260q4 -8 -1 -15.5t-15 -7.5h-121q-14 0 -23 13z" />
<glyph unicode="&#xfa;" horiz-adv-x="1187" d="M174 356l133 748q2 20 25 20h196q20 0 17 -20l-125 -719q-18 -96 17.5 -139t121.5 -43h111q70 0 112.5 35.5t55.5 103.5l135 762q2 20 24 20h197q20 0 18 -20l-190 -1075q-4 -23 -27 -23h-172q-25 0 -20 21v10q4 14 18.5 48t14.5 36q-25 -35 -62 -60q-37 -29 -96.5 -48 t-110.5 -19h-112q-141 0 -224.5 104.5t-56.5 257.5zM658.5 1264.5q-3.5 7.5 3.5 15.5l221 260q12 14 30 14h170q12 0 14.5 -9t-5.5 -17l-273 -258q-14 -12 -28 -13h-119q-10 0 -13.5 7.5z" />
<glyph unicode="&#xfb;" horiz-adv-x="1187" d="M174 356l133 748q2 20 25 20h196q20 0 17 -20l-125 -719q-18 -96 17.5 -139t121.5 -43h111q70 0 112.5 35.5t55.5 103.5l135 762q2 20 24 20h197q20 0 18 -20l-190 -1075q-4 -23 -27 -23h-172q-25 0 -20 21v10q4 14 18.5 48t14.5 36q-25 -35 -62 -60q-37 -29 -96.5 -48 t-110.5 -19h-112q-141 0 -224.5 104.5t-56.5 257.5zM480.5 1256.5q-3.5 7.5 2.5 15.5l242 246q18 18 29 18h176q12 0 22 -18l154 -246q6 -8 0 -15.5t-16 -7.5h-123q-14 0 -25 15l-106 120q-14 16 -15 29q-4 -12 -24 -29l-150 -120q-16 -14 -31 -15h-122q-10 0 -13.5 7.5z " />
<glyph unicode="&#xfc;" horiz-adv-x="1187" d="M174 356l133 748q2 20 25 20h196q20 0 17 -20l-125 -719q-18 -96 17.5 -139t121.5 -43h111q70 0 112.5 35.5t55.5 103.5l135 762q2 20 24 20h197q20 0 18 -20l-190 -1075q-4 -23 -27 -23h-172q-25 0 -20 21v10q4 14 18.5 48t14.5 36q-25 -35 -62 -60q-37 -29 -96.5 -48 t-110.5 -19h-112q-141 0 -224.5 104.5t-56.5 257.5zM496 1268l30 180q6 25 31 25h145q23 0 19 -25l-31 -180q-4 -25 -28 -25h-146q-25 0 -20 25zM893 1268l33 180q4 25 28 25h146q25 0 20 -25l-33 -180q-4 -25 -28 -25h-146q-25 0 -20 25z" />
<glyph unicode="&#xfd;" horiz-adv-x="1009" d="M-4 -481l31 166q2 20 22 20h84q35 0 59.5 9.5t45 33t33 43t32.5 59.5l72 140q0 2 15 12l16 10q-4 -2 -17.5 -1t-13.5 7l-189 1084q-6 29 25 28h180q23 0 25 -20l114 -719q6 -51 2 -102q14 53 41 104l365 717q10 20 31 20h182q31 0 14 -28l-686 -1303 q-80 -154 -176 -229.5t-227 -75.5h-60q-25 0 -20 25zM576.5 1264.5q-3.5 7.5 3.5 15.5l221 260q14 14 30 14h170q12 0 15.5 -9t-6.5 -17l-273 -258q-14 -12 -28 -13h-119q-10 0 -13.5 7.5z" />
<glyph unicode="&#xfe;" horiz-adv-x="1161" d="M37 -504l377 2138q4 23 26 23h201q23 0 18 -23l-94 -534q-2 -14 -10 -32.5t-15.5 -34t-7.5 -17.5q16 23 60 53q39 31 99.5 49.5t117.5 18.5h80q141 0 223 -105.5t55 -259.5l-73 -412q-27 -156 -147 -261t-261 -105h-78q-59 0 -112.5 19.5t-79.5 47.5q-35 31 -43 54 q0 -2 2 -18.5t3 -31t-1 -34.5l-94 -535q-4 -20 -27 -20h-201q-23 0 -18 20zM432 344q-27 -141 115 -141h106q176 0 209 182l64 360q33 182 -144 183h-108q-139 0 -164 -142z" />
<glyph unicode="&#xff;" horiz-adv-x="1009" d="M-4 -481l31 166q2 20 22 20h84q35 0 59.5 9.5t45 33t33 43t32.5 59.5l72 140q0 2 15 12l16 10q-4 -2 -17.5 -1t-13.5 7l-189 1084q-6 29 25 28h180q23 0 25 -20l114 -719q6 -51 2 -102q14 53 41 104l365 717q10 20 31 20h182q31 0 14 -28l-686 -1303 q-80 -154 -176 -229.5t-227 -75.5h-60q-25 0 -20 25zM414 1268l32 180q4 25 29 25h146q25 0 20 -25l-33 -180q-4 -25 -28 -25h-146q-25 0 -20 25zM813 1268l31 180q4 25 28 25h146q25 0 20 -25l-32 -180q-4 -25 -29 -25h-146q-25 0 -18 25z" />
<glyph unicode="&#x152;" horiz-adv-x="1792" d="M170 356l125 701q25 147 148.5 252.5t269.5 105.5h1190q20 0 18 -20l-33 -178q-2 -20 -24 -21h-508q-8 0 -16.5 2t-15.5 5t-12 5t-8 6l-4 3q6 -37 5 -52l-52 -291q-2 -12 -22 -47l5 2t10 4.5t13.5 5.5t17.5 4t17 1h455q20 0 16 -21l-26 -151q-4 -23 -25 -23h-454 q-10 0 -20.5 3t-18 7.5l-12.5 7.5l-5 3q6 -33 4 -52l-65 -368q-2 -18 -23 -51l8 3l14 6t19.5 6t22.5 3h547q23 0 18 -20l-31 -177q-4 -20 -24 -20h-1231q-145 0 -231.5 104.5t-61.5 251.5zM424 385q-31 -168 139 -168h252q74 0 88 76l146 831q8 41 -6.5 56.5t-49.5 15.5 h-258q-168 0 -198 -168z" />
<glyph unicode="&#x153;" horiz-adv-x="1789" d="M150 371l67 387q29 160 154 270.5t282 110.5h172q154 0 240 -107q125 106 272 107h183q150 0 239.5 -109.5t63.5 -265.5l-41 -236q-4 -20 -25 -20h-612q-41 0 -60 12q8 -20 5 -43l-21 -117q-12 -74 17.5 -117.5t109.5 -43.5h139q131 0 154 125l2 10q4 16 25 16h194 q23 0 14 -20l-2 -15q-39 -133 -151.5 -228t-241.5 -95h-192q-150 0 -238 104q-123 -104 -272 -104h-178q-156 0 -242 109.5t-57 269.5zM391 381q-18 -96 16.5 -139t118.5 -43h97q84 0 133 43t65 139l64 364q18 96 -16.5 139.5t-118.5 43.5h-95q-86 0 -135 -43t-65 -140z M1110 657q25 12 64 13h346q39 0 59 -13q-8 29 -4 52l16 86q10 66 -20.5 101.5t-100.5 35.5h-155q-68 0 -112 -36t-56 -101l-14 -86q-6 -23 -23 -52z" />
<glyph unicode="&#x178;" horiz-adv-x="1079" d="M176 1384q-6 12 1 21.5t22 9.5h209q23 0 26 -18l203 -576q6 -23 10 -90q29 70 43 88l406 578q10 18 32 18h209q14 0 18.5 -8t-3.5 -23l-596 -831q-6 -8 -25 -27v-4t1 -8t1 -10l-84 -479q-6 -25 -31 -25h-198q-27 0 -23 25l86 479q0 4 3 10t6 9l2 3q-14 18 -17 27z M498 1540l30 168q4 23 29 23h143q25 0 21 -23l-31 -168q-4 -25 -28 -24h-144q-25 0 -20 24zM889 1540l31 168q4 23 28 23h144q25 0 20 -23l-31 -168q-4 -25 -28 -24h-144q-25 0 -20 24z" />
<glyph unicode="&#x2c6;" horiz-adv-x="794" d="M290 1283q-3 7 5 15l242 246q16 18 28 19h176q10 0 23 -19l154 -246q4 -8 -1.5 -15t-15.5 -7h-125q-12 0 -24 14l-107 123q-14 16 -14 27q-4 -10 -25 -27l-149 -123q-16 -14 -29 -14h-123q-12 0 -15 7z" />
<glyph unicode="&#x2dc;" horiz-adv-x="880" d="M336 1296q29 96 93.5 153.5t137.5 57.5q70 0 131 -61q18 -18 26.5 -25.5t23 -13.5t30.5 -6q33 0 58.5 21.5t33.5 52.5q8 20 25 20h82q23 0 16 -22q-31 -96 -95 -153.5t-138 -57.5q-68 0 -129 61q-20 18 -28.5 25.5t-23 13.5t-30.5 6q-33 0 -57.5 -21.5t-34.5 -52.5 q-8 -20 -25 -20h-82q-23 0 -14 22z" />
<glyph unicode="&#x2000;" horiz-adv-x="904" />
<glyph unicode="&#x2001;" horiz-adv-x="1808" />
<glyph unicode="&#x2002;" horiz-adv-x="904" />
<glyph unicode="&#x2003;" horiz-adv-x="1808" />
<glyph unicode="&#x2004;" horiz-adv-x="602" />
<glyph unicode="&#x2005;" horiz-adv-x="452" />
<glyph unicode="&#x2006;" horiz-adv-x="301" />
<glyph unicode="&#x2007;" horiz-adv-x="301" />
<glyph unicode="&#x2008;" horiz-adv-x="226" />
<glyph unicode="&#x2009;" horiz-adv-x="361" />
<glyph unicode="&#x200a;" horiz-adv-x="100" />
<glyph unicode="&#x2010;" horiz-adv-x="862" d="M221 530l25 136q4 23 24 22h523q20 0 18 -22l-25 -136q-4 -23 -24 -22h-524q-20 0 -17 22z" />
<glyph unicode="&#x2011;" horiz-adv-x="862" d="M221 530l25 136q4 23 24 22h523q20 0 18 -22l-25 -136q-4 -23 -24 -22h-524q-20 0 -17 22z" />
<glyph unicode="&#x2012;" horiz-adv-x="862" d="M221 530l25 136q4 23 24 22h523q20 0 18 -22l-25 -136q-4 -23 -24 -22h-524q-20 0 -17 22z" />
<glyph unicode="&#x2013;" horiz-adv-x="1228" d="M219 530l25 138q4 23 24 22h895q20 0 17 -22l-25 -138q-2 -23 -22 -22h-897q-20 0 -17 22z" />
<glyph unicode="&#x2014;" horiz-adv-x="1452" d="M219 530l25 138q4 23 24 22h1118q20 0 17 -22l-25 -138q-4 -23 -24 -22h-1118q-20 0 -17 22z" />
<glyph unicode="&#x2018;" horiz-adv-x="489" d="M322 1178l32 186q0 2 2 2v2l17 96q14 82 67.5 131.5t126.5 53.5h37q12 2 10 -13l-14 -77q0 -10 -12 -13h-13q-31 -4 -46 -23.5t-23 -68.5l-12 -65h57q25 0 20 -25l-32 -186q-6 -25 -31 -25h-166q-25 0 -20 25z" />
<glyph unicode="&#x2019;" horiz-adv-x="380" d="M262 1167l12 78q2 10 15 10h12q31 4 46 23.5t24 69.5l12 65h-57q-25 0 -21 27l33 184q4 27 29 27h168q25 0 20 -27l-33 -184q0 -2 -2 -4v-2l-16 -95q-14 -82 -67.5 -131t-127.5 -53l-37 -2q-12 0 -10 14z" />
<glyph unicode="&#x201a;" horiz-adv-x="489" d="M80 -244l14 78q2 10 12 10h13q31 4 46 23.5t23 69.5l13 65h-58q-25 0 -20 27l33 184q6 27 30 27h166q25 0 21 -27l-33 -184v-4l-2 -2l-16 -95q-14 -82 -67.5 -131t-127.5 -53l-37 -2q-12 0 -10 14z" />
<glyph unicode="&#x201c;" horiz-adv-x="843" d="M342 1178l33 186v1v3l16 94q16 82 69.5 131t127.5 56h35q14 0 12 -13l-14 -80q-2 -10 -13 -10h-14q-29 -4 -44 -23.5t-24 -68.5l-12 -65h55q25 0 21 -25l-33 -186q-4 -27 -29 -27h-166q-25 0 -20 27zM696 1178l33 186v2v2l16 94q14 82 68.5 131t128.5 56h35q14 0 12 -13 l-14 -80q-2 -10 -12 -10h-15q-31 -4 -45 -23.5t-24 -68.5l-11 -65h56q25 0 20 -25l-33 -186q-4 -27 -28 -27h-166q-25 0 -21 27z" />
<glyph unicode="&#x201d;" horiz-adv-x="735" d="M262 1165l12 78q2 10 15 12h12q31 4 46 23.5t24 69.5l12 63h-57q-25 0 -21 27l33 186q4 25 29 25h168q25 0 20 -25l-33 -186q0 -2 -2 -2v-2l-16 -97q-14 -82 -67.5 -131t-127.5 -53h-37q-12 -2 -10 12zM616 1165l13 78q2 10 14 12h12q31 4 46.5 23.5t23.5 69.5l10 63h-55 q-25 0 -21 27l33 186q4 25 29 25h168q25 0 18 -25l-33 -186v-2v-2l-16 -97q-14 -82 -67.5 -131t-126.5 -53h-37q-14 -2 -11 12z" />
<glyph unicode="&#x201e;" horiz-adv-x="835" d="M80 -244l14 78q2 10 12 12h13q31 4 46 23.5t23 69.5l13 65h-58q-25 0 -18 25l33 186q4 25 28 25h166q25 0 21 -25l-33 -186v-2v-2l-18 -97q-14 -82 -67.5 -131t-127.5 -53h-37q-12 -2 -10 12zM426 -244l12 78q2 10 15 12h12q31 4 46 23.5t24 69.5l12 65h-58q-25 0 -20 25 l33 186q6 25 28 25h168q25 0 21 -25l-33 -186q0 -2 -2 -2v-2l-16 -97q-14 -82 -67.5 -131t-127.5 -53h-37q-12 -2 -10 12z" />
<glyph unicode="&#x2022;" horiz-adv-x="931" d="M266 715q23 131 128.5 223t232.5 92t200.5 -92t49.5 -223q-23 -129 -129.5 -221.5t-233.5 -92.5q-125 0 -197.5 92.5t-50.5 221.5z" />
<glyph unicode="&#x2026;" horiz-adv-x="1400" d="M119 27l33 186q4 27 28 27h168q25 0 21 -27l-33 -186q-6 -25 -31 -25h-166q-25 0 -20 25zM582 27l32 186q4 27 29 27h166q25 0 20 -27l-32 -186q-4 -25 -29 -25h-168q-25 0 -18 25zM1042 27l33 186q4 27 29 27h168q25 0 20 -27l-32 -186q-6 -25 -31 -25h-166 q-25 0 -21 25z" />
<glyph unicode="&#x202f;" horiz-adv-x="361" />
<glyph unicode="&#x2039;" horiz-adv-x="583" d="M221 512l29 160q4 18 22 33l291 241q10 6 16.5 2t4.5 -16l-31 -166q-2 -14 -16 -27l-146 -129q-12 -10 -14 -19t6 -20l100 -127q12 -14 9 -28l-29 -166q-2 -12 -10.5 -16.5t-14.5 2.5l-207 241q-12 16 -10 35z" />
<glyph unicode="&#x203a;" horiz-adv-x="583" d="M221 250l31 166q2 14 16 28l146 127q12 10 14 19.5t-6 19.5l-100 129q-12 12 -9 27l29 166q2 12 10 16t15 -2l206 -241q12 -14 11 -33l-29 -160q-4 -18 -23 -35l-290 -241q-10 -6 -16.5 -2t-4.5 16z" />
<glyph unicode="&#x205f;" horiz-adv-x="452" />
<glyph unicode="&#x20ac;" horiz-adv-x="1261" d="M137 520l19 107q2 20 22 20h123l21 123h-121q-20 0 -17 21l19 106q4 20 24 21h121l25 147q27 147 150.5 252.5t267.5 105.5h268q143 0 230 -105.5t61 -252.5l-15 -80q-2 -20 -24 -20h-205q-23 0 -19 20l11 53q29 168 -140 168h-143q-170 0 -199 -168l-20 -120h328 q20 0 18 -21l-18 -106q-4 -20 -25 -21h-330l-22 -123h330q20 0 16 -20l-19 -107q-4 -20 -24 -20h-328l-22 -125q-29 -166 139 -166h143q170 0 199 166l10 61q4 20 27 21h205q20 0 16 -21l-14 -88q-27 -147 -151 -250.5t-267 -103.5h-268q-143 0 -230.5 103.5t-60.5 250.5 l26 152h-120q-20 0 -17 20z" />
<glyph unicode="&#x2122;" horiz-adv-x="1740" d="M297 1339l16 95q4 16 27 16h518q10 0 16.5 -4t4.5 -12l-17 -95q-2 -18 -26 -18h-162q-10 0 -21 4q2 -10 0 -16l-114 -645q-2 -16 -27 -17h-109q-10 0 -16 4t-4 13l113 645q2 6 6 16q-12 -4 -23 -4h-162q-10 0 -15 5t-5 13zM846 664l137 770q2 16 27 16h131q20 0 22 -12 l121 -529q2 -8 2 -16q6 10 10 16l308 529q6 12 26 12h131q10 0 16.5 -4t4.5 -12l-135 -770q-4 -16 -27 -17h-111q-10 0 -16 4t-4 13l82 464q0 6 2 15l-4 -8l-271 -476q-6 -12 -24 -12h-62q-16 0 -20 12l-100 476l-2 8q-2 -8 -3 -15l-83 -464q-2 -16 -27 -17h-109 q-10 0 -16 4t-6 13z" />
<glyph unicode="&#x25fc;" horiz-adv-x="1130" d="M0 0v1130h1130v-1130h-1130z" />
</font>
</defs>
</svg>
