<svg class="ui icon" xmlns="http://www.w3.org/2000/svg" viewBox="0 0 100 100"><title>bilges</title><g id="bilges"><path d="M99.27,24.89A3.45,3.45,0,0,0,96,23.33H3.67A3.68,3.68,0,0,0,0,27,50,50,0,0,0,85.29,62.37h0a4,4,0,1,0-5.52-5.76h0c-.94.93-1.93,1.84-3,2.69H23.17A42,42,0,0,1,8.53,33.65a2,2,0,0,1,2-2.32H96A4.07,4.07,0,0,0,99.27,24.89Z"/><circle cx="50" cy="53.17" r="3.92"/><circle cx="59.92" cy="47.05" r="3.92"/><circle cx="71.08" cy="44.14" r="3.92"/><circle cx="83.08" cy="43.64" r="3.92"/><path d="M89.87,52.58l9.56-3.16a.83.83,0,0,0,.45-1.21l-5.13-8.67a.82.82,0,0,0-1.48.13L88.84,51.5A.82.82,0,0,0,89.87,52.58Z"/></g></svg>