<svg class="ui icon" xmlns="http://www.w3.org/2000/svg" viewBox="0 0 100 100"><title>engines</title><g id="engines"><path d="M100.06,57.08c0-1.7,0-3.89-.06-6.62-.17-9-6.33-17-8.65-17H86.93a3.78,3.78,0,0,0-3.78,3.78V42.5a1.22,1.22,0,0,1-1.22,1.22h-2A1.22,1.22,0,0,1,78.7,42.5V40.27a6.77,6.77,0,0,0-6.78-6.78H68.51V31.66A4.66,4.66,0,0,0,63.85,27H59.23V23.75h4.62a4.66,4.66,0,1,0,0-9.32H30.15a4.66,4.66,0,0,0-4.66,4.66h0a4.66,4.66,0,0,0,4.66,4.66h4.62V27H30.15a4.66,4.66,0,0,0-4.66,4.66v1.83H19.76A6.77,6.77,0,0,0,13,40.27v8.19H8.54V32.54s-.27-2-1.39-2S0,33.88,0,37.67v8.12c0,1.46,1.67,3,2.33,3.59a6,6,0,0,1,2.3,5.12v1.63c0,2.2-2.3,3.7-2.3,6.83v9c0,1.5,1.55,3.37,1.94,3.83s1.86,2.33,2.27,2.33h1c.42,0,1.11-1.37,1.11-2.1L8.58,59.19H13v7.28a6.77,6.77,0,0,0,6.78,6.78h1.78c6.77,0,12.06,6.94,12.06,6.94s5,6.29,9.41,6.29H71.92A6.77,6.77,0,0,0,78.7,79.7V72.8a1.22,1.22,0,0,1,1.22-1.21h2a1.22,1.22,0,0,1,1.22,1.21v5.57a3.78,3.78,0,0,0,3.78,3.78h4.42c2.32,0,8.49-8,8.66-17C100.07,61.57,100.08,58.91,100.06,57.08ZM39,73.25l0,0q3.51-7.92,7-15.86H32.33l23.46-22.2.05,0q-3.53,7.92-7.05,15.86H62.42Z"/></g></svg>