<svg class="ui icon" xmlns="http://www.w3.org/2000/svg" viewBox="0 0 100 100"><path d="M50,0A50,50,0,1,1,0,49.83,49.85,49.85,0,0,1,50,0Zm1.7,65.58c-7.8,0-13.3-3.27-15.82-8.84a15.24,15.24,0,0,1,2-16.66c.51-.66,1.12-1.24,1.56-1.94a4.61,4.61,0,0,0-.87-6,4.36,4.36,0,0,0-5.84-.08,13.38,13.38,0,0,0-2.26,2.43A24.94,24.94,0,0,0,65.85,69.26c11-8.93,12.15-26,2.39-36.27-2.18-2.29-4.81-2.62-6.86-.87s-2.12,4.52-.19,6.92c.35.43.75.82,1.08,1.26C66.09,45.42,66.8,51,64.06,56.73S56.52,65.38,51.72,65.58Zm2.84-28.12c0-3.79,0-7.58,0-11.37,0-3-1.84-4.92-4.45-5s-4.64,1.95-4.66,5.06q-.06,11.35,0,22.73c0,3,1.84,4.93,4.44,5s4.62-2,4.66-5.06C54.6,45,54.56,41.25,54.56,37.46Z"/></svg>