<svg class="ui icon" xmlns="http://www.w3.org/2000/svg" viewBox="0 0 100 100"><title>temps</title><g id="temps"><path d="M38.64,3.5a3.73,3.73,0,0,1,3.72,3.72V60.56a3.5,3.5,0,0,0,1.77,3,17.61,17.61,0,1,1-17.42,0,3.52,3.52,0,0,0,1.76-3V7.22A3.73,3.73,0,0,1,32.19,3.5h6.45m0-3.5H32.19A7.24,7.24,0,0,0,25,7.22V60.56a21.12,21.12,0,1,0,20.89,0V7.22A7.24,7.24,0,0,0,38.64,0Z"/><rect x="31.74" y="35.03" width="7.27" height="7.01"/><rect x="31.74" y="53.57" width="7.27" height="7.01"/><rect x="31.74" y="44.3" width="7.27" height="7.01"/><rect x="31.74" y="25.77" width="7.27" height="7.01"/><path d="M31.74,23.51H39V18.17a1.67,1.67,0,0,0-1.67-1.67H33.41a1.67,1.67,0,0,0-1.67,1.67Z"/><path d="M41,66.56c-1.21-.55-2-.76-2-2.08V62.84H31.74v1.67c0,1.31-.74,1.52-1.92,2.06a13.54,13.54,0,1,0,11.17,0Z"/><path d="M75.34,7.69a2.16,2.16,0,0,1,2.15,2.16V40.73a2,2,0,0,0,1,1.76,10.2,10.2,0,1,1-10.08,0,2,2,0,0,0,1-1.76V9.85A2.16,2.16,0,0,1,71.6,7.69h3.74m0-2H71.6a4.19,4.19,0,0,0-4.18,4.18V40.73a12.22,12.22,0,1,0,12.1,0V9.85a4.19,4.19,0,0,0-4.18-4.18Z"/><rect x="71.34" y="36.69" width="4.21" height="4.06"/><path d="M71.34,35.38h4.21V32.5a1.18,1.18,0,0,0-1.18-1.18H72.52a1.18,1.18,0,0,0-1.18,1.18Z"/><path d="M76.7,44.21c-.7-.32-1.15-.44-1.15-1.21v-.94H71.34v1c0,.76-.43.88-1.11,1.19a7.85,7.85,0,1,0,6.47,0Z"/></g></svg>