<?xml version="1.0" encoding="UTF-8"?>
<svg xmlns="http://www.w3.org/2000/svg" viewBox="0 0 242.08 1024.49" width="242.08" height="1024.49">
  <defs>
    <style>
      .cls-1 {
        stroke-width: .01px;
      }

      .cls-1, .cls-2, .cls-3, .cls-4, .cls-5, .cls-6, .cls-7, .cls-8, .cls-9, .cls-10, .cls-11, .cls-12, .cls-13, .cls-14, .cls-15 {
        fill: none;
      }

      .cls-1, .cls-2, .cls-3, .cls-4, .cls-5, .cls-6, .cls-7, .cls-8, .cls-9, .cls-10, .cls-11, .cls-13, .cls-14, .cls-15 {
        stroke-linecap: round;
        stroke-linejoin: round;
      }

      .cls-1, .cls-7, .cls-14 {
        stroke: lime;
      }

      .cls-2, .cls-3 {
        stroke: blue;
        stroke-dasharray: 0 0 0 0 .32 .05 .05 .05;
      }

      .cls-2, .cls-4, .cls-5, .cls-6, .cls-7, .cls-8, .cls-9, .cls-10, .cls-11, .cls-14 {
        stroke-width: .01px;
      }

      .cls-3, .cls-15 {
        stroke-width: 0px;
      }

      .cls-4 {
        stroke: silver;
      }

      .cls-5 {
        stroke-dasharray: 0 0 0 0 0 0 .27 .05 .05 .05 .05 .05;
      }

      .cls-5, .cls-11 {
        stroke: #f0f;
      }

      .cls-6 {
        stroke: #ffbf00;
      }

      .cls-16, .cls-17 {
        font-size: 3.78px;
      }

      .cls-16, .cls-17, .cls-18 {
        font-family: MyriadPro-Regular, 'Myriad Pro';
      }

      .cls-16, .cls-18 {
        fill: aqua;
      }

      .cls-8, .cls-13 {
        stroke: red;
      }

      .cls-9 {
        stroke: #995f4c;
      }

      .cls-19 {
        letter-spacing: 0em;
      }

      .cls-17 {
        fill: #c60;
      }

      .cls-18 {
        font-size: 3.55px;
      }

      .cls-10 {
        stroke: aqua;
      }

      .cls-11, .cls-14 {
        stroke-dasharray: 0 0 .03 .02;
      }

      .cls-13 {
        stroke-width: 0px;
      }

      .cls-20 {
        letter-spacing: -.05em;
      }

      .cls-15 {
        stroke: #000;
      }
    </style>
  </defs>
  <g id="_04_Text_Dims" data-name="04_Text_Dims">
    <g id="LEADER">
      <g id="LWPOLYLINE">
        <polyline class="cls-10" points="70.48 801.37 48.57 823.43 43.7 823.43"/>
      </g>
    </g>
    <g id="MTEXT">
      <text class="cls-18" transform="translate(23.68 824.68) scale(.75 1)"><tspan x="0" y="0">DOWN LIGHT</tspan></text>
    </g>
    <g id="LEADER-2" data-name="LEADER">
      <g id="LWPOLYLINE-2" data-name="LWPOLYLINE">
        <polyline class="cls-10" points="100.3 802.89 48.57 840.43 43.7 840.43"/>
      </g>
    </g>
    <g id="MTEXT-2" data-name="MTEXT">
      <text class="cls-18" transform="translate(23.68 841.68) scale(.75 1)"><tspan x="0" y="0">DOWN LIGHT</tspan></text>
    </g>
    <g id="LEADER-3" data-name="LEADER">
      <g id="LWPOLYLINE-3" data-name="LWPOLYLINE">
        <polyline class="cls-10" points="53.6 791.76 48.57 788.76 43.7 788.76"/>
      </g>
    </g>
    <g id="MTEXT-3" data-name="MTEXT">
      <text class="cls-18" transform="translate(15.31 790.01) scale(.75 1)"><tspan x="0" y="0">GREEN N</tspan><tspan class="cls-20" x="13.11" y="0">A</tspan><tspan x="15.1" y="0">V LIGHT</tspan></text>
    </g>
    <g id="LEADER-4" data-name="LEADER">
      <g id="LWPOLYLINE-4" data-name="LWPOLYLINE">
        <polyline class="cls-10" points="108.59 792.59 48.57 754.81 43.7 754.81"/>
      </g>
    </g>
    <g id="MTEXT-4" data-name="MTEXT">
      <text class="cls-18" transform="translate(27.84 756.05) scale(.75 1)"><tspan x="0" y="0">UP LIGHT</tspan></text>
    </g>
    <g id="MTEXT-5" data-name="MTEXT">
      <text class="cls-17" transform="translate(29.75 977.27) scale(.75 1)"><tspan x="0" y="0">STB</tspan></text>
    </g>
    <g id="MTEXT-6" data-name="MTEXT">
      <text class="cls-17" transform="translate(205.96 976.34) scale(.75 1)"><tspan x="0" y="0">PO</tspan><tspan class="cls-19" x="4.62" y="0">R</tspan><tspan x="6.69" y="0">T</tspan></text>
    </g>
    <g id="MTEXT-7" data-name="MTEXT">
      <text class="cls-17" transform="translate(29.75 798.21) scale(.75 1)"><tspan x="0" y="0">STB</tspan></text>
    </g>
    <g id="MTEXT-8" data-name="MTEXT">
      <text class="cls-17" transform="translate(205.96 797.29) scale(.75 1)"><tspan x="0" y="0">PO</tspan><tspan class="cls-19" x="4.62" y="0">R</tspan><tspan x="6.69" y="0">T</tspan></text>
    </g>
    <g id="MTEXT-9" data-name="MTEXT">
      <text class="cls-17" transform="translate(29.75 626.04) scale(.75 1)"><tspan x="0" y="0">STB</tspan></text>
    </g>
    <g id="MTEXT-10" data-name="MTEXT">
      <text class="cls-17" transform="translate(205.96 625.12) scale(.75 1)"><tspan x="0" y="0">PO</tspan><tspan class="cls-19" x="4.62" y="0">R</tspan><tspan x="6.69" y="0">T</tspan></text>
    </g>
    <g id="MTEXT-11" data-name="MTEXT">
      <text class="cls-17" transform="translate(29.75 445.84) scale(.75 1)"><tspan x="0" y="0">STB</tspan></text>
    </g>
    <g id="MTEXT-12" data-name="MTEXT">
      <text class="cls-17" transform="translate(205.96 444.92) scale(.75 1)"><tspan x="0" y="0">PO</tspan><tspan class="cls-19" x="4.62" y="0">R</tspan><tspan x="6.69" y="0">T</tspan></text>
    </g>
    <g id="MTEXT-13" data-name="MTEXT">
      <text class="cls-17" transform="translate(58.63 269.16) scale(.75 1)"><tspan x="0" y="0">STB</tspan></text>
    </g>
    <g id="MTEXT-14" data-name="MTEXT">
      <text class="cls-17" transform="translate(185.56 268.23) scale(.75 1)"><tspan x="0" y="0">PO</tspan><tspan class="cls-19" x="4.62" y="0">R</tspan><tspan x="6.69" y="0">T</tspan></text>
    </g>
    <g id="LEADER-5" data-name="LEADER">
      <g id="LWPOLYLINE-5" data-name="LWPOLYLINE">
        <polyline class="cls-10" points="176.58 801.37 198.5 823.43 203.37 823.43"/>
      </g>
    </g>
    <g id="MTEXT-15" data-name="MTEXT">
      <text class="cls-18" transform="translate(205.52 824.68) scale(.75 1)"><tspan x="0" y="0">DOWN LIGHT</tspan></text>
    </g>
    <g id="LEADER-6" data-name="LEADER">
      <g id="LWPOLYLINE-6" data-name="LWPOLYLINE">
        <polyline class="cls-10" points="146.77 802.89 198.5 840.43 203.37 840.43"/>
      </g>
    </g>
    <g id="MTEXT-16" data-name="MTEXT">
      <text class="cls-18" transform="translate(205.52 841.68) scale(.75 1)"><tspan x="0" y="0">DOWN LIGHT</tspan></text>
    </g>
    <g id="LEADER-7" data-name="LEADER">
      <g id="LWPOLYLINE-7" data-name="LWPOLYLINE">
        <polyline class="cls-10" points="193.46 791.76 198.5 788.76 203.37 788.76"/>
      </g>
    </g>
    <g id="MTEXT-17" data-name="MTEXT">
      <text class="cls-18" transform="translate(205.52 790.01) scale(.75 1)"><tspan x="0" y="0">RED N</tspan><tspan class="cls-20" x="9.1" y="0">A</tspan><tspan x="11.09" y="0">V LIGHT</tspan></text>
    </g>
    <g id="LEADER-8" data-name="LEADER">
      <g id="LWPOLYLINE-8" data-name="LWPOLYLINE">
        <polyline class="cls-10" points="138.57 792.59 198.5 754.81 203.37 754.81"/>
      </g>
    </g>
    <g id="MTEXT-18" data-name="MTEXT">
      <text class="cls-18" transform="translate(205.52 756.05) scale(.75 1)"><tspan x="0" y="0">UP LIGHT</tspan></text>
    </g>
    <g id="LEADER-9" data-name="LEADER">
      <g id="LWPOLYLINE-9" data-name="LWPOLYLINE">
        <polyline class="cls-10" points="108.59 623.01 48.57 585.23 43.7 585.23"/>
      </g>
    </g>
    <g id="MTEXT-19" data-name="MTEXT">
      <text class="cls-18" transform="translate(27.84 586.48) scale(.75 1)"><tspan x="0" y="0">UP LIGHT</tspan></text>
    </g>
    <g id="LEADER-10" data-name="LEADER">
      <g id="LWPOLYLINE-10" data-name="LWPOLYLINE">
        <polyline class="cls-10" points="138.47 623.01 198.5 585.23 203.37 585.23"/>
      </g>
    </g>
    <g id="MTEXT-20" data-name="MTEXT">
      <text class="cls-18" transform="translate(205.52 586.48) scale(.75 1)"><tspan x="0" y="0">UP LIGHT</tspan></text>
    </g>
    <g id="LEADER-11" data-name="LEADER">
      <g id="LWPOLYLINE-11" data-name="LWPOLYLINE">
        <polyline class="cls-10" points="108.59 444.53 48.57 406.75 43.7 406.75"/>
      </g>
    </g>
    <g id="MTEXT-21" data-name="MTEXT">
      <text class="cls-18" transform="translate(27.84 407.99) scale(.75 1)"><tspan x="0" y="0">UP LIGHT</tspan></text>
    </g>
    <g id="LEADER-12" data-name="LEADER">
      <g id="LWPOLYLINE-12" data-name="LWPOLYLINE">
        <polyline class="cls-10" points="138.47 444.53 198.5 406.75 203.37 406.75"/>
      </g>
    </g>
    <g id="MTEXT-22" data-name="MTEXT">
      <text class="cls-18" transform="translate(205.52 407.99) scale(.75 1)"><tspan x="0" y="0">UP LIGHT</tspan></text>
    </g>
    <g id="LEADER-13" data-name="LEADER">
      <g id="LWPOLYLINE-13" data-name="LWPOLYLINE">
        <polyline class="cls-10" points="108.47 270.69 81.3 255.62 76.43 255.62"/>
      </g>
    </g>
    <g id="MTEXT-23" data-name="MTEXT">
      <text class="cls-18" transform="translate(60.57 256.86) scale(.75 1)"><tspan x="0" y="0">UP LIGHT</tspan></text>
    </g>
    <g id="LEADER-14" data-name="LEADER">
      <g id="LWPOLYLINE-14" data-name="LWPOLYLINE">
        <polyline class="cls-10" points="138.6 270.69 165.76 255.62 170.63 255.62"/>
      </g>
    </g>
    <g id="MTEXT-24" data-name="MTEXT">
      <text class="cls-18" transform="translate(172.79 256.86) scale(.75 1)"><tspan x="0" y="0">UP LIGHT</tspan></text>
    </g>
    <g id="MULTILEADER">
      <g id="CIRCLE">
        <circle class="cls-15" cx="18.62" cy="754.56" r="2.21"/>
      </g>
    </g>
    <g id="MULTILEADER-2" data-name="MULTILEADER">
      <g id="CIRCLE-2" data-name="CIRCLE">
        <circle class="cls-15" cx="2.21" cy="788.71" r="2.21"/>
      </g>
    </g>
    <g id="MULTILEADER-3" data-name="MULTILEADER">
      <g id="CIRCLE-3" data-name="CIRCLE">
        <circle class="cls-15" cx="12.37" cy="823.52" r="2.21"/>
      </g>
    </g>
    <g id="MULTILEADER-4" data-name="MULTILEADER">
      <g id="CIRCLE-4" data-name="CIRCLE">
        <circle class="cls-15" cx="12.54" cy="840.66" r="2.21"/>
      </g>
    </g>
    <g id="MULTILEADER-5" data-name="MULTILEADER">
      <g id="CIRCLE-5" data-name="CIRCLE">
        <circle class="cls-15" cx="233.12" cy="840.65" r="2.21"/>
      </g>
    </g>
    <g id="MULTILEADER-6" data-name="MULTILEADER">
      <g id="CIRCLE-6" data-name="CIRCLE">
        <circle class="cls-15" cx="233.63" cy="823.28" r="2.21"/>
      </g>
    </g>
    <g id="MULTILEADER-7" data-name="MULTILEADER">
      <g id="CIRCLE-7" data-name="CIRCLE">
        <circle class="cls-15" cx="239.87" cy="789.04" r="2.21"/>
      </g>
    </g>
    <g id="MULTILEADER-8" data-name="MULTILEADER">
      <g id="CIRCLE-8" data-name="CIRCLE">
        <circle class="cls-15" cx="228.56" cy="754.13" r="2.21"/>
      </g>
    </g>
    <g id="MULTILEADER-9" data-name="MULTILEADER">
      <g id="CIRCLE-9" data-name="CIRCLE">
        <circle class="cls-15" cx="228.4" cy="584.22" r="2.21"/>
      </g>
    </g>
    <g id="MULTILEADER-10" data-name="MULTILEADER">
      <g id="CIRCLE-10" data-name="CIRCLE">
        <circle class="cls-15" cx="17.82" cy="584.81" r="2.21"/>
      </g>
    </g>
    <g id="MULTILEADER-11" data-name="MULTILEADER">
      <g id="CIRCLE-11" data-name="CIRCLE">
        <circle class="cls-15" cx="227.51" cy="406.58" r="2.21"/>
      </g>
    </g>
    <g id="MULTILEADER-12" data-name="MULTILEADER">
      <g id="CIRCLE-12" data-name="CIRCLE">
        <circle class="cls-15" cx="15.79" cy="406.3" r="2.21"/>
      </g>
    </g>
    <g id="MULTILEADER-13" data-name="MULTILEADER">
      <g id="CIRCLE-13" data-name="CIRCLE">
        <circle class="cls-15" cx="196.51" cy="255.04" r="2.21"/>
      </g>
    </g>
    <g id="MULTILEADER-14" data-name="MULTILEADER">
      <g id="CIRCLE-14" data-name="CIRCLE">
        <circle class="cls-15" cx="48.1" cy="255.45" r="2.21"/>
      </g>
    </g>
    <g id="LEADER-15" data-name="LEADER">
      <g id="LWPOLYLINE-15" data-name="LWPOLYLINE">
        <polyline class="cls-10" points="123.32 36.33 117.63 4.06 107.5 4.06"/>
      </g>
    </g>
    <g id="MTEXT-25" data-name="MTEXT">
      <text class="cls-16" transform="translate(100.61 3.17) scale(.75 1)"><tspan x="0" y="0">360°</tspan></text>
      <text class="cls-16" transform="translate(101.28 7.63) scale(.75 1)"><tspan x="0" y="0">RED</tspan></text>
    </g>
  </g>
  <g id="_03_Centre" data-name="03_Centre">
    <g id="LINE">
      <line class="cls-2" x1="123.53" y1="1023.79" x2="123.53" y2="40.32"/>
    </g>
    <g id="LINE-2" data-name="LINE">
      <line class="cls-3" x1="123.54" y1="36.99" x2="123.51" y2="37.98"/>
    </g>
    <g id="LINE-3" data-name="LINE">
      <line class="cls-2" x1="123.5" y1="38.37" x2="123.48" y2="38.94"/>
    </g>
    <g id="LINE-4" data-name="LINE">
      <line class="cls-2" x1="124.33" y1="38.51" x2="122.66" y2="38.46"/>
    </g>
    <g id="LINE-5" data-name="LINE">
      <line class="cls-2" x1="123.08" y1="38.52" x2="123.08" y2="38.42"/>
    </g>
    <g id="LINE-6" data-name="LINE">
      <line class="cls-2" x1="124.11" y1="38.51" x2="124.03" y2="38.5"/>
    </g>
    <g id="LINE-7" data-name="LINE">
      <line class="cls-2" x1="123.24" y1="38.48" x2="123.16" y2="38.48"/>
    </g>
    <g id="LINE-8" data-name="LINE">
      <line class="cls-2" x1="123.52" y1="37.52" x2="123.49" y2="38.42"/>
    </g>
    <g id="LINE-9" data-name="LINE">
      <line class="cls-2" x1="123.2" y1="38.52" x2="123.2" y2="38.44"/>
    </g>
  </g>
  <g id="_01_Outline" data-name="01_Outline">
    <g id="LINE-10" data-name="LINE">
      <line class="cls-8" x1="194.01" y1="795.78" x2="123.53" y2="797.62"/>
    </g>
    <g id="LINE-11" data-name="LINE">
      <line class="cls-8" x1="192.64" y1="624.42" x2="123.53" y2="628.04"/>
    </g>
    <g id="LINE-12" data-name="LINE">
      <line class="cls-8" x1="185.21" y1="443.08" x2="123.53" y2="449.56"/>
    </g>
    <g id="LINE-13" data-name="LINE">
      <line class="cls-8" x1="165.82" y1="268.82" x2="123.53" y2="275.51"/>
    </g>
    <g id="LINE-14" data-name="LINE">
      <line class="cls-8" x1="120.37" y1="806.38" x2="123.53" y2="806.38"/>
    </g>
    <g id="LINE-15" data-name="LINE">
      <line class="cls-8" x1="123.53" y1="806.38" x2="126.46" y2="806.38"/>
    </g>
    <g id="LINE-16" data-name="LINE">
      <line class="cls-8" x1="120.37" y1="635.03" x2="123.53" y2="635.03"/>
    </g>
    <g id="LINE-17" data-name="LINE">
      <line class="cls-8" x1="123.53" y1="635.03" x2="126.46" y2="635.03"/>
    </g>
    <g id="LINE-18" data-name="LINE">
      <line class="cls-8" x1="120.37" y1="456.98" x2="123.53" y2="456.98"/>
    </g>
    <g id="LINE-19" data-name="LINE">
      <line class="cls-8" x1="123.53" y1="456.98" x2="126.46" y2="456.98"/>
    </g>
    <g id="LINE-20" data-name="LINE">
      <line class="cls-8" x1="120.37" y1="283.57" x2="123.53" y2="283.57"/>
    </g>
    <g id="LINE-21" data-name="LINE">
      <line class="cls-8" x1="123.53" y1="283.57" x2="126.46" y2="283.57"/>
    </g>
    <g id="LINE-22" data-name="LINE">
      <line class="cls-8" x1="123.53" y1="993.98" x2="123.53" y2="993.98"/>
    </g>
    <g id="LINE-23" data-name="LINE">
      <line class="cls-8" x1="123.53" y1="993.98" x2="123.53" y2="993.98"/>
    </g>
    <g id="LINE-24" data-name="LINE">
      <line class="cls-8" x1="123.53" y1="993.98" x2="123.53" y2="993.98"/>
    </g>
    <g id="LINE-25" data-name="LINE">
      <line class="cls-8" x1="123.53" y1="993.98" x2="123.53" y2="993.98"/>
    </g>
    <g id="LINE-26" data-name="LINE">
      <line class="cls-8" x1="123.53" y1="993.98" x2="123.53" y2="993.98"/>
    </g>
    <g id="LINE-27" data-name="LINE">
      <line class="cls-8" x1="123.53" y1="993.98" x2="123.53" y2="993.98"/>
    </g>
    <g id="LINE-28" data-name="LINE">
      <line class="cls-8" x1="123.53" y1="993.98" x2="123.53" y2="993.98"/>
    </g>
    <g id="LINE-29" data-name="LINE">
      <line class="cls-8" x1="123.53" y1="993.98" x2="123.53" y2="993.98"/>
    </g>
    <g id="LINE-30" data-name="LINE">
      <line class="cls-8" x1="123.53" y1="993.98" x2="123.53" y2="993.98"/>
    </g>
    <g id="LINE-31" data-name="LINE">
      <line class="cls-8" x1="123.53" y1="993.98" x2="123.53" y2="993.98"/>
    </g>
    <g id="LINE-32" data-name="LINE">
      <line class="cls-8" x1="123.53" y1="993.98" x2="123.53" y2="993.98"/>
    </g>
    <g id="LINE-33" data-name="LINE">
      <line class="cls-8" x1="123.53" y1="993.98" x2="123.53" y2="993.98"/>
    </g>
    <g id="LINE-34" data-name="LINE">
      <line class="cls-8" x1="126.46" y1="1023.02" x2="126.46" y2="157.05"/>
    </g>
    <g id="LINE-35" data-name="LINE">
      <line class="cls-8" x1="126.46" y1="157.05" x2="126.01" y2="40.32"/>
    </g>
    <g id="LINE-36" data-name="LINE">
      <line class="cls-8" x1="120.6" y1="1023.19" x2="120.6" y2="157.05"/>
    </g>
    <g id="LINE-37" data-name="LINE">
      <line class="cls-8" x1="120.6" y1="157.05" x2="121.05" y2="40.32"/>
    </g>
    <g id="LINE-38" data-name="LINE">
      <line class="cls-8" x1="53.06" y1="795.78" x2="123.53" y2="797.62"/>
    </g>
    <g id="LINE-39" data-name="LINE">
      <line class="cls-8" x1="54.43" y1="624.42" x2="123.53" y2="628.04"/>
    </g>
    <g id="LINE-40" data-name="LINE">
      <line class="cls-8" x1="61.86" y1="443.08" x2="123.53" y2="449.56"/>
    </g>
    <g id="LINE-41" data-name="LINE">
      <line class="cls-8" x1="81.25" y1="268.82" x2="123.53" y2="275.51"/>
    </g>
    <g id="LWPOLYLINE-16" data-name="LWPOLYLINE">
      <polyline class="cls-8" points="58.54 795.45 58.54 794.26 58.5 794.23 56.95 794.23 56.95 795.45"/>
    </g>
    <g id="LWPOLYLINE-17" data-name="LWPOLYLINE">
      <path class="cls-8" d="M58.54,795.45h-1.59s-.08,.04-.08,.08v.03h1.76v-.03s-.04-.08-.08-.08Z"/>
    </g>
    <g id="LWPOLYLINE-18" data-name="LWPOLYLINE">
      <polyline class="cls-8" points="188.53 795.45 188.53 794.26 188.56 794.23 190.12 794.23 190.12 795.45"/>
    </g>
    <g id="LWPOLYLINE-19" data-name="LWPOLYLINE">
      <path class="cls-8" d="M188.53,795.45h1.59s.08,.04,.08,.08v.03h-1.76v-.03s.04-.08,.08-.08Z"/>
    </g>
    <g id="LINE-42" data-name="LINE">
      <line class="cls-8" x1="122.66" y1="38.38" x2="122.65" y2="38.79"/>
    </g>
    <g id="ARC">
      <path class="cls-8" d="M122.69,38.34s-.03,.01-.03,.03"/>
    </g>
    <g id="LINE-43" data-name="LINE">
      <line class="cls-8" x1="124.33" y1="38.43" x2="124.31" y2="39.09"/>
    </g>
    <g id="ARC-2" data-name="ARC">
      <path class="cls-8" d="M124.33,38.43s-.01-.03-.03-.03"/>
    </g>
    <g id="LINE-44" data-name="LINE">
      <line class="cls-8" x1="124.3" y1="38.39" x2="122.69" y2="38.34"/>
    </g>
    <g id="CIRCLE-15" data-name="CIRCLE">
      <circle class="cls-8" cx="123.08" cy="38.47" r=".04"/>
    </g>
  </g>
  <g id="_08_Medium" data-name="08_Medium">
    <g id="LINE-45" data-name="LINE">
      <line class="cls-6" x1="192.19" y1="1002.77" x2="194.01" y2="795.78"/>
    </g>
    <g id="LINE-46" data-name="LINE">
      <line class="cls-6" x1="194.01" y1="795.78" x2="192.64" y2="624.42"/>
    </g>
    <g id="LINE-47" data-name="LINE">
      <line class="cls-6" x1="192.64" y1="624.42" x2="185.21" y2="443.08"/>
    </g>
    <g id="LINE-48" data-name="LINE">
      <line class="cls-6" x1="185.21" y1="443.08" x2="165.82" y2="268.82"/>
    </g>
    <g id="LINE-49" data-name="LINE">
      <line class="cls-6" x1="165.82" y1="268.82" x2="126.31" y2="113.09"/>
    </g>
    <g id="LINE-50" data-name="LINE">
      <line class="cls-6" x1="192.7" y1="1002.77" x2="126.46" y2="806.38"/>
    </g>
    <g id="LINE-51" data-name="LINE">
      <line class="cls-6" x1="194.01" y1="795.78" x2="126.46" y2="635.03"/>
    </g>
    <g id="LINE-52" data-name="LINE">
      <line class="cls-6" x1="192.64" y1="624.42" x2="126.46" y2="456.98"/>
    </g>
    <g id="LINE-53" data-name="LINE">
      <line class="cls-6" x1="185.21" y1="443.08" x2="126.46" y2="283.57"/>
    </g>
    <g id="LINE-54" data-name="LINE">
      <line class="cls-6" x1="54.87" y1="1002.77" x2="53.06" y2="795.78"/>
    </g>
    <g id="LINE-55" data-name="LINE">
      <line class="cls-6" x1="53.06" y1="795.78" x2="54.43" y2="624.42"/>
    </g>
    <g id="LINE-56" data-name="LINE">
      <line class="cls-6" x1="54.43" y1="624.42" x2="61.86" y2="443.08"/>
    </g>
    <g id="LINE-57" data-name="LINE">
      <line class="cls-6" x1="61.86" y1="443.08" x2="81.25" y2="268.82"/>
    </g>
    <g id="LINE-58" data-name="LINE">
      <line class="cls-6" x1="81.25" y1="268.82" x2="120.75" y2="113.09"/>
    </g>
    <g id="LINE-59" data-name="LINE">
      <line class="cls-6" x1="54.37" y1="1002.77" x2="120.6" y2="806.38"/>
    </g>
    <g id="LINE-60" data-name="LINE">
      <line class="cls-6" x1="53.06" y1="795.78" x2="120.6" y2="635.03"/>
    </g>
    <g id="LINE-61" data-name="LINE">
      <line class="cls-6" x1="54.43" y1="624.42" x2="120.6" y2="456.98"/>
    </g>
    <g id="LINE-62" data-name="LINE">
      <line class="cls-6" x1="61.86" y1="443.08" x2="120.6" y2="283.57"/>
    </g>
  </g>
  <g id="_06_Fine" data-name="06_Fine">
    <g id="LINE-63" data-name="LINE">
      <line class="cls-9" x1="119.7" y1="1023.72" x2="121.92" y2="1022.43"/>
    </g>
    <g id="LINE-64" data-name="LINE">
      <line class="cls-9" x1="121.92" y1="1022.43" x2="124.37" y2="1024.49"/>
    </g>
    <g id="LINE-65" data-name="LINE">
      <line class="cls-9" x1="124.37" y1="1024.49" x2="127.02" y2="1022.63"/>
    </g>
    <g id="LINE-66" data-name="LINE">
      <line class="cls-9" x1="124.33" y1="38.43" x2="122.66" y2="38.38"/>
    </g>
  </g>
  <g id="_02_Hidden" data-name="02_Hidden">
    <g id="LINE-67" data-name="LINE">
      <line class="cls-1" x1="112.87" y1="796.68" x2="112.87" y2="796.68"/>
    </g>
    <g id="LINE-68" data-name="LINE">
      <line class="cls-1" x1="114.3" y1="796.35" x2="112.88" y2="796.22"/>
    </g>
    <g id="LINE-69" data-name="LINE">
      <line class="cls-1" x1="112.81" y1="797.06" x2="112.88" y2="796.22"/>
    </g>
    <g id="LINE-70" data-name="LINE">
      <line class="cls-1" x1="114.23" y1="797.18" x2="114.3" y2="796.35"/>
    </g>
    <g id="LINE-71" data-name="LINE">
      <line class="cls-1" x1="112.88" y1="797.15" x2="114.13" y2="797.26"/>
    </g>
    <g id="ARC-3" data-name="ARC">
      <path class="cls-1" d="M114.23,797.18s-.04,.08-.09,.08"/>
    </g>
    <g id="ARC-4" data-name="ARC">
      <path class="cls-1" d="M112.88,797.15s-.08-.04-.08-.09"/>
    </g>
    <g id="LINE-72" data-name="LINE">
      <line class="cls-1" x1="112.87" y1="626.92" x2="112.87" y2="626.92"/>
    </g>
    <g id="LINE-73" data-name="LINE">
      <line class="cls-1" x1="114.3" y1="626.58" x2="112.88" y2="626.46"/>
    </g>
    <g id="LINE-74" data-name="LINE">
      <line class="cls-1" x1="112.81" y1="627.29" x2="112.88" y2="626.46"/>
    </g>
    <g id="LINE-75" data-name="LINE">
      <line class="cls-1" x1="114.23" y1="627.41" x2="114.3" y2="626.58"/>
    </g>
    <g id="LINE-76" data-name="LINE">
      <line class="cls-1" x1="112.88" y1="627.38" x2="114.13" y2="627.49"/>
    </g>
    <g id="ARC-5" data-name="ARC">
      <path class="cls-1" d="M114.23,627.41s-.04,.08-.09,.08"/>
    </g>
    <g id="ARC-6" data-name="ARC">
      <path class="cls-1" d="M112.88,627.38s-.08-.04-.08-.09"/>
    </g>
    <g id="LINE-77" data-name="LINE">
      <line class="cls-1" x1="112.87" y1="447.92" x2="112.87" y2="447.92"/>
    </g>
    <g id="LINE-78" data-name="LINE">
      <line class="cls-1" x1="114.3" y1="447.58" x2="112.88" y2="447.46"/>
    </g>
    <g id="LINE-79" data-name="LINE">
      <line class="cls-1" x1="112.81" y1="448.29" x2="112.88" y2="447.46"/>
    </g>
    <g id="LINE-80" data-name="LINE">
      <line class="cls-1" x1="114.23" y1="448.42" x2="114.3" y2="447.58"/>
    </g>
    <g id="LINE-81" data-name="LINE">
      <line class="cls-1" x1="112.88" y1="448.38" x2="114.13" y2="448.49"/>
    </g>
    <g id="ARC-7" data-name="ARC">
      <path class="cls-1" d="M114.23,448.42s-.04,.08-.09,.08"/>
    </g>
    <g id="ARC-8" data-name="ARC">
      <path class="cls-1" d="M112.88,448.38s-.08-.04-.08-.09"/>
    </g>
    <g id="LINE-82" data-name="LINE">
      <line class="cls-1" x1="112.87" y1="273.51" x2="112.87" y2="273.51"/>
    </g>
    <g id="LINE-83" data-name="LINE">
      <line class="cls-1" x1="114.3" y1="273.18" x2="112.88" y2="273.05"/>
    </g>
    <g id="LINE-84" data-name="LINE">
      <line class="cls-1" x1="112.81" y1="273.89" x2="112.88" y2="273.05"/>
    </g>
    <g id="LINE-85" data-name="LINE">
      <line class="cls-1" x1="114.23" y1="274.01" x2="114.3" y2="273.18"/>
    </g>
    <g id="LINE-86" data-name="LINE">
      <line class="cls-1" x1="112.88" y1="273.98" x2="114.13" y2="274.09"/>
    </g>
    <g id="ARC-9" data-name="ARC">
      <path class="cls-1" d="M114.23,274.01s-.04,.08-.09,.08"/>
    </g>
    <g id="ARC-10" data-name="ARC">
      <path class="cls-1" d="M112.88,273.98s-.08-.04-.08-.09"/>
    </g>
    <g id="LINE-87" data-name="LINE">
      <line class="cls-1" x1="134.2" y1="796.68" x2="134.2" y2="796.68"/>
    </g>
    <g id="LINE-88" data-name="LINE">
      <line class="cls-1" x1="132.77" y1="796.35" x2="134.19" y2="796.22"/>
    </g>
    <g id="LINE-89" data-name="LINE">
      <line class="cls-1" x1="134.26" y1="797.06" x2="134.19" y2="796.22"/>
    </g>
    <g id="LINE-90" data-name="LINE">
      <line class="cls-1" x1="132.84" y1="797.18" x2="132.77" y2="796.35"/>
    </g>
    <g id="LINE-91" data-name="LINE">
      <line class="cls-1" x1="134.18" y1="797.15" x2="132.93" y2="797.26"/>
    </g>
    <g id="ARC-11" data-name="ARC">
      <path class="cls-1" d="M132.84,797.18s.04,.08,.09,.08"/>
    </g>
    <g id="ARC-12" data-name="ARC">
      <path class="cls-1" d="M134.18,797.15s.08-.04,.08-.09"/>
    </g>
    <g id="LINE-92" data-name="LINE">
      <line class="cls-1" x1="134.2" y1="626.92" x2="134.2" y2="626.92"/>
    </g>
    <g id="LINE-93" data-name="LINE">
      <line class="cls-1" x1="132.77" y1="626.58" x2="134.19" y2="626.46"/>
    </g>
    <g id="LINE-94" data-name="LINE">
      <line class="cls-1" x1="134.26" y1="627.29" x2="134.19" y2="626.46"/>
    </g>
    <g id="LINE-95" data-name="LINE">
      <line class="cls-1" x1="132.84" y1="627.41" x2="132.77" y2="626.58"/>
    </g>
    <g id="LINE-96" data-name="LINE">
      <line class="cls-1" x1="134.18" y1="627.38" x2="132.93" y2="627.49"/>
    </g>
    <g id="ARC-13" data-name="ARC">
      <path class="cls-1" d="M132.84,627.41s.04,.08,.09,.08"/>
    </g>
    <g id="ARC-14" data-name="ARC">
      <path class="cls-1" d="M134.18,627.38s.08-.04,.08-.09"/>
    </g>
    <g id="LINE-97" data-name="LINE">
      <line class="cls-1" x1="134.2" y1="447.92" x2="134.2" y2="447.92"/>
    </g>
    <g id="LINE-98" data-name="LINE">
      <line class="cls-1" x1="132.77" y1="447.58" x2="134.19" y2="447.46"/>
    </g>
    <g id="LINE-99" data-name="LINE">
      <line class="cls-1" x1="134.26" y1="448.29" x2="134.19" y2="447.46"/>
    </g>
    <g id="LINE-100" data-name="LINE">
      <line class="cls-1" x1="132.84" y1="448.42" x2="132.77" y2="447.58"/>
    </g>
    <g id="LINE-101" data-name="LINE">
      <line class="cls-1" x1="134.18" y1="448.38" x2="132.93" y2="448.49"/>
    </g>
    <g id="ARC-15" data-name="ARC">
      <path class="cls-1" d="M132.84,448.42s.04,.08,.09,.08"/>
    </g>
    <g id="ARC-16" data-name="ARC">
      <path class="cls-1" d="M134.18,448.38s.08-.04,.08-.09"/>
    </g>
    <g id="LINE-102" data-name="LINE">
      <line class="cls-1" x1="134.2" y1="273.51" x2="134.2" y2="273.51"/>
    </g>
    <g id="LINE-103" data-name="LINE">
      <line class="cls-1" x1="132.77" y1="273.18" x2="134.19" y2="273.05"/>
    </g>
    <g id="LINE-104" data-name="LINE">
      <line class="cls-1" x1="134.26" y1="273.89" x2="134.19" y2="273.05"/>
    </g>
    <g id="LINE-105" data-name="LINE">
      <line class="cls-1" x1="132.84" y1="274.01" x2="132.77" y2="273.18"/>
    </g>
    <g id="LINE-106" data-name="LINE">
      <line class="cls-1" x1="134.18" y1="273.98" x2="132.93" y2="274.09"/>
    </g>
    <g id="ARC-17" data-name="ARC">
      <path class="cls-1" d="M132.84,274.01s.04,.08,.09,.08"/>
    </g>
    <g id="ARC-18" data-name="ARC">
      <path class="cls-1" d="M134.18,273.98s.08-.04,.08-.09"/>
    </g>
    <g id="LINE-107" data-name="LINE">
      <line class="cls-7" x1="104.04" y1="798.65" x2="104.04" y2="798.65"/>
    </g>
    <g id="LINE-108" data-name="LINE">
      <line class="cls-7" x1="105.44" y1="799.11" x2="104.02" y2="799.11"/>
    </g>
    <g id="LINE-109" data-name="LINE">
      <line class="cls-7" x1="104.02" y1="798.27" x2="104.02" y2="799.11"/>
    </g>
    <g id="LINE-110" data-name="LINE">
      <line class="cls-7" x1="105.44" y1="798.27" x2="105.44" y2="799.11"/>
    </g>
    <g id="LINE-111" data-name="LINE">
      <line class="cls-7" x1="104.1" y1="798.19" x2="105.36" y2="798.19"/>
    </g>
    <g id="ARC-19" data-name="ARC">
      <path class="cls-7" d="M105.44,798.27s-.04-.08-.08-.08"/>
    </g>
    <g id="ARC-20" data-name="ARC">
      <path class="cls-7" d="M104.1,798.19s-.08,.04-.08,.08"/>
    </g>
    <g id="LINE-112" data-name="LINE">
      <line class="cls-7" x1="73.22" y1="797.71" x2="73.22" y2="797.71"/>
    </g>
    <g id="LINE-113" data-name="LINE">
      <line class="cls-7" x1="74.62" y1="798.17" x2="73.19" y2="798.17"/>
    </g>
    <g id="LINE-114" data-name="LINE">
      <line class="cls-7" x1="73.19" y1="797.33" x2="73.19" y2="798.17"/>
    </g>
    <g id="LINE-115" data-name="LINE">
      <line class="cls-7" x1="74.62" y1="797.33" x2="74.62" y2="798.17"/>
    </g>
    <g id="LINE-116" data-name="LINE">
      <line class="cls-7" x1="73.28" y1="797.25" x2="74.53" y2="797.25"/>
    </g>
    <g id="ARC-21" data-name="ARC">
      <path class="cls-7" d="M74.62,797.33s-.04-.08-.08-.08"/>
    </g>
    <g id="ARC-22" data-name="ARC">
      <path class="cls-7" d="M73.28,797.25s-.08,.04-.08,.08"/>
    </g>
    <g id="LINE-117" data-name="LINE">
      <line class="cls-7" x1="143.02" y1="798.65" x2="143.02" y2="798.65"/>
    </g>
    <g id="LINE-118" data-name="LINE">
      <line class="cls-7" x1="141.62" y1="799.11" x2="143.05" y2="799.11"/>
    </g>
    <g id="LINE-119" data-name="LINE">
      <line class="cls-7" x1="143.05" y1="798.27" x2="143.05" y2="799.11"/>
    </g>
    <g id="LINE-120" data-name="LINE">
      <line class="cls-7" x1="141.62" y1="798.27" x2="141.62" y2="799.11"/>
    </g>
    <g id="LINE-121" data-name="LINE">
      <line class="cls-7" x1="142.96" y1="798.19" x2="141.71" y2="798.19"/>
    </g>
    <g id="ARC-23" data-name="ARC">
      <path class="cls-7" d="M141.62,798.27s.04-.08,.08-.08"/>
    </g>
    <g id="ARC-24" data-name="ARC">
      <path class="cls-7" d="M142.96,798.19s.08,.04,.08,.08"/>
    </g>
    <g id="LINE-122" data-name="LINE">
      <line class="cls-7" x1="173.85" y1="797.71" x2="173.85" y2="797.71"/>
    </g>
    <g id="LINE-123" data-name="LINE">
      <line class="cls-7" x1="172.45" y1="798.17" x2="173.87" y2="798.17"/>
    </g>
    <g id="LINE-124" data-name="LINE">
      <line class="cls-7" x1="173.87" y1="797.33" x2="173.87" y2="798.17"/>
    </g>
    <g id="LINE-125" data-name="LINE">
      <line class="cls-7" x1="172.45" y1="797.33" x2="172.45" y2="798.17"/>
    </g>
    <g id="LINE-126" data-name="LINE">
      <line class="cls-7" x1="173.79" y1="797.25" x2="172.53" y2="797.25"/>
    </g>
    <g id="ARC-25" data-name="ARC">
      <path class="cls-7" d="M172.45,797.33s.04-.08,.08-.08"/>
    </g>
    <g id="ARC-26" data-name="ARC">
      <path class="cls-7" d="M173.79,797.25s.08,.04,.08,.08"/>
    </g>
    <g id="LINE-127" data-name="LINE">
      <line class="cls-14" x1="122.87" y1="38.83" x2="122.88" y2="38.4"/>
    </g>
    <g id="LINE-128" data-name="LINE">
      <line class="cls-14" x1="123.36" y1="38.87" x2="123.6" y2="38.88"/>
    </g>
    <g id="LINE-129" data-name="LINE">
      <line class="cls-14" x1="124.27" y1="38.44" x2="122.72" y2="38.4"/>
    </g>
    <g id="LINE-130" data-name="LINE">
      <line class="cls-14" x1="123.43" y1="38.87" x2="123.42" y2="38.93"/>
    </g>
    <g id="LINE-131" data-name="LINE">
      <line class="cls-14" x1="123.54" y1="38.87" x2="123.53" y2="38.95"/>
    </g>
    <g id="LINE-132" data-name="LINE">
      <line class="cls-14" x1="123.36" y1="38.87" x2="123.38" y2="38.42"/>
    </g>
    <g id="LINE-133" data-name="LINE">
      <line class="cls-14" x1="123.6" y1="38.88" x2="123.61" y2="38.42"/>
    </g>
    <g id="LINE-134" data-name="LINE">
      <line class="cls-14" x1="124.11" y1="38.44" x2="124.09" y2="39.05"/>
    </g>
    <g id="LINE-135" data-name="LINE">
      <line class="cls-14" x1="124.27" y1="38.39" x2="124.27" y2="38.44"/>
    </g>
    <g id="LINE-136" data-name="LINE">
      <line class="cls-14" x1="122.72" y1="38.35" x2="122.72" y2="38.4"/>
    </g>
    <g id="LINE-137" data-name="LINE">
      <line class="cls-14" x1="123.13" y1="38.55" x2="123.85" y2="38.57"/>
    </g>
    <g id="LINE-138" data-name="LINE">
      <line class="cls-14" x1="123.86" y1="38.43" x2="123.85" y2="38.57"/>
    </g>
    <g id="LINE-139" data-name="LINE">
      <line class="cls-14" x1="123.13" y1="38.41" x2="123.13" y2="38.55"/>
    </g>
    <g id="LINE-140" data-name="LINE">
      <line class="cls-14" x1="124.1" y1="38.55" x2="124.33" y2="38.56"/>
    </g>
    <g id="LINE-141" data-name="LINE">
      <line class="cls-14" x1="124.1" y1="38.54" x2="124.33" y2="38.55"/>
    </g>
    <g id="LINE-142" data-name="LINE">
      <line class="cls-14" x1="124.11" y1="38.45" x2="124.33" y2="38.46"/>
    </g>
    <g id="LINE-143" data-name="LINE">
      <line class="cls-14" x1="124.11" y1="38.46" x2="124.33" y2="38.47"/>
    </g>
  </g>
  <g id="_07_Hatch" data-name="07_Hatch">
    <g id="ARC-27" data-name="ARC">
      <path class="cls-4" d="M123.13,38.48s0-.05-.04-.06-.05,0-.06,.04,0,.05,.04,.06c.01,0,.03,0,.04,0"/>
    </g>
    <g id="HATCH">
      <path class="cls-12" d="M123.51,38.05v.27s.77,.02,.77,.02v-.27s-.77-.02-.77-.02m0,0h-.21s0,.26,0,.26h.21s0-.26,0-.26m-.77-.02v.27s.39,.01,.39,.01v-.27s-.39-.01-.39-.01Z"/>
      <path class="cls-13" d="M122.77,38.04h0m.04,0h0m.04,0h0m.04,0h0m.04,0h0m.04,0h0m.04,0h0m.04,0h0m.04,0h0m.04,0h0m.4,.01h0m.04,0h0m.04,0h0m.04,0h0m.04,0h0m.04,0h0m.04,0h0m.04,0h0m.04,0h0m.04,0h0m.04,0h0m.04,0h0m.04,0h0m.04,0h0m.04,0h0m.04,0h0m.04,0h0m.04,0h0m.04,0h0m-.92-.03h0m.04,0h0m.04,0h0m.04,0h0m.04,0h0m-.74,.02h0m.04,0h0m.04,0h0m.04,0h0m.04,0h0m.04,0h0m.04,0h0m.04,0h0m.04,0h0m.04,0h0m.4,.01h0m.04,0h0m.04,0h0m.04,0h0m.04,0h0m.04,0h0m.04,0h0m.04,0h0m.04,0h0m.04,0h0m.04,0h0m.04,0h0m.04,0h0m.04,0h0m.04,0h0m.04,0h0m.04,0h0m.04,0h0m.04,0h0m.04,0h0m-.96-.03h0m.04,0h0m.04,0h0m.04,0h0m.04,0h0m-.7,.02h0m.04,0h0m.04,0h0m.04,0h0m.04,0h0m.04,0h0m.04,0h0m.04,0h0m.04,0h0m.04,0h0m.4,.01h0m.04,0h0m.04,0h0m.04,0h0m.04,0h0m.04,0h0m.04,0h0m.04,0h0m.04,0h0m.04,0h0m.04,0h0m.04,0h0m.04,0h0m.04,0h0m.04,0h0m.04,0h0m.04,0h0m.04,0h0m.04,0h0m-.92-.03h0m.04,0h0m.04,0h0m.04,0h0m.04,0h0m-.74,.02h0m.04,0h0m.04,0h0m.04,0h0m.04,0h0m.04,0h0m.04,0h0m.04,0h0m.04,0h0m.04,0h0m.4,.01h0m.04,0h0m.04,0h0m.04,0h0m.04,0h0m.04,0h0m.04,0h0m.04,0h0m.04,0h0m.04,0h0m.04,0h0m.04,0h0m.04,0h0m.04,0h0m.04,0h0m.04,0h0m.04,0h0m.04,0h0m.04,0h0m.04,0h0m-.96-.03h0m.04,0h0m.04,0h0m.04,0h0m.04,0h0m-.7,.02h0m.04,0h0m.04,0h0m.04,0h0m.04,0h0m.04,0h0m.04,0h0m.04,0h0m.04,0h0m.04,0h0m.4,.01h0m.04,0h0m.04,0h0m.04,0h0m.04,0h0m.04,0h0m.04,0h0m.04,0h0m.04,0h0m.04,0h0m.04,0h0m.04,0h0m.04,0h0m.04,0h0m.04,0h0m.04,0h0m.04,0h0m.04,0h0m.04,0h0m-.92-.03h0m.04,0h0m.04,0h0m.04,0h0m.04,0h0m-.74,.02h0m.04,0h0m.04,0h0m.04,0h0m.04,0h0m.04,0h0m.04,0h0m.04,0h0m.04,0h0m.04,0h0m.4,.01h0m.04,0h0m.04,0h0m.04,0h0m.04,0h0m.04,0h0m.04,0h0m.04,0h0m.04,0h0m.04,0h0m.04,0h0m.04,0h0m.04,0h0m.04,0h0m.04,0h0m.04,0h0m.04,0h0m.04,0h0m.04,0h0m.04,0h0m-.96-.03h0m.04,0h0m.04,0h0m.04,0h0m.04,0h0m-.7,.02h0m.04,0h0m.04,0h0m.04,0h0m.04,0h0m.04,0h0m.04,0h0m.04,0h0m.04,0h0m.04,0h0m.4,.01h0m.04,0h0m.04,0h0m.04,0h0m.04,0h0m.04,0h0m.04,0h0m.04,0h0m.04,0h0m.04,0h0m.04,0h0m.04,0h0m.04,0h0m.04,0h0m.04,0h0m.04,0h0m.04,0h0m.04,0h0m.04,0h0m-.92-.03h0m.04,0h0m.04,0h0m.04,0h0m.04,0h0"/>
    </g>
    <g id="HATCH-2" data-name="HATCH">
      <path class="cls-12" d="M123.52,37.62v.27s.77,.02,.77,.02v-.27s-.77-.02-.77-.02m0,0h-.21s0,.26,0,.26h.21s0-.26,0-.26m-.77-.02v.27s.39,.01,.39,.01v-.27s-.39-.01-.39-.01Z"/>
      <path class="cls-13" d="M122.75,37.62h0m.04,0h0m.04,0h0m.04,0h0m.04,0h0m.04,0h0m.04,0h0m.04,0h0m.04,0h0m.04,0h0m.04,0h0m.4,.01h0m.04,0h0m.04,0h0m.04,0h0m.04,0h0m.04,0h0m.04,0h0m.04,0h0m.04,0h0m.04,0h0m.04,0h0m.04,0h0m.04,0h0m.04,0h0m.04,0h0m.04,0h0m.04,0h0m.04,0h0m.04,0h0m-.96-.03h0m.04,0h0m.04,0h0m.04,0h0m.04,0h0m.04,0h0m-.74,.02h0m.04,0h0m.04,0h0m.04,0h0m.04,0h0m.04,0h0m.04,0h0m.04,0h0m.04,0h0m.04,0h0m.4,.01h0m.04,0h0m.04,0h0m.04,0h0m.04,0h0m.04,0h0m.04,0h0m.04,0h0m.04,0h0m.04,0h0m.04,0h0m.04,0h0m.04,0h0m.04,0h0m.04,0h0m.04,0h0m.04,0h0m.04,0h0m.04,0h0m.04,0h0m-.96-.03h0m.04,0h0m.04,0h0m.04,0h0m.04,0h0m-.74,.02h0m.04,0h0m.04,0h0m.04,0h0m.04,0h0m.04,0h0m.04,0h0m.04,0h0m.04,0h0m.04,0h0m.04,0h0m.4,.01h0m.04,0h0m.04,0h0m.04,0h0m.04,0h0m.04,0h0m.04,0h0m.04,0h0m.04,0h0m.04,0h0m.04,0h0m.04,0h0m.04,0h0m.04,0h0m.04,0h0m.04,0h0m.04,0h0m.04,0h0m.04,0h0m-.96-.03h0m.04,0h0m.04,0h0m.04,0h0m.04,0h0m.04,0h0m-.74,.02h0m.04,0h0m.04,0h0m.04,0h0m.04,0h0m.04,0h0m.04,0h0m.04,0h0m.04,0h0m.04,0h0m.4,.01h0m.04,0h0m.04,0h0m.04,0h0m.04,0h0m.04,0h0m.04,0h0m.04,0h0m.04,0h0m.04,0h0m.04,0h0m.04,0h0m.04,0h0m.04,0h0m.04,0h0m.04,0h0m.04,0h0m.04,0h0m.04,0h0m.04,0h0m-.96-.03h0m.04,0h0m.04,0h0m.04,0h0m.04,0h0m-.74,.02h0m.04,0h0m.04,0h0m.04,0h0m.04,0h0m.04,0h0m.04,0h0m.04,0h0m.04,0h0m.04,0h0m.04,0h0m.4,.01h0m.04,0h0m.04,0h0m.04,0h0m.04,0h0m.04,0h0m.04,0h0m.04,0h0m.04,0h0m.04,0h0m.04,0h0m.04,0h0m.04,0h0m.04,0h0m.04,0h0m.04,0h0m.04,0h0m.04,0h0m.04,0h0m-.96-.03h0m.04,0h0m.04,0h0m.04,0h0m.04,0h0m.04,0h0m-.74,.02h0m.04,0h0m.04,0h0m.04,0h0m.04,0h0m.04,0h0m.04,0h0m.04,0h0m.04,0h0m.04,0h0m.4,.01h0m.04,0h0m.04,0h0m.04,0h0m.04,0h0m.04,0h0m.04,0h0m.04,0h0m.04,0h0m.04,0h0m.04,0h0m.04,0h0m.04,0h0m.04,0h0m.04,0h0m.04,0h0m.04,0h0m.04,0h0m.04,0h0m.04,0h0m-.96-.03h0m.04,0h0m.04,0h0m.04,0h0m.04,0h0"/>
    </g>
  </g>
  <g id="_05_Phantom" data-name="05_Phantom">
    <g id="ARC-28" data-name="ARC">
      <path class="cls-11" d="M123.29,38.48c-.04-.05-.12-.06-.17-.02,0,0,0,0-.01,0"/>
    </g>
    <g id="ARC-29" data-name="ARC">
      <path class="cls-11" d="M123.11,38.47c.04,.05,.12,.06,.17,.02,0,0,0,0,.01,0"/>
    </g>
    <g id="LINE-144" data-name="LINE">
      <line class="cls-5" x1="122.73" y1="38.03" x2="122.72" y2="38.29"/>
    </g>
    <g id="LINE-145" data-name="LINE">
      <line class="cls-5" x1="124.28" y1="38.08" x2="124.27" y2="38.34"/>
    </g>
    <g id="LINE-146" data-name="LINE">
      <line class="cls-5" x1="122.75" y1="37.53" x2="124.3" y2="37.57"/>
    </g>
    <g id="LINE-147" data-name="LINE">
      <line class="cls-5" x1="124.3" y1="37.57" x2="124.26" y2="37.54"/>
    </g>
    <g id="LINE-148" data-name="LINE">
      <line class="cls-5" x1="124.3" y1="37.57" x2="124.28" y2="38.08"/>
    </g>
    <g id="LINE-149" data-name="LINE">
      <line class="cls-5" x1="122.73" y1="38.03" x2="124.28" y2="38.08"/>
    </g>
    <g id="LINE-150" data-name="LINE">
      <line class="cls-5" x1="122.78" y1="37.49" x2="123.52" y2="37.52"/>
    </g>
    <g id="LINE-151" data-name="LINE">
      <line class="cls-5" x1="122.75" y1="37.53" x2="122.73" y2="38.03"/>
    </g>
    <g id="LINE-152" data-name="LINE">
      <line class="cls-5" x1="122.75" y1="37.53" x2="122.78" y2="37.49"/>
    </g>
    <g id="LINE-153" data-name="LINE">
      <line class="cls-5" x1="124.26" y1="37.54" x2="123.52" y2="37.52"/>
    </g>
    <g id="LINE-154" data-name="LINE">
      <line class="cls-5" x1="124.27" y1="38.44" x2="124.27" y2="38.34"/>
    </g>
    <g id="LINE-155" data-name="LINE">
      <line class="cls-5" x1="123.28" y1="38.31" x2="124.27" y2="38.34"/>
    </g>
    <g id="LINE-156" data-name="LINE">
      <line class="cls-5" x1="122.72" y1="38.4" x2="122.72" y2="38.29"/>
    </g>
    <g id="LINE-157" data-name="LINE">
      <line class="cls-5" x1="122.72" y1="38.4" x2="124.27" y2="38.44"/>
    </g>
    <g id="LINE-158" data-name="LINE">
      <line class="cls-5" x1="122.72" y1="38.29" x2="123.13" y2="38.31"/>
    </g>
    <g id="LINE-159" data-name="LINE">
      <line class="cls-5" x1="123.13" y1="38.31" x2="123.13" y2="38.04"/>
    </g>
    <g id="LINE-160" data-name="LINE">
      <line class="cls-5" x1="123.29" y1="38.04" x2="123.28" y2="38.31"/>
    </g>
    <g id="LINE-161" data-name="LINE">
      <line class="cls-5" x1="124.07" y1="38.57" x2="122.91" y2="38.54"/>
    </g>
    <g id="LINE-162" data-name="LINE">
      <line class="cls-5" x1="122.91" y1="38.54" x2="122.92" y2="38.4"/>
    </g>
    <g id="LINE-163" data-name="LINE">
      <line class="cls-5" x1="124.07" y1="38.57" x2="124.07" y2="38.44"/>
    </g>
    <g id="LINE-164" data-name="LINE">
      <line class="cls-5" x1="122.73" y1="37.96" x2="124.28" y2="38.01"/>
    </g>
    <g id="LINE-165" data-name="LINE">
      <line class="cls-5" x1="122.75" y1="37.59" x2="122.74" y2="37.86"/>
    </g>
    <g id="LINE-166" data-name="LINE">
      <line class="cls-5" x1="124.29" y1="37.64" x2="124.29" y2="37.91"/>
    </g>
    <g id="LINE-167" data-name="LINE">
      <line class="cls-5" x1="122.75" y1="37.59" x2="124.29" y2="37.64"/>
    </g>
    <g id="LINE-168" data-name="LINE">
      <line class="cls-5" x1="123.3" y1="37.88" x2="124.29" y2="37.91"/>
    </g>
    <g id="LINE-169" data-name="LINE">
      <line class="cls-5" x1="122.74" y1="37.86" x2="123.14" y2="37.87"/>
    </g>
    <g id="LINE-170" data-name="LINE">
      <line class="cls-5" x1="123.14" y1="37.87" x2="123.15" y2="37.6"/>
    </g>
    <g id="LINE-171" data-name="LINE">
      <line class="cls-5" x1="123.31" y1="37.61" x2="123.3" y2="37.88"/>
    </g>
  </g>
</svg>