<svg version="1.2" xmlns="http://www.w3.org/2000/svg" viewBox="0 0 988 1316" width="610" height="800">
	<title>image</title>
	<path id="Forma 1" fill-rule="evenodd" style="fill: #6d92ab" d="m35.6 1258.8l-3.5-3.6 21.6-21.4 3.5 3.6z"/>
	<path id="Forma 2" fill-rule="evenodd" style="fill: #6d92ab" d="m54.9 1238.9v-5l329.2-0.4v5z"/>
	<path id="Forma 3" fill-rule="evenodd" style="fill: #6d92ab" d="m32.2 1255.5l4.9 1-7.4 36.2-4.9-1z"/>
	<path id="Forma 4" fill-rule="evenodd" style="fill: #6d92ab" d="m27 1294.7l0.6-5 48.4 6-0.6 5z"/>
	<path id="Forma 5" fill-rule="evenodd" style="fill: #6d92ab" d="m24.5 1303.1v-5l933 1.2v5z"/>
	<path id="Forma 6" fill-rule="evenodd" style="fill: #6d92ab" d="m958.8 1303.9l-4.2-2.6 4.6-7.4 4.2 2.6z"/>
	<path id="Forma 7" fill-rule="evenodd" style="fill: #6d92ab" d="m963.8 1296.6h-5v-69.7h5z"/>
	<path id="Forma 8" fill-rule="evenodd" style="fill: #6d92ab" d="m963.6 1223.9l0.1 5-586.4 9.4-0.1-5z"/>
	<path id="Forma 9" fill-rule="evenodd" style="fill: #6d92ab" d="m643.7 1229.7l-3.2 3.8-8.4-6.8 3.2-3.8z"/>
	<path id="Forma 10" fill-rule="evenodd" style="fill: #6d92ab" d="m635.7 1221.3v5l-137 0.4v-5z"/>
	<path id="Forma 11" fill-rule="evenodd" style="fill: #6d92ab" d="m499.5 1221.9l-1.7 4.7-60.8-22.2 1.7-4.7z"/>
	<path id="Forma 12" style="fill: #6d92ab" d="m437.5 1199.9l-0.4 5-32-2.6 0.4-5zm-26-2.8v5h-134.2v-5z"/>
	<path id="Forma 13" fill-rule="evenodd" style="fill: #6d92ab" d="m275.5 1200.1l2.8-4.2 20.4 13.8-2.8 4.2z"/>
	<path id="Forma 14" fill-rule="evenodd" style="fill: #6d92ab" d="m296.2 1208.4l3 4-19.4 14.6-3-4z"/>
	<path id="Forma 15" fill-rule="evenodd" style="fill: #6d92ab" d="m281.9 1218.5v5h-109.8v-5z"/>
	<path id="Forma 16" fill-rule="evenodd" style="fill: #6d92ab" d="m172 1217.8l2.5 4.4-7 4-2.5-4.4z"/>
	<path id="Forma 17" fill-rule="evenodd" style="fill: #6d92ab" d="m166.9 1221l2.3 4.4-6.2 3.2-2.3-4.4z"/>
	<path id="Forma 18" fill-rule="evenodd" style="fill: #6d92ab" d="m161.9 1223.3l2.7 4.2-16 10.4-2.7-4.2z"/>
	<path id="Forma 19" fill-rule="evenodd" style="fill: #6d92ab" d="m309.1 1233.9l-3.2-3.8 25.6-21 3.2 3.8z"/>
	<path id="Forma 20" fill-rule="evenodd" style="fill: #6d92ab" d="m331.3 1214.5v-5h132.4v5z"/>
	<path id="Forma 21" fill-rule="evenodd" style="fill: #6d92ab" d="m311.3 1231.3v-5h138.8v5z"/>
	<path id="Forma 22" fill-rule="evenodd" style="fill: #6d92ab" d="m449.8 1232l-1.4-4.8 18.8-5.2 1.4 4.8z"/>
	<path id="Forma 23" fill-rule="evenodd" style="fill: #6d92ab" d="m468.6 1226.8l-2.2-4.4 4.4-2.2 2.2 4.4z"/>
	<path id="Forma 24" fill-rule="evenodd" style="fill: #6d92ab" d="m468.3 1225.5v-5h25.7v5z"/>
	<path id="Forma 25" fill-rule="evenodd" style="fill: #6d92ab" d="m467 1220.7l-2.6 4.3-18.2-10.8 2.6-4.3z"/>
	<path id="Forma 26" fill-rule="evenodd" style="fill: #6d92ab" d="m30.5 1287.9v-5l930.8-5.8v5z"/>
	<path id="Forma 27" fill-rule="evenodd" style="fill: #6d92ab" d="m165 1171l-3.8-3.2 13.8-16.6 3.8 3.2z"/>
	<path id="Forma 28" fill-rule="evenodd" style="fill: #6d92ab" d="m173.3 1156.5v-5l358.2-1.8v5z"/>
	<path id="Forma 29" fill-rule="evenodd" style="fill: #6d92ab" d="m528.6 1153.8l3-4 6.8 5.2-3 4z"/>
	<path id="Forma 30" fill-rule="evenodd" style="fill: #6d92ab" d="m534.6 1158l4.6-2 3.4 7.6-4.6 2z"/>
	<path id="Forma 31" fill-rule="evenodd" style="fill: #6d92ab" d="m538 1164.8h5l0.2 12.4h-5z"/>
	<path id="Forma 32" fill-rule="evenodd" style="fill: #6d92ab" d="m542.9 1173.5v5l-219.2-0.2v-5z"/>
	<path id="Forma 33" fill-rule="evenodd" style="fill: #6d92ab" d="m323.8 1173.3l-0.2 5-161.8-7 0.2-5z"/>
	<path id="Forma 34" fill-rule="evenodd" style="fill: #6d92ab" d="m433.7 1179.8l1.5-4.8 98.8 30.8-1.5 4.8z"/>
	<path id="Forma 35" fill-rule="evenodd" style="fill: #6d92ab" d="m533.6 1210.7l-0.6-5 14.6-1.6 0.6 5z"/>
	<path id="Forma 36" fill-rule="evenodd" style="fill: #6d92ab" d="m529.9 1210.3l2.8-4.2 16.6 11.4-2.8 4.2z"/>
	<path id="Forma 37" fill-rule="evenodd" style="fill: #6d92ab" d="m550.4 1232.6h-5l-2.4-222.4h5z"/>
	<path id="Forma 38" fill-rule="evenodd" style="fill: #6d92ab" d="m548 1011.5l-5 0.2-7.4-251.2 5-0.2z"/>
	<path id="Forma 39" fill-rule="evenodd" style="fill: #6d92ab" d="m540.6 760.3l-5 0.2-12.2-220 5-0.2z"/>
	<path id="Forma 40" fill-rule="evenodd" style="fill: #6d92ab" d="m528.4 542.2l-5 0.4-14.2-220.4 5-0.4z"/>
	<path id="Forma 41" fill-rule="evenodd" style="fill: #6d92ab" d="m514.8 324.9l-5 0.2-1-28.8 5-0.2z"/>
	<path id="Forma 42" fill-rule="evenodd" style="fill: #6d92ab" d="m514 299.4l-5 0.4-24.2-256 5-0.4z"/>
	<path id="Forma 43" fill-rule="evenodd" style="fill: #6d92ab" d="m486.3 46.3v-5h14.2v5z"/>
	<path id="Forma 44" style="fill: #6d92ab" d="m503 43l-5 0.8-2.6-15 5-0.8zm-5.1-17.1v5l-29.8-0.2v-5z"/>
	<path id="Forma 45" fill-rule="evenodd" style="fill: #6d92ab" d="m466.3 30l3.6-3.6 20.9 21-3.5 3.5z"/>
	<path id="Forma 46" fill-rule="evenodd" style="fill: #6d92ab" d="m497.4 41.9l5-0.5 26.6 260.2-5 0.5z"/>
	<path id="Forma 47" fill-rule="evenodd" style="fill: #6d92ab" d="m523.4 296.2l5-0.4 16.6 245-5 0.4z"/>
	<path id="Forma 48" fill-rule="evenodd" style="fill: #6d92ab" d="m540 539.1l5-0.2 13.8 271.6-5 0.2z"/>
	<path id="Forma 49" fill-rule="evenodd" style="fill: #6d92ab" d="m553.4 809.3l5-0.2 6.2 225.4-5 0.2z"/>
	<path id="Forma 50" fill-rule="evenodd" style="fill: #6d92ab" d="m559.6 1032.5l5-0.1 3.4 190.8-5 0.1z"/>
	<path id="Forma 51" fill-rule="evenodd" style="fill: #6d92ab" d="m466.9 31.2l4.7 1.6-174 493-4.7-1.6z"/>
	<path id="Forma 52" fill-rule="evenodd" style="fill: #6d92ab" d="m293.9 521.7l4.7 1.7-259.5 731.5-4.7-1.7z"/>
	<path id="Forma 53" fill-rule="evenodd" style="fill: #6d92ab" d="m483 41.5l0.1 5-10 0.2-0.1-5z"/>
	<path id="Forma 54" fill-rule="evenodd" style="fill: #6d92ab" d="m472.5 41.2l4.7 1.6-48.8 136.4-4.7-1.6z"/>
	<path id="Forma 55" fill-rule="evenodd" style="fill: #6d92ab" d="m424.3 175.9l4.8 1.5-75 237.8-4.8-1.5z"/>
	<path id="Forma 56" fill-rule="evenodd" style="fill: #6d92ab" d="m349.7 412.7l4.8 1.4-52.4 192-4.8-1.4z"/>
	<path id="Forma 57" fill-rule="evenodd" style="fill: #6d92ab" d="m297.2 604.9l4.9 1.1-45.6 202.2-4.9-1.1z"/>
	<path id="Forma 58" fill-rule="evenodd" style="fill: #6d92ab" d="m251.6 806.2l4.9 0.8-40.8 227.8-4.9-0.8z"/>
	<path id="Forma 59" fill-rule="evenodd" style="fill: #6d92ab" d="m211 1033.6l5 0.8-17.8 119-5-0.8z"/>
	<path id="Forma 60" fill-rule="evenodd" style="fill: #6d92ab" d="m506.7 123.7l4.7-1.8 134.6 355.8-4.7 1.8z"/>
	<path id="Forma 61" fill-rule="evenodd" style="fill: #6d92ab" d="m640.1 477.1l4.7-1.8 145.4 384.2-4.7 1.8z"/>
	<path id="Forma 62" fill-rule="evenodd" style="fill: #6d92ab" d="m784.8 858.9l4.6-1.8 140.4 368.6-4.6 1.8z"/>
	<path id="Forma 63" fill-rule="evenodd" style="fill: #6d92ab" d="m851.4 1226l-4.7 1.6-147.8-421.2 4.7-1.6z"/>
	<path id="Forma 64" fill-rule="evenodd" style="fill: #6d92ab" d="m704.2 806.2l-4.7 1.6-93.4-268.4 4.7-1.6z"/>
	<path id="Forma 65" fill-rule="evenodd" style="fill: #6d92ab" d="m611.1 539.2l-4.8 1.6-81.6-235.8 4.8-1.6z"/>
	<path id="Forma 66" fill-rule="evenodd" style="fill: #6d92ab" d="m505.4 515h-5l-4.6-349.4h5z"/>
	<path id="Forma 67" fill-rule="evenodd" style="fill: #6d92ab" d="m511.2 367.2l5 0.4-11.2 147.2-5-0.4z"/>
	<path id="Forma 68" fill-rule="evenodd" style="fill: #6d92ab" d="m500 512.1l5-0.2 8 316-5 0.2z"/>
	<path id="Forma 69" fill-rule="evenodd" style="fill: #6d92ab" d="m507.8 826.7l5-0.1 5.4 303.2-5 0.1z"/>
	<path id="Forma 70" fill-rule="evenodd" style="fill: #6d92ab" d="m513.4 1128.2h5l0.2 103.4h-5z"/>
	<path id="Forma 71" fill-rule="evenodd" style="fill: #6d92ab" d="m520 1214.6l-5-0.8 27-164 5 0.8z"/>
	<path id="Forma 72" fill-rule="evenodd" style="fill: #6d92ab" d="m555.4 990.5l-0.2 5-40-2.2 0.2-5z"/>
	<path id="Forma 73" fill-rule="evenodd" style="fill: #6d92ab" d="m518.2 978.2l-5-0.8 29.2-200 5 0.8z"/>
	<path id="Forma 74" fill-rule="evenodd" style="fill: #6d92ab" d="m549.8 768.5l-0.6 5-41-5 0.6-5z"/>
	<path id="Forma 75" fill-rule="evenodd" style="fill: #6d92ab" d="m513.8 748.9l-5-0.6 17.4-167.4 5 0.6z"/>
	<path id="Forma 76" fill-rule="evenodd" style="fill: #6d92ab" d="m537.8 535l-1 4.9-35.6-6.8 1-4.9z"/>
	<path id="Forma 77" fill-rule="evenodd" style="fill: #6d92ab" d="m507.5 305.8l4.8 1.6-67.6 209.6-4.8-1.6z"/>
	<path id="Forma 78" fill-rule="evenodd" style="fill: #6d92ab" d="m440.3 514.6l4.8 1.6-119.2 373.2-4.8-1.6z"/>
	<path id="Forma 79" fill-rule="evenodd" style="fill: #6d92ab" d="m321.5 886.8l4.8 1.6-82.8 259.6-4.8-1.6z"/>
	<path id="Forma 80" fill-rule="evenodd" style="fill: #6d92ab" d="m212.2 1219.7l-4.6-1.8 17.4-44.2 4.6 1.8z"/>
	<path id="Forma 81" fill-rule="evenodd" style="fill: #6d92ab" d="m233.9 1173.4l4.8 1.6-19.4 60-4.8-1.6z"/>
	<path id="Forma 82" fill-rule="evenodd" style="fill: #6d92ab" d="m237.6 1145l4.6 2-3.4 7.5-4.6-2.1z"/>
	<path id="Forma 83" fill-rule="evenodd" style="fill: #6d92ab" d="m239.6 1145.4l5 0.8-1.4 8.6-5-0.8z"/>
</svg>